G04 #@! TF.GenerationSoftware,KiCad,Pcbnew,(6.0.10)*
G04 #@! TF.CreationDate,2023-02-01T11:06:55+01:00*
G04 #@! TF.ProjectId,astropix_v3,61737472-6f70-4697-985f-76332e6b6963,1.0*
G04 #@! TF.SameCoordinates,Original*
G04 #@! TF.FileFunction,Legend,Bot*
G04 #@! TF.FilePolarity,Positive*
%FSLAX46Y46*%
G04 Gerber Fmt 4.6, Leading zero omitted, Abs format (unit mm)*
G04 Created by KiCad (PCBNEW (6.0.10)) date 2023-02-01 11:06:55*
%MOMM*%
%LPD*%
G01*
G04 APERTURE LIST*
%ADD10C,3.200000*%
%ADD11C,2.250000*%
%ADD12R,1.700000X1.700000*%
%ADD13O,1.700000X1.700000*%
%ADD14R,0.700000X3.200000*%
%ADD15R,0.700000X4.300000*%
%ADD16C,3.100000*%
%ADD17C,0.600000*%
%ADD18C,0.450000*%
G04 APERTURE END LIST*
%LPC*%
D10*
G04 #@! TO.C,H2*
X159875000Y-53075000D03*
G04 #@! TD*
D11*
G04 #@! TO.C,J6*
X109520000Y-75000000D03*
X106980000Y-72460000D03*
X112060000Y-77540000D03*
X106980000Y-77540000D03*
X112060000Y-72460000D03*
G04 #@! TD*
D12*
G04 #@! TO.C,J9*
X126492000Y-54610000D03*
D13*
X123952000Y-54610000D03*
X121412000Y-54610000D03*
X118872000Y-54610000D03*
X116332000Y-54610000D03*
X113792000Y-54610000D03*
G04 #@! TD*
D12*
G04 #@! TO.C,J10*
X130937000Y-54610000D03*
D13*
X133477000Y-54610000D03*
X136017000Y-54610000D03*
X138557000Y-54610000D03*
X141097000Y-54610000D03*
X143637000Y-54610000D03*
G04 #@! TD*
D14*
G04 #@! TO.C,J1*
X106172000Y-105241000D03*
D15*
X108172000Y-105791000D03*
X109172000Y-105791000D03*
X110172000Y-105791000D03*
X111172000Y-105791000D03*
X112172000Y-105791000D03*
X113172000Y-105791000D03*
X114172000Y-105791000D03*
X115172000Y-105791000D03*
X116172000Y-105791000D03*
X119172000Y-105791000D03*
X120172000Y-105791000D03*
X121172000Y-105791000D03*
X122172000Y-105791000D03*
X123172000Y-105791000D03*
X124172000Y-105791000D03*
X125172000Y-105791000D03*
X126172000Y-105791000D03*
X127172000Y-105791000D03*
X128172000Y-105791000D03*
X129172000Y-105791000D03*
X130172000Y-105791000D03*
X131172000Y-105791000D03*
X132172000Y-105791000D03*
X133172000Y-105791000D03*
X134172000Y-105791000D03*
X135172000Y-105791000D03*
X136172000Y-105791000D03*
X137172000Y-105791000D03*
X138172000Y-105791000D03*
X139172000Y-105791000D03*
X140172000Y-105791000D03*
X141172000Y-105791000D03*
X142172000Y-105791000D03*
X143172000Y-105791000D03*
X144172000Y-105791000D03*
X145172000Y-105791000D03*
X146172000Y-105791000D03*
X147172000Y-105791000D03*
X148172000Y-105791000D03*
X149172000Y-105791000D03*
X150172000Y-105791000D03*
X151172000Y-105791000D03*
X152172000Y-105791000D03*
X153172000Y-105791000D03*
X154172000Y-105791000D03*
X155172000Y-105791000D03*
X156172000Y-105791000D03*
G04 #@! TD*
D12*
G04 #@! TO.C,JP1*
X114909600Y-92710000D03*
D13*
X114909600Y-95250000D03*
X114909600Y-97790000D03*
G04 #@! TD*
D10*
G04 #@! TO.C,H1*
X118850000Y-59950000D03*
G04 #@! TD*
D11*
G04 #@! TO.C,J5*
X152800000Y-64800000D03*
X155340000Y-67340000D03*
X155340000Y-62260000D03*
X150260000Y-62260000D03*
X150260000Y-67340000D03*
G04 #@! TD*
D16*
G04 #@! TO.C,H3*
X108500000Y-81800000D03*
X153500000Y-81800000D03*
X153500000Y-54800000D03*
X108500000Y-54800000D03*
G04 #@! TD*
D11*
G04 #@! TO.C,J4*
X152800000Y-76000000D03*
X150260000Y-78540000D03*
X155340000Y-73460000D03*
X150260000Y-73460000D03*
X155340000Y-78540000D03*
G04 #@! TD*
D17*
G04 #@! TO.C,U5*
X120400000Y-81400000D03*
X121100000Y-82100000D03*
X121800000Y-82700000D03*
G04 #@! TD*
D12*
G04 #@! TO.C,J2*
X114700000Y-68400000D03*
D13*
X112160000Y-68400000D03*
X109620000Y-68400000D03*
X107080000Y-68400000D03*
G04 #@! TD*
D12*
G04 #@! TO.C,J7*
X112700000Y-64100000D03*
D13*
X110160000Y-64100000D03*
X107620000Y-64100000D03*
G04 #@! TD*
D12*
G04 #@! TO.C,J3*
X154600000Y-85960000D03*
D13*
X154600000Y-88500000D03*
X154600000Y-91040000D03*
X154600000Y-93580000D03*
X154600000Y-96120000D03*
G04 #@! TD*
D18*
X138300000Y-79400000D03*
X122025400Y-91274600D03*
X121523700Y-91274600D03*
X121551404Y-96863200D03*
X122123200Y-96850200D03*
X118600000Y-84100000D03*
X142200000Y-84300000D03*
X120525279Y-84289388D03*
X115400000Y-83100000D03*
X136800000Y-88200000D03*
X141900000Y-88200000D03*
X129901386Y-101901386D03*
X128750000Y-94800000D03*
X143000000Y-85600000D03*
X136085000Y-83635000D03*
X135200000Y-102800000D03*
X134508715Y-87608887D03*
X141312479Y-91777953D03*
X140561501Y-91609631D03*
X138175249Y-90216461D03*
X128800000Y-88600000D03*
X128300000Y-102850000D03*
X129338489Y-92700000D03*
X129500000Y-94700000D03*
X128547601Y-92809810D03*
X139088000Y-86200000D03*
X120777000Y-94742000D03*
X125347197Y-91920804D03*
X136657557Y-83538000D03*
X149411002Y-83757228D03*
X125385000Y-83585000D03*
X117500400Y-93421200D03*
X129338000Y-86300000D03*
X119150000Y-89450000D03*
X115824000Y-102717600D03*
X119176800Y-93421200D03*
X134611520Y-84750000D03*
X129700000Y-83300000D03*
X115214400Y-102743000D03*
X120800000Y-89450000D03*
X131750000Y-83000000D03*
X120751600Y-93421200D03*
X117550000Y-89450000D03*
X115824000Y-102108000D03*
X138350000Y-84900000D03*
X110642400Y-89814400D03*
X117500388Y-94691200D03*
X123797801Y-92835204D03*
X133350000Y-83250000D03*
X119151402Y-94691200D03*
X127600000Y-83600000D03*
X126439401Y-89253804D03*
X115214400Y-102108000D03*
X127400000Y-86300000D03*
X135412000Y-86100000D03*
X137550000Y-82850000D03*
X113944400Y-89814398D03*
X129150000Y-102600000D03*
X128152446Y-101285102D03*
X106297030Y-103276400D03*
X117900000Y-76000000D03*
X118807298Y-76007298D03*
X121991250Y-78991250D03*
X121500000Y-76000000D03*
X120552861Y-75952861D03*
X146100000Y-72800000D03*
X144500000Y-73900000D03*
X146800000Y-72900000D03*
X145500000Y-72200000D03*
X144997500Y-73300000D03*
X132981510Y-99685838D03*
X131600000Y-99900000D03*
X139900000Y-99100000D03*
X144900000Y-100900000D03*
X141200000Y-84000000D03*
X116694142Y-66014314D03*
X140500000Y-84000000D03*
X117325000Y-68875000D03*
X117193164Y-71138907D03*
X139808672Y-83891328D03*
X139208672Y-83291328D03*
X117605164Y-73544836D03*
X137600000Y-88800000D03*
X142400000Y-90300000D03*
X138212281Y-89200000D03*
X142899244Y-91901275D03*
X138788000Y-89673383D03*
X141932656Y-91517344D03*
X116550000Y-88650000D03*
X122400000Y-87300000D03*
X116550000Y-87400000D03*
X116550000Y-88000000D03*
X121800000Y-87300000D03*
X139950000Y-102150000D03*
X125100000Y-85300000D03*
X118600000Y-80800000D03*
M02*
