G04 #@! TF.GenerationSoftware,KiCad,Pcbnew,(6.0.10)*
G04 #@! TF.CreationDate,2023-02-01T10:46:16+01:00*
G04 #@! TF.ProjectId,astropix_v3,61737472-6f70-4697-985f-76332e6b6963,1.0*
G04 #@! TF.SameCoordinates,Original*
G04 #@! TF.FileFunction,Soldermask,Top*
G04 #@! TF.FilePolarity,Negative*
%FSLAX46Y46*%
G04 Gerber Fmt 4.6, Leading zero omitted, Abs format (unit mm)*
G04 Created by KiCad (PCBNEW (6.0.10)) date 2023-02-01 10:46:16*
%MOMM*%
%LPD*%
G01*
G04 APERTURE LIST*
G04 Aperture macros list*
%AMRoundRect*
0 Rectangle with rounded corners*
0 $1 Rounding radius*
0 $2 $3 $4 $5 $6 $7 $8 $9 X,Y pos of 4 corners*
0 Add a 4 corners polygon primitive as box body*
4,1,4,$2,$3,$4,$5,$6,$7,$8,$9,$2,$3,0*
0 Add four circle primitives for the rounded corners*
1,1,$1+$1,$2,$3*
1,1,$1+$1,$4,$5*
1,1,$1+$1,$6,$7*
1,1,$1+$1,$8,$9*
0 Add four rect primitives between the rounded corners*
20,1,$1+$1,$2,$3,$4,$5,0*
20,1,$1+$1,$4,$5,$6,$7,0*
20,1,$1+$1,$6,$7,$8,$9,0*
20,1,$1+$1,$8,$9,$2,$3,0*%
G04 Aperture macros list end*
%ADD10C,0.120000*%
%ADD11C,0.475000*%
%ADD12C,0.100000*%
%ADD13R,19.210000X19.980000*%
%ADD14R,0.125000X0.500000*%
%ADD15R,0.125000X0.600000*%
%ADD16R,0.100000X0.100000*%
%ADD17R,0.600000X0.125000*%
%ADD18C,0.600000*%
%ADD19C,3.200000*%
%ADD20R,1.700000X1.700000*%
%ADD21O,1.700000X1.700000*%
%ADD22RoundRect,0.225000X-0.250000X0.225000X-0.250000X-0.225000X0.250000X-0.225000X0.250000X0.225000X0*%
%ADD23C,2.250000*%
%ADD24RoundRect,0.249999X1.100001X-0.325001X1.100001X0.325001X-1.100001X0.325001X-1.100001X-0.325001X0*%
%ADD25C,2.000000*%
%ADD26RoundRect,0.249997X-0.625003X0.312503X-0.625003X-0.312503X0.625003X-0.312503X0.625003X0.312503X0*%
%ADD27R,0.300000X0.575000*%
%ADD28R,0.250000X0.575000*%
%ADD29R,0.630000X0.350000*%
%ADD30RoundRect,0.135000X-0.135000X-0.185000X0.135000X-0.185000X0.135000X0.185000X-0.135000X0.185000X0*%
%ADD31R,0.700000X4.300000*%
%ADD32R,0.700000X3.200000*%
%ADD33RoundRect,0.225000X0.250000X-0.225000X0.250000X0.225000X-0.250000X0.225000X-0.250000X-0.225000X0*%
%ADD34RoundRect,0.200000X0.275000X-0.200000X0.275000X0.200000X-0.275000X0.200000X-0.275000X-0.200000X0*%
%ADD35RoundRect,0.135000X0.185000X-0.135000X0.185000X0.135000X-0.185000X0.135000X-0.185000X-0.135000X0*%
%ADD36RoundRect,0.135000X-0.185000X0.135000X-0.185000X-0.135000X0.185000X-0.135000X0.185000X0.135000X0*%
%ADD37C,3.100000*%
%ADD38RoundRect,0.200000X-0.200000X-0.275000X0.200000X-0.275000X0.200000X0.275000X-0.200000X0.275000X0*%
%ADD39RoundRect,0.200000X-0.275000X0.200000X-0.275000X-0.200000X0.275000X-0.200000X0.275000X0.200000X0*%
%ADD40C,0.450000*%
G04 APERTURE END LIST*
D10*
G04 #@! TO.C,U5*
X124350000Y-83750000D02*
X138867000Y-83750000D01*
X138867000Y-83750000D02*
X138867000Y-84750000D01*
X138867000Y-84750000D02*
X124350000Y-84750000D01*
X124350000Y-84750000D02*
X124350000Y-83750000D01*
G36*
X124350000Y-83750000D02*
G01*
X138867000Y-83750000D01*
X138867000Y-84750000D01*
X124350000Y-84750000D01*
X124350000Y-83750000D01*
G37*
X127154000Y-85150000D02*
X139033000Y-85150000D01*
X139033000Y-85150000D02*
X139033000Y-86150000D01*
X139033000Y-86150000D02*
X127154000Y-86150000D01*
X127154000Y-86150000D02*
X127154000Y-85150000D01*
G36*
X127154000Y-85150000D02*
G01*
X139033000Y-85150000D01*
X139033000Y-86150000D01*
X127154000Y-86150000D01*
X127154000Y-85150000D01*
G37*
D11*
X144537500Y-83250000D02*
G75*
G03*
X144537500Y-83250000I-237500J0D01*
G01*
X121312500Y-83350000D02*
G75*
G03*
X121312500Y-83350000I-237500J0D01*
G01*
G36*
X143250000Y-83300000D02*
G01*
X122250000Y-83300000D01*
X122250000Y-59900000D01*
X143250000Y-59900000D01*
X143250000Y-83300000D01*
G37*
D12*
X143250000Y-83300000D02*
X122250000Y-83300000D01*
X122250000Y-59900000D01*
X143250000Y-59900000D01*
X143250000Y-83300000D01*
G36*
X121600000Y-80100000D02*
G01*
X118400000Y-80100000D01*
X118400000Y-79250000D01*
X121600000Y-79250000D01*
X121600000Y-80100000D01*
G37*
X121600000Y-80100000D02*
X118400000Y-80100000D01*
X118400000Y-79250000D01*
X121600000Y-79250000D01*
X121600000Y-80100000D01*
G36*
X147250000Y-80000000D02*
G01*
X144050000Y-80000000D01*
X144050000Y-79150000D01*
X147250000Y-79150000D01*
X147250000Y-80000000D01*
G37*
X147250000Y-80000000D02*
X144050000Y-80000000D01*
X144050000Y-79150000D01*
X147250000Y-79150000D01*
X147250000Y-80000000D01*
G04 #@! TD*
D13*
G04 #@! TO.C,U5*
X132705000Y-70600000D03*
D14*
X123725000Y-82940000D03*
X123850000Y-82940000D03*
X123975000Y-82940000D03*
X124110000Y-82940000D03*
D15*
X124585000Y-84250000D03*
X125385000Y-82850000D03*
X125585000Y-84250000D03*
X127385000Y-85700000D03*
X127585000Y-82850000D03*
X129385000Y-85700000D03*
X129585000Y-82850000D03*
X131535000Y-85700000D03*
X131785000Y-85700000D03*
X131985000Y-82850000D03*
X132085000Y-85700000D03*
X132185000Y-84250000D03*
X132285000Y-82850000D03*
X132385000Y-85700000D03*
X132485000Y-84250000D03*
X132585000Y-82850000D03*
X132685000Y-85700000D03*
X132785000Y-84250000D03*
X132885000Y-82850000D03*
X132985000Y-85700000D03*
X133185000Y-82850000D03*
X134685000Y-85700000D03*
X134785000Y-84250000D03*
X135085000Y-84250000D03*
X135285000Y-85700000D03*
X135485000Y-82850000D03*
X135585000Y-85700000D03*
X135685000Y-84250000D03*
X135785000Y-82850000D03*
X135885000Y-85700000D03*
X136085000Y-82850000D03*
X136685000Y-82850000D03*
X136785000Y-85700000D03*
X136885000Y-84250000D03*
X136985000Y-82850000D03*
X137285000Y-82850000D03*
X137385000Y-85700000D03*
X137485000Y-84250000D03*
X137785000Y-84250000D03*
X138085000Y-84250000D03*
X138385000Y-84250000D03*
X138685000Y-84250000D03*
D16*
X138785000Y-81600000D03*
D15*
X138885000Y-85700000D03*
X139985000Y-83025000D03*
X140285000Y-83025000D03*
X140585000Y-83025000D03*
X140885000Y-83025000D03*
D14*
X141465000Y-83013000D03*
X141590000Y-83013000D03*
X141715000Y-83013000D03*
X141850000Y-83013000D03*
D17*
X118850000Y-79345000D03*
X120050000Y-79445000D03*
X121200000Y-79545000D03*
X118850000Y-79645000D03*
X120050000Y-79745000D03*
X121200000Y-79845000D03*
X146800000Y-79845000D03*
X145600000Y-79745000D03*
X144450000Y-79645000D03*
X146800000Y-79545000D03*
X145600000Y-79445000D03*
X144450000Y-79345000D03*
D18*
X120400000Y-81400000D03*
X121100000Y-82100000D03*
X121800000Y-82700000D03*
G04 #@! TD*
D19*
G04 #@! TO.C,H2*
X146000000Y-86600000D03*
G04 #@! TD*
D20*
G04 #@! TO.C,J7*
X112700000Y-64100000D03*
D21*
X110160000Y-64100000D03*
X107620000Y-64100000D03*
G04 #@! TD*
D22*
G04 #@! TO.C,C8*
X120751600Y-91274600D03*
X120751600Y-92824600D03*
G04 #@! TD*
G04 #@! TO.C,C9*
X119176800Y-91274600D03*
X119176800Y-92824600D03*
G04 #@! TD*
G04 #@! TO.C,C10*
X117551200Y-91274600D03*
X117551200Y-92824600D03*
G04 #@! TD*
D23*
G04 #@! TO.C,J6*
X109520000Y-75000000D03*
X106980000Y-72460000D03*
X112060000Y-77540000D03*
X106980000Y-77540000D03*
X112060000Y-72460000D03*
G04 #@! TD*
D20*
G04 #@! TO.C,J9*
X126492000Y-54610000D03*
D21*
X123952000Y-54610000D03*
X121412000Y-54610000D03*
X118872000Y-54610000D03*
X116332000Y-54610000D03*
X113792000Y-54610000D03*
G04 #@! TD*
D24*
G04 #@! TO.C,C6*
X110693200Y-88978000D03*
X110693200Y-86028000D03*
G04 #@! TD*
G04 #@! TO.C,C4*
X113995200Y-88978000D03*
X113995200Y-86028000D03*
G04 #@! TD*
D25*
G04 #@! TO.C,FID2*
X154305000Y-100330000D03*
G04 #@! TD*
D26*
G04 #@! TO.C,R1*
X107188000Y-96479900D03*
X107188000Y-99404900D03*
G04 #@! TD*
D20*
G04 #@! TO.C,J10*
X130937000Y-54610000D03*
D21*
X133477000Y-54610000D03*
X136017000Y-54610000D03*
X138557000Y-54610000D03*
X141097000Y-54610000D03*
X143637000Y-54610000D03*
G04 #@! TD*
D27*
G04 #@! TO.C,U2*
X125410001Y-91237504D03*
D28*
X125910001Y-91237504D03*
X126410001Y-91237504D03*
D27*
X126910001Y-91237504D03*
D29*
X127020001Y-90600004D03*
D27*
X126910001Y-89962504D03*
D28*
X126410001Y-89962504D03*
X125910001Y-89962504D03*
D27*
X125410001Y-89962504D03*
D29*
X125300001Y-90600004D03*
G04 #@! TD*
D30*
G04 #@! TO.C,R3*
X125650001Y-92682804D03*
X126670001Y-92682804D03*
G04 #@! TD*
D22*
G04 #@! TO.C,C12*
X128573001Y-90637804D03*
X128573001Y-92187804D03*
G04 #@! TD*
D31*
G04 #@! TO.C,J1*
X106172000Y-105791000D03*
X108172000Y-105791000D03*
X109172000Y-105791000D03*
X110172000Y-105791000D03*
X111172000Y-105791000D03*
X112172000Y-105791000D03*
X113172000Y-105791000D03*
X114172000Y-105791000D03*
X115172000Y-105791000D03*
X116172000Y-105791000D03*
X119172000Y-105791000D03*
X120172000Y-105791000D03*
X121172000Y-105791000D03*
X122172000Y-105791000D03*
X123172000Y-105791000D03*
X124172000Y-105791000D03*
X125172000Y-105791000D03*
X126172000Y-105791000D03*
X127172000Y-105791000D03*
X128172000Y-105791000D03*
X129172000Y-105791000D03*
X130172000Y-105791000D03*
X131172000Y-105791000D03*
X132172000Y-105791000D03*
X133172000Y-105791000D03*
X134172000Y-105791000D03*
X135172000Y-105791000D03*
X136172000Y-105791000D03*
X137172000Y-105791000D03*
X138172000Y-105791000D03*
X139172000Y-105791000D03*
X140172000Y-105791000D03*
X141172000Y-105791000D03*
X142172000Y-105791000D03*
X143172000Y-105791000D03*
X144172000Y-105791000D03*
X145172000Y-105791000D03*
X146172000Y-105791000D03*
X147172000Y-105791000D03*
X148172000Y-105791000D03*
X149172000Y-105791000D03*
X150172000Y-105791000D03*
X151172000Y-105791000D03*
X152172000Y-105791000D03*
X153172000Y-105791000D03*
X154172000Y-105791000D03*
D32*
X155172000Y-105241000D03*
D31*
X156172000Y-105791000D03*
G04 #@! TD*
D20*
G04 #@! TO.C,JP1*
X114909600Y-92710000D03*
D21*
X114909600Y-95250000D03*
X114909600Y-97790000D03*
G04 #@! TD*
D33*
G04 #@! TO.C,C11*
X120751600Y-96863200D03*
X120751600Y-95313200D03*
G04 #@! TD*
G04 #@! TO.C,C13*
X119151400Y-96863200D03*
X119151400Y-95313200D03*
G04 #@! TD*
D22*
G04 #@! TO.C,C7*
X123797801Y-90637804D03*
X123797801Y-92187804D03*
G04 #@! TD*
D34*
G04 #@! TO.C,R12*
X107315000Y-89725000D03*
X107315000Y-88075000D03*
G04 #@! TD*
D33*
G04 #@! TO.C,C14*
X117576600Y-96863200D03*
X117576600Y-95313200D03*
G04 #@! TD*
D35*
G04 #@! TO.C,R13*
X120100000Y-77810000D03*
X120100000Y-76790000D03*
G04 #@! TD*
G04 #@! TO.C,R14*
X117500000Y-77810000D03*
X117500000Y-76790000D03*
G04 #@! TD*
D36*
G04 #@! TO.C,R17*
X146300000Y-74990000D03*
X146300000Y-76010000D03*
G04 #@! TD*
G04 #@! TO.C,R18*
X144700000Y-74990000D03*
X144700000Y-76010000D03*
G04 #@! TD*
D35*
G04 #@! TO.C,R10*
X118800000Y-77810000D03*
X118800000Y-76790000D03*
G04 #@! TD*
D36*
G04 #@! TO.C,R8*
X147500000Y-74990000D03*
X147500000Y-76010000D03*
G04 #@! TD*
D19*
G04 #@! TO.C,H1*
X118850000Y-59950000D03*
G04 #@! TD*
D25*
G04 #@! TO.C,FID1*
X111300000Y-56300000D03*
G04 #@! TD*
D23*
G04 #@! TO.C,J5*
X152800000Y-64800000D03*
X155340000Y-67340000D03*
X155340000Y-62260000D03*
X150260000Y-62260000D03*
X150260000Y-67340000D03*
G04 #@! TD*
D37*
G04 #@! TO.C,H3*
X108500000Y-81800000D03*
X153500000Y-81800000D03*
X153500000Y-54800000D03*
X108500000Y-54800000D03*
G04 #@! TD*
D34*
G04 #@! TO.C,R11*
X114650000Y-83075000D03*
X114650000Y-81425000D03*
G04 #@! TD*
D23*
G04 #@! TO.C,J4*
X152800000Y-76000000D03*
X150260000Y-78540000D03*
X155340000Y-73460000D03*
X150260000Y-73460000D03*
X155340000Y-78540000D03*
G04 #@! TD*
D20*
G04 #@! TO.C,J2*
X114700000Y-68400000D03*
D21*
X112160000Y-68400000D03*
X109620000Y-68400000D03*
X107080000Y-68400000D03*
G04 #@! TD*
D38*
G04 #@! TO.C,R9*
X118100000Y-66800000D03*
X119750000Y-66800000D03*
G04 #@! TD*
D22*
G04 #@! TO.C,C2*
X120800000Y-87325000D03*
X120800000Y-88875000D03*
G04 #@! TD*
D38*
G04 #@! TO.C,R16*
X118100000Y-71300000D03*
X119750000Y-71300000D03*
G04 #@! TD*
D22*
G04 #@! TO.C,C15*
X119150000Y-87325000D03*
X119150000Y-88875000D03*
G04 #@! TD*
D30*
G04 #@! TO.C,R4*
X130790000Y-89300000D03*
X131810000Y-89300000D03*
G04 #@! TD*
D38*
G04 #@! TO.C,R19*
X118100000Y-73600000D03*
X119750000Y-73600000D03*
G04 #@! TD*
D39*
G04 #@! TO.C,R5*
X127700000Y-93900000D03*
X127700000Y-95550000D03*
G04 #@! TD*
D38*
G04 #@! TO.C,R6*
X118100000Y-64600000D03*
X119750000Y-64600000D03*
G04 #@! TD*
D20*
G04 #@! TO.C,J3*
X154600000Y-85960000D03*
D21*
X154600000Y-88500000D03*
X154600000Y-91040000D03*
X154600000Y-93580000D03*
X154600000Y-96120000D03*
G04 #@! TD*
D22*
G04 #@! TO.C,C1*
X117550000Y-87325000D03*
X117550000Y-88875000D03*
G04 #@! TD*
D38*
G04 #@! TO.C,R15*
X118100000Y-69100000D03*
X119750000Y-69100000D03*
G04 #@! TD*
D39*
G04 #@! TO.C,R2*
X149300000Y-81575000D03*
X149300000Y-83225000D03*
G04 #@! TD*
D40*
X118600000Y-84100000D03*
X120525279Y-84289388D03*
X122025400Y-91274600D03*
X121523700Y-91274600D03*
X121551404Y-96863200D03*
X122123200Y-96850200D03*
X142200000Y-84300000D03*
X115400000Y-83100000D03*
X136800000Y-88200000D03*
X141900000Y-88200000D03*
X129901386Y-101901386D03*
X128750000Y-94800000D03*
X143000000Y-85600000D03*
X136085000Y-83635000D03*
X135200000Y-102800000D03*
X134508715Y-87608887D03*
X141312479Y-91777953D03*
X140561501Y-91609631D03*
X138175249Y-90216461D03*
X128800000Y-88600000D03*
X128300000Y-102850000D03*
X129338489Y-92700000D03*
X129500000Y-94700000D03*
X128547601Y-92809810D03*
X139088000Y-86200000D03*
X120777000Y-94742000D03*
X125347197Y-91920804D03*
X136657557Y-83538000D03*
X149411002Y-83757228D03*
X125385000Y-83585000D03*
X117500400Y-93421200D03*
X129338000Y-86300000D03*
X119150000Y-89450000D03*
X115824000Y-102717600D03*
X119176800Y-93421200D03*
X134611520Y-84750000D03*
X129700000Y-83300000D03*
X115214400Y-102743000D03*
X120800000Y-89450000D03*
X131750000Y-83000000D03*
X120751600Y-93421200D03*
X117550000Y-89450000D03*
X115824000Y-102108000D03*
X138350000Y-84900000D03*
X110642400Y-89814400D03*
X117500388Y-94691200D03*
X123797801Y-92835204D03*
X133350000Y-83250000D03*
X119151402Y-94691200D03*
X127600000Y-83600000D03*
X126439401Y-89253804D03*
X115214400Y-102108000D03*
X127400000Y-86300000D03*
X135412000Y-86100000D03*
X137550000Y-82850000D03*
X113944400Y-89814398D03*
X129150000Y-102600000D03*
X128152446Y-101285102D03*
X106297030Y-103276400D03*
X117900000Y-76000000D03*
X118807298Y-76007298D03*
X121991250Y-78991250D03*
X121500000Y-76000000D03*
X120552861Y-75952861D03*
X146100000Y-72800000D03*
X144500000Y-73900000D03*
X146800000Y-72900000D03*
X145500000Y-72200000D03*
X144997500Y-73300000D03*
X132981510Y-99685838D03*
X131600000Y-99900000D03*
X139900000Y-99100000D03*
X144900000Y-100900000D03*
X141200000Y-84000000D03*
X116694142Y-66014314D03*
X140500000Y-84000000D03*
X117325000Y-68875000D03*
X117193164Y-71138907D03*
X139808672Y-83891328D03*
X139208672Y-83291328D03*
X117605164Y-73544836D03*
X137600000Y-88800000D03*
X142400000Y-90300000D03*
X138212281Y-89200000D03*
X142899244Y-91901275D03*
X138788000Y-89673383D03*
X141932656Y-91517344D03*
X116550000Y-88650000D03*
X122400000Y-87300000D03*
X116550000Y-87400000D03*
X116550000Y-88000000D03*
X121800000Y-87300000D03*
X139950000Y-102150000D03*
X125100000Y-85300000D03*
X118600000Y-80800000D03*
M02*
