G04 #@! TF.GenerationSoftware,KiCad,Pcbnew,(6.0.10)*
G04 #@! TF.CreationDate,2023-02-01T11:06:55+01:00*
G04 #@! TF.ProjectId,astropix_v3,61737472-6f70-4697-985f-76332e6b6963,1.0*
G04 #@! TF.SameCoordinates,Original*
G04 #@! TF.FileFunction,Copper,L2,Inr*
G04 #@! TF.FilePolarity,Positive*
%FSLAX46Y46*%
G04 Gerber Fmt 4.6, Leading zero omitted, Abs format (unit mm)*
G04 Created by KiCad (PCBNEW (6.0.10)) date 2023-02-01 11:06:55*
%MOMM*%
%LPD*%
G01*
G04 APERTURE LIST*
G04 #@! TA.AperFunction,ComponentPad*
%ADD10C,2.250000*%
G04 #@! TD*
G04 #@! TA.AperFunction,ComponentPad*
%ADD11R,1.700000X1.700000*%
G04 #@! TD*
G04 #@! TA.AperFunction,ComponentPad*
%ADD12O,1.700000X1.700000*%
G04 #@! TD*
G04 #@! TA.AperFunction,ComponentPad*
%ADD13C,0.600000*%
G04 #@! TD*
G04 #@! TA.AperFunction,ViaPad*
%ADD14C,0.450000*%
G04 #@! TD*
G04 APERTURE END LIST*
D10*
G04 #@! TO.N,/HV_in_ext*
G04 #@! TO.C,J6*
X109520000Y-75000000D03*
G04 #@! TO.N,GND*
X106980000Y-72460000D03*
X112060000Y-77540000D03*
X106980000Y-77540000D03*
X112060000Y-72460000D03*
G04 #@! TD*
D11*
G04 #@! TO.N,/spi_left_mosi*
G04 #@! TO.C,J9*
X126492000Y-54610000D03*
D12*
G04 #@! TO.N,/spi_left_miso0*
X123952000Y-54610000D03*
G04 #@! TO.N,/spi_left_miso1*
X121412000Y-54610000D03*
G04 #@! TO.N,/spi_left_clk*
X118872000Y-54610000D03*
G04 #@! TO.N,/spi_left_csn*
X116332000Y-54610000D03*
G04 #@! TO.N,GND*
X113792000Y-54610000D03*
G04 #@! TD*
D11*
G04 #@! TO.N,/spi_right_clk*
G04 #@! TO.C,J10*
X130937000Y-54610000D03*
D12*
G04 #@! TO.N,/spi_right_miso1*
X133477000Y-54610000D03*
G04 #@! TO.N,/spi_right_miso0*
X136017000Y-54610000D03*
G04 #@! TO.N,/spi_right_csn*
X138557000Y-54610000D03*
G04 #@! TO.N,/spi_right_mosi*
X141097000Y-54610000D03*
G04 #@! TO.N,GND*
X143637000Y-54610000D03*
G04 #@! TD*
D11*
G04 #@! TO.N,/VDD18_in*
G04 #@! TO.C,JP1*
X114909600Y-92710000D03*
D12*
G04 #@! TO.N,VDD*
X114909600Y-95250000D03*
G04 #@! TO.N,/POW4_in*
X114909600Y-97790000D03*
G04 #@! TD*
D10*
G04 #@! TO.N,/sc_out*
G04 #@! TO.C,J5*
X152800000Y-64800000D03*
G04 #@! TO.N,GND*
X155340000Y-67340000D03*
X155340000Y-62260000D03*
X150260000Y-62260000D03*
X150260000Y-67340000D03*
G04 #@! TD*
G04 #@! TO.N,Net-(J4-Pad1)*
G04 #@! TO.C,J4*
X152800000Y-76000000D03*
G04 #@! TO.N,GND*
X150260000Y-78540000D03*
X155340000Y-73460000D03*
X150260000Y-73460000D03*
X155340000Y-78540000D03*
G04 #@! TD*
D13*
G04 #@! TO.N,VDDA*
G04 #@! TO.C,U5*
X120400000Y-81400000D03*
G04 #@! TO.N,VDD*
X121100000Y-82100000D03*
G04 #@! TO.N,VSSA*
X121800000Y-82700000D03*
G04 #@! TD*
D11*
G04 #@! TO.N,/ring1*
G04 #@! TO.C,J2*
X114700000Y-68400000D03*
D12*
G04 #@! TO.N,/ring2*
X112160000Y-68400000D03*
G04 #@! TO.N,/ring3*
X109620000Y-68400000D03*
G04 #@! TO.N,/ring4*
X107080000Y-68400000D03*
G04 #@! TD*
D11*
G04 #@! TO.N,Net-(J7-Pad1)*
G04 #@! TO.C,J7*
X112700000Y-64100000D03*
D12*
G04 #@! TO.N,GND*
X110160000Y-64100000D03*
G04 #@! TO.N,Net-(J7-Pad3)*
X107620000Y-64100000D03*
G04 #@! TD*
D11*
G04 #@! TO.N,Net-(J3-Pad1)*
G04 #@! TO.C,J3*
X154600000Y-85960000D03*
D12*
G04 #@! TO.N,Net-(J3-Pad2)*
X154600000Y-88500000D03*
G04 #@! TO.N,Net-(J3-Pad3)*
X154600000Y-91040000D03*
G04 #@! TO.N,Net-(J3-Pad4)*
X154600000Y-93580000D03*
G04 #@! TO.N,GND*
X154600000Y-96120000D03*
G04 #@! TD*
D14*
G04 #@! TO.N,suba*
X138300000Y-79400000D03*
G04 #@! TO.N,VDD*
X122025400Y-91274600D03*
X121523700Y-91274600D03*
G04 #@! TO.N,VDDA*
X121551404Y-96863200D03*
X122123200Y-96850200D03*
G04 #@! TO.N,suba*
X118600000Y-84100000D03*
X142200000Y-84300000D03*
X120525279Y-84289388D03*
X115400000Y-83100000D03*
G04 #@! TO.N,Net-(J3-Pad1)*
X136800000Y-88200000D03*
X141900000Y-88200000D03*
G04 #@! TO.N,/res_n*
X129901386Y-101901386D03*
X128750000Y-94800000D03*
G04 #@! TO.N,Net-(J4-Pad1)*
X143000000Y-85600000D03*
X136085000Y-83635000D03*
G04 #@! TO.N,/Inj*
X135200000Y-102800000D03*
G04 #@! TO.N,/DAC_vminuspix*
X134508715Y-87608887D03*
X141312479Y-91777953D03*
G04 #@! TO.N,/DAC_ThPix*
X140561501Y-91609631D03*
X138175249Y-90216461D03*
G04 #@! TO.N,/timestamp_clk*
X128800000Y-88600000D03*
X128300000Y-102850000D03*
G04 #@! TO.N,/sr_ck2*
X129338489Y-92700000D03*
G04 #@! TO.N,/sr_ck1*
X129500000Y-94700000D03*
G04 #@! TO.N,GND*
X128547601Y-92809810D03*
X139088000Y-86200000D03*
X120777000Y-94742000D03*
X125347197Y-91920804D03*
X136657557Y-83538000D03*
X149411002Y-83757228D03*
X125385000Y-83585000D03*
X117500400Y-93421200D03*
X129338000Y-86300000D03*
X119150000Y-89450000D03*
X115824000Y-102717600D03*
X119176800Y-93421200D03*
X134611520Y-84750000D03*
X129700000Y-83300000D03*
X115214400Y-102743000D03*
X120800000Y-89450000D03*
X131750000Y-83000000D03*
X120751600Y-93421200D03*
X117550000Y-89450000D03*
X115824000Y-102108000D03*
X138350000Y-84900000D03*
X110642400Y-89814400D03*
X117500388Y-94691200D03*
X123797801Y-92835204D03*
X133350000Y-83250000D03*
X119151402Y-94691200D03*
X127600000Y-83600000D03*
X126439401Y-89253804D03*
X115214400Y-102108000D03*
X127400000Y-86300000D03*
X135412000Y-86100000D03*
X137550000Y-82850000D03*
X113944400Y-89814398D03*
G04 #@! TO.N,/interrupt*
X129150000Y-102600000D03*
X128152446Y-101285102D03*
G04 #@! TO.N,-HV*
X106297030Y-103276400D03*
G04 #@! TO.N,/spi_left_csn*
X117900000Y-76000000D03*
G04 #@! TO.N,/spi_left_clk*
X118807298Y-76007298D03*
G04 #@! TO.N,/spi_left_mosi*
X121991250Y-78991250D03*
G04 #@! TO.N,/spi_left_miso0*
X121500000Y-76000000D03*
G04 #@! TO.N,/spi_left_miso1*
X120552861Y-75952861D03*
G04 #@! TO.N,/spi_right_csn*
X146100000Y-72800000D03*
G04 #@! TO.N,/spi_right_clk*
X144500000Y-73900000D03*
G04 #@! TO.N,/spi_right_mosi*
X146800000Y-72900000D03*
G04 #@! TO.N,/spi_right_miso0*
X145500000Y-72200000D03*
G04 #@! TO.N,/spi_right_miso1*
X144997500Y-73300000D03*
G04 #@! TO.N,/sr_rb*
X132981510Y-99685838D03*
G04 #@! TO.N,/sr_out*
X131600000Y-99900000D03*
G04 #@! TO.N,/DigInj*
X139900000Y-99100000D03*
X144900000Y-100900000D03*
G04 #@! TO.N,/ring1*
X141200000Y-84000000D03*
X116694142Y-66014314D03*
G04 #@! TO.N,/ring2*
X140500000Y-84000000D03*
X117325000Y-68875000D03*
G04 #@! TO.N,/ring3*
X117193164Y-71138907D03*
X139808672Y-83891328D03*
G04 #@! TO.N,/ring4*
X139208672Y-83291328D03*
X117605164Y-73544836D03*
G04 #@! TO.N,Net-(J3-Pad2)*
X137600000Y-88800000D03*
X142400000Y-90300000D03*
G04 #@! TO.N,Net-(J3-Pad3)*
X138212281Y-89200000D03*
X142899244Y-91901275D03*
G04 #@! TO.N,Net-(J3-Pad4)*
X138788000Y-89673383D03*
X141932656Y-91517344D03*
G04 #@! TO.N,VSSA*
X116550000Y-88650000D03*
X122400000Y-87300000D03*
X116550000Y-87400000D03*
X116550000Y-88000000D03*
X121800000Y-87300000D03*
G04 #@! TO.N,/DAC_ThPMOS*
X139950000Y-102150000D03*
G04 #@! TO.N,Net-(R11-Pad2)*
X125100000Y-85300000D03*
X118600000Y-80800000D03*
G04 #@! TD*
G04 #@! TA.AperFunction,Conductor*
G04 #@! TO.N,GND*
G36*
X156532442Y-52217502D02*
G01*
X156578935Y-52271158D01*
X156590321Y-52323558D01*
X156586380Y-60700967D01*
X156586285Y-60903634D01*
X156566251Y-60971746D01*
X156512573Y-61018213D01*
X156442295Y-61028284D01*
X156378454Y-60999386D01*
X156306581Y-60938001D01*
X156298608Y-60932208D01*
X156087879Y-60803073D01*
X156079085Y-60798592D01*
X155850758Y-60704016D01*
X155841373Y-60700967D01*
X155601060Y-60643272D01*
X155591313Y-60641729D01*
X155344930Y-60622338D01*
X155335070Y-60622338D01*
X155088687Y-60641729D01*
X155078940Y-60643272D01*
X154838627Y-60700967D01*
X154829242Y-60704016D01*
X154600915Y-60798592D01*
X154592121Y-60803073D01*
X154386072Y-60929340D01*
X154380810Y-60937401D01*
X154386817Y-60947607D01*
X155610115Y-62170905D01*
X155644141Y-62233217D01*
X155639076Y-62304032D01*
X155610115Y-62349095D01*
X154388276Y-63570934D01*
X154380884Y-63584471D01*
X154384570Y-63589740D01*
X154592121Y-63716927D01*
X154600915Y-63721408D01*
X154829242Y-63815984D01*
X154838627Y-63819033D01*
X155078940Y-63876728D01*
X155088687Y-63878271D01*
X155335070Y-63897662D01*
X155344930Y-63897662D01*
X155591313Y-63878271D01*
X155601060Y-63876728D01*
X155841373Y-63819033D01*
X155850758Y-63815984D01*
X156079085Y-63721408D01*
X156087879Y-63716927D01*
X156298608Y-63587792D01*
X156306581Y-63582000D01*
X156377177Y-63521704D01*
X156441966Y-63492673D01*
X156512167Y-63503278D01*
X156565489Y-63550152D01*
X156585008Y-63617574D01*
X156583896Y-65981594D01*
X156563862Y-66049706D01*
X156510184Y-66096173D01*
X156439906Y-66106244D01*
X156376065Y-66077346D01*
X156306581Y-66018000D01*
X156298608Y-66012208D01*
X156087879Y-65883073D01*
X156079085Y-65878592D01*
X155850758Y-65784016D01*
X155841373Y-65780967D01*
X155601060Y-65723272D01*
X155591313Y-65721729D01*
X155344930Y-65702338D01*
X155335070Y-65702338D01*
X155088687Y-65721729D01*
X155078940Y-65723272D01*
X154838627Y-65780967D01*
X154829242Y-65784016D01*
X154600915Y-65878592D01*
X154592121Y-65883073D01*
X154386072Y-66009340D01*
X154380810Y-66017401D01*
X154386817Y-66027607D01*
X155610115Y-67250905D01*
X155644141Y-67313217D01*
X155639076Y-67384032D01*
X155610115Y-67429095D01*
X154388276Y-68650934D01*
X154380884Y-68664471D01*
X154384570Y-68669740D01*
X154592121Y-68796927D01*
X154600915Y-68801408D01*
X154829242Y-68895984D01*
X154838627Y-68899033D01*
X155078940Y-68956728D01*
X155088687Y-68958271D01*
X155335070Y-68977662D01*
X155344930Y-68977662D01*
X155591313Y-68958271D01*
X155601060Y-68956728D01*
X155841373Y-68899033D01*
X155850758Y-68895984D01*
X156079085Y-68801408D01*
X156087879Y-68796927D01*
X156298608Y-68667792D01*
X156306581Y-68661999D01*
X156374787Y-68603746D01*
X156439577Y-68574715D01*
X156509777Y-68585320D01*
X156563100Y-68632195D01*
X156582618Y-68699616D01*
X156581019Y-72099136D01*
X156560985Y-72167248D01*
X156507307Y-72213715D01*
X156437029Y-72223786D01*
X156373189Y-72194888D01*
X156306588Y-72138006D01*
X156298608Y-72132208D01*
X156087879Y-72003073D01*
X156079085Y-71998592D01*
X155850758Y-71904016D01*
X155841373Y-71900967D01*
X155601060Y-71843272D01*
X155591313Y-71841729D01*
X155344930Y-71822338D01*
X155335070Y-71822338D01*
X155088687Y-71841729D01*
X155078940Y-71843272D01*
X154838627Y-71900967D01*
X154829242Y-71904016D01*
X154600915Y-71998592D01*
X154592121Y-72003073D01*
X154386072Y-72129340D01*
X154380810Y-72137401D01*
X154386817Y-72147607D01*
X155610115Y-73370905D01*
X155644141Y-73433217D01*
X155639076Y-73504032D01*
X155610115Y-73549095D01*
X154388276Y-74770934D01*
X154380884Y-74784471D01*
X154384570Y-74789740D01*
X154592121Y-74916927D01*
X154600915Y-74921408D01*
X154829242Y-75015984D01*
X154838627Y-75019033D01*
X155078940Y-75076728D01*
X155088687Y-75078271D01*
X155335070Y-75097662D01*
X155344930Y-75097662D01*
X155591313Y-75078271D01*
X155601060Y-75076728D01*
X155841373Y-75019033D01*
X155850758Y-75015984D01*
X156079085Y-74921408D01*
X156087879Y-74916927D01*
X156298608Y-74787792D01*
X156306581Y-74782000D01*
X156371907Y-74726205D01*
X156436696Y-74697174D01*
X156506896Y-74707779D01*
X156560219Y-74754653D01*
X156579738Y-74822075D01*
X156578630Y-77177096D01*
X156558596Y-77245208D01*
X156504918Y-77291675D01*
X156434640Y-77301746D01*
X156370799Y-77272848D01*
X156306581Y-77218001D01*
X156298608Y-77212208D01*
X156087879Y-77083073D01*
X156079085Y-77078592D01*
X155850758Y-76984016D01*
X155841373Y-76980967D01*
X155601060Y-76923272D01*
X155591313Y-76921729D01*
X155344930Y-76902338D01*
X155335070Y-76902338D01*
X155088687Y-76921729D01*
X155078940Y-76923272D01*
X154838627Y-76980967D01*
X154829242Y-76984016D01*
X154600915Y-77078592D01*
X154592121Y-77083073D01*
X154386072Y-77209340D01*
X154380810Y-77217401D01*
X154386817Y-77227607D01*
X155610115Y-78450905D01*
X155644141Y-78513217D01*
X155639076Y-78584032D01*
X155610115Y-78629095D01*
X154388276Y-79850934D01*
X154380884Y-79864471D01*
X154384570Y-79869740D01*
X154592121Y-79996927D01*
X154600915Y-80001408D01*
X154829242Y-80095984D01*
X154838627Y-80099033D01*
X155078940Y-80156728D01*
X155088687Y-80158271D01*
X155335070Y-80177662D01*
X155344930Y-80177662D01*
X155591313Y-80158271D01*
X155601060Y-80156728D01*
X155841373Y-80099033D01*
X155850758Y-80095984D01*
X156079085Y-80001408D01*
X156087879Y-79996927D01*
X156298608Y-79867792D01*
X156306581Y-79861999D01*
X156369517Y-79808247D01*
X156434307Y-79779216D01*
X156504507Y-79789821D01*
X156557830Y-79836696D01*
X156577348Y-79904117D01*
X156574094Y-86820890D01*
X156567919Y-99949559D01*
X156547885Y-100017671D01*
X156494207Y-100064138D01*
X156441919Y-100075500D01*
X156317254Y-100075500D01*
X156249133Y-100055498D01*
X156202640Y-100001842D01*
X156194076Y-99976020D01*
X156191356Y-99963388D01*
X156154596Y-99792643D01*
X156066213Y-99553070D01*
X156061970Y-99541570D01*
X156060429Y-99537393D01*
X156057662Y-99532265D01*
X155933350Y-99301874D01*
X155931237Y-99297958D01*
X155928596Y-99294383D01*
X155928592Y-99294376D01*
X155772246Y-99082702D01*
X155772244Y-99082699D01*
X155769597Y-99079116D01*
X155578735Y-98885231D01*
X155558009Y-98869413D01*
X155390733Y-98741753D01*
X155362458Y-98720174D01*
X155327244Y-98700453D01*
X155128968Y-98589413D01*
X155128965Y-98589412D01*
X155125082Y-98587237D01*
X155120943Y-98585636D01*
X155120935Y-98585632D01*
X154914241Y-98505669D01*
X154871343Y-98489073D01*
X154867018Y-98488070D01*
X154867013Y-98488069D01*
X154657049Y-98439402D01*
X154595204Y-98404535D01*
X154562027Y-98341766D01*
X154559500Y-98316656D01*
X154559500Y-97804933D01*
X154544734Y-97730699D01*
X154488484Y-97646516D01*
X154404301Y-97590266D01*
X154405224Y-97588884D01*
X154361140Y-97553358D01*
X154338719Y-97485995D01*
X154346000Y-97439065D01*
X154346000Y-97438517D01*
X154854000Y-97438517D01*
X154858064Y-97452359D01*
X154871478Y-97454393D01*
X154878184Y-97453534D01*
X154888262Y-97451392D01*
X155092255Y-97390191D01*
X155101842Y-97386433D01*
X155293095Y-97292739D01*
X155301945Y-97287464D01*
X155475328Y-97163792D01*
X155483200Y-97157139D01*
X155634052Y-97006812D01*
X155640730Y-96998965D01*
X155765003Y-96826020D01*
X155770313Y-96817183D01*
X155864670Y-96626267D01*
X155868469Y-96616672D01*
X155930377Y-96412910D01*
X155932555Y-96402837D01*
X155933986Y-96391962D01*
X155931775Y-96377778D01*
X155918617Y-96374000D01*
X154872115Y-96374000D01*
X154856876Y-96378475D01*
X154855671Y-96379865D01*
X154854000Y-96387548D01*
X154854000Y-97438517D01*
X154346000Y-97438517D01*
X154346000Y-96392115D01*
X154341525Y-96376876D01*
X154340135Y-96375671D01*
X154332452Y-96374000D01*
X153283225Y-96374000D01*
X153269694Y-96377973D01*
X153268257Y-96387966D01*
X153298565Y-96522446D01*
X153301645Y-96532275D01*
X153381770Y-96729603D01*
X153386413Y-96738794D01*
X153497694Y-96920388D01*
X153503777Y-96928699D01*
X153643213Y-97089667D01*
X153650580Y-97096883D01*
X153814434Y-97232916D01*
X153822881Y-97238831D01*
X154006756Y-97346279D01*
X154016042Y-97350729D01*
X154137035Y-97396931D01*
X154193538Y-97439918D01*
X154217831Y-97506629D01*
X154202201Y-97575884D01*
X154162089Y-97619405D01*
X154131833Y-97639622D01*
X154121516Y-97646516D01*
X154065266Y-97730699D01*
X154050500Y-97804933D01*
X154050500Y-98318315D01*
X154030498Y-98386436D01*
X153976842Y-98432929D01*
X153949081Y-98441894D01*
X153887184Y-98454206D01*
X153796761Y-98472192D01*
X153792551Y-98473670D01*
X153792549Y-98473671D01*
X153701433Y-98505669D01*
X153540064Y-98562338D01*
X153536113Y-98564391D01*
X153536107Y-98564393D01*
X153422393Y-98623463D01*
X153298630Y-98687753D01*
X153223064Y-98741753D01*
X153080896Y-98843347D01*
X153080892Y-98843350D01*
X153077275Y-98845935D01*
X152880417Y-99033729D01*
X152877661Y-99037225D01*
X152877660Y-99037226D01*
X152744078Y-99206673D01*
X152711982Y-99247386D01*
X152700145Y-99267765D01*
X152577567Y-99478798D01*
X152577564Y-99478804D01*
X152575333Y-99482645D01*
X152573663Y-99486768D01*
X152474869Y-99730679D01*
X152474866Y-99730687D01*
X152473196Y-99734811D01*
X152412322Y-99979875D01*
X152376488Y-100041165D01*
X152313206Y-100073352D01*
X152290038Y-100075500D01*
X151779933Y-100075500D01*
X151705699Y-100090266D01*
X151621516Y-100146516D01*
X151565266Y-100230699D01*
X151545514Y-100330000D01*
X151565266Y-100429301D01*
X151621516Y-100513484D01*
X151705699Y-100569734D01*
X151779933Y-100584500D01*
X152293365Y-100584500D01*
X152361486Y-100604502D01*
X152407979Y-100658158D01*
X152417315Y-100687862D01*
X152430835Y-100761889D01*
X152439438Y-100808995D01*
X152495004Y-100975546D01*
X152518938Y-101047283D01*
X152525541Y-101067076D01*
X152527533Y-101071063D01*
X152527534Y-101071065D01*
X152636916Y-101289973D01*
X152647148Y-101310451D01*
X152801834Y-101534263D01*
X152837043Y-101572352D01*
X152978167Y-101725019D01*
X152986512Y-101734047D01*
X152989966Y-101736859D01*
X153194041Y-101903002D01*
X153194045Y-101903005D01*
X153197498Y-101905816D01*
X153430581Y-102046144D01*
X153434676Y-102047878D01*
X153434678Y-102047879D01*
X153677010Y-102150493D01*
X153677017Y-102150495D01*
X153681111Y-102152229D01*
X153944090Y-102221957D01*
X153948183Y-102222441D01*
X154011275Y-102254815D01*
X154046891Y-102316231D01*
X154050500Y-102346172D01*
X154050500Y-102855067D01*
X154065266Y-102929301D01*
X154121516Y-103013484D01*
X154205699Y-103069734D01*
X154305000Y-103089486D01*
X154404301Y-103069734D01*
X154488484Y-103013484D01*
X154544734Y-102929301D01*
X154559500Y-102855067D01*
X154559500Y-102342095D01*
X154579502Y-102273974D01*
X154633158Y-102227481D01*
X154664812Y-102217805D01*
X154754633Y-102202855D01*
X154758874Y-102201514D01*
X154758877Y-102201513D01*
X155009789Y-102122160D01*
X155009791Y-102122159D01*
X155014035Y-102120817D01*
X155018046Y-102118891D01*
X155018051Y-102118889D01*
X155255272Y-102004978D01*
X155255279Y-102004974D01*
X155259290Y-102003048D01*
X155401364Y-101908117D01*
X155481796Y-101854374D01*
X155481800Y-101854371D01*
X155485504Y-101851896D01*
X155488821Y-101848925D01*
X155488825Y-101848922D01*
X155684846Y-101673351D01*
X155684847Y-101673350D01*
X155688164Y-101670379D01*
X155863226Y-101462117D01*
X156007197Y-101231267D01*
X156117205Y-100982434D01*
X156124346Y-100957116D01*
X156166967Y-100805992D01*
X156191055Y-100720583D01*
X156194662Y-100693728D01*
X156223554Y-100628876D01*
X156282921Y-100589939D01*
X156319541Y-100584500D01*
X156441561Y-100584500D01*
X156509682Y-100604502D01*
X156556175Y-100658158D01*
X156567561Y-100710559D01*
X156567544Y-100747043D01*
X156567512Y-100815875D01*
X156567500Y-100815933D01*
X156567500Y-100840435D01*
X156567489Y-100864775D01*
X156567488Y-100865947D01*
X156567500Y-100866007D01*
X156567500Y-108583392D01*
X156547498Y-108651513D01*
X156530595Y-108672488D01*
X156253486Y-108949596D01*
X156191174Y-108983621D01*
X156164391Y-108986500D01*
X119279608Y-108986500D01*
X119211487Y-108966498D01*
X119190512Y-108949595D01*
X118913404Y-108672486D01*
X118879379Y-108610174D01*
X118876500Y-108583391D01*
X118876500Y-102844082D01*
X127815605Y-102844082D01*
X127816769Y-102852984D01*
X127816769Y-102852987D01*
X127819981Y-102877550D01*
X127833414Y-102980273D01*
X127888732Y-103105992D01*
X127894510Y-103112865D01*
X127894510Y-103112866D01*
X127901255Y-103120890D01*
X127977111Y-103211132D01*
X128091447Y-103287240D01*
X128222549Y-103328199D01*
X128359876Y-103330716D01*
X128369109Y-103328199D01*
X128483727Y-103296951D01*
X128492391Y-103294589D01*
X128609439Y-103222721D01*
X128671411Y-103154256D01*
X128695584Y-103127550D01*
X128695585Y-103127549D01*
X128701612Y-103120890D01*
X128727767Y-103066906D01*
X128775470Y-103014323D01*
X128844028Y-102995878D01*
X128910977Y-103016958D01*
X128941447Y-103037240D01*
X129072549Y-103078199D01*
X129209876Y-103080716D01*
X129219109Y-103078199D01*
X129333727Y-103046951D01*
X129342391Y-103044589D01*
X129440288Y-102984480D01*
X129451791Y-102977417D01*
X129459439Y-102972721D01*
X129475152Y-102955362D01*
X129545584Y-102877550D01*
X129545585Y-102877549D01*
X129551612Y-102870890D01*
X129556339Y-102861135D01*
X129588826Y-102794082D01*
X134715605Y-102794082D01*
X134716769Y-102802984D01*
X134716769Y-102802987D01*
X134718554Y-102816633D01*
X134733414Y-102930273D01*
X134746992Y-102961132D01*
X134783715Y-103044589D01*
X134788732Y-103055992D01*
X134794510Y-103062865D01*
X134794510Y-103062866D01*
X134871331Y-103154256D01*
X134877111Y-103161132D01*
X134991447Y-103237240D01*
X135122549Y-103278199D01*
X135259876Y-103280716D01*
X135269109Y-103278199D01*
X135383727Y-103246951D01*
X135392391Y-103244589D01*
X135509439Y-103172721D01*
X135550326Y-103127550D01*
X135595584Y-103077550D01*
X135595585Y-103077549D01*
X135601612Y-103070890D01*
X135613211Y-103046951D01*
X135657585Y-102955362D01*
X135657585Y-102955361D01*
X135661499Y-102947283D01*
X135684286Y-102811836D01*
X135684431Y-102800000D01*
X135683584Y-102794082D01*
X135666232Y-102672923D01*
X135666232Y-102672921D01*
X135664959Y-102664036D01*
X135659157Y-102651274D01*
X135638058Y-102604871D01*
X135608110Y-102539003D01*
X135518453Y-102434951D01*
X135403196Y-102360244D01*
X135271603Y-102320890D01*
X135262627Y-102320835D01*
X135262626Y-102320835D01*
X135205080Y-102320484D01*
X135134255Y-102320051D01*
X135002192Y-102357795D01*
X134994605Y-102362582D01*
X134994603Y-102362583D01*
X134938832Y-102397772D01*
X134886031Y-102431087D01*
X134795109Y-102534036D01*
X134736736Y-102658366D01*
X134730216Y-102700243D01*
X134716986Y-102785209D01*
X134716986Y-102785213D01*
X134715605Y-102794082D01*
X129588826Y-102794082D01*
X129607585Y-102755362D01*
X129607585Y-102755361D01*
X129611499Y-102747283D01*
X129634286Y-102611836D01*
X129634431Y-102600000D01*
X129633309Y-102592161D01*
X129626866Y-102547177D01*
X129620820Y-102504962D01*
X129630962Y-102434696D01*
X129677484Y-102381066D01*
X129745616Y-102361101D01*
X129783121Y-102366834D01*
X129815366Y-102376908D01*
X129823935Y-102379585D01*
X129961262Y-102382102D01*
X129970495Y-102379585D01*
X130085113Y-102348337D01*
X130093777Y-102345975D01*
X130210825Y-102274107D01*
X130245921Y-102235334D01*
X130296970Y-102178936D01*
X130296971Y-102178935D01*
X130302998Y-102172276D01*
X130307695Y-102162583D01*
X130316659Y-102144082D01*
X139465605Y-102144082D01*
X139466769Y-102152984D01*
X139466769Y-102152987D01*
X139473115Y-102201513D01*
X139483414Y-102280273D01*
X139538732Y-102405992D01*
X139627111Y-102511132D01*
X139741447Y-102587240D01*
X139872549Y-102628199D01*
X140009876Y-102630716D01*
X140019109Y-102628199D01*
X140133727Y-102596951D01*
X140142391Y-102594589D01*
X140259439Y-102522721D01*
X140276153Y-102504256D01*
X140345584Y-102427550D01*
X140345585Y-102427549D01*
X140351612Y-102420890D01*
X140357957Y-102407795D01*
X140407585Y-102305362D01*
X140407585Y-102305361D01*
X140411499Y-102297283D01*
X140434286Y-102161836D01*
X140434431Y-102150000D01*
X140433584Y-102144082D01*
X140416232Y-102022923D01*
X140416232Y-102022921D01*
X140414959Y-102014036D01*
X140358110Y-101889003D01*
X140268453Y-101784951D01*
X140153196Y-101710244D01*
X140021603Y-101670890D01*
X140012627Y-101670835D01*
X140012626Y-101670835D01*
X139955080Y-101670484D01*
X139884255Y-101670051D01*
X139752192Y-101707795D01*
X139744605Y-101712582D01*
X139744603Y-101712583D01*
X139717489Y-101729691D01*
X139636031Y-101781087D01*
X139630088Y-101787816D01*
X139594178Y-101828476D01*
X139545109Y-101884036D01*
X139541295Y-101892159D01*
X139541294Y-101892161D01*
X139539230Y-101896558D01*
X139486736Y-102008366D01*
X139481839Y-102039818D01*
X139466986Y-102135209D01*
X139466986Y-102135213D01*
X139465605Y-102144082D01*
X130316659Y-102144082D01*
X130358971Y-102056748D01*
X130358971Y-102056747D01*
X130362885Y-102048669D01*
X130385672Y-101913222D01*
X130385817Y-101901386D01*
X130384970Y-101895468D01*
X130367618Y-101774309D01*
X130367618Y-101774307D01*
X130366345Y-101765422D01*
X130309496Y-101640389D01*
X130219839Y-101536337D01*
X130104582Y-101461630D01*
X129972989Y-101422276D01*
X129964013Y-101422221D01*
X129964012Y-101422221D01*
X129906466Y-101421870D01*
X129835641Y-101421437D01*
X129703578Y-101459181D01*
X129695991Y-101463968D01*
X129695989Y-101463969D01*
X129670325Y-101480162D01*
X129587417Y-101532473D01*
X129581474Y-101539202D01*
X129560764Y-101562652D01*
X129496495Y-101635422D01*
X129492681Y-101643545D01*
X129492680Y-101643547D01*
X129479078Y-101672518D01*
X129438122Y-101759752D01*
X129431362Y-101803167D01*
X129418372Y-101886595D01*
X129418372Y-101886599D01*
X129416991Y-101895468D01*
X129418155Y-101904370D01*
X129418155Y-101904372D01*
X129430415Y-101998122D01*
X129419415Y-102068262D01*
X129372241Y-102121319D01*
X129303870Y-102140450D01*
X129269381Y-102135179D01*
X129221603Y-102120890D01*
X129212627Y-102120835D01*
X129212626Y-102120835D01*
X129155080Y-102120484D01*
X129084255Y-102120051D01*
X128952192Y-102157795D01*
X128944605Y-102162582D01*
X128944603Y-102162583D01*
X128929241Y-102172276D01*
X128836031Y-102231087D01*
X128745109Y-102334036D01*
X128741295Y-102342159D01*
X128741292Y-102342164D01*
X128722618Y-102381938D01*
X128675562Y-102435099D01*
X128607233Y-102454381D01*
X128540030Y-102434119D01*
X128510728Y-102415126D01*
X128503196Y-102410244D01*
X128371603Y-102370890D01*
X128362627Y-102370835D01*
X128362626Y-102370835D01*
X128305080Y-102370484D01*
X128234255Y-102370051D01*
X128102192Y-102407795D01*
X128094605Y-102412582D01*
X128094603Y-102412583D01*
X128048372Y-102441753D01*
X127986031Y-102481087D01*
X127895109Y-102584036D01*
X127891295Y-102592159D01*
X127891294Y-102592161D01*
X127863541Y-102651274D01*
X127836736Y-102708366D01*
X127828738Y-102759736D01*
X127816986Y-102835209D01*
X127816986Y-102835213D01*
X127815605Y-102844082D01*
X118876500Y-102844082D01*
X118876500Y-101828476D01*
X118878921Y-101803894D01*
X118879066Y-101803167D01*
X118879066Y-101803166D01*
X118881486Y-101791000D01*
X118880799Y-101787545D01*
X118862732Y-101581042D01*
X118860404Y-101572352D01*
X118809606Y-101382773D01*
X118809605Y-101382771D01*
X118808183Y-101377463D01*
X118775079Y-101306471D01*
X118762355Y-101279184D01*
X127668051Y-101279184D01*
X127669215Y-101288086D01*
X127669215Y-101288089D01*
X127672618Y-101314110D01*
X127685860Y-101415375D01*
X127741178Y-101541094D01*
X127746956Y-101547967D01*
X127746956Y-101547968D01*
X127823777Y-101639358D01*
X127829557Y-101646234D01*
X127943893Y-101722342D01*
X128074995Y-101763301D01*
X128212322Y-101765818D01*
X128221555Y-101763301D01*
X128278580Y-101747754D01*
X128344837Y-101729691D01*
X128461885Y-101657823D01*
X128472375Y-101646234D01*
X128548030Y-101562652D01*
X128548031Y-101562651D01*
X128554058Y-101555992D01*
X128560286Y-101543139D01*
X128610031Y-101440464D01*
X128610031Y-101440463D01*
X128613945Y-101432385D01*
X128636732Y-101296938D01*
X128636877Y-101285102D01*
X128636030Y-101279184D01*
X128618678Y-101158025D01*
X128618678Y-101158023D01*
X128617405Y-101149138D01*
X128560556Y-101024105D01*
X128470899Y-100920053D01*
X128430831Y-100894082D01*
X144415605Y-100894082D01*
X144416769Y-100902984D01*
X144416769Y-100902987D01*
X144423848Y-100957116D01*
X144433414Y-101030273D01*
X144488732Y-101155992D01*
X144494510Y-101162865D01*
X144494510Y-101162866D01*
X144563763Y-101245253D01*
X144577111Y-101261132D01*
X144594521Y-101272721D01*
X144682261Y-101331125D01*
X144691447Y-101337240D01*
X144755857Y-101357363D01*
X144804247Y-101372481D01*
X144822549Y-101378199D01*
X144959876Y-101380716D01*
X144969109Y-101378199D01*
X145083727Y-101346951D01*
X145092391Y-101344589D01*
X145177918Y-101292075D01*
X145201791Y-101277417D01*
X145209439Y-101272721D01*
X145226153Y-101254256D01*
X145295584Y-101177550D01*
X145295585Y-101177549D01*
X145301612Y-101170890D01*
X145310603Y-101152334D01*
X145357585Y-101055362D01*
X145357585Y-101055361D01*
X145361499Y-101047283D01*
X145384286Y-100911836D01*
X145384431Y-100900000D01*
X145383584Y-100894082D01*
X145366232Y-100772923D01*
X145366232Y-100772921D01*
X145364959Y-100764036D01*
X145308110Y-100639003D01*
X145218453Y-100534951D01*
X145103196Y-100460244D01*
X144971603Y-100420890D01*
X144962627Y-100420835D01*
X144962626Y-100420835D01*
X144905080Y-100420484D01*
X144834255Y-100420051D01*
X144702192Y-100457795D01*
X144694605Y-100462582D01*
X144694603Y-100462583D01*
X144632850Y-100501546D01*
X144586031Y-100531087D01*
X144580088Y-100537816D01*
X144534054Y-100589939D01*
X144495109Y-100634036D01*
X144491295Y-100642159D01*
X144491294Y-100642161D01*
X144479479Y-100667326D01*
X144436736Y-100758366D01*
X144429536Y-100804610D01*
X144416986Y-100885209D01*
X144416986Y-100885213D01*
X144415605Y-100894082D01*
X128430831Y-100894082D01*
X128355642Y-100845346D01*
X128224049Y-100805992D01*
X128215073Y-100805937D01*
X128215072Y-100805937D01*
X128157526Y-100805586D01*
X128086701Y-100805153D01*
X127954638Y-100842897D01*
X127947051Y-100847684D01*
X127947049Y-100847685D01*
X127924970Y-100861616D01*
X127838477Y-100916189D01*
X127832534Y-100922918D01*
X127779971Y-100982434D01*
X127747555Y-101019138D01*
X127743741Y-101027261D01*
X127743740Y-101027263D01*
X127725048Y-101067076D01*
X127689182Y-101143468D01*
X127683191Y-101181945D01*
X127669432Y-101270311D01*
X127669432Y-101270315D01*
X127668051Y-101279184D01*
X118762355Y-101279184D01*
X118721435Y-101191431D01*
X118721433Y-101191428D01*
X118719112Y-101186450D01*
X118598225Y-101013805D01*
X118449195Y-100864775D01*
X118444687Y-100861618D01*
X118444684Y-100861616D01*
X118318017Y-100772923D01*
X118276551Y-100743888D01*
X118271569Y-100741565D01*
X118271564Y-100741562D01*
X118090519Y-100657140D01*
X118090518Y-100657140D01*
X118085537Y-100654817D01*
X118080229Y-100653395D01*
X118080227Y-100653394D01*
X117887273Y-100601692D01*
X117887271Y-100601692D01*
X117881958Y-100600268D01*
X117672000Y-100581899D01*
X117462042Y-100600268D01*
X117456729Y-100601692D01*
X117456727Y-100601692D01*
X117263773Y-100653394D01*
X117263771Y-100653395D01*
X117258463Y-100654817D01*
X117253482Y-100657139D01*
X117253481Y-100657140D01*
X117072431Y-100741565D01*
X117072428Y-100741567D01*
X117067450Y-100743888D01*
X116894805Y-100864775D01*
X116745775Y-101013805D01*
X116624888Y-101186450D01*
X116622567Y-101191428D01*
X116622565Y-101191431D01*
X116568921Y-101306471D01*
X116535817Y-101377463D01*
X116534395Y-101382771D01*
X116534394Y-101382773D01*
X116483596Y-101572352D01*
X116481268Y-101581042D01*
X116463201Y-101787545D01*
X116462514Y-101791000D01*
X116464934Y-101803166D01*
X116464934Y-101803167D01*
X116465079Y-101803894D01*
X116467500Y-101828476D01*
X116467500Y-108583392D01*
X116447498Y-108651513D01*
X116430595Y-108672488D01*
X116153486Y-108949596D01*
X116091174Y-108983621D01*
X116064391Y-108986500D01*
X106179608Y-108986500D01*
X106111487Y-108966498D01*
X106090512Y-108949595D01*
X105813404Y-108672486D01*
X105779379Y-108610174D01*
X105776500Y-108583391D01*
X105776500Y-103917349D01*
X105796502Y-103849228D01*
X105850158Y-103802735D01*
X105920432Y-103792631D01*
X105962622Y-103806618D01*
X106058400Y-103858622D01*
X106058402Y-103858623D01*
X106065077Y-103862247D01*
X106072426Y-103864175D01*
X106204166Y-103898736D01*
X106204168Y-103898736D01*
X106211516Y-103900664D01*
X106291592Y-103901922D01*
X106355296Y-103902923D01*
X106355299Y-103902923D01*
X106362893Y-103903042D01*
X106510467Y-103869243D01*
X106577761Y-103835398D01*
X106638936Y-103804631D01*
X106638939Y-103804629D01*
X106645719Y-103801219D01*
X106760840Y-103702895D01*
X106849186Y-103579950D01*
X106905654Y-103439480D01*
X106926986Y-103289596D01*
X106927124Y-103276400D01*
X106923275Y-103244589D01*
X106915146Y-103177417D01*
X106908936Y-103126101D01*
X106894186Y-103087065D01*
X106858106Y-102991582D01*
X106858105Y-102991579D01*
X106855422Y-102984480D01*
X106809132Y-102917128D01*
X106773969Y-102865966D01*
X106769670Y-102859711D01*
X106656633Y-102758999D01*
X106649927Y-102755448D01*
X106649925Y-102755447D01*
X106561003Y-102708366D01*
X106522835Y-102688157D01*
X106376002Y-102651274D01*
X106368404Y-102651234D01*
X106368402Y-102651234D01*
X106303805Y-102650896D01*
X106224609Y-102650482D01*
X106217230Y-102652254D01*
X106217226Y-102652254D01*
X106084776Y-102684052D01*
X106084772Y-102684053D01*
X106077397Y-102685824D01*
X106070652Y-102689305D01*
X106070653Y-102689305D01*
X105960290Y-102746267D01*
X105890582Y-102759736D01*
X105824659Y-102733381D01*
X105783449Y-102675568D01*
X105776500Y-102634301D01*
X105776500Y-100840067D01*
X105776642Y-100378199D01*
X105776791Y-99894082D01*
X131115605Y-99894082D01*
X131116769Y-99902984D01*
X131116769Y-99902987D01*
X131118448Y-99915827D01*
X131133414Y-100030273D01*
X131188732Y-100155992D01*
X131194510Y-100162865D01*
X131194510Y-100162866D01*
X131261761Y-100242871D01*
X131277111Y-100261132D01*
X131391447Y-100337240D01*
X131522549Y-100378199D01*
X131659876Y-100380716D01*
X131669109Y-100378199D01*
X131783727Y-100346951D01*
X131792391Y-100344589D01*
X131909439Y-100272721D01*
X131936458Y-100242871D01*
X131995584Y-100177550D01*
X131995585Y-100177549D01*
X132001612Y-100170890D01*
X132006230Y-100161360D01*
X132057585Y-100055362D01*
X132057585Y-100055361D01*
X132061499Y-100047283D01*
X132084286Y-99911836D01*
X132084431Y-99900000D01*
X132083584Y-99894082D01*
X132066232Y-99772923D01*
X132066232Y-99772921D01*
X132064959Y-99764036D01*
X132026714Y-99679920D01*
X132497115Y-99679920D01*
X132498279Y-99688822D01*
X132498279Y-99688825D01*
X132500064Y-99702471D01*
X132514924Y-99816111D01*
X132526484Y-99842382D01*
X132565727Y-99931568D01*
X132570242Y-99941830D01*
X132576020Y-99948703D01*
X132576020Y-99948704D01*
X132602222Y-99979875D01*
X132658621Y-100046970D01*
X132772957Y-100123078D01*
X132904059Y-100164037D01*
X133041386Y-100166554D01*
X133050619Y-100164037D01*
X133165237Y-100132789D01*
X133173901Y-100130427D01*
X133290949Y-100058559D01*
X133327959Y-100017671D01*
X133377094Y-99963388D01*
X133377095Y-99963387D01*
X133383122Y-99956728D01*
X133402939Y-99915827D01*
X133439095Y-99841200D01*
X133439095Y-99841199D01*
X133443009Y-99833121D01*
X133465796Y-99697674D01*
X133465941Y-99685838D01*
X133465094Y-99679920D01*
X133447742Y-99558761D01*
X133447742Y-99558759D01*
X133446469Y-99549874D01*
X133442694Y-99541570D01*
X133413368Y-99477072D01*
X133389620Y-99424841D01*
X133299963Y-99320789D01*
X133184706Y-99246082D01*
X133053113Y-99206728D01*
X133044137Y-99206673D01*
X133044136Y-99206673D01*
X132986590Y-99206322D01*
X132915765Y-99205889D01*
X132783702Y-99243633D01*
X132776115Y-99248420D01*
X132776113Y-99248421D01*
X132714360Y-99287384D01*
X132667541Y-99316925D01*
X132661598Y-99323654D01*
X132582561Y-99413146D01*
X132576619Y-99419874D01*
X132572805Y-99427997D01*
X132572804Y-99427999D01*
X132548954Y-99478798D01*
X132518246Y-99544204D01*
X132512587Y-99580551D01*
X132498496Y-99671047D01*
X132498496Y-99671051D01*
X132497115Y-99679920D01*
X132026714Y-99679920D01*
X132008110Y-99639003D01*
X131918453Y-99534951D01*
X131803196Y-99460244D01*
X131671603Y-99420890D01*
X131662627Y-99420835D01*
X131662626Y-99420835D01*
X131605080Y-99420484D01*
X131534255Y-99420051D01*
X131402192Y-99457795D01*
X131394605Y-99462582D01*
X131394603Y-99462583D01*
X131371093Y-99477417D01*
X131286031Y-99531087D01*
X131280088Y-99537816D01*
X131276773Y-99541570D01*
X131195109Y-99634036D01*
X131191295Y-99642159D01*
X131191294Y-99642161D01*
X131168501Y-99690709D01*
X131136736Y-99758366D01*
X131132049Y-99788469D01*
X131116986Y-99885209D01*
X131116986Y-99885213D01*
X131115605Y-99894082D01*
X105776791Y-99894082D01*
X105777036Y-99094082D01*
X139415605Y-99094082D01*
X139416769Y-99102984D01*
X139416769Y-99102987D01*
X139423411Y-99153777D01*
X139433414Y-99230273D01*
X139488732Y-99355992D01*
X139577111Y-99461132D01*
X139691447Y-99537240D01*
X139822549Y-99578199D01*
X139959876Y-99580716D01*
X139969109Y-99578199D01*
X140083727Y-99546951D01*
X140092391Y-99544589D01*
X140209439Y-99472721D01*
X140216315Y-99465125D01*
X140295584Y-99377550D01*
X140295585Y-99377549D01*
X140301612Y-99370890D01*
X140361499Y-99247283D01*
X140384286Y-99111836D01*
X140384431Y-99100000D01*
X140383584Y-99094082D01*
X140366232Y-98972923D01*
X140366232Y-98972921D01*
X140364959Y-98964036D01*
X140308110Y-98839003D01*
X140218453Y-98734951D01*
X140103196Y-98660244D01*
X139971603Y-98620890D01*
X139962627Y-98620835D01*
X139962626Y-98620835D01*
X139905080Y-98620484D01*
X139834255Y-98620051D01*
X139702192Y-98657795D01*
X139694605Y-98662582D01*
X139694603Y-98662583D01*
X139634583Y-98700453D01*
X139586031Y-98731087D01*
X139495109Y-98834036D01*
X139491295Y-98842159D01*
X139491294Y-98842161D01*
X139471073Y-98885231D01*
X139436736Y-98958366D01*
X139431696Y-98990738D01*
X139416986Y-99085209D01*
X139416986Y-99085213D01*
X139415605Y-99094082D01*
X105777036Y-99094082D01*
X105777445Y-97760964D01*
X113800748Y-97760964D01*
X113814024Y-97963522D01*
X113815445Y-97969118D01*
X113815446Y-97969123D01*
X113835719Y-98048945D01*
X113863992Y-98160269D01*
X113866409Y-98165512D01*
X113903610Y-98246208D01*
X113948977Y-98344616D01*
X114066133Y-98510389D01*
X114211538Y-98652035D01*
X114216342Y-98655245D01*
X114264994Y-98687753D01*
X114380320Y-98764812D01*
X114385623Y-98767090D01*
X114385626Y-98767092D01*
X114560355Y-98842161D01*
X114566828Y-98844942D01*
X114639844Y-98861464D01*
X114759179Y-98888467D01*
X114759184Y-98888468D01*
X114764816Y-98889742D01*
X114770587Y-98889969D01*
X114770589Y-98889969D01*
X114830356Y-98892317D01*
X114967653Y-98897712D01*
X115072368Y-98882529D01*
X115162831Y-98869413D01*
X115162836Y-98869412D01*
X115168545Y-98868584D01*
X115174009Y-98866729D01*
X115174014Y-98866728D01*
X115355293Y-98805192D01*
X115355298Y-98805190D01*
X115360765Y-98803334D01*
X115537876Y-98704147D01*
X115590664Y-98660244D01*
X115689513Y-98578031D01*
X115693945Y-98574345D01*
X115763532Y-98490676D01*
X115820053Y-98422718D01*
X115820055Y-98422715D01*
X115823747Y-98418276D01*
X115922934Y-98241165D01*
X115924790Y-98235698D01*
X115924792Y-98235693D01*
X115986328Y-98054414D01*
X115986329Y-98054409D01*
X115988184Y-98048945D01*
X115989012Y-98043236D01*
X115989013Y-98043231D01*
X116016779Y-97851727D01*
X116017312Y-97848053D01*
X116018832Y-97790000D01*
X116005648Y-97646516D01*
X116000787Y-97593613D01*
X116000786Y-97593610D01*
X116000258Y-97587859D01*
X115995366Y-97570514D01*
X115946725Y-97398046D01*
X115946724Y-97398044D01*
X115945157Y-97392487D01*
X115934578Y-97371033D01*
X115857931Y-97215609D01*
X115855376Y-97210428D01*
X115733920Y-97047779D01*
X115584858Y-96909987D01*
X115579975Y-96906906D01*
X115579971Y-96906903D01*
X115501326Y-96857282D01*
X121067009Y-96857282D01*
X121068173Y-96866184D01*
X121068173Y-96866187D01*
X121071629Y-96892612D01*
X121084818Y-96993473D01*
X121140136Y-97119192D01*
X121145914Y-97126065D01*
X121145914Y-97126066D01*
X121221735Y-97216266D01*
X121228515Y-97224332D01*
X121235992Y-97229309D01*
X121334362Y-97294789D01*
X121342851Y-97300440D01*
X121473953Y-97341399D01*
X121611280Y-97343916D01*
X121620513Y-97341399D01*
X121735131Y-97310151D01*
X121743795Y-97307789D01*
X121751445Y-97303092D01*
X121751447Y-97303091D01*
X121780075Y-97285513D01*
X121848593Y-97266915D01*
X121900248Y-97279162D01*
X121907174Y-97282465D01*
X121914647Y-97287440D01*
X122045749Y-97328399D01*
X122183076Y-97330916D01*
X122192309Y-97328399D01*
X122306927Y-97297151D01*
X122315591Y-97294789D01*
X122432639Y-97222921D01*
X122524812Y-97121090D01*
X122536541Y-97096883D01*
X122580785Y-97005562D01*
X122580785Y-97005561D01*
X122584699Y-96997483D01*
X122607486Y-96862036D01*
X122607631Y-96850200D01*
X122602903Y-96817183D01*
X122589432Y-96723123D01*
X122589432Y-96723121D01*
X122588159Y-96714236D01*
X122531310Y-96589203D01*
X122441653Y-96485151D01*
X122326396Y-96410444D01*
X122194803Y-96371090D01*
X122185827Y-96371035D01*
X122185826Y-96371035D01*
X122128280Y-96370684D01*
X122057455Y-96370251D01*
X121925392Y-96407995D01*
X121917804Y-96412783D01*
X121917801Y-96412784D01*
X121894919Y-96427222D01*
X121826634Y-96446657D01*
X121771239Y-96430024D01*
X121770283Y-96432092D01*
X121762131Y-96428325D01*
X121754600Y-96423444D01*
X121623007Y-96384090D01*
X121614031Y-96384035D01*
X121614030Y-96384035D01*
X121556484Y-96383684D01*
X121485659Y-96383251D01*
X121353596Y-96420995D01*
X121346009Y-96425782D01*
X121346007Y-96425783D01*
X121336008Y-96432092D01*
X121237435Y-96494287D01*
X121146513Y-96597236D01*
X121088140Y-96721566D01*
X121086760Y-96730432D01*
X121068390Y-96848409D01*
X121068390Y-96848413D01*
X121067009Y-96857282D01*
X115501326Y-96857282D01*
X115418064Y-96804748D01*
X115413181Y-96801667D01*
X115224639Y-96726446D01*
X115218979Y-96725320D01*
X115218975Y-96725319D01*
X115031213Y-96687971D01*
X115031210Y-96687971D01*
X115025546Y-96686844D01*
X115019771Y-96686768D01*
X115019767Y-96686768D01*
X114918393Y-96685441D01*
X114822571Y-96684187D01*
X114816874Y-96685166D01*
X114816873Y-96685166D01*
X114695249Y-96706065D01*
X114622510Y-96718564D01*
X114432063Y-96788824D01*
X114257610Y-96892612D01*
X114253270Y-96896418D01*
X114253266Y-96896421D01*
X114128816Y-97005562D01*
X114104992Y-97026455D01*
X113979320Y-97185869D01*
X113976631Y-97190980D01*
X113976629Y-97190983D01*
X113963673Y-97215609D01*
X113884803Y-97365515D01*
X113824607Y-97559378D01*
X113800748Y-97760964D01*
X105777445Y-97760964D01*
X105778224Y-95220964D01*
X113800748Y-95220964D01*
X113814024Y-95423522D01*
X113815445Y-95429118D01*
X113815446Y-95429123D01*
X113835719Y-95508945D01*
X113863992Y-95620269D01*
X113866409Y-95625512D01*
X113903610Y-95706208D01*
X113948977Y-95804616D01*
X114066133Y-95970389D01*
X114211538Y-96112035D01*
X114380320Y-96224812D01*
X114385623Y-96227090D01*
X114385626Y-96227092D01*
X114474307Y-96265192D01*
X114566828Y-96304942D01*
X114639844Y-96321464D01*
X114759179Y-96348467D01*
X114759184Y-96348468D01*
X114764816Y-96349742D01*
X114770587Y-96349969D01*
X114770589Y-96349969D01*
X114830356Y-96352317D01*
X114967653Y-96357712D01*
X115068099Y-96343148D01*
X115162831Y-96329413D01*
X115162836Y-96329412D01*
X115168545Y-96328584D01*
X115174009Y-96326729D01*
X115174014Y-96326728D01*
X115355293Y-96265192D01*
X115355298Y-96265190D01*
X115360765Y-96263334D01*
X115537876Y-96164147D01*
X115600534Y-96112035D01*
X115689513Y-96038031D01*
X115693945Y-96034345D01*
X115823747Y-95878276D01*
X115837240Y-95854183D01*
X153264389Y-95854183D01*
X153265912Y-95862607D01*
X153278292Y-95866000D01*
X155918344Y-95866000D01*
X155931875Y-95862027D01*
X155933180Y-95852947D01*
X155891214Y-95685875D01*
X155887894Y-95676124D01*
X155802972Y-95480814D01*
X155798105Y-95471739D01*
X155682426Y-95292926D01*
X155676136Y-95284757D01*
X155532806Y-95127240D01*
X155525273Y-95120215D01*
X155358139Y-94988222D01*
X155349552Y-94982517D01*
X155163117Y-94879599D01*
X155153705Y-94875369D01*
X155039391Y-94834888D01*
X154981855Y-94793294D01*
X154955939Y-94727196D01*
X154969873Y-94657580D01*
X155019232Y-94606549D01*
X155040943Y-94596804D01*
X155051165Y-94593334D01*
X155087612Y-94572923D01*
X155169063Y-94527308D01*
X155228276Y-94494147D01*
X155290934Y-94442035D01*
X155379913Y-94368031D01*
X155384345Y-94364345D01*
X155466866Y-94265125D01*
X155510453Y-94212718D01*
X155510455Y-94212715D01*
X155514147Y-94208276D01*
X155613334Y-94031165D01*
X155615190Y-94025698D01*
X155615192Y-94025693D01*
X155676728Y-93844414D01*
X155676729Y-93844409D01*
X155678584Y-93838945D01*
X155679412Y-93833236D01*
X155679413Y-93833231D01*
X155707179Y-93641727D01*
X155707712Y-93638053D01*
X155709232Y-93580000D01*
X155690658Y-93377859D01*
X155689090Y-93372299D01*
X155637125Y-93188046D01*
X155637124Y-93188044D01*
X155635557Y-93182487D01*
X155632123Y-93175522D01*
X155548331Y-93005609D01*
X155545776Y-93000428D01*
X155424320Y-92837779D01*
X155349789Y-92768883D01*
X155279503Y-92703911D01*
X155275258Y-92699987D01*
X155270375Y-92696906D01*
X155270371Y-92696903D01*
X155108464Y-92594748D01*
X155103581Y-92591667D01*
X154915039Y-92516446D01*
X154909379Y-92515320D01*
X154909375Y-92515319D01*
X154721613Y-92477971D01*
X154721610Y-92477971D01*
X154715946Y-92476844D01*
X154710171Y-92476768D01*
X154710167Y-92476768D01*
X154608793Y-92475441D01*
X154512971Y-92474187D01*
X154507274Y-92475166D01*
X154507273Y-92475166D01*
X154318607Y-92507585D01*
X154312910Y-92508564D01*
X154122463Y-92578824D01*
X153948010Y-92682612D01*
X153943670Y-92686418D01*
X153943666Y-92686421D01*
X153799733Y-92812648D01*
X153795392Y-92816455D01*
X153669720Y-92975869D01*
X153667031Y-92980980D01*
X153667029Y-92980983D01*
X153654073Y-93005609D01*
X153575203Y-93155515D01*
X153515007Y-93349378D01*
X153491148Y-93550964D01*
X153504424Y-93753522D01*
X153505845Y-93759118D01*
X153505846Y-93759123D01*
X153526119Y-93838945D01*
X153554392Y-93950269D01*
X153556809Y-93955512D01*
X153594010Y-94036208D01*
X153639377Y-94134616D01*
X153642710Y-94139332D01*
X153731345Y-94264748D01*
X153756533Y-94300389D01*
X153760675Y-94304424D01*
X153822068Y-94364230D01*
X153901938Y-94442035D01*
X153906742Y-94445245D01*
X153920822Y-94454653D01*
X154070720Y-94554812D01*
X154076023Y-94557090D01*
X154076026Y-94557092D01*
X154172954Y-94598735D01*
X154227647Y-94644003D01*
X154249184Y-94711654D01*
X154230727Y-94780210D01*
X154178136Y-94827904D01*
X154162361Y-94834268D01*
X154076868Y-94862212D01*
X154067359Y-94866209D01*
X153878463Y-94964542D01*
X153869738Y-94970036D01*
X153699433Y-95097905D01*
X153691726Y-95104748D01*
X153544590Y-95258717D01*
X153538104Y-95266727D01*
X153418098Y-95442649D01*
X153413000Y-95451623D01*
X153323338Y-95644783D01*
X153319775Y-95654470D01*
X153264389Y-95854183D01*
X115837240Y-95854183D01*
X115922934Y-95701165D01*
X115924790Y-95695698D01*
X115924792Y-95695693D01*
X115986328Y-95514414D01*
X115986329Y-95514409D01*
X115988184Y-95508945D01*
X115989012Y-95503236D01*
X115989013Y-95503231D01*
X116016779Y-95311727D01*
X116017312Y-95308053D01*
X116018832Y-95250000D01*
X116002974Y-95077417D01*
X116000787Y-95053613D01*
X116000786Y-95053610D01*
X116000258Y-95047859D01*
X115998690Y-95042299D01*
X115946725Y-94858046D01*
X115946724Y-94858044D01*
X115945157Y-94852487D01*
X115936479Y-94834888D01*
X115916356Y-94794082D01*
X128265605Y-94794082D01*
X128266769Y-94802984D01*
X128266769Y-94802987D01*
X128270437Y-94831033D01*
X128283414Y-94930273D01*
X128338732Y-95055992D01*
X128344510Y-95062865D01*
X128344510Y-95062866D01*
X128407028Y-95137240D01*
X128427111Y-95161132D01*
X128541447Y-95237240D01*
X128672549Y-95278199D01*
X128809876Y-95280716D01*
X128819109Y-95278199D01*
X128933727Y-95246951D01*
X128942391Y-95244589D01*
X129059439Y-95172721D01*
X129093853Y-95134701D01*
X129154396Y-95097619D01*
X129225376Y-95099157D01*
X129257086Y-95114367D01*
X129291447Y-95137240D01*
X129422549Y-95178199D01*
X129559876Y-95180716D01*
X129569109Y-95178199D01*
X129683727Y-95146951D01*
X129692391Y-95144589D01*
X129809439Y-95072721D01*
X129815463Y-95066066D01*
X129895584Y-94977550D01*
X129895585Y-94977549D01*
X129901612Y-94970890D01*
X129917309Y-94938493D01*
X129957585Y-94855362D01*
X129957585Y-94855361D01*
X129961499Y-94847283D01*
X129984286Y-94711836D01*
X129984431Y-94700000D01*
X129982672Y-94687712D01*
X129966232Y-94572923D01*
X129966232Y-94572921D01*
X129964959Y-94564036D01*
X129908110Y-94439003D01*
X129818453Y-94334951D01*
X129703196Y-94260244D01*
X129571603Y-94220890D01*
X129562627Y-94220835D01*
X129562626Y-94220835D01*
X129505080Y-94220484D01*
X129434255Y-94220051D01*
X129302192Y-94257795D01*
X129294605Y-94262582D01*
X129294603Y-94262583D01*
X129242165Y-94295669D01*
X129186031Y-94331087D01*
X129167021Y-94352612D01*
X129156760Y-94364230D01*
X129096674Y-94402048D01*
X129025681Y-94401378D01*
X128993785Y-94386553D01*
X128960728Y-94365126D01*
X128953196Y-94360244D01*
X128821603Y-94320890D01*
X128812627Y-94320835D01*
X128812626Y-94320835D01*
X128755080Y-94320484D01*
X128684255Y-94320051D01*
X128552192Y-94357795D01*
X128544605Y-94362582D01*
X128544603Y-94362583D01*
X128506613Y-94386553D01*
X128436031Y-94431087D01*
X128345109Y-94534036D01*
X128341295Y-94542159D01*
X128341294Y-94542161D01*
X128318594Y-94590510D01*
X128286736Y-94658366D01*
X128280254Y-94700000D01*
X128266986Y-94785209D01*
X128266986Y-94785213D01*
X128265605Y-94794082D01*
X115916356Y-94794082D01*
X115857931Y-94675609D01*
X115855376Y-94670428D01*
X115835644Y-94644003D01*
X115801840Y-94598735D01*
X115733920Y-94507779D01*
X115619541Y-94402048D01*
X115589103Y-94373911D01*
X115584858Y-94369987D01*
X115579975Y-94366906D01*
X115579971Y-94366903D01*
X115418064Y-94264748D01*
X115413181Y-94261667D01*
X115224639Y-94186446D01*
X115218979Y-94185320D01*
X115218975Y-94185319D01*
X115031213Y-94147971D01*
X115031210Y-94147971D01*
X115025546Y-94146844D01*
X115019771Y-94146768D01*
X115019767Y-94146768D01*
X114918393Y-94145441D01*
X114822571Y-94144187D01*
X114816874Y-94145166D01*
X114816873Y-94145166D01*
X114628207Y-94177585D01*
X114622510Y-94178564D01*
X114432063Y-94248824D01*
X114257610Y-94352612D01*
X114253270Y-94356418D01*
X114253266Y-94356421D01*
X114164764Y-94434036D01*
X114104992Y-94486455D01*
X113979320Y-94645869D01*
X113976631Y-94650980D01*
X113976629Y-94650983D01*
X113944613Y-94711836D01*
X113884803Y-94825515D01*
X113824607Y-95019378D01*
X113800748Y-95220964D01*
X105778224Y-95220964D01*
X105779263Y-91834933D01*
X113805100Y-91834933D01*
X113805101Y-93585066D01*
X113812212Y-93620818D01*
X113816371Y-93641727D01*
X113819866Y-93659301D01*
X113876116Y-93743484D01*
X113960299Y-93799734D01*
X114034533Y-93814500D01*
X114909458Y-93814500D01*
X115784666Y-93814499D01*
X115820418Y-93807388D01*
X115846726Y-93802156D01*
X115846728Y-93802155D01*
X115858901Y-93799734D01*
X115869221Y-93792839D01*
X115869222Y-93792838D01*
X115932768Y-93750377D01*
X115943084Y-93743484D01*
X115999334Y-93659301D01*
X116014100Y-93585067D01*
X116014099Y-92694082D01*
X128854094Y-92694082D01*
X128855258Y-92702984D01*
X128855258Y-92702987D01*
X128857043Y-92716633D01*
X128871903Y-92830273D01*
X128927221Y-92955992D01*
X128932999Y-92962865D01*
X128932999Y-92962866D01*
X128943929Y-92975869D01*
X129015600Y-93061132D01*
X129129936Y-93137240D01*
X129261038Y-93178199D01*
X129398365Y-93180716D01*
X129407598Y-93178199D01*
X129522216Y-93146951D01*
X129530880Y-93144589D01*
X129647928Y-93072721D01*
X129708675Y-93005609D01*
X129734073Y-92977550D01*
X129734074Y-92977549D01*
X129740101Y-92970890D01*
X129799988Y-92847283D01*
X129822775Y-92711836D01*
X129822920Y-92700000D01*
X129822073Y-92694082D01*
X129804721Y-92572923D01*
X129804721Y-92572921D01*
X129803448Y-92564036D01*
X129746599Y-92439003D01*
X129656942Y-92334951D01*
X129541685Y-92260244D01*
X129410092Y-92220890D01*
X129401116Y-92220835D01*
X129401115Y-92220835D01*
X129343569Y-92220484D01*
X129272744Y-92220051D01*
X129140681Y-92257795D01*
X129133094Y-92262582D01*
X129133092Y-92262583D01*
X129125551Y-92267341D01*
X129024520Y-92331087D01*
X129018577Y-92337816D01*
X129015100Y-92341753D01*
X128933598Y-92434036D01*
X128929784Y-92442159D01*
X128929783Y-92442161D01*
X128912970Y-92477971D01*
X128875225Y-92558366D01*
X128865516Y-92620724D01*
X128855475Y-92685209D01*
X128855475Y-92685213D01*
X128854094Y-92694082D01*
X116014099Y-92694082D01*
X116014099Y-91834934D01*
X115999334Y-91760699D01*
X115968459Y-91714491D01*
X115949977Y-91686832D01*
X115943084Y-91676516D01*
X115858901Y-91620266D01*
X115784667Y-91605500D01*
X114909742Y-91605500D01*
X114034534Y-91605501D01*
X113998782Y-91612612D01*
X113972474Y-91617844D01*
X113972472Y-91617845D01*
X113960299Y-91620266D01*
X113949979Y-91627161D01*
X113949978Y-91627162D01*
X113929704Y-91640709D01*
X113876116Y-91676516D01*
X113819866Y-91760699D01*
X113805100Y-91834933D01*
X105779263Y-91834933D01*
X105779437Y-91268682D01*
X121039305Y-91268682D01*
X121040469Y-91277584D01*
X121040469Y-91277587D01*
X121042254Y-91291233D01*
X121057114Y-91404873D01*
X121112432Y-91530592D01*
X121118210Y-91537465D01*
X121118210Y-91537466D01*
X121193606Y-91627161D01*
X121200811Y-91635732D01*
X121315147Y-91711840D01*
X121446249Y-91752799D01*
X121583576Y-91755316D01*
X121592809Y-91752799D01*
X121649833Y-91737253D01*
X121716091Y-91719189D01*
X121723743Y-91714491D01*
X121724447Y-91714186D01*
X121794909Y-91705490D01*
X121816696Y-91712323D01*
X121816847Y-91711840D01*
X121906675Y-91739904D01*
X121947949Y-91752799D01*
X122085276Y-91755316D01*
X122094509Y-91752799D01*
X122151533Y-91737253D01*
X122217791Y-91719189D01*
X122334839Y-91647321D01*
X122359328Y-91620266D01*
X122374311Y-91603713D01*
X140077106Y-91603713D01*
X140078270Y-91612615D01*
X140078270Y-91612618D01*
X140080998Y-91633475D01*
X140094915Y-91739904D01*
X140150233Y-91865623D01*
X140156011Y-91872496D01*
X140156011Y-91872497D01*
X140232832Y-91963887D01*
X140238612Y-91970763D01*
X140352948Y-92046871D01*
X140484050Y-92087830D01*
X140621377Y-92090347D01*
X140630610Y-92087830D01*
X140745228Y-92056582D01*
X140753892Y-92054220D01*
X140769781Y-92044464D01*
X140838298Y-92025866D01*
X140905994Y-92047263D01*
X140932159Y-92070762D01*
X140989590Y-92139085D01*
X141103926Y-92215193D01*
X141235028Y-92256152D01*
X141372355Y-92258669D01*
X141381588Y-92256152D01*
X141496206Y-92224904D01*
X141504870Y-92222542D01*
X141621918Y-92150674D01*
X141650214Y-92119413D01*
X141708063Y-92055503D01*
X141708064Y-92055502D01*
X141714091Y-92048843D01*
X141716277Y-92044331D01*
X141769415Y-92000316D01*
X141839343Y-91991685D01*
X141846638Y-91992866D01*
X141855205Y-91995543D01*
X141992532Y-91998060D01*
X142001765Y-91995543D01*
X142116383Y-91964295D01*
X142125047Y-91961933D01*
X142235709Y-91893986D01*
X142304227Y-91875388D01*
X142371922Y-91896785D01*
X142417303Y-91951384D01*
X142426574Y-91985023D01*
X142432658Y-92031548D01*
X142487976Y-92157267D01*
X142493754Y-92164140D01*
X142493754Y-92164141D01*
X142568847Y-92253475D01*
X142576355Y-92262407D01*
X142690691Y-92338515D01*
X142821793Y-92379474D01*
X142959120Y-92381991D01*
X142968353Y-92379474D01*
X143082971Y-92348226D01*
X143091635Y-92345864D01*
X143208683Y-92273996D01*
X143221131Y-92260244D01*
X143294828Y-92178825D01*
X143294829Y-92178824D01*
X143300856Y-92172165D01*
X143311269Y-92150674D01*
X143356829Y-92056637D01*
X143356829Y-92056636D01*
X143360743Y-92048558D01*
X143383530Y-91913111D01*
X143383675Y-91901275D01*
X143382828Y-91895357D01*
X143365476Y-91774198D01*
X143365476Y-91774196D01*
X143364203Y-91765311D01*
X143307354Y-91640278D01*
X143217697Y-91536226D01*
X143102440Y-91461519D01*
X142970847Y-91422165D01*
X142961871Y-91422110D01*
X142961870Y-91422110D01*
X142904324Y-91421759D01*
X142833499Y-91421326D01*
X142701436Y-91459070D01*
X142693849Y-91463857D01*
X142693847Y-91463858D01*
X142597401Y-91524711D01*
X142529116Y-91544145D01*
X142461165Y-91523576D01*
X142415120Y-91469535D01*
X142405439Y-91436012D01*
X142398888Y-91390267D01*
X142398888Y-91390265D01*
X142397615Y-91381380D01*
X142340766Y-91256347D01*
X142251109Y-91152295D01*
X142135852Y-91077588D01*
X142004259Y-91038234D01*
X141995283Y-91038179D01*
X141995282Y-91038179D01*
X141937736Y-91037828D01*
X141866911Y-91037395D01*
X141734848Y-91075139D01*
X141727261Y-91079926D01*
X141727259Y-91079927D01*
X141704410Y-91094344D01*
X141618687Y-91148431D01*
X141527765Y-91251380D01*
X141527604Y-91251723D01*
X141476779Y-91294877D01*
X141406407Y-91304274D01*
X141395782Y-91301879D01*
X141392687Y-91301416D01*
X141384082Y-91298843D01*
X141375105Y-91298788D01*
X141375104Y-91298788D01*
X141318693Y-91298444D01*
X141246734Y-91298004D01*
X141114671Y-91335748D01*
X141107080Y-91340538D01*
X141107079Y-91340538D01*
X141105324Y-91341645D01*
X141103344Y-91342209D01*
X141098885Y-91344203D01*
X141098597Y-91343559D01*
X141037039Y-91361078D01*
X140969088Y-91340507D01*
X140942638Y-91317330D01*
X140885815Y-91251384D01*
X140879954Y-91244582D01*
X140764697Y-91169875D01*
X140633104Y-91130521D01*
X140624128Y-91130466D01*
X140624127Y-91130466D01*
X140566581Y-91130115D01*
X140495756Y-91129682D01*
X140363693Y-91167426D01*
X140356106Y-91172213D01*
X140356104Y-91172214D01*
X140299775Y-91207755D01*
X140247532Y-91240718D01*
X140241589Y-91247447D01*
X140238112Y-91251384D01*
X140156610Y-91343667D01*
X140152796Y-91351790D01*
X140152795Y-91351792D01*
X140142740Y-91373209D01*
X140098237Y-91467997D01*
X140096857Y-91476863D01*
X140078487Y-91594840D01*
X140078487Y-91594844D01*
X140077106Y-91603713D01*
X122374311Y-91603713D01*
X122420984Y-91552150D01*
X122420985Y-91552149D01*
X122427012Y-91545490D01*
X122431501Y-91536226D01*
X122482985Y-91429962D01*
X122482985Y-91429961D01*
X122486899Y-91421883D01*
X122509686Y-91286436D01*
X122509831Y-91274600D01*
X122508984Y-91268682D01*
X122491632Y-91147523D01*
X122491632Y-91147521D01*
X122490359Y-91138636D01*
X122433510Y-91013603D01*
X122431236Y-91010964D01*
X153491148Y-91010964D01*
X153504424Y-91213522D01*
X153505845Y-91219118D01*
X153505846Y-91219123D01*
X153541899Y-91361078D01*
X153554392Y-91410269D01*
X153556809Y-91415512D01*
X153615595Y-91543028D01*
X153639377Y-91594616D01*
X153655793Y-91617844D01*
X153722564Y-91712323D01*
X153756533Y-91760389D01*
X153760675Y-91764424D01*
X153856122Y-91857403D01*
X153901938Y-91902035D01*
X153906742Y-91905245D01*
X153974400Y-91950453D01*
X154070720Y-92014812D01*
X154076023Y-92017090D01*
X154076026Y-92017092D01*
X154200952Y-92070764D01*
X154257228Y-92094942D01*
X154330244Y-92111464D01*
X154449579Y-92138467D01*
X154449584Y-92138468D01*
X154455216Y-92139742D01*
X154460987Y-92139969D01*
X154460989Y-92139969D01*
X154520756Y-92142317D01*
X154658053Y-92147712D01*
X154764975Y-92132209D01*
X154853231Y-92119413D01*
X154853236Y-92119412D01*
X154858945Y-92118584D01*
X154864409Y-92116729D01*
X154864414Y-92116728D01*
X155045693Y-92055192D01*
X155045698Y-92055190D01*
X155051165Y-92053334D01*
X155057926Y-92049548D01*
X155210155Y-91964295D01*
X155228276Y-91954147D01*
X155271849Y-91917908D01*
X155379913Y-91828031D01*
X155384345Y-91824345D01*
X155441756Y-91755316D01*
X155510453Y-91672718D01*
X155510455Y-91672715D01*
X155514147Y-91668276D01*
X155613334Y-91491165D01*
X155615190Y-91485698D01*
X155615192Y-91485693D01*
X155676728Y-91304414D01*
X155676729Y-91304409D01*
X155678584Y-91298945D01*
X155679412Y-91293236D01*
X155679413Y-91293231D01*
X155699847Y-91152295D01*
X155707712Y-91098053D01*
X155709232Y-91040000D01*
X155697246Y-90909551D01*
X155691187Y-90843613D01*
X155691186Y-90843610D01*
X155690658Y-90837859D01*
X155689082Y-90832271D01*
X155637125Y-90648046D01*
X155637124Y-90648044D01*
X155635557Y-90642487D01*
X155624978Y-90621033D01*
X155548331Y-90465609D01*
X155545776Y-90460428D01*
X155424320Y-90297779D01*
X155275258Y-90159987D01*
X155270375Y-90156906D01*
X155270371Y-90156903D01*
X155108464Y-90054748D01*
X155103581Y-90051667D01*
X154915039Y-89976446D01*
X154909379Y-89975320D01*
X154909375Y-89975319D01*
X154721613Y-89937971D01*
X154721610Y-89937971D01*
X154715946Y-89936844D01*
X154710171Y-89936768D01*
X154710167Y-89936768D01*
X154608793Y-89935441D01*
X154512971Y-89934187D01*
X154507274Y-89935166D01*
X154507273Y-89935166D01*
X154318607Y-89967585D01*
X154312910Y-89968564D01*
X154122463Y-90038824D01*
X153948010Y-90142612D01*
X153943670Y-90146418D01*
X153943666Y-90146421D01*
X153850305Y-90228297D01*
X153795392Y-90276455D01*
X153791817Y-90280990D01*
X153791816Y-90280991D01*
X153767500Y-90311836D01*
X153669720Y-90435869D01*
X153667031Y-90440980D01*
X153667029Y-90440983D01*
X153654797Y-90464233D01*
X153575203Y-90615515D01*
X153515007Y-90809378D01*
X153491148Y-91010964D01*
X122431236Y-91010964D01*
X122343853Y-90909551D01*
X122228596Y-90834844D01*
X122097003Y-90795490D01*
X122088027Y-90795435D01*
X122088026Y-90795435D01*
X122030480Y-90795084D01*
X121959655Y-90794651D01*
X121827592Y-90832395D01*
X121823788Y-90834795D01*
X121755671Y-90844049D01*
X121728518Y-90835896D01*
X121726896Y-90834844D01*
X121718294Y-90832272D01*
X121718293Y-90832271D01*
X121623294Y-90803861D01*
X121595303Y-90795490D01*
X121586327Y-90795435D01*
X121586326Y-90795435D01*
X121528780Y-90795084D01*
X121457955Y-90794651D01*
X121325892Y-90832395D01*
X121318305Y-90837182D01*
X121318303Y-90837183D01*
X121307421Y-90844049D01*
X121209731Y-90905687D01*
X121118809Y-91008636D01*
X121114995Y-91016759D01*
X121114994Y-91016761D01*
X121088744Y-91072673D01*
X121060436Y-91132966D01*
X121055455Y-91164960D01*
X121040686Y-91259809D01*
X121040686Y-91259813D01*
X121039305Y-91268682D01*
X105779437Y-91268682D01*
X105780242Y-88644082D01*
X116065605Y-88644082D01*
X116066769Y-88652984D01*
X116066769Y-88652987D01*
X116070187Y-88679123D01*
X116083414Y-88780273D01*
X116138732Y-88905992D01*
X116144510Y-88912865D01*
X116144510Y-88912866D01*
X116172104Y-88945693D01*
X116227111Y-89011132D01*
X116341447Y-89087240D01*
X116472549Y-89128199D01*
X116609876Y-89130716D01*
X116619109Y-89128199D01*
X116733727Y-89096951D01*
X116742391Y-89094589D01*
X116859439Y-89022721D01*
X116921411Y-88954256D01*
X116945584Y-88927550D01*
X116945585Y-88927549D01*
X116951612Y-88920890D01*
X116973598Y-88875512D01*
X117007585Y-88805362D01*
X117007585Y-88805361D01*
X117011499Y-88797283D01*
X117034286Y-88661836D01*
X117034431Y-88650000D01*
X117033657Y-88644589D01*
X117026423Y-88594082D01*
X128315605Y-88594082D01*
X128316769Y-88602984D01*
X128316769Y-88602987D01*
X128322286Y-88645172D01*
X128333414Y-88730273D01*
X128388732Y-88855992D01*
X128394510Y-88862865D01*
X128394510Y-88862866D01*
X128451171Y-88930273D01*
X128477111Y-88961132D01*
X128591447Y-89037240D01*
X128673471Y-89062866D01*
X128705662Y-89072923D01*
X128722549Y-89078199D01*
X128859876Y-89080716D01*
X128869109Y-89078199D01*
X128983727Y-89046951D01*
X128992391Y-89044589D01*
X129109439Y-88972721D01*
X129128951Y-88951165D01*
X129195584Y-88877550D01*
X129195585Y-88877549D01*
X129201612Y-88870890D01*
X129219025Y-88834951D01*
X129257585Y-88755362D01*
X129257585Y-88755361D01*
X129261499Y-88747283D01*
X129284286Y-88611836D01*
X129284431Y-88600000D01*
X129283584Y-88594082D01*
X129266232Y-88472923D01*
X129266232Y-88472921D01*
X129264959Y-88464036D01*
X129208110Y-88339003D01*
X129118453Y-88234951D01*
X129055401Y-88194082D01*
X136315605Y-88194082D01*
X136316769Y-88202984D01*
X136316769Y-88202987D01*
X136320444Y-88231087D01*
X136333414Y-88330273D01*
X136388732Y-88455992D01*
X136394510Y-88462865D01*
X136394510Y-88462866D01*
X136458510Y-88539003D01*
X136477111Y-88561132D01*
X136591447Y-88637240D01*
X136670174Y-88661836D01*
X136707579Y-88673522D01*
X136722549Y-88678199D01*
X136859876Y-88680716D01*
X136957955Y-88653977D01*
X137028936Y-88655357D01*
X137087905Y-88694894D01*
X137116137Y-88760036D01*
X137117086Y-88777079D01*
X137116987Y-88785207D01*
X137115605Y-88794082D01*
X137133414Y-88930273D01*
X137137031Y-88938493D01*
X137183715Y-89044589D01*
X137188732Y-89055992D01*
X137194510Y-89062865D01*
X137194510Y-89062866D01*
X137271331Y-89154256D01*
X137277111Y-89161132D01*
X137391447Y-89237240D01*
X137522549Y-89278199D01*
X137643843Y-89280422D01*
X137711586Y-89301669D01*
X137756863Y-89355654D01*
X137801013Y-89455992D01*
X137806791Y-89462865D01*
X137806791Y-89462866D01*
X137882272Y-89552662D01*
X137889392Y-89561132D01*
X137896869Y-89566109D01*
X137934788Y-89591350D01*
X137980411Y-89645747D01*
X137989382Y-89716174D01*
X137958853Y-89780272D01*
X137932207Y-89802797D01*
X137861280Y-89847548D01*
X137770358Y-89950497D01*
X137766544Y-89958620D01*
X137766543Y-89958622D01*
X137760936Y-89970565D01*
X137711985Y-90074827D01*
X137710605Y-90083693D01*
X137692235Y-90201670D01*
X137692235Y-90201674D01*
X137690854Y-90210543D01*
X137692018Y-90219445D01*
X137692018Y-90219448D01*
X137697053Y-90257950D01*
X137708663Y-90346734D01*
X137763981Y-90472453D01*
X137769759Y-90479326D01*
X137769759Y-90479327D01*
X137839930Y-90562806D01*
X137852360Y-90577593D01*
X137859837Y-90582570D01*
X137958201Y-90648046D01*
X137966696Y-90653701D01*
X138097798Y-90694660D01*
X138235125Y-90697177D01*
X138244358Y-90694660D01*
X138358976Y-90663412D01*
X138367640Y-90661050D01*
X138484688Y-90589182D01*
X138508508Y-90562866D01*
X138570833Y-90494011D01*
X138570834Y-90494010D01*
X138576861Y-90487351D01*
X138600533Y-90438493D01*
X138632834Y-90371823D01*
X138632834Y-90371822D01*
X138636748Y-90363744D01*
X138648467Y-90294082D01*
X141915605Y-90294082D01*
X141916769Y-90302984D01*
X141916769Y-90302987D01*
X141922490Y-90346734D01*
X141933414Y-90430273D01*
X141988732Y-90555992D01*
X141994510Y-90562865D01*
X141994510Y-90562866D01*
X142071331Y-90654256D01*
X142077111Y-90661132D01*
X142191447Y-90737240D01*
X142322549Y-90778199D01*
X142459876Y-90780716D01*
X142469109Y-90778199D01*
X142583727Y-90746951D01*
X142592391Y-90744589D01*
X142709439Y-90672721D01*
X142756225Y-90621033D01*
X142795584Y-90577550D01*
X142795585Y-90577549D01*
X142801612Y-90570890D01*
X142842087Y-90487351D01*
X142857585Y-90455362D01*
X142857585Y-90455361D01*
X142861499Y-90447283D01*
X142884286Y-90311836D01*
X142884431Y-90300000D01*
X142883584Y-90294082D01*
X142866232Y-90172923D01*
X142866232Y-90172921D01*
X142864959Y-90164036D01*
X142859885Y-90152875D01*
X142824398Y-90074827D01*
X142808110Y-90039003D01*
X142718453Y-89934951D01*
X142603196Y-89860244D01*
X142471603Y-89820890D01*
X142462627Y-89820835D01*
X142462626Y-89820835D01*
X142405080Y-89820484D01*
X142334255Y-89820051D01*
X142202192Y-89857795D01*
X142194605Y-89862582D01*
X142194603Y-89862583D01*
X142132850Y-89901546D01*
X142086031Y-89931087D01*
X142080088Y-89937816D01*
X142061713Y-89958622D01*
X141995109Y-90034036D01*
X141991295Y-90042159D01*
X141991294Y-90042161D01*
X141971795Y-90083693D01*
X141936736Y-90158366D01*
X141929994Y-90201670D01*
X141916986Y-90285209D01*
X141916986Y-90285213D01*
X141915605Y-90294082D01*
X138648467Y-90294082D01*
X138654546Y-90257949D01*
X138685572Y-90194092D01*
X138746198Y-90157145D01*
X138781107Y-90152875D01*
X138847876Y-90154099D01*
X138857109Y-90151582D01*
X138971727Y-90120334D01*
X138980391Y-90117972D01*
X139097439Y-90046104D01*
X139105837Y-90036826D01*
X139183584Y-89950933D01*
X139183585Y-89950932D01*
X139189612Y-89944273D01*
X139194025Y-89935166D01*
X139245585Y-89828745D01*
X139245585Y-89828744D01*
X139249499Y-89820666D01*
X139272286Y-89685219D01*
X139272431Y-89673383D01*
X139268474Y-89645747D01*
X139254232Y-89546306D01*
X139254232Y-89546304D01*
X139252959Y-89537419D01*
X139196110Y-89412386D01*
X139106453Y-89308334D01*
X138991196Y-89233627D01*
X138859603Y-89194273D01*
X138850627Y-89194218D01*
X138850626Y-89194218D01*
X138804314Y-89193935D01*
X138736317Y-89173517D01*
X138690153Y-89119578D01*
X138680357Y-89085800D01*
X138678513Y-89072923D01*
X138678513Y-89072921D01*
X138677240Y-89064036D01*
X138620391Y-88939003D01*
X138530734Y-88834951D01*
X138415477Y-88760244D01*
X138283884Y-88720890D01*
X138274908Y-88720835D01*
X138274907Y-88720835D01*
X138248073Y-88720671D01*
X138170849Y-88720200D01*
X138102853Y-88699782D01*
X138056919Y-88646353D01*
X138038058Y-88604871D01*
X138008110Y-88539003D01*
X137918453Y-88434951D01*
X137803196Y-88360244D01*
X137671603Y-88320890D01*
X137662627Y-88320835D01*
X137662626Y-88320835D01*
X137605080Y-88320484D01*
X137534255Y-88320051D01*
X137525625Y-88322517D01*
X137525621Y-88322518D01*
X137443883Y-88345879D01*
X137372889Y-88345367D01*
X137313441Y-88306553D01*
X137284415Y-88241761D01*
X137283793Y-88214768D01*
X137284286Y-88211836D01*
X137284431Y-88200000D01*
X137283584Y-88194082D01*
X141415605Y-88194082D01*
X141416769Y-88202984D01*
X141416769Y-88202987D01*
X141420444Y-88231087D01*
X141433414Y-88330273D01*
X141488732Y-88455992D01*
X141494510Y-88462865D01*
X141494510Y-88462866D01*
X141558510Y-88539003D01*
X141577111Y-88561132D01*
X141691447Y-88637240D01*
X141770174Y-88661836D01*
X141807579Y-88673522D01*
X141822549Y-88678199D01*
X141959876Y-88680716D01*
X141969109Y-88678199D01*
X142029128Y-88661836D01*
X142092391Y-88644589D01*
X142209439Y-88572721D01*
X142226153Y-88554256D01*
X142295584Y-88477550D01*
X142295585Y-88477549D01*
X142301545Y-88470964D01*
X153491148Y-88470964D01*
X153504424Y-88673522D01*
X153505845Y-88679118D01*
X153505846Y-88679123D01*
X153544182Y-88830067D01*
X153554392Y-88870269D01*
X153556809Y-88875512D01*
X153593110Y-88954256D01*
X153639377Y-89054616D01*
X153646034Y-89064036D01*
X153742124Y-89200000D01*
X153756533Y-89220389D01*
X153760675Y-89224424D01*
X153817637Y-89279913D01*
X153901938Y-89362035D01*
X154070720Y-89474812D01*
X154076023Y-89477090D01*
X154076026Y-89477092D01*
X154164707Y-89515192D01*
X154257228Y-89554942D01*
X154330244Y-89571464D01*
X154449579Y-89598467D01*
X154449584Y-89598468D01*
X154455216Y-89599742D01*
X154460987Y-89599969D01*
X154460989Y-89599969D01*
X154520756Y-89602317D01*
X154658053Y-89607712D01*
X154770900Y-89591350D01*
X154853231Y-89579413D01*
X154853236Y-89579412D01*
X154858945Y-89578584D01*
X154864409Y-89576729D01*
X154864414Y-89576728D01*
X155045693Y-89515192D01*
X155045698Y-89515190D01*
X155051165Y-89513334D01*
X155228276Y-89414147D01*
X155290934Y-89362035D01*
X155379913Y-89288031D01*
X155384345Y-89284345D01*
X155421296Y-89239917D01*
X155510453Y-89132718D01*
X155510455Y-89132715D01*
X155514147Y-89128276D01*
X155613334Y-88951165D01*
X155615190Y-88945698D01*
X155615192Y-88945693D01*
X155676728Y-88764414D01*
X155676729Y-88764409D01*
X155678584Y-88758945D01*
X155679412Y-88753236D01*
X155679413Y-88753231D01*
X155702488Y-88594082D01*
X155707712Y-88558053D01*
X155709232Y-88500000D01*
X155695942Y-88355362D01*
X155691187Y-88303613D01*
X155691186Y-88303610D01*
X155690658Y-88297859D01*
X155689090Y-88292299D01*
X155637125Y-88108046D01*
X155637124Y-88108044D01*
X155635557Y-88102487D01*
X155629204Y-88089603D01*
X155548331Y-87925609D01*
X155545776Y-87920428D01*
X155424320Y-87757779D01*
X155275258Y-87619987D01*
X155270375Y-87616906D01*
X155270371Y-87616903D01*
X155108464Y-87514748D01*
X155103581Y-87511667D01*
X154915039Y-87436446D01*
X154909379Y-87435320D01*
X154909375Y-87435319D01*
X154721613Y-87397971D01*
X154721610Y-87397971D01*
X154715946Y-87396844D01*
X154710171Y-87396768D01*
X154710167Y-87396768D01*
X154608793Y-87395441D01*
X154512971Y-87394187D01*
X154507274Y-87395166D01*
X154507273Y-87395166D01*
X154354788Y-87421368D01*
X154312910Y-87428564D01*
X154122463Y-87498824D01*
X153948010Y-87602612D01*
X153943670Y-87606418D01*
X153943666Y-87606421D01*
X153862633Y-87677486D01*
X153795392Y-87736455D01*
X153791817Y-87740990D01*
X153791816Y-87740991D01*
X153786779Y-87747380D01*
X153669720Y-87895869D01*
X153667031Y-87900980D01*
X153667029Y-87900983D01*
X153619128Y-87992027D01*
X153575203Y-88075515D01*
X153515007Y-88269378D01*
X153491148Y-88470964D01*
X142301545Y-88470964D01*
X142301612Y-88470890D01*
X142311616Y-88450243D01*
X142357585Y-88355362D01*
X142357585Y-88355361D01*
X142361499Y-88347283D01*
X142384286Y-88211836D01*
X142384431Y-88200000D01*
X142383584Y-88194082D01*
X142366232Y-88072923D01*
X142366232Y-88072921D01*
X142364959Y-88064036D01*
X142358034Y-88048804D01*
X142337202Y-88002987D01*
X142308110Y-87939003D01*
X142218453Y-87834951D01*
X142103196Y-87760244D01*
X141971603Y-87720890D01*
X141962627Y-87720835D01*
X141962626Y-87720835D01*
X141905080Y-87720484D01*
X141834255Y-87720051D01*
X141702192Y-87757795D01*
X141694605Y-87762582D01*
X141694603Y-87762583D01*
X141666126Y-87780551D01*
X141586031Y-87831087D01*
X141495109Y-87934036D01*
X141436736Y-88058366D01*
X141429001Y-88108046D01*
X141416986Y-88185209D01*
X141416986Y-88185213D01*
X141415605Y-88194082D01*
X137283584Y-88194082D01*
X137266232Y-88072923D01*
X137266232Y-88072921D01*
X137264959Y-88064036D01*
X137258034Y-88048804D01*
X137237202Y-88002987D01*
X137208110Y-87939003D01*
X137118453Y-87834951D01*
X137003196Y-87760244D01*
X136871603Y-87720890D01*
X136862627Y-87720835D01*
X136862626Y-87720835D01*
X136805080Y-87720484D01*
X136734255Y-87720051D01*
X136602192Y-87757795D01*
X136594605Y-87762582D01*
X136594603Y-87762583D01*
X136566126Y-87780551D01*
X136486031Y-87831087D01*
X136395109Y-87934036D01*
X136336736Y-88058366D01*
X136329001Y-88108046D01*
X136316986Y-88185209D01*
X136316986Y-88185213D01*
X136315605Y-88194082D01*
X129055401Y-88194082D01*
X129003196Y-88160244D01*
X128871603Y-88120890D01*
X128862627Y-88120835D01*
X128862626Y-88120835D01*
X128805080Y-88120484D01*
X128734255Y-88120051D01*
X128602192Y-88157795D01*
X128594605Y-88162582D01*
X128594603Y-88162583D01*
X128558743Y-88185209D01*
X128486031Y-88231087D01*
X128480088Y-88237816D01*
X128431970Y-88292299D01*
X128395109Y-88334036D01*
X128391295Y-88342159D01*
X128391294Y-88342161D01*
X128385096Y-88355362D01*
X128336736Y-88458366D01*
X128328951Y-88508366D01*
X128316986Y-88585209D01*
X128316986Y-88585213D01*
X128315605Y-88594082D01*
X117026423Y-88594082D01*
X117016232Y-88522923D01*
X117016232Y-88522921D01*
X117014959Y-88514036D01*
X116958110Y-88389003D01*
X116957953Y-88388821D01*
X116939330Y-88324879D01*
X116951938Y-88270217D01*
X116952345Y-88269378D01*
X116982576Y-88206980D01*
X117007585Y-88155362D01*
X117007585Y-88155361D01*
X117011499Y-88147283D01*
X117034286Y-88011836D01*
X117034431Y-88000000D01*
X117033584Y-87994082D01*
X117016232Y-87872923D01*
X117016232Y-87872921D01*
X117014959Y-87864036D01*
X116963472Y-87750795D01*
X116953486Y-87680507D01*
X116964779Y-87643713D01*
X117011499Y-87547283D01*
X117034286Y-87411836D01*
X117034431Y-87400000D01*
X117033610Y-87394263D01*
X117019262Y-87294082D01*
X121315605Y-87294082D01*
X121316769Y-87302984D01*
X121316769Y-87302987D01*
X121321992Y-87342923D01*
X121333414Y-87430273D01*
X121388732Y-87555992D01*
X121394510Y-87562865D01*
X121394510Y-87562866D01*
X121447176Y-87625520D01*
X121477111Y-87661132D01*
X121484588Y-87666109D01*
X121580954Y-87730255D01*
X121591447Y-87737240D01*
X121722549Y-87778199D01*
X121859876Y-87780716D01*
X121869109Y-87778199D01*
X121944398Y-87757673D01*
X121992391Y-87744589D01*
X122005639Y-87736455D01*
X122033011Y-87719649D01*
X122101528Y-87701051D01*
X122168757Y-87722136D01*
X122191447Y-87737240D01*
X122200019Y-87739918D01*
X122280702Y-87765125D01*
X122322549Y-87778199D01*
X122459876Y-87780716D01*
X122469109Y-87778199D01*
X122544398Y-87757673D01*
X122592391Y-87744589D01*
X122696758Y-87680507D01*
X122701791Y-87677417D01*
X122709439Y-87672721D01*
X122719929Y-87661132D01*
X122772576Y-87602969D01*
X134024320Y-87602969D01*
X134025484Y-87611871D01*
X134025484Y-87611874D01*
X134031926Y-87661132D01*
X134042129Y-87739160D01*
X134097447Y-87864879D01*
X134103225Y-87871752D01*
X134103225Y-87871753D01*
X134148496Y-87925609D01*
X134185826Y-87970019D01*
X134300162Y-88046127D01*
X134431264Y-88087086D01*
X134568591Y-88089603D01*
X134577824Y-88087086D01*
X134692442Y-88055838D01*
X134701106Y-88053476D01*
X134818154Y-87981608D01*
X134834868Y-87963143D01*
X134904299Y-87886437D01*
X134904300Y-87886436D01*
X134910327Y-87879777D01*
X134917954Y-87864036D01*
X134966300Y-87764249D01*
X134966300Y-87764248D01*
X134970214Y-87756170D01*
X134993001Y-87620723D01*
X134993146Y-87608887D01*
X134992299Y-87602969D01*
X134974947Y-87481810D01*
X134974947Y-87481808D01*
X134973674Y-87472923D01*
X134916825Y-87347890D01*
X134827168Y-87243838D01*
X134711911Y-87169131D01*
X134580318Y-87129777D01*
X134571342Y-87129722D01*
X134571341Y-87129722D01*
X134513795Y-87129371D01*
X134442970Y-87128938D01*
X134310907Y-87166682D01*
X134303320Y-87171469D01*
X134303318Y-87171470D01*
X134241565Y-87210433D01*
X134194746Y-87239974D01*
X134188803Y-87246703D01*
X134139094Y-87302987D01*
X134103824Y-87342923D01*
X134100010Y-87351046D01*
X134100009Y-87351048D01*
X134079720Y-87394263D01*
X134045451Y-87467253D01*
X134040076Y-87501776D01*
X134025701Y-87594096D01*
X134025701Y-87594100D01*
X134024320Y-87602969D01*
X122772576Y-87602969D01*
X122795584Y-87577550D01*
X122795585Y-87577549D01*
X122801612Y-87570890D01*
X122813050Y-87547283D01*
X122857585Y-87455362D01*
X122857585Y-87455361D01*
X122861499Y-87447283D01*
X122884286Y-87311836D01*
X122884431Y-87300000D01*
X122883584Y-87294082D01*
X122866232Y-87172923D01*
X122866232Y-87172921D01*
X122864959Y-87164036D01*
X122808110Y-87039003D01*
X122718453Y-86934951D01*
X122603196Y-86860244D01*
X122471603Y-86820890D01*
X122462627Y-86820835D01*
X122462626Y-86820835D01*
X122405080Y-86820484D01*
X122334255Y-86820051D01*
X122268223Y-86838923D01*
X122210823Y-86855328D01*
X122210822Y-86855329D01*
X122202192Y-86857795D01*
X122194604Y-86862583D01*
X122194602Y-86862584D01*
X122167589Y-86879628D01*
X122099304Y-86899062D01*
X122031819Y-86878797D01*
X122003196Y-86860244D01*
X121871603Y-86820890D01*
X121862627Y-86820835D01*
X121862626Y-86820835D01*
X121805080Y-86820484D01*
X121734255Y-86820051D01*
X121602192Y-86857795D01*
X121594605Y-86862582D01*
X121594603Y-86862583D01*
X121539856Y-86897126D01*
X121486031Y-86931087D01*
X121480088Y-86937816D01*
X121424836Y-87000377D01*
X121395109Y-87034036D01*
X121391295Y-87042159D01*
X121391294Y-87042161D01*
X121380806Y-87064500D01*
X121336736Y-87158366D01*
X121334300Y-87174012D01*
X121316986Y-87285209D01*
X121316986Y-87285213D01*
X121315605Y-87294082D01*
X117019262Y-87294082D01*
X117016232Y-87272923D01*
X117016232Y-87272921D01*
X117014959Y-87264036D01*
X116958110Y-87139003D01*
X116868453Y-87034951D01*
X116753196Y-86960244D01*
X116621603Y-86920890D01*
X116612627Y-86920835D01*
X116612626Y-86920835D01*
X116555080Y-86920484D01*
X116484255Y-86920051D01*
X116352192Y-86957795D01*
X116344605Y-86962582D01*
X116344603Y-86962583D01*
X116311978Y-86983168D01*
X116236031Y-87031087D01*
X116145109Y-87134036D01*
X116141295Y-87142159D01*
X116141294Y-87142161D01*
X116126340Y-87174012D01*
X116086736Y-87258366D01*
X116080254Y-87300000D01*
X116066986Y-87385209D01*
X116066986Y-87385213D01*
X116065605Y-87394082D01*
X116066769Y-87402984D01*
X116066769Y-87402987D01*
X116072562Y-87447283D01*
X116083414Y-87530273D01*
X116136471Y-87650854D01*
X116145599Y-87721260D01*
X116135197Y-87755147D01*
X116086736Y-87858366D01*
X116081603Y-87891332D01*
X116066986Y-87985209D01*
X116066986Y-87985213D01*
X116065605Y-87994082D01*
X116066769Y-88002984D01*
X116066769Y-88002987D01*
X116073684Y-88055865D01*
X116083414Y-88130273D01*
X116095470Y-88157673D01*
X116132467Y-88241753D01*
X116138732Y-88255992D01*
X116142175Y-88260088D01*
X116160703Y-88326732D01*
X116143363Y-88383216D01*
X116145109Y-88384036D01*
X116086736Y-88508366D01*
X116083025Y-88532200D01*
X116066986Y-88635209D01*
X116066986Y-88635213D01*
X116065605Y-88644082D01*
X105780242Y-88644082D01*
X105781270Y-85294082D01*
X124615605Y-85294082D01*
X124616769Y-85302984D01*
X124616769Y-85302987D01*
X124621479Y-85339003D01*
X124633414Y-85430273D01*
X124688732Y-85555992D01*
X124694510Y-85562865D01*
X124694510Y-85562866D01*
X124739706Y-85616633D01*
X124777111Y-85661132D01*
X124784588Y-85666109D01*
X124880981Y-85730273D01*
X124891447Y-85737240D01*
X125022549Y-85778199D01*
X125159876Y-85780716D01*
X125169109Y-85778199D01*
X125283727Y-85746951D01*
X125292391Y-85744589D01*
X125409439Y-85672721D01*
X125426153Y-85654256D01*
X125480620Y-85594082D01*
X142515605Y-85594082D01*
X142516769Y-85602984D01*
X142516769Y-85602987D01*
X142518554Y-85616633D01*
X142533414Y-85730273D01*
X142588732Y-85855992D01*
X142677111Y-85961132D01*
X142791447Y-86037240D01*
X142922549Y-86078199D01*
X143059876Y-86080716D01*
X143069109Y-86078199D01*
X143183727Y-86046951D01*
X143192391Y-86044589D01*
X143309439Y-85972721D01*
X143401612Y-85870890D01*
X143446446Y-85778354D01*
X143457585Y-85755362D01*
X143457585Y-85755361D01*
X143461499Y-85747283D01*
X143484286Y-85611836D01*
X143484431Y-85600000D01*
X143483584Y-85594082D01*
X143466232Y-85472923D01*
X143466232Y-85472921D01*
X143464959Y-85464036D01*
X143408110Y-85339003D01*
X143318453Y-85234951D01*
X143203196Y-85160244D01*
X143071603Y-85120890D01*
X143062627Y-85120835D01*
X143062626Y-85120835D01*
X143005080Y-85120484D01*
X142934255Y-85120051D01*
X142802192Y-85157795D01*
X142794605Y-85162582D01*
X142794603Y-85162583D01*
X142732850Y-85201546D01*
X142686031Y-85231087D01*
X142595109Y-85334036D01*
X142536736Y-85458366D01*
X142527027Y-85520724D01*
X142516986Y-85585209D01*
X142516986Y-85585213D01*
X142515605Y-85594082D01*
X125480620Y-85594082D01*
X125495584Y-85577550D01*
X125495585Y-85577549D01*
X125501612Y-85570890D01*
X125556130Y-85458366D01*
X125557585Y-85455362D01*
X125557585Y-85455361D01*
X125561499Y-85447283D01*
X125584286Y-85311836D01*
X125584431Y-85300000D01*
X125583584Y-85294082D01*
X125566232Y-85172923D01*
X125566232Y-85172921D01*
X125564959Y-85164036D01*
X125528993Y-85084933D01*
X153495500Y-85084933D01*
X153495501Y-86835066D01*
X153510266Y-86909301D01*
X153517161Y-86919620D01*
X153517162Y-86919622D01*
X153542669Y-86957795D01*
X153566516Y-86993484D01*
X153650699Y-87049734D01*
X153724933Y-87064500D01*
X154599858Y-87064500D01*
X155475066Y-87064499D01*
X155510818Y-87057388D01*
X155537126Y-87052156D01*
X155537128Y-87052155D01*
X155549301Y-87049734D01*
X155559621Y-87042839D01*
X155559622Y-87042838D01*
X155623168Y-87000377D01*
X155633484Y-86993484D01*
X155675858Y-86930067D01*
X155682839Y-86919620D01*
X155689734Y-86909301D01*
X155704500Y-86835067D01*
X155704499Y-85084934D01*
X155694376Y-85034036D01*
X155692156Y-85022874D01*
X155692155Y-85022872D01*
X155689734Y-85010699D01*
X155633484Y-84926516D01*
X155549301Y-84870266D01*
X155475067Y-84855500D01*
X154600142Y-84855500D01*
X153724934Y-84855501D01*
X153689327Y-84862583D01*
X153662874Y-84867844D01*
X153662872Y-84867845D01*
X153650699Y-84870266D01*
X153640379Y-84877161D01*
X153640378Y-84877162D01*
X153585768Y-84913652D01*
X153566516Y-84926516D01*
X153510266Y-85010699D01*
X153495500Y-85084933D01*
X125528993Y-85084933D01*
X125508110Y-85039003D01*
X125418453Y-84934951D01*
X125303196Y-84860244D01*
X125171603Y-84820890D01*
X125162627Y-84820835D01*
X125162626Y-84820835D01*
X125105080Y-84820484D01*
X125034255Y-84820051D01*
X124902192Y-84857795D01*
X124894605Y-84862582D01*
X124894603Y-84862583D01*
X124863477Y-84882222D01*
X124786031Y-84931087D01*
X124695109Y-85034036D01*
X124636736Y-85158366D01*
X124627027Y-85220724D01*
X124616986Y-85285209D01*
X124616986Y-85285213D01*
X124615605Y-85294082D01*
X105781270Y-85294082D01*
X105781638Y-84093402D01*
X117969941Y-84093402D01*
X117986554Y-84243883D01*
X118038582Y-84386057D01*
X118042819Y-84392363D01*
X118042821Y-84392366D01*
X118074775Y-84439917D01*
X118123022Y-84511716D01*
X118234998Y-84613607D01*
X118241675Y-84617232D01*
X118241676Y-84617233D01*
X118361370Y-84682222D01*
X118361372Y-84682223D01*
X118368047Y-84685847D01*
X118375396Y-84687775D01*
X118507136Y-84722336D01*
X118507138Y-84722336D01*
X118514486Y-84724264D01*
X118594562Y-84725522D01*
X118658266Y-84726523D01*
X118658269Y-84726523D01*
X118665863Y-84726642D01*
X118813437Y-84692843D01*
X118880731Y-84658998D01*
X118941906Y-84628231D01*
X118941909Y-84628229D01*
X118948689Y-84624819D01*
X119063810Y-84526495D01*
X119152156Y-84403550D01*
X119200701Y-84282790D01*
X119895220Y-84282790D01*
X119911833Y-84433271D01*
X119963861Y-84575445D01*
X119968098Y-84581751D01*
X119968100Y-84581754D01*
X119993726Y-84619888D01*
X120048301Y-84701104D01*
X120160277Y-84802995D01*
X120166954Y-84806620D01*
X120166955Y-84806621D01*
X120286649Y-84871610D01*
X120286651Y-84871611D01*
X120293326Y-84875235D01*
X120300675Y-84877163D01*
X120432415Y-84911724D01*
X120432417Y-84911724D01*
X120439765Y-84913652D01*
X120519841Y-84914910D01*
X120583545Y-84915911D01*
X120583548Y-84915911D01*
X120591142Y-84916030D01*
X120738716Y-84882231D01*
X120806010Y-84848386D01*
X120867185Y-84817619D01*
X120867188Y-84817617D01*
X120873968Y-84814207D01*
X120989089Y-84715883D01*
X121065377Y-84609718D01*
X121073003Y-84599106D01*
X121073004Y-84599105D01*
X121077435Y-84592938D01*
X121133903Y-84452468D01*
X121155235Y-84302584D01*
X121155373Y-84289388D01*
X121152190Y-84263080D01*
X121147960Y-84228126D01*
X121137185Y-84139089D01*
X121127401Y-84113196D01*
X121086355Y-84004570D01*
X121086354Y-84004567D01*
X121083671Y-83997468D01*
X121006655Y-83885410D01*
X121002218Y-83878954D01*
X120997919Y-83872699D01*
X120884882Y-83771987D01*
X120878176Y-83768436D01*
X120878174Y-83768435D01*
X120799015Y-83726523D01*
X120751084Y-83701145D01*
X120604251Y-83664262D01*
X120596653Y-83664222D01*
X120596651Y-83664222D01*
X120532054Y-83663884D01*
X120452858Y-83663470D01*
X120445479Y-83665242D01*
X120445475Y-83665242D01*
X120313025Y-83697040D01*
X120313021Y-83697041D01*
X120305646Y-83698812D01*
X120278341Y-83712905D01*
X120183212Y-83762005D01*
X120171114Y-83768249D01*
X120165392Y-83773241D01*
X120165390Y-83773242D01*
X120062753Y-83862778D01*
X120062750Y-83862781D01*
X120057028Y-83867773D01*
X119969975Y-83991637D01*
X119914981Y-84132690D01*
X119912150Y-84154194D01*
X119897815Y-84263080D01*
X119895220Y-84282790D01*
X119200701Y-84282790D01*
X119208624Y-84263080D01*
X119229956Y-84113196D01*
X119230094Y-84100000D01*
X119211906Y-83949701D01*
X119187613Y-83885410D01*
X119161076Y-83815182D01*
X119161075Y-83815179D01*
X119158392Y-83808080D01*
X119072640Y-83683311D01*
X119011774Y-83629082D01*
X135600605Y-83629082D01*
X135601769Y-83637984D01*
X135601769Y-83637987D01*
X135606588Y-83674834D01*
X135618414Y-83765273D01*
X135673732Y-83890992D01*
X135762111Y-83996132D01*
X135876447Y-84072240D01*
X136007549Y-84113199D01*
X136144876Y-84115716D01*
X136154109Y-84113199D01*
X136268727Y-84081951D01*
X136277391Y-84079589D01*
X136382288Y-84015182D01*
X136386791Y-84012417D01*
X136394439Y-84007721D01*
X136408998Y-83991637D01*
X136480584Y-83912550D01*
X136480585Y-83912549D01*
X136486612Y-83905890D01*
X136496443Y-83885600D01*
X136542585Y-83790362D01*
X136542585Y-83790361D01*
X136546499Y-83782283D01*
X136569286Y-83646836D01*
X136569349Y-83641753D01*
X136569371Y-83639871D01*
X136569431Y-83635000D01*
X136568584Y-83629082D01*
X136551232Y-83507923D01*
X136551232Y-83507921D01*
X136549959Y-83499036D01*
X136493110Y-83374003D01*
X136416773Y-83285410D01*
X138724277Y-83285410D01*
X138725441Y-83294312D01*
X138725441Y-83294315D01*
X138731086Y-83337481D01*
X138742086Y-83421601D01*
X138797404Y-83547320D01*
X138803182Y-83554193D01*
X138803182Y-83554194D01*
X138867817Y-83631087D01*
X138885783Y-83652460D01*
X139000119Y-83728568D01*
X139072406Y-83751152D01*
X139117605Y-83765273D01*
X139131221Y-83769527D01*
X139196838Y-83770730D01*
X139201710Y-83770819D01*
X139269453Y-83792066D01*
X139314955Y-83846565D01*
X139322826Y-83885600D01*
X139324277Y-83885410D01*
X139342086Y-84021601D01*
X139345703Y-84029821D01*
X139382459Y-84113354D01*
X139397404Y-84147320D01*
X139485783Y-84252460D01*
X139493260Y-84257437D01*
X139563997Y-84304523D01*
X139600119Y-84328568D01*
X139696302Y-84358618D01*
X139720281Y-84366109D01*
X139731221Y-84369527D01*
X139868548Y-84372044D01*
X139877781Y-84369527D01*
X139992399Y-84338279D01*
X140001063Y-84335917D01*
X140008716Y-84331218D01*
X140010679Y-84330013D01*
X140012886Y-84329414D01*
X140016953Y-84327654D01*
X140017207Y-84328241D01*
X140079196Y-84311414D01*
X140146892Y-84332810D01*
X140164407Y-84348542D01*
X140164644Y-84348277D01*
X140171331Y-84354256D01*
X140177111Y-84361132D01*
X140291447Y-84437240D01*
X140422549Y-84478199D01*
X140559876Y-84480716D01*
X140569109Y-84478199D01*
X140683727Y-84446951D01*
X140692391Y-84444589D01*
X140704360Y-84437240D01*
X140785029Y-84387710D01*
X140853546Y-84369112D01*
X140920775Y-84390197D01*
X140991447Y-84437240D01*
X141122549Y-84478199D01*
X141259876Y-84480716D01*
X141269109Y-84478199D01*
X141383727Y-84446951D01*
X141392391Y-84444589D01*
X141419837Y-84427737D01*
X141488354Y-84409138D01*
X141556050Y-84430534D01*
X141604092Y-84491809D01*
X141638582Y-84586057D01*
X141642819Y-84592363D01*
X141642821Y-84592366D01*
X141664629Y-84624819D01*
X141723022Y-84711716D01*
X141834998Y-84813607D01*
X141841675Y-84817232D01*
X141841676Y-84817233D01*
X141961370Y-84882222D01*
X141961372Y-84882223D01*
X141968047Y-84885847D01*
X141975396Y-84887775D01*
X142107136Y-84922336D01*
X142107138Y-84922336D01*
X142114486Y-84924264D01*
X142194562Y-84925522D01*
X142258266Y-84926523D01*
X142258269Y-84926523D01*
X142265863Y-84926642D01*
X142413437Y-84892843D01*
X142488026Y-84855329D01*
X142541906Y-84828231D01*
X142541909Y-84828229D01*
X142548689Y-84824819D01*
X142663810Y-84726495D01*
X142734421Y-84628231D01*
X142747724Y-84609718D01*
X142747725Y-84609717D01*
X142752156Y-84603550D01*
X142808624Y-84463080D01*
X142829956Y-84313196D01*
X142830094Y-84300000D01*
X142828012Y-84282790D01*
X142812818Y-84157241D01*
X142811906Y-84149701D01*
X142791579Y-84095907D01*
X142761076Y-84015182D01*
X142761075Y-84015179D01*
X142758392Y-84008080D01*
X142672640Y-83883311D01*
X142606789Y-83824640D01*
X142565270Y-83787648D01*
X142565269Y-83787648D01*
X142559603Y-83782599D01*
X142552897Y-83779048D01*
X142552895Y-83779047D01*
X142464415Y-83732200D01*
X142425805Y-83711757D01*
X142278972Y-83674874D01*
X142271374Y-83674834D01*
X142271372Y-83674834D01*
X142206775Y-83674496D01*
X142127579Y-83674082D01*
X142120200Y-83675854D01*
X142120196Y-83675854D01*
X141987746Y-83707652D01*
X141987742Y-83707653D01*
X141980367Y-83709424D01*
X141936239Y-83732200D01*
X141856354Y-83773432D01*
X141845835Y-83778861D01*
X141840113Y-83783853D01*
X141840111Y-83783854D01*
X141816098Y-83804802D01*
X141751616Y-83834510D01*
X141681308Y-83824640D01*
X141627498Y-83778326D01*
X141618568Y-83762005D01*
X141616005Y-83756368D01*
X141608110Y-83739003D01*
X141518453Y-83634951D01*
X141403196Y-83560244D01*
X141271603Y-83520890D01*
X141262627Y-83520835D01*
X141262626Y-83520835D01*
X141205080Y-83520484D01*
X141134255Y-83520051D01*
X141002192Y-83557795D01*
X140994602Y-83562584D01*
X140916915Y-83611600D01*
X140848630Y-83631034D01*
X140781147Y-83610770D01*
X140747022Y-83588651D01*
X140703196Y-83560244D01*
X140571603Y-83520890D01*
X140562627Y-83520835D01*
X140562626Y-83520835D01*
X140505080Y-83520484D01*
X140434255Y-83520051D01*
X140394119Y-83531522D01*
X140310823Y-83555328D01*
X140310822Y-83555329D01*
X140302192Y-83557795D01*
X140294602Y-83562584D01*
X140286404Y-83566251D01*
X140285381Y-83563965D01*
X140229903Y-83579752D01*
X140161952Y-83559181D01*
X140135501Y-83536000D01*
X140132986Y-83533081D01*
X140127125Y-83526279D01*
X140011868Y-83451572D01*
X139880275Y-83412218D01*
X139871299Y-83412163D01*
X139871298Y-83412163D01*
X139848747Y-83412025D01*
X139817866Y-83411837D01*
X139749869Y-83391419D01*
X139703705Y-83337481D01*
X139693062Y-83294673D01*
X139693103Y-83291328D01*
X139692256Y-83285410D01*
X139674904Y-83164251D01*
X139674904Y-83164249D01*
X139673631Y-83155364D01*
X139616782Y-83030331D01*
X139527125Y-82926279D01*
X139411868Y-82851572D01*
X139280275Y-82812218D01*
X139271299Y-82812163D01*
X139271298Y-82812163D01*
X139213752Y-82811812D01*
X139142927Y-82811379D01*
X139010864Y-82849123D01*
X139003277Y-82853910D01*
X139003275Y-82853911D01*
X138941522Y-82892874D01*
X138894703Y-82922415D01*
X138888760Y-82929144D01*
X138838376Y-82986193D01*
X138803781Y-83025364D01*
X138745408Y-83149694D01*
X138739519Y-83187515D01*
X138725658Y-83276537D01*
X138725658Y-83276541D01*
X138724277Y-83285410D01*
X136416773Y-83285410D01*
X136403453Y-83269951D01*
X136288196Y-83195244D01*
X136156603Y-83155890D01*
X136147627Y-83155835D01*
X136147626Y-83155835D01*
X136090080Y-83155484D01*
X136019255Y-83155051D01*
X135887192Y-83192795D01*
X135879605Y-83197582D01*
X135879603Y-83197583D01*
X135818187Y-83236334D01*
X135771031Y-83266087D01*
X135765088Y-83272816D01*
X135707978Y-83337481D01*
X135680109Y-83369036D01*
X135676295Y-83377159D01*
X135676294Y-83377161D01*
X135658933Y-83414140D01*
X135621736Y-83493366D01*
X135615098Y-83536000D01*
X135601986Y-83620209D01*
X135601986Y-83620213D01*
X135600605Y-83629082D01*
X119011774Y-83629082D01*
X118999619Y-83618252D01*
X118965270Y-83587648D01*
X118965269Y-83587648D01*
X118959603Y-83582599D01*
X118952897Y-83579048D01*
X118952895Y-83579047D01*
X118862959Y-83531429D01*
X118825805Y-83511757D01*
X118678972Y-83474874D01*
X118671374Y-83474834D01*
X118671372Y-83474834D01*
X118606775Y-83474496D01*
X118527579Y-83474082D01*
X118520200Y-83475854D01*
X118520196Y-83475854D01*
X118387746Y-83507652D01*
X118387742Y-83507653D01*
X118380367Y-83509424D01*
X118337733Y-83531429D01*
X118274696Y-83563965D01*
X118245835Y-83578861D01*
X118240113Y-83583853D01*
X118240111Y-83583854D01*
X118137474Y-83673390D01*
X118137471Y-83673393D01*
X118131749Y-83678385D01*
X118109594Y-83709908D01*
X118051853Y-83792066D01*
X118044696Y-83802249D01*
X117989702Y-83943302D01*
X117988711Y-83950831D01*
X117971449Y-84081951D01*
X117969941Y-84093402D01*
X105781638Y-84093402D01*
X105782307Y-81910471D01*
X106693815Y-81910471D01*
X106729983Y-82176229D01*
X106805035Y-82433721D01*
X106917323Y-82677292D01*
X107064380Y-82901590D01*
X107067489Y-82905073D01*
X107067491Y-82905076D01*
X107186580Y-83038505D01*
X107242974Y-83101689D01*
X107449183Y-83273191D01*
X107678477Y-83412330D01*
X107682791Y-83414139D01*
X107682793Y-83414140D01*
X107921503Y-83514240D01*
X107921508Y-83514242D01*
X107925818Y-83516049D01*
X107930350Y-83517200D01*
X107930353Y-83517201D01*
X108048948Y-83547320D01*
X108185773Y-83582069D01*
X108408537Y-83604500D01*
X108568092Y-83604500D01*
X108570415Y-83604327D01*
X108570425Y-83604327D01*
X108762805Y-83590031D01*
X108762810Y-83590030D01*
X108767470Y-83589684D01*
X108772034Y-83588651D01*
X108772036Y-83588651D01*
X108954691Y-83547320D01*
X109029064Y-83530491D01*
X109039340Y-83526495D01*
X109274683Y-83434975D01*
X109274685Y-83434974D01*
X109279036Y-83433282D01*
X109285092Y-83429821D01*
X109377227Y-83377161D01*
X109511893Y-83300193D01*
X109722521Y-83134148D01*
X109760851Y-83093402D01*
X114769941Y-83093402D01*
X114786554Y-83243883D01*
X114838582Y-83386057D01*
X114842819Y-83392363D01*
X114842821Y-83392366D01*
X114870316Y-83433282D01*
X114923022Y-83511716D01*
X115034998Y-83613607D01*
X115041675Y-83617232D01*
X115041676Y-83617233D01*
X115161370Y-83682222D01*
X115161372Y-83682223D01*
X115168047Y-83685847D01*
X115175396Y-83687775D01*
X115307136Y-83722336D01*
X115307138Y-83722336D01*
X115314486Y-83724264D01*
X115394562Y-83725522D01*
X115458266Y-83726523D01*
X115458269Y-83726523D01*
X115465863Y-83726642D01*
X115613437Y-83692843D01*
X115683835Y-83657437D01*
X115741906Y-83628231D01*
X115741909Y-83628229D01*
X115748689Y-83624819D01*
X115863810Y-83526495D01*
X115939185Y-83421601D01*
X115947724Y-83409718D01*
X115947725Y-83409717D01*
X115952156Y-83403550D01*
X116008624Y-83263080D01*
X116029956Y-83113196D01*
X116030094Y-83100000D01*
X116029547Y-83095474D01*
X116012818Y-82957241D01*
X116011906Y-82949701D01*
X115995044Y-82905076D01*
X115961076Y-82815182D01*
X115961075Y-82815179D01*
X115958392Y-82808080D01*
X115872640Y-82683311D01*
X115759603Y-82582599D01*
X115752897Y-82579048D01*
X115752895Y-82579047D01*
X115692704Y-82547178D01*
X115625805Y-82511757D01*
X115478972Y-82474874D01*
X115471374Y-82474834D01*
X115471372Y-82474834D01*
X115406775Y-82474496D01*
X115327579Y-82474082D01*
X115320200Y-82475854D01*
X115320196Y-82475854D01*
X115187746Y-82507652D01*
X115187742Y-82507653D01*
X115180367Y-82509424D01*
X115045835Y-82578861D01*
X115040113Y-82583853D01*
X115040111Y-82583854D01*
X114937474Y-82673390D01*
X114937471Y-82673393D01*
X114931749Y-82678385D01*
X114916558Y-82700000D01*
X114869687Y-82766691D01*
X114844696Y-82802249D01*
X114789702Y-82943302D01*
X114788711Y-82950831D01*
X114777829Y-83033489D01*
X114769941Y-83093402D01*
X109760851Y-83093402D01*
X109906292Y-82938793D01*
X110059170Y-82718421D01*
X110061238Y-82714228D01*
X110175730Y-82482061D01*
X110175731Y-82482058D01*
X110177795Y-82477873D01*
X110190567Y-82437975D01*
X110258139Y-82226878D01*
X110259562Y-82222433D01*
X110302674Y-81957714D01*
X110306185Y-81689529D01*
X110270017Y-81423771D01*
X110263088Y-81400000D01*
X119840715Y-81400000D01*
X119859772Y-81544754D01*
X119915645Y-81679642D01*
X120004526Y-81795474D01*
X120011076Y-81800500D01*
X120011079Y-81800503D01*
X120113804Y-81879327D01*
X120120357Y-81884355D01*
X120255246Y-81940228D01*
X120400000Y-81959285D01*
X120408188Y-81958207D01*
X120415793Y-81958207D01*
X120483914Y-81978209D01*
X120530407Y-82031865D01*
X120541793Y-82084207D01*
X120541793Y-82091812D01*
X120540715Y-82100000D01*
X120541793Y-82108188D01*
X120557419Y-82226878D01*
X120559772Y-82244754D01*
X120562931Y-82252380D01*
X120582448Y-82299497D01*
X120615645Y-82379642D01*
X120652741Y-82427986D01*
X120687610Y-82473428D01*
X120704526Y-82495474D01*
X120711076Y-82500500D01*
X120711079Y-82500503D01*
X120813804Y-82579327D01*
X120820357Y-82584355D01*
X120955246Y-82640228D01*
X121100000Y-82659285D01*
X121108188Y-82658207D01*
X121116446Y-82658207D01*
X121116446Y-82659512D01*
X121178275Y-82669154D01*
X121231374Y-82716282D01*
X121249495Y-82766691D01*
X121255489Y-82812218D01*
X121259772Y-82844754D01*
X121262931Y-82852380D01*
X121298725Y-82938793D01*
X121315645Y-82979642D01*
X121404526Y-83095474D01*
X121411076Y-83100500D01*
X121411079Y-83100503D01*
X121494157Y-83164251D01*
X121520357Y-83184355D01*
X121655246Y-83240228D01*
X121800000Y-83259285D01*
X121808188Y-83258207D01*
X121936566Y-83241306D01*
X121944754Y-83240228D01*
X122079643Y-83184355D01*
X122105843Y-83164251D01*
X122188921Y-83100503D01*
X122188924Y-83100500D01*
X122195474Y-83095474D01*
X122284355Y-82979642D01*
X122301276Y-82938793D01*
X122337069Y-82852380D01*
X122340228Y-82844754D01*
X122344512Y-82812218D01*
X122358207Y-82708188D01*
X122359285Y-82700000D01*
X122344060Y-82584355D01*
X122341306Y-82563432D01*
X122341305Y-82563430D01*
X122340228Y-82555246D01*
X122320422Y-82507430D01*
X122287515Y-82427986D01*
X122287514Y-82427984D01*
X122284355Y-82420358D01*
X122195474Y-82304526D01*
X122188924Y-82299500D01*
X122188921Y-82299497D01*
X122086196Y-82220673D01*
X122086194Y-82220672D01*
X122079643Y-82215645D01*
X121944754Y-82159772D01*
X121800000Y-82140715D01*
X121791812Y-82141793D01*
X121783554Y-82141793D01*
X121783554Y-82140488D01*
X121721725Y-82130846D01*
X121668626Y-82083718D01*
X121650505Y-82033309D01*
X121641306Y-81963432D01*
X121641305Y-81963430D01*
X121640228Y-81955246D01*
X121621681Y-81910471D01*
X151693815Y-81910471D01*
X151729983Y-82176229D01*
X151805035Y-82433721D01*
X151917323Y-82677292D01*
X152064380Y-82901590D01*
X152067489Y-82905073D01*
X152067491Y-82905076D01*
X152186580Y-83038505D01*
X152242974Y-83101689D01*
X152449183Y-83273191D01*
X152678477Y-83412330D01*
X152682791Y-83414139D01*
X152682793Y-83414140D01*
X152921503Y-83514240D01*
X152921508Y-83514242D01*
X152925818Y-83516049D01*
X152930350Y-83517200D01*
X152930353Y-83517201D01*
X153048948Y-83547320D01*
X153185773Y-83582069D01*
X153408537Y-83604500D01*
X153568092Y-83604500D01*
X153570415Y-83604327D01*
X153570425Y-83604327D01*
X153762805Y-83590031D01*
X153762810Y-83590030D01*
X153767470Y-83589684D01*
X153772034Y-83588651D01*
X153772036Y-83588651D01*
X153954691Y-83547320D01*
X154029064Y-83530491D01*
X154039340Y-83526495D01*
X154274683Y-83434975D01*
X154274685Y-83434974D01*
X154279036Y-83433282D01*
X154285092Y-83429821D01*
X154377227Y-83377161D01*
X154511893Y-83300193D01*
X154722521Y-83134148D01*
X154906292Y-82938793D01*
X155059170Y-82718421D01*
X155061238Y-82714228D01*
X155175730Y-82482061D01*
X155175731Y-82482058D01*
X155177795Y-82477873D01*
X155190567Y-82437975D01*
X155258139Y-82226878D01*
X155259562Y-82222433D01*
X155302674Y-81957714D01*
X155306185Y-81689529D01*
X155270017Y-81423771D01*
X155194965Y-81166279D01*
X155082677Y-80922708D01*
X154935620Y-80698410D01*
X154904941Y-80664036D01*
X154760132Y-80501791D01*
X154757026Y-80498311D01*
X154550817Y-80326809D01*
X154321523Y-80187670D01*
X154297657Y-80177662D01*
X154078497Y-80085760D01*
X154078492Y-80085758D01*
X154074182Y-80083951D01*
X154069650Y-80082800D01*
X154069647Y-80082799D01*
X153940250Y-80049937D01*
X153814227Y-80017931D01*
X153591463Y-79995500D01*
X153431908Y-79995500D01*
X153429585Y-79995673D01*
X153429575Y-79995673D01*
X153237195Y-80009969D01*
X153237190Y-80009970D01*
X153232530Y-80010316D01*
X153227966Y-80011349D01*
X153227964Y-80011349D01*
X153087987Y-80043023D01*
X152970936Y-80069509D01*
X152966584Y-80071201D01*
X152966582Y-80071202D01*
X152725317Y-80165025D01*
X152725315Y-80165026D01*
X152720964Y-80166718D01*
X152716910Y-80169035D01*
X152716908Y-80169036D01*
X152634198Y-80216309D01*
X152488107Y-80299807D01*
X152277479Y-80465852D01*
X152093708Y-80661207D01*
X152001529Y-80794082D01*
X151953767Y-80862931D01*
X151940830Y-80881579D01*
X151938763Y-80885769D01*
X151938762Y-80885772D01*
X151876969Y-81011077D01*
X151822205Y-81122127D01*
X151820783Y-81126570D01*
X151820782Y-81126572D01*
X151786950Y-81232265D01*
X151740438Y-81377567D01*
X151697326Y-81642286D01*
X151695570Y-81776379D01*
X151694116Y-81887515D01*
X151693815Y-81910471D01*
X121621681Y-81910471D01*
X121584355Y-81820358D01*
X121495474Y-81704526D01*
X121488924Y-81699500D01*
X121488921Y-81699497D01*
X121386196Y-81620673D01*
X121386194Y-81620672D01*
X121379643Y-81615645D01*
X121244754Y-81559772D01*
X121100000Y-81540715D01*
X121091812Y-81541793D01*
X121084207Y-81541793D01*
X121016086Y-81521791D01*
X120969593Y-81468135D01*
X120958207Y-81415793D01*
X120958207Y-81408188D01*
X120959285Y-81400000D01*
X120943581Y-81280716D01*
X120941306Y-81263432D01*
X120941305Y-81263430D01*
X120940228Y-81255246D01*
X120901614Y-81162025D01*
X120887515Y-81127986D01*
X120887514Y-81127984D01*
X120884355Y-81120358D01*
X120795474Y-81004526D01*
X120788924Y-80999500D01*
X120788921Y-80999497D01*
X120686196Y-80920673D01*
X120686194Y-80920672D01*
X120679643Y-80915645D01*
X120544754Y-80859772D01*
X120400000Y-80840715D01*
X120391812Y-80841793D01*
X120263432Y-80858694D01*
X120263430Y-80858695D01*
X120255246Y-80859772D01*
X120211875Y-80877737D01*
X120127986Y-80912485D01*
X120127984Y-80912486D01*
X120120358Y-80915645D01*
X120004526Y-81004526D01*
X119915645Y-81120358D01*
X119912486Y-81127984D01*
X119912485Y-81127986D01*
X119898386Y-81162025D01*
X119859772Y-81255246D01*
X119858695Y-81263430D01*
X119858694Y-81263432D01*
X119856419Y-81280716D01*
X119840715Y-81400000D01*
X110263088Y-81400000D01*
X110194965Y-81166279D01*
X110082677Y-80922708D01*
X109998346Y-80794082D01*
X118115605Y-80794082D01*
X118116769Y-80802984D01*
X118116769Y-80802987D01*
X118118554Y-80816633D01*
X118133414Y-80930273D01*
X118188732Y-81055992D01*
X118194510Y-81062865D01*
X118194510Y-81062866D01*
X118242837Y-81120358D01*
X118277111Y-81161132D01*
X118391447Y-81237240D01*
X118522549Y-81278199D01*
X118659876Y-81280716D01*
X118669109Y-81278199D01*
X118783727Y-81246951D01*
X118792391Y-81244589D01*
X118909439Y-81172721D01*
X118951211Y-81126572D01*
X118995584Y-81077550D01*
X118995585Y-81077549D01*
X119001612Y-81070890D01*
X119061499Y-80947283D01*
X119084286Y-80811836D01*
X119084431Y-80800000D01*
X119083584Y-80794082D01*
X119066232Y-80672923D01*
X119066232Y-80672921D01*
X119064959Y-80664036D01*
X119008110Y-80539003D01*
X118918453Y-80434951D01*
X118803196Y-80360244D01*
X118671603Y-80320890D01*
X118662627Y-80320835D01*
X118662626Y-80320835D01*
X118605080Y-80320484D01*
X118534255Y-80320051D01*
X118402192Y-80357795D01*
X118394605Y-80362582D01*
X118394603Y-80362583D01*
X118332850Y-80401546D01*
X118286031Y-80431087D01*
X118195109Y-80534036D01*
X118136736Y-80658366D01*
X118131044Y-80694924D01*
X118116986Y-80785209D01*
X118116986Y-80785213D01*
X118115605Y-80794082D01*
X109998346Y-80794082D01*
X109935620Y-80698410D01*
X109904941Y-80664036D01*
X109760132Y-80501791D01*
X109757026Y-80498311D01*
X109550817Y-80326809D01*
X109321523Y-80187670D01*
X109297657Y-80177662D01*
X109078497Y-80085760D01*
X109078492Y-80085758D01*
X109074182Y-80083951D01*
X109069650Y-80082800D01*
X109069647Y-80082799D01*
X108940250Y-80049937D01*
X108814227Y-80017931D01*
X108591463Y-79995500D01*
X108431908Y-79995500D01*
X108429585Y-79995673D01*
X108429575Y-79995673D01*
X108237195Y-80009969D01*
X108237190Y-80009970D01*
X108232530Y-80010316D01*
X108227966Y-80011349D01*
X108227964Y-80011349D01*
X108087987Y-80043023D01*
X107970936Y-80069509D01*
X107966584Y-80071201D01*
X107966582Y-80071202D01*
X107725317Y-80165025D01*
X107725315Y-80165026D01*
X107720964Y-80166718D01*
X107716910Y-80169035D01*
X107716908Y-80169036D01*
X107634198Y-80216309D01*
X107488107Y-80299807D01*
X107277479Y-80465852D01*
X107093708Y-80661207D01*
X107001529Y-80794082D01*
X106953767Y-80862931D01*
X106940830Y-80881579D01*
X106938763Y-80885769D01*
X106938762Y-80885772D01*
X106876969Y-81011077D01*
X106822205Y-81122127D01*
X106820783Y-81126570D01*
X106820782Y-81126572D01*
X106786950Y-81232265D01*
X106740438Y-81377567D01*
X106697326Y-81642286D01*
X106695570Y-81776379D01*
X106694116Y-81887515D01*
X106693815Y-81910471D01*
X105782307Y-81910471D01*
X105783219Y-78938664D01*
X105803241Y-78870552D01*
X105856911Y-78824075D01*
X105927188Y-78813993D01*
X105991048Y-78842893D01*
X106013420Y-78862000D01*
X106021392Y-78867792D01*
X106232121Y-78996927D01*
X106240915Y-79001408D01*
X106469242Y-79095984D01*
X106478627Y-79099033D01*
X106718940Y-79156728D01*
X106728687Y-79158271D01*
X106975070Y-79177662D01*
X106984930Y-79177662D01*
X107231313Y-79158271D01*
X107241060Y-79156728D01*
X107481373Y-79099033D01*
X107490758Y-79095984D01*
X107719085Y-79001408D01*
X107727879Y-78996927D01*
X107933928Y-78870660D01*
X107937968Y-78864471D01*
X111100884Y-78864471D01*
X111104570Y-78869740D01*
X111312121Y-78996927D01*
X111320915Y-79001408D01*
X111549242Y-79095984D01*
X111558627Y-79099033D01*
X111798940Y-79156728D01*
X111808687Y-79158271D01*
X112055070Y-79177662D01*
X112064930Y-79177662D01*
X112311313Y-79158271D01*
X112321060Y-79156728D01*
X112561373Y-79099033D01*
X112570758Y-79095984D01*
X112799085Y-79001408D01*
X112807879Y-78996927D01*
X112826800Y-78985332D01*
X121506855Y-78985332D01*
X121508019Y-78994234D01*
X121508019Y-78994237D01*
X121509804Y-79007883D01*
X121524664Y-79121523D01*
X121579982Y-79247242D01*
X121668361Y-79352382D01*
X121782697Y-79428490D01*
X121913799Y-79469449D01*
X122051126Y-79471966D01*
X122060359Y-79469449D01*
X122174977Y-79438201D01*
X122183641Y-79435839D01*
X122252756Y-79393402D01*
X137669941Y-79393402D01*
X137686554Y-79543883D01*
X137738582Y-79686057D01*
X137742819Y-79692363D01*
X137742821Y-79692366D01*
X137781412Y-79749794D01*
X137823022Y-79811716D01*
X137934998Y-79913607D01*
X137941675Y-79917232D01*
X137941676Y-79917233D01*
X138061370Y-79982222D01*
X138061372Y-79982223D01*
X138068047Y-79985847D01*
X138075396Y-79987775D01*
X138207136Y-80022336D01*
X138207138Y-80022336D01*
X138214486Y-80024264D01*
X138294562Y-80025522D01*
X138358266Y-80026523D01*
X138358269Y-80026523D01*
X138365863Y-80026642D01*
X138513437Y-79992843D01*
X138580731Y-79958998D01*
X138641906Y-79928231D01*
X138641909Y-79928229D01*
X138648689Y-79924819D01*
X138719346Y-79864471D01*
X149300884Y-79864471D01*
X149304570Y-79869740D01*
X149512121Y-79996927D01*
X149520915Y-80001408D01*
X149749242Y-80095984D01*
X149758627Y-80099033D01*
X149998940Y-80156728D01*
X150008687Y-80158271D01*
X150255070Y-80177662D01*
X150264930Y-80177662D01*
X150511313Y-80158271D01*
X150521060Y-80156728D01*
X150761373Y-80099033D01*
X150770758Y-80095984D01*
X150999085Y-80001408D01*
X151007879Y-79996927D01*
X151213928Y-79870660D01*
X151219190Y-79862599D01*
X151213183Y-79852393D01*
X150272812Y-78912022D01*
X150258868Y-78904408D01*
X150257035Y-78904539D01*
X150250420Y-78908790D01*
X149308276Y-79850934D01*
X149300884Y-79864471D01*
X138719346Y-79864471D01*
X138763810Y-79826495D01*
X138852156Y-79703550D01*
X138908624Y-79563080D01*
X138929956Y-79413196D01*
X138930094Y-79400000D01*
X138911906Y-79249701D01*
X138872952Y-79146612D01*
X138861076Y-79115182D01*
X138861075Y-79115179D01*
X138858392Y-79108080D01*
X138772640Y-78983311D01*
X138659603Y-78882599D01*
X138652897Y-78879048D01*
X138652895Y-78879047D01*
X138581967Y-78841493D01*
X138525805Y-78811757D01*
X138378972Y-78774874D01*
X138371374Y-78774834D01*
X138371372Y-78774834D01*
X138306775Y-78774496D01*
X138227579Y-78774082D01*
X138220200Y-78775854D01*
X138220196Y-78775854D01*
X138087746Y-78807652D01*
X138087742Y-78807653D01*
X138080367Y-78809424D01*
X138073622Y-78812905D01*
X138073623Y-78812905D01*
X137963507Y-78869740D01*
X137945835Y-78878861D01*
X137940113Y-78883853D01*
X137940111Y-78883854D01*
X137837474Y-78973390D01*
X137837471Y-78973393D01*
X137831749Y-78978385D01*
X137744696Y-79102249D01*
X137689702Y-79243302D01*
X137687867Y-79257241D01*
X137673816Y-79363971D01*
X137669941Y-79393402D01*
X122252756Y-79393402D01*
X122300689Y-79363971D01*
X122392862Y-79262140D01*
X122405418Y-79236226D01*
X122448835Y-79146612D01*
X122448835Y-79146611D01*
X122452749Y-79138533D01*
X122475536Y-79003086D01*
X122475681Y-78991250D01*
X122474834Y-78985332D01*
X122457482Y-78864173D01*
X122457482Y-78864171D01*
X122456209Y-78855286D01*
X122399360Y-78730253D01*
X122309703Y-78626201D01*
X122194446Y-78551494D01*
X122172497Y-78544930D01*
X148622338Y-78544930D01*
X148641729Y-78791313D01*
X148643272Y-78801060D01*
X148700967Y-79041373D01*
X148704016Y-79050758D01*
X148798592Y-79279085D01*
X148803073Y-79287879D01*
X148929340Y-79493928D01*
X148937401Y-79499190D01*
X148947607Y-79493183D01*
X149887978Y-78552812D01*
X149894356Y-78541132D01*
X150624408Y-78541132D01*
X150624539Y-78542965D01*
X150628790Y-78549580D01*
X151570934Y-79491724D01*
X151584471Y-79499116D01*
X151589740Y-79495430D01*
X151716927Y-79287879D01*
X151721408Y-79279085D01*
X151815984Y-79050758D01*
X151819033Y-79041373D01*
X151876728Y-78801060D01*
X151878271Y-78791313D01*
X151897662Y-78544930D01*
X153702338Y-78544930D01*
X153721729Y-78791313D01*
X153723272Y-78801060D01*
X153780967Y-79041373D01*
X153784016Y-79050758D01*
X153878592Y-79279085D01*
X153883073Y-79287879D01*
X154009340Y-79493928D01*
X154017401Y-79499190D01*
X154027607Y-79493183D01*
X154967978Y-78552812D01*
X154975592Y-78538868D01*
X154975461Y-78537035D01*
X154971210Y-78530420D01*
X154029066Y-77588276D01*
X154015529Y-77580884D01*
X154010260Y-77584570D01*
X153883073Y-77792121D01*
X153878592Y-77800915D01*
X153784016Y-78029242D01*
X153780967Y-78038627D01*
X153723272Y-78278940D01*
X153721729Y-78288687D01*
X153702338Y-78535070D01*
X153702338Y-78544930D01*
X151897662Y-78544930D01*
X151897662Y-78535070D01*
X151878271Y-78288687D01*
X151876728Y-78278940D01*
X151819033Y-78038627D01*
X151815984Y-78029242D01*
X151721408Y-77800915D01*
X151716927Y-77792121D01*
X151590660Y-77586072D01*
X151582599Y-77580810D01*
X151572393Y-77586817D01*
X150632022Y-78527188D01*
X150624408Y-78541132D01*
X149894356Y-78541132D01*
X149895592Y-78538868D01*
X149895461Y-78537035D01*
X149891210Y-78530420D01*
X148949066Y-77588276D01*
X148935529Y-77580884D01*
X148930260Y-77584570D01*
X148803073Y-77792121D01*
X148798592Y-77800915D01*
X148704016Y-78029242D01*
X148700967Y-78038627D01*
X148643272Y-78278940D01*
X148641729Y-78288687D01*
X148622338Y-78535070D01*
X148622338Y-78544930D01*
X122172497Y-78544930D01*
X122062853Y-78512140D01*
X122053877Y-78512085D01*
X122053876Y-78512085D01*
X121996330Y-78511734D01*
X121925505Y-78511301D01*
X121793442Y-78549045D01*
X121785855Y-78553832D01*
X121785853Y-78553833D01*
X121737991Y-78584032D01*
X121677281Y-78622337D01*
X121671338Y-78629066D01*
X121667861Y-78633003D01*
X121586359Y-78725286D01*
X121527986Y-78849616D01*
X121518773Y-78908790D01*
X121508236Y-78976459D01*
X121508236Y-78976463D01*
X121506855Y-78985332D01*
X112826800Y-78985332D01*
X113013928Y-78870660D01*
X113019190Y-78862599D01*
X113013183Y-78852393D01*
X112072812Y-77912022D01*
X112058868Y-77904408D01*
X112057035Y-77904539D01*
X112050420Y-77908790D01*
X111108276Y-78850934D01*
X111100884Y-78864471D01*
X107937968Y-78864471D01*
X107939190Y-78862599D01*
X107933183Y-78852393D01*
X106709885Y-77629095D01*
X106675859Y-77566783D01*
X106677694Y-77541132D01*
X107344408Y-77541132D01*
X107344539Y-77542965D01*
X107348790Y-77549580D01*
X108290934Y-78491724D01*
X108304471Y-78499116D01*
X108309740Y-78495430D01*
X108436927Y-78287879D01*
X108441408Y-78279085D01*
X108535984Y-78050758D01*
X108539033Y-78041373D01*
X108596728Y-77801060D01*
X108598271Y-77791313D01*
X108617662Y-77544930D01*
X110422338Y-77544930D01*
X110441729Y-77791313D01*
X110443272Y-77801060D01*
X110500967Y-78041373D01*
X110504016Y-78050758D01*
X110598592Y-78279085D01*
X110603073Y-78287879D01*
X110729340Y-78493928D01*
X110737401Y-78499190D01*
X110747607Y-78493183D01*
X111687978Y-77552812D01*
X111694356Y-77541132D01*
X112424408Y-77541132D01*
X112424539Y-77542965D01*
X112428790Y-77549580D01*
X113370934Y-78491724D01*
X113384471Y-78499116D01*
X113389740Y-78495430D01*
X113516927Y-78287879D01*
X113521408Y-78279085D01*
X113615984Y-78050758D01*
X113619033Y-78041373D01*
X113676728Y-77801060D01*
X113678271Y-77791313D01*
X113697662Y-77544930D01*
X113697662Y-77535070D01*
X113678271Y-77288687D01*
X113676728Y-77278940D01*
X113661954Y-77217401D01*
X149300810Y-77217401D01*
X149306817Y-77227607D01*
X150247188Y-78167978D01*
X150261132Y-78175592D01*
X150262965Y-78175461D01*
X150269580Y-78171210D01*
X151211724Y-77229066D01*
X151219116Y-77215529D01*
X151215430Y-77210260D01*
X151007879Y-77083073D01*
X150999085Y-77078592D01*
X150770758Y-76984016D01*
X150761373Y-76980967D01*
X150521060Y-76923272D01*
X150511313Y-76921729D01*
X150264930Y-76902338D01*
X150255070Y-76902338D01*
X150008687Y-76921729D01*
X149998940Y-76923272D01*
X149758627Y-76980967D01*
X149749242Y-76984016D01*
X149520915Y-77078592D01*
X149512121Y-77083073D01*
X149306072Y-77209340D01*
X149300810Y-77217401D01*
X113661954Y-77217401D01*
X113619033Y-77038627D01*
X113615984Y-77029242D01*
X113521408Y-76800915D01*
X113516927Y-76792121D01*
X113390660Y-76586072D01*
X113382599Y-76580810D01*
X113372393Y-76586817D01*
X112432022Y-77527188D01*
X112424408Y-77541132D01*
X111694356Y-77541132D01*
X111695592Y-77538868D01*
X111695461Y-77537035D01*
X111691210Y-77530420D01*
X110749066Y-76588276D01*
X110735529Y-76580884D01*
X110730260Y-76584570D01*
X110603073Y-76792121D01*
X110598592Y-76800915D01*
X110504016Y-77029242D01*
X110500967Y-77038627D01*
X110443272Y-77278940D01*
X110441729Y-77288687D01*
X110422338Y-77535070D01*
X110422338Y-77544930D01*
X108617662Y-77544930D01*
X108617662Y-77535070D01*
X108598271Y-77288687D01*
X108596728Y-77278940D01*
X108539033Y-77038627D01*
X108535984Y-77029242D01*
X108441408Y-76800915D01*
X108436927Y-76792121D01*
X108310660Y-76586072D01*
X108302599Y-76580810D01*
X108292393Y-76586817D01*
X107352022Y-77527188D01*
X107344408Y-77541132D01*
X106677694Y-77541132D01*
X106680924Y-77495968D01*
X106709885Y-77450905D01*
X107931724Y-76229066D01*
X107939116Y-76215529D01*
X107935430Y-76210260D01*
X107727879Y-76083073D01*
X107719085Y-76078592D01*
X107490758Y-75984016D01*
X107481373Y-75980967D01*
X107241060Y-75923272D01*
X107231313Y-75921729D01*
X106984930Y-75902338D01*
X106975070Y-75902338D01*
X106728687Y-75921729D01*
X106718940Y-75923272D01*
X106478627Y-75980967D01*
X106469242Y-75984016D01*
X106240915Y-76078592D01*
X106232121Y-76083073D01*
X106021392Y-76212208D01*
X106013411Y-76218006D01*
X105991908Y-76236372D01*
X105927119Y-76265404D01*
X105856919Y-76254799D01*
X105803596Y-76207925D01*
X105784077Y-76140523D01*
X105784427Y-75000000D01*
X107989783Y-75000000D01*
X108008623Y-75239379D01*
X108009777Y-75244186D01*
X108009778Y-75244192D01*
X108027083Y-75316272D01*
X108064677Y-75472863D01*
X108066570Y-75477434D01*
X108066571Y-75477436D01*
X108152468Y-75684807D01*
X108156567Y-75694704D01*
X108282028Y-75899439D01*
X108285239Y-75903199D01*
X108285243Y-75903204D01*
X108380104Y-76014271D01*
X108437973Y-76082027D01*
X108441735Y-76085240D01*
X108616796Y-76234757D01*
X108616801Y-76234761D01*
X108620561Y-76237972D01*
X108825296Y-76363433D01*
X108829866Y-76365326D01*
X108829870Y-76365328D01*
X109042564Y-76453429D01*
X109042566Y-76453430D01*
X109047137Y-76455323D01*
X109127340Y-76474578D01*
X109275808Y-76510222D01*
X109275814Y-76510223D01*
X109280621Y-76511377D01*
X109520000Y-76530217D01*
X109759379Y-76511377D01*
X109764186Y-76510223D01*
X109764192Y-76510222D01*
X109912660Y-76474578D01*
X109992863Y-76455323D01*
X109997434Y-76453430D01*
X109997436Y-76453429D01*
X110210130Y-76365328D01*
X110210134Y-76365326D01*
X110214704Y-76363433D01*
X110419439Y-76237972D01*
X110423199Y-76234761D01*
X110423204Y-76234757D01*
X110443525Y-76217401D01*
X111100810Y-76217401D01*
X111106817Y-76227607D01*
X112047188Y-77167978D01*
X112061132Y-77175592D01*
X112062965Y-77175461D01*
X112069580Y-77171210D01*
X113011724Y-76229066D01*
X113019116Y-76215529D01*
X113015430Y-76210260D01*
X112807879Y-76083073D01*
X112799085Y-76078592D01*
X112595060Y-75994082D01*
X117415605Y-75994082D01*
X117416769Y-76002984D01*
X117416769Y-76002987D01*
X117417970Y-76012169D01*
X117433414Y-76130273D01*
X117447665Y-76162660D01*
X117474546Y-76223751D01*
X117488732Y-76255992D01*
X117494510Y-76262865D01*
X117494510Y-76262866D01*
X117571331Y-76354256D01*
X117577111Y-76361132D01*
X117691447Y-76437240D01*
X117822549Y-76478199D01*
X117959876Y-76480716D01*
X117969109Y-76478199D01*
X118083727Y-76446951D01*
X118092391Y-76444589D01*
X118209439Y-76372721D01*
X118256953Y-76320228D01*
X118317496Y-76283148D01*
X118388476Y-76284686D01*
X118446818Y-76323710D01*
X118472495Y-76354256D01*
X118484409Y-76368430D01*
X118491886Y-76373407D01*
X118582031Y-76433412D01*
X118598745Y-76444538D01*
X118694928Y-76474588D01*
X118714016Y-76480551D01*
X118729847Y-76485497D01*
X118867174Y-76488014D01*
X118876407Y-76485497D01*
X118991025Y-76454249D01*
X118999689Y-76451887D01*
X119100317Y-76390101D01*
X119109089Y-76384715D01*
X119116737Y-76380019D01*
X119140057Y-76354256D01*
X119202882Y-76284848D01*
X119202883Y-76284847D01*
X119208910Y-76278188D01*
X119216334Y-76262866D01*
X119264883Y-76162660D01*
X119264883Y-76162659D01*
X119268797Y-76154581D01*
X119291584Y-76019134D01*
X119291729Y-76007298D01*
X119290204Y-75996646D01*
X119283086Y-75946943D01*
X120068466Y-75946943D01*
X120069630Y-75955845D01*
X120069630Y-75955848D01*
X120075844Y-76003364D01*
X120086275Y-76083134D01*
X120141593Y-76208853D01*
X120147371Y-76215726D01*
X120147371Y-76215727D01*
X120199875Y-76278188D01*
X120229972Y-76313993D01*
X120237449Y-76318970D01*
X120308201Y-76366066D01*
X120344308Y-76390101D01*
X120475410Y-76431060D01*
X120612737Y-76433577D01*
X120621970Y-76431060D01*
X120736588Y-76399812D01*
X120745252Y-76397450D01*
X120862300Y-76325582D01*
X120913107Y-76269451D01*
X120973650Y-76232371D01*
X121044630Y-76233909D01*
X121102972Y-76272933D01*
X121171331Y-76354256D01*
X121177111Y-76361132D01*
X121291447Y-76437240D01*
X121422549Y-76478199D01*
X121559876Y-76480716D01*
X121569109Y-76478199D01*
X121683727Y-76446951D01*
X121692391Y-76444589D01*
X121809439Y-76372721D01*
X121853802Y-76323710D01*
X121895584Y-76277550D01*
X121895585Y-76277549D01*
X121901612Y-76270890D01*
X121919119Y-76234757D01*
X121957585Y-76155362D01*
X121957585Y-76155361D01*
X121961499Y-76147283D01*
X121984286Y-76011836D01*
X121984431Y-76000000D01*
X121983584Y-75994082D01*
X121979588Y-75966180D01*
X151416185Y-75966180D01*
X151416482Y-75971332D01*
X151416482Y-75971336D01*
X151426238Y-76140523D01*
X151429243Y-76192647D01*
X151430380Y-76197693D01*
X151430381Y-76197699D01*
X151449638Y-76283148D01*
X151479114Y-76413941D01*
X151481056Y-76418723D01*
X151481057Y-76418727D01*
X151549009Y-76586072D01*
X151564458Y-76624117D01*
X151621456Y-76717130D01*
X151672800Y-76800915D01*
X151682983Y-76817533D01*
X151831506Y-76988993D01*
X152006039Y-77133893D01*
X152201895Y-77248342D01*
X152206715Y-77250182D01*
X152206720Y-77250185D01*
X152341747Y-77301746D01*
X152413813Y-77329265D01*
X152418881Y-77330296D01*
X152418884Y-77330297D01*
X152527980Y-77352493D01*
X152636102Y-77374491D01*
X152641275Y-77374681D01*
X152641278Y-77374681D01*
X152857629Y-77382614D01*
X152857633Y-77382614D01*
X152862793Y-77382803D01*
X152867913Y-77382147D01*
X152867915Y-77382147D01*
X152939143Y-77373022D01*
X153087797Y-77353979D01*
X153092746Y-77352494D01*
X153092752Y-77352493D01*
X153261901Y-77301746D01*
X153305073Y-77288794D01*
X153508784Y-77188996D01*
X153512988Y-77185998D01*
X153512992Y-77185995D01*
X153657283Y-77083073D01*
X153693461Y-77057268D01*
X153854143Y-76897146D01*
X153911351Y-76817533D01*
X153983497Y-76717130D01*
X153986515Y-76712930D01*
X154049213Y-76586072D01*
X154084729Y-76514210D01*
X154084730Y-76514208D01*
X154087023Y-76509568D01*
X154152966Y-76292522D01*
X154155814Y-76270890D01*
X154182138Y-76070941D01*
X154182139Y-76070935D01*
X154182575Y-76067619D01*
X154183760Y-76019134D01*
X154184146Y-76003364D01*
X154184146Y-76003360D01*
X154184228Y-76000000D01*
X154165641Y-75773920D01*
X154110378Y-75553911D01*
X154019925Y-75345882D01*
X153896710Y-75155420D01*
X153869158Y-75125140D01*
X153747519Y-74991462D01*
X153747518Y-74991461D01*
X153744041Y-74987640D01*
X153739990Y-74984441D01*
X153739986Y-74984437D01*
X153570075Y-74850249D01*
X153570071Y-74850247D01*
X153566020Y-74847047D01*
X153367427Y-74737418D01*
X153362558Y-74735694D01*
X153362554Y-74735692D01*
X153158470Y-74663422D01*
X153158466Y-74663421D01*
X153153595Y-74661696D01*
X153148502Y-74660789D01*
X153148499Y-74660788D01*
X152935356Y-74622821D01*
X152935350Y-74622820D01*
X152930267Y-74621915D01*
X152856724Y-74621017D01*
X152708611Y-74619207D01*
X152708609Y-74619207D01*
X152703441Y-74619144D01*
X152479208Y-74653456D01*
X152345453Y-74697174D01*
X152268509Y-74722323D01*
X152268507Y-74722324D01*
X152263590Y-74723931D01*
X152259004Y-74726318D01*
X152259000Y-74726320D01*
X152075058Y-74822075D01*
X152062378Y-74828676D01*
X152058236Y-74831786D01*
X151944839Y-74916927D01*
X151880975Y-74964877D01*
X151724253Y-75128877D01*
X151721339Y-75133149D01*
X151721338Y-75133150D01*
X151599340Y-75311992D01*
X151599337Y-75311997D01*
X151596421Y-75316272D01*
X151594242Y-75320967D01*
X151503969Y-75515444D01*
X151500912Y-75522029D01*
X151440290Y-75740622D01*
X151416185Y-75966180D01*
X121979588Y-75966180D01*
X121966232Y-75872923D01*
X121966232Y-75872921D01*
X121964959Y-75864036D01*
X121908110Y-75739003D01*
X121818453Y-75634951D01*
X121703196Y-75560244D01*
X121571603Y-75520890D01*
X121562627Y-75520835D01*
X121562626Y-75520835D01*
X121505080Y-75520484D01*
X121434255Y-75520051D01*
X121302192Y-75557795D01*
X121294605Y-75562582D01*
X121294603Y-75562583D01*
X121260742Y-75583948D01*
X121186031Y-75631087D01*
X121180089Y-75637815D01*
X121141218Y-75681828D01*
X121081132Y-75719646D01*
X121010139Y-75718976D01*
X120951324Y-75680668D01*
X120877175Y-75594614D01*
X120871314Y-75587812D01*
X120756057Y-75513105D01*
X120624464Y-75473751D01*
X120615488Y-75473696D01*
X120615487Y-75473696D01*
X120557941Y-75473345D01*
X120487116Y-75472912D01*
X120355053Y-75510656D01*
X120347466Y-75515443D01*
X120347464Y-75515444D01*
X120327266Y-75528188D01*
X120238892Y-75583948D01*
X120147970Y-75686897D01*
X120144156Y-75695020D01*
X120144155Y-75695022D01*
X120116242Y-75754475D01*
X120089597Y-75811227D01*
X120081511Y-75863163D01*
X120069847Y-75938070D01*
X120069847Y-75938074D01*
X120068466Y-75946943D01*
X119283086Y-75946943D01*
X119273530Y-75880221D01*
X119273530Y-75880219D01*
X119272257Y-75871334D01*
X119215408Y-75746301D01*
X119125751Y-75642249D01*
X119010494Y-75567542D01*
X118878901Y-75528188D01*
X118869925Y-75528133D01*
X118869924Y-75528133D01*
X118812378Y-75527782D01*
X118741553Y-75527349D01*
X118609490Y-75565093D01*
X118601903Y-75569880D01*
X118601901Y-75569881D01*
X118573482Y-75587812D01*
X118493329Y-75638385D01*
X118456427Y-75680169D01*
X118451306Y-75685967D01*
X118391220Y-75723785D01*
X118320227Y-75723115D01*
X118261412Y-75684807D01*
X118224314Y-75641753D01*
X118218453Y-75634951D01*
X118103196Y-75560244D01*
X117971603Y-75520890D01*
X117962627Y-75520835D01*
X117962626Y-75520835D01*
X117905080Y-75520484D01*
X117834255Y-75520051D01*
X117702192Y-75557795D01*
X117694605Y-75562582D01*
X117694603Y-75562583D01*
X117660742Y-75583948D01*
X117586031Y-75631087D01*
X117580089Y-75637815D01*
X117580088Y-75637816D01*
X117570166Y-75649051D01*
X117495109Y-75734036D01*
X117491295Y-75742159D01*
X117491294Y-75742161D01*
X117488939Y-75747177D01*
X117436736Y-75858366D01*
X117429890Y-75902338D01*
X117416986Y-75985209D01*
X117416986Y-75985213D01*
X117415605Y-75994082D01*
X112595060Y-75994082D01*
X112570758Y-75984016D01*
X112561373Y-75980967D01*
X112321060Y-75923272D01*
X112311313Y-75921729D01*
X112064930Y-75902338D01*
X112055070Y-75902338D01*
X111808687Y-75921729D01*
X111798940Y-75923272D01*
X111558627Y-75980967D01*
X111549242Y-75984016D01*
X111320915Y-76078592D01*
X111312121Y-76083073D01*
X111106072Y-76209340D01*
X111100810Y-76217401D01*
X110443525Y-76217401D01*
X110598265Y-76085240D01*
X110602027Y-76082027D01*
X110659896Y-76014271D01*
X110754757Y-75903204D01*
X110754761Y-75903199D01*
X110757972Y-75899439D01*
X110883433Y-75694704D01*
X110887533Y-75684807D01*
X110973429Y-75477436D01*
X110973430Y-75477434D01*
X110975323Y-75472863D01*
X111012917Y-75316272D01*
X111030222Y-75244192D01*
X111030223Y-75244186D01*
X111031377Y-75239379D01*
X111050217Y-75000000D01*
X111033254Y-74784471D01*
X149300884Y-74784471D01*
X149304570Y-74789740D01*
X149512121Y-74916927D01*
X149520915Y-74921408D01*
X149749242Y-75015984D01*
X149758627Y-75019033D01*
X149998940Y-75076728D01*
X150008687Y-75078271D01*
X150255070Y-75097662D01*
X150264930Y-75097662D01*
X150511313Y-75078271D01*
X150521060Y-75076728D01*
X150761373Y-75019033D01*
X150770758Y-75015984D01*
X150999085Y-74921408D01*
X151007879Y-74916927D01*
X151213928Y-74790660D01*
X151219190Y-74782599D01*
X151213183Y-74772393D01*
X150272812Y-73832022D01*
X150258868Y-73824408D01*
X150257035Y-73824539D01*
X150250420Y-73828790D01*
X149308276Y-74770934D01*
X149300884Y-74784471D01*
X111033254Y-74784471D01*
X111031377Y-74760621D01*
X111029945Y-74754653D01*
X110976478Y-74531949D01*
X110975323Y-74527137D01*
X110930579Y-74419116D01*
X110885328Y-74309870D01*
X110885326Y-74309866D01*
X110883433Y-74305296D01*
X110757972Y-74100561D01*
X110754761Y-74096801D01*
X110754757Y-74096796D01*
X110605240Y-73921735D01*
X110602027Y-73917973D01*
X110505864Y-73835842D01*
X110445717Y-73784471D01*
X111100884Y-73784471D01*
X111104570Y-73789740D01*
X111312121Y-73916927D01*
X111320915Y-73921408D01*
X111549242Y-74015984D01*
X111558627Y-74019033D01*
X111798940Y-74076728D01*
X111808687Y-74078271D01*
X112055070Y-74097662D01*
X112064930Y-74097662D01*
X112311313Y-74078271D01*
X112321060Y-74076728D01*
X112561373Y-74019033D01*
X112570758Y-74015984D01*
X112799085Y-73921408D01*
X112807879Y-73916927D01*
X113013928Y-73790660D01*
X113019190Y-73782599D01*
X113013183Y-73772393D01*
X112779708Y-73538918D01*
X117120769Y-73538918D01*
X117121933Y-73547820D01*
X117121933Y-73547823D01*
X117129673Y-73607013D01*
X117138578Y-73675109D01*
X117154508Y-73711313D01*
X117175687Y-73759444D01*
X117193896Y-73800828D01*
X117199674Y-73807701D01*
X117199674Y-73807702D01*
X117264825Y-73885209D01*
X117282275Y-73905968D01*
X117396611Y-73982076D01*
X117527713Y-74023035D01*
X117665040Y-74025552D01*
X117674273Y-74023035D01*
X117788891Y-73991787D01*
X117797555Y-73989425D01*
X117914603Y-73917557D01*
X117935852Y-73894082D01*
X144015605Y-73894082D01*
X144016769Y-73902984D01*
X144016769Y-73902987D01*
X144024404Y-73961373D01*
X144033414Y-74030273D01*
X144088732Y-74155992D01*
X144177111Y-74261132D01*
X144291447Y-74337240D01*
X144422549Y-74378199D01*
X144559876Y-74380716D01*
X144569109Y-74378199D01*
X144683727Y-74346951D01*
X144692391Y-74344589D01*
X144809439Y-74272721D01*
X144901612Y-74170890D01*
X144946486Y-74078271D01*
X144957585Y-74055362D01*
X144957585Y-74055361D01*
X144961499Y-74047283D01*
X144976734Y-73956722D01*
X144983479Y-73916633D01*
X144984286Y-73911836D01*
X144984395Y-73902987D01*
X144984431Y-73900000D01*
X144985533Y-73900013D01*
X144999923Y-73835842D01*
X145050446Y-73785962D01*
X145076980Y-73775372D01*
X145189891Y-73744589D01*
X145306939Y-73672721D01*
X145334601Y-73642161D01*
X145393084Y-73577550D01*
X145393085Y-73577549D01*
X145399112Y-73570890D01*
X145403677Y-73561469D01*
X145450449Y-73464930D01*
X148622338Y-73464930D01*
X148641729Y-73711313D01*
X148643272Y-73721060D01*
X148700967Y-73961373D01*
X148704016Y-73970758D01*
X148798592Y-74199085D01*
X148803073Y-74207879D01*
X148929340Y-74413928D01*
X148937401Y-74419190D01*
X148947607Y-74413183D01*
X149887978Y-73472812D01*
X149894356Y-73461132D01*
X150624408Y-73461132D01*
X150624539Y-73462965D01*
X150628790Y-73469580D01*
X151570934Y-74411724D01*
X151584471Y-74419116D01*
X151589740Y-74415430D01*
X151716927Y-74207879D01*
X151721408Y-74199085D01*
X151815984Y-73970758D01*
X151819033Y-73961373D01*
X151876728Y-73721060D01*
X151878271Y-73711313D01*
X151897662Y-73464930D01*
X153702338Y-73464930D01*
X153721729Y-73711313D01*
X153723272Y-73721060D01*
X153780967Y-73961373D01*
X153784016Y-73970758D01*
X153878592Y-74199085D01*
X153883073Y-74207879D01*
X154009340Y-74413928D01*
X154017401Y-74419190D01*
X154027607Y-74413183D01*
X154967978Y-73472812D01*
X154975592Y-73458868D01*
X154975461Y-73457035D01*
X154971210Y-73450420D01*
X154029066Y-72508276D01*
X154015529Y-72500884D01*
X154010260Y-72504570D01*
X153883073Y-72712121D01*
X153878592Y-72720915D01*
X153784016Y-72949242D01*
X153780967Y-72958627D01*
X153723272Y-73198940D01*
X153721729Y-73208687D01*
X153702338Y-73455070D01*
X153702338Y-73464930D01*
X151897662Y-73464930D01*
X151897662Y-73455070D01*
X151878271Y-73208687D01*
X151876728Y-73198940D01*
X151819033Y-72958627D01*
X151815984Y-72949242D01*
X151721408Y-72720915D01*
X151716927Y-72712121D01*
X151590660Y-72506072D01*
X151582599Y-72500810D01*
X151572393Y-72506817D01*
X150632022Y-73447188D01*
X150624408Y-73461132D01*
X149894356Y-73461132D01*
X149895592Y-73458868D01*
X149895461Y-73457035D01*
X149891210Y-73450420D01*
X148949066Y-72508276D01*
X148935529Y-72500884D01*
X148930260Y-72504570D01*
X148803073Y-72712121D01*
X148798592Y-72720915D01*
X148704016Y-72949242D01*
X148700967Y-72958627D01*
X148643272Y-73198940D01*
X148641729Y-73208687D01*
X148622338Y-73455070D01*
X148622338Y-73464930D01*
X145450449Y-73464930D01*
X145455085Y-73455362D01*
X145455085Y-73455361D01*
X145458999Y-73447283D01*
X145481786Y-73311836D01*
X145481931Y-73300000D01*
X145481084Y-73294082D01*
X145463732Y-73172925D01*
X145462459Y-73164036D01*
X145458743Y-73155863D01*
X145456714Y-73148924D01*
X145456762Y-73106008D01*
X145434514Y-73091269D01*
X145416174Y-73062237D01*
X145409328Y-73047179D01*
X145409326Y-73047176D01*
X145405610Y-73039003D01*
X145315953Y-72934951D01*
X145287692Y-72916633D01*
X145223905Y-72875287D01*
X145202396Y-72850268D01*
X145166059Y-72849885D01*
X145077708Y-72823463D01*
X145077705Y-72823463D01*
X145069103Y-72820890D01*
X145060127Y-72820835D01*
X145060126Y-72820835D01*
X145002580Y-72820484D01*
X144931755Y-72820051D01*
X144799692Y-72857795D01*
X144792105Y-72862582D01*
X144792103Y-72862583D01*
X144740453Y-72895172D01*
X144683531Y-72931087D01*
X144677588Y-72937816D01*
X144604921Y-73020095D01*
X144592609Y-73034036D01*
X144588795Y-73042159D01*
X144588794Y-73042161D01*
X144567283Y-73087978D01*
X144534236Y-73158366D01*
X144531249Y-73177550D01*
X144514486Y-73285209D01*
X144514486Y-73285213D01*
X144513105Y-73294082D01*
X144514270Y-73302987D01*
X144514261Y-73303686D01*
X144493429Y-73371558D01*
X144439210Y-73417393D01*
X144422899Y-73423297D01*
X144302192Y-73457795D01*
X144294605Y-73462582D01*
X144294603Y-73462583D01*
X144283192Y-73469783D01*
X144186031Y-73531087D01*
X144180088Y-73537816D01*
X144150878Y-73570890D01*
X144095109Y-73634036D01*
X144091295Y-73642159D01*
X144091294Y-73642161D01*
X144071966Y-73683329D01*
X144036736Y-73758366D01*
X144031405Y-73792608D01*
X144016986Y-73885209D01*
X144016986Y-73885213D01*
X144015605Y-73894082D01*
X117935852Y-73894082D01*
X117998799Y-73824539D01*
X118000748Y-73822386D01*
X118000749Y-73822385D01*
X118006776Y-73815726D01*
X118018921Y-73790660D01*
X118062749Y-73700198D01*
X118062749Y-73700197D01*
X118066663Y-73692119D01*
X118089450Y-73556672D01*
X118089595Y-73544836D01*
X118088748Y-73538918D01*
X118071396Y-73417759D01*
X118071396Y-73417757D01*
X118070123Y-73408872D01*
X118013274Y-73283839D01*
X117923617Y-73179787D01*
X117808360Y-73105080D01*
X117676767Y-73065726D01*
X117667791Y-73065671D01*
X117667790Y-73065671D01*
X117610244Y-73065320D01*
X117539419Y-73064887D01*
X117407356Y-73102631D01*
X117399769Y-73107418D01*
X117399767Y-73107419D01*
X117338014Y-73146382D01*
X117291195Y-73175923D01*
X117200273Y-73278872D01*
X117196459Y-73286995D01*
X117196458Y-73286997D01*
X117184796Y-73311836D01*
X117141900Y-73403202D01*
X117135037Y-73447283D01*
X117122150Y-73530045D01*
X117122150Y-73530049D01*
X117120769Y-73538918D01*
X112779708Y-73538918D01*
X112072812Y-72832022D01*
X112058868Y-72824408D01*
X112057035Y-72824539D01*
X112050420Y-72828790D01*
X111108276Y-73770934D01*
X111100884Y-73784471D01*
X110445717Y-73784471D01*
X110423204Y-73765243D01*
X110423199Y-73765239D01*
X110419439Y-73762028D01*
X110214704Y-73636567D01*
X110210134Y-73634674D01*
X110210130Y-73634672D01*
X109997436Y-73546571D01*
X109997434Y-73546570D01*
X109992863Y-73544677D01*
X109912660Y-73525422D01*
X109764192Y-73489778D01*
X109764186Y-73489777D01*
X109759379Y-73488623D01*
X109520000Y-73469783D01*
X109280621Y-73488623D01*
X109275814Y-73489777D01*
X109275808Y-73489778D01*
X109127340Y-73525422D01*
X109047137Y-73544677D01*
X109042566Y-73546570D01*
X109042564Y-73546571D01*
X108829870Y-73634672D01*
X108829866Y-73634674D01*
X108825296Y-73636567D01*
X108620561Y-73762028D01*
X108616801Y-73765239D01*
X108616796Y-73765243D01*
X108534136Y-73835842D01*
X108437973Y-73917973D01*
X108434760Y-73921735D01*
X108285243Y-74096796D01*
X108285239Y-74096801D01*
X108282028Y-74100561D01*
X108156567Y-74305296D01*
X108154674Y-74309866D01*
X108154672Y-74309870D01*
X108109421Y-74419116D01*
X108064677Y-74527137D01*
X108063522Y-74531949D01*
X108010056Y-74754653D01*
X108008623Y-74760621D01*
X107989783Y-75000000D01*
X105784427Y-75000000D01*
X105784777Y-73859997D01*
X105804800Y-73791883D01*
X105858470Y-73745406D01*
X105928747Y-73735324D01*
X105992608Y-73764225D01*
X106013419Y-73782000D01*
X106021392Y-73787792D01*
X106232121Y-73916927D01*
X106240915Y-73921408D01*
X106469242Y-74015984D01*
X106478627Y-74019033D01*
X106718940Y-74076728D01*
X106728687Y-74078271D01*
X106975070Y-74097662D01*
X106984930Y-74097662D01*
X107231313Y-74078271D01*
X107241060Y-74076728D01*
X107481373Y-74019033D01*
X107490758Y-74015984D01*
X107719085Y-73921408D01*
X107727879Y-73916927D01*
X107933928Y-73790660D01*
X107939190Y-73782599D01*
X107933183Y-73772393D01*
X106709885Y-72549095D01*
X106675859Y-72486783D01*
X106677694Y-72461132D01*
X107344408Y-72461132D01*
X107344539Y-72462965D01*
X107348790Y-72469580D01*
X108290934Y-73411724D01*
X108304471Y-73419116D01*
X108309740Y-73415430D01*
X108436927Y-73207879D01*
X108441408Y-73199085D01*
X108535984Y-72970758D01*
X108539033Y-72961373D01*
X108596728Y-72721060D01*
X108598271Y-72711313D01*
X108617662Y-72464930D01*
X110422338Y-72464930D01*
X110441729Y-72711313D01*
X110443272Y-72721060D01*
X110500967Y-72961373D01*
X110504016Y-72970758D01*
X110598592Y-73199085D01*
X110603073Y-73207879D01*
X110729340Y-73413928D01*
X110737401Y-73419190D01*
X110747607Y-73413183D01*
X111687978Y-72472812D01*
X111694356Y-72461132D01*
X112424408Y-72461132D01*
X112424539Y-72462965D01*
X112428790Y-72469580D01*
X113370934Y-73411724D01*
X113384471Y-73419116D01*
X113389740Y-73415430D01*
X113516927Y-73207879D01*
X113521408Y-73199085D01*
X113615984Y-72970758D01*
X113619033Y-72961373D01*
X113676728Y-72721060D01*
X113678271Y-72711313D01*
X113697662Y-72464930D01*
X113697662Y-72455070D01*
X113678271Y-72208687D01*
X113676728Y-72198940D01*
X113675562Y-72194082D01*
X145015605Y-72194082D01*
X145016769Y-72202984D01*
X145016769Y-72202987D01*
X145018172Y-72213715D01*
X145033414Y-72330273D01*
X145088732Y-72455992D01*
X145094510Y-72462865D01*
X145094510Y-72462866D01*
X145114251Y-72486351D01*
X145177111Y-72561132D01*
X145184587Y-72566109D01*
X145184590Y-72566111D01*
X145271978Y-72624281D01*
X145292620Y-72648893D01*
X145330010Y-72649288D01*
X145422549Y-72678199D01*
X145488166Y-72679402D01*
X145493038Y-72679491D01*
X145560781Y-72700738D01*
X145606283Y-72755237D01*
X145614154Y-72794272D01*
X145615605Y-72794082D01*
X145633414Y-72930273D01*
X145641761Y-72949242D01*
X145646205Y-72959342D01*
X145654080Y-73020095D01*
X145684621Y-73046978D01*
X145685115Y-73047771D01*
X145688732Y-73055992D01*
X145777111Y-73161132D01*
X145797799Y-73174903D01*
X145883906Y-73232220D01*
X145891447Y-73237240D01*
X146022549Y-73278199D01*
X146159876Y-73280716D01*
X146169109Y-73278199D01*
X146283727Y-73246951D01*
X146292391Y-73244589D01*
X146300046Y-73239889D01*
X146312537Y-73232220D01*
X146381054Y-73213622D01*
X146448749Y-73235019D01*
X146464138Y-73248842D01*
X146464644Y-73248277D01*
X146471331Y-73254256D01*
X146477111Y-73261132D01*
X146591447Y-73337240D01*
X146722549Y-73378199D01*
X146859876Y-73380716D01*
X146869109Y-73378199D01*
X146983727Y-73346951D01*
X146992391Y-73344589D01*
X147109439Y-73272721D01*
X147176091Y-73199085D01*
X147195584Y-73177550D01*
X147195585Y-73177549D01*
X147201612Y-73170890D01*
X147211616Y-73150243D01*
X147257585Y-73055362D01*
X147257585Y-73055361D01*
X147261499Y-73047283D01*
X147284286Y-72911836D01*
X147284431Y-72900000D01*
X147279073Y-72862583D01*
X147266232Y-72772923D01*
X147266232Y-72772921D01*
X147264959Y-72764036D01*
X147208110Y-72639003D01*
X147118453Y-72534951D01*
X147003196Y-72460244D01*
X146871603Y-72420890D01*
X146862627Y-72420835D01*
X146862626Y-72420835D01*
X146805080Y-72420484D01*
X146734255Y-72420051D01*
X146602192Y-72457795D01*
X146590884Y-72464930D01*
X146587733Y-72466918D01*
X146519447Y-72486351D01*
X146451496Y-72465781D01*
X146425046Y-72442603D01*
X146418453Y-72434951D01*
X146303196Y-72360244D01*
X146171603Y-72320890D01*
X146162627Y-72320835D01*
X146162626Y-72320835D01*
X146140075Y-72320697D01*
X146109194Y-72320509D01*
X146041197Y-72300091D01*
X145995033Y-72246153D01*
X145984390Y-72203345D01*
X145984431Y-72200000D01*
X145983584Y-72194082D01*
X145975466Y-72137401D01*
X149300810Y-72137401D01*
X149306817Y-72147607D01*
X150247188Y-73087978D01*
X150261132Y-73095592D01*
X150262965Y-73095461D01*
X150269580Y-73091210D01*
X151211724Y-72149066D01*
X151219116Y-72135529D01*
X151215430Y-72130260D01*
X151007879Y-72003073D01*
X150999085Y-71998592D01*
X150770758Y-71904016D01*
X150761373Y-71900967D01*
X150521060Y-71843272D01*
X150511313Y-71841729D01*
X150264930Y-71822338D01*
X150255070Y-71822338D01*
X150008687Y-71841729D01*
X149998940Y-71843272D01*
X149758627Y-71900967D01*
X149749242Y-71904016D01*
X149520915Y-71998592D01*
X149512121Y-72003073D01*
X149306072Y-72129340D01*
X149300810Y-72137401D01*
X145975466Y-72137401D01*
X145966232Y-72072923D01*
X145966232Y-72072921D01*
X145964959Y-72064036D01*
X145908110Y-71939003D01*
X145818453Y-71834951D01*
X145703196Y-71760244D01*
X145571603Y-71720890D01*
X145562627Y-71720835D01*
X145562626Y-71720835D01*
X145505080Y-71720484D01*
X145434255Y-71720051D01*
X145302192Y-71757795D01*
X145294605Y-71762582D01*
X145294603Y-71762583D01*
X145232850Y-71801546D01*
X145186031Y-71831087D01*
X145180088Y-71837816D01*
X145124315Y-71900967D01*
X145095109Y-71934036D01*
X145091295Y-71942159D01*
X145091294Y-71942161D01*
X145064800Y-71998592D01*
X145036736Y-72058366D01*
X145030940Y-72095592D01*
X145016986Y-72185209D01*
X145016986Y-72185213D01*
X145015605Y-72194082D01*
X113675562Y-72194082D01*
X113619033Y-71958627D01*
X113615984Y-71949242D01*
X113521408Y-71720915D01*
X113516927Y-71712121D01*
X113390660Y-71506072D01*
X113382599Y-71500810D01*
X113372393Y-71506817D01*
X112432022Y-72447188D01*
X112424408Y-72461132D01*
X111694356Y-72461132D01*
X111695592Y-72458868D01*
X111695461Y-72457035D01*
X111691210Y-72450420D01*
X110749066Y-71508276D01*
X110735529Y-71500884D01*
X110730260Y-71504570D01*
X110603073Y-71712121D01*
X110598592Y-71720915D01*
X110504016Y-71949242D01*
X110500967Y-71958627D01*
X110443272Y-72198940D01*
X110441729Y-72208687D01*
X110422338Y-72455070D01*
X110422338Y-72464930D01*
X108617662Y-72464930D01*
X108617662Y-72455070D01*
X108598271Y-72208687D01*
X108596728Y-72198940D01*
X108539033Y-71958627D01*
X108535984Y-71949242D01*
X108441408Y-71720915D01*
X108436927Y-71712121D01*
X108310660Y-71506072D01*
X108302599Y-71500810D01*
X108292393Y-71506817D01*
X107352022Y-72447188D01*
X107344408Y-72461132D01*
X106677694Y-72461132D01*
X106680924Y-72415968D01*
X106709885Y-72370905D01*
X107931724Y-71149066D01*
X107938094Y-71137401D01*
X111100810Y-71137401D01*
X111106817Y-71147607D01*
X112047188Y-72087978D01*
X112061132Y-72095592D01*
X112062965Y-72095461D01*
X112069580Y-72091210D01*
X113011724Y-71149066D01*
X113019116Y-71135529D01*
X113017339Y-71132989D01*
X116708769Y-71132989D01*
X116709933Y-71141891D01*
X116709933Y-71141894D01*
X116711718Y-71155540D01*
X116726578Y-71269180D01*
X116781896Y-71394899D01*
X116870275Y-71500039D01*
X116984611Y-71576147D01*
X117115713Y-71617106D01*
X117253040Y-71619623D01*
X117262273Y-71617106D01*
X117376891Y-71585858D01*
X117385555Y-71583496D01*
X117502603Y-71511628D01*
X117594776Y-71409797D01*
X117654663Y-71286190D01*
X117677450Y-71150743D01*
X117677595Y-71138907D01*
X117676748Y-71132989D01*
X117659396Y-71011830D01*
X117659396Y-71011828D01*
X117658123Y-71002943D01*
X117601274Y-70877910D01*
X117511617Y-70773858D01*
X117396360Y-70699151D01*
X117264767Y-70659797D01*
X117255791Y-70659742D01*
X117255790Y-70659742D01*
X117198244Y-70659391D01*
X117127419Y-70658958D01*
X116995356Y-70696702D01*
X116987769Y-70701489D01*
X116987767Y-70701490D01*
X116926014Y-70740453D01*
X116879195Y-70769994D01*
X116788273Y-70872943D01*
X116729900Y-70997273D01*
X116720259Y-71059192D01*
X116710150Y-71124116D01*
X116710150Y-71124120D01*
X116708769Y-71132989D01*
X113017339Y-71132989D01*
X113015430Y-71130260D01*
X112807879Y-71003073D01*
X112799085Y-70998592D01*
X112570758Y-70904016D01*
X112561373Y-70900967D01*
X112321060Y-70843272D01*
X112311313Y-70841729D01*
X112064930Y-70822338D01*
X112055070Y-70822338D01*
X111808687Y-70841729D01*
X111798940Y-70843272D01*
X111558627Y-70900967D01*
X111549242Y-70904016D01*
X111320915Y-70998592D01*
X111312121Y-71003073D01*
X111106072Y-71129340D01*
X111100810Y-71137401D01*
X107938094Y-71137401D01*
X107939116Y-71135529D01*
X107935430Y-71130260D01*
X107727879Y-71003073D01*
X107719085Y-70998592D01*
X107490758Y-70904016D01*
X107481373Y-70900967D01*
X107241060Y-70843272D01*
X107231313Y-70841729D01*
X106984930Y-70822338D01*
X106975070Y-70822338D01*
X106728687Y-70841729D01*
X106718940Y-70843272D01*
X106478627Y-70900967D01*
X106469242Y-70904016D01*
X106240915Y-70998592D01*
X106232121Y-71003073D01*
X106021392Y-71132208D01*
X106013419Y-71138001D01*
X105993466Y-71155042D01*
X105928676Y-71184073D01*
X105858476Y-71173468D01*
X105805153Y-71126593D01*
X105785636Y-71059195D01*
X105786328Y-68801411D01*
X105806351Y-68733299D01*
X105860021Y-68686822D01*
X105930298Y-68676740D01*
X105994870Y-68706253D01*
X106031100Y-68759391D01*
X106032971Y-68764674D01*
X106034392Y-68770269D01*
X106036809Y-68775512D01*
X106074010Y-68856208D01*
X106119377Y-68954616D01*
X106236533Y-69120389D01*
X106381938Y-69262035D01*
X106550720Y-69374812D01*
X106556023Y-69377090D01*
X106556026Y-69377092D01*
X106687283Y-69433484D01*
X106737228Y-69454942D01*
X106810244Y-69471464D01*
X106929579Y-69498467D01*
X106929584Y-69498468D01*
X106935216Y-69499742D01*
X106940987Y-69499969D01*
X106940989Y-69499969D01*
X107000756Y-69502317D01*
X107138053Y-69507712D01*
X107245348Y-69492155D01*
X107333231Y-69479413D01*
X107333236Y-69479412D01*
X107338945Y-69478584D01*
X107344409Y-69476729D01*
X107344414Y-69476728D01*
X107525693Y-69415192D01*
X107525698Y-69415190D01*
X107531165Y-69413334D01*
X107708276Y-69314147D01*
X107747969Y-69281135D01*
X107859913Y-69188031D01*
X107864345Y-69184345D01*
X107903051Y-69137806D01*
X107990453Y-69032718D01*
X107990455Y-69032715D01*
X107994147Y-69028276D01*
X108093334Y-68851165D01*
X108095190Y-68845698D01*
X108095192Y-68845693D01*
X108156728Y-68664414D01*
X108156729Y-68664409D01*
X108158584Y-68658945D01*
X108159412Y-68653236D01*
X108159413Y-68653231D01*
X108187179Y-68461727D01*
X108187712Y-68458053D01*
X108189232Y-68400000D01*
X108186564Y-68370964D01*
X108511148Y-68370964D01*
X108524424Y-68573522D01*
X108525845Y-68579118D01*
X108525846Y-68579123D01*
X108565003Y-68733299D01*
X108574392Y-68770269D01*
X108576809Y-68775512D01*
X108614010Y-68856208D01*
X108659377Y-68954616D01*
X108776533Y-69120389D01*
X108921938Y-69262035D01*
X109090720Y-69374812D01*
X109096023Y-69377090D01*
X109096026Y-69377092D01*
X109227283Y-69433484D01*
X109277228Y-69454942D01*
X109350244Y-69471464D01*
X109469579Y-69498467D01*
X109469584Y-69498468D01*
X109475216Y-69499742D01*
X109480987Y-69499969D01*
X109480989Y-69499969D01*
X109540756Y-69502317D01*
X109678053Y-69507712D01*
X109785348Y-69492155D01*
X109873231Y-69479413D01*
X109873236Y-69479412D01*
X109878945Y-69478584D01*
X109884409Y-69476729D01*
X109884414Y-69476728D01*
X110065693Y-69415192D01*
X110065698Y-69415190D01*
X110071165Y-69413334D01*
X110248276Y-69314147D01*
X110287969Y-69281135D01*
X110399913Y-69188031D01*
X110404345Y-69184345D01*
X110443051Y-69137806D01*
X110530453Y-69032718D01*
X110530455Y-69032715D01*
X110534147Y-69028276D01*
X110633334Y-68851165D01*
X110635190Y-68845698D01*
X110635192Y-68845693D01*
X110696728Y-68664414D01*
X110696729Y-68664409D01*
X110698584Y-68658945D01*
X110699412Y-68653236D01*
X110699413Y-68653231D01*
X110727179Y-68461727D01*
X110727712Y-68458053D01*
X110729232Y-68400000D01*
X110726564Y-68370964D01*
X111051148Y-68370964D01*
X111064424Y-68573522D01*
X111065845Y-68579118D01*
X111065846Y-68579123D01*
X111105003Y-68733299D01*
X111114392Y-68770269D01*
X111116809Y-68775512D01*
X111154010Y-68856208D01*
X111199377Y-68954616D01*
X111316533Y-69120389D01*
X111461938Y-69262035D01*
X111630720Y-69374812D01*
X111636023Y-69377090D01*
X111636026Y-69377092D01*
X111767283Y-69433484D01*
X111817228Y-69454942D01*
X111890244Y-69471464D01*
X112009579Y-69498467D01*
X112009584Y-69498468D01*
X112015216Y-69499742D01*
X112020987Y-69499969D01*
X112020989Y-69499969D01*
X112080756Y-69502317D01*
X112218053Y-69507712D01*
X112325348Y-69492155D01*
X112413231Y-69479413D01*
X112413236Y-69479412D01*
X112418945Y-69478584D01*
X112424409Y-69476729D01*
X112424414Y-69476728D01*
X112605693Y-69415192D01*
X112605698Y-69415190D01*
X112611165Y-69413334D01*
X112788276Y-69314147D01*
X112827969Y-69281135D01*
X112939913Y-69188031D01*
X112944345Y-69184345D01*
X112983051Y-69137806D01*
X113070453Y-69032718D01*
X113070455Y-69032715D01*
X113074147Y-69028276D01*
X113173334Y-68851165D01*
X113175190Y-68845698D01*
X113175192Y-68845693D01*
X113236728Y-68664414D01*
X113236729Y-68664409D01*
X113238584Y-68658945D01*
X113239412Y-68653236D01*
X113239413Y-68653231D01*
X113267179Y-68461727D01*
X113267712Y-68458053D01*
X113269232Y-68400000D01*
X113250658Y-68197859D01*
X113249090Y-68192299D01*
X113197125Y-68008046D01*
X113197124Y-68008044D01*
X113195557Y-68002487D01*
X113184978Y-67981033D01*
X113108331Y-67825609D01*
X113105776Y-67820428D01*
X112984320Y-67657779D01*
X112840609Y-67524933D01*
X113595500Y-67524933D01*
X113595501Y-69275066D01*
X113610266Y-69349301D01*
X113617161Y-69359620D01*
X113617162Y-69359622D01*
X113657516Y-69420015D01*
X113666516Y-69433484D01*
X113750699Y-69489734D01*
X113824933Y-69504500D01*
X114699858Y-69504500D01*
X115575066Y-69504499D01*
X115610818Y-69497388D01*
X115637126Y-69492156D01*
X115637128Y-69492155D01*
X115649301Y-69489734D01*
X115659621Y-69482839D01*
X115659622Y-69482838D01*
X115723168Y-69440377D01*
X115733484Y-69433484D01*
X115789734Y-69349301D01*
X115804500Y-69275067D01*
X115804500Y-68869082D01*
X116840605Y-68869082D01*
X116841769Y-68877984D01*
X116841769Y-68877987D01*
X116849509Y-68937177D01*
X116858414Y-69005273D01*
X116870490Y-69032718D01*
X116909067Y-69120389D01*
X116913732Y-69130992D01*
X117002111Y-69236132D01*
X117116447Y-69312240D01*
X117247549Y-69353199D01*
X117384876Y-69355716D01*
X117394109Y-69353199D01*
X117508727Y-69321951D01*
X117517391Y-69319589D01*
X117599983Y-69268877D01*
X117626791Y-69252417D01*
X117634439Y-69247721D01*
X117726612Y-69145890D01*
X117737013Y-69124424D01*
X117782585Y-69030362D01*
X117782585Y-69030361D01*
X117786499Y-69022283D01*
X117809286Y-68886836D01*
X117809431Y-68875000D01*
X117808584Y-68869082D01*
X117791232Y-68747923D01*
X117791232Y-68747921D01*
X117789959Y-68739036D01*
X117756056Y-68664471D01*
X149300884Y-68664471D01*
X149304570Y-68669740D01*
X149512121Y-68796927D01*
X149520915Y-68801408D01*
X149749242Y-68895984D01*
X149758627Y-68899033D01*
X149998940Y-68956728D01*
X150008687Y-68958271D01*
X150255070Y-68977662D01*
X150264930Y-68977662D01*
X150511313Y-68958271D01*
X150521060Y-68956728D01*
X150761373Y-68899033D01*
X150770758Y-68895984D01*
X150999085Y-68801408D01*
X151007879Y-68796927D01*
X151213928Y-68670660D01*
X151219190Y-68662599D01*
X151213183Y-68652393D01*
X150272812Y-67712022D01*
X150258868Y-67704408D01*
X150257035Y-67704539D01*
X150250420Y-67708790D01*
X149308276Y-68650934D01*
X149300884Y-68664471D01*
X117756056Y-68664471D01*
X117733110Y-68614003D01*
X117643453Y-68509951D01*
X117528196Y-68435244D01*
X117396603Y-68395890D01*
X117387627Y-68395835D01*
X117387626Y-68395835D01*
X117330080Y-68395484D01*
X117259255Y-68395051D01*
X117127192Y-68432795D01*
X117119605Y-68437582D01*
X117119603Y-68437583D01*
X117093039Y-68454344D01*
X117011031Y-68506087D01*
X116920109Y-68609036D01*
X116861736Y-68733366D01*
X116855990Y-68770269D01*
X116841986Y-68860209D01*
X116841986Y-68860213D01*
X116840605Y-68869082D01*
X115804500Y-68869082D01*
X115804499Y-67524934D01*
X115789734Y-67450699D01*
X115775299Y-67429095D01*
X115740377Y-67376832D01*
X115733484Y-67366516D01*
X115701179Y-67344930D01*
X148622338Y-67344930D01*
X148641729Y-67591313D01*
X148643272Y-67601060D01*
X148700967Y-67841373D01*
X148704016Y-67850758D01*
X148798592Y-68079085D01*
X148803073Y-68087879D01*
X148929340Y-68293928D01*
X148937401Y-68299190D01*
X148947607Y-68293183D01*
X149887978Y-67352812D01*
X149894356Y-67341132D01*
X150624408Y-67341132D01*
X150624539Y-67342965D01*
X150628790Y-67349580D01*
X151570934Y-68291724D01*
X151584471Y-68299116D01*
X151589740Y-68295430D01*
X151716927Y-68087879D01*
X151721408Y-68079085D01*
X151815984Y-67850758D01*
X151819033Y-67841373D01*
X151876728Y-67601060D01*
X151878271Y-67591313D01*
X151897662Y-67344930D01*
X153702338Y-67344930D01*
X153721729Y-67591313D01*
X153723272Y-67601060D01*
X153780967Y-67841373D01*
X153784016Y-67850758D01*
X153878592Y-68079085D01*
X153883073Y-68087879D01*
X154009340Y-68293928D01*
X154017401Y-68299190D01*
X154027607Y-68293183D01*
X154967978Y-67352812D01*
X154975592Y-67338868D01*
X154975461Y-67337035D01*
X154971210Y-67330420D01*
X154029066Y-66388276D01*
X154015529Y-66380884D01*
X154010260Y-66384570D01*
X153883073Y-66592121D01*
X153878592Y-66600915D01*
X153784016Y-66829242D01*
X153780967Y-66838627D01*
X153723272Y-67078940D01*
X153721729Y-67088687D01*
X153702338Y-67335070D01*
X153702338Y-67344930D01*
X151897662Y-67344930D01*
X151897662Y-67335070D01*
X151878271Y-67088687D01*
X151876728Y-67078940D01*
X151819033Y-66838627D01*
X151815984Y-66829242D01*
X151721408Y-66600915D01*
X151716927Y-66592121D01*
X151590660Y-66386072D01*
X151582599Y-66380810D01*
X151572393Y-66386817D01*
X150632022Y-67327188D01*
X150624408Y-67341132D01*
X149894356Y-67341132D01*
X149895592Y-67338868D01*
X149895461Y-67337035D01*
X149891210Y-67330420D01*
X148949066Y-66388276D01*
X148935529Y-66380884D01*
X148930260Y-66384570D01*
X148803073Y-66592121D01*
X148798592Y-66600915D01*
X148704016Y-66829242D01*
X148700967Y-66838627D01*
X148643272Y-67078940D01*
X148641729Y-67088687D01*
X148622338Y-67335070D01*
X148622338Y-67344930D01*
X115701179Y-67344930D01*
X115649301Y-67310266D01*
X115575067Y-67295500D01*
X114700142Y-67295500D01*
X113824934Y-67295501D01*
X113789182Y-67302612D01*
X113762874Y-67307844D01*
X113762872Y-67307845D01*
X113750699Y-67310266D01*
X113740379Y-67317161D01*
X113740378Y-67317162D01*
X113704505Y-67341132D01*
X113666516Y-67366516D01*
X113659623Y-67376832D01*
X113624702Y-67429095D01*
X113610266Y-67450699D01*
X113595500Y-67524933D01*
X112840609Y-67524933D01*
X112835258Y-67519987D01*
X112830375Y-67516906D01*
X112830371Y-67516903D01*
X112668464Y-67414748D01*
X112663581Y-67411667D01*
X112475039Y-67336446D01*
X112469379Y-67335320D01*
X112469375Y-67335319D01*
X112281613Y-67297971D01*
X112281610Y-67297971D01*
X112275946Y-67296844D01*
X112270171Y-67296768D01*
X112270167Y-67296768D01*
X112168793Y-67295441D01*
X112072971Y-67294187D01*
X112067274Y-67295166D01*
X112067273Y-67295166D01*
X111878607Y-67327585D01*
X111872910Y-67328564D01*
X111682463Y-67398824D01*
X111508010Y-67502612D01*
X111503670Y-67506418D01*
X111503666Y-67506421D01*
X111406866Y-67591313D01*
X111355392Y-67636455D01*
X111229720Y-67795869D01*
X111227031Y-67800980D01*
X111227029Y-67800983D01*
X111214073Y-67825609D01*
X111135203Y-67975515D01*
X111075007Y-68169378D01*
X111051148Y-68370964D01*
X110726564Y-68370964D01*
X110710658Y-68197859D01*
X110709090Y-68192299D01*
X110657125Y-68008046D01*
X110657124Y-68008044D01*
X110655557Y-68002487D01*
X110644978Y-67981033D01*
X110568331Y-67825609D01*
X110565776Y-67820428D01*
X110444320Y-67657779D01*
X110295258Y-67519987D01*
X110290375Y-67516906D01*
X110290371Y-67516903D01*
X110128464Y-67414748D01*
X110123581Y-67411667D01*
X109935039Y-67336446D01*
X109929379Y-67335320D01*
X109929375Y-67335319D01*
X109741613Y-67297971D01*
X109741610Y-67297971D01*
X109735946Y-67296844D01*
X109730171Y-67296768D01*
X109730167Y-67296768D01*
X109628793Y-67295441D01*
X109532971Y-67294187D01*
X109527274Y-67295166D01*
X109527273Y-67295166D01*
X109338607Y-67327585D01*
X109332910Y-67328564D01*
X109142463Y-67398824D01*
X108968010Y-67502612D01*
X108963670Y-67506418D01*
X108963666Y-67506421D01*
X108866866Y-67591313D01*
X108815392Y-67636455D01*
X108689720Y-67795869D01*
X108687031Y-67800980D01*
X108687029Y-67800983D01*
X108674073Y-67825609D01*
X108595203Y-67975515D01*
X108535007Y-68169378D01*
X108511148Y-68370964D01*
X108186564Y-68370964D01*
X108170658Y-68197859D01*
X108169090Y-68192299D01*
X108117125Y-68008046D01*
X108117124Y-68008044D01*
X108115557Y-68002487D01*
X108104978Y-67981033D01*
X108028331Y-67825609D01*
X108025776Y-67820428D01*
X107904320Y-67657779D01*
X107755258Y-67519987D01*
X107750375Y-67516906D01*
X107750371Y-67516903D01*
X107588464Y-67414748D01*
X107583581Y-67411667D01*
X107395039Y-67336446D01*
X107389379Y-67335320D01*
X107389375Y-67335319D01*
X107201613Y-67297971D01*
X107201610Y-67297971D01*
X107195946Y-67296844D01*
X107190171Y-67296768D01*
X107190167Y-67296768D01*
X107088793Y-67295441D01*
X106992971Y-67294187D01*
X106987274Y-67295166D01*
X106987273Y-67295166D01*
X106798607Y-67327585D01*
X106792910Y-67328564D01*
X106602463Y-67398824D01*
X106428010Y-67502612D01*
X106423670Y-67506418D01*
X106423666Y-67506421D01*
X106326866Y-67591313D01*
X106275392Y-67636455D01*
X106149720Y-67795869D01*
X106147031Y-67800980D01*
X106147029Y-67800983D01*
X106134073Y-67825609D01*
X106055203Y-67975515D01*
X106046828Y-68002487D01*
X106032904Y-68047330D01*
X105993601Y-68106455D01*
X105928571Y-68134946D01*
X105858462Y-68123756D01*
X105805532Y-68076439D01*
X105786571Y-68009927D01*
X105786572Y-68008046D01*
X105787186Y-66008396D01*
X116209747Y-66008396D01*
X116210911Y-66017298D01*
X116210911Y-66017301D01*
X116218652Y-66076492D01*
X116227556Y-66144587D01*
X116282874Y-66270306D01*
X116371253Y-66375446D01*
X116485589Y-66451554D01*
X116616691Y-66492513D01*
X116754018Y-66495030D01*
X116763251Y-66492513D01*
X116877869Y-66461265D01*
X116886533Y-66458903D01*
X117003581Y-66387035D01*
X117095754Y-66285204D01*
X117145459Y-66182614D01*
X117151727Y-66169676D01*
X117151727Y-66169675D01*
X117155641Y-66161597D01*
X117178428Y-66026150D01*
X117178535Y-66017401D01*
X149300810Y-66017401D01*
X149306817Y-66027607D01*
X150247188Y-66967978D01*
X150261132Y-66975592D01*
X150262965Y-66975461D01*
X150269580Y-66971210D01*
X151211724Y-66029066D01*
X151219116Y-66015529D01*
X151215430Y-66010260D01*
X151007879Y-65883073D01*
X150999085Y-65878592D01*
X150770758Y-65784016D01*
X150761373Y-65780967D01*
X150521060Y-65723272D01*
X150511313Y-65721729D01*
X150264930Y-65702338D01*
X150255070Y-65702338D01*
X150008687Y-65721729D01*
X149998940Y-65723272D01*
X149758627Y-65780967D01*
X149749242Y-65784016D01*
X149520915Y-65878592D01*
X149512121Y-65883073D01*
X149306072Y-66009340D01*
X149300810Y-66017401D01*
X117178535Y-66017401D01*
X117178573Y-66014314D01*
X117177726Y-66008396D01*
X117160374Y-65887237D01*
X117160374Y-65887235D01*
X117159101Y-65878350D01*
X117102252Y-65753317D01*
X117012595Y-65649265D01*
X116897338Y-65574558D01*
X116765745Y-65535204D01*
X116756769Y-65535149D01*
X116756768Y-65535149D01*
X116699222Y-65534798D01*
X116628397Y-65534365D01*
X116496334Y-65572109D01*
X116488747Y-65576896D01*
X116488745Y-65576897D01*
X116431316Y-65613132D01*
X116380173Y-65645401D01*
X116289251Y-65748350D01*
X116230878Y-65872680D01*
X116221862Y-65930588D01*
X116211128Y-65999523D01*
X116211128Y-65999527D01*
X116209747Y-66008396D01*
X105787186Y-66008396D01*
X105787780Y-64070964D01*
X106511148Y-64070964D01*
X106524424Y-64273522D01*
X106574392Y-64470269D01*
X106576809Y-64475512D01*
X106614010Y-64556208D01*
X106659377Y-64654616D01*
X106662710Y-64659332D01*
X106762124Y-64800000D01*
X106776533Y-64820389D01*
X106921938Y-64962035D01*
X107090720Y-65074812D01*
X107096023Y-65077090D01*
X107096026Y-65077092D01*
X107271921Y-65152662D01*
X107277228Y-65154942D01*
X107350244Y-65171464D01*
X107469579Y-65198467D01*
X107469584Y-65198468D01*
X107475216Y-65199742D01*
X107480987Y-65199969D01*
X107480989Y-65199969D01*
X107540756Y-65202317D01*
X107678053Y-65207712D01*
X107785348Y-65192155D01*
X107873231Y-65179413D01*
X107873236Y-65179412D01*
X107878945Y-65178584D01*
X107884409Y-65176729D01*
X107884414Y-65176728D01*
X108065693Y-65115192D01*
X108065698Y-65115190D01*
X108071165Y-65113334D01*
X108099500Y-65097466D01*
X108149138Y-65069667D01*
X108248276Y-65014147D01*
X108268053Y-64997699D01*
X108375696Y-64908172D01*
X108404345Y-64884345D01*
X108471697Y-64803364D01*
X108530453Y-64732718D01*
X108530455Y-64732715D01*
X108534147Y-64728276D01*
X108620591Y-64573920D01*
X108630510Y-64556208D01*
X108630511Y-64556206D01*
X108633334Y-64551165D01*
X108635720Y-64544135D01*
X108636170Y-64543496D01*
X108637541Y-64540416D01*
X108638146Y-64540685D01*
X108676553Y-64486059D01*
X108742305Y-64459278D01*
X108812098Y-64472295D01*
X108863773Y-64520980D01*
X108871777Y-64537229D01*
X108941770Y-64709603D01*
X108946413Y-64718794D01*
X109057694Y-64900388D01*
X109063777Y-64908699D01*
X109203213Y-65069667D01*
X109210580Y-65076883D01*
X109374434Y-65212916D01*
X109382881Y-65218831D01*
X109566756Y-65326279D01*
X109576042Y-65330729D01*
X109775001Y-65406703D01*
X109784899Y-65409579D01*
X109888250Y-65430606D01*
X109902299Y-65429410D01*
X109906000Y-65419065D01*
X109906000Y-65418517D01*
X110414000Y-65418517D01*
X110418064Y-65432359D01*
X110431478Y-65434393D01*
X110438184Y-65433534D01*
X110448262Y-65431392D01*
X110652255Y-65370191D01*
X110661842Y-65366433D01*
X110853095Y-65272739D01*
X110861945Y-65267464D01*
X111035328Y-65143792D01*
X111043200Y-65137139D01*
X111194052Y-64986812D01*
X111200730Y-64978965D01*
X111325003Y-64806020D01*
X111330310Y-64797188D01*
X111356544Y-64744109D01*
X111404658Y-64691903D01*
X111473360Y-64673996D01*
X111540836Y-64696075D01*
X111585664Y-64751129D01*
X111595501Y-64799937D01*
X111595501Y-64975066D01*
X111610266Y-65049301D01*
X111617161Y-65059620D01*
X111617162Y-65059622D01*
X111657516Y-65120015D01*
X111666516Y-65133484D01*
X111750699Y-65189734D01*
X111824933Y-65204500D01*
X112699858Y-65204500D01*
X113575066Y-65204499D01*
X113610818Y-65197388D01*
X113637126Y-65192156D01*
X113637128Y-65192155D01*
X113649301Y-65189734D01*
X113659621Y-65182839D01*
X113659622Y-65182838D01*
X113723168Y-65140377D01*
X113733484Y-65133484D01*
X113789734Y-65049301D01*
X113804500Y-64975067D01*
X113804500Y-64766180D01*
X151416185Y-64766180D01*
X151416482Y-64771332D01*
X151416482Y-64771336D01*
X151422034Y-64867619D01*
X151429243Y-64992647D01*
X151430380Y-64997693D01*
X151430381Y-64997699D01*
X151450596Y-65087396D01*
X151479114Y-65213941D01*
X151481056Y-65218723D01*
X151481057Y-65218727D01*
X151562514Y-65419330D01*
X151564458Y-65424117D01*
X151682983Y-65617533D01*
X151831506Y-65788993D01*
X152006039Y-65933893D01*
X152201895Y-66048342D01*
X152206715Y-66050182D01*
X152206720Y-66050185D01*
X152301871Y-66086519D01*
X152413813Y-66129265D01*
X152418881Y-66130296D01*
X152418884Y-66130297D01*
X152527980Y-66152493D01*
X152636102Y-66174491D01*
X152641275Y-66174681D01*
X152641278Y-66174681D01*
X152857629Y-66182614D01*
X152857633Y-66182614D01*
X152862793Y-66182803D01*
X152867913Y-66182147D01*
X152867915Y-66182147D01*
X152965264Y-66169676D01*
X153087797Y-66153979D01*
X153092746Y-66152494D01*
X153092752Y-66152493D01*
X153246908Y-66106244D01*
X153305073Y-66088794D01*
X153508784Y-65988996D01*
X153512988Y-65985998D01*
X153512992Y-65985995D01*
X153590670Y-65930588D01*
X153693461Y-65857268D01*
X153854143Y-65697146D01*
X153911351Y-65617533D01*
X153983497Y-65517130D01*
X153986515Y-65512930D01*
X154025331Y-65434393D01*
X154084729Y-65314210D01*
X154084730Y-65314208D01*
X154087023Y-65309568D01*
X154152966Y-65092522D01*
X154153641Y-65087396D01*
X154182138Y-64870941D01*
X154182139Y-64870935D01*
X154182575Y-64867619D01*
X154184228Y-64800000D01*
X154165641Y-64573920D01*
X154120375Y-64393709D01*
X154111637Y-64358923D01*
X154111637Y-64358922D01*
X154110378Y-64353911D01*
X154019925Y-64145882D01*
X153896710Y-63955420D01*
X153869158Y-63925140D01*
X153747519Y-63791462D01*
X153747518Y-63791461D01*
X153744041Y-63787640D01*
X153739990Y-63784441D01*
X153739986Y-63784437D01*
X153570075Y-63650249D01*
X153570071Y-63650247D01*
X153566020Y-63647047D01*
X153367427Y-63537418D01*
X153362558Y-63535694D01*
X153362554Y-63535692D01*
X153158470Y-63463422D01*
X153158466Y-63463421D01*
X153153595Y-63461696D01*
X153148502Y-63460789D01*
X153148499Y-63460788D01*
X152935356Y-63422821D01*
X152935350Y-63422820D01*
X152930267Y-63421915D01*
X152856724Y-63421017D01*
X152708611Y-63419207D01*
X152708609Y-63419207D01*
X152703441Y-63419144D01*
X152479208Y-63453456D01*
X152363327Y-63491332D01*
X152268509Y-63522323D01*
X152268507Y-63522324D01*
X152263590Y-63523931D01*
X152259004Y-63526318D01*
X152259000Y-63526320D01*
X152083705Y-63617574D01*
X152062378Y-63628676D01*
X152058236Y-63631786D01*
X151924284Y-63732360D01*
X151880975Y-63764877D01*
X151877403Y-63768615D01*
X151781112Y-63869378D01*
X151724253Y-63928877D01*
X151721339Y-63933149D01*
X151721338Y-63933150D01*
X151599340Y-64111992D01*
X151599337Y-64111997D01*
X151596421Y-64116272D01*
X151500912Y-64322029D01*
X151440290Y-64540622D01*
X151416185Y-64766180D01*
X113804500Y-64766180D01*
X113804499Y-63584471D01*
X149300884Y-63584471D01*
X149304570Y-63589740D01*
X149512121Y-63716927D01*
X149520915Y-63721408D01*
X149749242Y-63815984D01*
X149758627Y-63819033D01*
X149998940Y-63876728D01*
X150008687Y-63878271D01*
X150255070Y-63897662D01*
X150264930Y-63897662D01*
X150511313Y-63878271D01*
X150521060Y-63876728D01*
X150761373Y-63819033D01*
X150770758Y-63815984D01*
X150999085Y-63721408D01*
X151007879Y-63716927D01*
X151213928Y-63590660D01*
X151219190Y-63582599D01*
X151213183Y-63572393D01*
X150272812Y-62632022D01*
X150258868Y-62624408D01*
X150257035Y-62624539D01*
X150250420Y-62628790D01*
X149308276Y-63570934D01*
X149300884Y-63584471D01*
X113804499Y-63584471D01*
X113804499Y-63224934D01*
X113789734Y-63150699D01*
X113763654Y-63111667D01*
X113740377Y-63076832D01*
X113733484Y-63066516D01*
X113649301Y-63010266D01*
X113575067Y-62995500D01*
X112700142Y-62995500D01*
X111824934Y-62995501D01*
X111789182Y-63002612D01*
X111762874Y-63007844D01*
X111762872Y-63007845D01*
X111750699Y-63010266D01*
X111740379Y-63017161D01*
X111740378Y-63017162D01*
X111679985Y-63057516D01*
X111666516Y-63066516D01*
X111610266Y-63150699D01*
X111595500Y-63224933D01*
X111595500Y-63392852D01*
X111575498Y-63460973D01*
X111521842Y-63507466D01*
X111451568Y-63517570D01*
X111386988Y-63488076D01*
X111361235Y-63455868D01*
X111360912Y-63456077D01*
X111358836Y-63452868D01*
X111358453Y-63452389D01*
X111358099Y-63451729D01*
X111242426Y-63272926D01*
X111236136Y-63264757D01*
X111092806Y-63107240D01*
X111085273Y-63100215D01*
X110918139Y-62968222D01*
X110909552Y-62962517D01*
X110723117Y-62859599D01*
X110713705Y-62855369D01*
X110512959Y-62784280D01*
X110502988Y-62781646D01*
X110431837Y-62768972D01*
X110418540Y-62770432D01*
X110414000Y-62784989D01*
X110414000Y-65418517D01*
X109906000Y-65418517D01*
X109906000Y-62783102D01*
X109902082Y-62769758D01*
X109887806Y-62767771D01*
X109849324Y-62773660D01*
X109839288Y-62776051D01*
X109636868Y-62842212D01*
X109627359Y-62846209D01*
X109438463Y-62944542D01*
X109429738Y-62950036D01*
X109259433Y-63077905D01*
X109251726Y-63084748D01*
X109104590Y-63238717D01*
X109098104Y-63246727D01*
X108978098Y-63422649D01*
X108973000Y-63431623D01*
X108883338Y-63624783D01*
X108879777Y-63634464D01*
X108875291Y-63650640D01*
X108837813Y-63710939D01*
X108773684Y-63741403D01*
X108703266Y-63732360D01*
X108648915Y-63686682D01*
X108640867Y-63672698D01*
X108568331Y-63525609D01*
X108565776Y-63520428D01*
X108552970Y-63503278D01*
X108530389Y-63473039D01*
X108444320Y-63357779D01*
X108295258Y-63219987D01*
X108290375Y-63216906D01*
X108290371Y-63216903D01*
X108128464Y-63114748D01*
X108123581Y-63111667D01*
X107935039Y-63036446D01*
X107929379Y-63035320D01*
X107929375Y-63035319D01*
X107741613Y-62997971D01*
X107741610Y-62997971D01*
X107735946Y-62996844D01*
X107730171Y-62996768D01*
X107730167Y-62996768D01*
X107628793Y-62995441D01*
X107532971Y-62994187D01*
X107527274Y-62995166D01*
X107527273Y-62995166D01*
X107439397Y-63010266D01*
X107332910Y-63028564D01*
X107142463Y-63098824D01*
X106968010Y-63202612D01*
X106963670Y-63206418D01*
X106963666Y-63206421D01*
X106819733Y-63332648D01*
X106815392Y-63336455D01*
X106689720Y-63495869D01*
X106687031Y-63500980D01*
X106687029Y-63500983D01*
X106674073Y-63525609D01*
X106595203Y-63675515D01*
X106535007Y-63869378D01*
X106511148Y-64070964D01*
X105787780Y-64070964D01*
X105788334Y-62264930D01*
X148622338Y-62264930D01*
X148641729Y-62511313D01*
X148643272Y-62521060D01*
X148700967Y-62761373D01*
X148704016Y-62770758D01*
X148798592Y-62999085D01*
X148803073Y-63007879D01*
X148929340Y-63213928D01*
X148937401Y-63219190D01*
X148947607Y-63213183D01*
X149887978Y-62272812D01*
X149894356Y-62261132D01*
X150624408Y-62261132D01*
X150624539Y-62262965D01*
X150628790Y-62269580D01*
X151570934Y-63211724D01*
X151584471Y-63219116D01*
X151589740Y-63215430D01*
X151716927Y-63007879D01*
X151721408Y-62999085D01*
X151815984Y-62770758D01*
X151819033Y-62761373D01*
X151876728Y-62521060D01*
X151878271Y-62511313D01*
X151897662Y-62264930D01*
X153702338Y-62264930D01*
X153721729Y-62511313D01*
X153723272Y-62521060D01*
X153780967Y-62761373D01*
X153784016Y-62770758D01*
X153878592Y-62999085D01*
X153883073Y-63007879D01*
X154009340Y-63213928D01*
X154017401Y-63219190D01*
X154027607Y-63213183D01*
X154967978Y-62272812D01*
X154975592Y-62258868D01*
X154975461Y-62257035D01*
X154971210Y-62250420D01*
X154029066Y-61308276D01*
X154015529Y-61300884D01*
X154010260Y-61304570D01*
X153883073Y-61512121D01*
X153878592Y-61520915D01*
X153784016Y-61749242D01*
X153780967Y-61758627D01*
X153723272Y-61998940D01*
X153721729Y-62008687D01*
X153702338Y-62255070D01*
X153702338Y-62264930D01*
X151897662Y-62264930D01*
X151897662Y-62255070D01*
X151878271Y-62008687D01*
X151876728Y-61998940D01*
X151819033Y-61758627D01*
X151815984Y-61749242D01*
X151721408Y-61520915D01*
X151716927Y-61512121D01*
X151590660Y-61306072D01*
X151582599Y-61300810D01*
X151572393Y-61306817D01*
X150632022Y-62247188D01*
X150624408Y-62261132D01*
X149894356Y-62261132D01*
X149895592Y-62258868D01*
X149895461Y-62257035D01*
X149891210Y-62250420D01*
X148949066Y-61308276D01*
X148935529Y-61300884D01*
X148930260Y-61304570D01*
X148803073Y-61512121D01*
X148798592Y-61520915D01*
X148704016Y-61749242D01*
X148700967Y-61758627D01*
X148643272Y-61998940D01*
X148641729Y-62008687D01*
X148622338Y-62255070D01*
X148622338Y-62264930D01*
X105788334Y-62264930D01*
X105789031Y-59992186D01*
X116991018Y-59992186D01*
X117016579Y-60260100D01*
X117080547Y-60521518D01*
X117181583Y-60770963D01*
X117317569Y-61003210D01*
X117485658Y-61213395D01*
X117682327Y-61397113D01*
X117903457Y-61550516D01*
X118144416Y-61670391D01*
X118148750Y-61671812D01*
X118148753Y-61671813D01*
X118395823Y-61752807D01*
X118395829Y-61752808D01*
X118400156Y-61754227D01*
X118404647Y-61755007D01*
X118404648Y-61755007D01*
X118661538Y-61799611D01*
X118661546Y-61799612D01*
X118665319Y-61800267D01*
X118669156Y-61800458D01*
X118748777Y-61804422D01*
X118748785Y-61804422D01*
X118750348Y-61804500D01*
X118918374Y-61804500D01*
X118920642Y-61804335D01*
X118920654Y-61804335D01*
X119051457Y-61794844D01*
X119118425Y-61789985D01*
X119122880Y-61789001D01*
X119122883Y-61789001D01*
X119376770Y-61732947D01*
X119376772Y-61732946D01*
X119381226Y-61731963D01*
X119632900Y-61636613D01*
X119868172Y-61505931D01*
X120014842Y-61393996D01*
X120078491Y-61345421D01*
X120078495Y-61345417D01*
X120082116Y-61342654D01*
X120270249Y-61150203D01*
X120377242Y-61003210D01*
X120425144Y-60937401D01*
X149300810Y-60937401D01*
X149306817Y-60947607D01*
X150247188Y-61887978D01*
X150261132Y-61895592D01*
X150262965Y-61895461D01*
X150269580Y-61891210D01*
X151211724Y-60949066D01*
X151219116Y-60935529D01*
X151215430Y-60930260D01*
X151007879Y-60803073D01*
X150999085Y-60798592D01*
X150770758Y-60704016D01*
X150761373Y-60700967D01*
X150521060Y-60643272D01*
X150511313Y-60641729D01*
X150264930Y-60622338D01*
X150255070Y-60622338D01*
X150008687Y-60641729D01*
X149998940Y-60643272D01*
X149758627Y-60700967D01*
X149749242Y-60704016D01*
X149520915Y-60798592D01*
X149512121Y-60803073D01*
X149306072Y-60929340D01*
X149300810Y-60937401D01*
X120425144Y-60937401D01*
X120425942Y-60936304D01*
X120425947Y-60936297D01*
X120428630Y-60932610D01*
X120553941Y-60694433D01*
X120643557Y-60440662D01*
X120668688Y-60313156D01*
X120694720Y-60181083D01*
X120694721Y-60181077D01*
X120695601Y-60176611D01*
X120704782Y-59992186D01*
X120708755Y-59912383D01*
X120708755Y-59912377D01*
X120708982Y-59907814D01*
X120683421Y-59639900D01*
X120619453Y-59378482D01*
X120518417Y-59129037D01*
X120382431Y-58896790D01*
X120214342Y-58686605D01*
X120017673Y-58502887D01*
X119796543Y-58349484D01*
X119555584Y-58229609D01*
X119551250Y-58228188D01*
X119551247Y-58228187D01*
X119304177Y-58147193D01*
X119304171Y-58147192D01*
X119299844Y-58145773D01*
X119295352Y-58144993D01*
X119038462Y-58100389D01*
X119038454Y-58100388D01*
X119034681Y-58099733D01*
X119024718Y-58099237D01*
X118951223Y-58095578D01*
X118951215Y-58095578D01*
X118949652Y-58095500D01*
X118781626Y-58095500D01*
X118779358Y-58095665D01*
X118779346Y-58095665D01*
X118648543Y-58105156D01*
X118581575Y-58110015D01*
X118577120Y-58110999D01*
X118577117Y-58110999D01*
X118323230Y-58167053D01*
X118323228Y-58167054D01*
X118318774Y-58168037D01*
X118067100Y-58263387D01*
X117831828Y-58394069D01*
X117828196Y-58396841D01*
X117621509Y-58554579D01*
X117621505Y-58554583D01*
X117617884Y-58557346D01*
X117429751Y-58749797D01*
X117427066Y-58753486D01*
X117274058Y-58963696D01*
X117274053Y-58963703D01*
X117271370Y-58967390D01*
X117146059Y-59205567D01*
X117056443Y-59459338D01*
X117055560Y-59463820D01*
X117020855Y-59639900D01*
X117004399Y-59723389D01*
X117004172Y-59727942D01*
X117004172Y-59727945D01*
X116994991Y-59912383D01*
X116991018Y-59992186D01*
X105789031Y-59992186D01*
X105790590Y-54910471D01*
X106693815Y-54910471D01*
X106729983Y-55176229D01*
X106805035Y-55433721D01*
X106917323Y-55677292D01*
X107064380Y-55901590D01*
X107067489Y-55905073D01*
X107067491Y-55905076D01*
X107098135Y-55939410D01*
X107242974Y-56101689D01*
X107449183Y-56273191D01*
X107678477Y-56412330D01*
X107682791Y-56414139D01*
X107682793Y-56414140D01*
X107921503Y-56514240D01*
X107921508Y-56514242D01*
X107925818Y-56516049D01*
X107930350Y-56517200D01*
X107930353Y-56517201D01*
X107986743Y-56531522D01*
X108185773Y-56582069D01*
X108408537Y-56604500D01*
X108568092Y-56604500D01*
X108570415Y-56604327D01*
X108570425Y-56604327D01*
X108762805Y-56590031D01*
X108762810Y-56590030D01*
X108767470Y-56589684D01*
X108772034Y-56588651D01*
X108772036Y-56588651D01*
X108912013Y-56556977D01*
X109029064Y-56530491D01*
X109033418Y-56528798D01*
X109274683Y-56434975D01*
X109274685Y-56434974D01*
X109279036Y-56433282D01*
X109312528Y-56414140D01*
X109365802Y-56383691D01*
X109511893Y-56300193D01*
X109722521Y-56134148D01*
X109906292Y-55938793D01*
X110018210Y-55777464D01*
X110056505Y-55722263D01*
X110056507Y-55722260D01*
X110059170Y-55718421D01*
X110067191Y-55702156D01*
X110175730Y-55482061D01*
X110175731Y-55482058D01*
X110177795Y-55477873D01*
X110190567Y-55437975D01*
X110253069Y-55242718D01*
X110259562Y-55222433D01*
X110300791Y-54969278D01*
X110301923Y-54962326D01*
X110301923Y-54962325D01*
X110302674Y-54957714D01*
X110303718Y-54877966D01*
X112460257Y-54877966D01*
X112490565Y-55012446D01*
X112493645Y-55022275D01*
X112573770Y-55219603D01*
X112578413Y-55228794D01*
X112689694Y-55410388D01*
X112695777Y-55418699D01*
X112835213Y-55579667D01*
X112842580Y-55586883D01*
X113006434Y-55722916D01*
X113014881Y-55728831D01*
X113198756Y-55836279D01*
X113208042Y-55840729D01*
X113407001Y-55916703D01*
X113416899Y-55919579D01*
X113520250Y-55940606D01*
X113534299Y-55939410D01*
X113538000Y-55929065D01*
X113538000Y-55928517D01*
X114046000Y-55928517D01*
X114050064Y-55942359D01*
X114063478Y-55944393D01*
X114070184Y-55943534D01*
X114080262Y-55941392D01*
X114284255Y-55880191D01*
X114293842Y-55876433D01*
X114485095Y-55782739D01*
X114493945Y-55777464D01*
X114667328Y-55653792D01*
X114675200Y-55647139D01*
X114826052Y-55496812D01*
X114832730Y-55488965D01*
X114957003Y-55316020D01*
X114962313Y-55307183D01*
X115056670Y-55116267D01*
X115060469Y-55106672D01*
X115077066Y-55052047D01*
X115116007Y-54992683D01*
X115180862Y-54963796D01*
X115251038Y-54974558D01*
X115304256Y-55021551D01*
X115312048Y-55035922D01*
X115371377Y-55164616D01*
X115488533Y-55330389D01*
X115633938Y-55472035D01*
X115802720Y-55584812D01*
X115808023Y-55587090D01*
X115808026Y-55587092D01*
X115983921Y-55662662D01*
X115989228Y-55664942D01*
X116061083Y-55681201D01*
X116181579Y-55708467D01*
X116181584Y-55708468D01*
X116187216Y-55709742D01*
X116192987Y-55709969D01*
X116192989Y-55709969D01*
X116252756Y-55712317D01*
X116390053Y-55717712D01*
X116497348Y-55702155D01*
X116585231Y-55689413D01*
X116585236Y-55689412D01*
X116590945Y-55688584D01*
X116596409Y-55686729D01*
X116596414Y-55686728D01*
X116777693Y-55625192D01*
X116777698Y-55625190D01*
X116783165Y-55623334D01*
X116960276Y-55524147D01*
X116999969Y-55491135D01*
X117087696Y-55418172D01*
X117116345Y-55394345D01*
X117246147Y-55238276D01*
X117345334Y-55061165D01*
X117347190Y-55055698D01*
X117347192Y-55055693D01*
X117408728Y-54874414D01*
X117408729Y-54874409D01*
X117410584Y-54868945D01*
X117411412Y-54863236D01*
X117411413Y-54863231D01*
X117439179Y-54671727D01*
X117439712Y-54668053D01*
X117441232Y-54610000D01*
X117438564Y-54580964D01*
X117763148Y-54580964D01*
X117776424Y-54783522D01*
X117777845Y-54789118D01*
X117777846Y-54789123D01*
X117808665Y-54910471D01*
X117826392Y-54980269D01*
X117828809Y-54985512D01*
X117866010Y-55066208D01*
X117911377Y-55164616D01*
X118028533Y-55330389D01*
X118173938Y-55472035D01*
X118342720Y-55584812D01*
X118348023Y-55587090D01*
X118348026Y-55587092D01*
X118523921Y-55662662D01*
X118529228Y-55664942D01*
X118601083Y-55681201D01*
X118721579Y-55708467D01*
X118721584Y-55708468D01*
X118727216Y-55709742D01*
X118732987Y-55709969D01*
X118732989Y-55709969D01*
X118792756Y-55712317D01*
X118930053Y-55717712D01*
X119037348Y-55702155D01*
X119125231Y-55689413D01*
X119125236Y-55689412D01*
X119130945Y-55688584D01*
X119136409Y-55686729D01*
X119136414Y-55686728D01*
X119317693Y-55625192D01*
X119317698Y-55625190D01*
X119323165Y-55623334D01*
X119500276Y-55524147D01*
X119539969Y-55491135D01*
X119627696Y-55418172D01*
X119656345Y-55394345D01*
X119786147Y-55238276D01*
X119885334Y-55061165D01*
X119887190Y-55055698D01*
X119887192Y-55055693D01*
X119948728Y-54874414D01*
X119948729Y-54874409D01*
X119950584Y-54868945D01*
X119951412Y-54863236D01*
X119951413Y-54863231D01*
X119979179Y-54671727D01*
X119979712Y-54668053D01*
X119981232Y-54610000D01*
X119978564Y-54580964D01*
X120303148Y-54580964D01*
X120316424Y-54783522D01*
X120317845Y-54789118D01*
X120317846Y-54789123D01*
X120348665Y-54910471D01*
X120366392Y-54980269D01*
X120368809Y-54985512D01*
X120406010Y-55066208D01*
X120451377Y-55164616D01*
X120568533Y-55330389D01*
X120713938Y-55472035D01*
X120882720Y-55584812D01*
X120888023Y-55587090D01*
X120888026Y-55587092D01*
X121063921Y-55662662D01*
X121069228Y-55664942D01*
X121141083Y-55681201D01*
X121261579Y-55708467D01*
X121261584Y-55708468D01*
X121267216Y-55709742D01*
X121272987Y-55709969D01*
X121272989Y-55709969D01*
X121332756Y-55712317D01*
X121470053Y-55717712D01*
X121577348Y-55702155D01*
X121665231Y-55689413D01*
X121665236Y-55689412D01*
X121670945Y-55688584D01*
X121676409Y-55686729D01*
X121676414Y-55686728D01*
X121857693Y-55625192D01*
X121857698Y-55625190D01*
X121863165Y-55623334D01*
X122040276Y-55524147D01*
X122079969Y-55491135D01*
X122167696Y-55418172D01*
X122196345Y-55394345D01*
X122326147Y-55238276D01*
X122425334Y-55061165D01*
X122427190Y-55055698D01*
X122427192Y-55055693D01*
X122488728Y-54874414D01*
X122488729Y-54874409D01*
X122490584Y-54868945D01*
X122491412Y-54863236D01*
X122491413Y-54863231D01*
X122519179Y-54671727D01*
X122519712Y-54668053D01*
X122521232Y-54610000D01*
X122518564Y-54580964D01*
X122843148Y-54580964D01*
X122856424Y-54783522D01*
X122857845Y-54789118D01*
X122857846Y-54789123D01*
X122888665Y-54910471D01*
X122906392Y-54980269D01*
X122908809Y-54985512D01*
X122946010Y-55066208D01*
X122991377Y-55164616D01*
X123108533Y-55330389D01*
X123253938Y-55472035D01*
X123422720Y-55584812D01*
X123428023Y-55587090D01*
X123428026Y-55587092D01*
X123603921Y-55662662D01*
X123609228Y-55664942D01*
X123681083Y-55681201D01*
X123801579Y-55708467D01*
X123801584Y-55708468D01*
X123807216Y-55709742D01*
X123812987Y-55709969D01*
X123812989Y-55709969D01*
X123872756Y-55712317D01*
X124010053Y-55717712D01*
X124117348Y-55702155D01*
X124205231Y-55689413D01*
X124205236Y-55689412D01*
X124210945Y-55688584D01*
X124216409Y-55686729D01*
X124216414Y-55686728D01*
X124397693Y-55625192D01*
X124397698Y-55625190D01*
X124403165Y-55623334D01*
X124580276Y-55524147D01*
X124619969Y-55491135D01*
X124707696Y-55418172D01*
X124736345Y-55394345D01*
X124866147Y-55238276D01*
X124965334Y-55061165D01*
X124967190Y-55055698D01*
X124967192Y-55055693D01*
X125028728Y-54874414D01*
X125028729Y-54874409D01*
X125030584Y-54868945D01*
X125031412Y-54863236D01*
X125031413Y-54863231D01*
X125059179Y-54671727D01*
X125059712Y-54668053D01*
X125061232Y-54610000D01*
X125042658Y-54407859D01*
X125041090Y-54402299D01*
X124989125Y-54218046D01*
X124989124Y-54218044D01*
X124987557Y-54212487D01*
X124976978Y-54191033D01*
X124900331Y-54035609D01*
X124897776Y-54030428D01*
X124776320Y-53867779D01*
X124632609Y-53734933D01*
X125387500Y-53734933D01*
X125387501Y-55485066D01*
X125402266Y-55559301D01*
X125409161Y-55569620D01*
X125409162Y-55569622D01*
X125449516Y-55630015D01*
X125458516Y-55643484D01*
X125542699Y-55699734D01*
X125616933Y-55714500D01*
X126491858Y-55714500D01*
X127367066Y-55714499D01*
X127402818Y-55707388D01*
X127429126Y-55702156D01*
X127429128Y-55702155D01*
X127441301Y-55699734D01*
X127451621Y-55692839D01*
X127451622Y-55692838D01*
X127515168Y-55650377D01*
X127525484Y-55643484D01*
X127581734Y-55559301D01*
X127596500Y-55485067D01*
X127596499Y-53734934D01*
X127596499Y-53734933D01*
X129832500Y-53734933D01*
X129832501Y-55485066D01*
X129847266Y-55559301D01*
X129854161Y-55569620D01*
X129854162Y-55569622D01*
X129894516Y-55630015D01*
X129903516Y-55643484D01*
X129987699Y-55699734D01*
X130061933Y-55714500D01*
X130936858Y-55714500D01*
X131812066Y-55714499D01*
X131847818Y-55707388D01*
X131874126Y-55702156D01*
X131874128Y-55702155D01*
X131886301Y-55699734D01*
X131896621Y-55692839D01*
X131896622Y-55692838D01*
X131960168Y-55650377D01*
X131970484Y-55643484D01*
X132026734Y-55559301D01*
X132041500Y-55485067D01*
X132041499Y-54580964D01*
X132368148Y-54580964D01*
X132381424Y-54783522D01*
X132382845Y-54789118D01*
X132382846Y-54789123D01*
X132413665Y-54910471D01*
X132431392Y-54980269D01*
X132433809Y-54985512D01*
X132471010Y-55066208D01*
X132516377Y-55164616D01*
X132633533Y-55330389D01*
X132778938Y-55472035D01*
X132947720Y-55584812D01*
X132953023Y-55587090D01*
X132953026Y-55587092D01*
X133128921Y-55662662D01*
X133134228Y-55664942D01*
X133206083Y-55681201D01*
X133326579Y-55708467D01*
X133326584Y-55708468D01*
X133332216Y-55709742D01*
X133337987Y-55709969D01*
X133337989Y-55709969D01*
X133397756Y-55712317D01*
X133535053Y-55717712D01*
X133642348Y-55702155D01*
X133730231Y-55689413D01*
X133730236Y-55689412D01*
X133735945Y-55688584D01*
X133741409Y-55686729D01*
X133741414Y-55686728D01*
X133922693Y-55625192D01*
X133922698Y-55625190D01*
X133928165Y-55623334D01*
X134105276Y-55524147D01*
X134144969Y-55491135D01*
X134232696Y-55418172D01*
X134261345Y-55394345D01*
X134391147Y-55238276D01*
X134490334Y-55061165D01*
X134492190Y-55055698D01*
X134492192Y-55055693D01*
X134553728Y-54874414D01*
X134553729Y-54874409D01*
X134555584Y-54868945D01*
X134556412Y-54863236D01*
X134556413Y-54863231D01*
X134584179Y-54671727D01*
X134584712Y-54668053D01*
X134586232Y-54610000D01*
X134583564Y-54580964D01*
X134908148Y-54580964D01*
X134921424Y-54783522D01*
X134922845Y-54789118D01*
X134922846Y-54789123D01*
X134953665Y-54910471D01*
X134971392Y-54980269D01*
X134973809Y-54985512D01*
X135011010Y-55066208D01*
X135056377Y-55164616D01*
X135173533Y-55330389D01*
X135318938Y-55472035D01*
X135487720Y-55584812D01*
X135493023Y-55587090D01*
X135493026Y-55587092D01*
X135668921Y-55662662D01*
X135674228Y-55664942D01*
X135746083Y-55681201D01*
X135866579Y-55708467D01*
X135866584Y-55708468D01*
X135872216Y-55709742D01*
X135877987Y-55709969D01*
X135877989Y-55709969D01*
X135937756Y-55712317D01*
X136075053Y-55717712D01*
X136182348Y-55702155D01*
X136270231Y-55689413D01*
X136270236Y-55689412D01*
X136275945Y-55688584D01*
X136281409Y-55686729D01*
X136281414Y-55686728D01*
X136462693Y-55625192D01*
X136462698Y-55625190D01*
X136468165Y-55623334D01*
X136645276Y-55524147D01*
X136684969Y-55491135D01*
X136772696Y-55418172D01*
X136801345Y-55394345D01*
X136931147Y-55238276D01*
X137030334Y-55061165D01*
X137032190Y-55055698D01*
X137032192Y-55055693D01*
X137093728Y-54874414D01*
X137093729Y-54874409D01*
X137095584Y-54868945D01*
X137096412Y-54863236D01*
X137096413Y-54863231D01*
X137124179Y-54671727D01*
X137124712Y-54668053D01*
X137126232Y-54610000D01*
X137123564Y-54580964D01*
X137448148Y-54580964D01*
X137461424Y-54783522D01*
X137462845Y-54789118D01*
X137462846Y-54789123D01*
X137493665Y-54910471D01*
X137511392Y-54980269D01*
X137513809Y-54985512D01*
X137551010Y-55066208D01*
X137596377Y-55164616D01*
X137713533Y-55330389D01*
X137858938Y-55472035D01*
X138027720Y-55584812D01*
X138033023Y-55587090D01*
X138033026Y-55587092D01*
X138208921Y-55662662D01*
X138214228Y-55664942D01*
X138286083Y-55681201D01*
X138406579Y-55708467D01*
X138406584Y-55708468D01*
X138412216Y-55709742D01*
X138417987Y-55709969D01*
X138417989Y-55709969D01*
X138477756Y-55712317D01*
X138615053Y-55717712D01*
X138722348Y-55702155D01*
X138810231Y-55689413D01*
X138810236Y-55689412D01*
X138815945Y-55688584D01*
X138821409Y-55686729D01*
X138821414Y-55686728D01*
X139002693Y-55625192D01*
X139002698Y-55625190D01*
X139008165Y-55623334D01*
X139185276Y-55524147D01*
X139224969Y-55491135D01*
X139312696Y-55418172D01*
X139341345Y-55394345D01*
X139471147Y-55238276D01*
X139570334Y-55061165D01*
X139572190Y-55055698D01*
X139572192Y-55055693D01*
X139633728Y-54874414D01*
X139633729Y-54874409D01*
X139635584Y-54868945D01*
X139636412Y-54863236D01*
X139636413Y-54863231D01*
X139664179Y-54671727D01*
X139664712Y-54668053D01*
X139666232Y-54610000D01*
X139663564Y-54580964D01*
X139988148Y-54580964D01*
X140001424Y-54783522D01*
X140002845Y-54789118D01*
X140002846Y-54789123D01*
X140033665Y-54910471D01*
X140051392Y-54980269D01*
X140053809Y-54985512D01*
X140091010Y-55066208D01*
X140136377Y-55164616D01*
X140253533Y-55330389D01*
X140398938Y-55472035D01*
X140567720Y-55584812D01*
X140573023Y-55587090D01*
X140573026Y-55587092D01*
X140748921Y-55662662D01*
X140754228Y-55664942D01*
X140826083Y-55681201D01*
X140946579Y-55708467D01*
X140946584Y-55708468D01*
X140952216Y-55709742D01*
X140957987Y-55709969D01*
X140957989Y-55709969D01*
X141017756Y-55712317D01*
X141155053Y-55717712D01*
X141262348Y-55702155D01*
X141350231Y-55689413D01*
X141350236Y-55689412D01*
X141355945Y-55688584D01*
X141361409Y-55686729D01*
X141361414Y-55686728D01*
X141542693Y-55625192D01*
X141542698Y-55625190D01*
X141548165Y-55623334D01*
X141725276Y-55524147D01*
X141764969Y-55491135D01*
X141852696Y-55418172D01*
X141881345Y-55394345D01*
X142011147Y-55238276D01*
X142110334Y-55061165D01*
X142112720Y-55054135D01*
X142113170Y-55053496D01*
X142114541Y-55050416D01*
X142115146Y-55050685D01*
X142153553Y-54996059D01*
X142219305Y-54969278D01*
X142289098Y-54982295D01*
X142340773Y-55030980D01*
X142348777Y-55047229D01*
X142418770Y-55219603D01*
X142423413Y-55228794D01*
X142534694Y-55410388D01*
X142540777Y-55418699D01*
X142680213Y-55579667D01*
X142687580Y-55586883D01*
X142851434Y-55722916D01*
X142859881Y-55728831D01*
X143043756Y-55836279D01*
X143053042Y-55840729D01*
X143252001Y-55916703D01*
X143261899Y-55919579D01*
X143365250Y-55940606D01*
X143379299Y-55939410D01*
X143383000Y-55929065D01*
X143383000Y-55928517D01*
X143891000Y-55928517D01*
X143895064Y-55942359D01*
X143908478Y-55944393D01*
X143915184Y-55943534D01*
X143925262Y-55941392D01*
X144129255Y-55880191D01*
X144138842Y-55876433D01*
X144330095Y-55782739D01*
X144338945Y-55777464D01*
X144512328Y-55653792D01*
X144520200Y-55647139D01*
X144671052Y-55496812D01*
X144677730Y-55488965D01*
X144802003Y-55316020D01*
X144807313Y-55307183D01*
X144901670Y-55116267D01*
X144905469Y-55106672D01*
X144965080Y-54910471D01*
X151693815Y-54910471D01*
X151729983Y-55176229D01*
X151805035Y-55433721D01*
X151917323Y-55677292D01*
X152064380Y-55901590D01*
X152067489Y-55905073D01*
X152067491Y-55905076D01*
X152098135Y-55939410D01*
X152242974Y-56101689D01*
X152449183Y-56273191D01*
X152678477Y-56412330D01*
X152682791Y-56414139D01*
X152682793Y-56414140D01*
X152921503Y-56514240D01*
X152921508Y-56514242D01*
X152925818Y-56516049D01*
X152930350Y-56517200D01*
X152930353Y-56517201D01*
X152986743Y-56531522D01*
X153185773Y-56582069D01*
X153408537Y-56604500D01*
X153568092Y-56604500D01*
X153570415Y-56604327D01*
X153570425Y-56604327D01*
X153762805Y-56590031D01*
X153762810Y-56590030D01*
X153767470Y-56589684D01*
X153772034Y-56588651D01*
X153772036Y-56588651D01*
X153912013Y-56556977D01*
X154029064Y-56530491D01*
X154033418Y-56528798D01*
X154274683Y-56434975D01*
X154274685Y-56434974D01*
X154279036Y-56433282D01*
X154312528Y-56414140D01*
X154365802Y-56383691D01*
X154511893Y-56300193D01*
X154722521Y-56134148D01*
X154906292Y-55938793D01*
X155018210Y-55777464D01*
X155056505Y-55722263D01*
X155056507Y-55722260D01*
X155059170Y-55718421D01*
X155067191Y-55702156D01*
X155175730Y-55482061D01*
X155175731Y-55482058D01*
X155177795Y-55477873D01*
X155190567Y-55437975D01*
X155253069Y-55242718D01*
X155259562Y-55222433D01*
X155300791Y-54969278D01*
X155301923Y-54962326D01*
X155301923Y-54962325D01*
X155302674Y-54957714D01*
X155304881Y-54789123D01*
X155306124Y-54694206D01*
X155306124Y-54694203D01*
X155306185Y-54689529D01*
X155270017Y-54423771D01*
X155263759Y-54402299D01*
X155218818Y-54248115D01*
X155194965Y-54166279D01*
X155192366Y-54160640D01*
X155132337Y-54030428D01*
X155082677Y-53922708D01*
X154935620Y-53698410D01*
X154912829Y-53672874D01*
X154760132Y-53501791D01*
X154757026Y-53498311D01*
X154550817Y-53326809D01*
X154321523Y-53187670D01*
X154317207Y-53185860D01*
X154078497Y-53085760D01*
X154078492Y-53085758D01*
X154074182Y-53083951D01*
X154069650Y-53082800D01*
X154069647Y-53082799D01*
X153872829Y-53032814D01*
X153814227Y-53017931D01*
X153591463Y-52995500D01*
X153431908Y-52995500D01*
X153429585Y-52995673D01*
X153429575Y-52995673D01*
X153237195Y-53009969D01*
X153237190Y-53009970D01*
X153232530Y-53010316D01*
X153227966Y-53011349D01*
X153227964Y-53011349D01*
X153087987Y-53043023D01*
X152970936Y-53069509D01*
X152966584Y-53071201D01*
X152966582Y-53071202D01*
X152725317Y-53165025D01*
X152725315Y-53165026D01*
X152720964Y-53166718D01*
X152716910Y-53169035D01*
X152716908Y-53169036D01*
X152634198Y-53216309D01*
X152488107Y-53299807D01*
X152277479Y-53465852D01*
X152093708Y-53661207D01*
X152009268Y-53782926D01*
X151953126Y-53863855D01*
X151940830Y-53881579D01*
X151938763Y-53885769D01*
X151938762Y-53885772D01*
X151869708Y-54025801D01*
X151822205Y-54122127D01*
X151820783Y-54126570D01*
X151820782Y-54126572D01*
X151791501Y-54218046D01*
X151740438Y-54377567D01*
X151697326Y-54642286D01*
X151697265Y-54646963D01*
X151694241Y-54877966D01*
X151693815Y-54910471D01*
X144965080Y-54910471D01*
X144967377Y-54902910D01*
X144969555Y-54892837D01*
X144970986Y-54881962D01*
X144968775Y-54867778D01*
X144955617Y-54864000D01*
X143909115Y-54864000D01*
X143893876Y-54868475D01*
X143892671Y-54869865D01*
X143891000Y-54877548D01*
X143891000Y-55928517D01*
X143383000Y-55928517D01*
X143383000Y-54337885D01*
X143891000Y-54337885D01*
X143895475Y-54353124D01*
X143896865Y-54354329D01*
X143904548Y-54356000D01*
X144955344Y-54356000D01*
X144968875Y-54352027D01*
X144970180Y-54342947D01*
X144928214Y-54175875D01*
X144924894Y-54166124D01*
X144839972Y-53970814D01*
X144835105Y-53961739D01*
X144719426Y-53782926D01*
X144713136Y-53774757D01*
X144569806Y-53617240D01*
X144562273Y-53610215D01*
X144395139Y-53478222D01*
X144386552Y-53472517D01*
X144200117Y-53369599D01*
X144190705Y-53365369D01*
X143989959Y-53294280D01*
X143979988Y-53291646D01*
X143908837Y-53278972D01*
X143895540Y-53280432D01*
X143891000Y-53294989D01*
X143891000Y-54337885D01*
X143383000Y-54337885D01*
X143383000Y-53293102D01*
X143379082Y-53279758D01*
X143364806Y-53277771D01*
X143326324Y-53283660D01*
X143316288Y-53286051D01*
X143113868Y-53352212D01*
X143104359Y-53356209D01*
X142915463Y-53454542D01*
X142906738Y-53460036D01*
X142736433Y-53587905D01*
X142728726Y-53594748D01*
X142581590Y-53748717D01*
X142575104Y-53756727D01*
X142455098Y-53932649D01*
X142450000Y-53941623D01*
X142360338Y-54134783D01*
X142356777Y-54144464D01*
X142352291Y-54160640D01*
X142314813Y-54220939D01*
X142250684Y-54251403D01*
X142180266Y-54242360D01*
X142125915Y-54196682D01*
X142117867Y-54182698D01*
X142045331Y-54035609D01*
X142042776Y-54030428D01*
X141921320Y-53867779D01*
X141772258Y-53729987D01*
X141767375Y-53726906D01*
X141767371Y-53726903D01*
X141605464Y-53624748D01*
X141600581Y-53621667D01*
X141412039Y-53546446D01*
X141406379Y-53545320D01*
X141406375Y-53545319D01*
X141218613Y-53507971D01*
X141218610Y-53507971D01*
X141212946Y-53506844D01*
X141207171Y-53506768D01*
X141207167Y-53506768D01*
X141105793Y-53505441D01*
X141009971Y-53504187D01*
X141004274Y-53505166D01*
X141004273Y-53505166D01*
X140916397Y-53520266D01*
X140809910Y-53538564D01*
X140619463Y-53608824D01*
X140445010Y-53712612D01*
X140440670Y-53716418D01*
X140440666Y-53716421D01*
X140296733Y-53842648D01*
X140292392Y-53846455D01*
X140166720Y-54005869D01*
X140164031Y-54010980D01*
X140164029Y-54010983D01*
X140116128Y-54102027D01*
X140072203Y-54185515D01*
X140063828Y-54212487D01*
X140013950Y-54373122D01*
X140012007Y-54379378D01*
X139988148Y-54580964D01*
X139663564Y-54580964D01*
X139647658Y-54407859D01*
X139646090Y-54402299D01*
X139594125Y-54218046D01*
X139594124Y-54218044D01*
X139592557Y-54212487D01*
X139581978Y-54191033D01*
X139505331Y-54035609D01*
X139502776Y-54030428D01*
X139381320Y-53867779D01*
X139232258Y-53729987D01*
X139227375Y-53726906D01*
X139227371Y-53726903D01*
X139065464Y-53624748D01*
X139060581Y-53621667D01*
X138872039Y-53546446D01*
X138866379Y-53545320D01*
X138866375Y-53545319D01*
X138678613Y-53507971D01*
X138678610Y-53507971D01*
X138672946Y-53506844D01*
X138667171Y-53506768D01*
X138667167Y-53506768D01*
X138565793Y-53505441D01*
X138469971Y-53504187D01*
X138464274Y-53505166D01*
X138464273Y-53505166D01*
X138376397Y-53520266D01*
X138269910Y-53538564D01*
X138079463Y-53608824D01*
X137905010Y-53712612D01*
X137900670Y-53716418D01*
X137900666Y-53716421D01*
X137756733Y-53842648D01*
X137752392Y-53846455D01*
X137626720Y-54005869D01*
X137624031Y-54010980D01*
X137624029Y-54010983D01*
X137576128Y-54102027D01*
X137532203Y-54185515D01*
X137523828Y-54212487D01*
X137473950Y-54373122D01*
X137472007Y-54379378D01*
X137448148Y-54580964D01*
X137123564Y-54580964D01*
X137107658Y-54407859D01*
X137106090Y-54402299D01*
X137054125Y-54218046D01*
X137054124Y-54218044D01*
X137052557Y-54212487D01*
X137041978Y-54191033D01*
X136965331Y-54035609D01*
X136962776Y-54030428D01*
X136841320Y-53867779D01*
X136692258Y-53729987D01*
X136687375Y-53726906D01*
X136687371Y-53726903D01*
X136525464Y-53624748D01*
X136520581Y-53621667D01*
X136332039Y-53546446D01*
X136326379Y-53545320D01*
X136326375Y-53545319D01*
X136138613Y-53507971D01*
X136138610Y-53507971D01*
X136132946Y-53506844D01*
X136127171Y-53506768D01*
X136127167Y-53506768D01*
X136025793Y-53505441D01*
X135929971Y-53504187D01*
X135924274Y-53505166D01*
X135924273Y-53505166D01*
X135836397Y-53520266D01*
X135729910Y-53538564D01*
X135539463Y-53608824D01*
X135365010Y-53712612D01*
X135360670Y-53716418D01*
X135360666Y-53716421D01*
X135216733Y-53842648D01*
X135212392Y-53846455D01*
X135086720Y-54005869D01*
X135084031Y-54010980D01*
X135084029Y-54010983D01*
X135036128Y-54102027D01*
X134992203Y-54185515D01*
X134983828Y-54212487D01*
X134933950Y-54373122D01*
X134932007Y-54379378D01*
X134908148Y-54580964D01*
X134583564Y-54580964D01*
X134567658Y-54407859D01*
X134566090Y-54402299D01*
X134514125Y-54218046D01*
X134514124Y-54218044D01*
X134512557Y-54212487D01*
X134501978Y-54191033D01*
X134425331Y-54035609D01*
X134422776Y-54030428D01*
X134301320Y-53867779D01*
X134152258Y-53729987D01*
X134147375Y-53726906D01*
X134147371Y-53726903D01*
X133985464Y-53624748D01*
X133980581Y-53621667D01*
X133792039Y-53546446D01*
X133786379Y-53545320D01*
X133786375Y-53545319D01*
X133598613Y-53507971D01*
X133598610Y-53507971D01*
X133592946Y-53506844D01*
X133587171Y-53506768D01*
X133587167Y-53506768D01*
X133485793Y-53505441D01*
X133389971Y-53504187D01*
X133384274Y-53505166D01*
X133384273Y-53505166D01*
X133296397Y-53520266D01*
X133189910Y-53538564D01*
X132999463Y-53608824D01*
X132825010Y-53712612D01*
X132820670Y-53716418D01*
X132820666Y-53716421D01*
X132676733Y-53842648D01*
X132672392Y-53846455D01*
X132546720Y-54005869D01*
X132544031Y-54010980D01*
X132544029Y-54010983D01*
X132496128Y-54102027D01*
X132452203Y-54185515D01*
X132443828Y-54212487D01*
X132393950Y-54373122D01*
X132392007Y-54379378D01*
X132368148Y-54580964D01*
X132041499Y-54580964D01*
X132041499Y-53734934D01*
X132026734Y-53660699D01*
X132017259Y-53646518D01*
X131977377Y-53586832D01*
X131970484Y-53576516D01*
X131886301Y-53520266D01*
X131812067Y-53505500D01*
X130937142Y-53505500D01*
X130061934Y-53505501D01*
X130026182Y-53512612D01*
X129999874Y-53517844D01*
X129999872Y-53517845D01*
X129987699Y-53520266D01*
X129977379Y-53527161D01*
X129977378Y-53527162D01*
X129919760Y-53565662D01*
X129903516Y-53576516D01*
X129847266Y-53660699D01*
X129832500Y-53734933D01*
X127596499Y-53734933D01*
X127581734Y-53660699D01*
X127572259Y-53646518D01*
X127532377Y-53586832D01*
X127525484Y-53576516D01*
X127441301Y-53520266D01*
X127367067Y-53505500D01*
X126492142Y-53505500D01*
X125616934Y-53505501D01*
X125581182Y-53512612D01*
X125554874Y-53517844D01*
X125554872Y-53517845D01*
X125542699Y-53520266D01*
X125532379Y-53527161D01*
X125532378Y-53527162D01*
X125474760Y-53565662D01*
X125458516Y-53576516D01*
X125402266Y-53660699D01*
X125387500Y-53734933D01*
X124632609Y-53734933D01*
X124627258Y-53729987D01*
X124622375Y-53726906D01*
X124622371Y-53726903D01*
X124460464Y-53624748D01*
X124455581Y-53621667D01*
X124267039Y-53546446D01*
X124261379Y-53545320D01*
X124261375Y-53545319D01*
X124073613Y-53507971D01*
X124073610Y-53507971D01*
X124067946Y-53506844D01*
X124062171Y-53506768D01*
X124062167Y-53506768D01*
X123960793Y-53505441D01*
X123864971Y-53504187D01*
X123859274Y-53505166D01*
X123859273Y-53505166D01*
X123771397Y-53520266D01*
X123664910Y-53538564D01*
X123474463Y-53608824D01*
X123300010Y-53712612D01*
X123295670Y-53716418D01*
X123295666Y-53716421D01*
X123151733Y-53842648D01*
X123147392Y-53846455D01*
X123021720Y-54005869D01*
X123019031Y-54010980D01*
X123019029Y-54010983D01*
X122971128Y-54102027D01*
X122927203Y-54185515D01*
X122918828Y-54212487D01*
X122868950Y-54373122D01*
X122867007Y-54379378D01*
X122843148Y-54580964D01*
X122518564Y-54580964D01*
X122502658Y-54407859D01*
X122501090Y-54402299D01*
X122449125Y-54218046D01*
X122449124Y-54218044D01*
X122447557Y-54212487D01*
X122436978Y-54191033D01*
X122360331Y-54035609D01*
X122357776Y-54030428D01*
X122236320Y-53867779D01*
X122087258Y-53729987D01*
X122082375Y-53726906D01*
X122082371Y-53726903D01*
X121920464Y-53624748D01*
X121915581Y-53621667D01*
X121727039Y-53546446D01*
X121721379Y-53545320D01*
X121721375Y-53545319D01*
X121533613Y-53507971D01*
X121533610Y-53507971D01*
X121527946Y-53506844D01*
X121522171Y-53506768D01*
X121522167Y-53506768D01*
X121420793Y-53505441D01*
X121324971Y-53504187D01*
X121319274Y-53505166D01*
X121319273Y-53505166D01*
X121231397Y-53520266D01*
X121124910Y-53538564D01*
X120934463Y-53608824D01*
X120760010Y-53712612D01*
X120755670Y-53716418D01*
X120755666Y-53716421D01*
X120611733Y-53842648D01*
X120607392Y-53846455D01*
X120481720Y-54005869D01*
X120479031Y-54010980D01*
X120479029Y-54010983D01*
X120431128Y-54102027D01*
X120387203Y-54185515D01*
X120378828Y-54212487D01*
X120328950Y-54373122D01*
X120327007Y-54379378D01*
X120303148Y-54580964D01*
X119978564Y-54580964D01*
X119962658Y-54407859D01*
X119961090Y-54402299D01*
X119909125Y-54218046D01*
X119909124Y-54218044D01*
X119907557Y-54212487D01*
X119896978Y-54191033D01*
X119820331Y-54035609D01*
X119817776Y-54030428D01*
X119696320Y-53867779D01*
X119547258Y-53729987D01*
X119542375Y-53726906D01*
X119542371Y-53726903D01*
X119380464Y-53624748D01*
X119375581Y-53621667D01*
X119187039Y-53546446D01*
X119181379Y-53545320D01*
X119181375Y-53545319D01*
X118993613Y-53507971D01*
X118993610Y-53507971D01*
X118987946Y-53506844D01*
X118982171Y-53506768D01*
X118982167Y-53506768D01*
X118880793Y-53505441D01*
X118784971Y-53504187D01*
X118779274Y-53505166D01*
X118779273Y-53505166D01*
X118691397Y-53520266D01*
X118584910Y-53538564D01*
X118394463Y-53608824D01*
X118220010Y-53712612D01*
X118215670Y-53716418D01*
X118215666Y-53716421D01*
X118071733Y-53842648D01*
X118067392Y-53846455D01*
X117941720Y-54005869D01*
X117939031Y-54010980D01*
X117939029Y-54010983D01*
X117891128Y-54102027D01*
X117847203Y-54185515D01*
X117838828Y-54212487D01*
X117788950Y-54373122D01*
X117787007Y-54379378D01*
X117763148Y-54580964D01*
X117438564Y-54580964D01*
X117422658Y-54407859D01*
X117421090Y-54402299D01*
X117369125Y-54218046D01*
X117369124Y-54218044D01*
X117367557Y-54212487D01*
X117356978Y-54191033D01*
X117280331Y-54035609D01*
X117277776Y-54030428D01*
X117156320Y-53867779D01*
X117007258Y-53729987D01*
X117002375Y-53726906D01*
X117002371Y-53726903D01*
X116840464Y-53624748D01*
X116835581Y-53621667D01*
X116647039Y-53546446D01*
X116641379Y-53545320D01*
X116641375Y-53545319D01*
X116453613Y-53507971D01*
X116453610Y-53507971D01*
X116447946Y-53506844D01*
X116442171Y-53506768D01*
X116442167Y-53506768D01*
X116340793Y-53505441D01*
X116244971Y-53504187D01*
X116239274Y-53505166D01*
X116239273Y-53505166D01*
X116151397Y-53520266D01*
X116044910Y-53538564D01*
X115854463Y-53608824D01*
X115680010Y-53712612D01*
X115675670Y-53716418D01*
X115675666Y-53716421D01*
X115531733Y-53842648D01*
X115527392Y-53846455D01*
X115401720Y-54005869D01*
X115399031Y-54010980D01*
X115399029Y-54010983D01*
X115309589Y-54180980D01*
X115260170Y-54231952D01*
X115191037Y-54248115D01*
X115124141Y-54224336D01*
X115084003Y-54169973D01*
X115081955Y-54170863D01*
X114994972Y-53970814D01*
X114990105Y-53961739D01*
X114874426Y-53782926D01*
X114868136Y-53774757D01*
X114724806Y-53617240D01*
X114717273Y-53610215D01*
X114550139Y-53478222D01*
X114541552Y-53472517D01*
X114355117Y-53369599D01*
X114345705Y-53365369D01*
X114144959Y-53294280D01*
X114134988Y-53291646D01*
X114063837Y-53278972D01*
X114050540Y-53280432D01*
X114046000Y-53294989D01*
X114046000Y-55928517D01*
X113538000Y-55928517D01*
X113538000Y-54882115D01*
X113533525Y-54866876D01*
X113532135Y-54865671D01*
X113524452Y-54864000D01*
X112475225Y-54864000D01*
X112461694Y-54867973D01*
X112460257Y-54877966D01*
X110303718Y-54877966D01*
X110304881Y-54789123D01*
X110306124Y-54694206D01*
X110306124Y-54694203D01*
X110306185Y-54689529D01*
X110270017Y-54423771D01*
X110263759Y-54402299D01*
X110246820Y-54344183D01*
X112456389Y-54344183D01*
X112457912Y-54352607D01*
X112470292Y-54356000D01*
X113519885Y-54356000D01*
X113535124Y-54351525D01*
X113536329Y-54350135D01*
X113538000Y-54342452D01*
X113538000Y-53293102D01*
X113534082Y-53279758D01*
X113519806Y-53277771D01*
X113481324Y-53283660D01*
X113471288Y-53286051D01*
X113268868Y-53352212D01*
X113259359Y-53356209D01*
X113070463Y-53454542D01*
X113061738Y-53460036D01*
X112891433Y-53587905D01*
X112883726Y-53594748D01*
X112736590Y-53748717D01*
X112730104Y-53756727D01*
X112610098Y-53932649D01*
X112605000Y-53941623D01*
X112515338Y-54134783D01*
X112511775Y-54144470D01*
X112456389Y-54344183D01*
X110246820Y-54344183D01*
X110218818Y-54248115D01*
X110194965Y-54166279D01*
X110192366Y-54160640D01*
X110132337Y-54030428D01*
X110082677Y-53922708D01*
X109935620Y-53698410D01*
X109912829Y-53672874D01*
X109760132Y-53501791D01*
X109757026Y-53498311D01*
X109550817Y-53326809D01*
X109321523Y-53187670D01*
X109317207Y-53185860D01*
X109078497Y-53085760D01*
X109078492Y-53085758D01*
X109074182Y-53083951D01*
X109069650Y-53082800D01*
X109069647Y-53082799D01*
X108872829Y-53032814D01*
X108814227Y-53017931D01*
X108591463Y-52995500D01*
X108431908Y-52995500D01*
X108429585Y-52995673D01*
X108429575Y-52995673D01*
X108237195Y-53009969D01*
X108237190Y-53009970D01*
X108232530Y-53010316D01*
X108227966Y-53011349D01*
X108227964Y-53011349D01*
X108087987Y-53043023D01*
X107970936Y-53069509D01*
X107966584Y-53071201D01*
X107966582Y-53071202D01*
X107725317Y-53165025D01*
X107725315Y-53165026D01*
X107720964Y-53166718D01*
X107716910Y-53169035D01*
X107716908Y-53169036D01*
X107634198Y-53216309D01*
X107488107Y-53299807D01*
X107277479Y-53465852D01*
X107093708Y-53661207D01*
X107009268Y-53782926D01*
X106953126Y-53863855D01*
X106940830Y-53881579D01*
X106938763Y-53885769D01*
X106938762Y-53885772D01*
X106869708Y-54025801D01*
X106822205Y-54122127D01*
X106820783Y-54126570D01*
X106820782Y-54126572D01*
X106791501Y-54218046D01*
X106740438Y-54377567D01*
X106697326Y-54642286D01*
X106697265Y-54646963D01*
X106694241Y-54877966D01*
X106693815Y-54910471D01*
X105790590Y-54910471D01*
X105791383Y-52323460D01*
X105811406Y-52255347D01*
X105865076Y-52208870D01*
X105917383Y-52197500D01*
X156464321Y-52197500D01*
X156532442Y-52217502D01*
G37*
G04 #@! TD.AperFunction*
G04 #@! TD*
M02*
