G04 #@! TF.GenerationSoftware,KiCad,Pcbnew,(6.0.10)*
G04 #@! TF.CreationDate,2023-02-10T19:23:53+01:00*
G04 #@! TF.ProjectId,astropix_v3,61737472-6f70-4697-985f-76332e6b6963,1.0*
G04 #@! TF.SameCoordinates,Original*
G04 #@! TF.FileFunction,Legend,Top*
G04 #@! TF.FilePolarity,Positive*
%FSLAX46Y46*%
G04 Gerber Fmt 4.6, Leading zero omitted, Abs format (unit mm)*
G04 Created by KiCad (PCBNEW (6.0.10)) date 2023-02-10 19:23:53*
%MOMM*%
%LPD*%
G01*
G04 APERTURE LIST*
G04 Aperture macros list*
%AMRoundRect*
0 Rectangle with rounded corners*
0 $1 Rounding radius*
0 $2 $3 $4 $5 $6 $7 $8 $9 X,Y pos of 4 corners*
0 Add a 4 corners polygon primitive as box body*
4,1,4,$2,$3,$4,$5,$6,$7,$8,$9,$2,$3,0*
0 Add four circle primitives for the rounded corners*
1,1,$1+$1,$2,$3*
1,1,$1+$1,$4,$5*
1,1,$1+$1,$6,$7*
1,1,$1+$1,$8,$9*
0 Add four rect primitives between the rounded corners*
20,1,$1+$1,$2,$3,$4,$5,0*
20,1,$1+$1,$4,$5,$6,$7,0*
20,1,$1+$1,$6,$7,$8,$9,0*
20,1,$1+$1,$8,$9,$2,$3,0*%
G04 Aperture macros list end*
%ADD10C,0.100000*%
%ADD11C,0.200000*%
%ADD12C,0.120000*%
%ADD13C,0.300000*%
%ADD14C,0.150000*%
%ADD15C,0.010000*%
%ADD16C,0.475000*%
%ADD17C,3.200000*%
%ADD18RoundRect,0.225000X-0.250000X0.225000X-0.250000X-0.225000X0.250000X-0.225000X0.250000X0.225000X0*%
%ADD19C,2.250000*%
%ADD20R,1.700000X1.700000*%
%ADD21O,1.700000X1.700000*%
%ADD22RoundRect,0.249999X1.100001X-0.325001X1.100001X0.325001X-1.100001X0.325001X-1.100001X-0.325001X0*%
%ADD23C,2.000000*%
%ADD24R,0.300000X0.575000*%
%ADD25R,0.250000X0.575000*%
%ADD26R,0.630000X0.350000*%
%ADD27RoundRect,0.135000X-0.135000X-0.185000X0.135000X-0.185000X0.135000X0.185000X-0.135000X0.185000X0*%
%ADD28R,0.700000X4.300000*%
%ADD29R,0.700000X3.200000*%
%ADD30RoundRect,0.225000X0.250000X-0.225000X0.250000X0.225000X-0.250000X0.225000X-0.250000X-0.225000X0*%
%ADD31RoundRect,0.200000X-0.275000X0.200000X-0.275000X-0.200000X0.275000X-0.200000X0.275000X0.200000X0*%
%ADD32RoundRect,0.135000X0.185000X-0.135000X0.185000X0.135000X-0.185000X0.135000X-0.185000X-0.135000X0*%
%ADD33RoundRect,0.135000X-0.185000X0.135000X-0.185000X-0.135000X0.185000X-0.135000X0.185000X0.135000X0*%
%ADD34C,3.100000*%
%ADD35RoundRect,0.200000X0.275000X-0.200000X0.275000X0.200000X-0.275000X0.200000X-0.275000X-0.200000X0*%
%ADD36C,0.600000*%
%ADD37R,0.600000X0.125000*%
%ADD38R,0.125000X0.500000*%
%ADD39R,0.125000X0.600000*%
%ADD40R,0.100000X0.100000*%
%ADD41R,19.210000X19.980000*%
%ADD42RoundRect,0.200000X-0.200000X-0.275000X0.200000X-0.275000X0.200000X0.275000X-0.200000X0.275000X0*%
%ADD43C,0.450000*%
G04 APERTURE END LIST*
D10*
G36*
X152908000Y-100330000D02*
G01*
X141630400Y-100330000D01*
X141630400Y-93472000D01*
X152908000Y-93472000D01*
X152908000Y-100330000D01*
G37*
X152908000Y-100330000D02*
X141630400Y-100330000D01*
X141630400Y-93472000D01*
X152908000Y-93472000D01*
X152908000Y-100330000D01*
D11*
X115570000Y-86995000D02*
X115951000Y-86995000D01*
D12*
X121800000Y-94100000D02*
X117700000Y-93700000D01*
D13*
X126275952Y-58433333D02*
X127228333Y-58433333D01*
X126085476Y-59004761D02*
X126752142Y-57004761D01*
X127418809Y-59004761D01*
X127990238Y-58909523D02*
X128180714Y-59004761D01*
X128561666Y-59004761D01*
X128752142Y-58909523D01*
X128847380Y-58719047D01*
X128847380Y-58623809D01*
X128752142Y-58433333D01*
X128561666Y-58338095D01*
X128275952Y-58338095D01*
X128085476Y-58242857D01*
X127990238Y-58052380D01*
X127990238Y-57957142D01*
X128085476Y-57766666D01*
X128275952Y-57671428D01*
X128561666Y-57671428D01*
X128752142Y-57766666D01*
X129418809Y-57671428D02*
X130180714Y-57671428D01*
X129704523Y-57004761D02*
X129704523Y-58719047D01*
X129799761Y-58909523D01*
X129990238Y-59004761D01*
X130180714Y-59004761D01*
X130847380Y-59004761D02*
X130847380Y-57671428D01*
X130847380Y-58052380D02*
X130942619Y-57861904D01*
X131037857Y-57766666D01*
X131228333Y-57671428D01*
X131418809Y-57671428D01*
X132371190Y-59004761D02*
X132180714Y-58909523D01*
X132085476Y-58814285D01*
X131990238Y-58623809D01*
X131990238Y-58052380D01*
X132085476Y-57861904D01*
X132180714Y-57766666D01*
X132371190Y-57671428D01*
X132656904Y-57671428D01*
X132847380Y-57766666D01*
X132942619Y-57861904D01*
X133037857Y-58052380D01*
X133037857Y-58623809D01*
X132942619Y-58814285D01*
X132847380Y-58909523D01*
X132656904Y-59004761D01*
X132371190Y-59004761D01*
X133895000Y-59004761D02*
X133895000Y-57004761D01*
X134656904Y-57004761D01*
X134847380Y-57100000D01*
X134942619Y-57195238D01*
X135037857Y-57385714D01*
X135037857Y-57671428D01*
X134942619Y-57861904D01*
X134847380Y-57957142D01*
X134656904Y-58052380D01*
X133895000Y-58052380D01*
X135895000Y-59004761D02*
X135895000Y-57671428D01*
X135895000Y-57004761D02*
X135799761Y-57100000D01*
X135895000Y-57195238D01*
X135990238Y-57100000D01*
X135895000Y-57004761D01*
X135895000Y-57195238D01*
X136656904Y-59004761D02*
X137704523Y-57671428D01*
X136656904Y-57671428D02*
X137704523Y-59004761D01*
X138275952Y-57004761D02*
X139514047Y-57004761D01*
X138847380Y-57766666D01*
X139133095Y-57766666D01*
X139323571Y-57861904D01*
X139418809Y-57957142D01*
X139514047Y-58147619D01*
X139514047Y-58623809D01*
X139418809Y-58814285D01*
X139323571Y-58909523D01*
X139133095Y-59004761D01*
X138561666Y-59004761D01*
X138371190Y-58909523D01*
X138275952Y-58814285D01*
D11*
X144334476Y-91657904D02*
X144334476Y-90857904D01*
X144791619Y-91657904D01*
X144791619Y-90857904D01*
X145172571Y-91581714D02*
X145210666Y-91619809D01*
X145172571Y-91657904D01*
X145134476Y-91619809D01*
X145172571Y-91581714D01*
X145172571Y-91657904D01*
X146124952Y-91619809D02*
X146239238Y-91657904D01*
X146429714Y-91657904D01*
X146505904Y-91619809D01*
X146544000Y-91581714D01*
X146582095Y-91505523D01*
X146582095Y-91429333D01*
X146544000Y-91353142D01*
X146505904Y-91315047D01*
X146429714Y-91276952D01*
X146277333Y-91238857D01*
X146201142Y-91200761D01*
X146163047Y-91162666D01*
X146124952Y-91086476D01*
X146124952Y-91010285D01*
X146163047Y-90934095D01*
X146201142Y-90896000D01*
X146277333Y-90857904D01*
X146467809Y-90857904D01*
X146582095Y-90896000D01*
X146810666Y-91124571D02*
X147115428Y-91124571D01*
X146924952Y-90857904D02*
X146924952Y-91543619D01*
X146963047Y-91619809D01*
X147039238Y-91657904D01*
X147115428Y-91657904D01*
X147382095Y-91657904D02*
X147382095Y-91124571D01*
X147382095Y-91276952D02*
X147420190Y-91200761D01*
X147458285Y-91162666D01*
X147534476Y-91124571D01*
X147610666Y-91124571D01*
X147877333Y-91657904D02*
X147877333Y-91124571D01*
X147877333Y-90857904D02*
X147839238Y-90896000D01*
X147877333Y-90934095D01*
X147915428Y-90896000D01*
X147877333Y-90857904D01*
X147877333Y-90934095D01*
X148563047Y-91619809D02*
X148486857Y-91657904D01*
X148334476Y-91657904D01*
X148258285Y-91619809D01*
X148220190Y-91543619D01*
X148220190Y-91238857D01*
X148258285Y-91162666D01*
X148334476Y-91124571D01*
X148486857Y-91124571D01*
X148563047Y-91162666D01*
X148601142Y-91238857D01*
X148601142Y-91315047D01*
X148220190Y-91391238D01*
X148944000Y-91657904D02*
X148944000Y-90857904D01*
X148944000Y-91162666D02*
X149020190Y-91124571D01*
X149172571Y-91124571D01*
X149248761Y-91162666D01*
X149286857Y-91200761D01*
X149324952Y-91276952D01*
X149324952Y-91505523D01*
X149286857Y-91581714D01*
X149248761Y-91619809D01*
X149172571Y-91657904D01*
X149020190Y-91657904D01*
X148944000Y-91619809D01*
X149667809Y-91657904D02*
X149667809Y-91124571D01*
X149667809Y-90857904D02*
X149629714Y-90896000D01*
X149667809Y-90934095D01*
X149705904Y-90896000D01*
X149667809Y-90857904D01*
X149667809Y-90934095D01*
X150391619Y-91124571D02*
X150391619Y-91772190D01*
X150353523Y-91848380D01*
X150315428Y-91886476D01*
X150239238Y-91924571D01*
X150124952Y-91924571D01*
X150048761Y-91886476D01*
X150391619Y-91619809D02*
X150315428Y-91657904D01*
X150163047Y-91657904D01*
X150086857Y-91619809D01*
X150048761Y-91581714D01*
X150010666Y-91505523D01*
X150010666Y-91276952D01*
X150048761Y-91200761D01*
X150086857Y-91162666D01*
X150163047Y-91124571D01*
X150315428Y-91124571D01*
X150391619Y-91162666D01*
X144563047Y-92145904D02*
X144563047Y-92717333D01*
X144524952Y-92831619D01*
X144448761Y-92907809D01*
X144334476Y-92945904D01*
X144258285Y-92945904D01*
X145286857Y-92945904D02*
X145286857Y-92526857D01*
X145248761Y-92450666D01*
X145172571Y-92412571D01*
X145020190Y-92412571D01*
X144944000Y-92450666D01*
X145286857Y-92907809D02*
X145210666Y-92945904D01*
X145020190Y-92945904D01*
X144944000Y-92907809D01*
X144905904Y-92831619D01*
X144905904Y-92755428D01*
X144944000Y-92679238D01*
X145020190Y-92641142D01*
X145210666Y-92641142D01*
X145286857Y-92603047D01*
X145667809Y-92412571D02*
X145667809Y-92945904D01*
X145667809Y-92488761D02*
X145705904Y-92450666D01*
X145782095Y-92412571D01*
X145896380Y-92412571D01*
X145972571Y-92450666D01*
X146010666Y-92526857D01*
X146010666Y-92945904D01*
X146963047Y-92222095D02*
X147001142Y-92184000D01*
X147077333Y-92145904D01*
X147267809Y-92145904D01*
X147344000Y-92184000D01*
X147382095Y-92222095D01*
X147420190Y-92298285D01*
X147420190Y-92374476D01*
X147382095Y-92488761D01*
X146924952Y-92945904D01*
X147420190Y-92945904D01*
X147915428Y-92145904D02*
X147991619Y-92145904D01*
X148067809Y-92184000D01*
X148105904Y-92222095D01*
X148144000Y-92298285D01*
X148182095Y-92450666D01*
X148182095Y-92641142D01*
X148144000Y-92793523D01*
X148105904Y-92869714D01*
X148067809Y-92907809D01*
X147991619Y-92945904D01*
X147915428Y-92945904D01*
X147839238Y-92907809D01*
X147801142Y-92869714D01*
X147763047Y-92793523D01*
X147724952Y-92641142D01*
X147724952Y-92450666D01*
X147763047Y-92298285D01*
X147801142Y-92222095D01*
X147839238Y-92184000D01*
X147915428Y-92145904D01*
X148486857Y-92222095D02*
X148524952Y-92184000D01*
X148601142Y-92145904D01*
X148791619Y-92145904D01*
X148867809Y-92184000D01*
X148905904Y-92222095D01*
X148944000Y-92298285D01*
X148944000Y-92374476D01*
X148905904Y-92488761D01*
X148448761Y-92945904D01*
X148944000Y-92945904D01*
X149210666Y-92145904D02*
X149705904Y-92145904D01*
X149439238Y-92450666D01*
X149553523Y-92450666D01*
X149629714Y-92488761D01*
X149667809Y-92526857D01*
X149705904Y-92603047D01*
X149705904Y-92793523D01*
X149667809Y-92869714D01*
X149629714Y-92907809D01*
X149553523Y-92945904D01*
X149324952Y-92945904D01*
X149248761Y-92907809D01*
X149210666Y-92869714D01*
D13*
X144585714Y-89650000D02*
X145300000Y-89650000D01*
X144442857Y-90078571D02*
X144942857Y-88578571D01*
X145442857Y-90078571D01*
X145942857Y-90078571D02*
X145942857Y-88578571D01*
X146300000Y-88578571D01*
X146514285Y-88650000D01*
X146657142Y-88792857D01*
X146728571Y-88935714D01*
X146800000Y-89221428D01*
X146800000Y-89435714D01*
X146728571Y-89721428D01*
X146657142Y-89864285D01*
X146514285Y-90007142D01*
X146300000Y-90078571D01*
X145942857Y-90078571D01*
X148157142Y-90078571D02*
X147442857Y-90078571D01*
X147442857Y-88578571D01*
D14*
G04 #@! TO.C,C8*
X124985714Y-94633333D02*
X125023809Y-94671428D01*
X125061904Y-94785714D01*
X125061904Y-94861904D01*
X125023809Y-94976190D01*
X124947619Y-95052380D01*
X124871428Y-95090476D01*
X124719047Y-95128571D01*
X124604761Y-95128571D01*
X124452380Y-95090476D01*
X124376190Y-95052380D01*
X124300000Y-94976190D01*
X124261904Y-94861904D01*
X124261904Y-94785714D01*
X124300000Y-94671428D01*
X124338095Y-94633333D01*
X124604761Y-94176190D02*
X124566666Y-94252380D01*
X124528571Y-94290476D01*
X124452380Y-94328571D01*
X124414285Y-94328571D01*
X124338095Y-94290476D01*
X124300000Y-94252380D01*
X124261904Y-94176190D01*
X124261904Y-94023809D01*
X124300000Y-93947619D01*
X124338095Y-93909523D01*
X124414285Y-93871428D01*
X124452380Y-93871428D01*
X124528571Y-93909523D01*
X124566666Y-93947619D01*
X124604761Y-94023809D01*
X124604761Y-94176190D01*
X124642857Y-94252380D01*
X124680952Y-94290476D01*
X124757142Y-94328571D01*
X124909523Y-94328571D01*
X124985714Y-94290476D01*
X125023809Y-94252380D01*
X125061904Y-94176190D01*
X125061904Y-94023809D01*
X125023809Y-93947619D01*
X124985714Y-93909523D01*
X124909523Y-93871428D01*
X124757142Y-93871428D01*
X124680952Y-93909523D01*
X124642857Y-93947619D01*
X124604761Y-94023809D01*
G04 #@! TO.C,C9*
X123885714Y-94633333D02*
X123923809Y-94671428D01*
X123961904Y-94785714D01*
X123961904Y-94861904D01*
X123923809Y-94976190D01*
X123847619Y-95052380D01*
X123771428Y-95090476D01*
X123619047Y-95128571D01*
X123504761Y-95128571D01*
X123352380Y-95090476D01*
X123276190Y-95052380D01*
X123200000Y-94976190D01*
X123161904Y-94861904D01*
X123161904Y-94785714D01*
X123200000Y-94671428D01*
X123238095Y-94633333D01*
X123961904Y-94252380D02*
X123961904Y-94100000D01*
X123923809Y-94023809D01*
X123885714Y-93985714D01*
X123771428Y-93909523D01*
X123619047Y-93871428D01*
X123314285Y-93871428D01*
X123238095Y-93909523D01*
X123200000Y-93947619D01*
X123161904Y-94023809D01*
X123161904Y-94176190D01*
X123200000Y-94252380D01*
X123238095Y-94290476D01*
X123314285Y-94328571D01*
X123504761Y-94328571D01*
X123580952Y-94290476D01*
X123619047Y-94252380D01*
X123657142Y-94176190D01*
X123657142Y-94023809D01*
X123619047Y-93947619D01*
X123580952Y-93909523D01*
X123504761Y-93871428D01*
G04 #@! TO.C,C10*
X122785714Y-94714285D02*
X122823809Y-94752380D01*
X122861904Y-94866666D01*
X122861904Y-94942857D01*
X122823809Y-95057142D01*
X122747619Y-95133333D01*
X122671428Y-95171428D01*
X122519047Y-95209523D01*
X122404761Y-95209523D01*
X122252380Y-95171428D01*
X122176190Y-95133333D01*
X122100000Y-95057142D01*
X122061904Y-94942857D01*
X122061904Y-94866666D01*
X122100000Y-94752380D01*
X122138095Y-94714285D01*
X122861904Y-93952380D02*
X122861904Y-94409523D01*
X122861904Y-94180952D02*
X122061904Y-94180952D01*
X122176190Y-94257142D01*
X122252380Y-94333333D01*
X122290476Y-94409523D01*
X122061904Y-93457142D02*
X122061904Y-93380952D01*
X122100000Y-93304761D01*
X122138095Y-93266666D01*
X122214285Y-93228571D01*
X122366666Y-93190476D01*
X122557142Y-93190476D01*
X122709523Y-93228571D01*
X122785714Y-93266666D01*
X122823809Y-93304761D01*
X122861904Y-93380952D01*
X122861904Y-93457142D01*
X122823809Y-93533333D01*
X122785714Y-93571428D01*
X122709523Y-93609523D01*
X122557142Y-93647619D01*
X122366666Y-93647619D01*
X122214285Y-93609523D01*
X122138095Y-93571428D01*
X122100000Y-93533333D01*
X122061904Y-93457142D01*
G04 #@! TO.C,J6*
X114206333Y-74561904D02*
X114206333Y-75133333D01*
X114168238Y-75247619D01*
X114092047Y-75323809D01*
X113977761Y-75361904D01*
X113901571Y-75361904D01*
X114930142Y-74561904D02*
X114777761Y-74561904D01*
X114701571Y-74600000D01*
X114663476Y-74638095D01*
X114587285Y-74752380D01*
X114549190Y-74904761D01*
X114549190Y-75209523D01*
X114587285Y-75285714D01*
X114625380Y-75323809D01*
X114701571Y-75361904D01*
X114853952Y-75361904D01*
X114930142Y-75323809D01*
X114968238Y-75285714D01*
X115006333Y-75209523D01*
X115006333Y-75019047D01*
X114968238Y-74942857D01*
X114930142Y-74904761D01*
X114853952Y-74866666D01*
X114701571Y-74866666D01*
X114625380Y-74904761D01*
X114587285Y-74942857D01*
X114549190Y-75019047D01*
G04 #@! TO.C,J9*
X111333333Y-54161904D02*
X111333333Y-54733333D01*
X111295238Y-54847619D01*
X111219047Y-54923809D01*
X111104761Y-54961904D01*
X111028571Y-54961904D01*
X111752380Y-54961904D02*
X111904761Y-54961904D01*
X111980952Y-54923809D01*
X112019047Y-54885714D01*
X112095238Y-54771428D01*
X112133333Y-54619047D01*
X112133333Y-54314285D01*
X112095238Y-54238095D01*
X112057142Y-54200000D01*
X111980952Y-54161904D01*
X111828571Y-54161904D01*
X111752380Y-54200000D01*
X111714285Y-54238095D01*
X111676190Y-54314285D01*
X111676190Y-54504761D01*
X111714285Y-54580952D01*
X111752380Y-54619047D01*
X111828571Y-54657142D01*
X111980952Y-54657142D01*
X112057142Y-54619047D01*
X112095238Y-54580952D01*
X112133333Y-54504761D01*
G04 #@! TO.C,C6*
X108870714Y-86112333D02*
X108908809Y-86150428D01*
X108946904Y-86264714D01*
X108946904Y-86340904D01*
X108908809Y-86455190D01*
X108832619Y-86531380D01*
X108756428Y-86569476D01*
X108604047Y-86607571D01*
X108489761Y-86607571D01*
X108337380Y-86569476D01*
X108261190Y-86531380D01*
X108185000Y-86455190D01*
X108146904Y-86340904D01*
X108146904Y-86264714D01*
X108185000Y-86150428D01*
X108223095Y-86112333D01*
X108146904Y-85426619D02*
X108146904Y-85579000D01*
X108185000Y-85655190D01*
X108223095Y-85693285D01*
X108337380Y-85769476D01*
X108489761Y-85807571D01*
X108794523Y-85807571D01*
X108870714Y-85769476D01*
X108908809Y-85731380D01*
X108946904Y-85655190D01*
X108946904Y-85502809D01*
X108908809Y-85426619D01*
X108870714Y-85388523D01*
X108794523Y-85350428D01*
X108604047Y-85350428D01*
X108527857Y-85388523D01*
X108489761Y-85426619D01*
X108451666Y-85502809D01*
X108451666Y-85655190D01*
X108489761Y-85731380D01*
X108527857Y-85769476D01*
X108604047Y-85807571D01*
G04 #@! TO.C,C4*
X116490714Y-88271333D02*
X116528809Y-88309428D01*
X116566904Y-88423714D01*
X116566904Y-88499904D01*
X116528809Y-88614190D01*
X116452619Y-88690380D01*
X116376428Y-88728476D01*
X116224047Y-88766571D01*
X116109761Y-88766571D01*
X115957380Y-88728476D01*
X115881190Y-88690380D01*
X115805000Y-88614190D01*
X115766904Y-88499904D01*
X115766904Y-88423714D01*
X115805000Y-88309428D01*
X115843095Y-88271333D01*
X116033571Y-87585619D02*
X116566904Y-87585619D01*
X115728809Y-87776095D02*
X116300238Y-87966571D01*
X116300238Y-87471333D01*
G04 #@! TO.C,J10*
X145652380Y-54161904D02*
X145652380Y-54733333D01*
X145614285Y-54847619D01*
X145538095Y-54923809D01*
X145423809Y-54961904D01*
X145347619Y-54961904D01*
X146452380Y-54961904D02*
X145995238Y-54961904D01*
X146223809Y-54961904D02*
X146223809Y-54161904D01*
X146147619Y-54276190D01*
X146071428Y-54352380D01*
X145995238Y-54390476D01*
X146947619Y-54161904D02*
X147023809Y-54161904D01*
X147100000Y-54200000D01*
X147138095Y-54238095D01*
X147176190Y-54314285D01*
X147214285Y-54466666D01*
X147214285Y-54657142D01*
X147176190Y-54809523D01*
X147138095Y-54885714D01*
X147100000Y-54923809D01*
X147023809Y-54961904D01*
X146947619Y-54961904D01*
X146871428Y-54923809D01*
X146833333Y-54885714D01*
X146795238Y-54809523D01*
X146757142Y-54657142D01*
X146757142Y-54466666D01*
X146795238Y-54314285D01*
X146833333Y-54238095D01*
X146871428Y-54200000D01*
X146947619Y-54161904D01*
G04 #@! TO.C,U2*
X126761904Y-89109523D02*
X127409523Y-89109523D01*
X127485714Y-89071428D01*
X127523809Y-89033333D01*
X127561904Y-88957142D01*
X127561904Y-88804761D01*
X127523809Y-88728571D01*
X127485714Y-88690476D01*
X127409523Y-88652380D01*
X126761904Y-88652380D01*
X126838095Y-88309523D02*
X126800000Y-88271428D01*
X126761904Y-88195238D01*
X126761904Y-88004761D01*
X126800000Y-87928571D01*
X126838095Y-87890476D01*
X126914285Y-87852380D01*
X126990476Y-87852380D01*
X127104761Y-87890476D01*
X127561904Y-88347619D01*
X127561904Y-87852380D01*
G04 #@! TO.C,R3*
X126026667Y-94263908D02*
X125760001Y-93882956D01*
X125569524Y-94263908D02*
X125569524Y-93463908D01*
X125874286Y-93463908D01*
X125950477Y-93502004D01*
X125988572Y-93540099D01*
X126026667Y-93616289D01*
X126026667Y-93730575D01*
X125988572Y-93806765D01*
X125950477Y-93844861D01*
X125874286Y-93882956D01*
X125569524Y-93882956D01*
X126293334Y-93463908D02*
X126788572Y-93463908D01*
X126521905Y-93768670D01*
X126636191Y-93768670D01*
X126712381Y-93806765D01*
X126750477Y-93844861D01*
X126788572Y-93921051D01*
X126788572Y-94111527D01*
X126750477Y-94187718D01*
X126712381Y-94225813D01*
X126636191Y-94263908D01*
X126407620Y-94263908D01*
X126331429Y-94225813D01*
X126293334Y-94187718D01*
G04 #@! TO.C,C12*
X130085714Y-91914285D02*
X130123809Y-91952380D01*
X130161904Y-92066666D01*
X130161904Y-92142857D01*
X130123809Y-92257142D01*
X130047619Y-92333333D01*
X129971428Y-92371428D01*
X129819047Y-92409523D01*
X129704761Y-92409523D01*
X129552380Y-92371428D01*
X129476190Y-92333333D01*
X129400000Y-92257142D01*
X129361904Y-92142857D01*
X129361904Y-92066666D01*
X129400000Y-91952380D01*
X129438095Y-91914285D01*
X130161904Y-91152380D02*
X130161904Y-91609523D01*
X130161904Y-91380952D02*
X129361904Y-91380952D01*
X129476190Y-91457142D01*
X129552380Y-91533333D01*
X129590476Y-91609523D01*
X129438095Y-90847619D02*
X129400000Y-90809523D01*
X129361904Y-90733333D01*
X129361904Y-90542857D01*
X129400000Y-90466666D01*
X129438095Y-90428571D01*
X129514285Y-90390476D01*
X129590476Y-90390476D01*
X129704761Y-90428571D01*
X130161904Y-90885714D01*
X130161904Y-90390476D01*
G04 #@! TO.C,J1*
X110985333Y-101542904D02*
X110985333Y-102114333D01*
X110947238Y-102228619D01*
X110871047Y-102304809D01*
X110756761Y-102342904D01*
X110680571Y-102342904D01*
X111785333Y-102342904D02*
X111328190Y-102342904D01*
X111556761Y-102342904D02*
X111556761Y-101542904D01*
X111480571Y-101657190D01*
X111404380Y-101733380D01*
X111328190Y-101771476D01*
G04 #@! TO.C,JP1*
X114242933Y-89941904D02*
X114242933Y-90513333D01*
X114204838Y-90627619D01*
X114128647Y-90703809D01*
X114014361Y-90741904D01*
X113938171Y-90741904D01*
X114623885Y-90741904D02*
X114623885Y-89941904D01*
X114928647Y-89941904D01*
X115004838Y-89980000D01*
X115042933Y-90018095D01*
X115081028Y-90094285D01*
X115081028Y-90208571D01*
X115042933Y-90284761D01*
X115004838Y-90322857D01*
X114928647Y-90360952D01*
X114623885Y-90360952D01*
X115842933Y-90741904D02*
X115385790Y-90741904D01*
X115614361Y-90741904D02*
X115614361Y-89941904D01*
X115538171Y-90056190D01*
X115461980Y-90132380D01*
X115385790Y-90170476D01*
G04 #@! TO.C,C11*
X121037314Y-99269485D02*
X121075409Y-99307580D01*
X121113504Y-99421866D01*
X121113504Y-99498057D01*
X121075409Y-99612342D01*
X120999219Y-99688533D01*
X120923028Y-99726628D01*
X120770647Y-99764723D01*
X120656361Y-99764723D01*
X120503980Y-99726628D01*
X120427790Y-99688533D01*
X120351600Y-99612342D01*
X120313504Y-99498057D01*
X120313504Y-99421866D01*
X120351600Y-99307580D01*
X120389695Y-99269485D01*
X121113504Y-98507580D02*
X121113504Y-98964723D01*
X121113504Y-98736152D02*
X120313504Y-98736152D01*
X120427790Y-98812342D01*
X120503980Y-98888533D01*
X120542076Y-98964723D01*
X121113504Y-97745676D02*
X121113504Y-98202819D01*
X121113504Y-97974247D02*
X120313504Y-97974247D01*
X120427790Y-98050438D01*
X120503980Y-98126628D01*
X120542076Y-98202819D01*
G04 #@! TO.C,C13*
X119538714Y-99320285D02*
X119576809Y-99358380D01*
X119614904Y-99472666D01*
X119614904Y-99548857D01*
X119576809Y-99663142D01*
X119500619Y-99739333D01*
X119424428Y-99777428D01*
X119272047Y-99815523D01*
X119157761Y-99815523D01*
X119005380Y-99777428D01*
X118929190Y-99739333D01*
X118853000Y-99663142D01*
X118814904Y-99548857D01*
X118814904Y-99472666D01*
X118853000Y-99358380D01*
X118891095Y-99320285D01*
X119614904Y-98558380D02*
X119614904Y-99015523D01*
X119614904Y-98786952D02*
X118814904Y-98786952D01*
X118929190Y-98863142D01*
X119005380Y-98939333D01*
X119043476Y-99015523D01*
X118814904Y-98291714D02*
X118814904Y-97796476D01*
X119119666Y-98063142D01*
X119119666Y-97948857D01*
X119157761Y-97872666D01*
X119195857Y-97834571D01*
X119272047Y-97796476D01*
X119462523Y-97796476D01*
X119538714Y-97834571D01*
X119576809Y-97872666D01*
X119614904Y-97948857D01*
X119614904Y-98177428D01*
X119576809Y-98253619D01*
X119538714Y-98291714D01*
G04 #@! TO.C,C7*
X122864315Y-91495337D02*
X122902410Y-91533432D01*
X122940505Y-91647718D01*
X122940505Y-91723908D01*
X122902410Y-91838194D01*
X122826220Y-91914384D01*
X122750029Y-91952480D01*
X122597648Y-91990575D01*
X122483362Y-91990575D01*
X122330981Y-91952480D01*
X122254791Y-91914384D01*
X122178601Y-91838194D01*
X122140505Y-91723908D01*
X122140505Y-91647718D01*
X122178601Y-91533432D01*
X122216696Y-91495337D01*
X122140505Y-91228670D02*
X122140505Y-90695337D01*
X122940505Y-91038194D01*
G04 #@! TO.C,R12*
X112287304Y-85506685D02*
X111906352Y-85773352D01*
X112287304Y-85963828D02*
X111487304Y-85963828D01*
X111487304Y-85659066D01*
X111525400Y-85582876D01*
X111563495Y-85544780D01*
X111639685Y-85506685D01*
X111753971Y-85506685D01*
X111830161Y-85544780D01*
X111868257Y-85582876D01*
X111906352Y-85659066D01*
X111906352Y-85963828D01*
X112287304Y-84744780D02*
X112287304Y-85201923D01*
X112287304Y-84973352D02*
X111487304Y-84973352D01*
X111601590Y-85049542D01*
X111677780Y-85125733D01*
X111715876Y-85201923D01*
X111563495Y-84440019D02*
X111525400Y-84401923D01*
X111487304Y-84325733D01*
X111487304Y-84135257D01*
X111525400Y-84059066D01*
X111563495Y-84020971D01*
X111639685Y-83982876D01*
X111715876Y-83982876D01*
X111830161Y-84020971D01*
X112287304Y-84478114D01*
X112287304Y-83982876D01*
G04 #@! TO.C,C14*
X117862314Y-99320285D02*
X117900409Y-99358380D01*
X117938504Y-99472666D01*
X117938504Y-99548857D01*
X117900409Y-99663142D01*
X117824219Y-99739333D01*
X117748028Y-99777428D01*
X117595647Y-99815523D01*
X117481361Y-99815523D01*
X117328980Y-99777428D01*
X117252790Y-99739333D01*
X117176600Y-99663142D01*
X117138504Y-99548857D01*
X117138504Y-99472666D01*
X117176600Y-99358380D01*
X117214695Y-99320285D01*
X117938504Y-98558380D02*
X117938504Y-99015523D01*
X117938504Y-98786952D02*
X117138504Y-98786952D01*
X117252790Y-98863142D01*
X117328980Y-98939333D01*
X117367076Y-99015523D01*
X117405171Y-97872666D02*
X117938504Y-97872666D01*
X117100409Y-98063142D02*
X117671838Y-98253619D01*
X117671838Y-97758380D01*
G04 #@! TO.C,R13*
X120461904Y-75814285D02*
X120080952Y-76080952D01*
X120461904Y-76271428D02*
X119661904Y-76271428D01*
X119661904Y-75966666D01*
X119700000Y-75890476D01*
X119738095Y-75852380D01*
X119814285Y-75814285D01*
X119928571Y-75814285D01*
X120004761Y-75852380D01*
X120042857Y-75890476D01*
X120080952Y-75966666D01*
X120080952Y-76271428D01*
X120461904Y-75052380D02*
X120461904Y-75509523D01*
X120461904Y-75280952D02*
X119661904Y-75280952D01*
X119776190Y-75357142D01*
X119852380Y-75433333D01*
X119890476Y-75509523D01*
X119661904Y-74785714D02*
X119661904Y-74290476D01*
X119966666Y-74557142D01*
X119966666Y-74442857D01*
X120004761Y-74366666D01*
X120042857Y-74328571D01*
X120119047Y-74290476D01*
X120309523Y-74290476D01*
X120385714Y-74328571D01*
X120423809Y-74366666D01*
X120461904Y-74442857D01*
X120461904Y-74671428D01*
X120423809Y-74747619D01*
X120385714Y-74785714D01*
G04 #@! TO.C,R14*
X117834904Y-75816285D02*
X117453952Y-76082952D01*
X117834904Y-76273428D02*
X117034904Y-76273428D01*
X117034904Y-75968666D01*
X117073000Y-75892476D01*
X117111095Y-75854380D01*
X117187285Y-75816285D01*
X117301571Y-75816285D01*
X117377761Y-75854380D01*
X117415857Y-75892476D01*
X117453952Y-75968666D01*
X117453952Y-76273428D01*
X117834904Y-75054380D02*
X117834904Y-75511523D01*
X117834904Y-75282952D02*
X117034904Y-75282952D01*
X117149190Y-75359142D01*
X117225380Y-75435333D01*
X117263476Y-75511523D01*
X117301571Y-74368666D02*
X117834904Y-74368666D01*
X116996809Y-74559142D02*
X117568238Y-74749619D01*
X117568238Y-74254380D01*
G04 #@! TO.C,R17*
X146661904Y-73728285D02*
X146280952Y-73994952D01*
X146661904Y-74185428D02*
X145861904Y-74185428D01*
X145861904Y-73880666D01*
X145900000Y-73804476D01*
X145938095Y-73766380D01*
X146014285Y-73728285D01*
X146128571Y-73728285D01*
X146204761Y-73766380D01*
X146242857Y-73804476D01*
X146280952Y-73880666D01*
X146280952Y-74185428D01*
X146661904Y-72966380D02*
X146661904Y-73423523D01*
X146661904Y-73194952D02*
X145861904Y-73194952D01*
X145976190Y-73271142D01*
X146052380Y-73347333D01*
X146090476Y-73423523D01*
X145861904Y-72699714D02*
X145861904Y-72166380D01*
X146661904Y-72509238D01*
G04 #@! TO.C,R18*
X145061904Y-73728285D02*
X144680952Y-73994952D01*
X145061904Y-74185428D02*
X144261904Y-74185428D01*
X144261904Y-73880666D01*
X144300000Y-73804476D01*
X144338095Y-73766380D01*
X144414285Y-73728285D01*
X144528571Y-73728285D01*
X144604761Y-73766380D01*
X144642857Y-73804476D01*
X144680952Y-73880666D01*
X144680952Y-74185428D01*
X145061904Y-72966380D02*
X145061904Y-73423523D01*
X145061904Y-73194952D02*
X144261904Y-73194952D01*
X144376190Y-73271142D01*
X144452380Y-73347333D01*
X144490476Y-73423523D01*
X144604761Y-72509238D02*
X144566666Y-72585428D01*
X144528571Y-72623523D01*
X144452380Y-72661619D01*
X144414285Y-72661619D01*
X144338095Y-72623523D01*
X144300000Y-72585428D01*
X144261904Y-72509238D01*
X144261904Y-72356857D01*
X144300000Y-72280666D01*
X144338095Y-72242571D01*
X144414285Y-72204476D01*
X144452380Y-72204476D01*
X144528571Y-72242571D01*
X144566666Y-72280666D01*
X144604761Y-72356857D01*
X144604761Y-72509238D01*
X144642857Y-72585428D01*
X144680952Y-72623523D01*
X144757142Y-72661619D01*
X144909523Y-72661619D01*
X144985714Y-72623523D01*
X145023809Y-72585428D01*
X145061904Y-72509238D01*
X145061904Y-72356857D01*
X145023809Y-72280666D01*
X144985714Y-72242571D01*
X144909523Y-72204476D01*
X144757142Y-72204476D01*
X144680952Y-72242571D01*
X144642857Y-72280666D01*
X144604761Y-72356857D01*
G04 #@! TO.C,R10*
X119161904Y-75814285D02*
X118780952Y-76080952D01*
X119161904Y-76271428D02*
X118361904Y-76271428D01*
X118361904Y-75966666D01*
X118400000Y-75890476D01*
X118438095Y-75852380D01*
X118514285Y-75814285D01*
X118628571Y-75814285D01*
X118704761Y-75852380D01*
X118742857Y-75890476D01*
X118780952Y-75966666D01*
X118780952Y-76271428D01*
X119161904Y-75052380D02*
X119161904Y-75509523D01*
X119161904Y-75280952D02*
X118361904Y-75280952D01*
X118476190Y-75357142D01*
X118552380Y-75433333D01*
X118590476Y-75509523D01*
X118361904Y-74557142D02*
X118361904Y-74480952D01*
X118400000Y-74404761D01*
X118438095Y-74366666D01*
X118514285Y-74328571D01*
X118666666Y-74290476D01*
X118857142Y-74290476D01*
X119009523Y-74328571D01*
X119085714Y-74366666D01*
X119123809Y-74404761D01*
X119161904Y-74480952D01*
X119161904Y-74557142D01*
X119123809Y-74633333D01*
X119085714Y-74671428D01*
X119009523Y-74709523D01*
X118857142Y-74747619D01*
X118666666Y-74747619D01*
X118514285Y-74709523D01*
X118438095Y-74671428D01*
X118400000Y-74633333D01*
X118361904Y-74557142D01*
G04 #@! TO.C,R8*
X147861904Y-73728333D02*
X147480952Y-73995000D01*
X147861904Y-74185476D02*
X147061904Y-74185476D01*
X147061904Y-73880714D01*
X147100000Y-73804523D01*
X147138095Y-73766428D01*
X147214285Y-73728333D01*
X147328571Y-73728333D01*
X147404761Y-73766428D01*
X147442857Y-73804523D01*
X147480952Y-73880714D01*
X147480952Y-74185476D01*
X147404761Y-73271190D02*
X147366666Y-73347380D01*
X147328571Y-73385476D01*
X147252380Y-73423571D01*
X147214285Y-73423571D01*
X147138095Y-73385476D01*
X147100000Y-73347380D01*
X147061904Y-73271190D01*
X147061904Y-73118809D01*
X147100000Y-73042619D01*
X147138095Y-73004523D01*
X147214285Y-72966428D01*
X147252380Y-72966428D01*
X147328571Y-73004523D01*
X147366666Y-73042619D01*
X147404761Y-73118809D01*
X147404761Y-73271190D01*
X147442857Y-73347380D01*
X147480952Y-73385476D01*
X147557142Y-73423571D01*
X147709523Y-73423571D01*
X147785714Y-73385476D01*
X147823809Y-73347380D01*
X147861904Y-73271190D01*
X147861904Y-73118809D01*
X147823809Y-73042619D01*
X147785714Y-73004523D01*
X147709523Y-72966428D01*
X147557142Y-72966428D01*
X147480952Y-73004523D01*
X147442857Y-73042619D01*
X147404761Y-73118809D01*
G04 #@! TO.C,J5*
X152507933Y-60069304D02*
X152507933Y-60640733D01*
X152469838Y-60755019D01*
X152393647Y-60831209D01*
X152279361Y-60869304D01*
X152203171Y-60869304D01*
X153269838Y-60069304D02*
X152888885Y-60069304D01*
X152850790Y-60450257D01*
X152888885Y-60412161D01*
X152965076Y-60374066D01*
X153155552Y-60374066D01*
X153231742Y-60412161D01*
X153269838Y-60450257D01*
X153307933Y-60526447D01*
X153307933Y-60716923D01*
X153269838Y-60793114D01*
X153231742Y-60831209D01*
X153155552Y-60869304D01*
X152965076Y-60869304D01*
X152888885Y-60831209D01*
X152850790Y-60793114D01*
G04 #@! TO.C,R11*
X113581904Y-82764285D02*
X113200952Y-83030952D01*
X113581904Y-83221428D02*
X112781904Y-83221428D01*
X112781904Y-82916666D01*
X112820000Y-82840476D01*
X112858095Y-82802380D01*
X112934285Y-82764285D01*
X113048571Y-82764285D01*
X113124761Y-82802380D01*
X113162857Y-82840476D01*
X113200952Y-82916666D01*
X113200952Y-83221428D01*
X113581904Y-82002380D02*
X113581904Y-82459523D01*
X113581904Y-82230952D02*
X112781904Y-82230952D01*
X112896190Y-82307142D01*
X112972380Y-82383333D01*
X113010476Y-82459523D01*
X113581904Y-81240476D02*
X113581904Y-81697619D01*
X113581904Y-81469047D02*
X112781904Y-81469047D01*
X112896190Y-81545238D01*
X112972380Y-81621428D01*
X113010476Y-81697619D01*
G04 #@! TO.C,J4*
X152533333Y-70661904D02*
X152533333Y-71233333D01*
X152495238Y-71347619D01*
X152419047Y-71423809D01*
X152304761Y-71461904D01*
X152228571Y-71461904D01*
X153257142Y-70928571D02*
X153257142Y-71461904D01*
X153066666Y-70623809D02*
X152876190Y-71195238D01*
X153371428Y-71195238D01*
G04 #@! TO.C,J2*
X116591904Y-68666666D02*
X117163333Y-68666666D01*
X117277619Y-68704761D01*
X117353809Y-68780952D01*
X117391904Y-68895238D01*
X117391904Y-68971428D01*
X116668095Y-68323809D02*
X116630000Y-68285714D01*
X116591904Y-68209523D01*
X116591904Y-68019047D01*
X116630000Y-67942857D01*
X116668095Y-67904761D01*
X116744285Y-67866666D01*
X116820476Y-67866666D01*
X116934761Y-67904761D01*
X117391904Y-68361904D01*
X117391904Y-67866666D01*
G04 #@! TO.C,R9*
X118766666Y-66061904D02*
X118500000Y-65680952D01*
X118309523Y-66061904D02*
X118309523Y-65261904D01*
X118614285Y-65261904D01*
X118690476Y-65300000D01*
X118728571Y-65338095D01*
X118766666Y-65414285D01*
X118766666Y-65528571D01*
X118728571Y-65604761D01*
X118690476Y-65642857D01*
X118614285Y-65680952D01*
X118309523Y-65680952D01*
X119147619Y-66061904D02*
X119300000Y-66061904D01*
X119376190Y-66023809D01*
X119414285Y-65985714D01*
X119490476Y-65871428D01*
X119528571Y-65719047D01*
X119528571Y-65414285D01*
X119490476Y-65338095D01*
X119452380Y-65300000D01*
X119376190Y-65261904D01*
X119223809Y-65261904D01*
X119147619Y-65300000D01*
X119109523Y-65338095D01*
X119071428Y-65414285D01*
X119071428Y-65604761D01*
X119109523Y-65680952D01*
X119147619Y-65719047D01*
X119223809Y-65757142D01*
X119376190Y-65757142D01*
X119452380Y-65719047D01*
X119490476Y-65680952D01*
X119528571Y-65604761D01*
G04 #@! TO.C,C2*
X121085714Y-85833333D02*
X121123809Y-85871428D01*
X121161904Y-85985714D01*
X121161904Y-86061904D01*
X121123809Y-86176190D01*
X121047619Y-86252380D01*
X120971428Y-86290476D01*
X120819047Y-86328571D01*
X120704761Y-86328571D01*
X120552380Y-86290476D01*
X120476190Y-86252380D01*
X120400000Y-86176190D01*
X120361904Y-86061904D01*
X120361904Y-85985714D01*
X120400000Y-85871428D01*
X120438095Y-85833333D01*
X120438095Y-85528571D02*
X120400000Y-85490476D01*
X120361904Y-85414285D01*
X120361904Y-85223809D01*
X120400000Y-85147619D01*
X120438095Y-85109523D01*
X120514285Y-85071428D01*
X120590476Y-85071428D01*
X120704761Y-85109523D01*
X121161904Y-85566666D01*
X121161904Y-85071428D01*
G04 #@! TO.C,R16*
X118385714Y-70561904D02*
X118119047Y-70180952D01*
X117928571Y-70561904D02*
X117928571Y-69761904D01*
X118233333Y-69761904D01*
X118309523Y-69800000D01*
X118347619Y-69838095D01*
X118385714Y-69914285D01*
X118385714Y-70028571D01*
X118347619Y-70104761D01*
X118309523Y-70142857D01*
X118233333Y-70180952D01*
X117928571Y-70180952D01*
X119147619Y-70561904D02*
X118690476Y-70561904D01*
X118919047Y-70561904D02*
X118919047Y-69761904D01*
X118842857Y-69876190D01*
X118766666Y-69952380D01*
X118690476Y-69990476D01*
X119833333Y-69761904D02*
X119680952Y-69761904D01*
X119604761Y-69800000D01*
X119566666Y-69838095D01*
X119490476Y-69952380D01*
X119452380Y-70104761D01*
X119452380Y-70409523D01*
X119490476Y-70485714D01*
X119528571Y-70523809D01*
X119604761Y-70561904D01*
X119757142Y-70561904D01*
X119833333Y-70523809D01*
X119871428Y-70485714D01*
X119909523Y-70409523D01*
X119909523Y-70219047D01*
X119871428Y-70142857D01*
X119833333Y-70104761D01*
X119757142Y-70066666D01*
X119604761Y-70066666D01*
X119528571Y-70104761D01*
X119490476Y-70142857D01*
X119452380Y-70219047D01*
G04 #@! TO.C,C15*
X119485714Y-85914285D02*
X119523809Y-85952380D01*
X119561904Y-86066666D01*
X119561904Y-86142857D01*
X119523809Y-86257142D01*
X119447619Y-86333333D01*
X119371428Y-86371428D01*
X119219047Y-86409523D01*
X119104761Y-86409523D01*
X118952380Y-86371428D01*
X118876190Y-86333333D01*
X118800000Y-86257142D01*
X118761904Y-86142857D01*
X118761904Y-86066666D01*
X118800000Y-85952380D01*
X118838095Y-85914285D01*
X119561904Y-85152380D02*
X119561904Y-85609523D01*
X119561904Y-85380952D02*
X118761904Y-85380952D01*
X118876190Y-85457142D01*
X118952380Y-85533333D01*
X118990476Y-85609523D01*
X118761904Y-84428571D02*
X118761904Y-84809523D01*
X119142857Y-84847619D01*
X119104761Y-84809523D01*
X119066666Y-84733333D01*
X119066666Y-84542857D01*
X119104761Y-84466666D01*
X119142857Y-84428571D01*
X119219047Y-84390476D01*
X119409523Y-84390476D01*
X119485714Y-84428571D01*
X119523809Y-84466666D01*
X119561904Y-84542857D01*
X119561904Y-84733333D01*
X119523809Y-84809523D01*
X119485714Y-84847619D01*
G04 #@! TO.C,R4*
X131166666Y-88491904D02*
X130900000Y-88110952D01*
X130709523Y-88491904D02*
X130709523Y-87691904D01*
X131014285Y-87691904D01*
X131090476Y-87730000D01*
X131128571Y-87768095D01*
X131166666Y-87844285D01*
X131166666Y-87958571D01*
X131128571Y-88034761D01*
X131090476Y-88072857D01*
X131014285Y-88110952D01*
X130709523Y-88110952D01*
X131852380Y-87958571D02*
X131852380Y-88491904D01*
X131661904Y-87653809D02*
X131471428Y-88225238D01*
X131966666Y-88225238D01*
G04 #@! TO.C,R19*
X118385714Y-72861904D02*
X118119047Y-72480952D01*
X117928571Y-72861904D02*
X117928571Y-72061904D01*
X118233333Y-72061904D01*
X118309523Y-72100000D01*
X118347619Y-72138095D01*
X118385714Y-72214285D01*
X118385714Y-72328571D01*
X118347619Y-72404761D01*
X118309523Y-72442857D01*
X118233333Y-72480952D01*
X117928571Y-72480952D01*
X119147619Y-72861904D02*
X118690476Y-72861904D01*
X118919047Y-72861904D02*
X118919047Y-72061904D01*
X118842857Y-72176190D01*
X118766666Y-72252380D01*
X118690476Y-72290476D01*
X119528571Y-72861904D02*
X119680952Y-72861904D01*
X119757142Y-72823809D01*
X119795238Y-72785714D01*
X119871428Y-72671428D01*
X119909523Y-72519047D01*
X119909523Y-72214285D01*
X119871428Y-72138095D01*
X119833333Y-72100000D01*
X119757142Y-72061904D01*
X119604761Y-72061904D01*
X119528571Y-72100000D01*
X119490476Y-72138095D01*
X119452380Y-72214285D01*
X119452380Y-72404761D01*
X119490476Y-72480952D01*
X119528571Y-72519047D01*
X119604761Y-72557142D01*
X119757142Y-72557142D01*
X119833333Y-72519047D01*
X119871428Y-72480952D01*
X119909523Y-72404761D01*
G04 #@! TO.C,R5*
X128161904Y-97033333D02*
X127780952Y-97300000D01*
X128161904Y-97490476D02*
X127361904Y-97490476D01*
X127361904Y-97185714D01*
X127400000Y-97109523D01*
X127438095Y-97071428D01*
X127514285Y-97033333D01*
X127628571Y-97033333D01*
X127704761Y-97071428D01*
X127742857Y-97109523D01*
X127780952Y-97185714D01*
X127780952Y-97490476D01*
X127361904Y-96309523D02*
X127361904Y-96690476D01*
X127742857Y-96728571D01*
X127704761Y-96690476D01*
X127666666Y-96614285D01*
X127666666Y-96423809D01*
X127704761Y-96347619D01*
X127742857Y-96309523D01*
X127819047Y-96271428D01*
X128009523Y-96271428D01*
X128085714Y-96309523D01*
X128123809Y-96347619D01*
X128161904Y-96423809D01*
X128161904Y-96614285D01*
X128123809Y-96690476D01*
X128085714Y-96728571D01*
G04 #@! TO.C,R6*
X118766666Y-63861904D02*
X118500000Y-63480952D01*
X118309523Y-63861904D02*
X118309523Y-63061904D01*
X118614285Y-63061904D01*
X118690476Y-63100000D01*
X118728571Y-63138095D01*
X118766666Y-63214285D01*
X118766666Y-63328571D01*
X118728571Y-63404761D01*
X118690476Y-63442857D01*
X118614285Y-63480952D01*
X118309523Y-63480952D01*
X119452380Y-63061904D02*
X119300000Y-63061904D01*
X119223809Y-63100000D01*
X119185714Y-63138095D01*
X119109523Y-63252380D01*
X119071428Y-63404761D01*
X119071428Y-63709523D01*
X119109523Y-63785714D01*
X119147619Y-63823809D01*
X119223809Y-63861904D01*
X119376190Y-63861904D01*
X119452380Y-63823809D01*
X119490476Y-63785714D01*
X119528571Y-63709523D01*
X119528571Y-63519047D01*
X119490476Y-63442857D01*
X119452380Y-63404761D01*
X119376190Y-63366666D01*
X119223809Y-63366666D01*
X119147619Y-63404761D01*
X119109523Y-63442857D01*
X119071428Y-63519047D01*
G04 #@! TO.C,J7*
X114591904Y-64366666D02*
X115163333Y-64366666D01*
X115277619Y-64404761D01*
X115353809Y-64480952D01*
X115391904Y-64595238D01*
X115391904Y-64671428D01*
X114591904Y-64061904D02*
X114591904Y-63528571D01*
X115391904Y-63871428D01*
G04 #@! TO.C,J3*
X154333333Y-83461904D02*
X154333333Y-84033333D01*
X154295238Y-84147619D01*
X154219047Y-84223809D01*
X154104761Y-84261904D01*
X154028571Y-84261904D01*
X154638095Y-83461904D02*
X155133333Y-83461904D01*
X154866666Y-83766666D01*
X154980952Y-83766666D01*
X155057142Y-83804761D01*
X155095238Y-83842857D01*
X155133333Y-83919047D01*
X155133333Y-84109523D01*
X155095238Y-84185714D01*
X155057142Y-84223809D01*
X154980952Y-84261904D01*
X154752380Y-84261904D01*
X154676190Y-84223809D01*
X154638095Y-84185714D01*
G04 #@! TO.C,C1*
X117785714Y-85833333D02*
X117823809Y-85871428D01*
X117861904Y-85985714D01*
X117861904Y-86061904D01*
X117823809Y-86176190D01*
X117747619Y-86252380D01*
X117671428Y-86290476D01*
X117519047Y-86328571D01*
X117404761Y-86328571D01*
X117252380Y-86290476D01*
X117176190Y-86252380D01*
X117100000Y-86176190D01*
X117061904Y-86061904D01*
X117061904Y-85985714D01*
X117100000Y-85871428D01*
X117138095Y-85833333D01*
X117861904Y-85071428D02*
X117861904Y-85528571D01*
X117861904Y-85300000D02*
X117061904Y-85300000D01*
X117176190Y-85376190D01*
X117252380Y-85452380D01*
X117290476Y-85528571D01*
G04 #@! TO.C,R15*
X118385714Y-68361904D02*
X118119047Y-67980952D01*
X117928571Y-68361904D02*
X117928571Y-67561904D01*
X118233333Y-67561904D01*
X118309523Y-67600000D01*
X118347619Y-67638095D01*
X118385714Y-67714285D01*
X118385714Y-67828571D01*
X118347619Y-67904761D01*
X118309523Y-67942857D01*
X118233333Y-67980952D01*
X117928571Y-67980952D01*
X119147619Y-68361904D02*
X118690476Y-68361904D01*
X118919047Y-68361904D02*
X118919047Y-67561904D01*
X118842857Y-67676190D01*
X118766666Y-67752380D01*
X118690476Y-67790476D01*
X119871428Y-67561904D02*
X119490476Y-67561904D01*
X119452380Y-67942857D01*
X119490476Y-67904761D01*
X119566666Y-67866666D01*
X119757142Y-67866666D01*
X119833333Y-67904761D01*
X119871428Y-67942857D01*
X119909523Y-68019047D01*
X119909523Y-68209523D01*
X119871428Y-68285714D01*
X119833333Y-68323809D01*
X119757142Y-68361904D01*
X119566666Y-68361904D01*
X119490476Y-68323809D01*
X119452380Y-68285714D01*
G04 #@! TO.C,R2*
X151091904Y-82533333D02*
X150710952Y-82800000D01*
X151091904Y-82990476D02*
X150291904Y-82990476D01*
X150291904Y-82685714D01*
X150330000Y-82609523D01*
X150368095Y-82571428D01*
X150444285Y-82533333D01*
X150558571Y-82533333D01*
X150634761Y-82571428D01*
X150672857Y-82609523D01*
X150710952Y-82685714D01*
X150710952Y-82990476D01*
X150368095Y-82228571D02*
X150330000Y-82190476D01*
X150291904Y-82114285D01*
X150291904Y-81923809D01*
X150330000Y-81847619D01*
X150368095Y-81809523D01*
X150444285Y-81771428D01*
X150520476Y-81771428D01*
X150634761Y-81809523D01*
X151091904Y-82266666D01*
X151091904Y-81771428D01*
D12*
G04 #@! TO.C,C8*
X120241600Y-91909020D02*
X120241600Y-92190180D01*
X121261600Y-91909020D02*
X121261600Y-92190180D01*
G04 #@! TO.C,C9*
X118666800Y-91909020D02*
X118666800Y-92190180D01*
X119686800Y-91909020D02*
X119686800Y-92190180D01*
G04 #@! TO.C,C10*
X118061200Y-91909020D02*
X118061200Y-92190180D01*
X117041200Y-91909020D02*
X117041200Y-92190180D01*
G04 #@! TO.C,J6*
X107920000Y-71400000D02*
X111120000Y-71400000D01*
X112720000Y-76300000D02*
X112720000Y-73700000D01*
X105840000Y-76800000D02*
X105840000Y-73200000D01*
X107920000Y-78600000D02*
X111120000Y-78600000D01*
G04 #@! TO.C,J9*
X126492000Y-53280000D02*
X127822000Y-53280000D01*
X125222000Y-55940000D02*
X112462000Y-55940000D01*
X125222000Y-53280000D02*
X112462000Y-53280000D01*
X127822000Y-53280000D02*
X127822000Y-54610000D01*
X125222000Y-53280000D02*
X125222000Y-55940000D01*
X112462000Y-53280000D02*
X112462000Y-55940000D01*
G04 #@! TO.C,C6*
X109333200Y-88214252D02*
X109333200Y-86791748D01*
X112053200Y-88214252D02*
X112053200Y-86791748D01*
G04 #@! TO.C,C4*
X112635200Y-88214252D02*
X112635200Y-86791748D01*
X115355200Y-88214252D02*
X115355200Y-86791748D01*
G04 #@! TO.C,J10*
X144967000Y-55940000D02*
X144967000Y-53280000D01*
X132207000Y-53280000D02*
X144967000Y-53280000D01*
X130937000Y-55940000D02*
X129607000Y-55940000D01*
X132207000Y-55940000D02*
X144967000Y-55940000D01*
X132207000Y-55940000D02*
X132207000Y-53280000D01*
X129607000Y-55940000D02*
X129607000Y-54610000D01*
G04 #@! TO.C,U2*
X124960001Y-89700004D02*
X124960001Y-90100004D01*
X127360001Y-89700004D02*
X127360001Y-90100004D01*
X127360001Y-91100004D02*
X127360001Y-91500004D01*
G04 #@! TO.C,R3*
X126006360Y-92302804D02*
X126313642Y-92302804D01*
X126006360Y-93062804D02*
X126313642Y-93062804D01*
G04 #@! TO.C,C12*
X129083001Y-91272224D02*
X129083001Y-91553384D01*
X128063001Y-91272224D02*
X128063001Y-91553384D01*
G04 #@! TO.C,JP1*
X113579600Y-93980000D02*
X116239600Y-93980000D01*
X116239600Y-93980000D02*
X116239600Y-99120000D01*
X113579600Y-92710000D02*
X113579600Y-91380000D01*
X113579600Y-91380000D02*
X114909600Y-91380000D01*
X113579600Y-93980000D02*
X113579600Y-99120000D01*
X113579600Y-99120000D02*
X116239600Y-99120000D01*
G04 #@! TO.C,C11*
X121261600Y-96228780D02*
X121261600Y-95947620D01*
X120241600Y-96228780D02*
X120241600Y-95947620D01*
G04 #@! TO.C,C13*
X119661400Y-96228780D02*
X119661400Y-95947620D01*
X118641400Y-96228780D02*
X118641400Y-95947620D01*
G04 #@! TO.C,Logo2*
G36*
X109181414Y-92481771D02*
G01*
X109200234Y-92484010D01*
X109201600Y-92485056D01*
X109195863Y-92497481D01*
X109179568Y-92529703D01*
X109154080Y-92579094D01*
X109120770Y-92643024D01*
X109081005Y-92718866D01*
X109036153Y-92803991D01*
X108998513Y-92875150D01*
X108950849Y-92965582D01*
X108907494Y-93048744D01*
X108869774Y-93122022D01*
X108839016Y-93182801D01*
X108816544Y-93228468D01*
X108803684Y-93256407D01*
X108801189Y-93264222D01*
X108814441Y-93262296D01*
X108848423Y-93253734D01*
X108899635Y-93239520D01*
X108964575Y-93220642D01*
X109039746Y-93198083D01*
X109081952Y-93185152D01*
X109161068Y-93161056D01*
X109231772Y-93140111D01*
X109290568Y-93123305D01*
X109333958Y-93111626D01*
X109358444Y-93106061D01*
X109362550Y-93105917D01*
X109358886Y-93118432D01*
X109345694Y-93150835D01*
X109324328Y-93200063D01*
X109296138Y-93263050D01*
X109262479Y-93336732D01*
X109226347Y-93414532D01*
X109187361Y-93497954D01*
X109151131Y-93575692D01*
X109119304Y-93644195D01*
X109093526Y-93699913D01*
X109075443Y-93739296D01*
X109067222Y-93757583D01*
X109049896Y-93797617D01*
X109113817Y-93780755D01*
X109150352Y-93771645D01*
X109166842Y-93769919D01*
X109167664Y-93775987D01*
X109161198Y-93785171D01*
X109144446Y-93805948D01*
X109117793Y-93838179D01*
X109085107Y-93877281D01*
X109050259Y-93918670D01*
X109017116Y-93957761D01*
X108989549Y-93989973D01*
X108971426Y-94010719D01*
X108966352Y-94016000D01*
X108963513Y-94004344D01*
X108957574Y-93972902D01*
X108949502Y-93926958D01*
X108943196Y-93889573D01*
X108931836Y-93820404D01*
X108925070Y-93773297D01*
X108923410Y-93745244D01*
X108927368Y-93733238D01*
X108937456Y-93734270D01*
X108954187Y-93745332D01*
X108966205Y-93754450D01*
X109010211Y-93788015D01*
X109029056Y-93721032D01*
X109052756Y-93635890D01*
X109075671Y-93551930D01*
X109096871Y-93472715D01*
X109115432Y-93401813D01*
X109130424Y-93342789D01*
X109140923Y-93299209D01*
X109145999Y-93274637D01*
X109146176Y-93270542D01*
X109133489Y-93273231D01*
X109100291Y-93283078D01*
X109050082Y-93298966D01*
X108986366Y-93319777D01*
X108912643Y-93344394D01*
X108878203Y-93356053D01*
X108801157Y-93381950D01*
X108732524Y-93404460D01*
X108675822Y-93422476D01*
X108634564Y-93434892D01*
X108612267Y-93440601D01*
X108609376Y-93440709D01*
X108612931Y-93428264D01*
X108625179Y-93394843D01*
X108645134Y-93342953D01*
X108671805Y-93275098D01*
X108704207Y-93193786D01*
X108741349Y-93101523D01*
X108782244Y-93000815D01*
X108798638Y-92960671D01*
X108992916Y-92485650D01*
X109097258Y-92481961D01*
X109145115Y-92481030D01*
X109181414Y-92481771D01*
G37*
D15*
X109181414Y-92481771D02*
X109200234Y-92484010D01*
X109201600Y-92485056D01*
X109195863Y-92497481D01*
X109179568Y-92529703D01*
X109154080Y-92579094D01*
X109120770Y-92643024D01*
X109081005Y-92718866D01*
X109036153Y-92803991D01*
X108998513Y-92875150D01*
X108950849Y-92965582D01*
X108907494Y-93048744D01*
X108869774Y-93122022D01*
X108839016Y-93182801D01*
X108816544Y-93228468D01*
X108803684Y-93256407D01*
X108801189Y-93264222D01*
X108814441Y-93262296D01*
X108848423Y-93253734D01*
X108899635Y-93239520D01*
X108964575Y-93220642D01*
X109039746Y-93198083D01*
X109081952Y-93185152D01*
X109161068Y-93161056D01*
X109231772Y-93140111D01*
X109290568Y-93123305D01*
X109333958Y-93111626D01*
X109358444Y-93106061D01*
X109362550Y-93105917D01*
X109358886Y-93118432D01*
X109345694Y-93150835D01*
X109324328Y-93200063D01*
X109296138Y-93263050D01*
X109262479Y-93336732D01*
X109226347Y-93414532D01*
X109187361Y-93497954D01*
X109151131Y-93575692D01*
X109119304Y-93644195D01*
X109093526Y-93699913D01*
X109075443Y-93739296D01*
X109067222Y-93757583D01*
X109049896Y-93797617D01*
X109113817Y-93780755D01*
X109150352Y-93771645D01*
X109166842Y-93769919D01*
X109167664Y-93775987D01*
X109161198Y-93785171D01*
X109144446Y-93805948D01*
X109117793Y-93838179D01*
X109085107Y-93877281D01*
X109050259Y-93918670D01*
X109017116Y-93957761D01*
X108989549Y-93989973D01*
X108971426Y-94010719D01*
X108966352Y-94016000D01*
X108963513Y-94004344D01*
X108957574Y-93972902D01*
X108949502Y-93926958D01*
X108943196Y-93889573D01*
X108931836Y-93820404D01*
X108925070Y-93773297D01*
X108923410Y-93745244D01*
X108927368Y-93733238D01*
X108937456Y-93734270D01*
X108954187Y-93745332D01*
X108966205Y-93754450D01*
X109010211Y-93788015D01*
X109029056Y-93721032D01*
X109052756Y-93635890D01*
X109075671Y-93551930D01*
X109096871Y-93472715D01*
X109115432Y-93401813D01*
X109130424Y-93342789D01*
X109140923Y-93299209D01*
X109145999Y-93274637D01*
X109146176Y-93270542D01*
X109133489Y-93273231D01*
X109100291Y-93283078D01*
X109050082Y-93298966D01*
X108986366Y-93319777D01*
X108912643Y-93344394D01*
X108878203Y-93356053D01*
X108801157Y-93381950D01*
X108732524Y-93404460D01*
X108675822Y-93422476D01*
X108634564Y-93434892D01*
X108612267Y-93440601D01*
X108609376Y-93440709D01*
X108612931Y-93428264D01*
X108625179Y-93394843D01*
X108645134Y-93342953D01*
X108671805Y-93275098D01*
X108704207Y-93193786D01*
X108741349Y-93101523D01*
X108782244Y-93000815D01*
X108798638Y-92960671D01*
X108992916Y-92485650D01*
X109097258Y-92481961D01*
X109145115Y-92481030D01*
X109181414Y-92481771D01*
G36*
X107542233Y-93963987D02*
G01*
X107603363Y-93859551D01*
X107674356Y-93739034D01*
X107755801Y-93601419D01*
X107848285Y-93445690D01*
X107952397Y-93270833D01*
X108068724Y-93075830D01*
X108140558Y-92955550D01*
X108242058Y-92785883D01*
X108340513Y-92621753D01*
X108435081Y-92464541D01*
X108524919Y-92315628D01*
X108609184Y-92176397D01*
X108687034Y-92048230D01*
X108757627Y-91932507D01*
X108820120Y-91830610D01*
X108873671Y-91743922D01*
X108917437Y-91673823D01*
X108950576Y-91621696D01*
X108972246Y-91588923D01*
X108980725Y-91577600D01*
X109011443Y-91549842D01*
X109039863Y-91536803D01*
X109078638Y-91533202D01*
X109087299Y-91533150D01*
X109129181Y-91535667D01*
X109158565Y-91546743D01*
X109188139Y-91571660D01*
X109194046Y-91577600D01*
X109204452Y-91592257D01*
X109227024Y-91627021D01*
X109260771Y-91680269D01*
X109304704Y-91750380D01*
X109357830Y-91835732D01*
X109419161Y-91934704D01*
X109487705Y-92045674D01*
X109562472Y-92167021D01*
X109642472Y-92297124D01*
X109726715Y-92434360D01*
X109814209Y-92577109D01*
X109903965Y-92723749D01*
X109994992Y-92872658D01*
X110086299Y-93022215D01*
X110176897Y-93170798D01*
X110265794Y-93316787D01*
X110352001Y-93458559D01*
X110434526Y-93594493D01*
X110512380Y-93722967D01*
X110584572Y-93842361D01*
X110650112Y-93951052D01*
X110708009Y-94047419D01*
X110757272Y-94129841D01*
X110796912Y-94196695D01*
X110825938Y-94246361D01*
X110843359Y-94277218D01*
X110845640Y-94281520D01*
X110864122Y-94338073D01*
X110860089Y-94388528D01*
X110834899Y-94429236D01*
X110789909Y-94456551D01*
X110779200Y-94459935D01*
X110758181Y-94462147D01*
X110711807Y-94464157D01*
X110640123Y-94465965D01*
X110543173Y-94467571D01*
X110421003Y-94468974D01*
X110273656Y-94470174D01*
X110101178Y-94471170D01*
X109903612Y-94471963D01*
X109681004Y-94472551D01*
X109433397Y-94472936D01*
X109160838Y-94473115D01*
X109070448Y-94473129D01*
X107408946Y-94473200D01*
X107370239Y-94434493D01*
X107345377Y-94405687D01*
X107336147Y-94378924D01*
X107337711Y-94342418D01*
X107341103Y-94330070D01*
X107349654Y-94309765D01*
X107363952Y-94280490D01*
X107384585Y-94241227D01*
X107412142Y-94190961D01*
X107447210Y-94128676D01*
X107449500Y-94124680D01*
X107855400Y-94124680D01*
X107867751Y-94126220D01*
X107903411Y-94127616D01*
X107960290Y-94128870D01*
X108036297Y-94129983D01*
X108129341Y-94130955D01*
X108237333Y-94131788D01*
X108358180Y-94132481D01*
X108489794Y-94133038D01*
X108630082Y-94133457D01*
X108776955Y-94133740D01*
X108928323Y-94133888D01*
X109082094Y-94133903D01*
X109236178Y-94133784D01*
X109388485Y-94133532D01*
X109536924Y-94133150D01*
X109679404Y-94132637D01*
X109813835Y-94131994D01*
X109938127Y-94131223D01*
X110050188Y-94130324D01*
X110147929Y-94129298D01*
X110229258Y-94128147D01*
X110292086Y-94126870D01*
X110334321Y-94125469D01*
X110353874Y-94123946D01*
X110354932Y-94123587D01*
X110350121Y-94111678D01*
X110333198Y-94079875D01*
X110305247Y-94029988D01*
X110267350Y-93963826D01*
X110220591Y-93883199D01*
X110166053Y-93789917D01*
X110104821Y-93685789D01*
X110037977Y-93572625D01*
X109966605Y-93452234D01*
X109891788Y-93326426D01*
X109814611Y-93197011D01*
X109736155Y-93065797D01*
X109657505Y-92934595D01*
X109579744Y-92805215D01*
X109503956Y-92679465D01*
X109431224Y-92559156D01*
X109362632Y-92446096D01*
X109299262Y-92342096D01*
X109242199Y-92248965D01*
X109192526Y-92168513D01*
X109151326Y-92102549D01*
X109119682Y-92052883D01*
X109098679Y-92021325D01*
X109089400Y-92009683D01*
X109089256Y-92009656D01*
X109081060Y-92020420D01*
X109061260Y-92051361D01*
X109030926Y-92100647D01*
X108991129Y-92166442D01*
X108942938Y-92246914D01*
X108887423Y-92340227D01*
X108825654Y-92444548D01*
X108758702Y-92558043D01*
X108687635Y-92678877D01*
X108613525Y-92805216D01*
X108537440Y-92935227D01*
X108460452Y-93067075D01*
X108383629Y-93198927D01*
X108308043Y-93328947D01*
X108234762Y-93455302D01*
X108164857Y-93576159D01*
X108099398Y-93689682D01*
X108039455Y-93794037D01*
X107986097Y-93887392D01*
X107940396Y-93967910D01*
X107903420Y-94033760D01*
X107876239Y-94083105D01*
X107859925Y-94114113D01*
X107855400Y-94124680D01*
X107449500Y-94124680D01*
X107490378Y-94053357D01*
X107542233Y-93963987D01*
G37*
X107542233Y-93963987D02*
X107603363Y-93859551D01*
X107674356Y-93739034D01*
X107755801Y-93601419D01*
X107848285Y-93445690D01*
X107952397Y-93270833D01*
X108068724Y-93075830D01*
X108140558Y-92955550D01*
X108242058Y-92785883D01*
X108340513Y-92621753D01*
X108435081Y-92464541D01*
X108524919Y-92315628D01*
X108609184Y-92176397D01*
X108687034Y-92048230D01*
X108757627Y-91932507D01*
X108820120Y-91830610D01*
X108873671Y-91743922D01*
X108917437Y-91673823D01*
X108950576Y-91621696D01*
X108972246Y-91588923D01*
X108980725Y-91577600D01*
X109011443Y-91549842D01*
X109039863Y-91536803D01*
X109078638Y-91533202D01*
X109087299Y-91533150D01*
X109129181Y-91535667D01*
X109158565Y-91546743D01*
X109188139Y-91571660D01*
X109194046Y-91577600D01*
X109204452Y-91592257D01*
X109227024Y-91627021D01*
X109260771Y-91680269D01*
X109304704Y-91750380D01*
X109357830Y-91835732D01*
X109419161Y-91934704D01*
X109487705Y-92045674D01*
X109562472Y-92167021D01*
X109642472Y-92297124D01*
X109726715Y-92434360D01*
X109814209Y-92577109D01*
X109903965Y-92723749D01*
X109994992Y-92872658D01*
X110086299Y-93022215D01*
X110176897Y-93170798D01*
X110265794Y-93316787D01*
X110352001Y-93458559D01*
X110434526Y-93594493D01*
X110512380Y-93722967D01*
X110584572Y-93842361D01*
X110650112Y-93951052D01*
X110708009Y-94047419D01*
X110757272Y-94129841D01*
X110796912Y-94196695D01*
X110825938Y-94246361D01*
X110843359Y-94277218D01*
X110845640Y-94281520D01*
X110864122Y-94338073D01*
X110860089Y-94388528D01*
X110834899Y-94429236D01*
X110789909Y-94456551D01*
X110779200Y-94459935D01*
X110758181Y-94462147D01*
X110711807Y-94464157D01*
X110640123Y-94465965D01*
X110543173Y-94467571D01*
X110421003Y-94468974D01*
X110273656Y-94470174D01*
X110101178Y-94471170D01*
X109903612Y-94471963D01*
X109681004Y-94472551D01*
X109433397Y-94472936D01*
X109160838Y-94473115D01*
X109070448Y-94473129D01*
X107408946Y-94473200D01*
X107370239Y-94434493D01*
X107345377Y-94405687D01*
X107336147Y-94378924D01*
X107337711Y-94342418D01*
X107341103Y-94330070D01*
X107349654Y-94309765D01*
X107363952Y-94280490D01*
X107384585Y-94241227D01*
X107412142Y-94190961D01*
X107447210Y-94128676D01*
X107449500Y-94124680D01*
X107855400Y-94124680D01*
X107867751Y-94126220D01*
X107903411Y-94127616D01*
X107960290Y-94128870D01*
X108036297Y-94129983D01*
X108129341Y-94130955D01*
X108237333Y-94131788D01*
X108358180Y-94132481D01*
X108489794Y-94133038D01*
X108630082Y-94133457D01*
X108776955Y-94133740D01*
X108928323Y-94133888D01*
X109082094Y-94133903D01*
X109236178Y-94133784D01*
X109388485Y-94133532D01*
X109536924Y-94133150D01*
X109679404Y-94132637D01*
X109813835Y-94131994D01*
X109938127Y-94131223D01*
X110050188Y-94130324D01*
X110147929Y-94129298D01*
X110229258Y-94128147D01*
X110292086Y-94126870D01*
X110334321Y-94125469D01*
X110353874Y-94123946D01*
X110354932Y-94123587D01*
X110350121Y-94111678D01*
X110333198Y-94079875D01*
X110305247Y-94029988D01*
X110267350Y-93963826D01*
X110220591Y-93883199D01*
X110166053Y-93789917D01*
X110104821Y-93685789D01*
X110037977Y-93572625D01*
X109966605Y-93452234D01*
X109891788Y-93326426D01*
X109814611Y-93197011D01*
X109736155Y-93065797D01*
X109657505Y-92934595D01*
X109579744Y-92805215D01*
X109503956Y-92679465D01*
X109431224Y-92559156D01*
X109362632Y-92446096D01*
X109299262Y-92342096D01*
X109242199Y-92248965D01*
X109192526Y-92168513D01*
X109151326Y-92102549D01*
X109119682Y-92052883D01*
X109098679Y-92021325D01*
X109089400Y-92009683D01*
X109089256Y-92009656D01*
X109081060Y-92020420D01*
X109061260Y-92051361D01*
X109030926Y-92100647D01*
X108991129Y-92166442D01*
X108942938Y-92246914D01*
X108887423Y-92340227D01*
X108825654Y-92444548D01*
X108758702Y-92558043D01*
X108687635Y-92678877D01*
X108613525Y-92805216D01*
X108537440Y-92935227D01*
X108460452Y-93067075D01*
X108383629Y-93198927D01*
X108308043Y-93328947D01*
X108234762Y-93455302D01*
X108164857Y-93576159D01*
X108099398Y-93689682D01*
X108039455Y-93794037D01*
X107986097Y-93887392D01*
X107940396Y-93967910D01*
X107903420Y-94033760D01*
X107876239Y-94083105D01*
X107859925Y-94114113D01*
X107855400Y-94124680D01*
X107449500Y-94124680D01*
X107490378Y-94053357D01*
X107542233Y-93963987D01*
D12*
G04 #@! TO.C,C7*
X123287801Y-91272224D02*
X123287801Y-91553384D01*
X124307801Y-91272224D02*
X124307801Y-91553384D01*
G04 #@! TO.C,R12*
X111377500Y-82062742D02*
X111377500Y-82537258D01*
X112422500Y-82062742D02*
X112422500Y-82537258D01*
G04 #@! TO.C,C14*
X117066600Y-96228780D02*
X117066600Y-95947620D01*
X118086600Y-96228780D02*
X118086600Y-95947620D01*
G04 #@! TO.C,R13*
X120480000Y-77453641D02*
X120480000Y-77146359D01*
X119720000Y-77453641D02*
X119720000Y-77146359D01*
G04 #@! TO.C,R14*
X117880000Y-77453641D02*
X117880000Y-77146359D01*
X117120000Y-77453641D02*
X117120000Y-77146359D01*
G04 #@! TO.C,R17*
X145920000Y-75346359D02*
X145920000Y-75653641D01*
X146680000Y-75346359D02*
X146680000Y-75653641D01*
G04 #@! TO.C,R18*
X145080000Y-75346359D02*
X145080000Y-75653641D01*
X144320000Y-75346359D02*
X144320000Y-75653641D01*
G04 #@! TO.C,R10*
X118420000Y-77453641D02*
X118420000Y-77146359D01*
X119180000Y-77453641D02*
X119180000Y-77146359D01*
G04 #@! TO.C,R8*
X147880000Y-75346359D02*
X147880000Y-75653641D01*
X147120000Y-75346359D02*
X147120000Y-75653641D01*
G04 #@! TO.C,Logo1*
G36*
X136211684Y-97392017D02*
G01*
X136214200Y-97407583D01*
X136233624Y-97449793D01*
X136245950Y-97458383D01*
X136264629Y-97475064D01*
X136245950Y-97488016D01*
X136221874Y-97520880D01*
X136213276Y-97575901D01*
X136219303Y-97632661D01*
X136239106Y-97670743D01*
X136253799Y-97676400D01*
X136280089Y-97688713D01*
X136277700Y-97701800D01*
X136252133Y-97723386D01*
X136207844Y-97715295D01*
X136195150Y-97710378D01*
X136174039Y-97678856D01*
X136163630Y-97618196D01*
X136163400Y-97607233D01*
X136149170Y-97525746D01*
X136118950Y-97483157D01*
X136088398Y-97457229D01*
X136099068Y-97449372D01*
X136118950Y-97448607D01*
X136156565Y-97430061D01*
X136163400Y-97409700D01*
X136177115Y-97375898D01*
X136188800Y-97371600D01*
X136211684Y-97392017D01*
G37*
D15*
X136211684Y-97392017D02*
X136214200Y-97407583D01*
X136233624Y-97449793D01*
X136245950Y-97458383D01*
X136264629Y-97475064D01*
X136245950Y-97488016D01*
X136221874Y-97520880D01*
X136213276Y-97575901D01*
X136219303Y-97632661D01*
X136239106Y-97670743D01*
X136253799Y-97676400D01*
X136280089Y-97688713D01*
X136277700Y-97701800D01*
X136252133Y-97723386D01*
X136207844Y-97715295D01*
X136195150Y-97710378D01*
X136174039Y-97678856D01*
X136163630Y-97618196D01*
X136163400Y-97607233D01*
X136149170Y-97525746D01*
X136118950Y-97483157D01*
X136088398Y-97457229D01*
X136099068Y-97449372D01*
X136118950Y-97448607D01*
X136156565Y-97430061D01*
X136163400Y-97409700D01*
X136177115Y-97375898D01*
X136188800Y-97371600D01*
X136211684Y-97392017D01*
G36*
X136045621Y-97456128D02*
G01*
X136061800Y-97472402D01*
X136043389Y-97486876D01*
X136026269Y-97483371D01*
X135986349Y-97480196D01*
X135977313Y-97503797D01*
X135999586Y-97540290D01*
X136023918Y-97559907D01*
X136075462Y-97602976D01*
X136081357Y-97642255D01*
X136047285Y-97687285D01*
X136005678Y-97720083D01*
X135964594Y-97718991D01*
X135941150Y-97710378D01*
X135910319Y-97686032D01*
X135921865Y-97667696D01*
X135960200Y-97669040D01*
X136001650Y-97668089D01*
X136007958Y-97641047D01*
X135979587Y-97598055D01*
X135955964Y-97576477D01*
X135917667Y-97524510D01*
X135923799Y-97477992D01*
X135969986Y-97450464D01*
X135997502Y-97447800D01*
X136045621Y-97456128D01*
G37*
X136045621Y-97456128D02*
X136061800Y-97472402D01*
X136043389Y-97486876D01*
X136026269Y-97483371D01*
X135986349Y-97480196D01*
X135977313Y-97503797D01*
X135999586Y-97540290D01*
X136023918Y-97559907D01*
X136075462Y-97602976D01*
X136081357Y-97642255D01*
X136047285Y-97687285D01*
X136005678Y-97720083D01*
X135964594Y-97718991D01*
X135941150Y-97710378D01*
X135910319Y-97686032D01*
X135921865Y-97667696D01*
X135960200Y-97669040D01*
X136001650Y-97668089D01*
X136007958Y-97641047D01*
X135979587Y-97598055D01*
X135955964Y-97576477D01*
X135917667Y-97524510D01*
X135923799Y-97477992D01*
X135969986Y-97450464D01*
X135997502Y-97447800D01*
X136045621Y-97456128D01*
G36*
X133961720Y-97455749D02*
G01*
X133979000Y-97474230D01*
X133960660Y-97492834D01*
X133941713Y-97489726D01*
X133900877Y-97487222D01*
X133891253Y-97510563D01*
X133916949Y-97542632D01*
X133927488Y-97549019D01*
X133971960Y-97593501D01*
X133978222Y-97646154D01*
X133953010Y-97691472D01*
X133903055Y-97713944D01*
X133858350Y-97708249D01*
X133828089Y-97684591D01*
X133840888Y-97663220D01*
X133868316Y-97660172D01*
X133910976Y-97649344D01*
X133917803Y-97619739D01*
X133886385Y-97590837D01*
X133877317Y-97587473D01*
X133834661Y-97555750D01*
X133829745Y-97511511D01*
X133858664Y-97471328D01*
X133909150Y-97452462D01*
X133961720Y-97455749D01*
G37*
X133961720Y-97455749D02*
X133979000Y-97474230D01*
X133960660Y-97492834D01*
X133941713Y-97489726D01*
X133900877Y-97487222D01*
X133891253Y-97510563D01*
X133916949Y-97542632D01*
X133927488Y-97549019D01*
X133971960Y-97593501D01*
X133978222Y-97646154D01*
X133953010Y-97691472D01*
X133903055Y-97713944D01*
X133858350Y-97708249D01*
X133828089Y-97684591D01*
X133840888Y-97663220D01*
X133868316Y-97660172D01*
X133910976Y-97649344D01*
X133917803Y-97619739D01*
X133886385Y-97590837D01*
X133877317Y-97587473D01*
X133834661Y-97555750D01*
X133829745Y-97511511D01*
X133858664Y-97471328D01*
X133909150Y-97452462D01*
X133961720Y-97455749D01*
G36*
X134607693Y-97342536D02*
G01*
X134614000Y-97384300D01*
X134622619Y-97430268D01*
X134658744Y-97446585D01*
X134687482Y-97447800D01*
X134749347Y-97461133D01*
X134776382Y-97487977D01*
X134788768Y-97544977D01*
X134791347Y-97611883D01*
X134784991Y-97669994D01*
X134770574Y-97700611D01*
X134766400Y-97701800D01*
X134749215Y-97679566D01*
X134741096Y-97625304D01*
X134741000Y-97617979D01*
X134728833Y-97538613D01*
X134696101Y-97493617D01*
X134649004Y-97490602D01*
X134624053Y-97525274D01*
X134614041Y-97597140D01*
X134614000Y-97602917D01*
X134608222Y-97665528D01*
X134593832Y-97699675D01*
X134588600Y-97701800D01*
X134575801Y-97678162D01*
X134566881Y-97614176D01*
X134563223Y-97520233D01*
X134563200Y-97511300D01*
X134566351Y-97415311D01*
X134574883Y-97348407D01*
X134587408Y-97320978D01*
X134588600Y-97320800D01*
X134607693Y-97342536D01*
G37*
X134607693Y-97342536D02*
X134614000Y-97384300D01*
X134622619Y-97430268D01*
X134658744Y-97446585D01*
X134687482Y-97447800D01*
X134749347Y-97461133D01*
X134776382Y-97487977D01*
X134788768Y-97544977D01*
X134791347Y-97611883D01*
X134784991Y-97669994D01*
X134770574Y-97700611D01*
X134766400Y-97701800D01*
X134749215Y-97679566D01*
X134741096Y-97625304D01*
X134741000Y-97617979D01*
X134728833Y-97538613D01*
X134696101Y-97493617D01*
X134649004Y-97490602D01*
X134624053Y-97525274D01*
X134614041Y-97597140D01*
X134614000Y-97602917D01*
X134608222Y-97665528D01*
X134593832Y-97699675D01*
X134588600Y-97701800D01*
X134575801Y-97678162D01*
X134566881Y-97614176D01*
X134563223Y-97520233D01*
X134563200Y-97511300D01*
X134566351Y-97415311D01*
X134574883Y-97348407D01*
X134587408Y-97320978D01*
X134588600Y-97320800D01*
X134607693Y-97342536D01*
G36*
X137712061Y-97365528D02*
G01*
X137712800Y-97371600D01*
X137693471Y-97396261D01*
X137687400Y-97397000D01*
X137662738Y-97377671D01*
X137662000Y-97371600D01*
X137681328Y-97346938D01*
X137687400Y-97346200D01*
X137712061Y-97365528D01*
G37*
X137712061Y-97365528D02*
X137712800Y-97371600D01*
X137693471Y-97396261D01*
X137687400Y-97397000D01*
X137662738Y-97377671D01*
X137662000Y-97371600D01*
X137681328Y-97346938D01*
X137687400Y-97346200D01*
X137712061Y-97365528D01*
G36*
X136541534Y-97392172D02*
G01*
X136544400Y-97409700D01*
X136565239Y-97442320D01*
X136588850Y-97448607D01*
X136619401Y-97451900D01*
X136608731Y-97467662D01*
X136588850Y-97483157D01*
X136554007Y-97534274D01*
X136546482Y-97599079D01*
X136566645Y-97654927D01*
X136585761Y-97671622D01*
X136609824Y-97696470D01*
X136604269Y-97708894D01*
X136565699Y-97709682D01*
X136537507Y-97698447D01*
X136502487Y-97651021D01*
X136493600Y-97588354D01*
X136485038Y-97526090D01*
X136464190Y-97489340D01*
X136461850Y-97488016D01*
X136443170Y-97471335D01*
X136461850Y-97458383D01*
X136491095Y-97422720D01*
X136493600Y-97407583D01*
X136508012Y-97375163D01*
X136519000Y-97371600D01*
X136541534Y-97392172D01*
G37*
X136541534Y-97392172D02*
X136544400Y-97409700D01*
X136565239Y-97442320D01*
X136588850Y-97448607D01*
X136619401Y-97451900D01*
X136608731Y-97467662D01*
X136588850Y-97483157D01*
X136554007Y-97534274D01*
X136546482Y-97599079D01*
X136566645Y-97654927D01*
X136585761Y-97671622D01*
X136609824Y-97696470D01*
X136604269Y-97708894D01*
X136565699Y-97709682D01*
X136537507Y-97698447D01*
X136502487Y-97651021D01*
X136493600Y-97588354D01*
X136485038Y-97526090D01*
X136464190Y-97489340D01*
X136461850Y-97488016D01*
X136443170Y-97471335D01*
X136461850Y-97458383D01*
X136491095Y-97422720D01*
X136493600Y-97407583D01*
X136508012Y-97375163D01*
X136519000Y-97371600D01*
X136541534Y-97392172D01*
G36*
X137550678Y-97470265D02*
G01*
X137563414Y-97525961D01*
X137565216Y-97543050D01*
X137576411Y-97607866D01*
X137600672Y-97634903D01*
X137623900Y-97638300D01*
X137659373Y-97627369D01*
X137677211Y-97586074D01*
X137682583Y-97543050D01*
X137694408Y-97472955D01*
X137710814Y-97449794D01*
X137726668Y-97470638D01*
X137736841Y-97532556D01*
X137738200Y-97574800D01*
X137736723Y-97649960D01*
X137726521Y-97687436D01*
X137698938Y-97700345D01*
X137654380Y-97701800D01*
X137587073Y-97693070D01*
X137540781Y-97672000D01*
X137540080Y-97671320D01*
X137521590Y-97631784D01*
X137511679Y-97570942D01*
X137510906Y-97507661D01*
X137519827Y-97460809D01*
X137533466Y-97447800D01*
X137550678Y-97470265D01*
G37*
X137550678Y-97470265D02*
X137563414Y-97525961D01*
X137565216Y-97543050D01*
X137576411Y-97607866D01*
X137600672Y-97634903D01*
X137623900Y-97638300D01*
X137659373Y-97627369D01*
X137677211Y-97586074D01*
X137682583Y-97543050D01*
X137694408Y-97472955D01*
X137710814Y-97449794D01*
X137726668Y-97470638D01*
X137736841Y-97532556D01*
X137738200Y-97574800D01*
X137736723Y-97649960D01*
X137726521Y-97687436D01*
X137698938Y-97700345D01*
X137654380Y-97701800D01*
X137587073Y-97693070D01*
X137540781Y-97672000D01*
X137540080Y-97671320D01*
X137521590Y-97631784D01*
X137511679Y-97570942D01*
X137510906Y-97507661D01*
X137519827Y-97460809D01*
X137533466Y-97447800D01*
X137550678Y-97470265D01*
G36*
X133231033Y-97579604D02*
G01*
X133282861Y-97552007D01*
X133308910Y-97549400D01*
X133356141Y-97539371D01*
X133362366Y-97517650D01*
X133331507Y-97494678D01*
X133296750Y-97491950D01*
X133253860Y-97486373D01*
X133242400Y-97471291D01*
X133264427Y-97455187D01*
X133318573Y-97452003D01*
X133324950Y-97452540D01*
X133375540Y-97460947D01*
X133400963Y-97483029D01*
X133411698Y-97533361D01*
X133415110Y-97577947D01*
X133417046Y-97650581D01*
X133406549Y-97687552D01*
X133377705Y-97703581D01*
X133363352Y-97706745D01*
X133300653Y-97711008D01*
X133266841Y-97706138D01*
X133218839Y-97672261D01*
X133209532Y-97630431D01*
X133276651Y-97630431D01*
X133289917Y-97662417D01*
X133325728Y-97669773D01*
X133327277Y-97669285D01*
X133357329Y-97638693D01*
X133364912Y-97617145D01*
X133359900Y-97580186D01*
X133323788Y-97582718D01*
X133296295Y-97597749D01*
X133276651Y-97630431D01*
X133209532Y-97630431D01*
X133208298Y-97624886D01*
X133231033Y-97579604D01*
G37*
X133231033Y-97579604D02*
X133282861Y-97552007D01*
X133308910Y-97549400D01*
X133356141Y-97539371D01*
X133362366Y-97517650D01*
X133331507Y-97494678D01*
X133296750Y-97491950D01*
X133253860Y-97486373D01*
X133242400Y-97471291D01*
X133264427Y-97455187D01*
X133318573Y-97452003D01*
X133324950Y-97452540D01*
X133375540Y-97460947D01*
X133400963Y-97483029D01*
X133411698Y-97533361D01*
X133415110Y-97577947D01*
X133417046Y-97650581D01*
X133406549Y-97687552D01*
X133377705Y-97703581D01*
X133363352Y-97706745D01*
X133300653Y-97711008D01*
X133266841Y-97706138D01*
X133218839Y-97672261D01*
X133209532Y-97630431D01*
X133276651Y-97630431D01*
X133289917Y-97662417D01*
X133325728Y-97669773D01*
X133327277Y-97669285D01*
X133357329Y-97638693D01*
X133364912Y-97617145D01*
X133359900Y-97580186D01*
X133323788Y-97582718D01*
X133296295Y-97597749D01*
X133276651Y-97630431D01*
X133209532Y-97630431D01*
X133208298Y-97624886D01*
X133231033Y-97579604D01*
G36*
X132929601Y-97368380D02*
G01*
X132937550Y-97422285D01*
X132937600Y-97427382D01*
X132937600Y-97508565D01*
X133021359Y-97427382D01*
X133084574Y-97373525D01*
X133128299Y-97348958D01*
X133146394Y-97352991D01*
X133132719Y-97384934D01*
X133089999Y-97435100D01*
X133003834Y-97524000D01*
X133090000Y-97612900D01*
X133136429Y-97668644D01*
X133145729Y-97697081D01*
X133124039Y-97697521D01*
X133077499Y-97669273D01*
X133021359Y-97620617D01*
X132937600Y-97539434D01*
X132937600Y-97620617D01*
X132930660Y-97676236D01*
X132913794Y-97701640D01*
X132912200Y-97701800D01*
X132899170Y-97678307D01*
X132890167Y-97615341D01*
X132886800Y-97524172D01*
X132886800Y-97524000D01*
X132890156Y-97432792D01*
X132899151Y-97369769D01*
X132912175Y-97346200D01*
X132912200Y-97346200D01*
X132929601Y-97368380D01*
G37*
X132929601Y-97368380D02*
X132937550Y-97422285D01*
X132937600Y-97427382D01*
X132937600Y-97508565D01*
X133021359Y-97427382D01*
X133084574Y-97373525D01*
X133128299Y-97348958D01*
X133146394Y-97352991D01*
X133132719Y-97384934D01*
X133089999Y-97435100D01*
X133003834Y-97524000D01*
X133090000Y-97612900D01*
X133136429Y-97668644D01*
X133145729Y-97697081D01*
X133124039Y-97697521D01*
X133077499Y-97669273D01*
X133021359Y-97620617D01*
X132937600Y-97539434D01*
X132937600Y-97620617D01*
X132930660Y-97676236D01*
X132913794Y-97701640D01*
X132912200Y-97701800D01*
X132899170Y-97678307D01*
X132890167Y-97615341D01*
X132886800Y-97524172D01*
X132886800Y-97524000D01*
X132890156Y-97432792D01*
X132899151Y-97369769D01*
X132912175Y-97346200D01*
X132912200Y-97346200D01*
X132929601Y-97368380D01*
G36*
X133731350Y-97327065D02*
G01*
X133751247Y-97359203D01*
X133764990Y-97438076D01*
X133770562Y-97519681D01*
X133772716Y-97616258D01*
X133768176Y-97672155D01*
X133755221Y-97697250D01*
X133738812Y-97701800D01*
X133718339Y-97692693D01*
X133706271Y-97659090D01*
X133700687Y-97591564D01*
X133699600Y-97509183D01*
X133701960Y-97406216D01*
X133709787Y-97347465D01*
X133724195Y-97326530D01*
X133731350Y-97327065D01*
G37*
X133731350Y-97327065D02*
X133751247Y-97359203D01*
X133764990Y-97438076D01*
X133770562Y-97519681D01*
X133772716Y-97616258D01*
X133768176Y-97672155D01*
X133755221Y-97697250D01*
X133738812Y-97701800D01*
X133718339Y-97692693D01*
X133706271Y-97659090D01*
X133700687Y-97591564D01*
X133699600Y-97509183D01*
X133701960Y-97406216D01*
X133709787Y-97347465D01*
X133724195Y-97326530D01*
X133731350Y-97327065D01*
G36*
X137049534Y-97392172D02*
G01*
X137052400Y-97409700D01*
X137072731Y-97443374D01*
X137090500Y-97447800D01*
X137124301Y-97461515D01*
X137128600Y-97473200D01*
X137108027Y-97495734D01*
X137090500Y-97498600D01*
X137062236Y-97518944D01*
X137052077Y-97566717D01*
X137059647Y-97622027D01*
X137084572Y-97664981D01*
X137093761Y-97671622D01*
X137117824Y-97696470D01*
X137112269Y-97708894D01*
X137073699Y-97709682D01*
X137045507Y-97698447D01*
X137010487Y-97651021D01*
X137001600Y-97588354D01*
X136993038Y-97526090D01*
X136972190Y-97489340D01*
X136969850Y-97488016D01*
X136951170Y-97471335D01*
X136969850Y-97458383D01*
X136999095Y-97422720D01*
X137001600Y-97407583D01*
X137016012Y-97375163D01*
X137027000Y-97371600D01*
X137049534Y-97392172D01*
G37*
X137049534Y-97392172D02*
X137052400Y-97409700D01*
X137072731Y-97443374D01*
X137090500Y-97447800D01*
X137124301Y-97461515D01*
X137128600Y-97473200D01*
X137108027Y-97495734D01*
X137090500Y-97498600D01*
X137062236Y-97518944D01*
X137052077Y-97566717D01*
X137059647Y-97622027D01*
X137084572Y-97664981D01*
X137093761Y-97671622D01*
X137117824Y-97696470D01*
X137112269Y-97708894D01*
X137073699Y-97709682D01*
X137045507Y-97698447D01*
X137010487Y-97651021D01*
X137001600Y-97588354D01*
X136993038Y-97526090D01*
X136972190Y-97489340D01*
X136969850Y-97488016D01*
X136951170Y-97471335D01*
X136969850Y-97458383D01*
X136999095Y-97422720D01*
X137001600Y-97407583D01*
X137016012Y-97375163D01*
X137027000Y-97371600D01*
X137049534Y-97392172D01*
G36*
X140695764Y-97474474D02*
G01*
X140747059Y-97454577D01*
X140803714Y-97452314D01*
X140858735Y-97469913D01*
X140881087Y-97515990D01*
X140883137Y-97530350D01*
X140883921Y-97576326D01*
X140862696Y-97595892D01*
X140805807Y-97600182D01*
X140797477Y-97600200D01*
X140738469Y-97602820D01*
X140721418Y-97614492D01*
X140736755Y-97639932D01*
X140790466Y-97667949D01*
X140828765Y-97664848D01*
X140876177Y-97663990D01*
X140885941Y-97683910D01*
X140852170Y-97709954D01*
X140847622Y-97711782D01*
X140799176Y-97725369D01*
X140759312Y-97715601D01*
X140715651Y-97687659D01*
X140672799Y-97632463D01*
X140659368Y-97561175D01*
X140665377Y-97539366D01*
X140720326Y-97539366D01*
X140746340Y-97548759D01*
X140770389Y-97549400D01*
X140819605Y-97541961D01*
X140837000Y-97526717D01*
X140817742Y-97496753D01*
X140775955Y-97490468D01*
X140735618Y-97511106D01*
X140734146Y-97512809D01*
X140720326Y-97539366D01*
X140665377Y-97539366D01*
X140677405Y-97495718D01*
X140695764Y-97474474D01*
G37*
X140695764Y-97474474D02*
X140747059Y-97454577D01*
X140803714Y-97452314D01*
X140858735Y-97469913D01*
X140881087Y-97515990D01*
X140883137Y-97530350D01*
X140883921Y-97576326D01*
X140862696Y-97595892D01*
X140805807Y-97600182D01*
X140797477Y-97600200D01*
X140738469Y-97602820D01*
X140721418Y-97614492D01*
X140736755Y-97639932D01*
X140790466Y-97667949D01*
X140828765Y-97664848D01*
X140876177Y-97663990D01*
X140885941Y-97683910D01*
X140852170Y-97709954D01*
X140847622Y-97711782D01*
X140799176Y-97725369D01*
X140759312Y-97715601D01*
X140715651Y-97687659D01*
X140672799Y-97632463D01*
X140659368Y-97561175D01*
X140665377Y-97539366D01*
X140720326Y-97539366D01*
X140746340Y-97548759D01*
X140770389Y-97549400D01*
X140819605Y-97541961D01*
X140837000Y-97526717D01*
X140817742Y-97496753D01*
X140775955Y-97490468D01*
X140735618Y-97511106D01*
X140734146Y-97512809D01*
X140720326Y-97539366D01*
X140665377Y-97539366D01*
X140677405Y-97495718D01*
X140695764Y-97474474D01*
G36*
X136389134Y-97341372D02*
G01*
X136392000Y-97358900D01*
X136378284Y-97392701D01*
X136366600Y-97397000D01*
X136344065Y-97376427D01*
X136341200Y-97358900D01*
X136354915Y-97325098D01*
X136366600Y-97320800D01*
X136389134Y-97341372D01*
G37*
X136389134Y-97341372D02*
X136392000Y-97358900D01*
X136378284Y-97392701D01*
X136366600Y-97397000D01*
X136344065Y-97376427D01*
X136341200Y-97358900D01*
X136354915Y-97325098D01*
X136366600Y-97320800D01*
X136389134Y-97341372D01*
G36*
X138378280Y-97478279D02*
G01*
X138437584Y-97448182D01*
X138502101Y-97455046D01*
X138554233Y-97492102D01*
X138576382Y-97552583D01*
X138576400Y-97554479D01*
X138564506Y-97586079D01*
X138520754Y-97598927D01*
X138484389Y-97600200D01*
X138426185Y-97602882D01*
X138409961Y-97614836D01*
X138425355Y-97639932D01*
X138480026Y-97668204D01*
X138523715Y-97664943D01*
X138568143Y-97656569D01*
X138567293Y-97666271D01*
X138539795Y-97688710D01*
X138494045Y-97719977D01*
X138459025Y-97721073D01*
X138410193Y-97691810D01*
X138404251Y-97687659D01*
X138361289Y-97631888D01*
X138347728Y-97559351D01*
X138353362Y-97539366D01*
X138408926Y-97539366D01*
X138434940Y-97548759D01*
X138458989Y-97549400D01*
X138508205Y-97541961D01*
X138525600Y-97526717D01*
X138506342Y-97496753D01*
X138464555Y-97490468D01*
X138424218Y-97511106D01*
X138422746Y-97512809D01*
X138408926Y-97539366D01*
X138353362Y-97539366D01*
X138366421Y-97493052D01*
X138378280Y-97478279D01*
G37*
X138378280Y-97478279D02*
X138437584Y-97448182D01*
X138502101Y-97455046D01*
X138554233Y-97492102D01*
X138576382Y-97552583D01*
X138576400Y-97554479D01*
X138564506Y-97586079D01*
X138520754Y-97598927D01*
X138484389Y-97600200D01*
X138426185Y-97602882D01*
X138409961Y-97614836D01*
X138425355Y-97639932D01*
X138480026Y-97668204D01*
X138523715Y-97664943D01*
X138568143Y-97656569D01*
X138567293Y-97666271D01*
X138539795Y-97688710D01*
X138494045Y-97719977D01*
X138459025Y-97721073D01*
X138410193Y-97691810D01*
X138404251Y-97687659D01*
X138361289Y-97631888D01*
X138347728Y-97559351D01*
X138353362Y-97539366D01*
X138408926Y-97539366D01*
X138434940Y-97548759D01*
X138458989Y-97549400D01*
X138508205Y-97541961D01*
X138525600Y-97526717D01*
X138506342Y-97496753D01*
X138464555Y-97490468D01*
X138424218Y-97511106D01*
X138422746Y-97512809D01*
X138408926Y-97539366D01*
X138353362Y-97539366D01*
X138366421Y-97493052D01*
X138378280Y-97478279D01*
G36*
X132916036Y-96874229D02*
G01*
X132925700Y-96784808D01*
X132939469Y-96678220D01*
X132955467Y-96567284D01*
X132971821Y-96464820D01*
X132986656Y-96383647D01*
X132998099Y-96336586D01*
X133000409Y-96331317D01*
X133026735Y-96333398D01*
X133097723Y-96346932D01*
X133208798Y-96370854D01*
X133355388Y-96404105D01*
X133532919Y-96445620D01*
X133736817Y-96494339D01*
X133962511Y-96549199D01*
X134205425Y-96609138D01*
X134324859Y-96638915D01*
X134574223Y-96701097D01*
X134808388Y-96759110D01*
X135022796Y-96811853D01*
X135212891Y-96858222D01*
X135374114Y-96897113D01*
X135501906Y-96927424D01*
X135591711Y-96948052D01*
X135638969Y-96957893D01*
X135645193Y-96958473D01*
X135624500Y-96946489D01*
X135561883Y-96915202D01*
X135461538Y-96866602D01*
X135327663Y-96802681D01*
X135164455Y-96725427D01*
X134976110Y-96636834D01*
X134766826Y-96538889D01*
X134540800Y-96433586D01*
X134429032Y-96381677D01*
X134195915Y-96273470D01*
X133976978Y-96171746D01*
X133776498Y-96078498D01*
X133598749Y-95995721D01*
X133448009Y-95925408D01*
X133328552Y-95869552D01*
X133244655Y-95830147D01*
X133200593Y-95809186D01*
X133194872Y-95806282D01*
X133199421Y-95779926D01*
X133228274Y-95720752D01*
X133276148Y-95637241D01*
X133337762Y-95537872D01*
X133407834Y-95431123D01*
X133481080Y-95325472D01*
X133552219Y-95229400D01*
X133562480Y-95216214D01*
X133582956Y-95230009D01*
X133639225Y-95272983D01*
X133727673Y-95342256D01*
X133844684Y-95434950D01*
X133986645Y-95548185D01*
X134149940Y-95679081D01*
X134330956Y-95824759D01*
X134526078Y-95982341D01*
X134637902Y-96072882D01*
X134838975Y-96235596D01*
X135027707Y-96387863D01*
X135200512Y-96526824D01*
X135353809Y-96649619D01*
X135484013Y-96753388D01*
X135587542Y-96835272D01*
X135660811Y-96892412D01*
X135700238Y-96921947D01*
X135706199Y-96925378D01*
X135690575Y-96903769D01*
X135645681Y-96846575D01*
X135574489Y-96757470D01*
X135479969Y-96640126D01*
X135365091Y-96498219D01*
X135232826Y-96335421D01*
X135086144Y-96155406D01*
X134928015Y-95961848D01*
X134855299Y-95872999D01*
X134692948Y-95674288D01*
X134540749Y-95487133D01*
X134401677Y-95315256D01*
X134278709Y-95162378D01*
X134174824Y-95032217D01*
X134092996Y-94928495D01*
X134036203Y-94854933D01*
X134007422Y-94815251D01*
X134004400Y-94809503D01*
X134025302Y-94778275D01*
X134081069Y-94730466D01*
X134161291Y-94672535D01*
X134255560Y-94610943D01*
X134353465Y-94552148D01*
X134444598Y-94502612D01*
X134518548Y-94468792D01*
X134564907Y-94457150D01*
X134570442Y-94458235D01*
X134586814Y-94482979D01*
X134622470Y-94549505D01*
X134675306Y-94653516D01*
X134743223Y-94790714D01*
X134824119Y-94956802D01*
X134915892Y-95147482D01*
X135016441Y-95358457D01*
X135123665Y-95585429D01*
X135172800Y-95690075D01*
X135281620Y-95921930D01*
X135383881Y-96139143D01*
X135477580Y-96337508D01*
X135560717Y-96512820D01*
X135631288Y-96660872D01*
X135687293Y-96777458D01*
X135726730Y-96858373D01*
X135747596Y-96899411D01*
X135750411Y-96903737D01*
X135745548Y-96878744D01*
X135729329Y-96809044D01*
X135702871Y-96699173D01*
X135667291Y-96553667D01*
X135623707Y-96377063D01*
X135573236Y-96173899D01*
X135516995Y-95948712D01*
X135456102Y-95706036D01*
X135425041Y-95582658D01*
X135362360Y-95332912D01*
X135303973Y-95098258D01*
X135250977Y-94883257D01*
X135204475Y-94692471D01*
X135165566Y-94530460D01*
X135135350Y-94401785D01*
X135114927Y-94311008D01*
X135105398Y-94262689D01*
X135105027Y-94255905D01*
X135136558Y-94245085D01*
X135205854Y-94230689D01*
X135300176Y-94214610D01*
X135406785Y-94198740D01*
X135512940Y-94184970D01*
X135605904Y-94175194D01*
X135672936Y-94171303D01*
X135674663Y-94171296D01*
X135782826Y-94171200D01*
X135769700Y-97003300D01*
X132912200Y-97016422D01*
X132912269Y-96977900D01*
X135680800Y-96977900D01*
X135693500Y-96990600D01*
X135706200Y-96977900D01*
X135693500Y-96965200D01*
X135680800Y-96977900D01*
X132912269Y-96977900D01*
X132912349Y-96933661D01*
X132916036Y-96874229D01*
G37*
X132916036Y-96874229D02*
X132925700Y-96784808D01*
X132939469Y-96678220D01*
X132955467Y-96567284D01*
X132971821Y-96464820D01*
X132986656Y-96383647D01*
X132998099Y-96336586D01*
X133000409Y-96331317D01*
X133026735Y-96333398D01*
X133097723Y-96346932D01*
X133208798Y-96370854D01*
X133355388Y-96404105D01*
X133532919Y-96445620D01*
X133736817Y-96494339D01*
X133962511Y-96549199D01*
X134205425Y-96609138D01*
X134324859Y-96638915D01*
X134574223Y-96701097D01*
X134808388Y-96759110D01*
X135022796Y-96811853D01*
X135212891Y-96858222D01*
X135374114Y-96897113D01*
X135501906Y-96927424D01*
X135591711Y-96948052D01*
X135638969Y-96957893D01*
X135645193Y-96958473D01*
X135624500Y-96946489D01*
X135561883Y-96915202D01*
X135461538Y-96866602D01*
X135327663Y-96802681D01*
X135164455Y-96725427D01*
X134976110Y-96636834D01*
X134766826Y-96538889D01*
X134540800Y-96433586D01*
X134429032Y-96381677D01*
X134195915Y-96273470D01*
X133976978Y-96171746D01*
X133776498Y-96078498D01*
X133598749Y-95995721D01*
X133448009Y-95925408D01*
X133328552Y-95869552D01*
X133244655Y-95830147D01*
X133200593Y-95809186D01*
X133194872Y-95806282D01*
X133199421Y-95779926D01*
X133228274Y-95720752D01*
X133276148Y-95637241D01*
X133337762Y-95537872D01*
X133407834Y-95431123D01*
X133481080Y-95325472D01*
X133552219Y-95229400D01*
X133562480Y-95216214D01*
X133582956Y-95230009D01*
X133639225Y-95272983D01*
X133727673Y-95342256D01*
X133844684Y-95434950D01*
X133986645Y-95548185D01*
X134149940Y-95679081D01*
X134330956Y-95824759D01*
X134526078Y-95982341D01*
X134637902Y-96072882D01*
X134838975Y-96235596D01*
X135027707Y-96387863D01*
X135200512Y-96526824D01*
X135353809Y-96649619D01*
X135484013Y-96753388D01*
X135587542Y-96835272D01*
X135660811Y-96892412D01*
X135700238Y-96921947D01*
X135706199Y-96925378D01*
X135690575Y-96903769D01*
X135645681Y-96846575D01*
X135574489Y-96757470D01*
X135479969Y-96640126D01*
X135365091Y-96498219D01*
X135232826Y-96335421D01*
X135086144Y-96155406D01*
X134928015Y-95961848D01*
X134855299Y-95872999D01*
X134692948Y-95674288D01*
X134540749Y-95487133D01*
X134401677Y-95315256D01*
X134278709Y-95162378D01*
X134174824Y-95032217D01*
X134092996Y-94928495D01*
X134036203Y-94854933D01*
X134007422Y-94815251D01*
X134004400Y-94809503D01*
X134025302Y-94778275D01*
X134081069Y-94730466D01*
X134161291Y-94672535D01*
X134255560Y-94610943D01*
X134353465Y-94552148D01*
X134444598Y-94502612D01*
X134518548Y-94468792D01*
X134564907Y-94457150D01*
X134570442Y-94458235D01*
X134586814Y-94482979D01*
X134622470Y-94549505D01*
X134675306Y-94653516D01*
X134743223Y-94790714D01*
X134824119Y-94956802D01*
X134915892Y-95147482D01*
X135016441Y-95358457D01*
X135123665Y-95585429D01*
X135172800Y-95690075D01*
X135281620Y-95921930D01*
X135383881Y-96139143D01*
X135477580Y-96337508D01*
X135560717Y-96512820D01*
X135631288Y-96660872D01*
X135687293Y-96777458D01*
X135726730Y-96858373D01*
X135747596Y-96899411D01*
X135750411Y-96903737D01*
X135745548Y-96878744D01*
X135729329Y-96809044D01*
X135702871Y-96699173D01*
X135667291Y-96553667D01*
X135623707Y-96377063D01*
X135573236Y-96173899D01*
X135516995Y-95948712D01*
X135456102Y-95706036D01*
X135425041Y-95582658D01*
X135362360Y-95332912D01*
X135303973Y-95098258D01*
X135250977Y-94883257D01*
X135204475Y-94692471D01*
X135165566Y-94530460D01*
X135135350Y-94401785D01*
X135114927Y-94311008D01*
X135105398Y-94262689D01*
X135105027Y-94255905D01*
X135136558Y-94245085D01*
X135205854Y-94230689D01*
X135300176Y-94214610D01*
X135406785Y-94198740D01*
X135512940Y-94184970D01*
X135605904Y-94175194D01*
X135672936Y-94171303D01*
X135674663Y-94171296D01*
X135782826Y-94171200D01*
X135769700Y-97003300D01*
X132912200Y-97016422D01*
X132912269Y-96977900D01*
X135680800Y-96977900D01*
X135693500Y-96990600D01*
X135706200Y-96977900D01*
X135693500Y-96965200D01*
X135680800Y-96977900D01*
X132912269Y-96977900D01*
X132912349Y-96933661D01*
X132916036Y-96874229D01*
G36*
X140252800Y-97511300D02*
G01*
X140277612Y-97469144D01*
X140320510Y-97451029D01*
X140379171Y-97447800D01*
X140481400Y-97447800D01*
X140481400Y-97612006D01*
X140478814Y-97705355D01*
X140468826Y-97761037D01*
X140448092Y-97792019D01*
X140432269Y-97802506D01*
X140348955Y-97825857D01*
X140284550Y-97811978D01*
X140253111Y-97789050D01*
X140265752Y-97769832D01*
X140315858Y-97761260D01*
X140332643Y-97761554D01*
X140391509Y-97755143D01*
X140423319Y-97734430D01*
X140423660Y-97733550D01*
X140411135Y-97709362D01*
X140355887Y-97701800D01*
X140285863Y-97681296D01*
X140246003Y-97626870D01*
X140243588Y-97579284D01*
X140303600Y-97579284D01*
X140309724Y-97632070D01*
X140335641Y-97648123D01*
X140360490Y-97646416D01*
X140408984Y-97622089D01*
X140426087Y-97592629D01*
X140419435Y-97536579D01*
X140386717Y-97496489D01*
X140342182Y-97489297D01*
X140339842Y-97490127D01*
X140313693Y-97523165D01*
X140303600Y-97579284D01*
X140243588Y-97579284D01*
X140242058Y-97549144D01*
X140252800Y-97511300D01*
G37*
X140252800Y-97511300D02*
X140277612Y-97469144D01*
X140320510Y-97451029D01*
X140379171Y-97447800D01*
X140481400Y-97447800D01*
X140481400Y-97612006D01*
X140478814Y-97705355D01*
X140468826Y-97761037D01*
X140448092Y-97792019D01*
X140432269Y-97802506D01*
X140348955Y-97825857D01*
X140284550Y-97811978D01*
X140253111Y-97789050D01*
X140265752Y-97769832D01*
X140315858Y-97761260D01*
X140332643Y-97761554D01*
X140391509Y-97755143D01*
X140423319Y-97734430D01*
X140423660Y-97733550D01*
X140411135Y-97709362D01*
X140355887Y-97701800D01*
X140285863Y-97681296D01*
X140246003Y-97626870D01*
X140243588Y-97579284D01*
X140303600Y-97579284D01*
X140309724Y-97632070D01*
X140335641Y-97648123D01*
X140360490Y-97646416D01*
X140408984Y-97622089D01*
X140426087Y-97592629D01*
X140419435Y-97536579D01*
X140386717Y-97496489D01*
X140342182Y-97489297D01*
X140339842Y-97490127D01*
X140313693Y-97523165D01*
X140303600Y-97579284D01*
X140243588Y-97579284D01*
X140242058Y-97549144D01*
X140252800Y-97511300D01*
G36*
X139364475Y-97458193D02*
G01*
X139399182Y-97487977D01*
X139411568Y-97544977D01*
X139414147Y-97611883D01*
X139407791Y-97669994D01*
X139393374Y-97700611D01*
X139389200Y-97701800D01*
X139372015Y-97679566D01*
X139363896Y-97625304D01*
X139363800Y-97617979D01*
X139355255Y-97550895D01*
X139334629Y-97505012D01*
X139333924Y-97504284D01*
X139294569Y-97488631D01*
X139260715Y-97515027D01*
X139239929Y-97574764D01*
X139236800Y-97616010D01*
X139230206Y-97673522D01*
X139214064Y-97701327D01*
X139211400Y-97701800D01*
X139196910Y-97678955D01*
X139187714Y-97620547D01*
X139186000Y-97574800D01*
X139186000Y-97447800D01*
X139284882Y-97447800D01*
X139364475Y-97458193D01*
G37*
X139364475Y-97458193D02*
X139399182Y-97487977D01*
X139411568Y-97544977D01*
X139414147Y-97611883D01*
X139407791Y-97669994D01*
X139393374Y-97700611D01*
X139389200Y-97701800D01*
X139372015Y-97679566D01*
X139363896Y-97625304D01*
X139363800Y-97617979D01*
X139355255Y-97550895D01*
X139334629Y-97505012D01*
X139333924Y-97504284D01*
X139294569Y-97488631D01*
X139260715Y-97515027D01*
X139239929Y-97574764D01*
X139236800Y-97616010D01*
X139230206Y-97673522D01*
X139214064Y-97701327D01*
X139211400Y-97701800D01*
X139196910Y-97678955D01*
X139187714Y-97620547D01*
X139186000Y-97574800D01*
X139186000Y-97447800D01*
X139284882Y-97447800D01*
X139364475Y-97458193D01*
G36*
X137948347Y-97456428D02*
G01*
X137965277Y-97476425D01*
X137937532Y-97498961D01*
X137916000Y-97505959D01*
X137879894Y-97529032D01*
X137866064Y-97581865D01*
X137865200Y-97610522D01*
X137858974Y-97670220D01*
X137843618Y-97700763D01*
X137839800Y-97701800D01*
X137825310Y-97678955D01*
X137816114Y-97620547D01*
X137814400Y-97574800D01*
X137816064Y-97499619D01*
X137826300Y-97462129D01*
X137852970Y-97449226D01*
X137890600Y-97447800D01*
X137948347Y-97456428D01*
G37*
X137948347Y-97456428D02*
X137965277Y-97476425D01*
X137937532Y-97498961D01*
X137916000Y-97505959D01*
X137879894Y-97529032D01*
X137866064Y-97581865D01*
X137865200Y-97610522D01*
X137858974Y-97670220D01*
X137843618Y-97700763D01*
X137839800Y-97701800D01*
X137825310Y-97678955D01*
X137816114Y-97620547D01*
X137814400Y-97574800D01*
X137816064Y-97499619D01*
X137826300Y-97462129D01*
X137852970Y-97449226D01*
X137890600Y-97447800D01*
X137948347Y-97456428D01*
G36*
X139941264Y-97512414D02*
G01*
X139946733Y-97500965D01*
X139995184Y-97457002D01*
X140063347Y-97443958D01*
X140131318Y-97460956D01*
X140179192Y-97507119D01*
X140181221Y-97511300D01*
X140196338Y-97592700D01*
X140170695Y-97659604D01*
X140114180Y-97701478D01*
X140036677Y-97707786D01*
X140004962Y-97699108D01*
X139953354Y-97656025D01*
X139931497Y-97591101D01*
X139987179Y-97591101D01*
X140000604Y-97628972D01*
X140040271Y-97668541D01*
X140082822Y-97664588D01*
X140114437Y-97621563D01*
X140121483Y-97590038D01*
X140114225Y-97523077D01*
X140079666Y-97487941D01*
X140034817Y-97490213D01*
X139993686Y-97529445D01*
X139987179Y-97591101D01*
X139931497Y-97591101D01*
X139930187Y-97587211D01*
X139941264Y-97512414D01*
G37*
X139941264Y-97512414D02*
X139946733Y-97500965D01*
X139995184Y-97457002D01*
X140063347Y-97443958D01*
X140131318Y-97460956D01*
X140179192Y-97507119D01*
X140181221Y-97511300D01*
X140196338Y-97592700D01*
X140170695Y-97659604D01*
X140114180Y-97701478D01*
X140036677Y-97707786D01*
X140004962Y-97699108D01*
X139953354Y-97656025D01*
X139931497Y-97591101D01*
X139987179Y-97591101D01*
X140000604Y-97628972D01*
X140040271Y-97668541D01*
X140082822Y-97664588D01*
X140114437Y-97621563D01*
X140121483Y-97590038D01*
X140114225Y-97523077D01*
X140079666Y-97487941D01*
X140034817Y-97490213D01*
X139993686Y-97529445D01*
X139987179Y-97591101D01*
X139931497Y-97591101D01*
X139930187Y-97587211D01*
X139941264Y-97512414D01*
G36*
X137293140Y-94884769D02*
G01*
X137141709Y-95073255D01*
X137019655Y-95226365D01*
X136924175Y-95348032D01*
X136852465Y-95442186D01*
X136801723Y-95512759D01*
X136769144Y-95563683D01*
X136751926Y-95598890D01*
X136747265Y-95622310D01*
X136752357Y-95637875D01*
X136754322Y-95640419D01*
X136779953Y-95671431D01*
X136832413Y-95735514D01*
X136907011Y-95826898D01*
X136999054Y-95939815D01*
X137103853Y-96068497D01*
X137216716Y-96207175D01*
X137332952Y-96350081D01*
X137447870Y-96491447D01*
X137556778Y-96625504D01*
X137654986Y-96746484D01*
X137737803Y-96848618D01*
X137800537Y-96926138D01*
X137838497Y-96973275D01*
X137847184Y-96984250D01*
X137846366Y-96996177D01*
X137819375Y-97004872D01*
X137760749Y-97010762D01*
X137665021Y-97014271D01*
X137526728Y-97015823D01*
X137439219Y-97016000D01*
X137007018Y-97016000D01*
X135960200Y-95895638D01*
X135961570Y-95585869D01*
X135962941Y-95276100D01*
X136463220Y-94724474D01*
X136963500Y-94172848D01*
X137867666Y-94171200D01*
X137293140Y-94884769D01*
G37*
X137293140Y-94884769D02*
X137141709Y-95073255D01*
X137019655Y-95226365D01*
X136924175Y-95348032D01*
X136852465Y-95442186D01*
X136801723Y-95512759D01*
X136769144Y-95563683D01*
X136751926Y-95598890D01*
X136747265Y-95622310D01*
X136752357Y-95637875D01*
X136754322Y-95640419D01*
X136779953Y-95671431D01*
X136832413Y-95735514D01*
X136907011Y-95826898D01*
X136999054Y-95939815D01*
X137103853Y-96068497D01*
X137216716Y-96207175D01*
X137332952Y-96350081D01*
X137447870Y-96491447D01*
X137556778Y-96625504D01*
X137654986Y-96746484D01*
X137737803Y-96848618D01*
X137800537Y-96926138D01*
X137838497Y-96973275D01*
X137847184Y-96984250D01*
X137846366Y-96996177D01*
X137819375Y-97004872D01*
X137760749Y-97010762D01*
X137665021Y-97014271D01*
X137526728Y-97015823D01*
X137439219Y-97016000D01*
X137007018Y-97016000D01*
X135960200Y-95895638D01*
X135961570Y-95585869D01*
X135962941Y-95276100D01*
X136463220Y-94724474D01*
X136963500Y-94172848D01*
X137867666Y-94171200D01*
X137293140Y-94884769D01*
G36*
X136381089Y-97470644D02*
G01*
X136390285Y-97529052D01*
X136392000Y-97574800D01*
X136387431Y-97647246D01*
X136375749Y-97693229D01*
X136366600Y-97701800D01*
X136352110Y-97678955D01*
X136342914Y-97620547D01*
X136341200Y-97574800D01*
X136345768Y-97502353D01*
X136357450Y-97456370D01*
X136366600Y-97447800D01*
X136381089Y-97470644D01*
G37*
X136381089Y-97470644D02*
X136390285Y-97529052D01*
X136392000Y-97574800D01*
X136387431Y-97647246D01*
X136375749Y-97693229D01*
X136366600Y-97701800D01*
X136352110Y-97678955D01*
X136342914Y-97620547D01*
X136341200Y-97574800D01*
X136345768Y-97502353D01*
X136357450Y-97456370D01*
X136366600Y-97447800D01*
X136381089Y-97470644D01*
G36*
X135242650Y-97449132D02*
G01*
X135303100Y-97451189D01*
X135318734Y-97459299D01*
X135295535Y-97479931D01*
X135280750Y-97490330D01*
X135234720Y-97546744D01*
X135223600Y-97615998D01*
X135214708Y-97680513D01*
X135186675Y-97701782D01*
X135185500Y-97701800D01*
X135161540Y-97688204D01*
X135149838Y-97641131D01*
X135147400Y-97574800D01*
X135147400Y-97447800D01*
X135242650Y-97449132D01*
G37*
X135242650Y-97449132D02*
X135303100Y-97451189D01*
X135318734Y-97459299D01*
X135295535Y-97479931D01*
X135280750Y-97490330D01*
X135234720Y-97546744D01*
X135223600Y-97615998D01*
X135214708Y-97680513D01*
X135186675Y-97701782D01*
X135185500Y-97701800D01*
X135161540Y-97688204D01*
X135149838Y-97641131D01*
X135147400Y-97574800D01*
X135147400Y-97447800D01*
X135242650Y-97449132D01*
G36*
X140597489Y-97470644D02*
G01*
X140606685Y-97529052D01*
X140608400Y-97574800D01*
X140603831Y-97647246D01*
X140592149Y-97693229D01*
X140583000Y-97701800D01*
X140568510Y-97678955D01*
X140559314Y-97620547D01*
X140557600Y-97574800D01*
X140562168Y-97502353D01*
X140573850Y-97456370D01*
X140583000Y-97447800D01*
X140597489Y-97470644D01*
G37*
X140597489Y-97470644D02*
X140606685Y-97529052D01*
X140608400Y-97574800D01*
X140603831Y-97647246D01*
X140592149Y-97693229D01*
X140583000Y-97701800D01*
X140568510Y-97678955D01*
X140559314Y-97620547D01*
X140557600Y-97574800D01*
X140562168Y-97502353D01*
X140573850Y-97456370D01*
X140583000Y-97447800D01*
X140597489Y-97470644D01*
G36*
X137452199Y-97332720D02*
G01*
X137451601Y-97359150D01*
X137414350Y-97383396D01*
X137383706Y-97399336D01*
X137395066Y-97418634D01*
X137414350Y-97433364D01*
X137453880Y-97472046D01*
X137448009Y-97494392D01*
X137420700Y-97498600D01*
X137394207Y-97515376D01*
X137383291Y-97570990D01*
X137382600Y-97600200D01*
X137376966Y-97663822D01*
X137362893Y-97699209D01*
X137357200Y-97701800D01*
X137341156Y-97679297D01*
X137332367Y-97623218D01*
X137331800Y-97602316D01*
X137324330Y-97534510D01*
X137305536Y-97493594D01*
X137300050Y-97489950D01*
X137282620Y-97471218D01*
X137296626Y-97456083D01*
X137326389Y-97416454D01*
X137342788Y-97377950D01*
X137376524Y-97331455D01*
X137409711Y-97320800D01*
X137452199Y-97332720D01*
G37*
X137452199Y-97332720D02*
X137451601Y-97359150D01*
X137414350Y-97383396D01*
X137383706Y-97399336D01*
X137395066Y-97418634D01*
X137414350Y-97433364D01*
X137453880Y-97472046D01*
X137448009Y-97494392D01*
X137420700Y-97498600D01*
X137394207Y-97515376D01*
X137383291Y-97570990D01*
X137382600Y-97600200D01*
X137376966Y-97663822D01*
X137362893Y-97699209D01*
X137357200Y-97701800D01*
X137341156Y-97679297D01*
X137332367Y-97623218D01*
X137331800Y-97602316D01*
X137324330Y-97534510D01*
X137305536Y-97493594D01*
X137300050Y-97489950D01*
X137282620Y-97471218D01*
X137296626Y-97456083D01*
X137326389Y-97416454D01*
X137342788Y-97377950D01*
X137376524Y-97331455D01*
X137409711Y-97320800D01*
X137452199Y-97332720D01*
G36*
X139486196Y-97508125D02*
G01*
X139537944Y-97465604D01*
X139604680Y-97447928D01*
X139670438Y-97458829D01*
X139719255Y-97502039D01*
X139724021Y-97511300D01*
X139737995Y-97589944D01*
X139713429Y-97657695D01*
X139660017Y-97702443D01*
X139587453Y-97712077D01*
X139567000Y-97707444D01*
X139508093Y-97667551D01*
X139470371Y-97602969D01*
X139465643Y-97573284D01*
X139541600Y-97573284D01*
X139555191Y-97643407D01*
X139588720Y-97677419D01*
X139631321Y-97670666D01*
X139667706Y-97627269D01*
X139690237Y-97578241D01*
X139684537Y-97546859D01*
X139655164Y-97514193D01*
X139604378Y-97487200D01*
X139562672Y-97504636D01*
X139542121Y-97560218D01*
X139541600Y-97573284D01*
X139465643Y-97573284D01*
X139465400Y-97571759D01*
X139486196Y-97508125D01*
G37*
X139486196Y-97508125D02*
X139537944Y-97465604D01*
X139604680Y-97447928D01*
X139670438Y-97458829D01*
X139719255Y-97502039D01*
X139724021Y-97511300D01*
X139737995Y-97589944D01*
X139713429Y-97657695D01*
X139660017Y-97702443D01*
X139587453Y-97712077D01*
X139567000Y-97707444D01*
X139508093Y-97667551D01*
X139470371Y-97602969D01*
X139465643Y-97573284D01*
X139541600Y-97573284D01*
X139555191Y-97643407D01*
X139588720Y-97677419D01*
X139631321Y-97670666D01*
X139667706Y-97627269D01*
X139690237Y-97578241D01*
X139684537Y-97546859D01*
X139655164Y-97514193D01*
X139604378Y-97487200D01*
X139562672Y-97504636D01*
X139542121Y-97560218D01*
X139541600Y-97573284D01*
X139465643Y-97573284D01*
X139465400Y-97571759D01*
X139486196Y-97508125D01*
G36*
X135509350Y-97352457D02*
G01*
X135529434Y-97384281D01*
X135543396Y-97460862D01*
X135548610Y-97532374D01*
X135550691Y-97624886D01*
X135545377Y-97677032D01*
X135530768Y-97698946D01*
X135516860Y-97701800D01*
X135495765Y-97692290D01*
X135483629Y-97657342D01*
X135478350Y-97587326D01*
X135477600Y-97521883D01*
X135480197Y-97423024D01*
X135488782Y-97368385D01*
X135504545Y-97351614D01*
X135509350Y-97352457D01*
G37*
X135509350Y-97352457D02*
X135529434Y-97384281D01*
X135543396Y-97460862D01*
X135548610Y-97532374D01*
X135550691Y-97624886D01*
X135545377Y-97677032D01*
X135530768Y-97698946D01*
X135516860Y-97701800D01*
X135495765Y-97692290D01*
X135483629Y-97657342D01*
X135478350Y-97587326D01*
X135477600Y-97521883D01*
X135480197Y-97423024D01*
X135488782Y-97368385D01*
X135504545Y-97351614D01*
X135509350Y-97352457D01*
G36*
X133626061Y-97458696D02*
G01*
X133648792Y-97474565D01*
X133648800Y-97474898D01*
X133628363Y-97496280D01*
X133612932Y-97498600D01*
X133584058Y-97522389D01*
X133562264Y-97587402D01*
X133559900Y-97600200D01*
X133541326Y-97673885D01*
X133521798Y-97698481D01*
X133505569Y-97675432D01*
X133496895Y-97606179D01*
X133496400Y-97578665D01*
X133498280Y-97504872D01*
X133509410Y-97468328D01*
X133538026Y-97455489D01*
X133572600Y-97453364D01*
X133626061Y-97458696D01*
G37*
X133626061Y-97458696D02*
X133648792Y-97474565D01*
X133648800Y-97474898D01*
X133628363Y-97496280D01*
X133612932Y-97498600D01*
X133584058Y-97522389D01*
X133562264Y-97587402D01*
X133559900Y-97600200D01*
X133541326Y-97673885D01*
X133521798Y-97698481D01*
X133505569Y-97675432D01*
X133496895Y-97606179D01*
X133496400Y-97578665D01*
X133498280Y-97504872D01*
X133509410Y-97468328D01*
X133538026Y-97455489D01*
X133572600Y-97453364D01*
X133626061Y-97458696D01*
G36*
X136889089Y-97470644D02*
G01*
X136898285Y-97529052D01*
X136900000Y-97574800D01*
X136895456Y-97656215D01*
X136880347Y-97695341D01*
X136863977Y-97701800D01*
X136805909Y-97710220D01*
X136794127Y-97713816D01*
X136745642Y-97712076D01*
X136715850Y-97699854D01*
X136684296Y-97661007D01*
X136671900Y-97586835D01*
X136671400Y-97560837D01*
X136676497Y-97493111D01*
X136689380Y-97452748D01*
X136696800Y-97447800D01*
X136712802Y-97470311D01*
X136721609Y-97526453D01*
X136722200Y-97547900D01*
X136728371Y-97615736D01*
X136743696Y-97659477D01*
X136748712Y-97664387D01*
X136789707Y-97666118D01*
X136825484Y-97629251D01*
X136846791Y-97565831D01*
X136849200Y-97533589D01*
X136855793Y-97476077D01*
X136871935Y-97448272D01*
X136874600Y-97447800D01*
X136889089Y-97470644D01*
G37*
X136889089Y-97470644D02*
X136898285Y-97529052D01*
X136900000Y-97574800D01*
X136895456Y-97656215D01*
X136880347Y-97695341D01*
X136863977Y-97701800D01*
X136805909Y-97710220D01*
X136794127Y-97713816D01*
X136745642Y-97712076D01*
X136715850Y-97699854D01*
X136684296Y-97661007D01*
X136671900Y-97586835D01*
X136671400Y-97560837D01*
X136676497Y-97493111D01*
X136689380Y-97452748D01*
X136696800Y-97447800D01*
X136712802Y-97470311D01*
X136721609Y-97526453D01*
X136722200Y-97547900D01*
X136728371Y-97615736D01*
X136743696Y-97659477D01*
X136748712Y-97664387D01*
X136789707Y-97666118D01*
X136825484Y-97629251D01*
X136846791Y-97565831D01*
X136849200Y-97533589D01*
X136855793Y-97476077D01*
X136871935Y-97448272D01*
X136874600Y-97447800D01*
X136889089Y-97470644D01*
G36*
X134866733Y-97500965D02*
G01*
X134913983Y-97458489D01*
X134979412Y-97447012D01*
X135041524Y-97466727D01*
X135071480Y-97499124D01*
X135087596Y-97556791D01*
X135059928Y-97590020D01*
X134991384Y-97600200D01*
X134935681Y-97608851D01*
X134925807Y-97631950D01*
X134956514Y-97653966D01*
X135004124Y-97658918D01*
X135056858Y-97664364D01*
X135069451Y-97684404D01*
X135036983Y-97709369D01*
X135031022Y-97711782D01*
X134994215Y-97724292D01*
X134986572Y-97725589D01*
X134962806Y-97716111D01*
X134925909Y-97701289D01*
X134873080Y-97655723D01*
X134850007Y-97585168D01*
X134860141Y-97524000D01*
X134918800Y-97524000D01*
X134940073Y-97544637D01*
X134969600Y-97549400D01*
X135010874Y-97538763D01*
X135020400Y-97524000D01*
X134999126Y-97503362D01*
X134969600Y-97498600D01*
X134928325Y-97509236D01*
X134918800Y-97524000D01*
X134860141Y-97524000D01*
X134862550Y-97509465D01*
X134866733Y-97500965D01*
G37*
X134866733Y-97500965D02*
X134913983Y-97458489D01*
X134979412Y-97447012D01*
X135041524Y-97466727D01*
X135071480Y-97499124D01*
X135087596Y-97556791D01*
X135059928Y-97590020D01*
X134991384Y-97600200D01*
X134935681Y-97608851D01*
X134925807Y-97631950D01*
X134956514Y-97653966D01*
X135004124Y-97658918D01*
X135056858Y-97664364D01*
X135069451Y-97684404D01*
X135036983Y-97709369D01*
X135031022Y-97711782D01*
X134994215Y-97724292D01*
X134986572Y-97725589D01*
X134962806Y-97716111D01*
X134925909Y-97701289D01*
X134873080Y-97655723D01*
X134850007Y-97585168D01*
X134860141Y-97524000D01*
X134918800Y-97524000D01*
X134940073Y-97544637D01*
X134969600Y-97549400D01*
X135010874Y-97538763D01*
X135020400Y-97524000D01*
X134999126Y-97503362D01*
X134969600Y-97498600D01*
X134928325Y-97509236D01*
X134918800Y-97524000D01*
X134860141Y-97524000D01*
X134862550Y-97509465D01*
X134866733Y-97500965D01*
G36*
X134472859Y-97461395D02*
G01*
X134484561Y-97508468D01*
X134487000Y-97574800D01*
X134484180Y-97651251D01*
X134472579Y-97689358D01*
X134447479Y-97701415D01*
X134438277Y-97701800D01*
X134376723Y-97709088D01*
X134352652Y-97715960D01*
X134307435Y-97711073D01*
X134274375Y-97688746D01*
X134250926Y-97645218D01*
X134236697Y-97581735D01*
X134232856Y-97515945D01*
X134240575Y-97465498D01*
X134258400Y-97447800D01*
X134276687Y-97469754D01*
X134283800Y-97519145D01*
X134295209Y-97587698D01*
X134323323Y-97642444D01*
X134358965Y-97669593D01*
X134381546Y-97666081D01*
X134400282Y-97631125D01*
X134410284Y-97566917D01*
X134410800Y-97547900D01*
X134417282Y-97477821D01*
X134438691Y-97449374D01*
X134448900Y-97447800D01*
X134472859Y-97461395D01*
G37*
X134472859Y-97461395D02*
X134484561Y-97508468D01*
X134487000Y-97574800D01*
X134484180Y-97651251D01*
X134472579Y-97689358D01*
X134447479Y-97701415D01*
X134438277Y-97701800D01*
X134376723Y-97709088D01*
X134352652Y-97715960D01*
X134307435Y-97711073D01*
X134274375Y-97688746D01*
X134250926Y-97645218D01*
X134236697Y-97581735D01*
X134232856Y-97515945D01*
X134240575Y-97465498D01*
X134258400Y-97447800D01*
X134276687Y-97469754D01*
X134283800Y-97519145D01*
X134295209Y-97587698D01*
X134323323Y-97642444D01*
X134358965Y-97669593D01*
X134381546Y-97666081D01*
X134400282Y-97631125D01*
X134410284Y-97566917D01*
X134410800Y-97547900D01*
X134417282Y-97477821D01*
X134438691Y-97449374D01*
X134448900Y-97447800D01*
X134472859Y-97461395D01*
G36*
X135808475Y-97458193D02*
G01*
X135843182Y-97487977D01*
X135855568Y-97544977D01*
X135858147Y-97611883D01*
X135851791Y-97669994D01*
X135837374Y-97700611D01*
X135833200Y-97701800D01*
X135816015Y-97679566D01*
X135807896Y-97625304D01*
X135807800Y-97617979D01*
X135799255Y-97550895D01*
X135778629Y-97505012D01*
X135777924Y-97504284D01*
X135738569Y-97488631D01*
X135704715Y-97515027D01*
X135683929Y-97574764D01*
X135680800Y-97616010D01*
X135674206Y-97673522D01*
X135658064Y-97701327D01*
X135655400Y-97701800D01*
X135640910Y-97678955D01*
X135631714Y-97620547D01*
X135630000Y-97574800D01*
X135630000Y-97447800D01*
X135728882Y-97447800D01*
X135808475Y-97458193D01*
G37*
X135808475Y-97458193D02*
X135843182Y-97487977D01*
X135855568Y-97544977D01*
X135858147Y-97611883D01*
X135851791Y-97669994D01*
X135837374Y-97700611D01*
X135833200Y-97701800D01*
X135816015Y-97679566D01*
X135807896Y-97625304D01*
X135807800Y-97617979D01*
X135799255Y-97550895D01*
X135778629Y-97505012D01*
X135777924Y-97504284D01*
X135738569Y-97488631D01*
X135704715Y-97515027D01*
X135683929Y-97574764D01*
X135680800Y-97616010D01*
X135674206Y-97673522D01*
X135658064Y-97701327D01*
X135655400Y-97701800D01*
X135640910Y-97678955D01*
X135631714Y-97620547D01*
X135630000Y-97574800D01*
X135630000Y-97447800D01*
X135728882Y-97447800D01*
X135808475Y-97458193D01*
G36*
X134177993Y-97453816D02*
G01*
X134196375Y-97469732D01*
X134194900Y-97473200D01*
X134158149Y-97496571D01*
X134142600Y-97498600D01*
X134116731Y-97517425D01*
X134106405Y-97577903D01*
X134106000Y-97600200D01*
X134099708Y-97670845D01*
X134078853Y-97699956D01*
X134067900Y-97701800D01*
X134043940Y-97688204D01*
X134032238Y-97641131D01*
X134029800Y-97574800D01*
X134029800Y-97447800D01*
X134120199Y-97447800D01*
X134177993Y-97453816D01*
G37*
X134177993Y-97453816D02*
X134196375Y-97469732D01*
X134194900Y-97473200D01*
X134158149Y-97496571D01*
X134142600Y-97498600D01*
X134116731Y-97517425D01*
X134106405Y-97577903D01*
X134106000Y-97600200D01*
X134099708Y-97670845D01*
X134078853Y-97699956D01*
X134067900Y-97701800D01*
X134043940Y-97688204D01*
X134032238Y-97641131D01*
X134029800Y-97574800D01*
X134029800Y-97447800D01*
X134120199Y-97447800D01*
X134177993Y-97453816D01*
G36*
X138779600Y-97016000D02*
G01*
X137992200Y-97016000D01*
X137992200Y-94171200D01*
X138779600Y-94171200D01*
X138779600Y-97016000D01*
G37*
X138779600Y-97016000D02*
X137992200Y-97016000D01*
X137992200Y-94171200D01*
X138779600Y-94171200D01*
X138779600Y-97016000D01*
G36*
X140605534Y-97341372D02*
G01*
X140608400Y-97358900D01*
X140594684Y-97392701D01*
X140583000Y-97397000D01*
X140560465Y-97376427D01*
X140557600Y-97358900D01*
X140571315Y-97325098D01*
X140583000Y-97320800D01*
X140605534Y-97341372D01*
G37*
X140605534Y-97341372D02*
X140608400Y-97358900D01*
X140594684Y-97392701D01*
X140583000Y-97397000D01*
X140560465Y-97376427D01*
X140557600Y-97358900D01*
X140571315Y-97325098D01*
X140583000Y-97320800D01*
X140605534Y-97341372D01*
G36*
X138793184Y-97455038D02*
G01*
X138805000Y-97470377D01*
X138784459Y-97488163D01*
X138764065Y-97489427D01*
X138717963Y-97505749D01*
X138694345Y-97530350D01*
X138681619Y-97588395D01*
X138711615Y-97641052D01*
X138776771Y-97675676D01*
X138782003Y-97676991D01*
X138822263Y-97689323D01*
X138816082Y-97701085D01*
X138796572Y-97709319D01*
X138758547Y-97723356D01*
X138734351Y-97721354D01*
X138699059Y-97698531D01*
X138683651Y-97687659D01*
X138640689Y-97631888D01*
X138627128Y-97559351D01*
X138645821Y-97493052D01*
X138657680Y-97478279D01*
X138698774Y-97456459D01*
X138751129Y-97448327D01*
X138793184Y-97455038D01*
G37*
X138793184Y-97455038D02*
X138805000Y-97470377D01*
X138784459Y-97488163D01*
X138764065Y-97489427D01*
X138717963Y-97505749D01*
X138694345Y-97530350D01*
X138681619Y-97588395D01*
X138711615Y-97641052D01*
X138776771Y-97675676D01*
X138782003Y-97676991D01*
X138822263Y-97689323D01*
X138816082Y-97701085D01*
X138796572Y-97709319D01*
X138758547Y-97723356D01*
X138734351Y-97721354D01*
X138699059Y-97698531D01*
X138683651Y-97687659D01*
X138640689Y-97631888D01*
X138627128Y-97559351D01*
X138645821Y-97493052D01*
X138657680Y-97478279D01*
X138698774Y-97456459D01*
X138751129Y-97448327D01*
X138793184Y-97455038D01*
G36*
X137606901Y-97359915D02*
G01*
X137611200Y-97371600D01*
X137590627Y-97394134D01*
X137573100Y-97397000D01*
X137539298Y-97383284D01*
X137535000Y-97371600D01*
X137555572Y-97349065D01*
X137573100Y-97346200D01*
X137606901Y-97359915D01*
G37*
X137606901Y-97359915D02*
X137611200Y-97371600D01*
X137590627Y-97394134D01*
X137573100Y-97397000D01*
X137539298Y-97383284D01*
X137535000Y-97371600D01*
X137555572Y-97349065D01*
X137573100Y-97346200D01*
X137606901Y-97359915D01*
G36*
X138284604Y-97350375D02*
G01*
X138335346Y-97361146D01*
X138347800Y-97371600D01*
X138326526Y-97392237D01*
X138297000Y-97397000D01*
X138268627Y-97402560D01*
X138253295Y-97426987D01*
X138247133Y-97481899D01*
X138246200Y-97549400D01*
X138242344Y-97630576D01*
X138232270Y-97685612D01*
X138220800Y-97701800D01*
X138207270Y-97678664D01*
X138198097Y-97618225D01*
X138195400Y-97549400D01*
X138194055Y-97464937D01*
X138186708Y-97419336D01*
X138168388Y-97400668D01*
X138134125Y-97397003D01*
X138131900Y-97397000D01*
X138084165Y-97388305D01*
X138068400Y-97371600D01*
X138091365Y-97357690D01*
X138150607Y-97348464D01*
X138208100Y-97346200D01*
X138284604Y-97350375D01*
G37*
X138284604Y-97350375D02*
X138335346Y-97361146D01*
X138347800Y-97371600D01*
X138326526Y-97392237D01*
X138297000Y-97397000D01*
X138268627Y-97402560D01*
X138253295Y-97426987D01*
X138247133Y-97481899D01*
X138246200Y-97549400D01*
X138242344Y-97630576D01*
X138232270Y-97685612D01*
X138220800Y-97701800D01*
X138207270Y-97678664D01*
X138198097Y-97618225D01*
X138195400Y-97549400D01*
X138194055Y-97464937D01*
X138186708Y-97419336D01*
X138168388Y-97400668D01*
X138134125Y-97397003D01*
X138131900Y-97397000D01*
X138084165Y-97388305D01*
X138068400Y-97371600D01*
X138091365Y-97357690D01*
X138150607Y-97348464D01*
X138208100Y-97346200D01*
X138284604Y-97350375D01*
G36*
X139853796Y-97330779D02*
G01*
X139865593Y-97366840D01*
X139870927Y-97438171D01*
X139871800Y-97511300D01*
X139869804Y-97611783D01*
X139862591Y-97670766D01*
X139848325Y-97697435D01*
X139833700Y-97701800D01*
X139813603Y-97691820D01*
X139801806Y-97655759D01*
X139796472Y-97584428D01*
X139795600Y-97511300D01*
X139797595Y-97410816D01*
X139804808Y-97351833D01*
X139819074Y-97325164D01*
X139833700Y-97320800D01*
X139853796Y-97330779D01*
G37*
X139853796Y-97330779D02*
X139865593Y-97366840D01*
X139870927Y-97438171D01*
X139871800Y-97511300D01*
X139869804Y-97611783D01*
X139862591Y-97670766D01*
X139848325Y-97697435D01*
X139833700Y-97701800D01*
X139813603Y-97691820D01*
X139801806Y-97655759D01*
X139796472Y-97584428D01*
X139795600Y-97511300D01*
X139797595Y-97410816D01*
X139804808Y-97351833D01*
X139819074Y-97325164D01*
X139833700Y-97320800D01*
X139853796Y-97330779D01*
G36*
X140837000Y-94806200D02*
G01*
X140303600Y-94806200D01*
X140303600Y-97016000D01*
X139516739Y-97016000D01*
X139510119Y-95917450D01*
X139503500Y-94818900D01*
X139230450Y-94811690D01*
X138957400Y-94804481D01*
X138957400Y-94171200D01*
X140837000Y-94171200D01*
X140837000Y-94806200D01*
G37*
X140837000Y-94806200D02*
X140303600Y-94806200D01*
X140303600Y-97016000D01*
X139516739Y-97016000D01*
X139510119Y-95917450D01*
X139503500Y-94818900D01*
X139230450Y-94811690D01*
X138957400Y-94804481D01*
X138957400Y-94171200D01*
X140837000Y-94171200D01*
X140837000Y-94806200D01*
G36*
X138924542Y-97342880D02*
G01*
X138932000Y-97384300D01*
X138942904Y-97433056D01*
X138983901Y-97447692D01*
X138990420Y-97447800D01*
X139050130Y-97460347D01*
X139079320Y-97478279D01*
X139098138Y-97518295D01*
X139107883Y-97579348D01*
X139108127Y-97642586D01*
X139098441Y-97689154D01*
X139084400Y-97701800D01*
X139065486Y-97680013D01*
X139059000Y-97636630D01*
X139047794Y-97559595D01*
X139019137Y-97505665D01*
X138980470Y-97487094D01*
X138969712Y-97489563D01*
X138941324Y-97526898D01*
X138932000Y-97602917D01*
X138925355Y-97672535D01*
X138903478Y-97700433D01*
X138893900Y-97701800D01*
X138873803Y-97691820D01*
X138862006Y-97655759D01*
X138856672Y-97584428D01*
X138855800Y-97511300D01*
X138857795Y-97410816D01*
X138865008Y-97351833D01*
X138879274Y-97325164D01*
X138893900Y-97320800D01*
X138924542Y-97342880D01*
G37*
X138924542Y-97342880D02*
X138932000Y-97384300D01*
X138942904Y-97433056D01*
X138983901Y-97447692D01*
X138990420Y-97447800D01*
X139050130Y-97460347D01*
X139079320Y-97478279D01*
X139098138Y-97518295D01*
X139107883Y-97579348D01*
X139108127Y-97642586D01*
X139098441Y-97689154D01*
X139084400Y-97701800D01*
X139065486Y-97680013D01*
X139059000Y-97636630D01*
X139047794Y-97559595D01*
X139019137Y-97505665D01*
X138980470Y-97487094D01*
X138969712Y-97489563D01*
X138941324Y-97526898D01*
X138932000Y-97602917D01*
X138925355Y-97672535D01*
X138903478Y-97700433D01*
X138893900Y-97701800D01*
X138873803Y-97691820D01*
X138862006Y-97655759D01*
X138856672Y-97584428D01*
X138855800Y-97511300D01*
X138857795Y-97410816D01*
X138865008Y-97351833D01*
X138879274Y-97325164D01*
X138893900Y-97320800D01*
X138924542Y-97342880D01*
D12*
G04 #@! TO.C,J5*
X154400000Y-61200000D02*
X151200000Y-61200000D01*
X156480000Y-63000000D02*
X156480000Y-66600000D01*
X154400000Y-68400000D02*
X151200000Y-68400000D01*
X149600000Y-63500000D02*
X149600000Y-66100000D01*
G04 #@! TO.C,R11*
X115172500Y-82487258D02*
X115172500Y-82012742D01*
X114127500Y-82487258D02*
X114127500Y-82012742D01*
G04 #@! TO.C,J4*
X154400000Y-72400000D02*
X151200000Y-72400000D01*
X154400000Y-79600000D02*
X151200000Y-79600000D01*
X156480000Y-74200000D02*
X156480000Y-77800000D01*
X149600000Y-74700000D02*
X149600000Y-77300000D01*
G04 #@! TO.C,U5*
X131700000Y-80750000D02*
X133400000Y-80750000D01*
X134300000Y-80750000D02*
X138865000Y-80750000D01*
X123800000Y-80800000D02*
X124075000Y-80800000D01*
X127300000Y-80775000D02*
X127775000Y-80775000D01*
X125100000Y-80800000D02*
X125775000Y-80800000D01*
X129300000Y-80750000D02*
X129775000Y-80750000D01*
X142475000Y-79850000D02*
X142475000Y-79350000D01*
X141400000Y-80750000D02*
X141675000Y-80750000D01*
X122925000Y-79850000D02*
X122925000Y-79350000D01*
G04 #@! TO.C,J2*
X105750000Y-67070000D02*
X105750000Y-69730000D01*
X113430000Y-67070000D02*
X105750000Y-67070000D01*
X113430000Y-67070000D02*
X113430000Y-69730000D01*
X113430000Y-69730000D02*
X105750000Y-69730000D01*
X114700000Y-67070000D02*
X116030000Y-67070000D01*
X116030000Y-67070000D02*
X116030000Y-68400000D01*
G04 #@! TO.C,R9*
X118687742Y-66277500D02*
X119162258Y-66277500D01*
X118687742Y-67322500D02*
X119162258Y-67322500D01*
G04 #@! TO.C,C2*
X120290000Y-87959420D02*
X120290000Y-88240580D01*
X121310000Y-87959420D02*
X121310000Y-88240580D01*
G04 #@! TO.C,R16*
X118687742Y-71822500D02*
X119162258Y-71822500D01*
X118687742Y-70777500D02*
X119162258Y-70777500D01*
G04 #@! TO.C,C15*
X119660000Y-87959420D02*
X119660000Y-88240580D01*
X118640000Y-87959420D02*
X118640000Y-88240580D01*
G04 #@! TO.C,R4*
X131146359Y-88920000D02*
X131453641Y-88920000D01*
X131146359Y-89680000D02*
X131453641Y-89680000D01*
G04 #@! TO.C,R19*
X118687742Y-73077500D02*
X119162258Y-73077500D01*
X118687742Y-74122500D02*
X119162258Y-74122500D01*
G04 #@! TO.C,R5*
X128222500Y-94487742D02*
X128222500Y-94962258D01*
X127177500Y-94487742D02*
X127177500Y-94962258D01*
G04 #@! TO.C,R6*
X118687742Y-64077500D02*
X119162258Y-64077500D01*
X118687742Y-65122500D02*
X119162258Y-65122500D01*
G04 #@! TO.C,J7*
X106290000Y-62770000D02*
X106290000Y-65430000D01*
X111430000Y-65430000D02*
X106290000Y-65430000D01*
X114030000Y-62770000D02*
X114030000Y-64100000D01*
X112700000Y-62770000D02*
X114030000Y-62770000D01*
X111430000Y-62770000D02*
X111430000Y-65430000D01*
X111430000Y-62770000D02*
X106290000Y-62770000D01*
G04 #@! TO.C,J3*
X153270000Y-87230000D02*
X155930000Y-87230000D01*
X155930000Y-87230000D02*
X155930000Y-97450000D01*
X153270000Y-84630000D02*
X154600000Y-84630000D01*
X153270000Y-87230000D02*
X153270000Y-97450000D01*
X153270000Y-97450000D02*
X155930000Y-97450000D01*
X153270000Y-85960000D02*
X153270000Y-84630000D01*
G04 #@! TO.C,C1*
X118060000Y-87959420D02*
X118060000Y-88240580D01*
X117040000Y-87959420D02*
X117040000Y-88240580D01*
G04 #@! TO.C,R15*
X118687742Y-68577500D02*
X119162258Y-68577500D01*
X118687742Y-69622500D02*
X119162258Y-69622500D01*
G04 #@! TO.C,R2*
X149822500Y-82162742D02*
X149822500Y-82637258D01*
X148777500Y-82162742D02*
X148777500Y-82637258D01*
G04 #@! TD*
%LPC*%
G04 #@! TO.C,U5*
G36*
X121600000Y-80100000D02*
G01*
X118400000Y-80100000D01*
X118400000Y-79250000D01*
X121600000Y-79250000D01*
X121600000Y-80100000D01*
G37*
D10*
X121600000Y-80100000D02*
X118400000Y-80100000D01*
X118400000Y-79250000D01*
X121600000Y-79250000D01*
X121600000Y-80100000D01*
G36*
X143250000Y-83300000D02*
G01*
X122250000Y-83300000D01*
X122250000Y-59900000D01*
X143250000Y-59900000D01*
X143250000Y-83300000D01*
G37*
X143250000Y-83300000D02*
X122250000Y-83300000D01*
X122250000Y-59900000D01*
X143250000Y-59900000D01*
X143250000Y-83300000D01*
G36*
X147250000Y-80000000D02*
G01*
X144050000Y-80000000D01*
X144050000Y-79150000D01*
X147250000Y-79150000D01*
X147250000Y-80000000D01*
G37*
X147250000Y-80000000D02*
X144050000Y-80000000D01*
X144050000Y-79150000D01*
X147250000Y-79150000D01*
X147250000Y-80000000D01*
D16*
X121312500Y-83350000D02*
G75*
G03*
X121312500Y-83350000I-237500J0D01*
G01*
X144537500Y-83250000D02*
G75*
G03*
X144537500Y-83250000I-237500J0D01*
G01*
D12*
X127154000Y-85150000D02*
X139033000Y-85150000D01*
X139033000Y-85150000D02*
X139033000Y-86150000D01*
X139033000Y-86150000D02*
X127154000Y-86150000D01*
X127154000Y-86150000D02*
X127154000Y-85150000D01*
G36*
X127154000Y-85150000D02*
G01*
X139033000Y-85150000D01*
X139033000Y-86150000D01*
X127154000Y-86150000D01*
X127154000Y-85150000D01*
G37*
X124350000Y-83750000D02*
X138867000Y-83750000D01*
X138867000Y-83750000D02*
X138867000Y-84750000D01*
X138867000Y-84750000D02*
X124350000Y-84750000D01*
X124350000Y-84750000D02*
X124350000Y-83750000D01*
G36*
X124350000Y-83750000D02*
G01*
X138867000Y-83750000D01*
X138867000Y-84750000D01*
X124350000Y-84750000D01*
X124350000Y-83750000D01*
G37*
G04 #@! TD*
D17*
G04 #@! TO.C,H2*
X145400000Y-87100000D03*
G04 #@! TD*
D18*
G04 #@! TO.C,C8*
X120751600Y-91274600D03*
X120751600Y-92824600D03*
G04 #@! TD*
G04 #@! TO.C,C9*
X119176800Y-91274600D03*
X119176800Y-92824600D03*
G04 #@! TD*
G04 #@! TO.C,C10*
X117551200Y-91274600D03*
X117551200Y-92824600D03*
G04 #@! TD*
D19*
G04 #@! TO.C,J6*
X109520000Y-75000000D03*
X106980000Y-72460000D03*
X112060000Y-77540000D03*
X106980000Y-77540000D03*
X112060000Y-72460000D03*
G04 #@! TD*
D20*
G04 #@! TO.C,J9*
X126492000Y-54610000D03*
D21*
X123952000Y-54610000D03*
X121412000Y-54610000D03*
X118872000Y-54610000D03*
X116332000Y-54610000D03*
X113792000Y-54610000D03*
G04 #@! TD*
D22*
G04 #@! TO.C,C6*
X110693200Y-88978000D03*
X110693200Y-86028000D03*
G04 #@! TD*
G04 #@! TO.C,C4*
X113995200Y-88978000D03*
X113995200Y-86028000D03*
G04 #@! TD*
D23*
G04 #@! TO.C,FID2*
X154305000Y-100330000D03*
G04 #@! TD*
D20*
G04 #@! TO.C,J10*
X130937000Y-54610000D03*
D21*
X133477000Y-54610000D03*
X136017000Y-54610000D03*
X138557000Y-54610000D03*
X141097000Y-54610000D03*
X143637000Y-54610000D03*
G04 #@! TD*
D24*
G04 #@! TO.C,U2*
X125410001Y-91237504D03*
D25*
X125910001Y-91237504D03*
X126410001Y-91237504D03*
D24*
X126910001Y-91237504D03*
D26*
X127020001Y-90600004D03*
D24*
X126910001Y-89962504D03*
D25*
X126410001Y-89962504D03*
X125910001Y-89962504D03*
D24*
X125410001Y-89962504D03*
D26*
X125300001Y-90600004D03*
G04 #@! TD*
D27*
G04 #@! TO.C,R3*
X125650001Y-92682804D03*
X126670001Y-92682804D03*
G04 #@! TD*
D18*
G04 #@! TO.C,C12*
X128573001Y-90637804D03*
X128573001Y-92187804D03*
G04 #@! TD*
D28*
G04 #@! TO.C,J1*
X106172000Y-105791000D03*
X108172000Y-105791000D03*
X109172000Y-105791000D03*
X110172000Y-105791000D03*
X111172000Y-105791000D03*
X112172000Y-105791000D03*
X113172000Y-105791000D03*
X114172000Y-105791000D03*
X115172000Y-105791000D03*
X116172000Y-105791000D03*
X119172000Y-105791000D03*
X120172000Y-105791000D03*
X121172000Y-105791000D03*
X122172000Y-105791000D03*
X123172000Y-105791000D03*
X124172000Y-105791000D03*
X125172000Y-105791000D03*
X126172000Y-105791000D03*
X127172000Y-105791000D03*
X128172000Y-105791000D03*
X129172000Y-105791000D03*
X130172000Y-105791000D03*
X131172000Y-105791000D03*
X132172000Y-105791000D03*
X133172000Y-105791000D03*
X134172000Y-105791000D03*
X135172000Y-105791000D03*
X136172000Y-105791000D03*
X137172000Y-105791000D03*
X138172000Y-105791000D03*
X139172000Y-105791000D03*
X140172000Y-105791000D03*
X141172000Y-105791000D03*
X142172000Y-105791000D03*
X143172000Y-105791000D03*
X144172000Y-105791000D03*
X145172000Y-105791000D03*
X146172000Y-105791000D03*
X147172000Y-105791000D03*
X148172000Y-105791000D03*
X149172000Y-105791000D03*
X150172000Y-105791000D03*
X151172000Y-105791000D03*
X152172000Y-105791000D03*
X153172000Y-105791000D03*
X154172000Y-105791000D03*
D29*
X155172000Y-105241000D03*
D28*
X156172000Y-105791000D03*
G04 #@! TD*
D20*
G04 #@! TO.C,JP1*
X114909600Y-92710000D03*
D21*
X114909600Y-95250000D03*
X114909600Y-97790000D03*
G04 #@! TD*
D30*
G04 #@! TO.C,C11*
X120751600Y-96863200D03*
X120751600Y-95313200D03*
G04 #@! TD*
G04 #@! TO.C,C13*
X119151400Y-96863200D03*
X119151400Y-95313200D03*
G04 #@! TD*
D18*
G04 #@! TO.C,C7*
X123797801Y-90637804D03*
X123797801Y-92187804D03*
G04 #@! TD*
D31*
G04 #@! TO.C,R12*
X111900000Y-81475000D03*
X111900000Y-83125000D03*
G04 #@! TD*
D30*
G04 #@! TO.C,C14*
X117576600Y-96863200D03*
X117576600Y-95313200D03*
G04 #@! TD*
D32*
G04 #@! TO.C,R13*
X120100000Y-77810000D03*
X120100000Y-76790000D03*
G04 #@! TD*
G04 #@! TO.C,R14*
X117500000Y-77810000D03*
X117500000Y-76790000D03*
G04 #@! TD*
D33*
G04 #@! TO.C,R17*
X146300000Y-74990000D03*
X146300000Y-76010000D03*
G04 #@! TD*
G04 #@! TO.C,R18*
X144700000Y-74990000D03*
X144700000Y-76010000D03*
G04 #@! TD*
D32*
G04 #@! TO.C,R10*
X118800000Y-77810000D03*
X118800000Y-76790000D03*
G04 #@! TD*
D33*
G04 #@! TO.C,R8*
X147500000Y-74990000D03*
X147500000Y-76010000D03*
G04 #@! TD*
D17*
G04 #@! TO.C,H1*
X118850000Y-59950000D03*
G04 #@! TD*
D23*
G04 #@! TO.C,FID1*
X111300000Y-56300000D03*
G04 #@! TD*
D19*
G04 #@! TO.C,J5*
X152800000Y-64800000D03*
X155340000Y-67340000D03*
X155340000Y-62260000D03*
X150260000Y-62260000D03*
X150260000Y-67340000D03*
G04 #@! TD*
D34*
G04 #@! TO.C,H3*
X108500000Y-54800000D03*
X153500000Y-54800000D03*
X153500000Y-81800000D03*
X108500000Y-81800000D03*
G04 #@! TD*
D35*
G04 #@! TO.C,R11*
X114650000Y-83075000D03*
X114650000Y-81425000D03*
G04 #@! TD*
D19*
G04 #@! TO.C,J4*
X152800000Y-76000000D03*
X150260000Y-78540000D03*
X155340000Y-73460000D03*
X150260000Y-73460000D03*
X155340000Y-78540000D03*
G04 #@! TD*
D36*
G04 #@! TO.C,U5*
X121800000Y-82700000D03*
X121100000Y-82100000D03*
X120400000Y-81400000D03*
D37*
X144450000Y-79345000D03*
X145600000Y-79445000D03*
X146800000Y-79545000D03*
X144450000Y-79645000D03*
X145600000Y-79745000D03*
X146800000Y-79845000D03*
X121200000Y-79845000D03*
X120050000Y-79745000D03*
X118850000Y-79645000D03*
X121200000Y-79545000D03*
X120050000Y-79445000D03*
X118850000Y-79345000D03*
D38*
X141850000Y-83013000D03*
X141715000Y-83013000D03*
X141590000Y-83013000D03*
X141465000Y-83013000D03*
D39*
X140885000Y-83025000D03*
X140585000Y-83025000D03*
X140285000Y-83025000D03*
X139985000Y-83025000D03*
X138885000Y-85700000D03*
D40*
X138785000Y-81600000D03*
D39*
X138685000Y-84250000D03*
X138385000Y-84250000D03*
X138085000Y-84250000D03*
X137785000Y-84250000D03*
X137485000Y-84250000D03*
X137385000Y-85700000D03*
X137285000Y-82850000D03*
X136985000Y-82850000D03*
X136885000Y-84250000D03*
X136785000Y-85700000D03*
X136685000Y-82850000D03*
X136085000Y-82850000D03*
X135885000Y-85700000D03*
X135785000Y-82850000D03*
X135685000Y-84250000D03*
X135585000Y-85700000D03*
X135485000Y-82850000D03*
X135285000Y-85700000D03*
X135085000Y-84250000D03*
X134785000Y-84250000D03*
X134685000Y-85700000D03*
X133185000Y-82850000D03*
X132985000Y-85700000D03*
X132885000Y-82850000D03*
X132785000Y-84250000D03*
X132685000Y-85700000D03*
X132585000Y-82850000D03*
X132485000Y-84250000D03*
X132385000Y-85700000D03*
X132285000Y-82850000D03*
X132185000Y-84250000D03*
X132085000Y-85700000D03*
X131985000Y-82850000D03*
X131785000Y-85700000D03*
X131535000Y-85700000D03*
X129585000Y-82850000D03*
X129385000Y-85700000D03*
X127585000Y-82850000D03*
X127385000Y-85700000D03*
X125585000Y-84250000D03*
X125385000Y-82850000D03*
X124585000Y-84250000D03*
D38*
X124110000Y-82940000D03*
X123975000Y-82940000D03*
X123850000Y-82940000D03*
X123725000Y-82940000D03*
D41*
X132705000Y-70600000D03*
G04 #@! TD*
D20*
G04 #@! TO.C,J2*
X114700000Y-68400000D03*
D21*
X112160000Y-68400000D03*
X109620000Y-68400000D03*
X107080000Y-68400000D03*
G04 #@! TD*
D42*
G04 #@! TO.C,R9*
X118100000Y-66800000D03*
X119750000Y-66800000D03*
G04 #@! TD*
D18*
G04 #@! TO.C,C2*
X120800000Y-87325000D03*
X120800000Y-88875000D03*
G04 #@! TD*
D42*
G04 #@! TO.C,R16*
X118100000Y-71300000D03*
X119750000Y-71300000D03*
G04 #@! TD*
D18*
G04 #@! TO.C,C15*
X119150000Y-87325000D03*
X119150000Y-88875000D03*
G04 #@! TD*
D27*
G04 #@! TO.C,R4*
X130790000Y-89300000D03*
X131810000Y-89300000D03*
G04 #@! TD*
D42*
G04 #@! TO.C,R19*
X118100000Y-73600000D03*
X119750000Y-73600000D03*
G04 #@! TD*
D31*
G04 #@! TO.C,R5*
X127700000Y-93900000D03*
X127700000Y-95550000D03*
G04 #@! TD*
D42*
G04 #@! TO.C,R6*
X118100000Y-64600000D03*
X119750000Y-64600000D03*
G04 #@! TD*
D20*
G04 #@! TO.C,J7*
X112700000Y-64100000D03*
D21*
X110160000Y-64100000D03*
X107620000Y-64100000D03*
G04 #@! TD*
D20*
G04 #@! TO.C,J3*
X154600000Y-85960000D03*
D21*
X154600000Y-88500000D03*
X154600000Y-91040000D03*
X154600000Y-93580000D03*
X154600000Y-96120000D03*
G04 #@! TD*
D18*
G04 #@! TO.C,C1*
X117550000Y-87325000D03*
X117550000Y-88875000D03*
G04 #@! TD*
D42*
G04 #@! TO.C,R15*
X118100000Y-69100000D03*
X119750000Y-69100000D03*
G04 #@! TD*
D31*
G04 #@! TO.C,R2*
X149300000Y-81575000D03*
X149300000Y-83225000D03*
G04 #@! TD*
D43*
X123400000Y-70600000D03*
X122025400Y-91274600D03*
X121523700Y-91274600D03*
X121551404Y-96863200D03*
X122123200Y-96850200D03*
X118600000Y-84100000D03*
X142200000Y-84300000D03*
X120525279Y-84289388D03*
X115400000Y-83100000D03*
X136800000Y-88200000D03*
X141900000Y-88200000D03*
X129901386Y-101901386D03*
X128750000Y-94800000D03*
X143000000Y-85600000D03*
X136085000Y-83635000D03*
X135200000Y-102800000D03*
X134508715Y-87608886D03*
X141312479Y-91777953D03*
X140561501Y-91609631D03*
X138175249Y-90216461D03*
X128800000Y-88600000D03*
X128300000Y-102850000D03*
X129338489Y-92700000D03*
X129500000Y-94700000D03*
X128547601Y-92809810D03*
X139088000Y-86200000D03*
X120777000Y-94742000D03*
X125347197Y-91920804D03*
X136657557Y-83538000D03*
X149411002Y-83757228D03*
X125385000Y-83585000D03*
X117500400Y-93421200D03*
X129338000Y-86300000D03*
X119150000Y-89450000D03*
X115824000Y-102717600D03*
X119176800Y-93421200D03*
X134611520Y-84750000D03*
X129700000Y-83300000D03*
X115214400Y-102743000D03*
X120800000Y-89450000D03*
X131750000Y-83000000D03*
X120751600Y-93421200D03*
X117550000Y-89450000D03*
X115824000Y-102108000D03*
X138350000Y-84900000D03*
X110642400Y-89814400D03*
X117500388Y-94691200D03*
X123797801Y-92835204D03*
X133350000Y-83250000D03*
X119151402Y-94691200D03*
X127600000Y-83600000D03*
X126439401Y-89253804D03*
X115214400Y-102108000D03*
X127400000Y-86300000D03*
X135412000Y-86100000D03*
X137550000Y-82850000D03*
X113944400Y-89814398D03*
X129150000Y-102600000D03*
X127942344Y-101075000D03*
X117900000Y-76000000D03*
X118807298Y-76007298D03*
X121991250Y-78991250D03*
X121500000Y-76000000D03*
X120552861Y-75952861D03*
X146100000Y-72800000D03*
X144500000Y-73900000D03*
X146800000Y-72900000D03*
X145500000Y-72200000D03*
X144997500Y-73300000D03*
X132981510Y-99685838D03*
X131600000Y-99900000D03*
X139900000Y-99100000D03*
X144900000Y-100900000D03*
X141200000Y-84000000D03*
X116694142Y-66014314D03*
X140500000Y-84000000D03*
X117325000Y-68875000D03*
X117193164Y-71138907D03*
X139808672Y-83891328D03*
X139208672Y-83291328D03*
X117605164Y-73544836D03*
X137600000Y-88800000D03*
X142400000Y-90300000D03*
X138212281Y-89200000D03*
X142899244Y-91901275D03*
X138788000Y-89673383D03*
X141932656Y-91517344D03*
X116550000Y-88650000D03*
X122400000Y-87300000D03*
X116550000Y-87400000D03*
X116550000Y-88000000D03*
X121800000Y-87300000D03*
X139950000Y-102150000D03*
X125100000Y-85300000D03*
X118600000Y-80800000D03*
M02*
