G04 #@! TF.GenerationSoftware,KiCad,Pcbnew,(6.0.10)*
G04 #@! TF.CreationDate,2023-02-10T19:23:53+01:00*
G04 #@! TF.ProjectId,astropix_v3,61737472-6f70-4697-985f-76332e6b6963,1.0*
G04 #@! TF.SameCoordinates,Original*
G04 #@! TF.FileFunction,AssemblyDrawing,Top*
%FSLAX46Y46*%
G04 Gerber Fmt 4.6, Leading zero omitted, Abs format (unit mm)*
G04 Created by KiCad (PCBNEW (6.0.10)) date 2023-02-10 19:23:53*
%MOMM*%
%LPD*%
G01*
G04 APERTURE LIST*
%ADD10C,0.150000*%
%ADD11C,0.060000*%
%ADD12C,0.120000*%
%ADD13C,0.030000*%
%ADD14C,0.040000*%
%ADD15C,0.100000*%
G04 APERTURE END LIST*
D10*
G04 #@! TO.C,H2*
X140614285Y-91752380D02*
X140614285Y-90752380D01*
X140947619Y-91466666D01*
X141280952Y-90752380D01*
X141280952Y-91752380D01*
X141900000Y-91752380D02*
X141804761Y-91704761D01*
X141757142Y-91657142D01*
X141709523Y-91561904D01*
X141709523Y-91276190D01*
X141757142Y-91180952D01*
X141804761Y-91133333D01*
X141900000Y-91085714D01*
X142042857Y-91085714D01*
X142138095Y-91133333D01*
X142185714Y-91180952D01*
X142233333Y-91276190D01*
X142233333Y-91561904D01*
X142185714Y-91657142D01*
X142138095Y-91704761D01*
X142042857Y-91752380D01*
X141900000Y-91752380D01*
X143090476Y-91085714D02*
X143090476Y-91752380D01*
X142661904Y-91085714D02*
X142661904Y-91609523D01*
X142709523Y-91704761D01*
X142804761Y-91752380D01*
X142947619Y-91752380D01*
X143042857Y-91704761D01*
X143090476Y-91657142D01*
X143566666Y-91085714D02*
X143566666Y-91752380D01*
X143566666Y-91180952D02*
X143614285Y-91133333D01*
X143709523Y-91085714D01*
X143852380Y-91085714D01*
X143947619Y-91133333D01*
X143995238Y-91228571D01*
X143995238Y-91752380D01*
X144328571Y-91085714D02*
X144709523Y-91085714D01*
X144471428Y-90752380D02*
X144471428Y-91609523D01*
X144519047Y-91704761D01*
X144614285Y-91752380D01*
X144709523Y-91752380D01*
X145042857Y-91752380D02*
X145042857Y-91085714D01*
X145042857Y-90752380D02*
X144995238Y-90800000D01*
X145042857Y-90847619D01*
X145090476Y-90800000D01*
X145042857Y-90752380D01*
X145042857Y-90847619D01*
X145519047Y-91085714D02*
X145519047Y-91752380D01*
X145519047Y-91180952D02*
X145566666Y-91133333D01*
X145661904Y-91085714D01*
X145804761Y-91085714D01*
X145900000Y-91133333D01*
X145947619Y-91228571D01*
X145947619Y-91752380D01*
X146852380Y-91085714D02*
X146852380Y-91895238D01*
X146804761Y-91990476D01*
X146757142Y-92038095D01*
X146661904Y-92085714D01*
X146519047Y-92085714D01*
X146423809Y-92038095D01*
X146852380Y-91704761D02*
X146757142Y-91752380D01*
X146566666Y-91752380D01*
X146471428Y-91704761D01*
X146423809Y-91657142D01*
X146376190Y-91561904D01*
X146376190Y-91276190D01*
X146423809Y-91180952D01*
X146471428Y-91133333D01*
X146566666Y-91085714D01*
X146757142Y-91085714D01*
X146852380Y-91133333D01*
X147328571Y-91752380D02*
X147328571Y-90752380D01*
X147328571Y-91228571D02*
X147900000Y-91228571D01*
X147900000Y-91752380D02*
X147900000Y-90752380D01*
X148519047Y-91752380D02*
X148423809Y-91704761D01*
X148376190Y-91657142D01*
X148328571Y-91561904D01*
X148328571Y-91276190D01*
X148376190Y-91180952D01*
X148423809Y-91133333D01*
X148519047Y-91085714D01*
X148661904Y-91085714D01*
X148757142Y-91133333D01*
X148804761Y-91180952D01*
X148852380Y-91276190D01*
X148852380Y-91561904D01*
X148804761Y-91657142D01*
X148757142Y-91704761D01*
X148661904Y-91752380D01*
X148519047Y-91752380D01*
X149423809Y-91752380D02*
X149328571Y-91704761D01*
X149280952Y-91609523D01*
X149280952Y-90752380D01*
X150185714Y-91704761D02*
X150090476Y-91752380D01*
X149900000Y-91752380D01*
X149804761Y-91704761D01*
X149757142Y-91609523D01*
X149757142Y-91228571D01*
X149804761Y-91133333D01*
X149900000Y-91085714D01*
X150090476Y-91085714D01*
X150185714Y-91133333D01*
X150233333Y-91228571D01*
X150233333Y-91323809D01*
X149757142Y-91419047D01*
X144638095Y-87552380D02*
X144638095Y-86552380D01*
X144638095Y-87028571D02*
X145209523Y-87028571D01*
X145209523Y-87552380D02*
X145209523Y-86552380D01*
X145638095Y-86647619D02*
X145685714Y-86600000D01*
X145780952Y-86552380D01*
X146019047Y-86552380D01*
X146114285Y-86600000D01*
X146161904Y-86647619D01*
X146209523Y-86742857D01*
X146209523Y-86838095D01*
X146161904Y-86980952D01*
X145590476Y-87552380D01*
X146209523Y-87552380D01*
D11*
G04 #@! TO.C,C8*
X120894457Y-92116266D02*
X120913504Y-92135314D01*
X120932552Y-92192457D01*
X120932552Y-92230552D01*
X120913504Y-92287695D01*
X120875409Y-92325790D01*
X120837314Y-92344838D01*
X120761123Y-92363885D01*
X120703980Y-92363885D01*
X120627790Y-92344838D01*
X120589695Y-92325790D01*
X120551600Y-92287695D01*
X120532552Y-92230552D01*
X120532552Y-92192457D01*
X120551600Y-92135314D01*
X120570647Y-92116266D01*
X120703980Y-91887695D02*
X120684933Y-91925790D01*
X120665885Y-91944838D01*
X120627790Y-91963885D01*
X120608742Y-91963885D01*
X120570647Y-91944838D01*
X120551600Y-91925790D01*
X120532552Y-91887695D01*
X120532552Y-91811504D01*
X120551600Y-91773409D01*
X120570647Y-91754361D01*
X120608742Y-91735314D01*
X120627790Y-91735314D01*
X120665885Y-91754361D01*
X120684933Y-91773409D01*
X120703980Y-91811504D01*
X120703980Y-91887695D01*
X120723028Y-91925790D01*
X120742076Y-91944838D01*
X120780171Y-91963885D01*
X120856361Y-91963885D01*
X120894457Y-91944838D01*
X120913504Y-91925790D01*
X120932552Y-91887695D01*
X120932552Y-91811504D01*
X120913504Y-91773409D01*
X120894457Y-91754361D01*
X120856361Y-91735314D01*
X120780171Y-91735314D01*
X120742076Y-91754361D01*
X120723028Y-91773409D01*
X120703980Y-91811504D01*
G04 #@! TO.C,C9*
X119319657Y-92116266D02*
X119338704Y-92135314D01*
X119357752Y-92192457D01*
X119357752Y-92230552D01*
X119338704Y-92287695D01*
X119300609Y-92325790D01*
X119262514Y-92344838D01*
X119186323Y-92363885D01*
X119129180Y-92363885D01*
X119052990Y-92344838D01*
X119014895Y-92325790D01*
X118976800Y-92287695D01*
X118957752Y-92230552D01*
X118957752Y-92192457D01*
X118976800Y-92135314D01*
X118995847Y-92116266D01*
X119357752Y-91925790D02*
X119357752Y-91849600D01*
X119338704Y-91811504D01*
X119319657Y-91792457D01*
X119262514Y-91754361D01*
X119186323Y-91735314D01*
X119033942Y-91735314D01*
X118995847Y-91754361D01*
X118976800Y-91773409D01*
X118957752Y-91811504D01*
X118957752Y-91887695D01*
X118976800Y-91925790D01*
X118995847Y-91944838D01*
X119033942Y-91963885D01*
X119129180Y-91963885D01*
X119167276Y-91944838D01*
X119186323Y-91925790D01*
X119205371Y-91887695D01*
X119205371Y-91811504D01*
X119186323Y-91773409D01*
X119167276Y-91754361D01*
X119129180Y-91735314D01*
G04 #@! TO.C,C10*
X117694057Y-92306742D02*
X117713104Y-92325790D01*
X117732152Y-92382933D01*
X117732152Y-92421028D01*
X117713104Y-92478171D01*
X117675009Y-92516266D01*
X117636914Y-92535314D01*
X117560723Y-92554361D01*
X117503580Y-92554361D01*
X117427390Y-92535314D01*
X117389295Y-92516266D01*
X117351200Y-92478171D01*
X117332152Y-92421028D01*
X117332152Y-92382933D01*
X117351200Y-92325790D01*
X117370247Y-92306742D01*
X117732152Y-91925790D02*
X117732152Y-92154361D01*
X117732152Y-92040076D02*
X117332152Y-92040076D01*
X117389295Y-92078171D01*
X117427390Y-92116266D01*
X117446438Y-92154361D01*
X117332152Y-91678171D02*
X117332152Y-91640076D01*
X117351200Y-91601980D01*
X117370247Y-91582933D01*
X117408342Y-91563885D01*
X117484533Y-91544838D01*
X117579771Y-91544838D01*
X117655961Y-91563885D01*
X117694057Y-91582933D01*
X117713104Y-91601980D01*
X117732152Y-91640076D01*
X117732152Y-91678171D01*
X117713104Y-91716266D01*
X117694057Y-91735314D01*
X117655961Y-91754361D01*
X117579771Y-91773409D01*
X117484533Y-91773409D01*
X117408342Y-91754361D01*
X117370247Y-91735314D01*
X117351200Y-91716266D01*
X117332152Y-91678171D01*
D10*
G04 #@! TO.C,J6*
X109081904Y-75266666D02*
X109653333Y-75266666D01*
X109767619Y-75304761D01*
X109843809Y-75380952D01*
X109881904Y-75495238D01*
X109881904Y-75571428D01*
X109081904Y-74542857D02*
X109081904Y-74695238D01*
X109120000Y-74771428D01*
X109158095Y-74809523D01*
X109272380Y-74885714D01*
X109424761Y-74923809D01*
X109729523Y-74923809D01*
X109805714Y-74885714D01*
X109843809Y-74847619D01*
X109881904Y-74771428D01*
X109881904Y-74619047D01*
X109843809Y-74542857D01*
X109805714Y-74504761D01*
X109729523Y-74466666D01*
X109539047Y-74466666D01*
X109462857Y-74504761D01*
X109424761Y-74542857D01*
X109386666Y-74619047D01*
X109386666Y-74771428D01*
X109424761Y-74847619D01*
X109462857Y-74885714D01*
X109539047Y-74923809D01*
G04 #@! TO.C,J9*
X119875333Y-54171904D02*
X119875333Y-54743333D01*
X119837238Y-54857619D01*
X119761047Y-54933809D01*
X119646761Y-54971904D01*
X119570571Y-54971904D01*
X120294380Y-54971904D02*
X120446761Y-54971904D01*
X120522952Y-54933809D01*
X120561047Y-54895714D01*
X120637238Y-54781428D01*
X120675333Y-54629047D01*
X120675333Y-54324285D01*
X120637238Y-54248095D01*
X120599142Y-54210000D01*
X120522952Y-54171904D01*
X120370571Y-54171904D01*
X120294380Y-54210000D01*
X120256285Y-54248095D01*
X120218190Y-54324285D01*
X120218190Y-54514761D01*
X120256285Y-54590952D01*
X120294380Y-54629047D01*
X120370571Y-54667142D01*
X120522952Y-54667142D01*
X120599142Y-54629047D01*
X120637238Y-54590952D01*
X120675333Y-54514761D01*
D12*
G04 #@! TO.C,C6*
X110978914Y-87636333D02*
X111017009Y-87674428D01*
X111055104Y-87788714D01*
X111055104Y-87864904D01*
X111017009Y-87979190D01*
X110940819Y-88055380D01*
X110864628Y-88093476D01*
X110712247Y-88131571D01*
X110597961Y-88131571D01*
X110445580Y-88093476D01*
X110369390Y-88055380D01*
X110293200Y-87979190D01*
X110255104Y-87864904D01*
X110255104Y-87788714D01*
X110293200Y-87674428D01*
X110331295Y-87636333D01*
X110255104Y-86950619D02*
X110255104Y-87103000D01*
X110293200Y-87179190D01*
X110331295Y-87217285D01*
X110445580Y-87293476D01*
X110597961Y-87331571D01*
X110902723Y-87331571D01*
X110978914Y-87293476D01*
X111017009Y-87255380D01*
X111055104Y-87179190D01*
X111055104Y-87026809D01*
X111017009Y-86950619D01*
X110978914Y-86912523D01*
X110902723Y-86874428D01*
X110712247Y-86874428D01*
X110636057Y-86912523D01*
X110597961Y-86950619D01*
X110559866Y-87026809D01*
X110559866Y-87179190D01*
X110597961Y-87255380D01*
X110636057Y-87293476D01*
X110712247Y-87331571D01*
G04 #@! TO.C,C4*
X114280914Y-87636333D02*
X114319009Y-87674428D01*
X114357104Y-87788714D01*
X114357104Y-87864904D01*
X114319009Y-87979190D01*
X114242819Y-88055380D01*
X114166628Y-88093476D01*
X114014247Y-88131571D01*
X113899961Y-88131571D01*
X113747580Y-88093476D01*
X113671390Y-88055380D01*
X113595200Y-87979190D01*
X113557104Y-87864904D01*
X113557104Y-87788714D01*
X113595200Y-87674428D01*
X113633295Y-87636333D01*
X113823771Y-86950619D02*
X114357104Y-86950619D01*
X113519009Y-87141095D02*
X114090438Y-87331571D01*
X114090438Y-86836333D01*
D11*
G04 #@! TO.C,FID2*
X153447857Y-100272857D02*
X153181190Y-100272857D01*
X153181190Y-100691904D02*
X153181190Y-99891904D01*
X153562142Y-99891904D01*
X153866904Y-100691904D02*
X153866904Y-99891904D01*
X154247857Y-100691904D02*
X154247857Y-99891904D01*
X154438333Y-99891904D01*
X154552619Y-99930000D01*
X154628809Y-100006190D01*
X154666904Y-100082380D01*
X154705000Y-100234761D01*
X154705000Y-100349047D01*
X154666904Y-100501428D01*
X154628809Y-100577619D01*
X154552619Y-100653809D01*
X154438333Y-100691904D01*
X154247857Y-100691904D01*
X155009761Y-99968095D02*
X155047857Y-99930000D01*
X155124047Y-99891904D01*
X155314523Y-99891904D01*
X155390714Y-99930000D01*
X155428809Y-99968095D01*
X155466904Y-100044285D01*
X155466904Y-100120476D01*
X155428809Y-100234761D01*
X154971666Y-100691904D01*
X155466904Y-100691904D01*
D10*
G04 #@! TO.C,J10*
X136639380Y-54171904D02*
X136639380Y-54743333D01*
X136601285Y-54857619D01*
X136525095Y-54933809D01*
X136410809Y-54971904D01*
X136334619Y-54971904D01*
X137439380Y-54971904D02*
X136982238Y-54971904D01*
X137210809Y-54971904D02*
X137210809Y-54171904D01*
X137134619Y-54286190D01*
X137058428Y-54362380D01*
X136982238Y-54400476D01*
X137934619Y-54171904D02*
X138010809Y-54171904D01*
X138087000Y-54210000D01*
X138125095Y-54248095D01*
X138163190Y-54324285D01*
X138201285Y-54476666D01*
X138201285Y-54667142D01*
X138163190Y-54819523D01*
X138125095Y-54895714D01*
X138087000Y-54933809D01*
X138010809Y-54971904D01*
X137934619Y-54971904D01*
X137858428Y-54933809D01*
X137820333Y-54895714D01*
X137782238Y-54819523D01*
X137744142Y-54667142D01*
X137744142Y-54476666D01*
X137782238Y-54324285D01*
X137820333Y-54248095D01*
X137858428Y-54210000D01*
X137934619Y-54171904D01*
D13*
G04 #@! TO.C,U2*
X125779048Y-90326194D02*
X125779048Y-90730956D01*
X125802858Y-90778575D01*
X125826667Y-90802384D01*
X125874286Y-90826194D01*
X125969524Y-90826194D01*
X126017143Y-90802384D01*
X126040953Y-90778575D01*
X126064762Y-90730956D01*
X126064762Y-90326194D01*
X126279048Y-90373813D02*
X126302858Y-90350004D01*
X126350477Y-90326194D01*
X126469524Y-90326194D01*
X126517143Y-90350004D01*
X126540953Y-90373813D01*
X126564762Y-90421432D01*
X126564762Y-90469051D01*
X126540953Y-90540480D01*
X126255239Y-90826194D01*
X126564762Y-90826194D01*
D14*
G04 #@! TO.C,R3*
X126116667Y-92800423D02*
X126030001Y-92676613D01*
X125968096Y-92800423D02*
X125968096Y-92540423D01*
X126067143Y-92540423D01*
X126091905Y-92552804D01*
X126104286Y-92565184D01*
X126116667Y-92589946D01*
X126116667Y-92627089D01*
X126104286Y-92651851D01*
X126091905Y-92664232D01*
X126067143Y-92676613D01*
X125968096Y-92676613D01*
X126203334Y-92540423D02*
X126364286Y-92540423D01*
X126277620Y-92639470D01*
X126314762Y-92639470D01*
X126339524Y-92651851D01*
X126351905Y-92664232D01*
X126364286Y-92688994D01*
X126364286Y-92750899D01*
X126351905Y-92775661D01*
X126339524Y-92788042D01*
X126314762Y-92800423D01*
X126240477Y-92800423D01*
X126215715Y-92788042D01*
X126203334Y-92775661D01*
D11*
G04 #@! TO.C,C12*
X128715858Y-91669946D02*
X128734905Y-91688994D01*
X128753953Y-91746137D01*
X128753953Y-91784232D01*
X128734905Y-91841375D01*
X128696810Y-91879470D01*
X128658715Y-91898518D01*
X128582524Y-91917565D01*
X128525381Y-91917565D01*
X128449191Y-91898518D01*
X128411096Y-91879470D01*
X128373001Y-91841375D01*
X128353953Y-91784232D01*
X128353953Y-91746137D01*
X128373001Y-91688994D01*
X128392048Y-91669946D01*
X128753953Y-91288994D02*
X128753953Y-91517565D01*
X128753953Y-91403280D02*
X128353953Y-91403280D01*
X128411096Y-91441375D01*
X128449191Y-91479470D01*
X128468239Y-91517565D01*
X128392048Y-91136613D02*
X128373001Y-91117565D01*
X128353953Y-91079470D01*
X128353953Y-90984232D01*
X128373001Y-90946137D01*
X128392048Y-90927089D01*
X128430143Y-90908042D01*
X128468239Y-90908042D01*
X128525381Y-90927089D01*
X128753953Y-91155661D01*
X128753953Y-90908042D01*
D10*
G04 #@! TO.C,JP1*
X114471504Y-95916666D02*
X115042933Y-95916666D01*
X115157219Y-95954761D01*
X115233409Y-96030952D01*
X115271504Y-96145238D01*
X115271504Y-96221428D01*
X115271504Y-95535714D02*
X114471504Y-95535714D01*
X114471504Y-95230952D01*
X114509600Y-95154761D01*
X114547695Y-95116666D01*
X114623885Y-95078571D01*
X114738171Y-95078571D01*
X114814361Y-95116666D01*
X114852457Y-95154761D01*
X114890552Y-95230952D01*
X114890552Y-95535714D01*
X115271504Y-94316666D02*
X115271504Y-94773809D01*
X115271504Y-94545238D02*
X114471504Y-94545238D01*
X114585790Y-94621428D01*
X114661980Y-94697619D01*
X114700076Y-94773809D01*
D11*
G04 #@! TO.C,C11*
X120894457Y-96345342D02*
X120913504Y-96364390D01*
X120932552Y-96421533D01*
X120932552Y-96459628D01*
X120913504Y-96516771D01*
X120875409Y-96554866D01*
X120837314Y-96573914D01*
X120761123Y-96592961D01*
X120703980Y-96592961D01*
X120627790Y-96573914D01*
X120589695Y-96554866D01*
X120551600Y-96516771D01*
X120532552Y-96459628D01*
X120532552Y-96421533D01*
X120551600Y-96364390D01*
X120570647Y-96345342D01*
X120932552Y-95964390D02*
X120932552Y-96192961D01*
X120932552Y-96078676D02*
X120532552Y-96078676D01*
X120589695Y-96116771D01*
X120627790Y-96154866D01*
X120646838Y-96192961D01*
X120932552Y-95583438D02*
X120932552Y-95812009D01*
X120932552Y-95697723D02*
X120532552Y-95697723D01*
X120589695Y-95735819D01*
X120627790Y-95773914D01*
X120646838Y-95812009D01*
G04 #@! TO.C,C13*
X119294257Y-96345342D02*
X119313304Y-96364390D01*
X119332352Y-96421533D01*
X119332352Y-96459628D01*
X119313304Y-96516771D01*
X119275209Y-96554866D01*
X119237114Y-96573914D01*
X119160923Y-96592961D01*
X119103780Y-96592961D01*
X119027590Y-96573914D01*
X118989495Y-96554866D01*
X118951400Y-96516771D01*
X118932352Y-96459628D01*
X118932352Y-96421533D01*
X118951400Y-96364390D01*
X118970447Y-96345342D01*
X119332352Y-95964390D02*
X119332352Y-96192961D01*
X119332352Y-96078676D02*
X118932352Y-96078676D01*
X118989495Y-96116771D01*
X119027590Y-96154866D01*
X119046638Y-96192961D01*
X118932352Y-95831057D02*
X118932352Y-95583438D01*
X119084733Y-95716771D01*
X119084733Y-95659628D01*
X119103780Y-95621533D01*
X119122828Y-95602485D01*
X119160923Y-95583438D01*
X119256161Y-95583438D01*
X119294257Y-95602485D01*
X119313304Y-95621533D01*
X119332352Y-95659628D01*
X119332352Y-95773914D01*
X119313304Y-95812009D01*
X119294257Y-95831057D01*
G04 #@! TO.C,C7*
X123940658Y-91479470D02*
X123959705Y-91498518D01*
X123978753Y-91555661D01*
X123978753Y-91593756D01*
X123959705Y-91650899D01*
X123921610Y-91688994D01*
X123883515Y-91708042D01*
X123807324Y-91727089D01*
X123750181Y-91727089D01*
X123673991Y-91708042D01*
X123635896Y-91688994D01*
X123597801Y-91650899D01*
X123578753Y-91593756D01*
X123578753Y-91555661D01*
X123597801Y-91498518D01*
X123616848Y-91479470D01*
X123578753Y-91346137D02*
X123578753Y-91079470D01*
X123978753Y-91250899D01*
G04 #@! TO.C,R12*
X112080952Y-82557142D02*
X111890476Y-82690476D01*
X112080952Y-82785714D02*
X111680952Y-82785714D01*
X111680952Y-82633333D01*
X111700000Y-82595238D01*
X111719047Y-82576190D01*
X111757142Y-82557142D01*
X111814285Y-82557142D01*
X111852380Y-82576190D01*
X111871428Y-82595238D01*
X111890476Y-82633333D01*
X111890476Y-82785714D01*
X112080952Y-82176190D02*
X112080952Y-82404761D01*
X112080952Y-82290476D02*
X111680952Y-82290476D01*
X111738095Y-82328571D01*
X111776190Y-82366666D01*
X111795238Y-82404761D01*
X111719047Y-82023809D02*
X111700000Y-82004761D01*
X111680952Y-81966666D01*
X111680952Y-81871428D01*
X111700000Y-81833333D01*
X111719047Y-81814285D01*
X111757142Y-81795238D01*
X111795238Y-81795238D01*
X111852380Y-81814285D01*
X112080952Y-82042857D01*
X112080952Y-81795238D01*
G04 #@! TO.C,C14*
X117719457Y-96345342D02*
X117738504Y-96364390D01*
X117757552Y-96421533D01*
X117757552Y-96459628D01*
X117738504Y-96516771D01*
X117700409Y-96554866D01*
X117662314Y-96573914D01*
X117586123Y-96592961D01*
X117528980Y-96592961D01*
X117452790Y-96573914D01*
X117414695Y-96554866D01*
X117376600Y-96516771D01*
X117357552Y-96459628D01*
X117357552Y-96421533D01*
X117376600Y-96364390D01*
X117395647Y-96345342D01*
X117757552Y-95964390D02*
X117757552Y-96192961D01*
X117757552Y-96078676D02*
X117357552Y-96078676D01*
X117414695Y-96116771D01*
X117452790Y-96154866D01*
X117471838Y-96192961D01*
X117490885Y-95621533D02*
X117757552Y-95621533D01*
X117338504Y-95716771D02*
X117624219Y-95812009D01*
X117624219Y-95564390D01*
D14*
G04 #@! TO.C,R13*
X120217619Y-77467142D02*
X120093809Y-77553809D01*
X120217619Y-77615714D02*
X119957619Y-77615714D01*
X119957619Y-77516666D01*
X119970000Y-77491904D01*
X119982380Y-77479523D01*
X120007142Y-77467142D01*
X120044285Y-77467142D01*
X120069047Y-77479523D01*
X120081428Y-77491904D01*
X120093809Y-77516666D01*
X120093809Y-77615714D01*
X120217619Y-77219523D02*
X120217619Y-77368095D01*
X120217619Y-77293809D02*
X119957619Y-77293809D01*
X119994761Y-77318571D01*
X120019523Y-77343333D01*
X120031904Y-77368095D01*
X119957619Y-77132857D02*
X119957619Y-76971904D01*
X120056666Y-77058571D01*
X120056666Y-77021428D01*
X120069047Y-76996666D01*
X120081428Y-76984285D01*
X120106190Y-76971904D01*
X120168095Y-76971904D01*
X120192857Y-76984285D01*
X120205238Y-76996666D01*
X120217619Y-77021428D01*
X120217619Y-77095714D01*
X120205238Y-77120476D01*
X120192857Y-77132857D01*
G04 #@! TO.C,R14*
X117617619Y-77467142D02*
X117493809Y-77553809D01*
X117617619Y-77615714D02*
X117357619Y-77615714D01*
X117357619Y-77516666D01*
X117370000Y-77491904D01*
X117382380Y-77479523D01*
X117407142Y-77467142D01*
X117444285Y-77467142D01*
X117469047Y-77479523D01*
X117481428Y-77491904D01*
X117493809Y-77516666D01*
X117493809Y-77615714D01*
X117617619Y-77219523D02*
X117617619Y-77368095D01*
X117617619Y-77293809D02*
X117357619Y-77293809D01*
X117394761Y-77318571D01*
X117419523Y-77343333D01*
X117431904Y-77368095D01*
X117444285Y-76996666D02*
X117617619Y-76996666D01*
X117345238Y-77058571D02*
X117530952Y-77120476D01*
X117530952Y-76959523D01*
G04 #@! TO.C,R17*
X146417619Y-75667142D02*
X146293809Y-75753809D01*
X146417619Y-75815714D02*
X146157619Y-75815714D01*
X146157619Y-75716666D01*
X146170000Y-75691904D01*
X146182380Y-75679523D01*
X146207142Y-75667142D01*
X146244285Y-75667142D01*
X146269047Y-75679523D01*
X146281428Y-75691904D01*
X146293809Y-75716666D01*
X146293809Y-75815714D01*
X146417619Y-75419523D02*
X146417619Y-75568095D01*
X146417619Y-75493809D02*
X146157619Y-75493809D01*
X146194761Y-75518571D01*
X146219523Y-75543333D01*
X146231904Y-75568095D01*
X146157619Y-75332857D02*
X146157619Y-75159523D01*
X146417619Y-75270952D01*
G04 #@! TO.C,R18*
X144817619Y-75667142D02*
X144693809Y-75753809D01*
X144817619Y-75815714D02*
X144557619Y-75815714D01*
X144557619Y-75716666D01*
X144570000Y-75691904D01*
X144582380Y-75679523D01*
X144607142Y-75667142D01*
X144644285Y-75667142D01*
X144669047Y-75679523D01*
X144681428Y-75691904D01*
X144693809Y-75716666D01*
X144693809Y-75815714D01*
X144817619Y-75419523D02*
X144817619Y-75568095D01*
X144817619Y-75493809D02*
X144557619Y-75493809D01*
X144594761Y-75518571D01*
X144619523Y-75543333D01*
X144631904Y-75568095D01*
X144669047Y-75270952D02*
X144656666Y-75295714D01*
X144644285Y-75308095D01*
X144619523Y-75320476D01*
X144607142Y-75320476D01*
X144582380Y-75308095D01*
X144570000Y-75295714D01*
X144557619Y-75270952D01*
X144557619Y-75221428D01*
X144570000Y-75196666D01*
X144582380Y-75184285D01*
X144607142Y-75171904D01*
X144619523Y-75171904D01*
X144644285Y-75184285D01*
X144656666Y-75196666D01*
X144669047Y-75221428D01*
X144669047Y-75270952D01*
X144681428Y-75295714D01*
X144693809Y-75308095D01*
X144718571Y-75320476D01*
X144768095Y-75320476D01*
X144792857Y-75308095D01*
X144805238Y-75295714D01*
X144817619Y-75270952D01*
X144817619Y-75221428D01*
X144805238Y-75196666D01*
X144792857Y-75184285D01*
X144768095Y-75171904D01*
X144718571Y-75171904D01*
X144693809Y-75184285D01*
X144681428Y-75196666D01*
X144669047Y-75221428D01*
G04 #@! TO.C,R10*
X118917619Y-77467142D02*
X118793809Y-77553809D01*
X118917619Y-77615714D02*
X118657619Y-77615714D01*
X118657619Y-77516666D01*
X118670000Y-77491904D01*
X118682380Y-77479523D01*
X118707142Y-77467142D01*
X118744285Y-77467142D01*
X118769047Y-77479523D01*
X118781428Y-77491904D01*
X118793809Y-77516666D01*
X118793809Y-77615714D01*
X118917619Y-77219523D02*
X118917619Y-77368095D01*
X118917619Y-77293809D02*
X118657619Y-77293809D01*
X118694761Y-77318571D01*
X118719523Y-77343333D01*
X118731904Y-77368095D01*
X118657619Y-77058571D02*
X118657619Y-77033809D01*
X118670000Y-77009047D01*
X118682380Y-76996666D01*
X118707142Y-76984285D01*
X118756666Y-76971904D01*
X118818571Y-76971904D01*
X118868095Y-76984285D01*
X118892857Y-76996666D01*
X118905238Y-77009047D01*
X118917619Y-77033809D01*
X118917619Y-77058571D01*
X118905238Y-77083333D01*
X118892857Y-77095714D01*
X118868095Y-77108095D01*
X118818571Y-77120476D01*
X118756666Y-77120476D01*
X118707142Y-77108095D01*
X118682380Y-77095714D01*
X118670000Y-77083333D01*
X118657619Y-77058571D01*
G04 #@! TO.C,R8*
X147617619Y-75543333D02*
X147493809Y-75630000D01*
X147617619Y-75691904D02*
X147357619Y-75691904D01*
X147357619Y-75592857D01*
X147370000Y-75568095D01*
X147382380Y-75555714D01*
X147407142Y-75543333D01*
X147444285Y-75543333D01*
X147469047Y-75555714D01*
X147481428Y-75568095D01*
X147493809Y-75592857D01*
X147493809Y-75691904D01*
X147469047Y-75394761D02*
X147456666Y-75419523D01*
X147444285Y-75431904D01*
X147419523Y-75444285D01*
X147407142Y-75444285D01*
X147382380Y-75431904D01*
X147370000Y-75419523D01*
X147357619Y-75394761D01*
X147357619Y-75345238D01*
X147370000Y-75320476D01*
X147382380Y-75308095D01*
X147407142Y-75295714D01*
X147419523Y-75295714D01*
X147444285Y-75308095D01*
X147456666Y-75320476D01*
X147469047Y-75345238D01*
X147469047Y-75394761D01*
X147481428Y-75419523D01*
X147493809Y-75431904D01*
X147518571Y-75444285D01*
X147568095Y-75444285D01*
X147592857Y-75431904D01*
X147605238Y-75419523D01*
X147617619Y-75394761D01*
X147617619Y-75345238D01*
X147605238Y-75320476D01*
X147592857Y-75308095D01*
X147568095Y-75295714D01*
X147518571Y-75295714D01*
X147493809Y-75308095D01*
X147481428Y-75320476D01*
X147469047Y-75345238D01*
D11*
G04 #@! TO.C,FID1*
X110442857Y-56242857D02*
X110176190Y-56242857D01*
X110176190Y-56661904D02*
X110176190Y-55861904D01*
X110557142Y-55861904D01*
X110861904Y-56661904D02*
X110861904Y-55861904D01*
X111242857Y-56661904D02*
X111242857Y-55861904D01*
X111433333Y-55861904D01*
X111547619Y-55900000D01*
X111623809Y-55976190D01*
X111661904Y-56052380D01*
X111700000Y-56204761D01*
X111700000Y-56319047D01*
X111661904Y-56471428D01*
X111623809Y-56547619D01*
X111547619Y-56623809D01*
X111433333Y-56661904D01*
X111242857Y-56661904D01*
X112461904Y-56661904D02*
X112004761Y-56661904D01*
X112233333Y-56661904D02*
X112233333Y-55861904D01*
X112157142Y-55976190D01*
X112080952Y-56052380D01*
X112004761Y-56090476D01*
D10*
G04 #@! TO.C,J5*
X152361904Y-65066666D02*
X152933333Y-65066666D01*
X153047619Y-65104761D01*
X153123809Y-65180952D01*
X153161904Y-65295238D01*
X153161904Y-65371428D01*
X152361904Y-64304761D02*
X152361904Y-64685714D01*
X152742857Y-64723809D01*
X152704761Y-64685714D01*
X152666666Y-64609523D01*
X152666666Y-64419047D01*
X152704761Y-64342857D01*
X152742857Y-64304761D01*
X152819047Y-64266666D01*
X153009523Y-64266666D01*
X153085714Y-64304761D01*
X153123809Y-64342857D01*
X153161904Y-64419047D01*
X153161904Y-64609523D01*
X153123809Y-64685714D01*
X153085714Y-64723809D01*
D11*
G04 #@! TO.C,R11*
X114830952Y-82507142D02*
X114640476Y-82640476D01*
X114830952Y-82735714D02*
X114430952Y-82735714D01*
X114430952Y-82583333D01*
X114450000Y-82545238D01*
X114469047Y-82526190D01*
X114507142Y-82507142D01*
X114564285Y-82507142D01*
X114602380Y-82526190D01*
X114621428Y-82545238D01*
X114640476Y-82583333D01*
X114640476Y-82735714D01*
X114830952Y-82126190D02*
X114830952Y-82354761D01*
X114830952Y-82240476D02*
X114430952Y-82240476D01*
X114488095Y-82278571D01*
X114526190Y-82316666D01*
X114545238Y-82354761D01*
X114830952Y-81745238D02*
X114830952Y-81973809D01*
X114830952Y-81859523D02*
X114430952Y-81859523D01*
X114488095Y-81897619D01*
X114526190Y-81935714D01*
X114545238Y-81973809D01*
D10*
G04 #@! TO.C,J4*
X152252380Y-76333333D02*
X152966666Y-76333333D01*
X153109523Y-76380952D01*
X153204761Y-76476190D01*
X153252380Y-76619047D01*
X153252380Y-76714285D01*
X152585714Y-75428571D02*
X153252380Y-75428571D01*
X152204761Y-75666666D02*
X152919047Y-75904761D01*
X152919047Y-75285714D01*
G04 #@! TO.C,J2*
X110556666Y-67852380D02*
X110556666Y-68566666D01*
X110509047Y-68709523D01*
X110413809Y-68804761D01*
X110270952Y-68852380D01*
X110175714Y-68852380D01*
X110985238Y-67947619D02*
X111032857Y-67900000D01*
X111128095Y-67852380D01*
X111366190Y-67852380D01*
X111461428Y-67900000D01*
X111509047Y-67947619D01*
X111556666Y-68042857D01*
X111556666Y-68138095D01*
X111509047Y-68280952D01*
X110937619Y-68852380D01*
X111556666Y-68852380D01*
D11*
G04 #@! TO.C,R9*
X118858333Y-66980952D02*
X118725000Y-66790476D01*
X118629761Y-66980952D02*
X118629761Y-66580952D01*
X118782142Y-66580952D01*
X118820238Y-66600000D01*
X118839285Y-66619047D01*
X118858333Y-66657142D01*
X118858333Y-66714285D01*
X118839285Y-66752380D01*
X118820238Y-66771428D01*
X118782142Y-66790476D01*
X118629761Y-66790476D01*
X119048809Y-66980952D02*
X119125000Y-66980952D01*
X119163095Y-66961904D01*
X119182142Y-66942857D01*
X119220238Y-66885714D01*
X119239285Y-66809523D01*
X119239285Y-66657142D01*
X119220238Y-66619047D01*
X119201190Y-66600000D01*
X119163095Y-66580952D01*
X119086904Y-66580952D01*
X119048809Y-66600000D01*
X119029761Y-66619047D01*
X119010714Y-66657142D01*
X119010714Y-66752380D01*
X119029761Y-66790476D01*
X119048809Y-66809523D01*
X119086904Y-66828571D01*
X119163095Y-66828571D01*
X119201190Y-66809523D01*
X119220238Y-66790476D01*
X119239285Y-66752380D01*
G04 #@! TO.C,C2*
X120942857Y-88166666D02*
X120961904Y-88185714D01*
X120980952Y-88242857D01*
X120980952Y-88280952D01*
X120961904Y-88338095D01*
X120923809Y-88376190D01*
X120885714Y-88395238D01*
X120809523Y-88414285D01*
X120752380Y-88414285D01*
X120676190Y-88395238D01*
X120638095Y-88376190D01*
X120600000Y-88338095D01*
X120580952Y-88280952D01*
X120580952Y-88242857D01*
X120600000Y-88185714D01*
X120619047Y-88166666D01*
X120619047Y-88014285D02*
X120600000Y-87995238D01*
X120580952Y-87957142D01*
X120580952Y-87861904D01*
X120600000Y-87823809D01*
X120619047Y-87804761D01*
X120657142Y-87785714D01*
X120695238Y-87785714D01*
X120752380Y-87804761D01*
X120980952Y-88033333D01*
X120980952Y-87785714D01*
G04 #@! TO.C,R16*
X118667857Y-71480952D02*
X118534523Y-71290476D01*
X118439285Y-71480952D02*
X118439285Y-71080952D01*
X118591666Y-71080952D01*
X118629761Y-71100000D01*
X118648809Y-71119047D01*
X118667857Y-71157142D01*
X118667857Y-71214285D01*
X118648809Y-71252380D01*
X118629761Y-71271428D01*
X118591666Y-71290476D01*
X118439285Y-71290476D01*
X119048809Y-71480952D02*
X118820238Y-71480952D01*
X118934523Y-71480952D02*
X118934523Y-71080952D01*
X118896428Y-71138095D01*
X118858333Y-71176190D01*
X118820238Y-71195238D01*
X119391666Y-71080952D02*
X119315476Y-71080952D01*
X119277380Y-71100000D01*
X119258333Y-71119047D01*
X119220238Y-71176190D01*
X119201190Y-71252380D01*
X119201190Y-71404761D01*
X119220238Y-71442857D01*
X119239285Y-71461904D01*
X119277380Y-71480952D01*
X119353571Y-71480952D01*
X119391666Y-71461904D01*
X119410714Y-71442857D01*
X119429761Y-71404761D01*
X119429761Y-71309523D01*
X119410714Y-71271428D01*
X119391666Y-71252380D01*
X119353571Y-71233333D01*
X119277380Y-71233333D01*
X119239285Y-71252380D01*
X119220238Y-71271428D01*
X119201190Y-71309523D01*
G04 #@! TO.C,C15*
X119292857Y-88357142D02*
X119311904Y-88376190D01*
X119330952Y-88433333D01*
X119330952Y-88471428D01*
X119311904Y-88528571D01*
X119273809Y-88566666D01*
X119235714Y-88585714D01*
X119159523Y-88604761D01*
X119102380Y-88604761D01*
X119026190Y-88585714D01*
X118988095Y-88566666D01*
X118950000Y-88528571D01*
X118930952Y-88471428D01*
X118930952Y-88433333D01*
X118950000Y-88376190D01*
X118969047Y-88357142D01*
X119330952Y-87976190D02*
X119330952Y-88204761D01*
X119330952Y-88090476D02*
X118930952Y-88090476D01*
X118988095Y-88128571D01*
X119026190Y-88166666D01*
X119045238Y-88204761D01*
X118930952Y-87614285D02*
X118930952Y-87804761D01*
X119121428Y-87823809D01*
X119102380Y-87804761D01*
X119083333Y-87766666D01*
X119083333Y-87671428D01*
X119102380Y-87633333D01*
X119121428Y-87614285D01*
X119159523Y-87595238D01*
X119254761Y-87595238D01*
X119292857Y-87614285D01*
X119311904Y-87633333D01*
X119330952Y-87671428D01*
X119330952Y-87766666D01*
X119311904Y-87804761D01*
X119292857Y-87823809D01*
D14*
G04 #@! TO.C,R4*
X131256666Y-89417619D02*
X131170000Y-89293809D01*
X131108095Y-89417619D02*
X131108095Y-89157619D01*
X131207142Y-89157619D01*
X131231904Y-89170000D01*
X131244285Y-89182380D01*
X131256666Y-89207142D01*
X131256666Y-89244285D01*
X131244285Y-89269047D01*
X131231904Y-89281428D01*
X131207142Y-89293809D01*
X131108095Y-89293809D01*
X131479523Y-89244285D02*
X131479523Y-89417619D01*
X131417619Y-89145238D02*
X131355714Y-89330952D01*
X131516666Y-89330952D01*
D11*
G04 #@! TO.C,R19*
X118667857Y-73780952D02*
X118534523Y-73590476D01*
X118439285Y-73780952D02*
X118439285Y-73380952D01*
X118591666Y-73380952D01*
X118629761Y-73400000D01*
X118648809Y-73419047D01*
X118667857Y-73457142D01*
X118667857Y-73514285D01*
X118648809Y-73552380D01*
X118629761Y-73571428D01*
X118591666Y-73590476D01*
X118439285Y-73590476D01*
X119048809Y-73780952D02*
X118820238Y-73780952D01*
X118934523Y-73780952D02*
X118934523Y-73380952D01*
X118896428Y-73438095D01*
X118858333Y-73476190D01*
X118820238Y-73495238D01*
X119239285Y-73780952D02*
X119315476Y-73780952D01*
X119353571Y-73761904D01*
X119372619Y-73742857D01*
X119410714Y-73685714D01*
X119429761Y-73609523D01*
X119429761Y-73457142D01*
X119410714Y-73419047D01*
X119391666Y-73400000D01*
X119353571Y-73380952D01*
X119277380Y-73380952D01*
X119239285Y-73400000D01*
X119220238Y-73419047D01*
X119201190Y-73457142D01*
X119201190Y-73552380D01*
X119220238Y-73590476D01*
X119239285Y-73609523D01*
X119277380Y-73628571D01*
X119353571Y-73628571D01*
X119391666Y-73609523D01*
X119410714Y-73590476D01*
X119429761Y-73552380D01*
G04 #@! TO.C,R5*
X127880952Y-94791666D02*
X127690476Y-94925000D01*
X127880952Y-95020238D02*
X127480952Y-95020238D01*
X127480952Y-94867857D01*
X127500000Y-94829761D01*
X127519047Y-94810714D01*
X127557142Y-94791666D01*
X127614285Y-94791666D01*
X127652380Y-94810714D01*
X127671428Y-94829761D01*
X127690476Y-94867857D01*
X127690476Y-95020238D01*
X127480952Y-94429761D02*
X127480952Y-94620238D01*
X127671428Y-94639285D01*
X127652380Y-94620238D01*
X127633333Y-94582142D01*
X127633333Y-94486904D01*
X127652380Y-94448809D01*
X127671428Y-94429761D01*
X127709523Y-94410714D01*
X127804761Y-94410714D01*
X127842857Y-94429761D01*
X127861904Y-94448809D01*
X127880952Y-94486904D01*
X127880952Y-94582142D01*
X127861904Y-94620238D01*
X127842857Y-94639285D01*
G04 #@! TO.C,R6*
X118858333Y-64780952D02*
X118725000Y-64590476D01*
X118629761Y-64780952D02*
X118629761Y-64380952D01*
X118782142Y-64380952D01*
X118820238Y-64400000D01*
X118839285Y-64419047D01*
X118858333Y-64457142D01*
X118858333Y-64514285D01*
X118839285Y-64552380D01*
X118820238Y-64571428D01*
X118782142Y-64590476D01*
X118629761Y-64590476D01*
X119201190Y-64380952D02*
X119125000Y-64380952D01*
X119086904Y-64400000D01*
X119067857Y-64419047D01*
X119029761Y-64476190D01*
X119010714Y-64552380D01*
X119010714Y-64704761D01*
X119029761Y-64742857D01*
X119048809Y-64761904D01*
X119086904Y-64780952D01*
X119163095Y-64780952D01*
X119201190Y-64761904D01*
X119220238Y-64742857D01*
X119239285Y-64704761D01*
X119239285Y-64609523D01*
X119220238Y-64571428D01*
X119201190Y-64552380D01*
X119163095Y-64533333D01*
X119086904Y-64533333D01*
X119048809Y-64552380D01*
X119029761Y-64571428D01*
X119010714Y-64609523D01*
D10*
G04 #@! TO.C,J7*
X109826666Y-63552380D02*
X109826666Y-64266666D01*
X109779047Y-64409523D01*
X109683809Y-64504761D01*
X109540952Y-64552380D01*
X109445714Y-64552380D01*
X110207619Y-63552380D02*
X110874285Y-63552380D01*
X110445714Y-64552380D01*
G04 #@! TO.C,J3*
X154052380Y-91373333D02*
X154766666Y-91373333D01*
X154909523Y-91420952D01*
X155004761Y-91516190D01*
X155052380Y-91659047D01*
X155052380Y-91754285D01*
X154052380Y-90992380D02*
X154052380Y-90373333D01*
X154433333Y-90706666D01*
X154433333Y-90563809D01*
X154480952Y-90468571D01*
X154528571Y-90420952D01*
X154623809Y-90373333D01*
X154861904Y-90373333D01*
X154957142Y-90420952D01*
X155004761Y-90468571D01*
X155052380Y-90563809D01*
X155052380Y-90849523D01*
X155004761Y-90944761D01*
X154957142Y-90992380D01*
D11*
G04 #@! TO.C,C1*
X117692857Y-88166666D02*
X117711904Y-88185714D01*
X117730952Y-88242857D01*
X117730952Y-88280952D01*
X117711904Y-88338095D01*
X117673809Y-88376190D01*
X117635714Y-88395238D01*
X117559523Y-88414285D01*
X117502380Y-88414285D01*
X117426190Y-88395238D01*
X117388095Y-88376190D01*
X117350000Y-88338095D01*
X117330952Y-88280952D01*
X117330952Y-88242857D01*
X117350000Y-88185714D01*
X117369047Y-88166666D01*
X117730952Y-87785714D02*
X117730952Y-88014285D01*
X117730952Y-87900000D02*
X117330952Y-87900000D01*
X117388095Y-87938095D01*
X117426190Y-87976190D01*
X117445238Y-88014285D01*
G04 #@! TO.C,R15*
X118667857Y-69280952D02*
X118534523Y-69090476D01*
X118439285Y-69280952D02*
X118439285Y-68880952D01*
X118591666Y-68880952D01*
X118629761Y-68900000D01*
X118648809Y-68919047D01*
X118667857Y-68957142D01*
X118667857Y-69014285D01*
X118648809Y-69052380D01*
X118629761Y-69071428D01*
X118591666Y-69090476D01*
X118439285Y-69090476D01*
X119048809Y-69280952D02*
X118820238Y-69280952D01*
X118934523Y-69280952D02*
X118934523Y-68880952D01*
X118896428Y-68938095D01*
X118858333Y-68976190D01*
X118820238Y-68995238D01*
X119410714Y-68880952D02*
X119220238Y-68880952D01*
X119201190Y-69071428D01*
X119220238Y-69052380D01*
X119258333Y-69033333D01*
X119353571Y-69033333D01*
X119391666Y-69052380D01*
X119410714Y-69071428D01*
X119429761Y-69109523D01*
X119429761Y-69204761D01*
X119410714Y-69242857D01*
X119391666Y-69261904D01*
X119353571Y-69280952D01*
X119258333Y-69280952D01*
X119220238Y-69261904D01*
X119201190Y-69242857D01*
G04 #@! TO.C,R2*
X149480952Y-82466666D02*
X149290476Y-82600000D01*
X149480952Y-82695238D02*
X149080952Y-82695238D01*
X149080952Y-82542857D01*
X149100000Y-82504761D01*
X149119047Y-82485714D01*
X149157142Y-82466666D01*
X149214285Y-82466666D01*
X149252380Y-82485714D01*
X149271428Y-82504761D01*
X149290476Y-82542857D01*
X149290476Y-82695238D01*
X149119047Y-82314285D02*
X149100000Y-82295238D01*
X149080952Y-82257142D01*
X149080952Y-82161904D01*
X149100000Y-82123809D01*
X149119047Y-82104761D01*
X149157142Y-82085714D01*
X149195238Y-82085714D01*
X149252380Y-82104761D01*
X149480952Y-82333333D01*
X149480952Y-82085714D01*
D15*
G04 #@! TO.C,C8*
X121151600Y-91249600D02*
X121151600Y-92849600D01*
X120351600Y-91249600D02*
X121151600Y-91249600D01*
X121151600Y-92849600D02*
X120351600Y-92849600D01*
X120351600Y-92849600D02*
X120351600Y-91249600D01*
G04 #@! TO.C,C9*
X119576800Y-91249600D02*
X119576800Y-92849600D01*
X118776800Y-92849600D02*
X118776800Y-91249600D01*
X118776800Y-91249600D02*
X119576800Y-91249600D01*
X119576800Y-92849600D02*
X118776800Y-92849600D01*
G04 #@! TO.C,C10*
X117951200Y-91249600D02*
X117951200Y-92849600D01*
X117151200Y-92849600D02*
X117151200Y-91249600D01*
X117151200Y-91249600D02*
X117951200Y-91249600D01*
X117951200Y-92849600D02*
X117151200Y-92849600D01*
G04 #@! TO.C,J6*
X105570000Y-78500000D02*
X112570000Y-78500000D01*
X93020000Y-78000000D02*
X93020000Y-72000000D01*
X97520000Y-78000000D02*
X96820000Y-72000000D01*
X95520000Y-78000000D02*
X94820000Y-72000000D01*
X105570000Y-78500000D02*
X105570000Y-71500000D01*
X99520000Y-78000000D02*
X98820000Y-72000000D01*
X93020000Y-78000000D02*
X104450000Y-78000000D01*
X104450000Y-78900000D02*
X105570000Y-78900000D01*
X105570000Y-71100000D02*
X104450000Y-71100000D01*
X102520000Y-78000000D02*
X101820000Y-72000000D01*
X101520000Y-78000000D02*
X100820000Y-72000000D01*
X93020000Y-72000000D02*
X104450000Y-72000000D01*
X112570000Y-78500000D02*
X112570000Y-71500000D01*
X98520000Y-78000000D02*
X97820000Y-72000000D01*
X100520000Y-78000000D02*
X99820000Y-72000000D01*
X105570000Y-78900000D02*
X105570000Y-71100000D01*
X96520000Y-78000000D02*
X95820000Y-72000000D01*
X104450000Y-71100000D02*
X104450000Y-78900000D01*
X103520000Y-78000000D02*
X102820000Y-72000000D01*
X105570000Y-71500000D02*
X112570000Y-71500000D01*
G04 #@! TO.C,J9*
X112522000Y-55880000D02*
X112522000Y-53340000D01*
X112522000Y-53340000D02*
X127127000Y-53340000D01*
X127762000Y-55880000D02*
X112522000Y-55880000D01*
X127127000Y-53340000D02*
X127762000Y-53975000D01*
X127762000Y-53975000D02*
X127762000Y-55880000D01*
G04 #@! TO.C,C6*
X109443200Y-89103000D02*
X109443200Y-85903000D01*
X109443200Y-85903000D02*
X111943200Y-85903000D01*
X111943200Y-89103000D02*
X109443200Y-89103000D01*
X111943200Y-85903000D02*
X111943200Y-89103000D01*
G04 #@! TO.C,C4*
X112745200Y-89103000D02*
X112745200Y-85903000D01*
X115245200Y-85903000D02*
X115245200Y-89103000D01*
X112745200Y-85903000D02*
X115245200Y-85903000D01*
X115245200Y-89103000D02*
X112745200Y-89103000D01*
G04 #@! TO.C,FID2*
X155305000Y-100330000D02*
G75*
G03*
X155305000Y-100330000I-1000000J0D01*
G01*
G04 #@! TO.C,J10*
X129667000Y-55245000D02*
X129667000Y-53340000D01*
X144907000Y-55880000D02*
X130302000Y-55880000D01*
X144907000Y-53340000D02*
X144907000Y-55880000D01*
X129667000Y-53340000D02*
X144907000Y-53340000D01*
X130302000Y-55880000D02*
X129667000Y-55245000D01*
G04 #@! TO.C,U2*
X125160001Y-89850004D02*
X127160001Y-89850004D01*
X125160001Y-90850004D02*
X125160001Y-89850004D01*
X127160001Y-89850004D02*
X127160001Y-91350004D01*
X127160001Y-91350004D02*
X125660001Y-91350004D01*
X125160001Y-90850004D02*
X125660001Y-91350004D01*
G04 #@! TO.C,R3*
X125635001Y-92952804D02*
X125635001Y-92412804D01*
X125635001Y-92412804D02*
X126685001Y-92412804D01*
X126685001Y-92952804D02*
X125635001Y-92952804D01*
X126685001Y-92412804D02*
X126685001Y-92952804D01*
G04 #@! TO.C,C12*
X128173001Y-90612804D02*
X128973001Y-90612804D01*
X128973001Y-90612804D02*
X128973001Y-92212804D01*
X128173001Y-92212804D02*
X128173001Y-90612804D01*
X128973001Y-92212804D02*
X128173001Y-92212804D01*
G04 #@! TO.C,JP1*
X114274600Y-91440000D02*
X116179600Y-91440000D01*
X113639600Y-92075000D02*
X114274600Y-91440000D01*
X116179600Y-99060000D02*
X113639600Y-99060000D01*
X113639600Y-99060000D02*
X113639600Y-92075000D01*
X116179600Y-91440000D02*
X116179600Y-99060000D01*
G04 #@! TO.C,C11*
X121151600Y-95288200D02*
X121151600Y-96888200D01*
X120351600Y-96888200D02*
X120351600Y-95288200D01*
X121151600Y-96888200D02*
X120351600Y-96888200D01*
X120351600Y-95288200D02*
X121151600Y-95288200D01*
G04 #@! TO.C,C13*
X119551400Y-95288200D02*
X119551400Y-96888200D01*
X119551400Y-96888200D02*
X118751400Y-96888200D01*
X118751400Y-96888200D02*
X118751400Y-95288200D01*
X118751400Y-95288200D02*
X119551400Y-95288200D01*
G04 #@! TO.C,C7*
X123397801Y-90612804D02*
X124197801Y-90612804D01*
X124197801Y-92212804D02*
X123397801Y-92212804D01*
X124197801Y-90612804D02*
X124197801Y-92212804D01*
X123397801Y-92212804D02*
X123397801Y-90612804D01*
G04 #@! TO.C,R12*
X112312500Y-81500000D02*
X112312500Y-83100000D01*
X111487500Y-81500000D02*
X112312500Y-81500000D01*
X111487500Y-83100000D02*
X111487500Y-81500000D01*
X112312500Y-83100000D02*
X111487500Y-83100000D01*
G04 #@! TO.C,C14*
X117176600Y-95288200D02*
X117976600Y-95288200D01*
X117976600Y-95288200D02*
X117976600Y-96888200D01*
X117976600Y-96888200D02*
X117176600Y-96888200D01*
X117176600Y-96888200D02*
X117176600Y-95288200D01*
G04 #@! TO.C,R13*
X119830000Y-76775000D02*
X120370000Y-76775000D01*
X119830000Y-77825000D02*
X119830000Y-76775000D01*
X120370000Y-76775000D02*
X120370000Y-77825000D01*
X120370000Y-77825000D02*
X119830000Y-77825000D01*
G04 #@! TO.C,R14*
X117230000Y-77825000D02*
X117230000Y-76775000D01*
X117770000Y-76775000D02*
X117770000Y-77825000D01*
X117770000Y-77825000D02*
X117230000Y-77825000D01*
X117230000Y-76775000D02*
X117770000Y-76775000D01*
G04 #@! TO.C,R17*
X146570000Y-74975000D02*
X146570000Y-76025000D01*
X146570000Y-76025000D02*
X146030000Y-76025000D01*
X146030000Y-76025000D02*
X146030000Y-74975000D01*
X146030000Y-74975000D02*
X146570000Y-74975000D01*
G04 #@! TO.C,R18*
X144970000Y-74975000D02*
X144970000Y-76025000D01*
X144430000Y-76025000D02*
X144430000Y-74975000D01*
X144970000Y-76025000D02*
X144430000Y-76025000D01*
X144430000Y-74975000D02*
X144970000Y-74975000D01*
G04 #@! TO.C,R10*
X118530000Y-77825000D02*
X118530000Y-76775000D01*
X119070000Y-76775000D02*
X119070000Y-77825000D01*
X119070000Y-77825000D02*
X118530000Y-77825000D01*
X118530000Y-76775000D02*
X119070000Y-76775000D01*
G04 #@! TO.C,R8*
X147770000Y-76025000D02*
X147230000Y-76025000D01*
X147230000Y-76025000D02*
X147230000Y-74975000D01*
X147230000Y-74975000D02*
X147770000Y-74975000D01*
X147770000Y-74975000D02*
X147770000Y-76025000D01*
G04 #@! TO.C,FID1*
X112300000Y-56300000D02*
G75*
G03*
X112300000Y-56300000I-1000000J0D01*
G01*
G04 #@! TO.C,J5*
X165800000Y-61800000D02*
X166500000Y-67800000D01*
X159800000Y-61800000D02*
X160500000Y-67800000D01*
X156750000Y-61300000D02*
X149750000Y-61300000D01*
X169300000Y-61800000D02*
X157870000Y-61800000D01*
X169300000Y-61800000D02*
X169300000Y-67800000D01*
X157870000Y-60900000D02*
X156750000Y-60900000D01*
X156750000Y-68300000D02*
X149750000Y-68300000D01*
X156750000Y-60900000D02*
X156750000Y-68700000D01*
X161800000Y-61800000D02*
X162500000Y-67800000D01*
X149750000Y-61300000D02*
X149750000Y-68300000D01*
X160800000Y-61800000D02*
X161500000Y-67800000D01*
X158800000Y-61800000D02*
X159500000Y-67800000D01*
X156750000Y-68700000D02*
X157870000Y-68700000D01*
X169300000Y-67800000D02*
X157870000Y-67800000D01*
X162800000Y-61800000D02*
X163500000Y-67800000D01*
X163800000Y-61800000D02*
X164500000Y-67800000D01*
X164800000Y-61800000D02*
X165500000Y-67800000D01*
X157870000Y-68700000D02*
X157870000Y-60900000D01*
X166800000Y-61800000D02*
X167500000Y-67800000D01*
X156750000Y-61300000D02*
X156750000Y-68300000D01*
G04 #@! TO.C,R11*
X114237500Y-83050000D02*
X114237500Y-81450000D01*
X115062500Y-81450000D02*
X115062500Y-83050000D01*
X114237500Y-81450000D02*
X115062500Y-81450000D01*
X115062500Y-83050000D02*
X114237500Y-83050000D01*
G04 #@! TO.C,J4*
X156750000Y-72500000D02*
X156750000Y-79500000D01*
X164800000Y-73000000D02*
X165500000Y-79000000D01*
X166800000Y-73000000D02*
X167500000Y-79000000D01*
X158800000Y-73000000D02*
X159500000Y-79000000D01*
X169300000Y-73000000D02*
X157870000Y-73000000D01*
X169300000Y-73000000D02*
X169300000Y-79000000D01*
X163800000Y-73000000D02*
X164500000Y-79000000D01*
X165800000Y-73000000D02*
X166500000Y-79000000D01*
X162800000Y-73000000D02*
X163500000Y-79000000D01*
X157870000Y-79900000D02*
X157870000Y-72100000D01*
X149750000Y-72500000D02*
X149750000Y-79500000D01*
X159800000Y-73000000D02*
X160500000Y-79000000D01*
X160800000Y-73000000D02*
X161500000Y-79000000D01*
X161800000Y-73000000D02*
X162500000Y-79000000D01*
X156750000Y-79500000D02*
X149750000Y-79500000D01*
X157870000Y-72100000D02*
X156750000Y-72100000D01*
X156750000Y-79900000D02*
X157870000Y-79900000D01*
X156750000Y-72500000D02*
X149750000Y-72500000D01*
X156750000Y-72100000D02*
X156750000Y-79900000D01*
X169300000Y-79000000D02*
X157870000Y-79000000D01*
G04 #@! TO.C,J2*
X115335000Y-67130000D02*
X115970000Y-67765000D01*
X105810000Y-69670000D02*
X105810000Y-67130000D01*
X115970000Y-67765000D02*
X115970000Y-69670000D01*
X115970000Y-69670000D02*
X105810000Y-69670000D01*
X105810000Y-67130000D02*
X115335000Y-67130000D01*
G04 #@! TO.C,R9*
X118125000Y-67212500D02*
X118125000Y-66387500D01*
X119725000Y-67212500D02*
X118125000Y-67212500D01*
X118125000Y-66387500D02*
X119725000Y-66387500D01*
X119725000Y-66387500D02*
X119725000Y-67212500D01*
G04 #@! TO.C,C2*
X121200000Y-88900000D02*
X120400000Y-88900000D01*
X120400000Y-88900000D02*
X120400000Y-87300000D01*
X121200000Y-87300000D02*
X121200000Y-88900000D01*
X120400000Y-87300000D02*
X121200000Y-87300000D01*
G04 #@! TO.C,R16*
X118125000Y-70887500D02*
X119725000Y-70887500D01*
X119725000Y-71712500D02*
X118125000Y-71712500D01*
X118125000Y-71712500D02*
X118125000Y-70887500D01*
X119725000Y-70887500D02*
X119725000Y-71712500D01*
G04 #@! TO.C,C15*
X119550000Y-88900000D02*
X118750000Y-88900000D01*
X118750000Y-88900000D02*
X118750000Y-87300000D01*
X119550000Y-87300000D02*
X119550000Y-88900000D01*
X118750000Y-87300000D02*
X119550000Y-87300000D01*
G04 #@! TO.C,R4*
X131825000Y-89030000D02*
X131825000Y-89570000D01*
X130775000Y-89570000D02*
X130775000Y-89030000D01*
X131825000Y-89570000D02*
X130775000Y-89570000D01*
X130775000Y-89030000D02*
X131825000Y-89030000D01*
G04 #@! TO.C,R19*
X118125000Y-73187500D02*
X119725000Y-73187500D01*
X119725000Y-74012500D02*
X118125000Y-74012500D01*
X119725000Y-73187500D02*
X119725000Y-74012500D01*
X118125000Y-74012500D02*
X118125000Y-73187500D01*
G04 #@! TO.C,R5*
X127287500Y-93925000D02*
X128112500Y-93925000D01*
X128112500Y-95525000D02*
X127287500Y-95525000D01*
X128112500Y-93925000D02*
X128112500Y-95525000D01*
X127287500Y-95525000D02*
X127287500Y-93925000D01*
G04 #@! TO.C,R6*
X119725000Y-64187500D02*
X119725000Y-65012500D01*
X118125000Y-65012500D02*
X118125000Y-64187500D01*
X118125000Y-64187500D02*
X119725000Y-64187500D01*
X119725000Y-65012500D02*
X118125000Y-65012500D01*
G04 #@! TO.C,J7*
X106350000Y-62830000D02*
X113335000Y-62830000D01*
X113970000Y-65370000D02*
X106350000Y-65370000D01*
X106350000Y-65370000D02*
X106350000Y-62830000D01*
X113335000Y-62830000D02*
X113970000Y-63465000D01*
X113970000Y-63465000D02*
X113970000Y-65370000D01*
G04 #@! TO.C,J3*
X153330000Y-97390000D02*
X153330000Y-85325000D01*
X153330000Y-85325000D02*
X153965000Y-84690000D01*
X155870000Y-84690000D02*
X155870000Y-97390000D01*
X153965000Y-84690000D02*
X155870000Y-84690000D01*
X155870000Y-97390000D02*
X153330000Y-97390000D01*
G04 #@! TO.C,C1*
X117950000Y-87300000D02*
X117950000Y-88900000D01*
X117950000Y-88900000D02*
X117150000Y-88900000D01*
X117150000Y-87300000D02*
X117950000Y-87300000D01*
X117150000Y-88900000D02*
X117150000Y-87300000D01*
G04 #@! TO.C,R15*
X118125000Y-69512500D02*
X118125000Y-68687500D01*
X118125000Y-68687500D02*
X119725000Y-68687500D01*
X119725000Y-68687500D02*
X119725000Y-69512500D01*
X119725000Y-69512500D02*
X118125000Y-69512500D01*
G04 #@! TO.C,R2*
X148887500Y-81600000D02*
X149712500Y-81600000D01*
X148887500Y-83200000D02*
X148887500Y-81600000D01*
X149712500Y-83200000D02*
X148887500Y-83200000D01*
X149712500Y-81600000D02*
X149712500Y-83200000D01*
G04 #@! TD*
M02*
