M48
; DRILL file {KiCad (6.0.10)} date Wed Feb  1 11:06:57 2023
; FORMAT={-:-/ absolute / inch / decimal}
; #@! TF.CreationDate,2023-02-01T11:06:57+01:00
; #@! TF.GenerationSoftware,Kicad,Pcbnew,(6.0.10)
; #@! TF.FileFunction,Plated,1,4,PTH
FMAT,2
INCH
; #@! TA.AperFunction,Plated,PTH,ViaDrill
T1C0.0059
; #@! TA.AperFunction,Plated,PTH,ComponentDrill
T2C0.0118
; #@! TA.AperFunction,Plated,PTH,ComponentDrill
T3C0.0394
; #@! TA.AperFunction,Plated,PTH,ComponentDrill
T4C0.0591
%
G90
G05
T1
X4.1849Y-4.066
X4.356Y-3.536
X4.486Y-3.536
X4.536Y-4.02
X4.536Y-4.045
X4.5433Y-3.2717
X4.56Y-4.02
X4.56Y-4.044
X4.5886Y-3.4409
X4.5886Y-3.4646
X4.5886Y-3.4902
X4.5943Y-2.599
X4.6139Y-2.8007
X4.6191Y-2.7116
X4.626Y-3.728
X4.626Y-3.678
X4.628Y-3.5217
X4.6301Y-2.8955
X4.6417Y-2.9921
X4.6693Y-3.1811
X4.6693Y-3.311
X4.6775Y-2.9924
X4.6909Y-3.5217
X4.691Y-3.728
X4.692Y-3.678
X4.7451Y-3.3185
X4.7462Y-2.9903
X4.754Y-3.678
X4.755Y-3.73
X4.7559Y-3.5217
X4.7835Y-2.9921
X4.7844Y-3.5935
X4.7855Y-3.8135
X4.7953Y-3.437
X4.8028Y-3.1099
X4.8041Y-3.5935
X4.808Y-3.813
X4.8189Y-3.437
X4.8739Y-3.6549
X4.9252Y-3.3583
X4.9349Y-3.6189
X4.9364Y-3.2907
X4.9779Y-3.5139
X5.0157Y-3.3976
X5.0236Y-3.2913
X5.0454Y-3.9876
X5.0512Y-4.0492
X5.0609Y-3.6539
X5.0689Y-3.7323
X5.0709Y-3.4882
X5.0846Y-4.0394
X5.092Y-3.3976
X5.0921Y-3.6496
X5.0984Y-3.7283
X5.1063Y-3.2795
X5.1142Y-4.0119
X5.1811Y-3.9331
X5.187Y-3.2677
X5.2355Y-3.9246
X5.25Y-3.2776
X5.2956Y-3.4492
X5.2997Y-3.3366
X5.3228Y-4.0472
X5.3312Y-3.3898
X5.3577Y-3.2927
X5.3802Y-3.2889
X5.3858Y-3.4724
X5.4154Y-3.2618
X5.4173Y-3.4961
X5.44Y-3.5518
X5.4414Y-3.5118
X5.4449Y-3.126
X5.4469Y-3.3425
X5.4641Y-3.5304
X5.4759Y-3.3937
X5.4807Y-3.2792
X5.5043Y-3.3028
X5.5079Y-3.9016
X5.5098Y-4.0217
X5.5315Y-3.3071
X5.5339Y-3.6067
X5.5591Y-3.3071
X5.5635Y-3.6133
X5.5866Y-3.4724
X5.5879Y-3.603
X5.5984Y-3.3189
X5.6063Y-3.5551
X5.626Y-3.6182
X5.6299Y-3.3701
X5.689Y-2.9094
X5.7047Y-3.9724
X5.7086Y-2.8858
X5.7283Y-2.8425
X5.752Y-2.8661
X5.7795Y-2.8701
X5.8823Y-3.2975
T2
X4.7402Y-3.2047
X4.7677Y-3.2323
X4.7953Y-3.2559
T3
X4.2157Y-2.6929
X4.237Y-2.5236
X4.3157Y-2.6929
X4.337Y-2.5236
X4.4157Y-2.6929
X4.437Y-2.5236
X4.48Y-2.15
X4.5157Y-2.6929
X4.524Y-3.65
X4.524Y-3.75
X4.524Y-3.85
X4.58Y-2.15
X4.68Y-2.15
X4.78Y-2.15
X4.88Y-2.15
X4.98Y-2.15
X5.155Y-2.15
X5.255Y-2.15
X5.355Y-2.15
X5.455Y-2.15
X5.555Y-2.15
X5.655Y-2.15
X6.0866Y-3.3843
X6.0866Y-3.4843
X6.0866Y-3.5843
X6.0866Y-3.6843
X6.0866Y-3.7843
T4
X4.2118Y-2.8528
X4.2118Y-3.0528
X4.3118Y-2.9528
X4.4118Y-2.8528
X4.4118Y-3.0528
X5.9157Y-2.4512
X5.9157Y-2.6512
X5.9157Y-2.8921
X5.9157Y-3.0921
X6.0157Y-2.5512
X6.0157Y-2.9921
X6.1157Y-2.4512
X6.1157Y-2.6512
X6.1157Y-2.8921
X6.1157Y-3.0921
T0
M30
