%TF.GenerationSoftware,KiCad,Pcbnew,(5.1.10)-1*%
%TF.CreationDate,2021-08-04T15:35:23+02:00*%
%TF.ProjectId,astropix_v2,61737472-6f70-4697-985f-76322e6b6963,1.0*%
%TF.SameCoordinates,Original*%
%TF.FileFunction,Copper,L4,Bot*%
%TF.FilePolarity,Positive*%
%FSLAX46Y46*%
G04 Gerber Fmt 4.6, Leading zero omitted, Abs format (unit mm)*
G04 Created by KiCad (PCBNEW (5.1.10)-1) date 2021-08-04 15:35:23*
%MOMM*%
%LPD*%
G01*
G04 APERTURE LIST*
%TA.AperFunction,ConnectorPad*%
%ADD10R,0.700000X4.300000*%
%TD*%
%TA.AperFunction,ConnectorPad*%
%ADD11R,0.700000X3.200000*%
%TD*%
%TA.AperFunction,ComponentPad*%
%ADD12C,0.600000*%
%TD*%
%TA.AperFunction,ComponentPad*%
%ADD13O,1.700000X1.700000*%
%TD*%
%TA.AperFunction,ComponentPad*%
%ADD14R,1.700000X1.700000*%
%TD*%
%TA.AperFunction,ComponentPad*%
%ADD15C,2.250000*%
%TD*%
%TA.AperFunction,ViaPad*%
%ADD16C,0.450000*%
%TD*%
%TA.AperFunction,Conductor*%
%ADD17C,0.125000*%
%TD*%
%TA.AperFunction,Conductor*%
%ADD18C,0.500000*%
%TD*%
%TA.AperFunction,Conductor*%
%ADD19C,0.254000*%
%TD*%
%TA.AperFunction,Conductor*%
%ADD20C,0.100000*%
%TD*%
%TA.AperFunction,Conductor*%
%ADD21C,0.025400*%
%TD*%
G04 APERTURE END LIST*
D10*
%TO.P,J1,A41*%
%TO.N,/spi_right_miso1*%
X148172000Y-105791000D03*
%TO.P,J1,A35*%
%TO.N,N/C*%
X142172000Y-105791000D03*
%TO.P,J1,A33*%
X140172000Y-105791000D03*
%TO.P,J1,A40*%
%TO.N,/spi_right_clk*%
X147172000Y-105791000D03*
%TO.P,J1,A36*%
%TO.N,N/C*%
X143172000Y-105791000D03*
%TO.P,J1,A38*%
X145172000Y-105791000D03*
%TO.P,J1,A39*%
X146172000Y-105791000D03*
%TO.P,J1,A37*%
X144172000Y-105791000D03*
%TO.P,J1,A34*%
X141172000Y-105791000D03*
%TO.P,J1,A19*%
%TO.N,/spi_left_miso0*%
X126172000Y-105791000D03*
%TO.P,J1,A26*%
%TO.N,N/C*%
X133172000Y-105791000D03*
D11*
%TO.P,J1,A1*%
%TO.N,-HV*%
X106172000Y-105241000D03*
D10*
%TO.P,J1,A3*%
%TO.N,N/C*%
X108172000Y-105791000D03*
%TO.P,J1,A22*%
%TO.N,/sr_out*%
X129172000Y-105791000D03*
%TO.P,J1,A4*%
%TO.N,N/C*%
X109172000Y-105791000D03*
%TO.P,J1,A32*%
X139172000Y-105791000D03*
%TO.P,J1,A25*%
%TO.N,/sr_ck2*%
X132172000Y-105791000D03*
%TO.P,J1,A31*%
%TO.N,N/C*%
X138172000Y-105791000D03*
%TO.P,J1,A28*%
%TO.N,/Inj*%
X135172000Y-105791000D03*
%TO.P,J1,A23*%
%TO.N,/sr_rb*%
X130172000Y-105791000D03*
%TO.P,J1,A30*%
%TO.N,N/C*%
X137172000Y-105791000D03*
%TO.P,J1,A29*%
X136172000Y-105791000D03*
%TO.P,J1,A24*%
%TO.N,/sr_ck1*%
X131172000Y-105791000D03*
%TO.P,J1,A20*%
%TO.N,/spi_left_mosi*%
X127172000Y-105791000D03*
%TO.P,J1,A21*%
%TO.N,N/C*%
X128172000Y-105791000D03*
%TO.P,J1,A27*%
X134172000Y-105791000D03*
%TO.P,J1,A17*%
%TO.N,/spi_left_clk*%
X124172000Y-105791000D03*
%TO.P,J1,A8*%
%TO.N,N/C*%
X113172000Y-105791000D03*
%TO.P,J1,A47*%
X154172000Y-105791000D03*
%TO.P,J1,A48*%
X155172000Y-105791000D03*
%TO.P,J1,A12*%
X119172000Y-105791000D03*
%TO.P,J1,A13*%
X120172000Y-105791000D03*
%TO.P,J1,A44*%
%TO.N,/spi_right_mosi*%
X151172000Y-105791000D03*
%TO.P,J1,A15*%
%TO.N,N/C*%
X122172000Y-105791000D03*
%TO.P,J1,A14*%
X121172000Y-105791000D03*
%TO.P,J1,A16*%
%TO.N,/spi_left_csn*%
X123172000Y-105791000D03*
%TO.P,J1,A43*%
%TO.N,/spi_right_csn*%
X150172000Y-105791000D03*
%TO.P,J1,A49*%
%TO.N,N/C*%
X156172000Y-105791000D03*
%TO.P,J1,A18*%
%TO.N,/spi_left_miso1*%
X125172000Y-105791000D03*
%TO.P,J1,A9*%
%TO.N,N/C*%
X114172000Y-105791000D03*
%TO.P,J1,A11*%
%TO.N,GND*%
X116172000Y-105791000D03*
%TO.P,J1,A45*%
%TO.N,N/C*%
X152172000Y-105791000D03*
%TO.P,J1,A5*%
X110172000Y-105791000D03*
%TO.P,J1,A6*%
X111172000Y-105791000D03*
%TO.P,J1,A7*%
X112172000Y-105791000D03*
%TO.P,J1,A10*%
X115172000Y-105791000D03*
%TO.P,J1,A46*%
X153172000Y-105791000D03*
%TO.P,J1,A42*%
%TO.N,/spi_right_miso0*%
X149172000Y-105791000D03*
%TD*%
D12*
%TO.P,U4,Ring1*%
%TO.N,GND*%
X122520000Y-77220000D03*
X134020000Y-77220000D03*
X122520000Y-65020000D03*
X134020000Y-65020000D03*
%TD*%
D13*
%TO.P,JP1,3*%
%TO.N,/POW4_in*%
X114909600Y-97790000D03*
%TO.P,JP1,2*%
%TO.N,VDD*%
X114909600Y-95250000D03*
D14*
%TO.P,JP1,1*%
%TO.N,/VDD18_in*%
X114909600Y-92710000D03*
%TD*%
D13*
%TO.P,J10,6*%
%TO.N,GND*%
X143637000Y-54610000D03*
%TO.P,J10,5*%
%TO.N,/spi_right_mosi*%
X141097000Y-54610000D03*
%TO.P,J10,4*%
%TO.N,/spi_right_csn*%
X138557000Y-54610000D03*
%TO.P,J10,3*%
%TO.N,/spi_right_miso0*%
X136017000Y-54610000D03*
%TO.P,J10,2*%
%TO.N,/spi_right_miso1*%
X133477000Y-54610000D03*
D14*
%TO.P,J10,1*%
%TO.N,/spi_right_clk*%
X130937000Y-54610000D03*
%TD*%
D13*
%TO.P,J9,6*%
%TO.N,GND*%
X113792000Y-54610000D03*
%TO.P,J9,5*%
%TO.N,/spi_left_csn*%
X116332000Y-54610000D03*
%TO.P,J9,4*%
%TO.N,/spi_left_clk*%
X118872000Y-54610000D03*
%TO.P,J9,3*%
%TO.N,/spi_left_miso1*%
X121412000Y-54610000D03*
%TO.P,J9,2*%
%TO.N,/spi_left_miso0*%
X123952000Y-54610000D03*
D14*
%TO.P,J9,1*%
%TO.N,/spi_left_mosi*%
X126492000Y-54610000D03*
%TD*%
D15*
%TO.P,J6,2*%
%TO.N,GND*%
X112395000Y-76327000D03*
X107315000Y-76327000D03*
X107315000Y-71247000D03*
X112395000Y-71247000D03*
%TO.P,J6,1*%
%TO.N,/HV_in_ext*%
X109855000Y-73787000D03*
%TD*%
%TO.P,J5,2*%
%TO.N,GND*%
X149860000Y-58420000D03*
X154940000Y-58420000D03*
X154940000Y-63500000D03*
X149860000Y-63500000D03*
%TO.P,J5,1*%
%TO.N,/sc_out*%
X152400000Y-60960000D03*
%TD*%
%TO.P,J4,2*%
%TO.N,GND*%
X149860000Y-71882000D03*
X154940000Y-71882000D03*
X154940000Y-76962000D03*
X149860000Y-76962000D03*
%TO.P,J4,1*%
%TO.N,Net-(J4-Pad1)*%
X152400000Y-74422000D03*
%TD*%
%TO.P,J3,2*%
%TO.N,GND*%
X149860000Y-86360000D03*
X154940000Y-86360000D03*
X154940000Y-91440000D03*
X149860000Y-91440000D03*
%TO.P,J3,1*%
%TO.N,Net-(J3-Pad1)*%
X152400000Y-88900000D03*
%TD*%
D16*
%TO.N,VDD*%
X128676400Y-77647800D03*
X126923800Y-77645000D03*
X118846600Y-82245200D03*
X123621800Y-82270606D03*
X121602198Y-91274600D03*
X122174010Y-91287600D03*
X129286000Y-93649798D03*
%TO.N,VDDA*%
X131438370Y-80070025D03*
X130511716Y-78787014D03*
X147269200Y-76911200D03*
X145415000Y-83947000D03*
X125095000Y-80010000D03*
X122123200Y-96850200D03*
X121551404Y-96863200D03*
%TO.N,suba*%
X131445000Y-74015600D03*
X125095000Y-74015600D03*
X128270000Y-74015600D03*
X131445000Y-71120000D03*
X128270000Y-71120000D03*
X125095000Y-71120000D03*
X131445000Y-67945000D03*
X128270000Y-67945000D03*
X125095000Y-67945000D03*
X114274600Y-84709000D03*
X133718300Y-78359000D03*
%TO.N,/res_n*%
X129381490Y-90754206D03*
X126187200Y-79349600D03*
%TO.N,/Inj*%
X129507436Y-77851000D03*
%TO.N,/DAC_vminuspix*%
X132156200Y-82321400D03*
X132384800Y-79857600D03*
%TO.N,/sr_ck1*%
X129050524Y-79221109D03*
%TO.N,GND*%
X147269200Y-79832200D03*
X142367000Y-86741000D03*
X142621000Y-83947000D03*
X147320000Y-85344000D03*
X113030000Y-92837000D03*
X120777000Y-94742000D03*
X117500400Y-93421200D03*
X119176800Y-93421200D03*
X120751600Y-93421200D03*
X121488200Y-81534000D03*
X115214400Y-102108000D03*
X115214400Y-102743000D03*
X115824000Y-102108000D03*
X115824000Y-102717600D03*
X117500388Y-94691200D03*
X113944400Y-89814398D03*
X110642400Y-89814400D03*
X120395996Y-84201000D03*
X123596400Y-85090006D03*
X123875800Y-80010004D03*
X131785620Y-77645014D03*
X118846600Y-85115400D03*
X119151402Y-94691200D03*
X112937990Y-96164400D03*
X142367000Y-78498694D03*
X131157489Y-81730881D03*
X130310139Y-81684664D03*
X127192846Y-81686398D03*
X129874775Y-78998077D03*
X128607447Y-81801912D03*
%TO.N,/sr_ck2*%
X128301510Y-84582000D03*
%TO.N,-HV*%
X106297030Y-103276400D03*
%TO.N,/spi_left_csn*%
X118491000Y-71882000D03*
%TO.N,/spi_left_clk*%
X118618000Y-74675996D03*
%TO.N,/spi_left_mosi*%
X121412000Y-74676000D03*
%TO.N,/spi_left_miso0*%
X120739311Y-71919689D03*
%TO.N,/spi_left_miso1*%
X119761000Y-71882000D03*
%TO.N,/spi_right_csn*%
X136857490Y-74523574D03*
%TO.N,/spi_right_clk*%
X135509000Y-71628000D03*
%TO.N,/spi_right_mosi*%
X137795000Y-71755000D03*
%TO.N,/spi_right_miso0*%
X136070000Y-74627402D03*
%TO.N,/spi_right_miso1*%
X135255000Y-74649590D03*
%TO.N,subd*%
X109347000Y-90932000D03*
X123571000Y-78020022D03*
%TO.N,/sr_rb*%
X128332510Y-82524600D03*
%TO.N,/sr_out*%
X128828800Y-79806800D03*
%TD*%
D17*
%TO.N,/res_n*%
X126746000Y-79908400D02*
X126187200Y-79349600D01*
X126746000Y-88118716D02*
X126746000Y-79908400D01*
X129381490Y-90754206D02*
X126746000Y-88118716D01*
%TO.N,/Inj*%
X135172000Y-88944000D02*
X129491312Y-83263312D01*
X129491312Y-83263312D02*
X129491312Y-79225116D01*
X135172000Y-105791000D02*
X135172000Y-88944000D01*
X129462274Y-77896162D02*
X129507436Y-77851000D01*
X129491312Y-79225116D02*
X129462274Y-79196078D01*
X129462274Y-79196078D02*
X129462274Y-77896162D01*
%TO.N,/DAC_vminuspix*%
X132156200Y-82321400D02*
X132156200Y-80086200D01*
X132156200Y-80086200D02*
X132384800Y-79857600D01*
D18*
%TO.N,GND*%
X116172000Y-102456000D02*
X115824000Y-102108000D01*
X116172000Y-105791000D02*
X116172000Y-102456000D01*
D17*
%TO.N,/sr_ck2*%
X132172000Y-105791000D02*
X132172000Y-88452490D01*
X132172000Y-88452490D02*
X128301510Y-84582000D01*
%TO.N,/sr_ck1*%
X127889000Y-84225496D02*
X129241301Y-82873195D01*
X127889000Y-84961782D02*
X127889000Y-84225496D01*
X129241301Y-82873195D02*
X129241301Y-79411886D01*
X131172000Y-88244782D02*
X127889000Y-84961782D01*
X129241301Y-79411886D02*
X129050524Y-79221109D01*
X131172000Y-105791000D02*
X131172000Y-88244782D01*
%TO.N,-HV*%
X106172000Y-105241000D02*
X106172000Y-103632000D01*
X106297030Y-103506970D02*
X106297030Y-103276400D01*
X106172000Y-103632000D02*
X106297030Y-103506970D01*
%TO.N,/spi_left_csn*%
X118139001Y-72233999D02*
X118491000Y-71882000D01*
X123172000Y-90481070D02*
X118139001Y-85448071D01*
X123172000Y-105791000D02*
X123172000Y-90481070D01*
X118139001Y-85448071D02*
X118139001Y-72233999D01*
%TO.N,/spi_left_clk*%
X124172000Y-105791000D02*
X124172000Y-91127502D01*
X118393001Y-85348503D02*
X118393001Y-74900995D01*
X118393001Y-74900995D02*
X118618000Y-74675996D01*
X124172000Y-91127502D02*
X118393001Y-85348503D01*
%TO.N,/spi_left_mosi*%
X121060001Y-84738001D02*
X121060001Y-75027999D01*
X127172000Y-90850000D02*
X121060001Y-84738001D01*
X127172000Y-105791000D02*
X127172000Y-90850000D01*
X121060001Y-75027999D02*
X121412000Y-74676000D01*
%TO.N,/spi_left_miso0*%
X126172000Y-105791000D02*
X126172000Y-90739000D01*
X126172000Y-90739000D02*
X119980498Y-84547498D01*
X119980498Y-84547498D02*
X119980498Y-72678502D01*
X119980498Y-72678502D02*
X120739311Y-71919689D01*
%TO.N,/spi_left_miso1*%
X119536001Y-72106999D02*
X119761000Y-71882000D01*
X125172000Y-105791000D02*
X125172000Y-90755000D01*
X125172000Y-90755000D02*
X119536001Y-85119001D01*
X119536001Y-85119001D02*
X119536001Y-72106999D01*
%TO.N,/spi_right_csn*%
X150172000Y-100360568D02*
X150172000Y-105791000D01*
X136857490Y-87046058D02*
X150172000Y-100360568D01*
X136857490Y-74523574D02*
X136857490Y-87046058D01*
%TO.N,/spi_right_clk*%
X134747000Y-73914000D02*
X135509000Y-73152000D01*
X135509000Y-73152000D02*
X135509000Y-71628000D01*
X134747000Y-86614000D02*
X134747000Y-73914000D01*
X147172000Y-99039000D02*
X134747000Y-86614000D01*
X147172000Y-105791000D02*
X147172000Y-99039000D01*
%TO.N,/spi_right_mosi*%
X137795000Y-87630000D02*
X137795000Y-71755000D01*
X150172000Y-100007000D02*
X137795000Y-87630000D01*
X151172000Y-101007000D02*
X151172000Y-105791000D01*
X150172000Y-100007000D02*
X151172000Y-101007000D01*
%TO.N,/spi_right_miso0*%
X136070000Y-86612136D02*
X144229178Y-94771314D01*
X136070000Y-74627402D02*
X136070000Y-86612136D01*
X149172000Y-99714136D02*
X149172000Y-105791000D01*
X144229178Y-94771314D02*
X149172000Y-99714136D01*
%TO.N,/spi_right_miso1*%
X143979167Y-94874871D02*
X135255000Y-86150704D01*
X135255000Y-86150704D02*
X135255000Y-74649590D01*
X148172000Y-99067704D02*
X143979167Y-94874871D01*
X148172000Y-105791000D02*
X148172000Y-99067704D01*
%TO.N,/sr_rb*%
X127468848Y-86879648D02*
X127468848Y-83388262D01*
X130172000Y-89582800D02*
X127468848Y-86879648D01*
X130172000Y-105791000D02*
X130172000Y-89582800D01*
X127468848Y-83388262D02*
X128332510Y-82524600D01*
%TO.N,/sr_out*%
X127692877Y-80942723D02*
X127692877Y-82772651D01*
X129794000Y-90373200D02*
X129794000Y-103369000D01*
X127218837Y-87798037D02*
X129794000Y-90373200D01*
X127218837Y-83246691D02*
X127218837Y-87798037D01*
X128828800Y-79806800D02*
X127692877Y-80942723D01*
X129794000Y-103369000D02*
X129172000Y-103991000D01*
X127692877Y-82772651D02*
X127218837Y-83246691D01*
X129172000Y-103991000D02*
X129172000Y-105791000D01*
%TD*%
D19*
%TO.N,GND*%
X116037000Y-102946200D02*
X114985800Y-102946200D01*
X114985800Y-101930200D01*
X116037000Y-101930200D01*
X116037000Y-102946200D01*
%TA.AperFunction,Conductor*%
D20*
G36*
X116037000Y-102946200D02*
G01*
X114985800Y-102946200D01*
X114985800Y-101930200D01*
X116037000Y-101930200D01*
X116037000Y-102946200D01*
G37*
%TD.AperFunction*%
%TD*%
D21*
%TO.N,/res_n*%
X126399755Y-79361660D02*
X126400219Y-79378454D01*
X126400285Y-79379443D01*
X126402997Y-79404994D01*
X126403147Y-79406013D01*
X126407845Y-79430863D01*
X126408084Y-79431891D01*
X126414767Y-79456040D01*
X126415095Y-79457057D01*
X126423763Y-79480503D01*
X126424174Y-79481486D01*
X126434827Y-79504231D01*
X126435310Y-79505161D01*
X126447949Y-79527205D01*
X126448491Y-79528067D01*
X126463116Y-79549409D01*
X126463698Y-79550192D01*
X126480307Y-79570832D01*
X126480913Y-79571532D01*
X126491144Y-79582502D01*
X126420102Y-79653544D01*
X126409132Y-79643313D01*
X126408432Y-79642707D01*
X126387792Y-79626098D01*
X126387009Y-79625516D01*
X126365667Y-79610891D01*
X126364805Y-79610349D01*
X126342761Y-79597710D01*
X126341831Y-79597227D01*
X126319086Y-79586574D01*
X126318103Y-79586163D01*
X126294657Y-79577495D01*
X126293640Y-79577167D01*
X126269491Y-79570484D01*
X126268463Y-79570245D01*
X126243613Y-79565547D01*
X126242594Y-79565397D01*
X126217043Y-79562685D01*
X126216054Y-79562619D01*
X126199260Y-79562155D01*
X126125630Y-79288030D01*
X126399755Y-79361660D01*
%TA.AperFunction,Conductor*%
D20*
G36*
X126399755Y-79361660D02*
G01*
X126400219Y-79378454D01*
X126400285Y-79379443D01*
X126402997Y-79404994D01*
X126403147Y-79406013D01*
X126407845Y-79430863D01*
X126408084Y-79431891D01*
X126414767Y-79456040D01*
X126415095Y-79457057D01*
X126423763Y-79480503D01*
X126424174Y-79481486D01*
X126434827Y-79504231D01*
X126435310Y-79505161D01*
X126447949Y-79527205D01*
X126448491Y-79528067D01*
X126463116Y-79549409D01*
X126463698Y-79550192D01*
X126480307Y-79570832D01*
X126480913Y-79571532D01*
X126491144Y-79582502D01*
X126420102Y-79653544D01*
X126409132Y-79643313D01*
X126408432Y-79642707D01*
X126387792Y-79626098D01*
X126387009Y-79625516D01*
X126365667Y-79610891D01*
X126364805Y-79610349D01*
X126342761Y-79597710D01*
X126341831Y-79597227D01*
X126319086Y-79586574D01*
X126318103Y-79586163D01*
X126294657Y-79577495D01*
X126293640Y-79577167D01*
X126269491Y-79570484D01*
X126268463Y-79570245D01*
X126243613Y-79565547D01*
X126242594Y-79565397D01*
X126217043Y-79562685D01*
X126216054Y-79562619D01*
X126199260Y-79562155D01*
X126125630Y-79288030D01*
X126399755Y-79361660D01*
G37*
%TD.AperFunction*%
%TD*%
D21*
%TO.N,/res_n*%
X129159557Y-90460492D02*
X129160257Y-90461098D01*
X129180897Y-90477707D01*
X129181680Y-90478289D01*
X129203022Y-90492914D01*
X129203884Y-90493456D01*
X129225928Y-90506095D01*
X129226858Y-90506578D01*
X129249603Y-90517231D01*
X129250586Y-90517642D01*
X129274032Y-90526310D01*
X129275049Y-90526638D01*
X129299198Y-90533321D01*
X129300226Y-90533560D01*
X129325076Y-90538258D01*
X129326095Y-90538408D01*
X129351646Y-90541120D01*
X129352634Y-90541186D01*
X129369430Y-90541651D01*
X129443060Y-90815776D01*
X129168935Y-90742146D01*
X129168470Y-90725350D01*
X129168404Y-90724362D01*
X129165692Y-90698811D01*
X129165542Y-90697792D01*
X129160844Y-90672942D01*
X129160605Y-90671914D01*
X129153922Y-90647765D01*
X129153594Y-90646748D01*
X129144926Y-90623302D01*
X129144515Y-90622319D01*
X129133862Y-90599574D01*
X129133379Y-90598644D01*
X129120740Y-90576600D01*
X129120198Y-90575738D01*
X129105573Y-90554396D01*
X129104991Y-90553613D01*
X129088382Y-90532973D01*
X129087776Y-90532273D01*
X129077546Y-90521304D01*
X129148588Y-90450262D01*
X129159557Y-90460492D01*
%TA.AperFunction,Conductor*%
D20*
G36*
X129159557Y-90460492D02*
G01*
X129160257Y-90461098D01*
X129180897Y-90477707D01*
X129181680Y-90478289D01*
X129203022Y-90492914D01*
X129203884Y-90493456D01*
X129225928Y-90506095D01*
X129226858Y-90506578D01*
X129249603Y-90517231D01*
X129250586Y-90517642D01*
X129274032Y-90526310D01*
X129275049Y-90526638D01*
X129299198Y-90533321D01*
X129300226Y-90533560D01*
X129325076Y-90538258D01*
X129326095Y-90538408D01*
X129351646Y-90541120D01*
X129352634Y-90541186D01*
X129369430Y-90541651D01*
X129443060Y-90815776D01*
X129168935Y-90742146D01*
X129168470Y-90725350D01*
X129168404Y-90724362D01*
X129165692Y-90698811D01*
X129165542Y-90697792D01*
X129160844Y-90672942D01*
X129160605Y-90671914D01*
X129153922Y-90647765D01*
X129153594Y-90646748D01*
X129144926Y-90623302D01*
X129144515Y-90622319D01*
X129133862Y-90599574D01*
X129133379Y-90598644D01*
X129120740Y-90576600D01*
X129120198Y-90575738D01*
X129105573Y-90554396D01*
X129104991Y-90553613D01*
X129088382Y-90532973D01*
X129087776Y-90532273D01*
X129077546Y-90521304D01*
X129148588Y-90450262D01*
X129159557Y-90460492D01*
G37*
%TD.AperFunction*%
%TD*%
D21*
%TO.N,/Inj*%
X129649204Y-78009821D02*
X129637215Y-78022476D01*
X129636615Y-78023156D01*
X129619110Y-78044496D01*
X129618589Y-78045178D01*
X129602081Y-78068329D01*
X129601634Y-78068999D01*
X129586123Y-78093961D01*
X129585745Y-78094611D01*
X129571230Y-78121384D01*
X129570914Y-78122007D01*
X129557396Y-78150591D01*
X129557134Y-78151184D01*
X129544613Y-78181580D01*
X129544398Y-78182138D01*
X129532874Y-78214344D01*
X129532700Y-78214868D01*
X129522172Y-78248885D01*
X129522031Y-78249375D01*
X129515011Y-78275769D01*
X129415463Y-78275769D01*
X129419825Y-78255285D01*
X129419978Y-78254425D01*
X129424806Y-78220408D01*
X129424907Y-78219420D01*
X129426931Y-78187214D01*
X129426952Y-78186092D01*
X129426173Y-78155696D01*
X129426078Y-78154442D01*
X129422496Y-78125858D01*
X129422249Y-78124491D01*
X129415864Y-78097718D01*
X129415428Y-78096277D01*
X129406239Y-78071315D01*
X129405598Y-78069861D01*
X129393606Y-78046710D01*
X129392766Y-78045315D01*
X129377971Y-78023975D01*
X129376969Y-78022709D01*
X129365546Y-78010033D01*
X129507436Y-77763926D01*
X129649204Y-78009821D01*
%TA.AperFunction,Conductor*%
D20*
G36*
X129649204Y-78009821D02*
G01*
X129637215Y-78022476D01*
X129636615Y-78023156D01*
X129619110Y-78044496D01*
X129618589Y-78045178D01*
X129602081Y-78068329D01*
X129601634Y-78068999D01*
X129586123Y-78093961D01*
X129585745Y-78094611D01*
X129571230Y-78121384D01*
X129570914Y-78122007D01*
X129557396Y-78150591D01*
X129557134Y-78151184D01*
X129544613Y-78181580D01*
X129544398Y-78182138D01*
X129532874Y-78214344D01*
X129532700Y-78214868D01*
X129522172Y-78248885D01*
X129522031Y-78249375D01*
X129515011Y-78275769D01*
X129415463Y-78275769D01*
X129419825Y-78255285D01*
X129419978Y-78254425D01*
X129424806Y-78220408D01*
X129424907Y-78219420D01*
X129426931Y-78187214D01*
X129426952Y-78186092D01*
X129426173Y-78155696D01*
X129426078Y-78154442D01*
X129422496Y-78125858D01*
X129422249Y-78124491D01*
X129415864Y-78097718D01*
X129415428Y-78096277D01*
X129406239Y-78071315D01*
X129405598Y-78069861D01*
X129393606Y-78046710D01*
X129392766Y-78045315D01*
X129377971Y-78023975D01*
X129376969Y-78022709D01*
X129365546Y-78010033D01*
X129507436Y-77763926D01*
X129649204Y-78009821D01*
G37*
%TD.AperFunction*%
%TD*%
D21*
%TO.N,/DAC_vminuspix*%
X132206958Y-81956783D02*
X132207024Y-81957706D01*
X132209874Y-81984046D01*
X132210016Y-81985012D01*
X132214766Y-82010444D01*
X132214993Y-82011436D01*
X132221643Y-82035960D01*
X132221959Y-82036959D01*
X132230509Y-82060575D01*
X132230913Y-82061561D01*
X132241363Y-82084270D01*
X132241850Y-82085221D01*
X132254200Y-82107022D01*
X132254758Y-82107918D01*
X132269008Y-82128811D01*
X132269622Y-82129637D01*
X132285772Y-82149622D01*
X132286425Y-82150368D01*
X132297972Y-82162572D01*
X132156200Y-82408474D01*
X132014428Y-82162572D01*
X132025975Y-82150368D01*
X132026628Y-82149622D01*
X132042778Y-82129637D01*
X132043392Y-82128811D01*
X132057642Y-82107918D01*
X132058200Y-82107022D01*
X132070550Y-82085221D01*
X132071037Y-82084270D01*
X132081487Y-82061561D01*
X132081891Y-82060575D01*
X132090441Y-82036959D01*
X132090757Y-82035960D01*
X132097407Y-82011436D01*
X132097634Y-82010444D01*
X132102384Y-81985012D01*
X132102526Y-81984046D01*
X132105376Y-81957706D01*
X132105442Y-81956783D01*
X132105965Y-81941793D01*
X132206435Y-81941793D01*
X132206958Y-81956783D01*
%TA.AperFunction,Conductor*%
D20*
G36*
X132206958Y-81956783D02*
G01*
X132207024Y-81957706D01*
X132209874Y-81984046D01*
X132210016Y-81985012D01*
X132214766Y-82010444D01*
X132214993Y-82011436D01*
X132221643Y-82035960D01*
X132221959Y-82036959D01*
X132230509Y-82060575D01*
X132230913Y-82061561D01*
X132241363Y-82084270D01*
X132241850Y-82085221D01*
X132254200Y-82107022D01*
X132254758Y-82107918D01*
X132269008Y-82128811D01*
X132269622Y-82129637D01*
X132285772Y-82149622D01*
X132286425Y-82150368D01*
X132297972Y-82162572D01*
X132156200Y-82408474D01*
X132014428Y-82162572D01*
X132025975Y-82150368D01*
X132026628Y-82149622D01*
X132042778Y-82129637D01*
X132043392Y-82128811D01*
X132057642Y-82107918D01*
X132058200Y-82107022D01*
X132070550Y-82085221D01*
X132071037Y-82084270D01*
X132081487Y-82061561D01*
X132081891Y-82060575D01*
X132090441Y-82036959D01*
X132090757Y-82035960D01*
X132097407Y-82011436D01*
X132097634Y-82010444D01*
X132102384Y-81985012D01*
X132102526Y-81984046D01*
X132105376Y-81957706D01*
X132105442Y-81956783D01*
X132105965Y-81941793D01*
X132206435Y-81941793D01*
X132206958Y-81956783D01*
G37*
%TD.AperFunction*%
%TD*%
D21*
%TO.N,/DAC_vminuspix*%
X132372787Y-80069978D02*
X132356667Y-80070127D01*
X132356127Y-80070143D01*
X132332040Y-80071391D01*
X132331424Y-80071438D01*
X132309014Y-80073695D01*
X132308310Y-80073786D01*
X132287578Y-80077053D01*
X132286774Y-80077206D01*
X132267720Y-80081482D01*
X132266806Y-80081724D01*
X132249429Y-80087009D01*
X132248397Y-80087371D01*
X132232698Y-80093666D01*
X132231558Y-80094191D01*
X132217537Y-80101495D01*
X132216310Y-80102224D01*
X132203966Y-80110537D01*
X132202701Y-80111509D01*
X132200977Y-80113016D01*
X132129383Y-80041422D01*
X132130890Y-80039697D01*
X132131862Y-80038433D01*
X132140175Y-80026089D01*
X132140904Y-80024862D01*
X132148208Y-80010841D01*
X132148733Y-80009701D01*
X132155028Y-79994002D01*
X132155390Y-79992970D01*
X132160675Y-79975593D01*
X132160917Y-79974679D01*
X132165193Y-79955625D01*
X132165346Y-79954821D01*
X132168613Y-79934089D01*
X132168704Y-79933385D01*
X132170961Y-79910975D01*
X132171008Y-79910359D01*
X132172256Y-79886272D01*
X132172272Y-79885733D01*
X132172422Y-79869613D01*
X132446370Y-79796030D01*
X132372787Y-80069978D01*
%TA.AperFunction,Conductor*%
D20*
G36*
X132372787Y-80069978D02*
G01*
X132356667Y-80070127D01*
X132356127Y-80070143D01*
X132332040Y-80071391D01*
X132331424Y-80071438D01*
X132309014Y-80073695D01*
X132308310Y-80073786D01*
X132287578Y-80077053D01*
X132286774Y-80077206D01*
X132267720Y-80081482D01*
X132266806Y-80081724D01*
X132249429Y-80087009D01*
X132248397Y-80087371D01*
X132232698Y-80093666D01*
X132231558Y-80094191D01*
X132217537Y-80101495D01*
X132216310Y-80102224D01*
X132203966Y-80110537D01*
X132202701Y-80111509D01*
X132200977Y-80113016D01*
X132129383Y-80041422D01*
X132130890Y-80039697D01*
X132131862Y-80038433D01*
X132140175Y-80026089D01*
X132140904Y-80024862D01*
X132148208Y-80010841D01*
X132148733Y-80009701D01*
X132155028Y-79994002D01*
X132155390Y-79992970D01*
X132160675Y-79975593D01*
X132160917Y-79974679D01*
X132165193Y-79955625D01*
X132165346Y-79954821D01*
X132168613Y-79934089D01*
X132168704Y-79933385D01*
X132170961Y-79910975D01*
X132171008Y-79910359D01*
X132172256Y-79886272D01*
X132172272Y-79885733D01*
X132172422Y-79869613D01*
X132446370Y-79796030D01*
X132372787Y-80069978D01*
G37*
%TD.AperFunction*%
%TD*%
D21*
%TO.N,/sr_ck2*%
X128514065Y-84594060D02*
X128514529Y-84610854D01*
X128514595Y-84611843D01*
X128517307Y-84637394D01*
X128517457Y-84638413D01*
X128522155Y-84663263D01*
X128522394Y-84664291D01*
X128529077Y-84688440D01*
X128529405Y-84689457D01*
X128538073Y-84712903D01*
X128538484Y-84713886D01*
X128549137Y-84736631D01*
X128549620Y-84737561D01*
X128562259Y-84759605D01*
X128562801Y-84760467D01*
X128577426Y-84781809D01*
X128578008Y-84782592D01*
X128594617Y-84803232D01*
X128595223Y-84803932D01*
X128605454Y-84814902D01*
X128534412Y-84885944D01*
X128523442Y-84875713D01*
X128522742Y-84875107D01*
X128502102Y-84858498D01*
X128501319Y-84857916D01*
X128479977Y-84843291D01*
X128479115Y-84842749D01*
X128457071Y-84830110D01*
X128456141Y-84829627D01*
X128433396Y-84818974D01*
X128432413Y-84818563D01*
X128408967Y-84809895D01*
X128407950Y-84809567D01*
X128383801Y-84802884D01*
X128382773Y-84802645D01*
X128357923Y-84797947D01*
X128356904Y-84797797D01*
X128331353Y-84795085D01*
X128330364Y-84795019D01*
X128313570Y-84794555D01*
X128239940Y-84520430D01*
X128514065Y-84594060D01*
%TA.AperFunction,Conductor*%
D20*
G36*
X128514065Y-84594060D02*
G01*
X128514529Y-84610854D01*
X128514595Y-84611843D01*
X128517307Y-84637394D01*
X128517457Y-84638413D01*
X128522155Y-84663263D01*
X128522394Y-84664291D01*
X128529077Y-84688440D01*
X128529405Y-84689457D01*
X128538073Y-84712903D01*
X128538484Y-84713886D01*
X128549137Y-84736631D01*
X128549620Y-84737561D01*
X128562259Y-84759605D01*
X128562801Y-84760467D01*
X128577426Y-84781809D01*
X128578008Y-84782592D01*
X128594617Y-84803232D01*
X128595223Y-84803932D01*
X128605454Y-84814902D01*
X128534412Y-84885944D01*
X128523442Y-84875713D01*
X128522742Y-84875107D01*
X128502102Y-84858498D01*
X128501319Y-84857916D01*
X128479977Y-84843291D01*
X128479115Y-84842749D01*
X128457071Y-84830110D01*
X128456141Y-84829627D01*
X128433396Y-84818974D01*
X128432413Y-84818563D01*
X128408967Y-84809895D01*
X128407950Y-84809567D01*
X128383801Y-84802884D01*
X128382773Y-84802645D01*
X128357923Y-84797947D01*
X128356904Y-84797797D01*
X128331353Y-84795085D01*
X128330364Y-84795019D01*
X128313570Y-84794555D01*
X128239940Y-84520430D01*
X128514065Y-84594060D01*
G37*
%TD.AperFunction*%
%TD*%
D21*
%TO.N,/spi_left_csn*%
X118478940Y-72094555D02*
X118462145Y-72095019D01*
X118461156Y-72095085D01*
X118435605Y-72097797D01*
X118434586Y-72097947D01*
X118409736Y-72102645D01*
X118408708Y-72102884D01*
X118384559Y-72109567D01*
X118383542Y-72109895D01*
X118360096Y-72118563D01*
X118359113Y-72118974D01*
X118336368Y-72129627D01*
X118335438Y-72130110D01*
X118313394Y-72142749D01*
X118312532Y-72143291D01*
X118291190Y-72157916D01*
X118290407Y-72158498D01*
X118269767Y-72175107D01*
X118269067Y-72175714D01*
X118258098Y-72185944D01*
X118187056Y-72114902D01*
X118197286Y-72103932D01*
X118197892Y-72103232D01*
X118214501Y-72082592D01*
X118215083Y-72081809D01*
X118229708Y-72060467D01*
X118230250Y-72059605D01*
X118242889Y-72037561D01*
X118243372Y-72036631D01*
X118254025Y-72013886D01*
X118254436Y-72012903D01*
X118263104Y-71989457D01*
X118263432Y-71988440D01*
X118270115Y-71964291D01*
X118270354Y-71963263D01*
X118275052Y-71938413D01*
X118275202Y-71937394D01*
X118277914Y-71911843D01*
X118277980Y-71910855D01*
X118278445Y-71894060D01*
X118552570Y-71820430D01*
X118478940Y-72094555D01*
%TA.AperFunction,Conductor*%
D20*
G36*
X118478940Y-72094555D02*
G01*
X118462145Y-72095019D01*
X118461156Y-72095085D01*
X118435605Y-72097797D01*
X118434586Y-72097947D01*
X118409736Y-72102645D01*
X118408708Y-72102884D01*
X118384559Y-72109567D01*
X118383542Y-72109895D01*
X118360096Y-72118563D01*
X118359113Y-72118974D01*
X118336368Y-72129627D01*
X118335438Y-72130110D01*
X118313394Y-72142749D01*
X118312532Y-72143291D01*
X118291190Y-72157916D01*
X118290407Y-72158498D01*
X118269767Y-72175107D01*
X118269067Y-72175714D01*
X118258098Y-72185944D01*
X118187056Y-72114902D01*
X118197286Y-72103932D01*
X118197892Y-72103232D01*
X118214501Y-72082592D01*
X118215083Y-72081809D01*
X118229708Y-72060467D01*
X118230250Y-72059605D01*
X118242889Y-72037561D01*
X118243372Y-72036631D01*
X118254025Y-72013886D01*
X118254436Y-72012903D01*
X118263104Y-71989457D01*
X118263432Y-71988440D01*
X118270115Y-71964291D01*
X118270354Y-71963263D01*
X118275052Y-71938413D01*
X118275202Y-71937394D01*
X118277914Y-71911843D01*
X118277980Y-71910855D01*
X118278445Y-71894060D01*
X118552570Y-71820430D01*
X118478940Y-72094555D01*
G37*
%TD.AperFunction*%
%TD*%
D21*
%TO.N,/spi_left_clk*%
X118605991Y-74888360D02*
X118589920Y-74888486D01*
X118589417Y-74888500D01*
X118565438Y-74889640D01*
X118564860Y-74889681D01*
X118542630Y-74891758D01*
X118541961Y-74891838D01*
X118521481Y-74894853D01*
X118520709Y-74894992D01*
X118501979Y-74898944D01*
X118501087Y-74899166D01*
X118484106Y-74904055D01*
X118483082Y-74904397D01*
X118467852Y-74910223D01*
X118466695Y-74910734D01*
X118453214Y-74917498D01*
X118451940Y-74918232D01*
X118440208Y-74925933D01*
X118438866Y-74926947D01*
X118437820Y-74927853D01*
X118366142Y-74856175D01*
X118367048Y-74855128D01*
X118368062Y-74853787D01*
X118375763Y-74842055D01*
X118376497Y-74840781D01*
X118383261Y-74827300D01*
X118383772Y-74826143D01*
X118389598Y-74810913D01*
X118389940Y-74809889D01*
X118394829Y-74792908D01*
X118395051Y-74792016D01*
X118399003Y-74773286D01*
X118399142Y-74772514D01*
X118402157Y-74752034D01*
X118402237Y-74751365D01*
X118404314Y-74729135D01*
X118404355Y-74728557D01*
X118405495Y-74704578D01*
X118405509Y-74704075D01*
X118405636Y-74688005D01*
X118679570Y-74614426D01*
X118605991Y-74888360D01*
%TA.AperFunction,Conductor*%
D20*
G36*
X118605991Y-74888360D02*
G01*
X118589920Y-74888486D01*
X118589417Y-74888500D01*
X118565438Y-74889640D01*
X118564860Y-74889681D01*
X118542630Y-74891758D01*
X118541961Y-74891838D01*
X118521481Y-74894853D01*
X118520709Y-74894992D01*
X118501979Y-74898944D01*
X118501087Y-74899166D01*
X118484106Y-74904055D01*
X118483082Y-74904397D01*
X118467852Y-74910223D01*
X118466695Y-74910734D01*
X118453214Y-74917498D01*
X118451940Y-74918232D01*
X118440208Y-74925933D01*
X118438866Y-74926947D01*
X118437820Y-74927853D01*
X118366142Y-74856175D01*
X118367048Y-74855128D01*
X118368062Y-74853787D01*
X118375763Y-74842055D01*
X118376497Y-74840781D01*
X118383261Y-74827300D01*
X118383772Y-74826143D01*
X118389598Y-74810913D01*
X118389940Y-74809889D01*
X118394829Y-74792908D01*
X118395051Y-74792016D01*
X118399003Y-74773286D01*
X118399142Y-74772514D01*
X118402157Y-74752034D01*
X118402237Y-74751365D01*
X118404314Y-74729135D01*
X118404355Y-74728557D01*
X118405495Y-74704578D01*
X118405509Y-74704075D01*
X118405636Y-74688005D01*
X118679570Y-74614426D01*
X118605991Y-74888360D01*
G37*
%TD.AperFunction*%
%TD*%
D21*
%TO.N,/spi_left_mosi*%
X121399940Y-74888555D02*
X121383145Y-74889019D01*
X121382156Y-74889085D01*
X121356605Y-74891797D01*
X121355586Y-74891947D01*
X121330736Y-74896645D01*
X121329708Y-74896884D01*
X121305559Y-74903567D01*
X121304542Y-74903895D01*
X121281096Y-74912563D01*
X121280113Y-74912974D01*
X121257368Y-74923627D01*
X121256438Y-74924110D01*
X121234394Y-74936749D01*
X121233532Y-74937291D01*
X121212190Y-74951916D01*
X121211407Y-74952498D01*
X121190767Y-74969107D01*
X121190067Y-74969714D01*
X121179098Y-74979944D01*
X121108056Y-74908902D01*
X121118286Y-74897932D01*
X121118892Y-74897232D01*
X121135501Y-74876592D01*
X121136083Y-74875809D01*
X121150708Y-74854467D01*
X121151250Y-74853605D01*
X121163889Y-74831561D01*
X121164372Y-74830631D01*
X121175025Y-74807886D01*
X121175436Y-74806903D01*
X121184104Y-74783457D01*
X121184432Y-74782440D01*
X121191115Y-74758291D01*
X121191354Y-74757263D01*
X121196052Y-74732413D01*
X121196202Y-74731394D01*
X121198914Y-74705843D01*
X121198980Y-74704855D01*
X121199445Y-74688060D01*
X121473570Y-74614430D01*
X121399940Y-74888555D01*
%TA.AperFunction,Conductor*%
D20*
G36*
X121399940Y-74888555D02*
G01*
X121383145Y-74889019D01*
X121382156Y-74889085D01*
X121356605Y-74891797D01*
X121355586Y-74891947D01*
X121330736Y-74896645D01*
X121329708Y-74896884D01*
X121305559Y-74903567D01*
X121304542Y-74903895D01*
X121281096Y-74912563D01*
X121280113Y-74912974D01*
X121257368Y-74923627D01*
X121256438Y-74924110D01*
X121234394Y-74936749D01*
X121233532Y-74937291D01*
X121212190Y-74951916D01*
X121211407Y-74952498D01*
X121190767Y-74969107D01*
X121190067Y-74969714D01*
X121179098Y-74979944D01*
X121108056Y-74908902D01*
X121118286Y-74897932D01*
X121118892Y-74897232D01*
X121135501Y-74876592D01*
X121136083Y-74875809D01*
X121150708Y-74854467D01*
X121151250Y-74853605D01*
X121163889Y-74831561D01*
X121164372Y-74830631D01*
X121175025Y-74807886D01*
X121175436Y-74806903D01*
X121184104Y-74783457D01*
X121184432Y-74782440D01*
X121191115Y-74758291D01*
X121191354Y-74757263D01*
X121196052Y-74732413D01*
X121196202Y-74731394D01*
X121198914Y-74705843D01*
X121198980Y-74704855D01*
X121199445Y-74688060D01*
X121473570Y-74614430D01*
X121399940Y-74888555D01*
G37*
%TD.AperFunction*%
%TD*%
D21*
%TO.N,/spi_left_miso0*%
X120727251Y-72132244D02*
X120710456Y-72132708D01*
X120709467Y-72132774D01*
X120683916Y-72135486D01*
X120682897Y-72135636D01*
X120658047Y-72140334D01*
X120657019Y-72140573D01*
X120632870Y-72147256D01*
X120631853Y-72147584D01*
X120608407Y-72156252D01*
X120607424Y-72156663D01*
X120584679Y-72167316D01*
X120583749Y-72167799D01*
X120561705Y-72180438D01*
X120560843Y-72180980D01*
X120539501Y-72195605D01*
X120538718Y-72196187D01*
X120518078Y-72212796D01*
X120517378Y-72213403D01*
X120506409Y-72223633D01*
X120435367Y-72152591D01*
X120445597Y-72141621D01*
X120446203Y-72140921D01*
X120462812Y-72120281D01*
X120463394Y-72119498D01*
X120478019Y-72098156D01*
X120478561Y-72097294D01*
X120491200Y-72075250D01*
X120491683Y-72074320D01*
X120502336Y-72051575D01*
X120502747Y-72050592D01*
X120511415Y-72027146D01*
X120511743Y-72026129D01*
X120518426Y-72001980D01*
X120518665Y-72000952D01*
X120523363Y-71976102D01*
X120523513Y-71975083D01*
X120526225Y-71949532D01*
X120526291Y-71948544D01*
X120526756Y-71931749D01*
X120800881Y-71858119D01*
X120727251Y-72132244D01*
%TA.AperFunction,Conductor*%
D20*
G36*
X120727251Y-72132244D02*
G01*
X120710456Y-72132708D01*
X120709467Y-72132774D01*
X120683916Y-72135486D01*
X120682897Y-72135636D01*
X120658047Y-72140334D01*
X120657019Y-72140573D01*
X120632870Y-72147256D01*
X120631853Y-72147584D01*
X120608407Y-72156252D01*
X120607424Y-72156663D01*
X120584679Y-72167316D01*
X120583749Y-72167799D01*
X120561705Y-72180438D01*
X120560843Y-72180980D01*
X120539501Y-72195605D01*
X120538718Y-72196187D01*
X120518078Y-72212796D01*
X120517378Y-72213403D01*
X120506409Y-72223633D01*
X120435367Y-72152591D01*
X120445597Y-72141621D01*
X120446203Y-72140921D01*
X120462812Y-72120281D01*
X120463394Y-72119498D01*
X120478019Y-72098156D01*
X120478561Y-72097294D01*
X120491200Y-72075250D01*
X120491683Y-72074320D01*
X120502336Y-72051575D01*
X120502747Y-72050592D01*
X120511415Y-72027146D01*
X120511743Y-72026129D01*
X120518426Y-72001980D01*
X120518665Y-72000952D01*
X120523363Y-71976102D01*
X120523513Y-71975083D01*
X120526225Y-71949532D01*
X120526291Y-71948544D01*
X120526756Y-71931749D01*
X120800881Y-71858119D01*
X120727251Y-72132244D01*
G37*
%TD.AperFunction*%
%TD*%
D21*
%TO.N,/spi_left_miso1*%
X119748991Y-72094364D02*
X119732920Y-72094490D01*
X119732417Y-72094504D01*
X119708438Y-72095644D01*
X119707860Y-72095685D01*
X119685630Y-72097762D01*
X119684961Y-72097842D01*
X119664481Y-72100857D01*
X119663709Y-72100996D01*
X119644979Y-72104948D01*
X119644087Y-72105170D01*
X119627106Y-72110059D01*
X119626082Y-72110401D01*
X119610852Y-72116227D01*
X119609695Y-72116738D01*
X119596214Y-72123502D01*
X119594940Y-72124236D01*
X119583208Y-72131937D01*
X119581866Y-72132951D01*
X119580820Y-72133857D01*
X119509142Y-72062179D01*
X119510048Y-72061132D01*
X119511062Y-72059791D01*
X119518763Y-72048059D01*
X119519497Y-72046785D01*
X119526261Y-72033304D01*
X119526772Y-72032147D01*
X119532598Y-72016917D01*
X119532940Y-72015893D01*
X119537829Y-71998912D01*
X119538051Y-71998020D01*
X119542003Y-71979290D01*
X119542142Y-71978518D01*
X119545157Y-71958038D01*
X119545237Y-71957369D01*
X119547314Y-71935139D01*
X119547355Y-71934561D01*
X119548495Y-71910582D01*
X119548509Y-71910079D01*
X119548636Y-71894009D01*
X119822570Y-71820430D01*
X119748991Y-72094364D01*
%TA.AperFunction,Conductor*%
D20*
G36*
X119748991Y-72094364D02*
G01*
X119732920Y-72094490D01*
X119732417Y-72094504D01*
X119708438Y-72095644D01*
X119707860Y-72095685D01*
X119685630Y-72097762D01*
X119684961Y-72097842D01*
X119664481Y-72100857D01*
X119663709Y-72100996D01*
X119644979Y-72104948D01*
X119644087Y-72105170D01*
X119627106Y-72110059D01*
X119626082Y-72110401D01*
X119610852Y-72116227D01*
X119609695Y-72116738D01*
X119596214Y-72123502D01*
X119594940Y-72124236D01*
X119583208Y-72131937D01*
X119581866Y-72132951D01*
X119580820Y-72133857D01*
X119509142Y-72062179D01*
X119510048Y-72061132D01*
X119511062Y-72059791D01*
X119518763Y-72048059D01*
X119519497Y-72046785D01*
X119526261Y-72033304D01*
X119526772Y-72032147D01*
X119532598Y-72016917D01*
X119532940Y-72015893D01*
X119537829Y-71998912D01*
X119538051Y-71998020D01*
X119542003Y-71979290D01*
X119542142Y-71978518D01*
X119545157Y-71958038D01*
X119545237Y-71957369D01*
X119547314Y-71935139D01*
X119547355Y-71934561D01*
X119548495Y-71910582D01*
X119548509Y-71910079D01*
X119548636Y-71894009D01*
X119822570Y-71820430D01*
X119748991Y-72094364D01*
G37*
%TD.AperFunction*%
%TD*%
D21*
%TO.N,/spi_right_csn*%
X136999261Y-74682401D02*
X136987715Y-74694604D01*
X136987062Y-74695351D01*
X136970912Y-74715336D01*
X136970298Y-74716162D01*
X136956048Y-74737055D01*
X136955490Y-74737951D01*
X136943140Y-74759752D01*
X136942653Y-74760703D01*
X136932203Y-74783412D01*
X136931799Y-74784398D01*
X136923249Y-74808014D01*
X136922933Y-74809013D01*
X136916283Y-74833537D01*
X136916056Y-74834529D01*
X136911306Y-74859961D01*
X136911164Y-74860927D01*
X136908314Y-74887267D01*
X136908248Y-74888190D01*
X136907725Y-74903181D01*
X136807255Y-74903181D01*
X136806732Y-74888190D01*
X136806666Y-74887267D01*
X136803816Y-74860927D01*
X136803674Y-74859961D01*
X136798924Y-74834529D01*
X136798697Y-74833537D01*
X136792047Y-74809013D01*
X136791731Y-74808014D01*
X136783181Y-74784398D01*
X136782777Y-74783412D01*
X136772327Y-74760703D01*
X136771840Y-74759752D01*
X136759490Y-74737951D01*
X136758932Y-74737055D01*
X136744682Y-74716162D01*
X136744068Y-74715336D01*
X136727918Y-74695351D01*
X136727265Y-74694604D01*
X136715719Y-74682401D01*
X136857490Y-74436500D01*
X136999261Y-74682401D01*
%TA.AperFunction,Conductor*%
D20*
G36*
X136999261Y-74682401D02*
G01*
X136987715Y-74694604D01*
X136987062Y-74695351D01*
X136970912Y-74715336D01*
X136970298Y-74716162D01*
X136956048Y-74737055D01*
X136955490Y-74737951D01*
X136943140Y-74759752D01*
X136942653Y-74760703D01*
X136932203Y-74783412D01*
X136931799Y-74784398D01*
X136923249Y-74808014D01*
X136922933Y-74809013D01*
X136916283Y-74833537D01*
X136916056Y-74834529D01*
X136911306Y-74859961D01*
X136911164Y-74860927D01*
X136908314Y-74887267D01*
X136908248Y-74888190D01*
X136907725Y-74903181D01*
X136807255Y-74903181D01*
X136806732Y-74888190D01*
X136806666Y-74887267D01*
X136803816Y-74860927D01*
X136803674Y-74859961D01*
X136798924Y-74834529D01*
X136798697Y-74833537D01*
X136792047Y-74809013D01*
X136791731Y-74808014D01*
X136783181Y-74784398D01*
X136782777Y-74783412D01*
X136772327Y-74760703D01*
X136771840Y-74759752D01*
X136759490Y-74737951D01*
X136758932Y-74737055D01*
X136744682Y-74716162D01*
X136744068Y-74715336D01*
X136727918Y-74695351D01*
X136727265Y-74694604D01*
X136715719Y-74682401D01*
X136857490Y-74436500D01*
X136999261Y-74682401D01*
G37*
%TD.AperFunction*%
%TD*%
D21*
%TO.N,/spi_right_clk*%
X135650771Y-71786827D02*
X135639225Y-71799030D01*
X135638572Y-71799777D01*
X135622422Y-71819762D01*
X135621808Y-71820588D01*
X135607558Y-71841481D01*
X135607000Y-71842377D01*
X135594650Y-71864178D01*
X135594163Y-71865129D01*
X135583713Y-71887838D01*
X135583309Y-71888824D01*
X135574759Y-71912440D01*
X135574443Y-71913439D01*
X135567793Y-71937963D01*
X135567566Y-71938955D01*
X135562816Y-71964387D01*
X135562674Y-71965353D01*
X135559824Y-71991693D01*
X135559758Y-71992616D01*
X135559235Y-72007607D01*
X135458765Y-72007607D01*
X135458242Y-71992616D01*
X135458176Y-71991693D01*
X135455326Y-71965353D01*
X135455184Y-71964387D01*
X135450434Y-71938955D01*
X135450207Y-71937963D01*
X135443557Y-71913439D01*
X135443241Y-71912440D01*
X135434691Y-71888824D01*
X135434287Y-71887838D01*
X135423837Y-71865129D01*
X135423350Y-71864178D01*
X135411000Y-71842377D01*
X135410442Y-71841481D01*
X135396192Y-71820588D01*
X135395578Y-71819762D01*
X135379428Y-71799777D01*
X135378775Y-71799030D01*
X135367229Y-71786827D01*
X135509000Y-71540926D01*
X135650771Y-71786827D01*
%TA.AperFunction,Conductor*%
D20*
G36*
X135650771Y-71786827D02*
G01*
X135639225Y-71799030D01*
X135638572Y-71799777D01*
X135622422Y-71819762D01*
X135621808Y-71820588D01*
X135607558Y-71841481D01*
X135607000Y-71842377D01*
X135594650Y-71864178D01*
X135594163Y-71865129D01*
X135583713Y-71887838D01*
X135583309Y-71888824D01*
X135574759Y-71912440D01*
X135574443Y-71913439D01*
X135567793Y-71937963D01*
X135567566Y-71938955D01*
X135562816Y-71964387D01*
X135562674Y-71965353D01*
X135559824Y-71991693D01*
X135559758Y-71992616D01*
X135559235Y-72007607D01*
X135458765Y-72007607D01*
X135458242Y-71992616D01*
X135458176Y-71991693D01*
X135455326Y-71965353D01*
X135455184Y-71964387D01*
X135450434Y-71938955D01*
X135450207Y-71937963D01*
X135443557Y-71913439D01*
X135443241Y-71912440D01*
X135434691Y-71888824D01*
X135434287Y-71887838D01*
X135423837Y-71865129D01*
X135423350Y-71864178D01*
X135411000Y-71842377D01*
X135410442Y-71841481D01*
X135396192Y-71820588D01*
X135395578Y-71819762D01*
X135379428Y-71799777D01*
X135378775Y-71799030D01*
X135367229Y-71786827D01*
X135509000Y-71540926D01*
X135650771Y-71786827D01*
G37*
%TD.AperFunction*%
%TD*%
D21*
%TO.N,/spi_right_mosi*%
X137936771Y-71913827D02*
X137925225Y-71926030D01*
X137924572Y-71926777D01*
X137908422Y-71946762D01*
X137907808Y-71947588D01*
X137893558Y-71968481D01*
X137893000Y-71969377D01*
X137880650Y-71991178D01*
X137880163Y-71992129D01*
X137869713Y-72014838D01*
X137869309Y-72015824D01*
X137860759Y-72039440D01*
X137860443Y-72040439D01*
X137853793Y-72064963D01*
X137853566Y-72065955D01*
X137848816Y-72091387D01*
X137848674Y-72092353D01*
X137845824Y-72118693D01*
X137845758Y-72119616D01*
X137845235Y-72134607D01*
X137744765Y-72134607D01*
X137744242Y-72119616D01*
X137744176Y-72118693D01*
X137741326Y-72092353D01*
X137741184Y-72091387D01*
X137736434Y-72065955D01*
X137736207Y-72064963D01*
X137729557Y-72040439D01*
X137729241Y-72039440D01*
X137720691Y-72015824D01*
X137720287Y-72014838D01*
X137709837Y-71992129D01*
X137709350Y-71991178D01*
X137697000Y-71969377D01*
X137696442Y-71968481D01*
X137682192Y-71947588D01*
X137681578Y-71946762D01*
X137665428Y-71926777D01*
X137664775Y-71926030D01*
X137653229Y-71913827D01*
X137795000Y-71667926D01*
X137936771Y-71913827D01*
%TA.AperFunction,Conductor*%
D20*
G36*
X137936771Y-71913827D02*
G01*
X137925225Y-71926030D01*
X137924572Y-71926777D01*
X137908422Y-71946762D01*
X137907808Y-71947588D01*
X137893558Y-71968481D01*
X137893000Y-71969377D01*
X137880650Y-71991178D01*
X137880163Y-71992129D01*
X137869713Y-72014838D01*
X137869309Y-72015824D01*
X137860759Y-72039440D01*
X137860443Y-72040439D01*
X137853793Y-72064963D01*
X137853566Y-72065955D01*
X137848816Y-72091387D01*
X137848674Y-72092353D01*
X137845824Y-72118693D01*
X137845758Y-72119616D01*
X137845235Y-72134607D01*
X137744765Y-72134607D01*
X137744242Y-72119616D01*
X137744176Y-72118693D01*
X137741326Y-72092353D01*
X137741184Y-72091387D01*
X137736434Y-72065955D01*
X137736207Y-72064963D01*
X137729557Y-72040439D01*
X137729241Y-72039440D01*
X137720691Y-72015824D01*
X137720287Y-72014838D01*
X137709837Y-71992129D01*
X137709350Y-71991178D01*
X137697000Y-71969377D01*
X137696442Y-71968481D01*
X137682192Y-71947588D01*
X137681578Y-71946762D01*
X137665428Y-71926777D01*
X137664775Y-71926030D01*
X137653229Y-71913827D01*
X137795000Y-71667926D01*
X137936771Y-71913827D01*
G37*
%TD.AperFunction*%
%TD*%
D21*
%TO.N,/spi_right_miso0*%
X136211771Y-74786229D02*
X136200225Y-74798432D01*
X136199572Y-74799179D01*
X136183422Y-74819164D01*
X136182808Y-74819990D01*
X136168558Y-74840883D01*
X136168000Y-74841779D01*
X136155650Y-74863580D01*
X136155163Y-74864531D01*
X136144713Y-74887240D01*
X136144309Y-74888226D01*
X136135759Y-74911842D01*
X136135443Y-74912841D01*
X136128793Y-74937365D01*
X136128566Y-74938357D01*
X136123816Y-74963789D01*
X136123674Y-74964755D01*
X136120824Y-74991095D01*
X136120758Y-74992018D01*
X136120235Y-75007009D01*
X136019765Y-75007009D01*
X136019242Y-74992018D01*
X136019176Y-74991095D01*
X136016326Y-74964755D01*
X136016184Y-74963789D01*
X136011434Y-74938357D01*
X136011207Y-74937365D01*
X136004557Y-74912841D01*
X136004241Y-74911842D01*
X135995691Y-74888226D01*
X135995287Y-74887240D01*
X135984837Y-74864531D01*
X135984350Y-74863580D01*
X135972000Y-74841779D01*
X135971442Y-74840883D01*
X135957192Y-74819990D01*
X135956578Y-74819164D01*
X135940428Y-74799179D01*
X135939775Y-74798432D01*
X135928229Y-74786229D01*
X136070000Y-74540328D01*
X136211771Y-74786229D01*
%TA.AperFunction,Conductor*%
D20*
G36*
X136211771Y-74786229D02*
G01*
X136200225Y-74798432D01*
X136199572Y-74799179D01*
X136183422Y-74819164D01*
X136182808Y-74819990D01*
X136168558Y-74840883D01*
X136168000Y-74841779D01*
X136155650Y-74863580D01*
X136155163Y-74864531D01*
X136144713Y-74887240D01*
X136144309Y-74888226D01*
X136135759Y-74911842D01*
X136135443Y-74912841D01*
X136128793Y-74937365D01*
X136128566Y-74938357D01*
X136123816Y-74963789D01*
X136123674Y-74964755D01*
X136120824Y-74991095D01*
X136120758Y-74992018D01*
X136120235Y-75007009D01*
X136019765Y-75007009D01*
X136019242Y-74992018D01*
X136019176Y-74991095D01*
X136016326Y-74964755D01*
X136016184Y-74963789D01*
X136011434Y-74938357D01*
X136011207Y-74937365D01*
X136004557Y-74912841D01*
X136004241Y-74911842D01*
X135995691Y-74888226D01*
X135995287Y-74887240D01*
X135984837Y-74864531D01*
X135984350Y-74863580D01*
X135972000Y-74841779D01*
X135971442Y-74840883D01*
X135957192Y-74819990D01*
X135956578Y-74819164D01*
X135940428Y-74799179D01*
X135939775Y-74798432D01*
X135928229Y-74786229D01*
X136070000Y-74540328D01*
X136211771Y-74786229D01*
G37*
%TD.AperFunction*%
%TD*%
D21*
%TO.N,/spi_right_miso1*%
X135396771Y-74808417D02*
X135385225Y-74820620D01*
X135384572Y-74821367D01*
X135368422Y-74841352D01*
X135367808Y-74842178D01*
X135353558Y-74863071D01*
X135353000Y-74863967D01*
X135340650Y-74885768D01*
X135340163Y-74886719D01*
X135329713Y-74909428D01*
X135329309Y-74910414D01*
X135320759Y-74934030D01*
X135320443Y-74935029D01*
X135313793Y-74959553D01*
X135313566Y-74960545D01*
X135308816Y-74985977D01*
X135308674Y-74986943D01*
X135305824Y-75013283D01*
X135305758Y-75014206D01*
X135305235Y-75029197D01*
X135204765Y-75029197D01*
X135204242Y-75014206D01*
X135204176Y-75013283D01*
X135201326Y-74986943D01*
X135201184Y-74985977D01*
X135196434Y-74960545D01*
X135196207Y-74959553D01*
X135189557Y-74935029D01*
X135189241Y-74934030D01*
X135180691Y-74910414D01*
X135180287Y-74909428D01*
X135169837Y-74886719D01*
X135169350Y-74885768D01*
X135157000Y-74863967D01*
X135156442Y-74863071D01*
X135142192Y-74842178D01*
X135141578Y-74841352D01*
X135125428Y-74821367D01*
X135124775Y-74820620D01*
X135113229Y-74808417D01*
X135255000Y-74562516D01*
X135396771Y-74808417D01*
%TA.AperFunction,Conductor*%
D20*
G36*
X135396771Y-74808417D02*
G01*
X135385225Y-74820620D01*
X135384572Y-74821367D01*
X135368422Y-74841352D01*
X135367808Y-74842178D01*
X135353558Y-74863071D01*
X135353000Y-74863967D01*
X135340650Y-74885768D01*
X135340163Y-74886719D01*
X135329713Y-74909428D01*
X135329309Y-74910414D01*
X135320759Y-74934030D01*
X135320443Y-74935029D01*
X135313793Y-74959553D01*
X135313566Y-74960545D01*
X135308816Y-74985977D01*
X135308674Y-74986943D01*
X135305824Y-75013283D01*
X135305758Y-75014206D01*
X135305235Y-75029197D01*
X135204765Y-75029197D01*
X135204242Y-75014206D01*
X135204176Y-75013283D01*
X135201326Y-74986943D01*
X135201184Y-74985977D01*
X135196434Y-74960545D01*
X135196207Y-74959553D01*
X135189557Y-74935029D01*
X135189241Y-74934030D01*
X135180691Y-74910414D01*
X135180287Y-74909428D01*
X135169837Y-74886719D01*
X135169350Y-74885768D01*
X135157000Y-74863967D01*
X135156442Y-74863071D01*
X135142192Y-74842178D01*
X135141578Y-74841352D01*
X135125428Y-74821367D01*
X135124775Y-74820620D01*
X135113229Y-74808417D01*
X135255000Y-74562516D01*
X135396771Y-74808417D01*
G37*
%TD.AperFunction*%
%TD*%
D21*
%TO.N,/sr_rb*%
X128320450Y-82737155D02*
X128303655Y-82737619D01*
X128302666Y-82737685D01*
X128277115Y-82740397D01*
X128276096Y-82740547D01*
X128251246Y-82745245D01*
X128250218Y-82745484D01*
X128226069Y-82752167D01*
X128225052Y-82752495D01*
X128201606Y-82761163D01*
X128200623Y-82761574D01*
X128177878Y-82772227D01*
X128176948Y-82772710D01*
X128154904Y-82785349D01*
X128154042Y-82785891D01*
X128132700Y-82800516D01*
X128131917Y-82801098D01*
X128111277Y-82817707D01*
X128110577Y-82818314D01*
X128099608Y-82828544D01*
X128028566Y-82757502D01*
X128038796Y-82746532D01*
X128039402Y-82745832D01*
X128056011Y-82725192D01*
X128056593Y-82724409D01*
X128071218Y-82703067D01*
X128071760Y-82702205D01*
X128084399Y-82680161D01*
X128084882Y-82679231D01*
X128095535Y-82656486D01*
X128095946Y-82655503D01*
X128104614Y-82632057D01*
X128104942Y-82631040D01*
X128111625Y-82606891D01*
X128111864Y-82605863D01*
X128116562Y-82581013D01*
X128116712Y-82579994D01*
X128119424Y-82554443D01*
X128119490Y-82553455D01*
X128119955Y-82536660D01*
X128394080Y-82463030D01*
X128320450Y-82737155D01*
%TA.AperFunction,Conductor*%
D20*
G36*
X128320450Y-82737155D02*
G01*
X128303655Y-82737619D01*
X128302666Y-82737685D01*
X128277115Y-82740397D01*
X128276096Y-82740547D01*
X128251246Y-82745245D01*
X128250218Y-82745484D01*
X128226069Y-82752167D01*
X128225052Y-82752495D01*
X128201606Y-82761163D01*
X128200623Y-82761574D01*
X128177878Y-82772227D01*
X128176948Y-82772710D01*
X128154904Y-82785349D01*
X128154042Y-82785891D01*
X128132700Y-82800516D01*
X128131917Y-82801098D01*
X128111277Y-82817707D01*
X128110577Y-82818314D01*
X128099608Y-82828544D01*
X128028566Y-82757502D01*
X128038796Y-82746532D01*
X128039402Y-82745832D01*
X128056011Y-82725192D01*
X128056593Y-82724409D01*
X128071218Y-82703067D01*
X128071760Y-82702205D01*
X128084399Y-82680161D01*
X128084882Y-82679231D01*
X128095535Y-82656486D01*
X128095946Y-82655503D01*
X128104614Y-82632057D01*
X128104942Y-82631040D01*
X128111625Y-82606891D01*
X128111864Y-82605863D01*
X128116562Y-82581013D01*
X128116712Y-82579994D01*
X128119424Y-82554443D01*
X128119490Y-82553455D01*
X128119955Y-82536660D01*
X128394080Y-82463030D01*
X128320450Y-82737155D01*
G37*
%TD.AperFunction*%
%TD*%
D21*
%TO.N,/sr_out*%
X128816740Y-80019355D02*
X128799945Y-80019819D01*
X128798956Y-80019885D01*
X128773405Y-80022597D01*
X128772386Y-80022747D01*
X128747536Y-80027445D01*
X128746508Y-80027684D01*
X128722359Y-80034367D01*
X128721342Y-80034695D01*
X128697896Y-80043363D01*
X128696913Y-80043774D01*
X128674168Y-80054427D01*
X128673238Y-80054910D01*
X128651194Y-80067549D01*
X128650332Y-80068091D01*
X128628990Y-80082716D01*
X128628207Y-80083298D01*
X128607567Y-80099907D01*
X128606867Y-80100514D01*
X128595898Y-80110744D01*
X128524856Y-80039702D01*
X128535086Y-80028732D01*
X128535692Y-80028032D01*
X128552301Y-80007392D01*
X128552883Y-80006609D01*
X128567508Y-79985267D01*
X128568050Y-79984405D01*
X128580689Y-79962361D01*
X128581172Y-79961431D01*
X128591825Y-79938686D01*
X128592236Y-79937703D01*
X128600904Y-79914257D01*
X128601232Y-79913240D01*
X128607915Y-79889091D01*
X128608154Y-79888063D01*
X128612852Y-79863213D01*
X128613002Y-79862194D01*
X128615714Y-79836643D01*
X128615780Y-79835655D01*
X128616245Y-79818860D01*
X128890370Y-79745230D01*
X128816740Y-80019355D01*
%TA.AperFunction,Conductor*%
D20*
G36*
X128816740Y-80019355D02*
G01*
X128799945Y-80019819D01*
X128798956Y-80019885D01*
X128773405Y-80022597D01*
X128772386Y-80022747D01*
X128747536Y-80027445D01*
X128746508Y-80027684D01*
X128722359Y-80034367D01*
X128721342Y-80034695D01*
X128697896Y-80043363D01*
X128696913Y-80043774D01*
X128674168Y-80054427D01*
X128673238Y-80054910D01*
X128651194Y-80067549D01*
X128650332Y-80068091D01*
X128628990Y-80082716D01*
X128628207Y-80083298D01*
X128607567Y-80099907D01*
X128606867Y-80100514D01*
X128595898Y-80110744D01*
X128524856Y-80039702D01*
X128535086Y-80028732D01*
X128535692Y-80028032D01*
X128552301Y-80007392D01*
X128552883Y-80006609D01*
X128567508Y-79985267D01*
X128568050Y-79984405D01*
X128580689Y-79962361D01*
X128581172Y-79961431D01*
X128591825Y-79938686D01*
X128592236Y-79937703D01*
X128600904Y-79914257D01*
X128601232Y-79913240D01*
X128607915Y-79889091D01*
X128608154Y-79888063D01*
X128612852Y-79863213D01*
X128613002Y-79862194D01*
X128615714Y-79836643D01*
X128615780Y-79835655D01*
X128616245Y-79818860D01*
X128890370Y-79745230D01*
X128816740Y-80019355D01*
G37*
%TD.AperFunction*%
%TD*%
M02*
