%TF.GenerationSoftware,KiCad,Pcbnew,(5.1.10)-1*%
%TF.CreationDate,2021-07-22T16:49:50+02:00*%
%TF.ProjectId,astropix_v2,61737472-6f70-4697-985f-76322e6b6963,1.0*%
%TF.SameCoordinates,Original*%
%TF.FileFunction,Copper,L4,Bot*%
%TF.FilePolarity,Positive*%
%FSLAX46Y46*%
G04 Gerber Fmt 4.6, Leading zero omitted, Abs format (unit mm)*
G04 Created by KiCad (PCBNEW (5.1.10)-1) date 2021-07-22 16:49:50*
%MOMM*%
%LPD*%
G01*
G04 APERTURE LIST*
%TA.AperFunction,ConnectorPad*%
%ADD10R,0.700000X4.300000*%
%TD*%
%TA.AperFunction,ConnectorPad*%
%ADD11R,0.700000X3.200000*%
%TD*%
%TA.AperFunction,ComponentPad*%
%ADD12C,0.600000*%
%TD*%
%TA.AperFunction,ComponentPad*%
%ADD13O,1.700000X1.700000*%
%TD*%
%TA.AperFunction,ComponentPad*%
%ADD14R,1.700000X1.700000*%
%TD*%
%TA.AperFunction,ComponentPad*%
%ADD15C,2.250000*%
%TD*%
%TA.AperFunction,ViaPad*%
%ADD16C,0.450000*%
%TD*%
%TA.AperFunction,Conductor*%
%ADD17C,0.125000*%
%TD*%
%TA.AperFunction,Conductor*%
%ADD18C,0.500000*%
%TD*%
%TA.AperFunction,Conductor*%
%ADD19C,0.254000*%
%TD*%
%TA.AperFunction,Conductor*%
%ADD20C,0.100000*%
%TD*%
%TA.AperFunction,Conductor*%
%ADD21C,0.025400*%
%TD*%
G04 APERTURE END LIST*
D10*
%TO.P,J1,A42*%
%TO.N,/spi_right_miso0*%
X149172000Y-105791000D03*
%TO.P,J1,A46*%
%TO.N,N/C*%
X153172000Y-105791000D03*
%TO.P,J1,A10*%
X115172000Y-105791000D03*
%TO.P,J1,A7*%
X112172000Y-105791000D03*
%TO.P,J1,A6*%
X111172000Y-105791000D03*
%TO.P,J1,A5*%
X110172000Y-105791000D03*
%TO.P,J1,A45*%
X152172000Y-105791000D03*
%TO.P,J1,A11*%
%TO.N,GND*%
X116172000Y-105791000D03*
%TO.P,J1,A9*%
%TO.N,N/C*%
X114172000Y-105791000D03*
%TO.P,J1,A18*%
%TO.N,/spi_left_miso1*%
X125172000Y-105791000D03*
%TO.P,J1,A49*%
%TO.N,N/C*%
X156172000Y-105791000D03*
%TO.P,J1,A43*%
%TO.N,/spi_right_csn*%
X150172000Y-105791000D03*
%TO.P,J1,A16*%
%TO.N,/spi_left_csn*%
X123172000Y-105791000D03*
%TO.P,J1,A14*%
%TO.N,N/C*%
X121172000Y-105791000D03*
%TO.P,J1,A15*%
X122172000Y-105791000D03*
%TO.P,J1,A44*%
%TO.N,/spi_right_mosi*%
X151172000Y-105791000D03*
%TO.P,J1,A13*%
%TO.N,N/C*%
X120172000Y-105791000D03*
%TO.P,J1,A12*%
X119172000Y-105791000D03*
%TO.P,J1,A48*%
X155172000Y-105791000D03*
%TO.P,J1,A47*%
X154172000Y-105791000D03*
%TO.P,J1,A8*%
X113172000Y-105791000D03*
%TO.P,J1,A17*%
%TO.N,/spi_left_clk*%
X124172000Y-105791000D03*
%TO.P,J1,A27*%
%TO.N,N/C*%
X134172000Y-105791000D03*
%TO.P,J1,A21*%
X128172000Y-105791000D03*
%TO.P,J1,A20*%
%TO.N,/spi_left_mosi*%
X127172000Y-105791000D03*
%TO.P,J1,A24*%
%TO.N,/sr_ck1*%
X131172000Y-105791000D03*
%TO.P,J1,A29*%
%TO.N,N/C*%
X136172000Y-105791000D03*
%TO.P,J1,A30*%
X137172000Y-105791000D03*
%TO.P,J1,A23*%
X130172000Y-105791000D03*
%TO.P,J1,A28*%
%TO.N,/Inj*%
X135172000Y-105791000D03*
%TO.P,J1,A31*%
%TO.N,N/C*%
X138172000Y-105791000D03*
%TO.P,J1,A25*%
%TO.N,/sr_ck2*%
X132172000Y-105791000D03*
%TO.P,J1,A32*%
%TO.N,N/C*%
X139172000Y-105791000D03*
%TO.P,J1,A4*%
X109172000Y-105791000D03*
%TO.P,J1,A22*%
X129172000Y-105791000D03*
%TO.P,J1,A3*%
X108172000Y-105791000D03*
D11*
%TO.P,J1,A1*%
%TO.N,-HV*%
X106172000Y-105241000D03*
D10*
%TO.P,J1,A26*%
%TO.N,N/C*%
X133172000Y-105791000D03*
%TO.P,J1,A19*%
%TO.N,/spi_left_miso0*%
X126172000Y-105791000D03*
%TO.P,J1,A34*%
%TO.N,N/C*%
X141172000Y-105791000D03*
%TO.P,J1,A37*%
X144172000Y-105791000D03*
%TO.P,J1,A39*%
X146172000Y-105791000D03*
%TO.P,J1,A38*%
X145172000Y-105791000D03*
%TO.P,J1,A36*%
X143172000Y-105791000D03*
%TO.P,J1,A40*%
%TO.N,/spi_right_clk*%
X147172000Y-105791000D03*
%TO.P,J1,A33*%
%TO.N,N/C*%
X140172000Y-105791000D03*
%TO.P,J1,A35*%
X142172000Y-105791000D03*
%TO.P,J1,A41*%
%TO.N,/spi_right_miso1*%
X148172000Y-105791000D03*
%TD*%
D12*
%TO.P,U4,Ring1*%
%TO.N,GND*%
X134020000Y-65020000D03*
X122520000Y-65020000D03*
X134020000Y-77220000D03*
X122520000Y-77220000D03*
%TD*%
D13*
%TO.P,JP1,3*%
%TO.N,/POW4_in*%
X114909600Y-97790000D03*
%TO.P,JP1,2*%
%TO.N,VDD*%
X114909600Y-95250000D03*
D14*
%TO.P,JP1,1*%
%TO.N,/VDD18_in*%
X114909600Y-92710000D03*
%TD*%
D13*
%TO.P,J10,6*%
%TO.N,GND*%
X143637000Y-54610000D03*
%TO.P,J10,5*%
%TO.N,/spi_right_mosi*%
X141097000Y-54610000D03*
%TO.P,J10,4*%
%TO.N,/spi_right_csn*%
X138557000Y-54610000D03*
%TO.P,J10,3*%
%TO.N,/spi_right_miso0*%
X136017000Y-54610000D03*
%TO.P,J10,2*%
%TO.N,/spi_right_miso1*%
X133477000Y-54610000D03*
D14*
%TO.P,J10,1*%
%TO.N,/spi_right_clk*%
X130937000Y-54610000D03*
%TD*%
D13*
%TO.P,J9,6*%
%TO.N,GND*%
X107950000Y-72390000D03*
%TO.P,J9,5*%
%TO.N,/spi_left_csn*%
X107950000Y-69850000D03*
%TO.P,J9,4*%
%TO.N,/spi_left_clk*%
X107950000Y-67310000D03*
%TO.P,J9,3*%
%TO.N,/spi_left_miso1*%
X107950000Y-64770000D03*
%TO.P,J9,2*%
%TO.N,/spi_left_miso0*%
X107950000Y-62230000D03*
D14*
%TO.P,J9,1*%
%TO.N,/spi_left_mosi*%
X107950000Y-59690000D03*
%TD*%
D15*
%TO.P,J6,2*%
%TO.N,GND*%
X112395000Y-81280000D03*
X107315000Y-81280000D03*
X107315000Y-76200000D03*
X112395000Y-76200000D03*
%TO.P,J6,1*%
%TO.N,/HV_in_ext*%
X109855000Y-78740000D03*
%TD*%
%TO.P,J5,2*%
%TO.N,GND*%
X149860000Y-57150000D03*
X154940000Y-57150000D03*
X154940000Y-62230000D03*
X149860000Y-62230000D03*
%TO.P,J5,1*%
%TO.N,/sc_out*%
X152400000Y-59690000D03*
%TD*%
%TO.P,J4,2*%
%TO.N,GND*%
X149860000Y-71882000D03*
X154940000Y-71882000D03*
X154940000Y-76962000D03*
X149860000Y-76962000D03*
%TO.P,J4,1*%
%TO.N,Net-(J4-Pad1)*%
X152400000Y-74422000D03*
%TD*%
%TO.P,J3,2*%
%TO.N,GND*%
X149860000Y-86360000D03*
X154940000Y-86360000D03*
X154940000Y-91440000D03*
X149860000Y-91440000D03*
%TO.P,J3,1*%
%TO.N,Net-(J3-Pad1)*%
X152400000Y-88900000D03*
%TD*%
D16*
%TO.N,VDD*%
X128676400Y-77647800D03*
X126923800Y-77645000D03*
X129286000Y-93649798D03*
X118846600Y-82245200D03*
X123621800Y-82270606D03*
X121602198Y-91274600D03*
X122174010Y-91287600D03*
%TO.N,VDDA*%
X131438370Y-80070025D03*
X130511716Y-78787014D03*
X147269200Y-76911200D03*
X145415000Y-83947000D03*
X125095000Y-80010000D03*
X122123200Y-96850200D03*
X121551404Y-96863200D03*
%TO.N,suba*%
X131445000Y-74015600D03*
X125095000Y-74015600D03*
X128270000Y-74015600D03*
X131445000Y-71120000D03*
X128270000Y-71120000D03*
X125095000Y-71120000D03*
X131445000Y-67945000D03*
X128270000Y-67945000D03*
X125095000Y-67945000D03*
X114274600Y-84709000D03*
X133718300Y-78359000D03*
%TO.N,/res_n*%
X130048000Y-90754206D03*
X126034800Y-79603600D03*
%TO.N,/Inj*%
X129507436Y-77851000D03*
%TO.N,/DAC_vminuspix*%
X132156200Y-82321400D03*
X132384800Y-79857600D03*
%TO.N,/sr_ck2*%
X128369479Y-84582008D03*
%TO.N,/sr_ck1*%
X128828798Y-79527400D03*
%TO.N,/hold*%
X130149600Y-102997000D03*
X126765067Y-84281583D03*
%TO.N,GND*%
X147269200Y-79832200D03*
X142367000Y-86741000D03*
X142621000Y-83947000D03*
X147320000Y-85344000D03*
X113030000Y-92837000D03*
X120777000Y-94742000D03*
X117500400Y-93421200D03*
X119176800Y-93421200D03*
X120751600Y-93421200D03*
X121488200Y-81534000D03*
X115214400Y-102108000D03*
X115214400Y-102743000D03*
X115824000Y-102108000D03*
X115824000Y-102717600D03*
X117500388Y-94691200D03*
X113944400Y-89814398D03*
X110642400Y-89814400D03*
X120395996Y-84201000D03*
X123596400Y-85090006D03*
X123875800Y-80010004D03*
X129717788Y-78917800D03*
X130310139Y-81684664D03*
X128379823Y-81686400D03*
X127304800Y-81686398D03*
X131785620Y-77645014D03*
X131157489Y-81730881D03*
X118846600Y-85115400D03*
X119151402Y-94691200D03*
X112937990Y-96164400D03*
X142367000Y-78498694D03*
%TO.N,-HV*%
X106297030Y-103276400D03*
%TO.N,/spi_left_csn*%
X118110000Y-72009014D03*
%TO.N,/spi_left_clk*%
X118618000Y-74675996D03*
%TO.N,/spi_left_mosi*%
X121412000Y-74676000D03*
%TO.N,/spi_left_miso0*%
X120396000Y-71882002D03*
%TO.N,/spi_left_miso1*%
X119380000Y-71882000D03*
%TO.N,/spi_right_csn*%
X136857490Y-74523574D03*
%TO.N,/spi_right_clk*%
X135509000Y-71628000D03*
%TO.N,/spi_right_mosi*%
X137795000Y-71755000D03*
%TO.N,/spi_right_miso0*%
X136070000Y-74627402D03*
%TO.N,/spi_right_miso1*%
X135255000Y-74649590D03*
%TO.N,subd*%
X109347000Y-90932000D03*
X123571000Y-78020022D03*
%TD*%
D17*
%TO.N,/res_n*%
X130048000Y-90754206D02*
X126034800Y-86741006D01*
X126034800Y-86741006D02*
X126034800Y-79603600D01*
%TO.N,/Inj*%
X129282437Y-78075999D02*
X129507436Y-77851000D01*
X129282437Y-83054437D02*
X129282437Y-78075999D01*
X135172000Y-88944000D02*
X129282437Y-83054437D01*
X135172000Y-105791000D02*
X135172000Y-88944000D01*
%TO.N,/DAC_vminuspix*%
X132156200Y-82321400D02*
X132156200Y-80086200D01*
X132156200Y-80086200D02*
X132384800Y-79857600D01*
%TO.N,/sr_ck2*%
X132172000Y-88384529D02*
X128369479Y-84582008D01*
X132172000Y-105791000D02*
X132172000Y-88384529D01*
%TO.N,/sr_ck1*%
X127892670Y-80463528D02*
X128828798Y-79527400D01*
X127892670Y-85069172D02*
X127892670Y-80463528D01*
X131172000Y-88348502D02*
X127892670Y-85069172D01*
X131172000Y-105791000D02*
X131172000Y-88348502D01*
%TO.N,/hold*%
X126765067Y-84599781D02*
X126765067Y-84281583D01*
X130556000Y-88390714D02*
X126765067Y-84599781D01*
X130556000Y-102590600D02*
X130556000Y-88390714D01*
X130149600Y-102997000D02*
X130556000Y-102590600D01*
D18*
%TO.N,GND*%
X116172000Y-102456000D02*
X115824000Y-102108000D01*
X116172000Y-105791000D02*
X116172000Y-102456000D01*
D17*
%TO.N,-HV*%
X106172000Y-105241000D02*
X106172000Y-103632000D01*
X106297030Y-103506970D02*
X106297030Y-103276400D01*
X106172000Y-103632000D02*
X106297030Y-103506970D01*
%TO.N,/spi_left_csn*%
X123172000Y-90481070D02*
X118110000Y-85419070D01*
X123172000Y-105791000D02*
X123172000Y-90481070D01*
X118110000Y-85419070D02*
X118110000Y-72009014D01*
%TO.N,/spi_left_clk*%
X124172000Y-105791000D02*
X124172000Y-91127502D01*
X118393001Y-85348503D02*
X118393001Y-74900995D01*
X118393001Y-74900995D02*
X118618000Y-74675996D01*
X124172000Y-91127502D02*
X118393001Y-85348503D01*
%TO.N,/spi_left_mosi*%
X121060001Y-84738001D02*
X121060001Y-75027999D01*
X127172000Y-90850000D02*
X121060001Y-84738001D01*
X127172000Y-105791000D02*
X127172000Y-90850000D01*
X121060001Y-75027999D02*
X121412000Y-74676000D01*
%TO.N,/spi_left_miso0*%
X119980498Y-72297504D02*
X120396000Y-71882002D01*
X119980498Y-84547498D02*
X119980498Y-72297504D01*
X126172000Y-105791000D02*
X126172000Y-90739000D01*
X126172000Y-90739000D02*
X119980498Y-84547498D01*
%TO.N,/spi_left_miso1*%
X125172000Y-105791000D02*
X125172000Y-90755000D01*
X125172000Y-90755000D02*
X119380000Y-84963000D01*
X119380000Y-84963000D02*
X119380000Y-71882000D01*
%TO.N,/spi_right_csn*%
X150172000Y-100360568D02*
X150172000Y-105791000D01*
X136857490Y-87046058D02*
X150172000Y-100360568D01*
X136857490Y-74523574D02*
X136857490Y-87046058D01*
%TO.N,/spi_right_clk*%
X134747000Y-73914000D02*
X135509000Y-73152000D01*
X135509000Y-73152000D02*
X135509000Y-71628000D01*
X134747000Y-86614000D02*
X134747000Y-73914000D01*
X147172000Y-99039000D02*
X134747000Y-86614000D01*
X147172000Y-105791000D02*
X147172000Y-99039000D01*
%TO.N,/spi_right_mosi*%
X137795000Y-87630000D02*
X137795000Y-71755000D01*
X150172000Y-100007000D02*
X137795000Y-87630000D01*
X151172000Y-101007000D02*
X151172000Y-105791000D01*
X150172000Y-100007000D02*
X151172000Y-101007000D01*
%TO.N,/spi_right_miso0*%
X136070000Y-86612136D02*
X144229178Y-94771314D01*
X136070000Y-74627402D02*
X136070000Y-86612136D01*
X149172000Y-99714136D02*
X149172000Y-105791000D01*
X144229178Y-94771314D02*
X149172000Y-99714136D01*
%TO.N,/spi_right_miso1*%
X143979167Y-94874871D02*
X135255000Y-86150704D01*
X135255000Y-86150704D02*
X135255000Y-74649590D01*
X148172000Y-99067704D02*
X143979167Y-94874871D01*
X148172000Y-105791000D02*
X148172000Y-99067704D01*
%TD*%
D19*
%TO.N,GND*%
X116037000Y-102946200D02*
X114985800Y-102946200D01*
X114985800Y-101930200D01*
X116037000Y-101930200D01*
X116037000Y-102946200D01*
%TA.AperFunction,Conductor*%
D20*
G36*
X116037000Y-102946200D02*
G01*
X114985800Y-102946200D01*
X114985800Y-101930200D01*
X116037000Y-101930200D01*
X116037000Y-102946200D01*
G37*
%TD.AperFunction*%
%TD*%
D21*
%TO.N,/res_n*%
X129826067Y-90460492D02*
X129826767Y-90461098D01*
X129847407Y-90477707D01*
X129848190Y-90478289D01*
X129869532Y-90492914D01*
X129870394Y-90493456D01*
X129892438Y-90506095D01*
X129893368Y-90506578D01*
X129916113Y-90517231D01*
X129917096Y-90517642D01*
X129940542Y-90526310D01*
X129941559Y-90526638D01*
X129965708Y-90533321D01*
X129966736Y-90533560D01*
X129991586Y-90538258D01*
X129992605Y-90538408D01*
X130018156Y-90541120D01*
X130019144Y-90541186D01*
X130035940Y-90541651D01*
X130109570Y-90815776D01*
X129835445Y-90742146D01*
X129834980Y-90725350D01*
X129834914Y-90724362D01*
X129832202Y-90698811D01*
X129832052Y-90697792D01*
X129827354Y-90672942D01*
X129827115Y-90671914D01*
X129820432Y-90647765D01*
X129820104Y-90646748D01*
X129811436Y-90623302D01*
X129811025Y-90622319D01*
X129800372Y-90599574D01*
X129799889Y-90598644D01*
X129787250Y-90576600D01*
X129786708Y-90575738D01*
X129772083Y-90554396D01*
X129771501Y-90553613D01*
X129754892Y-90532973D01*
X129754286Y-90532273D01*
X129744056Y-90521304D01*
X129815098Y-90450262D01*
X129826067Y-90460492D01*
%TA.AperFunction,Conductor*%
D20*
G36*
X129826067Y-90460492D02*
G01*
X129826767Y-90461098D01*
X129847407Y-90477707D01*
X129848190Y-90478289D01*
X129869532Y-90492914D01*
X129870394Y-90493456D01*
X129892438Y-90506095D01*
X129893368Y-90506578D01*
X129916113Y-90517231D01*
X129917096Y-90517642D01*
X129940542Y-90526310D01*
X129941559Y-90526638D01*
X129965708Y-90533321D01*
X129966736Y-90533560D01*
X129991586Y-90538258D01*
X129992605Y-90538408D01*
X130018156Y-90541120D01*
X130019144Y-90541186D01*
X130035940Y-90541651D01*
X130109570Y-90815776D01*
X129835445Y-90742146D01*
X129834980Y-90725350D01*
X129834914Y-90724362D01*
X129832202Y-90698811D01*
X129832052Y-90697792D01*
X129827354Y-90672942D01*
X129827115Y-90671914D01*
X129820432Y-90647765D01*
X129820104Y-90646748D01*
X129811436Y-90623302D01*
X129811025Y-90622319D01*
X129800372Y-90599574D01*
X129799889Y-90598644D01*
X129787250Y-90576600D01*
X129786708Y-90575738D01*
X129772083Y-90554396D01*
X129771501Y-90553613D01*
X129754892Y-90532973D01*
X129754286Y-90532273D01*
X129744056Y-90521304D01*
X129815098Y-90450262D01*
X129826067Y-90460492D01*
G37*
%TD.AperFunction*%
%TD*%
D21*
%TO.N,/res_n*%
X126176571Y-79762427D02*
X126165025Y-79774630D01*
X126164372Y-79775377D01*
X126148222Y-79795362D01*
X126147608Y-79796188D01*
X126133358Y-79817081D01*
X126132800Y-79817977D01*
X126120450Y-79839778D01*
X126119963Y-79840729D01*
X126109513Y-79863438D01*
X126109109Y-79864424D01*
X126100559Y-79888040D01*
X126100243Y-79889039D01*
X126093593Y-79913563D01*
X126093366Y-79914555D01*
X126088616Y-79939987D01*
X126088474Y-79940953D01*
X126085624Y-79967293D01*
X126085558Y-79968216D01*
X126085035Y-79983207D01*
X125984565Y-79983207D01*
X125984042Y-79968216D01*
X125983976Y-79967293D01*
X125981126Y-79940953D01*
X125980984Y-79939987D01*
X125976234Y-79914555D01*
X125976007Y-79913563D01*
X125969357Y-79889039D01*
X125969041Y-79888040D01*
X125960491Y-79864424D01*
X125960087Y-79863438D01*
X125949637Y-79840729D01*
X125949150Y-79839778D01*
X125936800Y-79817977D01*
X125936242Y-79817081D01*
X125921992Y-79796188D01*
X125921378Y-79795362D01*
X125905228Y-79775377D01*
X125904575Y-79774630D01*
X125893029Y-79762427D01*
X126034800Y-79516526D01*
X126176571Y-79762427D01*
%TA.AperFunction,Conductor*%
D20*
G36*
X126176571Y-79762427D02*
G01*
X126165025Y-79774630D01*
X126164372Y-79775377D01*
X126148222Y-79795362D01*
X126147608Y-79796188D01*
X126133358Y-79817081D01*
X126132800Y-79817977D01*
X126120450Y-79839778D01*
X126119963Y-79840729D01*
X126109513Y-79863438D01*
X126109109Y-79864424D01*
X126100559Y-79888040D01*
X126100243Y-79889039D01*
X126093593Y-79913563D01*
X126093366Y-79914555D01*
X126088616Y-79939987D01*
X126088474Y-79940953D01*
X126085624Y-79967293D01*
X126085558Y-79968216D01*
X126085035Y-79983207D01*
X125984565Y-79983207D01*
X125984042Y-79968216D01*
X125983976Y-79967293D01*
X125981126Y-79940953D01*
X125980984Y-79939987D01*
X125976234Y-79914555D01*
X125976007Y-79913563D01*
X125969357Y-79889039D01*
X125969041Y-79888040D01*
X125960491Y-79864424D01*
X125960087Y-79863438D01*
X125949637Y-79840729D01*
X125949150Y-79839778D01*
X125936800Y-79817977D01*
X125936242Y-79817081D01*
X125921992Y-79796188D01*
X125921378Y-79795362D01*
X125905228Y-79775377D01*
X125904575Y-79774630D01*
X125893029Y-79762427D01*
X126034800Y-79516526D01*
X126176571Y-79762427D01*
G37*
%TD.AperFunction*%
%TD*%
D21*
%TO.N,/Inj*%
X129495427Y-78063364D02*
X129479356Y-78063490D01*
X129478853Y-78063504D01*
X129454874Y-78064644D01*
X129454296Y-78064685D01*
X129432066Y-78066762D01*
X129431397Y-78066842D01*
X129410917Y-78069857D01*
X129410145Y-78069996D01*
X129391415Y-78073948D01*
X129390523Y-78074170D01*
X129373542Y-78079059D01*
X129372518Y-78079401D01*
X129357288Y-78085227D01*
X129356131Y-78085738D01*
X129342650Y-78092502D01*
X129341376Y-78093236D01*
X129329644Y-78100937D01*
X129328302Y-78101951D01*
X129327256Y-78102857D01*
X129255578Y-78031179D01*
X129256484Y-78030132D01*
X129257498Y-78028791D01*
X129265199Y-78017059D01*
X129265933Y-78015785D01*
X129272697Y-78002304D01*
X129273208Y-78001147D01*
X129279034Y-77985917D01*
X129279376Y-77984893D01*
X129284265Y-77967912D01*
X129284487Y-77967020D01*
X129288439Y-77948290D01*
X129288578Y-77947518D01*
X129291593Y-77927038D01*
X129291673Y-77926369D01*
X129293750Y-77904139D01*
X129293791Y-77903561D01*
X129294931Y-77879582D01*
X129294945Y-77879079D01*
X129295072Y-77863009D01*
X129569006Y-77789430D01*
X129495427Y-78063364D01*
%TA.AperFunction,Conductor*%
D20*
G36*
X129495427Y-78063364D02*
G01*
X129479356Y-78063490D01*
X129478853Y-78063504D01*
X129454874Y-78064644D01*
X129454296Y-78064685D01*
X129432066Y-78066762D01*
X129431397Y-78066842D01*
X129410917Y-78069857D01*
X129410145Y-78069996D01*
X129391415Y-78073948D01*
X129390523Y-78074170D01*
X129373542Y-78079059D01*
X129372518Y-78079401D01*
X129357288Y-78085227D01*
X129356131Y-78085738D01*
X129342650Y-78092502D01*
X129341376Y-78093236D01*
X129329644Y-78100937D01*
X129328302Y-78101951D01*
X129327256Y-78102857D01*
X129255578Y-78031179D01*
X129256484Y-78030132D01*
X129257498Y-78028791D01*
X129265199Y-78017059D01*
X129265933Y-78015785D01*
X129272697Y-78002304D01*
X129273208Y-78001147D01*
X129279034Y-77985917D01*
X129279376Y-77984893D01*
X129284265Y-77967912D01*
X129284487Y-77967020D01*
X129288439Y-77948290D01*
X129288578Y-77947518D01*
X129291593Y-77927038D01*
X129291673Y-77926369D01*
X129293750Y-77904139D01*
X129293791Y-77903561D01*
X129294931Y-77879582D01*
X129294945Y-77879079D01*
X129295072Y-77863009D01*
X129569006Y-77789430D01*
X129495427Y-78063364D01*
G37*
%TD.AperFunction*%
%TD*%
D21*
%TO.N,/DAC_vminuspix*%
X132206958Y-81956783D02*
X132207024Y-81957706D01*
X132209874Y-81984046D01*
X132210016Y-81985012D01*
X132214766Y-82010444D01*
X132214993Y-82011436D01*
X132221643Y-82035960D01*
X132221959Y-82036959D01*
X132230509Y-82060575D01*
X132230913Y-82061561D01*
X132241363Y-82084270D01*
X132241850Y-82085221D01*
X132254200Y-82107022D01*
X132254758Y-82107918D01*
X132269008Y-82128811D01*
X132269622Y-82129637D01*
X132285772Y-82149622D01*
X132286425Y-82150368D01*
X132297972Y-82162572D01*
X132156200Y-82408474D01*
X132014428Y-82162572D01*
X132025975Y-82150368D01*
X132026628Y-82149622D01*
X132042778Y-82129637D01*
X132043392Y-82128811D01*
X132057642Y-82107918D01*
X132058200Y-82107022D01*
X132070550Y-82085221D01*
X132071037Y-82084270D01*
X132081487Y-82061561D01*
X132081891Y-82060575D01*
X132090441Y-82036959D01*
X132090757Y-82035960D01*
X132097407Y-82011436D01*
X132097634Y-82010444D01*
X132102384Y-81985012D01*
X132102526Y-81984046D01*
X132105376Y-81957706D01*
X132105442Y-81956783D01*
X132105965Y-81941793D01*
X132206435Y-81941793D01*
X132206958Y-81956783D01*
%TA.AperFunction,Conductor*%
D20*
G36*
X132206958Y-81956783D02*
G01*
X132207024Y-81957706D01*
X132209874Y-81984046D01*
X132210016Y-81985012D01*
X132214766Y-82010444D01*
X132214993Y-82011436D01*
X132221643Y-82035960D01*
X132221959Y-82036959D01*
X132230509Y-82060575D01*
X132230913Y-82061561D01*
X132241363Y-82084270D01*
X132241850Y-82085221D01*
X132254200Y-82107022D01*
X132254758Y-82107918D01*
X132269008Y-82128811D01*
X132269622Y-82129637D01*
X132285772Y-82149622D01*
X132286425Y-82150368D01*
X132297972Y-82162572D01*
X132156200Y-82408474D01*
X132014428Y-82162572D01*
X132025975Y-82150368D01*
X132026628Y-82149622D01*
X132042778Y-82129637D01*
X132043392Y-82128811D01*
X132057642Y-82107918D01*
X132058200Y-82107022D01*
X132070550Y-82085221D01*
X132071037Y-82084270D01*
X132081487Y-82061561D01*
X132081891Y-82060575D01*
X132090441Y-82036959D01*
X132090757Y-82035960D01*
X132097407Y-82011436D01*
X132097634Y-82010444D01*
X132102384Y-81985012D01*
X132102526Y-81984046D01*
X132105376Y-81957706D01*
X132105442Y-81956783D01*
X132105965Y-81941793D01*
X132206435Y-81941793D01*
X132206958Y-81956783D01*
G37*
%TD.AperFunction*%
%TD*%
D21*
%TO.N,/DAC_vminuspix*%
X132372787Y-80069978D02*
X132356667Y-80070127D01*
X132356127Y-80070143D01*
X132332040Y-80071391D01*
X132331424Y-80071438D01*
X132309014Y-80073695D01*
X132308310Y-80073786D01*
X132287578Y-80077053D01*
X132286774Y-80077206D01*
X132267720Y-80081482D01*
X132266806Y-80081724D01*
X132249429Y-80087009D01*
X132248397Y-80087371D01*
X132232698Y-80093666D01*
X132231558Y-80094191D01*
X132217537Y-80101495D01*
X132216310Y-80102224D01*
X132203966Y-80110537D01*
X132202701Y-80111509D01*
X132200977Y-80113016D01*
X132129383Y-80041422D01*
X132130890Y-80039697D01*
X132131862Y-80038433D01*
X132140175Y-80026089D01*
X132140904Y-80024862D01*
X132148208Y-80010841D01*
X132148733Y-80009701D01*
X132155028Y-79994002D01*
X132155390Y-79992970D01*
X132160675Y-79975593D01*
X132160917Y-79974679D01*
X132165193Y-79955625D01*
X132165346Y-79954821D01*
X132168613Y-79934089D01*
X132168704Y-79933385D01*
X132170961Y-79910975D01*
X132171008Y-79910359D01*
X132172256Y-79886272D01*
X132172272Y-79885733D01*
X132172422Y-79869613D01*
X132446370Y-79796030D01*
X132372787Y-80069978D01*
%TA.AperFunction,Conductor*%
D20*
G36*
X132372787Y-80069978D02*
G01*
X132356667Y-80070127D01*
X132356127Y-80070143D01*
X132332040Y-80071391D01*
X132331424Y-80071438D01*
X132309014Y-80073695D01*
X132308310Y-80073786D01*
X132287578Y-80077053D01*
X132286774Y-80077206D01*
X132267720Y-80081482D01*
X132266806Y-80081724D01*
X132249429Y-80087009D01*
X132248397Y-80087371D01*
X132232698Y-80093666D01*
X132231558Y-80094191D01*
X132217537Y-80101495D01*
X132216310Y-80102224D01*
X132203966Y-80110537D01*
X132202701Y-80111509D01*
X132200977Y-80113016D01*
X132129383Y-80041422D01*
X132130890Y-80039697D01*
X132131862Y-80038433D01*
X132140175Y-80026089D01*
X132140904Y-80024862D01*
X132148208Y-80010841D01*
X132148733Y-80009701D01*
X132155028Y-79994002D01*
X132155390Y-79992970D01*
X132160675Y-79975593D01*
X132160917Y-79974679D01*
X132165193Y-79955625D01*
X132165346Y-79954821D01*
X132168613Y-79934089D01*
X132168704Y-79933385D01*
X132170961Y-79910975D01*
X132171008Y-79910359D01*
X132172256Y-79886272D01*
X132172272Y-79885733D01*
X132172422Y-79869613D01*
X132446370Y-79796030D01*
X132372787Y-80069978D01*
G37*
%TD.AperFunction*%
%TD*%
D21*
%TO.N,/sr_ck2*%
X128582034Y-84594068D02*
X128582498Y-84610862D01*
X128582564Y-84611851D01*
X128585276Y-84637402D01*
X128585426Y-84638421D01*
X128590124Y-84663271D01*
X128590363Y-84664299D01*
X128597046Y-84688448D01*
X128597374Y-84689465D01*
X128606042Y-84712911D01*
X128606453Y-84713894D01*
X128617106Y-84736639D01*
X128617589Y-84737569D01*
X128630228Y-84759613D01*
X128630770Y-84760475D01*
X128645395Y-84781817D01*
X128645977Y-84782600D01*
X128662586Y-84803240D01*
X128663192Y-84803940D01*
X128673423Y-84814910D01*
X128602381Y-84885952D01*
X128591411Y-84875721D01*
X128590711Y-84875115D01*
X128570071Y-84858506D01*
X128569288Y-84857924D01*
X128547946Y-84843299D01*
X128547084Y-84842757D01*
X128525040Y-84830118D01*
X128524110Y-84829635D01*
X128501365Y-84818982D01*
X128500382Y-84818571D01*
X128476936Y-84809903D01*
X128475919Y-84809575D01*
X128451770Y-84802892D01*
X128450742Y-84802653D01*
X128425892Y-84797955D01*
X128424873Y-84797805D01*
X128399322Y-84795093D01*
X128398333Y-84795027D01*
X128381539Y-84794563D01*
X128307909Y-84520438D01*
X128582034Y-84594068D01*
%TA.AperFunction,Conductor*%
D20*
G36*
X128582034Y-84594068D02*
G01*
X128582498Y-84610862D01*
X128582564Y-84611851D01*
X128585276Y-84637402D01*
X128585426Y-84638421D01*
X128590124Y-84663271D01*
X128590363Y-84664299D01*
X128597046Y-84688448D01*
X128597374Y-84689465D01*
X128606042Y-84712911D01*
X128606453Y-84713894D01*
X128617106Y-84736639D01*
X128617589Y-84737569D01*
X128630228Y-84759613D01*
X128630770Y-84760475D01*
X128645395Y-84781817D01*
X128645977Y-84782600D01*
X128662586Y-84803240D01*
X128663192Y-84803940D01*
X128673423Y-84814910D01*
X128602381Y-84885952D01*
X128591411Y-84875721D01*
X128590711Y-84875115D01*
X128570071Y-84858506D01*
X128569288Y-84857924D01*
X128547946Y-84843299D01*
X128547084Y-84842757D01*
X128525040Y-84830118D01*
X128524110Y-84829635D01*
X128501365Y-84818982D01*
X128500382Y-84818571D01*
X128476936Y-84809903D01*
X128475919Y-84809575D01*
X128451770Y-84802892D01*
X128450742Y-84802653D01*
X128425892Y-84797955D01*
X128424873Y-84797805D01*
X128399322Y-84795093D01*
X128398333Y-84795027D01*
X128381539Y-84794563D01*
X128307909Y-84520438D01*
X128582034Y-84594068D01*
G37*
%TD.AperFunction*%
%TD*%
D21*
%TO.N,/sr_ck1*%
X128816738Y-79739955D02*
X128799943Y-79740419D01*
X128798954Y-79740485D01*
X128773403Y-79743197D01*
X128772384Y-79743347D01*
X128747534Y-79748045D01*
X128746506Y-79748284D01*
X128722357Y-79754967D01*
X128721340Y-79755295D01*
X128697894Y-79763963D01*
X128696911Y-79764374D01*
X128674166Y-79775027D01*
X128673236Y-79775510D01*
X128651192Y-79788149D01*
X128650330Y-79788691D01*
X128628988Y-79803316D01*
X128628205Y-79803898D01*
X128607565Y-79820507D01*
X128606865Y-79821114D01*
X128595896Y-79831344D01*
X128524854Y-79760302D01*
X128535084Y-79749332D01*
X128535690Y-79748632D01*
X128552299Y-79727992D01*
X128552881Y-79727209D01*
X128567506Y-79705867D01*
X128568048Y-79705005D01*
X128580687Y-79682961D01*
X128581170Y-79682031D01*
X128591823Y-79659286D01*
X128592234Y-79658303D01*
X128600902Y-79634857D01*
X128601230Y-79633840D01*
X128607913Y-79609691D01*
X128608152Y-79608663D01*
X128612850Y-79583813D01*
X128613000Y-79582794D01*
X128615712Y-79557243D01*
X128615778Y-79556255D01*
X128616243Y-79539460D01*
X128890368Y-79465830D01*
X128816738Y-79739955D01*
%TA.AperFunction,Conductor*%
D20*
G36*
X128816738Y-79739955D02*
G01*
X128799943Y-79740419D01*
X128798954Y-79740485D01*
X128773403Y-79743197D01*
X128772384Y-79743347D01*
X128747534Y-79748045D01*
X128746506Y-79748284D01*
X128722357Y-79754967D01*
X128721340Y-79755295D01*
X128697894Y-79763963D01*
X128696911Y-79764374D01*
X128674166Y-79775027D01*
X128673236Y-79775510D01*
X128651192Y-79788149D01*
X128650330Y-79788691D01*
X128628988Y-79803316D01*
X128628205Y-79803898D01*
X128607565Y-79820507D01*
X128606865Y-79821114D01*
X128595896Y-79831344D01*
X128524854Y-79760302D01*
X128535084Y-79749332D01*
X128535690Y-79748632D01*
X128552299Y-79727992D01*
X128552881Y-79727209D01*
X128567506Y-79705867D01*
X128568048Y-79705005D01*
X128580687Y-79682961D01*
X128581170Y-79682031D01*
X128591823Y-79659286D01*
X128592234Y-79658303D01*
X128600902Y-79634857D01*
X128601230Y-79633840D01*
X128607913Y-79609691D01*
X128608152Y-79608663D01*
X128612850Y-79583813D01*
X128613000Y-79582794D01*
X128615712Y-79557243D01*
X128615778Y-79556255D01*
X128616243Y-79539460D01*
X128890368Y-79465830D01*
X128816738Y-79739955D01*
G37*
%TD.AperFunction*%
%TD*%
D21*
%TO.N,/hold*%
X126906740Y-84440239D02*
X126895466Y-84451692D01*
X126895120Y-84452057D01*
X126878970Y-84469819D01*
X126878590Y-84470257D01*
X126864340Y-84487445D01*
X126863925Y-84487974D01*
X126851575Y-84504587D01*
X126851126Y-84505231D01*
X126840676Y-84521270D01*
X126840203Y-84522058D01*
X126831653Y-84537522D01*
X126831171Y-84538488D01*
X126824521Y-84553378D01*
X126824063Y-84554558D01*
X126819313Y-84568874D01*
X126818932Y-84570294D01*
X126816082Y-84584035D01*
X126815850Y-84585700D01*
X126815750Y-84587081D01*
X126714384Y-84587081D01*
X126714284Y-84585700D01*
X126714052Y-84584035D01*
X126711202Y-84570294D01*
X126710821Y-84568874D01*
X126706071Y-84554558D01*
X126705613Y-84553378D01*
X126698963Y-84538488D01*
X126698481Y-84537522D01*
X126689931Y-84522058D01*
X126689458Y-84521270D01*
X126679008Y-84505231D01*
X126678559Y-84504587D01*
X126666209Y-84487974D01*
X126665794Y-84487445D01*
X126651544Y-84470257D01*
X126651164Y-84469819D01*
X126635014Y-84452057D01*
X126634668Y-84451692D01*
X126623394Y-84440239D01*
X126765067Y-84194509D01*
X126906740Y-84440239D01*
%TA.AperFunction,Conductor*%
D20*
G36*
X126906740Y-84440239D02*
G01*
X126895466Y-84451692D01*
X126895120Y-84452057D01*
X126878970Y-84469819D01*
X126878590Y-84470257D01*
X126864340Y-84487445D01*
X126863925Y-84487974D01*
X126851575Y-84504587D01*
X126851126Y-84505231D01*
X126840676Y-84521270D01*
X126840203Y-84522058D01*
X126831653Y-84537522D01*
X126831171Y-84538488D01*
X126824521Y-84553378D01*
X126824063Y-84554558D01*
X126819313Y-84568874D01*
X126818932Y-84570294D01*
X126816082Y-84584035D01*
X126815850Y-84585700D01*
X126815750Y-84587081D01*
X126714384Y-84587081D01*
X126714284Y-84585700D01*
X126714052Y-84584035D01*
X126711202Y-84570294D01*
X126710821Y-84568874D01*
X126706071Y-84554558D01*
X126705613Y-84553378D01*
X126698963Y-84538488D01*
X126698481Y-84537522D01*
X126689931Y-84522058D01*
X126689458Y-84521270D01*
X126679008Y-84505231D01*
X126678559Y-84504587D01*
X126666209Y-84487974D01*
X126665794Y-84487445D01*
X126651544Y-84470257D01*
X126651164Y-84469819D01*
X126635014Y-84452057D01*
X126634668Y-84451692D01*
X126623394Y-84440239D01*
X126765067Y-84194509D01*
X126906740Y-84440239D01*
G37*
%TD.AperFunction*%
%TD*%
D21*
%TO.N,/hold*%
X130453544Y-102764098D02*
X130443314Y-102775067D01*
X130442707Y-102775767D01*
X130426098Y-102796407D01*
X130425516Y-102797190D01*
X130410891Y-102818532D01*
X130410349Y-102819394D01*
X130397710Y-102841438D01*
X130397227Y-102842368D01*
X130386574Y-102865113D01*
X130386163Y-102866096D01*
X130377495Y-102889542D01*
X130377167Y-102890559D01*
X130370484Y-102914708D01*
X130370245Y-102915736D01*
X130365547Y-102940586D01*
X130365397Y-102941605D01*
X130362685Y-102967156D01*
X130362619Y-102968145D01*
X130362155Y-102984940D01*
X130088030Y-103058570D01*
X130161660Y-102784445D01*
X130178455Y-102783980D01*
X130179443Y-102783914D01*
X130204994Y-102781202D01*
X130206013Y-102781052D01*
X130230863Y-102776354D01*
X130231891Y-102776115D01*
X130256040Y-102769432D01*
X130257057Y-102769104D01*
X130280503Y-102760436D01*
X130281486Y-102760025D01*
X130304231Y-102749372D01*
X130305161Y-102748889D01*
X130327205Y-102736250D01*
X130328067Y-102735708D01*
X130349409Y-102721083D01*
X130350192Y-102720501D01*
X130370832Y-102703892D01*
X130371532Y-102703286D01*
X130382502Y-102693056D01*
X130453544Y-102764098D01*
%TA.AperFunction,Conductor*%
D20*
G36*
X130453544Y-102764098D02*
G01*
X130443314Y-102775067D01*
X130442707Y-102775767D01*
X130426098Y-102796407D01*
X130425516Y-102797190D01*
X130410891Y-102818532D01*
X130410349Y-102819394D01*
X130397710Y-102841438D01*
X130397227Y-102842368D01*
X130386574Y-102865113D01*
X130386163Y-102866096D01*
X130377495Y-102889542D01*
X130377167Y-102890559D01*
X130370484Y-102914708D01*
X130370245Y-102915736D01*
X130365547Y-102940586D01*
X130365397Y-102941605D01*
X130362685Y-102967156D01*
X130362619Y-102968145D01*
X130362155Y-102984940D01*
X130088030Y-103058570D01*
X130161660Y-102784445D01*
X130178455Y-102783980D01*
X130179443Y-102783914D01*
X130204994Y-102781202D01*
X130206013Y-102781052D01*
X130230863Y-102776354D01*
X130231891Y-102776115D01*
X130256040Y-102769432D01*
X130257057Y-102769104D01*
X130280503Y-102760436D01*
X130281486Y-102760025D01*
X130304231Y-102749372D01*
X130305161Y-102748889D01*
X130327205Y-102736250D01*
X130328067Y-102735708D01*
X130349409Y-102721083D01*
X130350192Y-102720501D01*
X130370832Y-102703892D01*
X130371532Y-102703286D01*
X130382502Y-102693056D01*
X130453544Y-102764098D01*
G37*
%TD.AperFunction*%
%TD*%
D21*
%TO.N,/spi_left_csn*%
X118251771Y-72167841D02*
X118240225Y-72180044D01*
X118239572Y-72180791D01*
X118223422Y-72200776D01*
X118222808Y-72201602D01*
X118208558Y-72222495D01*
X118208000Y-72223391D01*
X118195650Y-72245192D01*
X118195163Y-72246143D01*
X118184713Y-72268852D01*
X118184309Y-72269838D01*
X118175759Y-72293454D01*
X118175443Y-72294453D01*
X118168793Y-72318977D01*
X118168566Y-72319969D01*
X118163816Y-72345401D01*
X118163674Y-72346367D01*
X118160824Y-72372707D01*
X118160758Y-72373630D01*
X118160235Y-72388621D01*
X118059765Y-72388621D01*
X118059242Y-72373630D01*
X118059176Y-72372707D01*
X118056326Y-72346367D01*
X118056184Y-72345401D01*
X118051434Y-72319969D01*
X118051207Y-72318977D01*
X118044557Y-72294453D01*
X118044241Y-72293454D01*
X118035691Y-72269838D01*
X118035287Y-72268852D01*
X118024837Y-72246143D01*
X118024350Y-72245192D01*
X118012000Y-72223391D01*
X118011442Y-72222495D01*
X117997192Y-72201602D01*
X117996578Y-72200776D01*
X117980428Y-72180791D01*
X117979775Y-72180044D01*
X117968229Y-72167841D01*
X118110000Y-71921940D01*
X118251771Y-72167841D01*
%TA.AperFunction,Conductor*%
D20*
G36*
X118251771Y-72167841D02*
G01*
X118240225Y-72180044D01*
X118239572Y-72180791D01*
X118223422Y-72200776D01*
X118222808Y-72201602D01*
X118208558Y-72222495D01*
X118208000Y-72223391D01*
X118195650Y-72245192D01*
X118195163Y-72246143D01*
X118184713Y-72268852D01*
X118184309Y-72269838D01*
X118175759Y-72293454D01*
X118175443Y-72294453D01*
X118168793Y-72318977D01*
X118168566Y-72319969D01*
X118163816Y-72345401D01*
X118163674Y-72346367D01*
X118160824Y-72372707D01*
X118160758Y-72373630D01*
X118160235Y-72388621D01*
X118059765Y-72388621D01*
X118059242Y-72373630D01*
X118059176Y-72372707D01*
X118056326Y-72346367D01*
X118056184Y-72345401D01*
X118051434Y-72319969D01*
X118051207Y-72318977D01*
X118044557Y-72294453D01*
X118044241Y-72293454D01*
X118035691Y-72269838D01*
X118035287Y-72268852D01*
X118024837Y-72246143D01*
X118024350Y-72245192D01*
X118012000Y-72223391D01*
X118011442Y-72222495D01*
X117997192Y-72201602D01*
X117996578Y-72200776D01*
X117980428Y-72180791D01*
X117979775Y-72180044D01*
X117968229Y-72167841D01*
X118110000Y-71921940D01*
X118251771Y-72167841D01*
G37*
%TD.AperFunction*%
%TD*%
D21*
%TO.N,/spi_left_clk*%
X118605991Y-74888360D02*
X118589920Y-74888486D01*
X118589417Y-74888500D01*
X118565438Y-74889640D01*
X118564860Y-74889681D01*
X118542630Y-74891758D01*
X118541961Y-74891838D01*
X118521481Y-74894853D01*
X118520709Y-74894992D01*
X118501979Y-74898944D01*
X118501087Y-74899166D01*
X118484106Y-74904055D01*
X118483082Y-74904397D01*
X118467852Y-74910223D01*
X118466695Y-74910734D01*
X118453214Y-74917498D01*
X118451940Y-74918232D01*
X118440208Y-74925933D01*
X118438866Y-74926947D01*
X118437820Y-74927853D01*
X118366142Y-74856175D01*
X118367048Y-74855128D01*
X118368062Y-74853787D01*
X118375763Y-74842055D01*
X118376497Y-74840781D01*
X118383261Y-74827300D01*
X118383772Y-74826143D01*
X118389598Y-74810913D01*
X118389940Y-74809889D01*
X118394829Y-74792908D01*
X118395051Y-74792016D01*
X118399003Y-74773286D01*
X118399142Y-74772514D01*
X118402157Y-74752034D01*
X118402237Y-74751365D01*
X118404314Y-74729135D01*
X118404355Y-74728557D01*
X118405495Y-74704578D01*
X118405509Y-74704075D01*
X118405636Y-74688005D01*
X118679570Y-74614426D01*
X118605991Y-74888360D01*
%TA.AperFunction,Conductor*%
D20*
G36*
X118605991Y-74888360D02*
G01*
X118589920Y-74888486D01*
X118589417Y-74888500D01*
X118565438Y-74889640D01*
X118564860Y-74889681D01*
X118542630Y-74891758D01*
X118541961Y-74891838D01*
X118521481Y-74894853D01*
X118520709Y-74894992D01*
X118501979Y-74898944D01*
X118501087Y-74899166D01*
X118484106Y-74904055D01*
X118483082Y-74904397D01*
X118467852Y-74910223D01*
X118466695Y-74910734D01*
X118453214Y-74917498D01*
X118451940Y-74918232D01*
X118440208Y-74925933D01*
X118438866Y-74926947D01*
X118437820Y-74927853D01*
X118366142Y-74856175D01*
X118367048Y-74855128D01*
X118368062Y-74853787D01*
X118375763Y-74842055D01*
X118376497Y-74840781D01*
X118383261Y-74827300D01*
X118383772Y-74826143D01*
X118389598Y-74810913D01*
X118389940Y-74809889D01*
X118394829Y-74792908D01*
X118395051Y-74792016D01*
X118399003Y-74773286D01*
X118399142Y-74772514D01*
X118402157Y-74752034D01*
X118402237Y-74751365D01*
X118404314Y-74729135D01*
X118404355Y-74728557D01*
X118405495Y-74704578D01*
X118405509Y-74704075D01*
X118405636Y-74688005D01*
X118679570Y-74614426D01*
X118605991Y-74888360D01*
G37*
%TD.AperFunction*%
%TD*%
D21*
%TO.N,/spi_left_mosi*%
X121399940Y-74888555D02*
X121383145Y-74889019D01*
X121382156Y-74889085D01*
X121356605Y-74891797D01*
X121355586Y-74891947D01*
X121330736Y-74896645D01*
X121329708Y-74896884D01*
X121305559Y-74903567D01*
X121304542Y-74903895D01*
X121281096Y-74912563D01*
X121280113Y-74912974D01*
X121257368Y-74923627D01*
X121256438Y-74924110D01*
X121234394Y-74936749D01*
X121233532Y-74937291D01*
X121212190Y-74951916D01*
X121211407Y-74952498D01*
X121190767Y-74969107D01*
X121190067Y-74969714D01*
X121179098Y-74979944D01*
X121108056Y-74908902D01*
X121118286Y-74897932D01*
X121118892Y-74897232D01*
X121135501Y-74876592D01*
X121136083Y-74875809D01*
X121150708Y-74854467D01*
X121151250Y-74853605D01*
X121163889Y-74831561D01*
X121164372Y-74830631D01*
X121175025Y-74807886D01*
X121175436Y-74806903D01*
X121184104Y-74783457D01*
X121184432Y-74782440D01*
X121191115Y-74758291D01*
X121191354Y-74757263D01*
X121196052Y-74732413D01*
X121196202Y-74731394D01*
X121198914Y-74705843D01*
X121198980Y-74704855D01*
X121199445Y-74688060D01*
X121473570Y-74614430D01*
X121399940Y-74888555D01*
%TA.AperFunction,Conductor*%
D20*
G36*
X121399940Y-74888555D02*
G01*
X121383145Y-74889019D01*
X121382156Y-74889085D01*
X121356605Y-74891797D01*
X121355586Y-74891947D01*
X121330736Y-74896645D01*
X121329708Y-74896884D01*
X121305559Y-74903567D01*
X121304542Y-74903895D01*
X121281096Y-74912563D01*
X121280113Y-74912974D01*
X121257368Y-74923627D01*
X121256438Y-74924110D01*
X121234394Y-74936749D01*
X121233532Y-74937291D01*
X121212190Y-74951916D01*
X121211407Y-74952498D01*
X121190767Y-74969107D01*
X121190067Y-74969714D01*
X121179098Y-74979944D01*
X121108056Y-74908902D01*
X121118286Y-74897932D01*
X121118892Y-74897232D01*
X121135501Y-74876592D01*
X121136083Y-74875809D01*
X121150708Y-74854467D01*
X121151250Y-74853605D01*
X121163889Y-74831561D01*
X121164372Y-74830631D01*
X121175025Y-74807886D01*
X121175436Y-74806903D01*
X121184104Y-74783457D01*
X121184432Y-74782440D01*
X121191115Y-74758291D01*
X121191354Y-74757263D01*
X121196052Y-74732413D01*
X121196202Y-74731394D01*
X121198914Y-74705843D01*
X121198980Y-74704855D01*
X121199445Y-74688060D01*
X121473570Y-74614430D01*
X121399940Y-74888555D01*
G37*
%TD.AperFunction*%
%TD*%
D21*
%TO.N,/spi_left_miso0*%
X120383940Y-72094557D02*
X120367145Y-72095021D01*
X120366156Y-72095087D01*
X120340605Y-72097799D01*
X120339586Y-72097949D01*
X120314736Y-72102647D01*
X120313708Y-72102886D01*
X120289559Y-72109569D01*
X120288542Y-72109897D01*
X120265096Y-72118565D01*
X120264113Y-72118976D01*
X120241368Y-72129629D01*
X120240438Y-72130112D01*
X120218394Y-72142751D01*
X120217532Y-72143293D01*
X120196190Y-72157918D01*
X120195407Y-72158500D01*
X120174767Y-72175109D01*
X120174067Y-72175716D01*
X120163098Y-72185946D01*
X120092056Y-72114904D01*
X120102286Y-72103934D01*
X120102892Y-72103234D01*
X120119501Y-72082594D01*
X120120083Y-72081811D01*
X120134708Y-72060469D01*
X120135250Y-72059607D01*
X120147889Y-72037563D01*
X120148372Y-72036633D01*
X120159025Y-72013888D01*
X120159436Y-72012905D01*
X120168104Y-71989459D01*
X120168432Y-71988442D01*
X120175115Y-71964293D01*
X120175354Y-71963265D01*
X120180052Y-71938415D01*
X120180202Y-71937396D01*
X120182914Y-71911845D01*
X120182980Y-71910857D01*
X120183445Y-71894062D01*
X120457570Y-71820432D01*
X120383940Y-72094557D01*
%TA.AperFunction,Conductor*%
D20*
G36*
X120383940Y-72094557D02*
G01*
X120367145Y-72095021D01*
X120366156Y-72095087D01*
X120340605Y-72097799D01*
X120339586Y-72097949D01*
X120314736Y-72102647D01*
X120313708Y-72102886D01*
X120289559Y-72109569D01*
X120288542Y-72109897D01*
X120265096Y-72118565D01*
X120264113Y-72118976D01*
X120241368Y-72129629D01*
X120240438Y-72130112D01*
X120218394Y-72142751D01*
X120217532Y-72143293D01*
X120196190Y-72157918D01*
X120195407Y-72158500D01*
X120174767Y-72175109D01*
X120174067Y-72175716D01*
X120163098Y-72185946D01*
X120092056Y-72114904D01*
X120102286Y-72103934D01*
X120102892Y-72103234D01*
X120119501Y-72082594D01*
X120120083Y-72081811D01*
X120134708Y-72060469D01*
X120135250Y-72059607D01*
X120147889Y-72037563D01*
X120148372Y-72036633D01*
X120159025Y-72013888D01*
X120159436Y-72012905D01*
X120168104Y-71989459D01*
X120168432Y-71988442D01*
X120175115Y-71964293D01*
X120175354Y-71963265D01*
X120180052Y-71938415D01*
X120180202Y-71937396D01*
X120182914Y-71911845D01*
X120182980Y-71910857D01*
X120183445Y-71894062D01*
X120457570Y-71820432D01*
X120383940Y-72094557D01*
G37*
%TD.AperFunction*%
%TD*%
D21*
%TO.N,/spi_left_miso1*%
X119521771Y-72040827D02*
X119510225Y-72053030D01*
X119509572Y-72053777D01*
X119493422Y-72073762D01*
X119492808Y-72074588D01*
X119478558Y-72095481D01*
X119478000Y-72096377D01*
X119465650Y-72118178D01*
X119465163Y-72119129D01*
X119454713Y-72141838D01*
X119454309Y-72142824D01*
X119445759Y-72166440D01*
X119445443Y-72167439D01*
X119438793Y-72191963D01*
X119438566Y-72192955D01*
X119433816Y-72218387D01*
X119433674Y-72219353D01*
X119430824Y-72245693D01*
X119430758Y-72246616D01*
X119430235Y-72261607D01*
X119329765Y-72261607D01*
X119329242Y-72246616D01*
X119329176Y-72245693D01*
X119326326Y-72219353D01*
X119326184Y-72218387D01*
X119321434Y-72192955D01*
X119321207Y-72191963D01*
X119314557Y-72167439D01*
X119314241Y-72166440D01*
X119305691Y-72142824D01*
X119305287Y-72141838D01*
X119294837Y-72119129D01*
X119294350Y-72118178D01*
X119282000Y-72096377D01*
X119281442Y-72095481D01*
X119267192Y-72074588D01*
X119266578Y-72073762D01*
X119250428Y-72053777D01*
X119249775Y-72053030D01*
X119238229Y-72040827D01*
X119380000Y-71794926D01*
X119521771Y-72040827D01*
%TA.AperFunction,Conductor*%
D20*
G36*
X119521771Y-72040827D02*
G01*
X119510225Y-72053030D01*
X119509572Y-72053777D01*
X119493422Y-72073762D01*
X119492808Y-72074588D01*
X119478558Y-72095481D01*
X119478000Y-72096377D01*
X119465650Y-72118178D01*
X119465163Y-72119129D01*
X119454713Y-72141838D01*
X119454309Y-72142824D01*
X119445759Y-72166440D01*
X119445443Y-72167439D01*
X119438793Y-72191963D01*
X119438566Y-72192955D01*
X119433816Y-72218387D01*
X119433674Y-72219353D01*
X119430824Y-72245693D01*
X119430758Y-72246616D01*
X119430235Y-72261607D01*
X119329765Y-72261607D01*
X119329242Y-72246616D01*
X119329176Y-72245693D01*
X119326326Y-72219353D01*
X119326184Y-72218387D01*
X119321434Y-72192955D01*
X119321207Y-72191963D01*
X119314557Y-72167439D01*
X119314241Y-72166440D01*
X119305691Y-72142824D01*
X119305287Y-72141838D01*
X119294837Y-72119129D01*
X119294350Y-72118178D01*
X119282000Y-72096377D01*
X119281442Y-72095481D01*
X119267192Y-72074588D01*
X119266578Y-72073762D01*
X119250428Y-72053777D01*
X119249775Y-72053030D01*
X119238229Y-72040827D01*
X119380000Y-71794926D01*
X119521771Y-72040827D01*
G37*
%TD.AperFunction*%
%TD*%
D21*
%TO.N,/spi_right_csn*%
X136999261Y-74682401D02*
X136987715Y-74694604D01*
X136987062Y-74695351D01*
X136970912Y-74715336D01*
X136970298Y-74716162D01*
X136956048Y-74737055D01*
X136955490Y-74737951D01*
X136943140Y-74759752D01*
X136942653Y-74760703D01*
X136932203Y-74783412D01*
X136931799Y-74784398D01*
X136923249Y-74808014D01*
X136922933Y-74809013D01*
X136916283Y-74833537D01*
X136916056Y-74834529D01*
X136911306Y-74859961D01*
X136911164Y-74860927D01*
X136908314Y-74887267D01*
X136908248Y-74888190D01*
X136907725Y-74903181D01*
X136807255Y-74903181D01*
X136806732Y-74888190D01*
X136806666Y-74887267D01*
X136803816Y-74860927D01*
X136803674Y-74859961D01*
X136798924Y-74834529D01*
X136798697Y-74833537D01*
X136792047Y-74809013D01*
X136791731Y-74808014D01*
X136783181Y-74784398D01*
X136782777Y-74783412D01*
X136772327Y-74760703D01*
X136771840Y-74759752D01*
X136759490Y-74737951D01*
X136758932Y-74737055D01*
X136744682Y-74716162D01*
X136744068Y-74715336D01*
X136727918Y-74695351D01*
X136727265Y-74694604D01*
X136715719Y-74682401D01*
X136857490Y-74436500D01*
X136999261Y-74682401D01*
%TA.AperFunction,Conductor*%
D20*
G36*
X136999261Y-74682401D02*
G01*
X136987715Y-74694604D01*
X136987062Y-74695351D01*
X136970912Y-74715336D01*
X136970298Y-74716162D01*
X136956048Y-74737055D01*
X136955490Y-74737951D01*
X136943140Y-74759752D01*
X136942653Y-74760703D01*
X136932203Y-74783412D01*
X136931799Y-74784398D01*
X136923249Y-74808014D01*
X136922933Y-74809013D01*
X136916283Y-74833537D01*
X136916056Y-74834529D01*
X136911306Y-74859961D01*
X136911164Y-74860927D01*
X136908314Y-74887267D01*
X136908248Y-74888190D01*
X136907725Y-74903181D01*
X136807255Y-74903181D01*
X136806732Y-74888190D01*
X136806666Y-74887267D01*
X136803816Y-74860927D01*
X136803674Y-74859961D01*
X136798924Y-74834529D01*
X136798697Y-74833537D01*
X136792047Y-74809013D01*
X136791731Y-74808014D01*
X136783181Y-74784398D01*
X136782777Y-74783412D01*
X136772327Y-74760703D01*
X136771840Y-74759752D01*
X136759490Y-74737951D01*
X136758932Y-74737055D01*
X136744682Y-74716162D01*
X136744068Y-74715336D01*
X136727918Y-74695351D01*
X136727265Y-74694604D01*
X136715719Y-74682401D01*
X136857490Y-74436500D01*
X136999261Y-74682401D01*
G37*
%TD.AperFunction*%
%TD*%
D21*
%TO.N,/spi_right_clk*%
X135650771Y-71786827D02*
X135639225Y-71799030D01*
X135638572Y-71799777D01*
X135622422Y-71819762D01*
X135621808Y-71820588D01*
X135607558Y-71841481D01*
X135607000Y-71842377D01*
X135594650Y-71864178D01*
X135594163Y-71865129D01*
X135583713Y-71887838D01*
X135583309Y-71888824D01*
X135574759Y-71912440D01*
X135574443Y-71913439D01*
X135567793Y-71937963D01*
X135567566Y-71938955D01*
X135562816Y-71964387D01*
X135562674Y-71965353D01*
X135559824Y-71991693D01*
X135559758Y-71992616D01*
X135559235Y-72007607D01*
X135458765Y-72007607D01*
X135458242Y-71992616D01*
X135458176Y-71991693D01*
X135455326Y-71965353D01*
X135455184Y-71964387D01*
X135450434Y-71938955D01*
X135450207Y-71937963D01*
X135443557Y-71913439D01*
X135443241Y-71912440D01*
X135434691Y-71888824D01*
X135434287Y-71887838D01*
X135423837Y-71865129D01*
X135423350Y-71864178D01*
X135411000Y-71842377D01*
X135410442Y-71841481D01*
X135396192Y-71820588D01*
X135395578Y-71819762D01*
X135379428Y-71799777D01*
X135378775Y-71799030D01*
X135367229Y-71786827D01*
X135509000Y-71540926D01*
X135650771Y-71786827D01*
%TA.AperFunction,Conductor*%
D20*
G36*
X135650771Y-71786827D02*
G01*
X135639225Y-71799030D01*
X135638572Y-71799777D01*
X135622422Y-71819762D01*
X135621808Y-71820588D01*
X135607558Y-71841481D01*
X135607000Y-71842377D01*
X135594650Y-71864178D01*
X135594163Y-71865129D01*
X135583713Y-71887838D01*
X135583309Y-71888824D01*
X135574759Y-71912440D01*
X135574443Y-71913439D01*
X135567793Y-71937963D01*
X135567566Y-71938955D01*
X135562816Y-71964387D01*
X135562674Y-71965353D01*
X135559824Y-71991693D01*
X135559758Y-71992616D01*
X135559235Y-72007607D01*
X135458765Y-72007607D01*
X135458242Y-71992616D01*
X135458176Y-71991693D01*
X135455326Y-71965353D01*
X135455184Y-71964387D01*
X135450434Y-71938955D01*
X135450207Y-71937963D01*
X135443557Y-71913439D01*
X135443241Y-71912440D01*
X135434691Y-71888824D01*
X135434287Y-71887838D01*
X135423837Y-71865129D01*
X135423350Y-71864178D01*
X135411000Y-71842377D01*
X135410442Y-71841481D01*
X135396192Y-71820588D01*
X135395578Y-71819762D01*
X135379428Y-71799777D01*
X135378775Y-71799030D01*
X135367229Y-71786827D01*
X135509000Y-71540926D01*
X135650771Y-71786827D01*
G37*
%TD.AperFunction*%
%TD*%
D21*
%TO.N,/spi_right_mosi*%
X137936771Y-71913827D02*
X137925225Y-71926030D01*
X137924572Y-71926777D01*
X137908422Y-71946762D01*
X137907808Y-71947588D01*
X137893558Y-71968481D01*
X137893000Y-71969377D01*
X137880650Y-71991178D01*
X137880163Y-71992129D01*
X137869713Y-72014838D01*
X137869309Y-72015824D01*
X137860759Y-72039440D01*
X137860443Y-72040439D01*
X137853793Y-72064963D01*
X137853566Y-72065955D01*
X137848816Y-72091387D01*
X137848674Y-72092353D01*
X137845824Y-72118693D01*
X137845758Y-72119616D01*
X137845235Y-72134607D01*
X137744765Y-72134607D01*
X137744242Y-72119616D01*
X137744176Y-72118693D01*
X137741326Y-72092353D01*
X137741184Y-72091387D01*
X137736434Y-72065955D01*
X137736207Y-72064963D01*
X137729557Y-72040439D01*
X137729241Y-72039440D01*
X137720691Y-72015824D01*
X137720287Y-72014838D01*
X137709837Y-71992129D01*
X137709350Y-71991178D01*
X137697000Y-71969377D01*
X137696442Y-71968481D01*
X137682192Y-71947588D01*
X137681578Y-71946762D01*
X137665428Y-71926777D01*
X137664775Y-71926030D01*
X137653229Y-71913827D01*
X137795000Y-71667926D01*
X137936771Y-71913827D01*
%TA.AperFunction,Conductor*%
D20*
G36*
X137936771Y-71913827D02*
G01*
X137925225Y-71926030D01*
X137924572Y-71926777D01*
X137908422Y-71946762D01*
X137907808Y-71947588D01*
X137893558Y-71968481D01*
X137893000Y-71969377D01*
X137880650Y-71991178D01*
X137880163Y-71992129D01*
X137869713Y-72014838D01*
X137869309Y-72015824D01*
X137860759Y-72039440D01*
X137860443Y-72040439D01*
X137853793Y-72064963D01*
X137853566Y-72065955D01*
X137848816Y-72091387D01*
X137848674Y-72092353D01*
X137845824Y-72118693D01*
X137845758Y-72119616D01*
X137845235Y-72134607D01*
X137744765Y-72134607D01*
X137744242Y-72119616D01*
X137744176Y-72118693D01*
X137741326Y-72092353D01*
X137741184Y-72091387D01*
X137736434Y-72065955D01*
X137736207Y-72064963D01*
X137729557Y-72040439D01*
X137729241Y-72039440D01*
X137720691Y-72015824D01*
X137720287Y-72014838D01*
X137709837Y-71992129D01*
X137709350Y-71991178D01*
X137697000Y-71969377D01*
X137696442Y-71968481D01*
X137682192Y-71947588D01*
X137681578Y-71946762D01*
X137665428Y-71926777D01*
X137664775Y-71926030D01*
X137653229Y-71913827D01*
X137795000Y-71667926D01*
X137936771Y-71913827D01*
G37*
%TD.AperFunction*%
%TD*%
D21*
%TO.N,/spi_right_miso0*%
X136211771Y-74786229D02*
X136200225Y-74798432D01*
X136199572Y-74799179D01*
X136183422Y-74819164D01*
X136182808Y-74819990D01*
X136168558Y-74840883D01*
X136168000Y-74841779D01*
X136155650Y-74863580D01*
X136155163Y-74864531D01*
X136144713Y-74887240D01*
X136144309Y-74888226D01*
X136135759Y-74911842D01*
X136135443Y-74912841D01*
X136128793Y-74937365D01*
X136128566Y-74938357D01*
X136123816Y-74963789D01*
X136123674Y-74964755D01*
X136120824Y-74991095D01*
X136120758Y-74992018D01*
X136120235Y-75007009D01*
X136019765Y-75007009D01*
X136019242Y-74992018D01*
X136019176Y-74991095D01*
X136016326Y-74964755D01*
X136016184Y-74963789D01*
X136011434Y-74938357D01*
X136011207Y-74937365D01*
X136004557Y-74912841D01*
X136004241Y-74911842D01*
X135995691Y-74888226D01*
X135995287Y-74887240D01*
X135984837Y-74864531D01*
X135984350Y-74863580D01*
X135972000Y-74841779D01*
X135971442Y-74840883D01*
X135957192Y-74819990D01*
X135956578Y-74819164D01*
X135940428Y-74799179D01*
X135939775Y-74798432D01*
X135928229Y-74786229D01*
X136070000Y-74540328D01*
X136211771Y-74786229D01*
%TA.AperFunction,Conductor*%
D20*
G36*
X136211771Y-74786229D02*
G01*
X136200225Y-74798432D01*
X136199572Y-74799179D01*
X136183422Y-74819164D01*
X136182808Y-74819990D01*
X136168558Y-74840883D01*
X136168000Y-74841779D01*
X136155650Y-74863580D01*
X136155163Y-74864531D01*
X136144713Y-74887240D01*
X136144309Y-74888226D01*
X136135759Y-74911842D01*
X136135443Y-74912841D01*
X136128793Y-74937365D01*
X136128566Y-74938357D01*
X136123816Y-74963789D01*
X136123674Y-74964755D01*
X136120824Y-74991095D01*
X136120758Y-74992018D01*
X136120235Y-75007009D01*
X136019765Y-75007009D01*
X136019242Y-74992018D01*
X136019176Y-74991095D01*
X136016326Y-74964755D01*
X136016184Y-74963789D01*
X136011434Y-74938357D01*
X136011207Y-74937365D01*
X136004557Y-74912841D01*
X136004241Y-74911842D01*
X135995691Y-74888226D01*
X135995287Y-74887240D01*
X135984837Y-74864531D01*
X135984350Y-74863580D01*
X135972000Y-74841779D01*
X135971442Y-74840883D01*
X135957192Y-74819990D01*
X135956578Y-74819164D01*
X135940428Y-74799179D01*
X135939775Y-74798432D01*
X135928229Y-74786229D01*
X136070000Y-74540328D01*
X136211771Y-74786229D01*
G37*
%TD.AperFunction*%
%TD*%
D21*
%TO.N,/spi_right_miso1*%
X135396771Y-74808417D02*
X135385225Y-74820620D01*
X135384572Y-74821367D01*
X135368422Y-74841352D01*
X135367808Y-74842178D01*
X135353558Y-74863071D01*
X135353000Y-74863967D01*
X135340650Y-74885768D01*
X135340163Y-74886719D01*
X135329713Y-74909428D01*
X135329309Y-74910414D01*
X135320759Y-74934030D01*
X135320443Y-74935029D01*
X135313793Y-74959553D01*
X135313566Y-74960545D01*
X135308816Y-74985977D01*
X135308674Y-74986943D01*
X135305824Y-75013283D01*
X135305758Y-75014206D01*
X135305235Y-75029197D01*
X135204765Y-75029197D01*
X135204242Y-75014206D01*
X135204176Y-75013283D01*
X135201326Y-74986943D01*
X135201184Y-74985977D01*
X135196434Y-74960545D01*
X135196207Y-74959553D01*
X135189557Y-74935029D01*
X135189241Y-74934030D01*
X135180691Y-74910414D01*
X135180287Y-74909428D01*
X135169837Y-74886719D01*
X135169350Y-74885768D01*
X135157000Y-74863967D01*
X135156442Y-74863071D01*
X135142192Y-74842178D01*
X135141578Y-74841352D01*
X135125428Y-74821367D01*
X135124775Y-74820620D01*
X135113229Y-74808417D01*
X135255000Y-74562516D01*
X135396771Y-74808417D01*
%TA.AperFunction,Conductor*%
D20*
G36*
X135396771Y-74808417D02*
G01*
X135385225Y-74820620D01*
X135384572Y-74821367D01*
X135368422Y-74841352D01*
X135367808Y-74842178D01*
X135353558Y-74863071D01*
X135353000Y-74863967D01*
X135340650Y-74885768D01*
X135340163Y-74886719D01*
X135329713Y-74909428D01*
X135329309Y-74910414D01*
X135320759Y-74934030D01*
X135320443Y-74935029D01*
X135313793Y-74959553D01*
X135313566Y-74960545D01*
X135308816Y-74985977D01*
X135308674Y-74986943D01*
X135305824Y-75013283D01*
X135305758Y-75014206D01*
X135305235Y-75029197D01*
X135204765Y-75029197D01*
X135204242Y-75014206D01*
X135204176Y-75013283D01*
X135201326Y-74986943D01*
X135201184Y-74985977D01*
X135196434Y-74960545D01*
X135196207Y-74959553D01*
X135189557Y-74935029D01*
X135189241Y-74934030D01*
X135180691Y-74910414D01*
X135180287Y-74909428D01*
X135169837Y-74886719D01*
X135169350Y-74885768D01*
X135157000Y-74863967D01*
X135156442Y-74863071D01*
X135142192Y-74842178D01*
X135141578Y-74841352D01*
X135125428Y-74821367D01*
X135124775Y-74820620D01*
X135113229Y-74808417D01*
X135255000Y-74562516D01*
X135396771Y-74808417D01*
G37*
%TD.AperFunction*%
%TD*%
M02*
