%TF.GenerationSoftware,KiCad,Pcbnew,(5.1.10)-1*%
%TF.CreationDate,2021-07-22T16:49:50+02:00*%
%TF.ProjectId,astropix_v2,61737472-6f70-4697-985f-76322e6b6963,1.0*%
%TF.SameCoordinates,Original*%
%TF.FileFunction,Legend,Top*%
%TF.FilePolarity,Positive*%
%FSLAX46Y46*%
G04 Gerber Fmt 4.6, Leading zero omitted, Abs format (unit mm)*
G04 Created by KiCad (PCBNEW (5.1.10)-1) date 2021-07-22 16:49:50*
%MOMM*%
%LPD*%
G01*
G04 APERTURE LIST*
%ADD10C,0.200000*%
%ADD11C,0.100000*%
%ADD12C,0.300000*%
%ADD13C,0.120000*%
%ADD14C,0.150000*%
%ADD15C,0.010000*%
%ADD16R,0.700000X4.300000*%
%ADD17R,0.700000X3.200000*%
%ADD18C,0.600000*%
%ADD19R,0.600000X0.125000*%
%ADD20R,0.125000X0.500000*%
%ADD21R,0.125000X0.600000*%
%ADD22R,9.800000X10.500000*%
%ADD23O,1.700000X1.700000*%
%ADD24R,1.700000X1.700000*%
%ADD25R,0.629999X0.349999*%
%ADD26R,0.299999X0.579999*%
%ADD27R,1.060000X0.650000*%
%ADD28C,2.000000*%
%ADD29C,2.250000*%
%ADD30C,3.200000*%
%ADD31C,0.450000*%
G04 APERTURE END LIST*
D10*
X108458000Y-86995000D02*
X109093000Y-86995000D01*
X116713000Y-74422000D02*
X105537000Y-74422000D01*
X116713000Y-86995000D02*
X116713000Y-74422000D01*
X115570000Y-86995000D02*
X116713000Y-86995000D01*
X108458000Y-91059000D02*
X108458000Y-86995000D01*
X110236000Y-91059000D02*
X108458000Y-91059000D01*
X107188000Y-101981000D02*
X110236000Y-97790000D01*
X107188000Y-108712000D02*
X107188000Y-101981000D01*
D11*
G36*
X152908000Y-100330000D02*
G01*
X141630400Y-100330000D01*
X141630400Y-93472000D01*
X152908000Y-93472000D01*
X152908000Y-100330000D01*
G37*
X152908000Y-100330000D02*
X141630400Y-100330000D01*
X141630400Y-93472000D01*
X152908000Y-93472000D01*
X152908000Y-100330000D01*
D12*
X121606952Y-59515333D02*
X122559333Y-59515333D01*
X121416476Y-60086761D02*
X122083142Y-58086761D01*
X122749809Y-60086761D01*
X123321238Y-59991523D02*
X123511714Y-60086761D01*
X123892666Y-60086761D01*
X124083142Y-59991523D01*
X124178380Y-59801047D01*
X124178380Y-59705809D01*
X124083142Y-59515333D01*
X123892666Y-59420095D01*
X123606952Y-59420095D01*
X123416476Y-59324857D01*
X123321238Y-59134380D01*
X123321238Y-59039142D01*
X123416476Y-58848666D01*
X123606952Y-58753428D01*
X123892666Y-58753428D01*
X124083142Y-58848666D01*
X124749809Y-58753428D02*
X125511714Y-58753428D01*
X125035523Y-58086761D02*
X125035523Y-59801047D01*
X125130761Y-59991523D01*
X125321238Y-60086761D01*
X125511714Y-60086761D01*
X126178380Y-60086761D02*
X126178380Y-58753428D01*
X126178380Y-59134380D02*
X126273619Y-58943904D01*
X126368857Y-58848666D01*
X126559333Y-58753428D01*
X126749809Y-58753428D01*
X127702190Y-60086761D02*
X127511714Y-59991523D01*
X127416476Y-59896285D01*
X127321238Y-59705809D01*
X127321238Y-59134380D01*
X127416476Y-58943904D01*
X127511714Y-58848666D01*
X127702190Y-58753428D01*
X127987904Y-58753428D01*
X128178380Y-58848666D01*
X128273619Y-58943904D01*
X128368857Y-59134380D01*
X128368857Y-59705809D01*
X128273619Y-59896285D01*
X128178380Y-59991523D01*
X127987904Y-60086761D01*
X127702190Y-60086761D01*
X129226000Y-60086761D02*
X129226000Y-58086761D01*
X129987904Y-58086761D01*
X130178380Y-58182000D01*
X130273619Y-58277238D01*
X130368857Y-58467714D01*
X130368857Y-58753428D01*
X130273619Y-58943904D01*
X130178380Y-59039142D01*
X129987904Y-59134380D01*
X129226000Y-59134380D01*
X131226000Y-60086761D02*
X131226000Y-58753428D01*
X131226000Y-58086761D02*
X131130761Y-58182000D01*
X131226000Y-58277238D01*
X131321238Y-58182000D01*
X131226000Y-58086761D01*
X131226000Y-58277238D01*
X131987904Y-60086761D02*
X133035523Y-58753428D01*
X131987904Y-58753428D02*
X133035523Y-60086761D01*
X133702190Y-58277238D02*
X133797428Y-58182000D01*
X133987904Y-58086761D01*
X134464095Y-58086761D01*
X134654571Y-58182000D01*
X134749809Y-58277238D01*
X134845047Y-58467714D01*
X134845047Y-58658190D01*
X134749809Y-58943904D01*
X133606952Y-60086761D01*
X134845047Y-60086761D01*
D10*
X110658076Y-57929504D02*
X110658076Y-57129504D01*
X111115219Y-57929504D01*
X111115219Y-57129504D01*
X111496171Y-57853314D02*
X111534266Y-57891409D01*
X111496171Y-57929504D01*
X111458076Y-57891409D01*
X111496171Y-57853314D01*
X111496171Y-57929504D01*
X112448552Y-57891409D02*
X112562838Y-57929504D01*
X112753314Y-57929504D01*
X112829504Y-57891409D01*
X112867600Y-57853314D01*
X112905695Y-57777123D01*
X112905695Y-57700933D01*
X112867600Y-57624742D01*
X112829504Y-57586647D01*
X112753314Y-57548552D01*
X112600933Y-57510457D01*
X112524742Y-57472361D01*
X112486647Y-57434266D01*
X112448552Y-57358076D01*
X112448552Y-57281885D01*
X112486647Y-57205695D01*
X112524742Y-57167600D01*
X112600933Y-57129504D01*
X112791409Y-57129504D01*
X112905695Y-57167600D01*
X113134266Y-57396171D02*
X113439028Y-57396171D01*
X113248552Y-57129504D02*
X113248552Y-57815219D01*
X113286647Y-57891409D01*
X113362838Y-57929504D01*
X113439028Y-57929504D01*
X113705695Y-57929504D02*
X113705695Y-57396171D01*
X113705695Y-57548552D02*
X113743790Y-57472361D01*
X113781885Y-57434266D01*
X113858076Y-57396171D01*
X113934266Y-57396171D01*
X114200933Y-57929504D02*
X114200933Y-57396171D01*
X114200933Y-57129504D02*
X114162838Y-57167600D01*
X114200933Y-57205695D01*
X114239028Y-57167600D01*
X114200933Y-57129504D01*
X114200933Y-57205695D01*
X114886647Y-57891409D02*
X114810457Y-57929504D01*
X114658076Y-57929504D01*
X114581885Y-57891409D01*
X114543790Y-57815219D01*
X114543790Y-57510457D01*
X114581885Y-57434266D01*
X114658076Y-57396171D01*
X114810457Y-57396171D01*
X114886647Y-57434266D01*
X114924742Y-57510457D01*
X114924742Y-57586647D01*
X114543790Y-57662838D01*
X115267600Y-57929504D02*
X115267600Y-57129504D01*
X115267600Y-57434266D02*
X115343790Y-57396171D01*
X115496171Y-57396171D01*
X115572361Y-57434266D01*
X115610457Y-57472361D01*
X115648552Y-57548552D01*
X115648552Y-57777123D01*
X115610457Y-57853314D01*
X115572361Y-57891409D01*
X115496171Y-57929504D01*
X115343790Y-57929504D01*
X115267600Y-57891409D01*
X115991409Y-57929504D02*
X115991409Y-57396171D01*
X115991409Y-57129504D02*
X115953314Y-57167600D01*
X115991409Y-57205695D01*
X116029504Y-57167600D01*
X115991409Y-57129504D01*
X115991409Y-57205695D01*
X116715219Y-57396171D02*
X116715219Y-58043790D01*
X116677123Y-58119980D01*
X116639028Y-58158076D01*
X116562838Y-58196171D01*
X116448552Y-58196171D01*
X116372361Y-58158076D01*
X116715219Y-57891409D02*
X116639028Y-57929504D01*
X116486647Y-57929504D01*
X116410457Y-57891409D01*
X116372361Y-57853314D01*
X116334266Y-57777123D01*
X116334266Y-57548552D01*
X116372361Y-57472361D01*
X116410457Y-57434266D01*
X116486647Y-57396171D01*
X116639028Y-57396171D01*
X116715219Y-57434266D01*
X110886647Y-58529504D02*
X110886647Y-59100933D01*
X110848552Y-59215219D01*
X110772361Y-59291409D01*
X110658076Y-59329504D01*
X110581885Y-59329504D01*
X111610457Y-58796171D02*
X111610457Y-59329504D01*
X111267600Y-58796171D02*
X111267600Y-59215219D01*
X111305695Y-59291409D01*
X111381885Y-59329504D01*
X111496171Y-59329504D01*
X111572361Y-59291409D01*
X111610457Y-59253314D01*
X112105695Y-59329504D02*
X112029504Y-59291409D01*
X111991409Y-59215219D01*
X111991409Y-58529504D01*
X112410457Y-59329504D02*
X112410457Y-58796171D01*
X112410457Y-58529504D02*
X112372361Y-58567600D01*
X112410457Y-58605695D01*
X112448552Y-58567600D01*
X112410457Y-58529504D01*
X112410457Y-58605695D01*
X113362838Y-58605695D02*
X113400933Y-58567600D01*
X113477123Y-58529504D01*
X113667600Y-58529504D01*
X113743790Y-58567600D01*
X113781885Y-58605695D01*
X113819980Y-58681885D01*
X113819980Y-58758076D01*
X113781885Y-58872361D01*
X113324742Y-59329504D01*
X113819980Y-59329504D01*
X114315219Y-58529504D02*
X114391409Y-58529504D01*
X114467600Y-58567600D01*
X114505695Y-58605695D01*
X114543790Y-58681885D01*
X114581885Y-58834266D01*
X114581885Y-59024742D01*
X114543790Y-59177123D01*
X114505695Y-59253314D01*
X114467600Y-59291409D01*
X114391409Y-59329504D01*
X114315219Y-59329504D01*
X114239028Y-59291409D01*
X114200933Y-59253314D01*
X114162838Y-59177123D01*
X114124742Y-59024742D01*
X114124742Y-58834266D01*
X114162838Y-58681885D01*
X114200933Y-58605695D01*
X114239028Y-58567600D01*
X114315219Y-58529504D01*
X114886647Y-58605695D02*
X114924742Y-58567600D01*
X115000933Y-58529504D01*
X115191409Y-58529504D01*
X115267600Y-58567600D01*
X115305695Y-58605695D01*
X115343790Y-58681885D01*
X115343790Y-58758076D01*
X115305695Y-58872361D01*
X114848552Y-59329504D01*
X115343790Y-59329504D01*
X116105695Y-59329504D02*
X115648552Y-59329504D01*
X115877123Y-59329504D02*
X115877123Y-58529504D01*
X115800933Y-58643790D01*
X115724742Y-58719980D01*
X115648552Y-58758076D01*
D12*
X119443714Y-54707600D02*
X120158000Y-54707600D01*
X119300857Y-55136171D02*
X119800857Y-53636171D01*
X120300857Y-55136171D01*
X120800857Y-55136171D02*
X120800857Y-53636171D01*
X121158000Y-53636171D01*
X121372285Y-53707600D01*
X121515142Y-53850457D01*
X121586571Y-53993314D01*
X121658000Y-54279028D01*
X121658000Y-54493314D01*
X121586571Y-54779028D01*
X121515142Y-54921885D01*
X121372285Y-55064742D01*
X121158000Y-55136171D01*
X120800857Y-55136171D01*
X123015142Y-55136171D02*
X122300857Y-55136171D01*
X122300857Y-53636171D01*
D13*
%TO.C,R8*%
X139193000Y-72871359D02*
X139193000Y-73178641D01*
X139953000Y-72871359D02*
X139953000Y-73178641D01*
%TO.C,R18*%
X135129000Y-72871359D02*
X135129000Y-73178641D01*
X135889000Y-72871359D02*
X135889000Y-73178641D01*
%TO.C,R17*%
X137288000Y-72871359D02*
X137288000Y-73178641D01*
X138048000Y-72871359D02*
X138048000Y-73178641D01*
%TO.C,R14*%
X118871000Y-73432641D02*
X118871000Y-73125359D01*
X118111000Y-73432641D02*
X118111000Y-73125359D01*
%TO.C,R13*%
X121157000Y-73434641D02*
X121157000Y-73127359D01*
X120397000Y-73434641D02*
X120397000Y-73127359D01*
%TO.C,R10*%
X120141000Y-73432641D02*
X120141000Y-73125359D01*
X119381000Y-73432641D02*
X119381000Y-73125359D01*
%TO.C,C14*%
X118086600Y-96228780D02*
X118086600Y-95947620D01*
X117066600Y-96228780D02*
X117066600Y-95947620D01*
%TO.C,JP1*%
X113579600Y-91380000D02*
X114909600Y-91380000D01*
X113579600Y-92710000D02*
X113579600Y-91380000D01*
X113579600Y-93980000D02*
X116239600Y-93980000D01*
X116239600Y-93980000D02*
X116239600Y-99120000D01*
X113579600Y-93980000D02*
X113579600Y-99120000D01*
X113579600Y-99120000D02*
X116239600Y-99120000D01*
%TO.C,R4*%
X125525559Y-82930000D02*
X125832841Y-82930000D01*
X125525559Y-82170000D02*
X125832841Y-82170000D01*
D14*
%TO.C,U2*%
X120033799Y-82330199D02*
X120033799Y-82105200D01*
X122383799Y-82330199D02*
X122383799Y-82105200D01*
X122383799Y-83655200D02*
X122383799Y-83430199D01*
X120033799Y-83655200D02*
X120033799Y-83430199D01*
D11*
X120086298Y-84055201D02*
G75*
G03*
X120086298Y-84055201I-50000J0D01*
G01*
D13*
%TO.C,C3*%
X111455252Y-94804400D02*
X110032748Y-94804400D01*
X111455252Y-97524400D02*
X110032748Y-97524400D01*
D15*
%TO.C,Logo2*%
G36*
X114635414Y-82057171D02*
G01*
X114654234Y-82059410D01*
X114655600Y-82060456D01*
X114649863Y-82072881D01*
X114633568Y-82105103D01*
X114608080Y-82154494D01*
X114574770Y-82218424D01*
X114535005Y-82294266D01*
X114490153Y-82379391D01*
X114452513Y-82450550D01*
X114404849Y-82540982D01*
X114361494Y-82624144D01*
X114323774Y-82697422D01*
X114293016Y-82758201D01*
X114270544Y-82803868D01*
X114257684Y-82831807D01*
X114255189Y-82839622D01*
X114268441Y-82837696D01*
X114302423Y-82829134D01*
X114353635Y-82814920D01*
X114418575Y-82796042D01*
X114493746Y-82773483D01*
X114535952Y-82760552D01*
X114615068Y-82736456D01*
X114685772Y-82715511D01*
X114744568Y-82698705D01*
X114787958Y-82687026D01*
X114812444Y-82681461D01*
X114816550Y-82681317D01*
X114812886Y-82693832D01*
X114799694Y-82726235D01*
X114778328Y-82775463D01*
X114750138Y-82838450D01*
X114716479Y-82912132D01*
X114680347Y-82989932D01*
X114641361Y-83073354D01*
X114605131Y-83151092D01*
X114573304Y-83219595D01*
X114547526Y-83275313D01*
X114529443Y-83314696D01*
X114521222Y-83332983D01*
X114503896Y-83373017D01*
X114567817Y-83356155D01*
X114604352Y-83347045D01*
X114620842Y-83345319D01*
X114621664Y-83351387D01*
X114615198Y-83360571D01*
X114598446Y-83381348D01*
X114571793Y-83413579D01*
X114539107Y-83452681D01*
X114504259Y-83494070D01*
X114471116Y-83533161D01*
X114443549Y-83565373D01*
X114425426Y-83586119D01*
X114420352Y-83591400D01*
X114417513Y-83579744D01*
X114411574Y-83548302D01*
X114403502Y-83502358D01*
X114397196Y-83464973D01*
X114385836Y-83395804D01*
X114379070Y-83348697D01*
X114377410Y-83320644D01*
X114381368Y-83308638D01*
X114391456Y-83309670D01*
X114408187Y-83320732D01*
X114420205Y-83329850D01*
X114464211Y-83363415D01*
X114483056Y-83296432D01*
X114506756Y-83211290D01*
X114529671Y-83127330D01*
X114550871Y-83048115D01*
X114569432Y-82977213D01*
X114584424Y-82918189D01*
X114594923Y-82874609D01*
X114599999Y-82850037D01*
X114600176Y-82845942D01*
X114587489Y-82848631D01*
X114554291Y-82858478D01*
X114504082Y-82874366D01*
X114440366Y-82895177D01*
X114366643Y-82919794D01*
X114332203Y-82931453D01*
X114255157Y-82957350D01*
X114186524Y-82979860D01*
X114129822Y-82997876D01*
X114088564Y-83010292D01*
X114066267Y-83016001D01*
X114063376Y-83016109D01*
X114066931Y-83003664D01*
X114079179Y-82970243D01*
X114099134Y-82918353D01*
X114125805Y-82850498D01*
X114158207Y-82769186D01*
X114195349Y-82676923D01*
X114236244Y-82576215D01*
X114252638Y-82536071D01*
X114446916Y-82061050D01*
X114551258Y-82057361D01*
X114599115Y-82056430D01*
X114635414Y-82057171D01*
G37*
X114635414Y-82057171D02*
X114654234Y-82059410D01*
X114655600Y-82060456D01*
X114649863Y-82072881D01*
X114633568Y-82105103D01*
X114608080Y-82154494D01*
X114574770Y-82218424D01*
X114535005Y-82294266D01*
X114490153Y-82379391D01*
X114452513Y-82450550D01*
X114404849Y-82540982D01*
X114361494Y-82624144D01*
X114323774Y-82697422D01*
X114293016Y-82758201D01*
X114270544Y-82803868D01*
X114257684Y-82831807D01*
X114255189Y-82839622D01*
X114268441Y-82837696D01*
X114302423Y-82829134D01*
X114353635Y-82814920D01*
X114418575Y-82796042D01*
X114493746Y-82773483D01*
X114535952Y-82760552D01*
X114615068Y-82736456D01*
X114685772Y-82715511D01*
X114744568Y-82698705D01*
X114787958Y-82687026D01*
X114812444Y-82681461D01*
X114816550Y-82681317D01*
X114812886Y-82693832D01*
X114799694Y-82726235D01*
X114778328Y-82775463D01*
X114750138Y-82838450D01*
X114716479Y-82912132D01*
X114680347Y-82989932D01*
X114641361Y-83073354D01*
X114605131Y-83151092D01*
X114573304Y-83219595D01*
X114547526Y-83275313D01*
X114529443Y-83314696D01*
X114521222Y-83332983D01*
X114503896Y-83373017D01*
X114567817Y-83356155D01*
X114604352Y-83347045D01*
X114620842Y-83345319D01*
X114621664Y-83351387D01*
X114615198Y-83360571D01*
X114598446Y-83381348D01*
X114571793Y-83413579D01*
X114539107Y-83452681D01*
X114504259Y-83494070D01*
X114471116Y-83533161D01*
X114443549Y-83565373D01*
X114425426Y-83586119D01*
X114420352Y-83591400D01*
X114417513Y-83579744D01*
X114411574Y-83548302D01*
X114403502Y-83502358D01*
X114397196Y-83464973D01*
X114385836Y-83395804D01*
X114379070Y-83348697D01*
X114377410Y-83320644D01*
X114381368Y-83308638D01*
X114391456Y-83309670D01*
X114408187Y-83320732D01*
X114420205Y-83329850D01*
X114464211Y-83363415D01*
X114483056Y-83296432D01*
X114506756Y-83211290D01*
X114529671Y-83127330D01*
X114550871Y-83048115D01*
X114569432Y-82977213D01*
X114584424Y-82918189D01*
X114594923Y-82874609D01*
X114599999Y-82850037D01*
X114600176Y-82845942D01*
X114587489Y-82848631D01*
X114554291Y-82858478D01*
X114504082Y-82874366D01*
X114440366Y-82895177D01*
X114366643Y-82919794D01*
X114332203Y-82931453D01*
X114255157Y-82957350D01*
X114186524Y-82979860D01*
X114129822Y-82997876D01*
X114088564Y-83010292D01*
X114066267Y-83016001D01*
X114063376Y-83016109D01*
X114066931Y-83003664D01*
X114079179Y-82970243D01*
X114099134Y-82918353D01*
X114125805Y-82850498D01*
X114158207Y-82769186D01*
X114195349Y-82676923D01*
X114236244Y-82576215D01*
X114252638Y-82536071D01*
X114446916Y-82061050D01*
X114551258Y-82057361D01*
X114599115Y-82056430D01*
X114635414Y-82057171D01*
G36*
X114583181Y-81111067D02*
G01*
X114612565Y-81122143D01*
X114642139Y-81147060D01*
X114648046Y-81153000D01*
X114658452Y-81167657D01*
X114681024Y-81202421D01*
X114714771Y-81255669D01*
X114758704Y-81325780D01*
X114811830Y-81411132D01*
X114873161Y-81510104D01*
X114941705Y-81621074D01*
X115016472Y-81742421D01*
X115096472Y-81872524D01*
X115180715Y-82009760D01*
X115268209Y-82152509D01*
X115357965Y-82299149D01*
X115448992Y-82448058D01*
X115540299Y-82597615D01*
X115630897Y-82746198D01*
X115719794Y-82892187D01*
X115806001Y-83033959D01*
X115888526Y-83169893D01*
X115966380Y-83298367D01*
X116038572Y-83417761D01*
X116104112Y-83526452D01*
X116162009Y-83622819D01*
X116211272Y-83705241D01*
X116250912Y-83772095D01*
X116279938Y-83821761D01*
X116297359Y-83852618D01*
X116299640Y-83856920D01*
X116318122Y-83913473D01*
X116314089Y-83963928D01*
X116288899Y-84004636D01*
X116243909Y-84031951D01*
X116233200Y-84035335D01*
X116212181Y-84037547D01*
X116165807Y-84039557D01*
X116094123Y-84041365D01*
X115997173Y-84042971D01*
X115875003Y-84044374D01*
X115727656Y-84045574D01*
X115555178Y-84046570D01*
X115357612Y-84047363D01*
X115135004Y-84047951D01*
X114887397Y-84048336D01*
X114614838Y-84048515D01*
X114524448Y-84048529D01*
X112862946Y-84048600D01*
X112824239Y-84009893D01*
X112799377Y-83981087D01*
X112790147Y-83954324D01*
X112791711Y-83917818D01*
X112795103Y-83905470D01*
X112803654Y-83885165D01*
X112817952Y-83855890D01*
X112838585Y-83816627D01*
X112866142Y-83766361D01*
X112901210Y-83704076D01*
X112903500Y-83700080D01*
X113309400Y-83700080D01*
X113321751Y-83701620D01*
X113357411Y-83703016D01*
X113414290Y-83704270D01*
X113490297Y-83705383D01*
X113583341Y-83706355D01*
X113691333Y-83707188D01*
X113812180Y-83707881D01*
X113943794Y-83708438D01*
X114084082Y-83708857D01*
X114230955Y-83709140D01*
X114382323Y-83709288D01*
X114536094Y-83709303D01*
X114690178Y-83709184D01*
X114842485Y-83708932D01*
X114990924Y-83708550D01*
X115133404Y-83708037D01*
X115267835Y-83707394D01*
X115392127Y-83706623D01*
X115504188Y-83705724D01*
X115601929Y-83704698D01*
X115683258Y-83703547D01*
X115746086Y-83702270D01*
X115788321Y-83700869D01*
X115807874Y-83699346D01*
X115808932Y-83698987D01*
X115804121Y-83687078D01*
X115787198Y-83655275D01*
X115759247Y-83605388D01*
X115721350Y-83539226D01*
X115674591Y-83458599D01*
X115620053Y-83365317D01*
X115558821Y-83261189D01*
X115491977Y-83148025D01*
X115420605Y-83027634D01*
X115345788Y-82901826D01*
X115268611Y-82772411D01*
X115190155Y-82641197D01*
X115111505Y-82509995D01*
X115033744Y-82380615D01*
X114957956Y-82254865D01*
X114885224Y-82134556D01*
X114816632Y-82021496D01*
X114753262Y-81917496D01*
X114696199Y-81824365D01*
X114646526Y-81743913D01*
X114605326Y-81677949D01*
X114573682Y-81628283D01*
X114552679Y-81596725D01*
X114543400Y-81585083D01*
X114543256Y-81585056D01*
X114535060Y-81595820D01*
X114515260Y-81626761D01*
X114484926Y-81676047D01*
X114445129Y-81741842D01*
X114396938Y-81822314D01*
X114341423Y-81915627D01*
X114279654Y-82019948D01*
X114212702Y-82133443D01*
X114141635Y-82254277D01*
X114067525Y-82380616D01*
X113991440Y-82510627D01*
X113914452Y-82642475D01*
X113837629Y-82774327D01*
X113762043Y-82904347D01*
X113688762Y-83030702D01*
X113618857Y-83151559D01*
X113553398Y-83265082D01*
X113493455Y-83369437D01*
X113440097Y-83462792D01*
X113394396Y-83543310D01*
X113357420Y-83609160D01*
X113330239Y-83658505D01*
X113313925Y-83689513D01*
X113309400Y-83700080D01*
X112903500Y-83700080D01*
X112944378Y-83628757D01*
X112996233Y-83539387D01*
X113057363Y-83434951D01*
X113128356Y-83314434D01*
X113209801Y-83176819D01*
X113302285Y-83021090D01*
X113406397Y-82846233D01*
X113522724Y-82651230D01*
X113594558Y-82530950D01*
X113696058Y-82361283D01*
X113794513Y-82197153D01*
X113889081Y-82039941D01*
X113978919Y-81891028D01*
X114063184Y-81751797D01*
X114141034Y-81623630D01*
X114211627Y-81507907D01*
X114274120Y-81406010D01*
X114327671Y-81319322D01*
X114371437Y-81249223D01*
X114404576Y-81197096D01*
X114426246Y-81164323D01*
X114434725Y-81153000D01*
X114465443Y-81125242D01*
X114493863Y-81112203D01*
X114532638Y-81108602D01*
X114541299Y-81108550D01*
X114583181Y-81111067D01*
G37*
X114583181Y-81111067D02*
X114612565Y-81122143D01*
X114642139Y-81147060D01*
X114648046Y-81153000D01*
X114658452Y-81167657D01*
X114681024Y-81202421D01*
X114714771Y-81255669D01*
X114758704Y-81325780D01*
X114811830Y-81411132D01*
X114873161Y-81510104D01*
X114941705Y-81621074D01*
X115016472Y-81742421D01*
X115096472Y-81872524D01*
X115180715Y-82009760D01*
X115268209Y-82152509D01*
X115357965Y-82299149D01*
X115448992Y-82448058D01*
X115540299Y-82597615D01*
X115630897Y-82746198D01*
X115719794Y-82892187D01*
X115806001Y-83033959D01*
X115888526Y-83169893D01*
X115966380Y-83298367D01*
X116038572Y-83417761D01*
X116104112Y-83526452D01*
X116162009Y-83622819D01*
X116211272Y-83705241D01*
X116250912Y-83772095D01*
X116279938Y-83821761D01*
X116297359Y-83852618D01*
X116299640Y-83856920D01*
X116318122Y-83913473D01*
X116314089Y-83963928D01*
X116288899Y-84004636D01*
X116243909Y-84031951D01*
X116233200Y-84035335D01*
X116212181Y-84037547D01*
X116165807Y-84039557D01*
X116094123Y-84041365D01*
X115997173Y-84042971D01*
X115875003Y-84044374D01*
X115727656Y-84045574D01*
X115555178Y-84046570D01*
X115357612Y-84047363D01*
X115135004Y-84047951D01*
X114887397Y-84048336D01*
X114614838Y-84048515D01*
X114524448Y-84048529D01*
X112862946Y-84048600D01*
X112824239Y-84009893D01*
X112799377Y-83981087D01*
X112790147Y-83954324D01*
X112791711Y-83917818D01*
X112795103Y-83905470D01*
X112803654Y-83885165D01*
X112817952Y-83855890D01*
X112838585Y-83816627D01*
X112866142Y-83766361D01*
X112901210Y-83704076D01*
X112903500Y-83700080D01*
X113309400Y-83700080D01*
X113321751Y-83701620D01*
X113357411Y-83703016D01*
X113414290Y-83704270D01*
X113490297Y-83705383D01*
X113583341Y-83706355D01*
X113691333Y-83707188D01*
X113812180Y-83707881D01*
X113943794Y-83708438D01*
X114084082Y-83708857D01*
X114230955Y-83709140D01*
X114382323Y-83709288D01*
X114536094Y-83709303D01*
X114690178Y-83709184D01*
X114842485Y-83708932D01*
X114990924Y-83708550D01*
X115133404Y-83708037D01*
X115267835Y-83707394D01*
X115392127Y-83706623D01*
X115504188Y-83705724D01*
X115601929Y-83704698D01*
X115683258Y-83703547D01*
X115746086Y-83702270D01*
X115788321Y-83700869D01*
X115807874Y-83699346D01*
X115808932Y-83698987D01*
X115804121Y-83687078D01*
X115787198Y-83655275D01*
X115759247Y-83605388D01*
X115721350Y-83539226D01*
X115674591Y-83458599D01*
X115620053Y-83365317D01*
X115558821Y-83261189D01*
X115491977Y-83148025D01*
X115420605Y-83027634D01*
X115345788Y-82901826D01*
X115268611Y-82772411D01*
X115190155Y-82641197D01*
X115111505Y-82509995D01*
X115033744Y-82380615D01*
X114957956Y-82254865D01*
X114885224Y-82134556D01*
X114816632Y-82021496D01*
X114753262Y-81917496D01*
X114696199Y-81824365D01*
X114646526Y-81743913D01*
X114605326Y-81677949D01*
X114573682Y-81628283D01*
X114552679Y-81596725D01*
X114543400Y-81585083D01*
X114543256Y-81585056D01*
X114535060Y-81595820D01*
X114515260Y-81626761D01*
X114484926Y-81676047D01*
X114445129Y-81741842D01*
X114396938Y-81822314D01*
X114341423Y-81915627D01*
X114279654Y-82019948D01*
X114212702Y-82133443D01*
X114141635Y-82254277D01*
X114067525Y-82380616D01*
X113991440Y-82510627D01*
X113914452Y-82642475D01*
X113837629Y-82774327D01*
X113762043Y-82904347D01*
X113688762Y-83030702D01*
X113618857Y-83151559D01*
X113553398Y-83265082D01*
X113493455Y-83369437D01*
X113440097Y-83462792D01*
X113394396Y-83543310D01*
X113357420Y-83609160D01*
X113330239Y-83658505D01*
X113313925Y-83689513D01*
X113309400Y-83700080D01*
X112903500Y-83700080D01*
X112944378Y-83628757D01*
X112996233Y-83539387D01*
X113057363Y-83434951D01*
X113128356Y-83314434D01*
X113209801Y-83176819D01*
X113302285Y-83021090D01*
X113406397Y-82846233D01*
X113522724Y-82651230D01*
X113594558Y-82530950D01*
X113696058Y-82361283D01*
X113794513Y-82197153D01*
X113889081Y-82039941D01*
X113978919Y-81891028D01*
X114063184Y-81751797D01*
X114141034Y-81623630D01*
X114211627Y-81507907D01*
X114274120Y-81406010D01*
X114327671Y-81319322D01*
X114371437Y-81249223D01*
X114404576Y-81197096D01*
X114426246Y-81164323D01*
X114434725Y-81153000D01*
X114465443Y-81125242D01*
X114493863Y-81112203D01*
X114532638Y-81108602D01*
X114541299Y-81108550D01*
X114583181Y-81111067D01*
%TO.C,Logo1*%
G36*
X118541800Y-53492400D02*
G01*
X118008400Y-53492400D01*
X118008400Y-55702200D01*
X117221539Y-55702200D01*
X117214919Y-54603650D01*
X117208300Y-53505100D01*
X116935250Y-53497890D01*
X116662200Y-53490681D01*
X116662200Y-52857400D01*
X118541800Y-52857400D01*
X118541800Y-53492400D01*
G37*
X118541800Y-53492400D02*
X118008400Y-53492400D01*
X118008400Y-55702200D01*
X117221539Y-55702200D01*
X117214919Y-54603650D01*
X117208300Y-53505100D01*
X116935250Y-53497890D01*
X116662200Y-53490681D01*
X116662200Y-52857400D01*
X118541800Y-52857400D01*
X118541800Y-53492400D01*
G36*
X116484400Y-55702200D02*
G01*
X115697000Y-55702200D01*
X115697000Y-52857400D01*
X116484400Y-52857400D01*
X116484400Y-55702200D01*
G37*
X116484400Y-55702200D02*
X115697000Y-55702200D01*
X115697000Y-52857400D01*
X116484400Y-52857400D01*
X116484400Y-55702200D01*
G36*
X114997940Y-53570969D02*
G01*
X114846509Y-53759455D01*
X114724455Y-53912565D01*
X114628975Y-54034232D01*
X114557265Y-54128386D01*
X114506523Y-54198959D01*
X114473944Y-54249883D01*
X114456726Y-54285090D01*
X114452065Y-54308510D01*
X114457157Y-54324075D01*
X114459122Y-54326619D01*
X114484753Y-54357631D01*
X114537213Y-54421714D01*
X114611811Y-54513098D01*
X114703854Y-54626015D01*
X114808653Y-54754697D01*
X114921516Y-54893375D01*
X115037752Y-55036281D01*
X115152670Y-55177647D01*
X115261578Y-55311704D01*
X115359786Y-55432684D01*
X115442603Y-55534818D01*
X115505337Y-55612338D01*
X115543297Y-55659475D01*
X115551984Y-55670450D01*
X115551166Y-55682377D01*
X115524175Y-55691072D01*
X115465549Y-55696962D01*
X115369821Y-55700471D01*
X115231528Y-55702023D01*
X115144019Y-55702200D01*
X114711818Y-55702200D01*
X113665000Y-54581838D01*
X113666370Y-54272069D01*
X113667741Y-53962300D01*
X114168020Y-53410674D01*
X114668300Y-52859048D01*
X115572466Y-52857400D01*
X114997940Y-53570969D01*
G37*
X114997940Y-53570969D02*
X114846509Y-53759455D01*
X114724455Y-53912565D01*
X114628975Y-54034232D01*
X114557265Y-54128386D01*
X114506523Y-54198959D01*
X114473944Y-54249883D01*
X114456726Y-54285090D01*
X114452065Y-54308510D01*
X114457157Y-54324075D01*
X114459122Y-54326619D01*
X114484753Y-54357631D01*
X114537213Y-54421714D01*
X114611811Y-54513098D01*
X114703854Y-54626015D01*
X114808653Y-54754697D01*
X114921516Y-54893375D01*
X115037752Y-55036281D01*
X115152670Y-55177647D01*
X115261578Y-55311704D01*
X115359786Y-55432684D01*
X115442603Y-55534818D01*
X115505337Y-55612338D01*
X115543297Y-55659475D01*
X115551984Y-55670450D01*
X115551166Y-55682377D01*
X115524175Y-55691072D01*
X115465549Y-55696962D01*
X115369821Y-55700471D01*
X115231528Y-55702023D01*
X115144019Y-55702200D01*
X114711818Y-55702200D01*
X113665000Y-54581838D01*
X113666370Y-54272069D01*
X113667741Y-53962300D01*
X114168020Y-53410674D01*
X114668300Y-52859048D01*
X115572466Y-52857400D01*
X114997940Y-53570969D01*
G36*
X113474500Y-55689500D02*
G01*
X110617000Y-55702622D01*
X110617069Y-55664100D01*
X113385600Y-55664100D01*
X113398300Y-55676800D01*
X113411000Y-55664100D01*
X113398300Y-55651400D01*
X113385600Y-55664100D01*
X110617069Y-55664100D01*
X110617149Y-55619861D01*
X110620836Y-55560429D01*
X110630500Y-55471008D01*
X110644269Y-55364420D01*
X110660267Y-55253484D01*
X110676621Y-55151020D01*
X110691456Y-55069847D01*
X110702899Y-55022786D01*
X110705209Y-55017517D01*
X110731535Y-55019598D01*
X110802523Y-55033132D01*
X110913598Y-55057054D01*
X111060188Y-55090305D01*
X111237719Y-55131820D01*
X111441617Y-55180539D01*
X111667311Y-55235399D01*
X111910225Y-55295338D01*
X112029659Y-55325115D01*
X112279023Y-55387297D01*
X112513188Y-55445310D01*
X112727596Y-55498053D01*
X112917691Y-55544422D01*
X113078914Y-55583313D01*
X113206706Y-55613624D01*
X113296511Y-55634252D01*
X113343769Y-55644093D01*
X113349993Y-55644673D01*
X113329300Y-55632689D01*
X113266683Y-55601402D01*
X113166338Y-55552802D01*
X113032463Y-55488881D01*
X112869255Y-55411627D01*
X112680910Y-55323034D01*
X112471626Y-55225089D01*
X112245600Y-55119786D01*
X112133832Y-55067877D01*
X111900715Y-54959670D01*
X111681778Y-54857946D01*
X111481298Y-54764698D01*
X111303549Y-54681921D01*
X111152809Y-54611608D01*
X111033352Y-54555752D01*
X110949455Y-54516347D01*
X110905393Y-54495386D01*
X110899672Y-54492482D01*
X110904221Y-54466126D01*
X110933074Y-54406952D01*
X110980948Y-54323441D01*
X111042562Y-54224072D01*
X111112634Y-54117323D01*
X111185880Y-54011672D01*
X111257019Y-53915600D01*
X111267280Y-53902414D01*
X111287756Y-53916209D01*
X111344025Y-53959183D01*
X111432473Y-54028456D01*
X111549484Y-54121150D01*
X111691445Y-54234385D01*
X111854740Y-54365281D01*
X112035756Y-54510959D01*
X112230878Y-54668541D01*
X112342702Y-54759082D01*
X112543775Y-54921796D01*
X112732507Y-55074063D01*
X112905312Y-55213024D01*
X113058609Y-55335819D01*
X113188813Y-55439588D01*
X113292342Y-55521472D01*
X113365611Y-55578612D01*
X113405038Y-55608147D01*
X113410999Y-55611578D01*
X113395375Y-55589969D01*
X113350481Y-55532775D01*
X113279289Y-55443670D01*
X113184769Y-55326326D01*
X113069891Y-55184419D01*
X112937626Y-55021621D01*
X112790944Y-54841606D01*
X112632815Y-54648048D01*
X112560099Y-54559199D01*
X112397748Y-54360488D01*
X112245549Y-54173333D01*
X112106477Y-54001456D01*
X111983509Y-53848578D01*
X111879624Y-53718417D01*
X111797796Y-53614695D01*
X111741003Y-53541133D01*
X111712222Y-53501451D01*
X111709200Y-53495703D01*
X111730102Y-53464475D01*
X111785869Y-53416666D01*
X111866091Y-53358735D01*
X111960360Y-53297143D01*
X112058265Y-53238348D01*
X112149398Y-53188812D01*
X112223348Y-53154992D01*
X112269707Y-53143350D01*
X112275242Y-53144435D01*
X112291614Y-53169179D01*
X112327270Y-53235705D01*
X112380106Y-53339716D01*
X112448023Y-53476914D01*
X112528919Y-53643002D01*
X112620692Y-53833682D01*
X112721241Y-54044657D01*
X112828465Y-54271629D01*
X112877600Y-54376275D01*
X112986420Y-54608130D01*
X113088681Y-54825343D01*
X113182380Y-55023708D01*
X113265517Y-55199020D01*
X113336088Y-55347072D01*
X113392093Y-55463658D01*
X113431530Y-55544573D01*
X113452396Y-55585611D01*
X113455211Y-55589937D01*
X113450348Y-55564944D01*
X113434129Y-55495244D01*
X113407671Y-55385373D01*
X113372091Y-55239867D01*
X113328507Y-55063263D01*
X113278036Y-54860099D01*
X113221795Y-54634912D01*
X113160902Y-54392236D01*
X113129841Y-54268858D01*
X113067160Y-54019112D01*
X113008773Y-53784458D01*
X112955777Y-53569457D01*
X112909275Y-53378671D01*
X112870366Y-53216660D01*
X112840150Y-53087985D01*
X112819727Y-52997208D01*
X112810198Y-52948889D01*
X112809827Y-52942105D01*
X112841358Y-52931285D01*
X112910654Y-52916889D01*
X113004976Y-52900810D01*
X113111585Y-52884940D01*
X113217740Y-52871170D01*
X113310704Y-52861394D01*
X113377736Y-52857503D01*
X113379463Y-52857496D01*
X113487626Y-52857400D01*
X113474500Y-55689500D01*
G37*
X113474500Y-55689500D02*
X110617000Y-55702622D01*
X110617069Y-55664100D01*
X113385600Y-55664100D01*
X113398300Y-55676800D01*
X113411000Y-55664100D01*
X113398300Y-55651400D01*
X113385600Y-55664100D01*
X110617069Y-55664100D01*
X110617149Y-55619861D01*
X110620836Y-55560429D01*
X110630500Y-55471008D01*
X110644269Y-55364420D01*
X110660267Y-55253484D01*
X110676621Y-55151020D01*
X110691456Y-55069847D01*
X110702899Y-55022786D01*
X110705209Y-55017517D01*
X110731535Y-55019598D01*
X110802523Y-55033132D01*
X110913598Y-55057054D01*
X111060188Y-55090305D01*
X111237719Y-55131820D01*
X111441617Y-55180539D01*
X111667311Y-55235399D01*
X111910225Y-55295338D01*
X112029659Y-55325115D01*
X112279023Y-55387297D01*
X112513188Y-55445310D01*
X112727596Y-55498053D01*
X112917691Y-55544422D01*
X113078914Y-55583313D01*
X113206706Y-55613624D01*
X113296511Y-55634252D01*
X113343769Y-55644093D01*
X113349993Y-55644673D01*
X113329300Y-55632689D01*
X113266683Y-55601402D01*
X113166338Y-55552802D01*
X113032463Y-55488881D01*
X112869255Y-55411627D01*
X112680910Y-55323034D01*
X112471626Y-55225089D01*
X112245600Y-55119786D01*
X112133832Y-55067877D01*
X111900715Y-54959670D01*
X111681778Y-54857946D01*
X111481298Y-54764698D01*
X111303549Y-54681921D01*
X111152809Y-54611608D01*
X111033352Y-54555752D01*
X110949455Y-54516347D01*
X110905393Y-54495386D01*
X110899672Y-54492482D01*
X110904221Y-54466126D01*
X110933074Y-54406952D01*
X110980948Y-54323441D01*
X111042562Y-54224072D01*
X111112634Y-54117323D01*
X111185880Y-54011672D01*
X111257019Y-53915600D01*
X111267280Y-53902414D01*
X111287756Y-53916209D01*
X111344025Y-53959183D01*
X111432473Y-54028456D01*
X111549484Y-54121150D01*
X111691445Y-54234385D01*
X111854740Y-54365281D01*
X112035756Y-54510959D01*
X112230878Y-54668541D01*
X112342702Y-54759082D01*
X112543775Y-54921796D01*
X112732507Y-55074063D01*
X112905312Y-55213024D01*
X113058609Y-55335819D01*
X113188813Y-55439588D01*
X113292342Y-55521472D01*
X113365611Y-55578612D01*
X113405038Y-55608147D01*
X113410999Y-55611578D01*
X113395375Y-55589969D01*
X113350481Y-55532775D01*
X113279289Y-55443670D01*
X113184769Y-55326326D01*
X113069891Y-55184419D01*
X112937626Y-55021621D01*
X112790944Y-54841606D01*
X112632815Y-54648048D01*
X112560099Y-54559199D01*
X112397748Y-54360488D01*
X112245549Y-54173333D01*
X112106477Y-54001456D01*
X111983509Y-53848578D01*
X111879624Y-53718417D01*
X111797796Y-53614695D01*
X111741003Y-53541133D01*
X111712222Y-53501451D01*
X111709200Y-53495703D01*
X111730102Y-53464475D01*
X111785869Y-53416666D01*
X111866091Y-53358735D01*
X111960360Y-53297143D01*
X112058265Y-53238348D01*
X112149398Y-53188812D01*
X112223348Y-53154992D01*
X112269707Y-53143350D01*
X112275242Y-53144435D01*
X112291614Y-53169179D01*
X112327270Y-53235705D01*
X112380106Y-53339716D01*
X112448023Y-53476914D01*
X112528919Y-53643002D01*
X112620692Y-53833682D01*
X112721241Y-54044657D01*
X112828465Y-54271629D01*
X112877600Y-54376275D01*
X112986420Y-54608130D01*
X113088681Y-54825343D01*
X113182380Y-55023708D01*
X113265517Y-55199020D01*
X113336088Y-55347072D01*
X113392093Y-55463658D01*
X113431530Y-55544573D01*
X113452396Y-55585611D01*
X113455211Y-55589937D01*
X113450348Y-55564944D01*
X113434129Y-55495244D01*
X113407671Y-55385373D01*
X113372091Y-55239867D01*
X113328507Y-55063263D01*
X113278036Y-54860099D01*
X113221795Y-54634912D01*
X113160902Y-54392236D01*
X113129841Y-54268858D01*
X113067160Y-54019112D01*
X113008773Y-53784458D01*
X112955777Y-53569457D01*
X112909275Y-53378671D01*
X112870366Y-53216660D01*
X112840150Y-53087985D01*
X112819727Y-52997208D01*
X112810198Y-52948889D01*
X112809827Y-52942105D01*
X112841358Y-52931285D01*
X112910654Y-52916889D01*
X113004976Y-52900810D01*
X113111585Y-52884940D01*
X113217740Y-52871170D01*
X113310704Y-52861394D01*
X113377736Y-52857503D01*
X113379463Y-52857496D01*
X113487626Y-52857400D01*
X113474500Y-55689500D01*
G36*
X118310334Y-56027572D02*
G01*
X118313200Y-56045100D01*
X118299484Y-56078901D01*
X118287800Y-56083200D01*
X118265265Y-56062627D01*
X118262400Y-56045100D01*
X118276115Y-56011298D01*
X118287800Y-56007000D01*
X118310334Y-56027572D01*
G37*
X118310334Y-56027572D02*
X118313200Y-56045100D01*
X118299484Y-56078901D01*
X118287800Y-56083200D01*
X118265265Y-56062627D01*
X118262400Y-56045100D01*
X118276115Y-56011298D01*
X118287800Y-56007000D01*
X118310334Y-56027572D01*
G36*
X115416861Y-56051728D02*
G01*
X115417600Y-56057800D01*
X115398271Y-56082461D01*
X115392200Y-56083200D01*
X115367538Y-56063871D01*
X115366800Y-56057800D01*
X115386128Y-56033138D01*
X115392200Y-56032400D01*
X115416861Y-56051728D01*
G37*
X115416861Y-56051728D02*
X115417600Y-56057800D01*
X115398271Y-56082461D01*
X115392200Y-56083200D01*
X115367538Y-56063871D01*
X115366800Y-56057800D01*
X115386128Y-56033138D01*
X115392200Y-56032400D01*
X115416861Y-56051728D01*
G36*
X115311701Y-56046115D02*
G01*
X115316000Y-56057800D01*
X115295427Y-56080334D01*
X115277900Y-56083200D01*
X115244098Y-56069484D01*
X115239800Y-56057800D01*
X115260372Y-56035265D01*
X115277900Y-56032400D01*
X115311701Y-56046115D01*
G37*
X115311701Y-56046115D02*
X115316000Y-56057800D01*
X115295427Y-56080334D01*
X115277900Y-56083200D01*
X115244098Y-56069484D01*
X115239800Y-56057800D01*
X115260372Y-56035265D01*
X115277900Y-56032400D01*
X115311701Y-56046115D01*
G36*
X114093934Y-56027572D02*
G01*
X114096800Y-56045100D01*
X114083084Y-56078901D01*
X114071400Y-56083200D01*
X114048865Y-56062627D01*
X114046000Y-56045100D01*
X114059715Y-56011298D01*
X114071400Y-56007000D01*
X114093934Y-56027572D01*
G37*
X114093934Y-56027572D02*
X114096800Y-56045100D01*
X114083084Y-56078901D01*
X114071400Y-56083200D01*
X114048865Y-56062627D01*
X114046000Y-56045100D01*
X114059715Y-56011298D01*
X114071400Y-56007000D01*
X114093934Y-56027572D01*
G36*
X118302289Y-56156844D02*
G01*
X118311485Y-56215252D01*
X118313200Y-56261000D01*
X118308631Y-56333446D01*
X118296949Y-56379429D01*
X118287800Y-56388000D01*
X118273310Y-56365155D01*
X118264114Y-56306747D01*
X118262400Y-56261000D01*
X118266968Y-56188553D01*
X118278650Y-56142570D01*
X118287800Y-56134000D01*
X118302289Y-56156844D01*
G37*
X118302289Y-56156844D02*
X118311485Y-56215252D01*
X118313200Y-56261000D01*
X118308631Y-56333446D01*
X118296949Y-56379429D01*
X118287800Y-56388000D01*
X118273310Y-56365155D01*
X118264114Y-56306747D01*
X118262400Y-56261000D01*
X118266968Y-56188553D01*
X118278650Y-56142570D01*
X118287800Y-56134000D01*
X118302289Y-56156844D01*
G36*
X117558596Y-56016979D02*
G01*
X117570393Y-56053040D01*
X117575727Y-56124371D01*
X117576600Y-56197500D01*
X117574604Y-56297983D01*
X117567391Y-56356966D01*
X117553125Y-56383635D01*
X117538500Y-56388000D01*
X117518403Y-56378020D01*
X117506606Y-56341959D01*
X117501272Y-56270628D01*
X117500400Y-56197500D01*
X117502395Y-56097016D01*
X117509608Y-56038033D01*
X117523874Y-56011364D01*
X117538500Y-56007000D01*
X117558596Y-56016979D01*
G37*
X117558596Y-56016979D02*
X117570393Y-56053040D01*
X117575727Y-56124371D01*
X117576600Y-56197500D01*
X117574604Y-56297983D01*
X117567391Y-56356966D01*
X117553125Y-56383635D01*
X117538500Y-56388000D01*
X117518403Y-56378020D01*
X117506606Y-56341959D01*
X117501272Y-56270628D01*
X117500400Y-56197500D01*
X117502395Y-56097016D01*
X117509608Y-56038033D01*
X117523874Y-56011364D01*
X117538500Y-56007000D01*
X117558596Y-56016979D01*
G36*
X117069275Y-56144393D02*
G01*
X117103982Y-56174177D01*
X117116368Y-56231177D01*
X117118947Y-56298083D01*
X117112591Y-56356194D01*
X117098174Y-56386811D01*
X117094000Y-56388000D01*
X117076815Y-56365766D01*
X117068696Y-56311504D01*
X117068600Y-56304179D01*
X117060055Y-56237095D01*
X117039429Y-56191212D01*
X117038724Y-56190484D01*
X116999369Y-56174831D01*
X116965515Y-56201227D01*
X116944729Y-56260964D01*
X116941600Y-56302210D01*
X116935006Y-56359722D01*
X116918864Y-56387527D01*
X116916200Y-56388000D01*
X116901710Y-56365155D01*
X116892514Y-56306747D01*
X116890800Y-56261000D01*
X116890800Y-56134000D01*
X116989682Y-56134000D01*
X117069275Y-56144393D01*
G37*
X117069275Y-56144393D02*
X117103982Y-56174177D01*
X117116368Y-56231177D01*
X117118947Y-56298083D01*
X117112591Y-56356194D01*
X117098174Y-56386811D01*
X117094000Y-56388000D01*
X117076815Y-56365766D01*
X117068696Y-56311504D01*
X117068600Y-56304179D01*
X117060055Y-56237095D01*
X117039429Y-56191212D01*
X117038724Y-56190484D01*
X116999369Y-56174831D01*
X116965515Y-56201227D01*
X116944729Y-56260964D01*
X116941600Y-56302210D01*
X116935006Y-56359722D01*
X116918864Y-56387527D01*
X116916200Y-56388000D01*
X116901710Y-56365155D01*
X116892514Y-56306747D01*
X116890800Y-56261000D01*
X116890800Y-56134000D01*
X116989682Y-56134000D01*
X117069275Y-56144393D01*
G36*
X116629342Y-56029080D02*
G01*
X116636800Y-56070500D01*
X116647704Y-56119256D01*
X116688701Y-56133892D01*
X116695220Y-56134000D01*
X116754930Y-56146547D01*
X116784120Y-56164479D01*
X116802938Y-56204495D01*
X116812683Y-56265548D01*
X116812927Y-56328786D01*
X116803241Y-56375354D01*
X116789200Y-56388000D01*
X116770286Y-56366213D01*
X116763800Y-56322830D01*
X116752594Y-56245795D01*
X116723937Y-56191865D01*
X116685270Y-56173294D01*
X116674512Y-56175763D01*
X116646124Y-56213098D01*
X116636800Y-56289117D01*
X116630155Y-56358735D01*
X116608278Y-56386633D01*
X116598700Y-56388000D01*
X116578603Y-56378020D01*
X116566806Y-56341959D01*
X116561472Y-56270628D01*
X116560600Y-56197500D01*
X116562595Y-56097016D01*
X116569808Y-56038033D01*
X116584074Y-56011364D01*
X116598700Y-56007000D01*
X116629342Y-56029080D01*
G37*
X116629342Y-56029080D02*
X116636800Y-56070500D01*
X116647704Y-56119256D01*
X116688701Y-56133892D01*
X116695220Y-56134000D01*
X116754930Y-56146547D01*
X116784120Y-56164479D01*
X116802938Y-56204495D01*
X116812683Y-56265548D01*
X116812927Y-56328786D01*
X116803241Y-56375354D01*
X116789200Y-56388000D01*
X116770286Y-56366213D01*
X116763800Y-56322830D01*
X116752594Y-56245795D01*
X116723937Y-56191865D01*
X116685270Y-56173294D01*
X116674512Y-56175763D01*
X116646124Y-56213098D01*
X116636800Y-56289117D01*
X116630155Y-56358735D01*
X116608278Y-56386633D01*
X116598700Y-56388000D01*
X116578603Y-56378020D01*
X116566806Y-56341959D01*
X116561472Y-56270628D01*
X116560600Y-56197500D01*
X116562595Y-56097016D01*
X116569808Y-56038033D01*
X116584074Y-56011364D01*
X116598700Y-56007000D01*
X116629342Y-56029080D01*
G36*
X115989404Y-56036575D02*
G01*
X116040146Y-56047346D01*
X116052600Y-56057800D01*
X116031326Y-56078437D01*
X116001800Y-56083200D01*
X115973427Y-56088760D01*
X115958095Y-56113187D01*
X115951933Y-56168099D01*
X115951000Y-56235600D01*
X115947144Y-56316776D01*
X115937070Y-56371812D01*
X115925600Y-56388000D01*
X115912070Y-56364864D01*
X115902897Y-56304425D01*
X115900200Y-56235600D01*
X115898855Y-56151137D01*
X115891508Y-56105536D01*
X115873188Y-56086868D01*
X115838925Y-56083203D01*
X115836700Y-56083200D01*
X115788965Y-56074505D01*
X115773200Y-56057800D01*
X115796165Y-56043890D01*
X115855407Y-56034664D01*
X115912900Y-56032400D01*
X115989404Y-56036575D01*
G37*
X115989404Y-56036575D02*
X116040146Y-56047346D01*
X116052600Y-56057800D01*
X116031326Y-56078437D01*
X116001800Y-56083200D01*
X115973427Y-56088760D01*
X115958095Y-56113187D01*
X115951933Y-56168099D01*
X115951000Y-56235600D01*
X115947144Y-56316776D01*
X115937070Y-56371812D01*
X115925600Y-56388000D01*
X115912070Y-56364864D01*
X115902897Y-56304425D01*
X115900200Y-56235600D01*
X115898855Y-56151137D01*
X115891508Y-56105536D01*
X115873188Y-56086868D01*
X115838925Y-56083203D01*
X115836700Y-56083200D01*
X115788965Y-56074505D01*
X115773200Y-56057800D01*
X115796165Y-56043890D01*
X115855407Y-56034664D01*
X115912900Y-56032400D01*
X115989404Y-56036575D01*
G36*
X115653147Y-56142628D02*
G01*
X115670077Y-56162625D01*
X115642332Y-56185161D01*
X115620800Y-56192159D01*
X115584694Y-56215232D01*
X115570864Y-56268065D01*
X115570000Y-56296722D01*
X115563774Y-56356420D01*
X115548418Y-56386963D01*
X115544600Y-56388000D01*
X115530110Y-56365155D01*
X115520914Y-56306747D01*
X115519200Y-56261000D01*
X115520864Y-56185819D01*
X115531100Y-56148329D01*
X115557770Y-56135426D01*
X115595400Y-56134000D01*
X115653147Y-56142628D01*
G37*
X115653147Y-56142628D02*
X115670077Y-56162625D01*
X115642332Y-56185161D01*
X115620800Y-56192159D01*
X115584694Y-56215232D01*
X115570864Y-56268065D01*
X115570000Y-56296722D01*
X115563774Y-56356420D01*
X115548418Y-56386963D01*
X115544600Y-56388000D01*
X115530110Y-56365155D01*
X115520914Y-56306747D01*
X115519200Y-56261000D01*
X115520864Y-56185819D01*
X115531100Y-56148329D01*
X115557770Y-56135426D01*
X115595400Y-56134000D01*
X115653147Y-56142628D01*
G36*
X115255478Y-56156465D02*
G01*
X115268214Y-56212161D01*
X115270016Y-56229250D01*
X115281211Y-56294066D01*
X115305472Y-56321103D01*
X115328700Y-56324500D01*
X115364173Y-56313569D01*
X115382011Y-56272274D01*
X115387383Y-56229250D01*
X115399208Y-56159155D01*
X115415614Y-56135994D01*
X115431468Y-56156838D01*
X115441641Y-56218756D01*
X115443000Y-56261000D01*
X115441523Y-56336160D01*
X115431321Y-56373636D01*
X115403738Y-56386545D01*
X115359180Y-56388000D01*
X115291873Y-56379270D01*
X115245581Y-56358200D01*
X115244880Y-56357520D01*
X115226390Y-56317984D01*
X115216479Y-56257142D01*
X115215706Y-56193861D01*
X115224627Y-56147009D01*
X115238266Y-56134000D01*
X115255478Y-56156465D01*
G37*
X115255478Y-56156465D02*
X115268214Y-56212161D01*
X115270016Y-56229250D01*
X115281211Y-56294066D01*
X115305472Y-56321103D01*
X115328700Y-56324500D01*
X115364173Y-56313569D01*
X115382011Y-56272274D01*
X115387383Y-56229250D01*
X115399208Y-56159155D01*
X115415614Y-56135994D01*
X115431468Y-56156838D01*
X115441641Y-56218756D01*
X115443000Y-56261000D01*
X115441523Y-56336160D01*
X115431321Y-56373636D01*
X115403738Y-56386545D01*
X115359180Y-56388000D01*
X115291873Y-56379270D01*
X115245581Y-56358200D01*
X115244880Y-56357520D01*
X115226390Y-56317984D01*
X115216479Y-56257142D01*
X115215706Y-56193861D01*
X115224627Y-56147009D01*
X115238266Y-56134000D01*
X115255478Y-56156465D01*
G36*
X115156999Y-56018920D02*
G01*
X115156401Y-56045350D01*
X115119150Y-56069596D01*
X115088506Y-56085536D01*
X115099866Y-56104834D01*
X115119150Y-56119564D01*
X115158680Y-56158246D01*
X115152809Y-56180592D01*
X115125500Y-56184800D01*
X115099007Y-56201576D01*
X115088091Y-56257190D01*
X115087400Y-56286400D01*
X115081766Y-56350022D01*
X115067693Y-56385409D01*
X115062000Y-56388000D01*
X115045956Y-56365497D01*
X115037167Y-56309418D01*
X115036600Y-56288516D01*
X115029130Y-56220710D01*
X115010336Y-56179794D01*
X115004850Y-56176150D01*
X114987420Y-56157418D01*
X115001426Y-56142283D01*
X115031189Y-56102654D01*
X115047588Y-56064150D01*
X115081324Y-56017655D01*
X115114511Y-56007000D01*
X115156999Y-56018920D01*
G37*
X115156999Y-56018920D02*
X115156401Y-56045350D01*
X115119150Y-56069596D01*
X115088506Y-56085536D01*
X115099866Y-56104834D01*
X115119150Y-56119564D01*
X115158680Y-56158246D01*
X115152809Y-56180592D01*
X115125500Y-56184800D01*
X115099007Y-56201576D01*
X115088091Y-56257190D01*
X115087400Y-56286400D01*
X115081766Y-56350022D01*
X115067693Y-56385409D01*
X115062000Y-56388000D01*
X115045956Y-56365497D01*
X115037167Y-56309418D01*
X115036600Y-56288516D01*
X115029130Y-56220710D01*
X115010336Y-56179794D01*
X115004850Y-56176150D01*
X114987420Y-56157418D01*
X115001426Y-56142283D01*
X115031189Y-56102654D01*
X115047588Y-56064150D01*
X115081324Y-56017655D01*
X115114511Y-56007000D01*
X115156999Y-56018920D01*
G36*
X114085889Y-56156844D02*
G01*
X114095085Y-56215252D01*
X114096800Y-56261000D01*
X114092231Y-56333446D01*
X114080549Y-56379429D01*
X114071400Y-56388000D01*
X114056910Y-56365155D01*
X114047714Y-56306747D01*
X114046000Y-56261000D01*
X114050568Y-56188553D01*
X114062250Y-56142570D01*
X114071400Y-56134000D01*
X114085889Y-56156844D01*
G37*
X114085889Y-56156844D02*
X114095085Y-56215252D01*
X114096800Y-56261000D01*
X114092231Y-56333446D01*
X114080549Y-56379429D01*
X114071400Y-56388000D01*
X114056910Y-56365155D01*
X114047714Y-56306747D01*
X114046000Y-56261000D01*
X114050568Y-56188553D01*
X114062250Y-56142570D01*
X114071400Y-56134000D01*
X114085889Y-56156844D01*
G36*
X113513275Y-56144393D02*
G01*
X113547982Y-56174177D01*
X113560368Y-56231177D01*
X113562947Y-56298083D01*
X113556591Y-56356194D01*
X113542174Y-56386811D01*
X113538000Y-56388000D01*
X113520815Y-56365766D01*
X113512696Y-56311504D01*
X113512600Y-56304179D01*
X113504055Y-56237095D01*
X113483429Y-56191212D01*
X113482724Y-56190484D01*
X113443369Y-56174831D01*
X113409515Y-56201227D01*
X113388729Y-56260964D01*
X113385600Y-56302210D01*
X113379006Y-56359722D01*
X113362864Y-56387527D01*
X113360200Y-56388000D01*
X113345710Y-56365155D01*
X113336514Y-56306747D01*
X113334800Y-56261000D01*
X113334800Y-56134000D01*
X113433682Y-56134000D01*
X113513275Y-56144393D01*
G37*
X113513275Y-56144393D02*
X113547982Y-56174177D01*
X113560368Y-56231177D01*
X113562947Y-56298083D01*
X113556591Y-56356194D01*
X113542174Y-56386811D01*
X113538000Y-56388000D01*
X113520815Y-56365766D01*
X113512696Y-56311504D01*
X113512600Y-56304179D01*
X113504055Y-56237095D01*
X113483429Y-56191212D01*
X113482724Y-56190484D01*
X113443369Y-56174831D01*
X113409515Y-56201227D01*
X113388729Y-56260964D01*
X113385600Y-56302210D01*
X113379006Y-56359722D01*
X113362864Y-56387527D01*
X113360200Y-56388000D01*
X113345710Y-56365155D01*
X113336514Y-56306747D01*
X113334800Y-56261000D01*
X113334800Y-56134000D01*
X113433682Y-56134000D01*
X113513275Y-56144393D01*
G36*
X113214150Y-56038657D02*
G01*
X113234234Y-56070481D01*
X113248196Y-56147062D01*
X113253410Y-56218574D01*
X113255491Y-56311086D01*
X113250177Y-56363232D01*
X113235568Y-56385146D01*
X113221660Y-56388000D01*
X113200565Y-56378490D01*
X113188429Y-56343542D01*
X113183150Y-56273526D01*
X113182400Y-56208083D01*
X113184997Y-56109224D01*
X113193582Y-56054585D01*
X113209345Y-56037814D01*
X113214150Y-56038657D01*
G37*
X113214150Y-56038657D02*
X113234234Y-56070481D01*
X113248196Y-56147062D01*
X113253410Y-56218574D01*
X113255491Y-56311086D01*
X113250177Y-56363232D01*
X113235568Y-56385146D01*
X113221660Y-56388000D01*
X113200565Y-56378490D01*
X113188429Y-56343542D01*
X113183150Y-56273526D01*
X113182400Y-56208083D01*
X113184997Y-56109224D01*
X113193582Y-56054585D01*
X113209345Y-56037814D01*
X113214150Y-56038657D01*
G36*
X112947450Y-56135332D02*
G01*
X113007900Y-56137389D01*
X113023534Y-56145499D01*
X113000335Y-56166131D01*
X112985550Y-56176530D01*
X112939520Y-56232944D01*
X112928400Y-56302198D01*
X112919508Y-56366713D01*
X112891475Y-56387982D01*
X112890300Y-56388000D01*
X112866340Y-56374404D01*
X112854638Y-56327331D01*
X112852200Y-56261000D01*
X112852200Y-56134000D01*
X112947450Y-56135332D01*
G37*
X112947450Y-56135332D02*
X113007900Y-56137389D01*
X113023534Y-56145499D01*
X113000335Y-56166131D01*
X112985550Y-56176530D01*
X112939520Y-56232944D01*
X112928400Y-56302198D01*
X112919508Y-56366713D01*
X112891475Y-56387982D01*
X112890300Y-56388000D01*
X112866340Y-56374404D01*
X112854638Y-56327331D01*
X112852200Y-56261000D01*
X112852200Y-56134000D01*
X112947450Y-56135332D01*
G36*
X112312493Y-56028736D02*
G01*
X112318800Y-56070500D01*
X112327419Y-56116468D01*
X112363544Y-56132785D01*
X112392282Y-56134000D01*
X112454147Y-56147333D01*
X112481182Y-56174177D01*
X112493568Y-56231177D01*
X112496147Y-56298083D01*
X112489791Y-56356194D01*
X112475374Y-56386811D01*
X112471200Y-56388000D01*
X112454015Y-56365766D01*
X112445896Y-56311504D01*
X112445800Y-56304179D01*
X112433633Y-56224813D01*
X112400901Y-56179817D01*
X112353804Y-56176802D01*
X112328853Y-56211474D01*
X112318841Y-56283340D01*
X112318800Y-56289117D01*
X112313022Y-56351728D01*
X112298632Y-56385875D01*
X112293400Y-56388000D01*
X112280601Y-56364362D01*
X112271681Y-56300376D01*
X112268023Y-56206433D01*
X112268000Y-56197500D01*
X112271151Y-56101511D01*
X112279683Y-56034607D01*
X112292208Y-56007178D01*
X112293400Y-56007000D01*
X112312493Y-56028736D01*
G37*
X112312493Y-56028736D02*
X112318800Y-56070500D01*
X112327419Y-56116468D01*
X112363544Y-56132785D01*
X112392282Y-56134000D01*
X112454147Y-56147333D01*
X112481182Y-56174177D01*
X112493568Y-56231177D01*
X112496147Y-56298083D01*
X112489791Y-56356194D01*
X112475374Y-56386811D01*
X112471200Y-56388000D01*
X112454015Y-56365766D01*
X112445896Y-56311504D01*
X112445800Y-56304179D01*
X112433633Y-56224813D01*
X112400901Y-56179817D01*
X112353804Y-56176802D01*
X112328853Y-56211474D01*
X112318841Y-56283340D01*
X112318800Y-56289117D01*
X112313022Y-56351728D01*
X112298632Y-56385875D01*
X112293400Y-56388000D01*
X112280601Y-56364362D01*
X112271681Y-56300376D01*
X112268023Y-56206433D01*
X112268000Y-56197500D01*
X112271151Y-56101511D01*
X112279683Y-56034607D01*
X112292208Y-56007178D01*
X112293400Y-56007000D01*
X112312493Y-56028736D01*
G36*
X111882793Y-56140016D02*
G01*
X111901175Y-56155932D01*
X111899700Y-56159400D01*
X111862949Y-56182771D01*
X111847400Y-56184800D01*
X111821531Y-56203625D01*
X111811205Y-56264103D01*
X111810800Y-56286400D01*
X111804508Y-56357045D01*
X111783653Y-56386156D01*
X111772700Y-56388000D01*
X111748740Y-56374404D01*
X111737038Y-56327331D01*
X111734600Y-56261000D01*
X111734600Y-56134000D01*
X111824999Y-56134000D01*
X111882793Y-56140016D01*
G37*
X111882793Y-56140016D02*
X111901175Y-56155932D01*
X111899700Y-56159400D01*
X111862949Y-56182771D01*
X111847400Y-56184800D01*
X111821531Y-56203625D01*
X111811205Y-56264103D01*
X111810800Y-56286400D01*
X111804508Y-56357045D01*
X111783653Y-56386156D01*
X111772700Y-56388000D01*
X111748740Y-56374404D01*
X111737038Y-56327331D01*
X111734600Y-56261000D01*
X111734600Y-56134000D01*
X111824999Y-56134000D01*
X111882793Y-56140016D01*
G36*
X111436150Y-56013265D02*
G01*
X111456047Y-56045403D01*
X111469790Y-56124276D01*
X111475362Y-56205881D01*
X111477516Y-56302458D01*
X111472976Y-56358355D01*
X111460021Y-56383450D01*
X111443612Y-56388000D01*
X111423139Y-56378893D01*
X111411071Y-56345290D01*
X111405487Y-56277764D01*
X111404400Y-56195383D01*
X111406760Y-56092416D01*
X111414587Y-56033665D01*
X111428995Y-56012730D01*
X111436150Y-56013265D01*
G37*
X111436150Y-56013265D02*
X111456047Y-56045403D01*
X111469790Y-56124276D01*
X111475362Y-56205881D01*
X111477516Y-56302458D01*
X111472976Y-56358355D01*
X111460021Y-56383450D01*
X111443612Y-56388000D01*
X111423139Y-56378893D01*
X111411071Y-56345290D01*
X111405487Y-56277764D01*
X111404400Y-56195383D01*
X111406760Y-56092416D01*
X111414587Y-56033665D01*
X111428995Y-56012730D01*
X111436150Y-56013265D01*
G36*
X111330861Y-56144896D02*
G01*
X111353592Y-56160765D01*
X111353600Y-56161098D01*
X111333163Y-56182480D01*
X111317732Y-56184800D01*
X111288858Y-56208589D01*
X111267064Y-56273602D01*
X111264700Y-56286400D01*
X111246126Y-56360085D01*
X111226598Y-56384681D01*
X111210369Y-56361632D01*
X111201695Y-56292379D01*
X111201200Y-56264865D01*
X111203080Y-56191072D01*
X111214210Y-56154528D01*
X111242826Y-56141689D01*
X111277400Y-56139564D01*
X111330861Y-56144896D01*
G37*
X111330861Y-56144896D02*
X111353592Y-56160765D01*
X111353600Y-56161098D01*
X111333163Y-56182480D01*
X111317732Y-56184800D01*
X111288858Y-56208589D01*
X111267064Y-56273602D01*
X111264700Y-56286400D01*
X111246126Y-56360085D01*
X111226598Y-56384681D01*
X111210369Y-56361632D01*
X111201695Y-56292379D01*
X111201200Y-56264865D01*
X111203080Y-56191072D01*
X111214210Y-56154528D01*
X111242826Y-56141689D01*
X111277400Y-56139564D01*
X111330861Y-56144896D01*
G36*
X110634401Y-56054580D02*
G01*
X110642350Y-56108485D01*
X110642400Y-56113582D01*
X110642400Y-56194765D01*
X110726159Y-56113582D01*
X110789374Y-56059725D01*
X110833099Y-56035158D01*
X110851194Y-56039191D01*
X110837519Y-56071134D01*
X110794799Y-56121300D01*
X110708634Y-56210200D01*
X110794800Y-56299100D01*
X110841229Y-56354844D01*
X110850529Y-56383281D01*
X110828839Y-56383721D01*
X110782299Y-56355473D01*
X110726159Y-56306817D01*
X110642400Y-56225634D01*
X110642400Y-56306817D01*
X110635460Y-56362436D01*
X110618594Y-56387840D01*
X110617000Y-56388000D01*
X110603970Y-56364507D01*
X110594967Y-56301541D01*
X110591600Y-56210372D01*
X110591600Y-56210200D01*
X110594956Y-56118992D01*
X110603951Y-56055969D01*
X110616975Y-56032400D01*
X110617000Y-56032400D01*
X110634401Y-56054580D01*
G37*
X110634401Y-56054580D02*
X110642350Y-56108485D01*
X110642400Y-56113582D01*
X110642400Y-56194765D01*
X110726159Y-56113582D01*
X110789374Y-56059725D01*
X110833099Y-56035158D01*
X110851194Y-56039191D01*
X110837519Y-56071134D01*
X110794799Y-56121300D01*
X110708634Y-56210200D01*
X110794800Y-56299100D01*
X110841229Y-56354844D01*
X110850529Y-56383281D01*
X110828839Y-56383721D01*
X110782299Y-56355473D01*
X110726159Y-56306817D01*
X110642400Y-56225634D01*
X110642400Y-56306817D01*
X110635460Y-56362436D01*
X110618594Y-56387840D01*
X110617000Y-56388000D01*
X110603970Y-56364507D01*
X110594967Y-56301541D01*
X110591600Y-56210372D01*
X110591600Y-56210200D01*
X110594956Y-56118992D01*
X110603951Y-56055969D01*
X110616975Y-56032400D01*
X110617000Y-56032400D01*
X110634401Y-56054580D01*
G36*
X118563535Y-56156113D02*
G01*
X118585887Y-56202190D01*
X118587937Y-56216550D01*
X118588721Y-56262526D01*
X118567496Y-56282092D01*
X118510607Y-56286382D01*
X118502277Y-56286400D01*
X118443269Y-56289020D01*
X118426218Y-56300692D01*
X118441555Y-56326132D01*
X118495266Y-56354149D01*
X118533565Y-56351048D01*
X118580977Y-56350190D01*
X118590741Y-56370110D01*
X118556970Y-56396154D01*
X118552422Y-56397982D01*
X118503976Y-56411569D01*
X118464112Y-56401801D01*
X118420451Y-56373859D01*
X118377599Y-56318663D01*
X118364168Y-56247375D01*
X118370177Y-56225566D01*
X118425126Y-56225566D01*
X118451140Y-56234959D01*
X118475189Y-56235600D01*
X118524405Y-56228161D01*
X118541800Y-56212917D01*
X118522542Y-56182953D01*
X118480755Y-56176668D01*
X118440418Y-56197306D01*
X118438946Y-56199009D01*
X118425126Y-56225566D01*
X118370177Y-56225566D01*
X118382205Y-56181918D01*
X118400564Y-56160674D01*
X118451859Y-56140777D01*
X118508514Y-56138514D01*
X118563535Y-56156113D01*
G37*
X118563535Y-56156113D02*
X118585887Y-56202190D01*
X118587937Y-56216550D01*
X118588721Y-56262526D01*
X118567496Y-56282092D01*
X118510607Y-56286382D01*
X118502277Y-56286400D01*
X118443269Y-56289020D01*
X118426218Y-56300692D01*
X118441555Y-56326132D01*
X118495266Y-56354149D01*
X118533565Y-56351048D01*
X118580977Y-56350190D01*
X118590741Y-56370110D01*
X118556970Y-56396154D01*
X118552422Y-56397982D01*
X118503976Y-56411569D01*
X118464112Y-56401801D01*
X118420451Y-56373859D01*
X118377599Y-56318663D01*
X118364168Y-56247375D01*
X118370177Y-56225566D01*
X118425126Y-56225566D01*
X118451140Y-56234959D01*
X118475189Y-56235600D01*
X118524405Y-56228161D01*
X118541800Y-56212917D01*
X118522542Y-56182953D01*
X118480755Y-56176668D01*
X118440418Y-56197306D01*
X118438946Y-56199009D01*
X118425126Y-56225566D01*
X118370177Y-56225566D01*
X118382205Y-56181918D01*
X118400564Y-56160674D01*
X118451859Y-56140777D01*
X118508514Y-56138514D01*
X118563535Y-56156113D01*
G36*
X117836118Y-56147156D02*
G01*
X117883992Y-56193319D01*
X117886021Y-56197500D01*
X117901138Y-56278900D01*
X117875495Y-56345804D01*
X117818980Y-56387678D01*
X117741477Y-56393986D01*
X117709762Y-56385308D01*
X117658154Y-56342225D01*
X117636297Y-56277301D01*
X117691979Y-56277301D01*
X117705404Y-56315172D01*
X117745071Y-56354741D01*
X117787622Y-56350788D01*
X117819237Y-56307763D01*
X117826283Y-56276238D01*
X117819025Y-56209277D01*
X117784466Y-56174141D01*
X117739617Y-56176413D01*
X117698486Y-56215645D01*
X117691979Y-56277301D01*
X117636297Y-56277301D01*
X117634987Y-56273411D01*
X117646064Y-56198614D01*
X117651533Y-56187165D01*
X117699984Y-56143202D01*
X117768147Y-56130158D01*
X117836118Y-56147156D01*
G37*
X117836118Y-56147156D02*
X117883992Y-56193319D01*
X117886021Y-56197500D01*
X117901138Y-56278900D01*
X117875495Y-56345804D01*
X117818980Y-56387678D01*
X117741477Y-56393986D01*
X117709762Y-56385308D01*
X117658154Y-56342225D01*
X117636297Y-56277301D01*
X117691979Y-56277301D01*
X117705404Y-56315172D01*
X117745071Y-56354741D01*
X117787622Y-56350788D01*
X117819237Y-56307763D01*
X117826283Y-56276238D01*
X117819025Y-56209277D01*
X117784466Y-56174141D01*
X117739617Y-56176413D01*
X117698486Y-56215645D01*
X117691979Y-56277301D01*
X117636297Y-56277301D01*
X117634987Y-56273411D01*
X117646064Y-56198614D01*
X117651533Y-56187165D01*
X117699984Y-56143202D01*
X117768147Y-56130158D01*
X117836118Y-56147156D01*
G36*
X117375238Y-56145029D02*
G01*
X117424055Y-56188239D01*
X117428821Y-56197500D01*
X117442795Y-56276144D01*
X117418229Y-56343895D01*
X117364817Y-56388643D01*
X117292253Y-56398277D01*
X117271800Y-56393644D01*
X117212893Y-56353751D01*
X117175171Y-56289169D01*
X117170443Y-56259484D01*
X117246400Y-56259484D01*
X117259991Y-56329607D01*
X117293520Y-56363619D01*
X117336121Y-56356866D01*
X117372506Y-56313469D01*
X117395037Y-56264441D01*
X117389337Y-56233059D01*
X117359964Y-56200393D01*
X117309178Y-56173400D01*
X117267472Y-56190836D01*
X117246921Y-56246418D01*
X117246400Y-56259484D01*
X117170443Y-56259484D01*
X117170200Y-56257959D01*
X117190996Y-56194325D01*
X117242744Y-56151804D01*
X117309480Y-56134128D01*
X117375238Y-56145029D01*
G37*
X117375238Y-56145029D02*
X117424055Y-56188239D01*
X117428821Y-56197500D01*
X117442795Y-56276144D01*
X117418229Y-56343895D01*
X117364817Y-56388643D01*
X117292253Y-56398277D01*
X117271800Y-56393644D01*
X117212893Y-56353751D01*
X117175171Y-56289169D01*
X117170443Y-56259484D01*
X117246400Y-56259484D01*
X117259991Y-56329607D01*
X117293520Y-56363619D01*
X117336121Y-56356866D01*
X117372506Y-56313469D01*
X117395037Y-56264441D01*
X117389337Y-56233059D01*
X117359964Y-56200393D01*
X117309178Y-56173400D01*
X117267472Y-56190836D01*
X117246921Y-56246418D01*
X117246400Y-56259484D01*
X117170443Y-56259484D01*
X117170200Y-56257959D01*
X117190996Y-56194325D01*
X117242744Y-56151804D01*
X117309480Y-56134128D01*
X117375238Y-56145029D01*
G36*
X116497984Y-56141238D02*
G01*
X116509800Y-56156577D01*
X116489259Y-56174363D01*
X116468865Y-56175627D01*
X116422763Y-56191949D01*
X116399145Y-56216550D01*
X116386419Y-56274595D01*
X116416415Y-56327252D01*
X116481571Y-56361876D01*
X116486803Y-56363191D01*
X116527063Y-56375523D01*
X116520882Y-56387285D01*
X116501372Y-56395519D01*
X116463347Y-56409556D01*
X116439151Y-56407554D01*
X116403859Y-56384731D01*
X116388451Y-56373859D01*
X116345489Y-56318088D01*
X116331928Y-56245551D01*
X116350621Y-56179252D01*
X116362480Y-56164479D01*
X116403574Y-56142659D01*
X116455929Y-56134527D01*
X116497984Y-56141238D01*
G37*
X116497984Y-56141238D02*
X116509800Y-56156577D01*
X116489259Y-56174363D01*
X116468865Y-56175627D01*
X116422763Y-56191949D01*
X116399145Y-56216550D01*
X116386419Y-56274595D01*
X116416415Y-56327252D01*
X116481571Y-56361876D01*
X116486803Y-56363191D01*
X116527063Y-56375523D01*
X116520882Y-56387285D01*
X116501372Y-56395519D01*
X116463347Y-56409556D01*
X116439151Y-56407554D01*
X116403859Y-56384731D01*
X116388451Y-56373859D01*
X116345489Y-56318088D01*
X116331928Y-56245551D01*
X116350621Y-56179252D01*
X116362480Y-56164479D01*
X116403574Y-56142659D01*
X116455929Y-56134527D01*
X116497984Y-56141238D01*
G36*
X116206901Y-56141246D02*
G01*
X116259033Y-56178302D01*
X116281182Y-56238783D01*
X116281200Y-56240679D01*
X116269306Y-56272279D01*
X116225554Y-56285127D01*
X116189189Y-56286400D01*
X116130985Y-56289082D01*
X116114761Y-56301036D01*
X116130155Y-56326132D01*
X116184826Y-56354404D01*
X116228515Y-56351143D01*
X116272943Y-56342769D01*
X116272093Y-56352471D01*
X116244595Y-56374910D01*
X116198845Y-56406177D01*
X116163825Y-56407273D01*
X116114993Y-56378010D01*
X116109051Y-56373859D01*
X116066089Y-56318088D01*
X116052528Y-56245551D01*
X116058162Y-56225566D01*
X116113726Y-56225566D01*
X116139740Y-56234959D01*
X116163789Y-56235600D01*
X116213005Y-56228161D01*
X116230400Y-56212917D01*
X116211142Y-56182953D01*
X116169355Y-56176668D01*
X116129018Y-56197306D01*
X116127546Y-56199009D01*
X116113726Y-56225566D01*
X116058162Y-56225566D01*
X116071221Y-56179252D01*
X116083080Y-56164479D01*
X116142384Y-56134382D01*
X116206901Y-56141246D01*
G37*
X116206901Y-56141246D02*
X116259033Y-56178302D01*
X116281182Y-56238783D01*
X116281200Y-56240679D01*
X116269306Y-56272279D01*
X116225554Y-56285127D01*
X116189189Y-56286400D01*
X116130985Y-56289082D01*
X116114761Y-56301036D01*
X116130155Y-56326132D01*
X116184826Y-56354404D01*
X116228515Y-56351143D01*
X116272943Y-56342769D01*
X116272093Y-56352471D01*
X116244595Y-56374910D01*
X116198845Y-56406177D01*
X116163825Y-56407273D01*
X116114993Y-56378010D01*
X116109051Y-56373859D01*
X116066089Y-56318088D01*
X116052528Y-56245551D01*
X116058162Y-56225566D01*
X116113726Y-56225566D01*
X116139740Y-56234959D01*
X116163789Y-56235600D01*
X116213005Y-56228161D01*
X116230400Y-56212917D01*
X116211142Y-56182953D01*
X116169355Y-56176668D01*
X116129018Y-56197306D01*
X116127546Y-56199009D01*
X116113726Y-56225566D01*
X116058162Y-56225566D01*
X116071221Y-56179252D01*
X116083080Y-56164479D01*
X116142384Y-56134382D01*
X116206901Y-56141246D01*
G36*
X114754334Y-56078372D02*
G01*
X114757200Y-56095900D01*
X114777531Y-56129574D01*
X114795300Y-56134000D01*
X114829101Y-56147715D01*
X114833400Y-56159400D01*
X114812827Y-56181934D01*
X114795300Y-56184800D01*
X114767036Y-56205144D01*
X114756877Y-56252917D01*
X114764447Y-56308227D01*
X114789372Y-56351181D01*
X114798561Y-56357822D01*
X114822624Y-56382670D01*
X114817069Y-56395094D01*
X114778499Y-56395882D01*
X114750307Y-56384647D01*
X114715287Y-56337221D01*
X114706400Y-56274554D01*
X114697838Y-56212290D01*
X114676990Y-56175540D01*
X114674650Y-56174216D01*
X114655970Y-56157535D01*
X114674650Y-56144583D01*
X114703895Y-56108920D01*
X114706400Y-56093783D01*
X114720812Y-56061363D01*
X114731800Y-56057800D01*
X114754334Y-56078372D01*
G37*
X114754334Y-56078372D02*
X114757200Y-56095900D01*
X114777531Y-56129574D01*
X114795300Y-56134000D01*
X114829101Y-56147715D01*
X114833400Y-56159400D01*
X114812827Y-56181934D01*
X114795300Y-56184800D01*
X114767036Y-56205144D01*
X114756877Y-56252917D01*
X114764447Y-56308227D01*
X114789372Y-56351181D01*
X114798561Y-56357822D01*
X114822624Y-56382670D01*
X114817069Y-56395094D01*
X114778499Y-56395882D01*
X114750307Y-56384647D01*
X114715287Y-56337221D01*
X114706400Y-56274554D01*
X114697838Y-56212290D01*
X114676990Y-56175540D01*
X114674650Y-56174216D01*
X114655970Y-56157535D01*
X114674650Y-56144583D01*
X114703895Y-56108920D01*
X114706400Y-56093783D01*
X114720812Y-56061363D01*
X114731800Y-56057800D01*
X114754334Y-56078372D01*
G36*
X114593889Y-56156844D02*
G01*
X114603085Y-56215252D01*
X114604800Y-56261000D01*
X114600256Y-56342415D01*
X114585147Y-56381541D01*
X114568777Y-56388000D01*
X114510709Y-56396420D01*
X114498927Y-56400016D01*
X114450442Y-56398276D01*
X114420650Y-56386054D01*
X114389096Y-56347207D01*
X114376700Y-56273035D01*
X114376200Y-56247037D01*
X114381297Y-56179311D01*
X114394180Y-56138948D01*
X114401600Y-56134000D01*
X114417602Y-56156511D01*
X114426409Y-56212653D01*
X114427000Y-56234100D01*
X114433171Y-56301936D01*
X114448496Y-56345677D01*
X114453512Y-56350587D01*
X114494507Y-56352318D01*
X114530284Y-56315451D01*
X114551591Y-56252031D01*
X114554000Y-56219789D01*
X114560593Y-56162277D01*
X114576735Y-56134472D01*
X114579400Y-56134000D01*
X114593889Y-56156844D01*
G37*
X114593889Y-56156844D02*
X114603085Y-56215252D01*
X114604800Y-56261000D01*
X114600256Y-56342415D01*
X114585147Y-56381541D01*
X114568777Y-56388000D01*
X114510709Y-56396420D01*
X114498927Y-56400016D01*
X114450442Y-56398276D01*
X114420650Y-56386054D01*
X114389096Y-56347207D01*
X114376700Y-56273035D01*
X114376200Y-56247037D01*
X114381297Y-56179311D01*
X114394180Y-56138948D01*
X114401600Y-56134000D01*
X114417602Y-56156511D01*
X114426409Y-56212653D01*
X114427000Y-56234100D01*
X114433171Y-56301936D01*
X114448496Y-56345677D01*
X114453512Y-56350587D01*
X114494507Y-56352318D01*
X114530284Y-56315451D01*
X114551591Y-56252031D01*
X114554000Y-56219789D01*
X114560593Y-56162277D01*
X114576735Y-56134472D01*
X114579400Y-56134000D01*
X114593889Y-56156844D01*
G36*
X114246334Y-56078372D02*
G01*
X114249200Y-56095900D01*
X114270039Y-56128520D01*
X114293650Y-56134807D01*
X114324201Y-56138100D01*
X114313531Y-56153862D01*
X114293650Y-56169357D01*
X114258807Y-56220474D01*
X114251282Y-56285279D01*
X114271445Y-56341127D01*
X114290561Y-56357822D01*
X114314624Y-56382670D01*
X114309069Y-56395094D01*
X114270499Y-56395882D01*
X114242307Y-56384647D01*
X114207287Y-56337221D01*
X114198400Y-56274554D01*
X114189838Y-56212290D01*
X114168990Y-56175540D01*
X114166650Y-56174216D01*
X114147970Y-56157535D01*
X114166650Y-56144583D01*
X114195895Y-56108920D01*
X114198400Y-56093783D01*
X114212812Y-56061363D01*
X114223800Y-56057800D01*
X114246334Y-56078372D01*
G37*
X114246334Y-56078372D02*
X114249200Y-56095900D01*
X114270039Y-56128520D01*
X114293650Y-56134807D01*
X114324201Y-56138100D01*
X114313531Y-56153862D01*
X114293650Y-56169357D01*
X114258807Y-56220474D01*
X114251282Y-56285279D01*
X114271445Y-56341127D01*
X114290561Y-56357822D01*
X114314624Y-56382670D01*
X114309069Y-56395094D01*
X114270499Y-56395882D01*
X114242307Y-56384647D01*
X114207287Y-56337221D01*
X114198400Y-56274554D01*
X114189838Y-56212290D01*
X114168990Y-56175540D01*
X114166650Y-56174216D01*
X114147970Y-56157535D01*
X114166650Y-56144583D01*
X114195895Y-56108920D01*
X114198400Y-56093783D01*
X114212812Y-56061363D01*
X114223800Y-56057800D01*
X114246334Y-56078372D01*
G36*
X113916484Y-56078217D02*
G01*
X113919000Y-56093783D01*
X113938424Y-56135993D01*
X113950750Y-56144583D01*
X113969429Y-56161264D01*
X113950750Y-56174216D01*
X113926674Y-56207080D01*
X113918076Y-56262101D01*
X113924103Y-56318861D01*
X113943906Y-56356943D01*
X113958599Y-56362600D01*
X113984889Y-56374913D01*
X113982500Y-56388000D01*
X113956933Y-56409586D01*
X113912644Y-56401495D01*
X113899950Y-56396578D01*
X113878839Y-56365056D01*
X113868430Y-56304396D01*
X113868200Y-56293433D01*
X113853970Y-56211946D01*
X113823750Y-56169357D01*
X113793198Y-56143429D01*
X113803868Y-56135572D01*
X113823750Y-56134807D01*
X113861365Y-56116261D01*
X113868200Y-56095900D01*
X113881915Y-56062098D01*
X113893600Y-56057800D01*
X113916484Y-56078217D01*
G37*
X113916484Y-56078217D02*
X113919000Y-56093783D01*
X113938424Y-56135993D01*
X113950750Y-56144583D01*
X113969429Y-56161264D01*
X113950750Y-56174216D01*
X113926674Y-56207080D01*
X113918076Y-56262101D01*
X113924103Y-56318861D01*
X113943906Y-56356943D01*
X113958599Y-56362600D01*
X113984889Y-56374913D01*
X113982500Y-56388000D01*
X113956933Y-56409586D01*
X113912644Y-56401495D01*
X113899950Y-56396578D01*
X113878839Y-56365056D01*
X113868430Y-56304396D01*
X113868200Y-56293433D01*
X113853970Y-56211946D01*
X113823750Y-56169357D01*
X113793198Y-56143429D01*
X113803868Y-56135572D01*
X113823750Y-56134807D01*
X113861365Y-56116261D01*
X113868200Y-56095900D01*
X113881915Y-56062098D01*
X113893600Y-56057800D01*
X113916484Y-56078217D01*
G36*
X113750421Y-56142328D02*
G01*
X113766600Y-56158602D01*
X113748189Y-56173076D01*
X113731069Y-56169571D01*
X113691149Y-56166396D01*
X113682113Y-56189997D01*
X113704386Y-56226490D01*
X113728718Y-56246107D01*
X113780262Y-56289176D01*
X113786157Y-56328455D01*
X113752085Y-56373485D01*
X113710478Y-56406283D01*
X113669394Y-56405191D01*
X113645950Y-56396578D01*
X113615119Y-56372232D01*
X113626665Y-56353896D01*
X113665000Y-56355240D01*
X113706450Y-56354289D01*
X113712758Y-56327247D01*
X113684387Y-56284255D01*
X113660764Y-56262677D01*
X113622467Y-56210710D01*
X113628599Y-56164192D01*
X113674786Y-56136664D01*
X113702302Y-56134000D01*
X113750421Y-56142328D01*
G37*
X113750421Y-56142328D02*
X113766600Y-56158602D01*
X113748189Y-56173076D01*
X113731069Y-56169571D01*
X113691149Y-56166396D01*
X113682113Y-56189997D01*
X113704386Y-56226490D01*
X113728718Y-56246107D01*
X113780262Y-56289176D01*
X113786157Y-56328455D01*
X113752085Y-56373485D01*
X113710478Y-56406283D01*
X113669394Y-56405191D01*
X113645950Y-56396578D01*
X113615119Y-56372232D01*
X113626665Y-56353896D01*
X113665000Y-56355240D01*
X113706450Y-56354289D01*
X113712758Y-56327247D01*
X113684387Y-56284255D01*
X113660764Y-56262677D01*
X113622467Y-56210710D01*
X113628599Y-56164192D01*
X113674786Y-56136664D01*
X113702302Y-56134000D01*
X113750421Y-56142328D01*
G36*
X112746324Y-56152927D02*
G01*
X112776280Y-56185324D01*
X112792396Y-56242991D01*
X112764728Y-56276220D01*
X112696184Y-56286400D01*
X112640481Y-56295051D01*
X112630607Y-56318150D01*
X112661314Y-56340166D01*
X112708924Y-56345118D01*
X112761658Y-56350564D01*
X112774251Y-56370604D01*
X112741783Y-56395569D01*
X112735822Y-56397982D01*
X112699015Y-56410492D01*
X112691372Y-56411789D01*
X112667606Y-56402311D01*
X112630709Y-56387489D01*
X112577880Y-56341923D01*
X112554807Y-56271368D01*
X112564941Y-56210200D01*
X112623600Y-56210200D01*
X112644873Y-56230837D01*
X112674400Y-56235600D01*
X112715674Y-56224963D01*
X112725200Y-56210200D01*
X112703926Y-56189562D01*
X112674400Y-56184800D01*
X112633125Y-56195436D01*
X112623600Y-56210200D01*
X112564941Y-56210200D01*
X112567350Y-56195665D01*
X112571533Y-56187165D01*
X112618783Y-56144689D01*
X112684212Y-56133212D01*
X112746324Y-56152927D01*
G37*
X112746324Y-56152927D02*
X112776280Y-56185324D01*
X112792396Y-56242991D01*
X112764728Y-56276220D01*
X112696184Y-56286400D01*
X112640481Y-56295051D01*
X112630607Y-56318150D01*
X112661314Y-56340166D01*
X112708924Y-56345118D01*
X112761658Y-56350564D01*
X112774251Y-56370604D01*
X112741783Y-56395569D01*
X112735822Y-56397982D01*
X112699015Y-56410492D01*
X112691372Y-56411789D01*
X112667606Y-56402311D01*
X112630709Y-56387489D01*
X112577880Y-56341923D01*
X112554807Y-56271368D01*
X112564941Y-56210200D01*
X112623600Y-56210200D01*
X112644873Y-56230837D01*
X112674400Y-56235600D01*
X112715674Y-56224963D01*
X112725200Y-56210200D01*
X112703926Y-56189562D01*
X112674400Y-56184800D01*
X112633125Y-56195436D01*
X112623600Y-56210200D01*
X112564941Y-56210200D01*
X112567350Y-56195665D01*
X112571533Y-56187165D01*
X112618783Y-56144689D01*
X112684212Y-56133212D01*
X112746324Y-56152927D01*
G36*
X112177659Y-56147595D02*
G01*
X112189361Y-56194668D01*
X112191800Y-56261000D01*
X112188980Y-56337451D01*
X112177379Y-56375558D01*
X112152279Y-56387615D01*
X112143077Y-56388000D01*
X112081523Y-56395288D01*
X112057452Y-56402160D01*
X112012235Y-56397273D01*
X111979175Y-56374946D01*
X111955726Y-56331418D01*
X111941497Y-56267935D01*
X111937656Y-56202145D01*
X111945375Y-56151698D01*
X111963200Y-56134000D01*
X111981487Y-56155954D01*
X111988600Y-56205345D01*
X112000009Y-56273898D01*
X112028123Y-56328644D01*
X112063765Y-56355793D01*
X112086346Y-56352281D01*
X112105082Y-56317325D01*
X112115084Y-56253117D01*
X112115600Y-56234100D01*
X112122082Y-56164021D01*
X112143491Y-56135574D01*
X112153700Y-56134000D01*
X112177659Y-56147595D01*
G37*
X112177659Y-56147595D02*
X112189361Y-56194668D01*
X112191800Y-56261000D01*
X112188980Y-56337451D01*
X112177379Y-56375558D01*
X112152279Y-56387615D01*
X112143077Y-56388000D01*
X112081523Y-56395288D01*
X112057452Y-56402160D01*
X112012235Y-56397273D01*
X111979175Y-56374946D01*
X111955726Y-56331418D01*
X111941497Y-56267935D01*
X111937656Y-56202145D01*
X111945375Y-56151698D01*
X111963200Y-56134000D01*
X111981487Y-56155954D01*
X111988600Y-56205345D01*
X112000009Y-56273898D01*
X112028123Y-56328644D01*
X112063765Y-56355793D01*
X112086346Y-56352281D01*
X112105082Y-56317325D01*
X112115084Y-56253117D01*
X112115600Y-56234100D01*
X112122082Y-56164021D01*
X112143491Y-56135574D01*
X112153700Y-56134000D01*
X112177659Y-56147595D01*
G36*
X111666520Y-56141949D02*
G01*
X111683800Y-56160430D01*
X111665460Y-56179034D01*
X111646513Y-56175926D01*
X111605677Y-56173422D01*
X111596053Y-56196763D01*
X111621749Y-56228832D01*
X111632288Y-56235219D01*
X111676760Y-56279701D01*
X111683022Y-56332354D01*
X111657810Y-56377672D01*
X111607855Y-56400144D01*
X111563150Y-56394449D01*
X111532889Y-56370791D01*
X111545688Y-56349420D01*
X111573116Y-56346372D01*
X111615776Y-56335544D01*
X111622603Y-56305939D01*
X111591185Y-56277037D01*
X111582117Y-56273673D01*
X111539461Y-56241950D01*
X111534545Y-56197711D01*
X111563464Y-56157528D01*
X111613950Y-56138662D01*
X111666520Y-56141949D01*
G37*
X111666520Y-56141949D02*
X111683800Y-56160430D01*
X111665460Y-56179034D01*
X111646513Y-56175926D01*
X111605677Y-56173422D01*
X111596053Y-56196763D01*
X111621749Y-56228832D01*
X111632288Y-56235219D01*
X111676760Y-56279701D01*
X111683022Y-56332354D01*
X111657810Y-56377672D01*
X111607855Y-56400144D01*
X111563150Y-56394449D01*
X111532889Y-56370791D01*
X111545688Y-56349420D01*
X111573116Y-56346372D01*
X111615776Y-56335544D01*
X111622603Y-56305939D01*
X111591185Y-56277037D01*
X111582117Y-56273673D01*
X111539461Y-56241950D01*
X111534545Y-56197711D01*
X111563464Y-56157528D01*
X111613950Y-56138662D01*
X111666520Y-56141949D01*
G36*
X111029750Y-56138740D02*
G01*
X111080340Y-56147147D01*
X111105763Y-56169229D01*
X111116498Y-56219561D01*
X111119910Y-56264147D01*
X111121846Y-56336781D01*
X111111349Y-56373752D01*
X111082505Y-56389781D01*
X111068152Y-56392945D01*
X111005453Y-56397208D01*
X110971641Y-56392338D01*
X110923639Y-56358461D01*
X110914332Y-56316631D01*
X110981451Y-56316631D01*
X110994717Y-56348617D01*
X111030528Y-56355973D01*
X111032077Y-56355485D01*
X111062129Y-56324893D01*
X111069712Y-56303345D01*
X111064700Y-56266386D01*
X111028588Y-56268918D01*
X111001095Y-56283949D01*
X110981451Y-56316631D01*
X110914332Y-56316631D01*
X110913098Y-56311086D01*
X110935833Y-56265804D01*
X110987661Y-56238207D01*
X111013710Y-56235600D01*
X111060941Y-56225571D01*
X111067166Y-56203850D01*
X111036307Y-56180878D01*
X111001550Y-56178150D01*
X110958660Y-56172573D01*
X110947200Y-56157491D01*
X110969227Y-56141387D01*
X111023373Y-56138203D01*
X111029750Y-56138740D01*
G37*
X111029750Y-56138740D02*
X111080340Y-56147147D01*
X111105763Y-56169229D01*
X111116498Y-56219561D01*
X111119910Y-56264147D01*
X111121846Y-56336781D01*
X111111349Y-56373752D01*
X111082505Y-56389781D01*
X111068152Y-56392945D01*
X111005453Y-56397208D01*
X110971641Y-56392338D01*
X110923639Y-56358461D01*
X110914332Y-56316631D01*
X110981451Y-56316631D01*
X110994717Y-56348617D01*
X111030528Y-56355973D01*
X111032077Y-56355485D01*
X111062129Y-56324893D01*
X111069712Y-56303345D01*
X111064700Y-56266386D01*
X111028588Y-56268918D01*
X111001095Y-56283949D01*
X110981451Y-56316631D01*
X110914332Y-56316631D01*
X110913098Y-56311086D01*
X110935833Y-56265804D01*
X110987661Y-56238207D01*
X111013710Y-56235600D01*
X111060941Y-56225571D01*
X111067166Y-56203850D01*
X111036307Y-56180878D01*
X111001550Y-56178150D01*
X110958660Y-56172573D01*
X110947200Y-56157491D01*
X110969227Y-56141387D01*
X111023373Y-56138203D01*
X111029750Y-56138740D01*
G36*
X118186200Y-56298206D02*
G01*
X118183614Y-56391555D01*
X118173626Y-56447237D01*
X118152892Y-56478219D01*
X118137069Y-56488706D01*
X118053755Y-56512057D01*
X117989350Y-56498178D01*
X117957911Y-56475250D01*
X117970552Y-56456032D01*
X118020658Y-56447460D01*
X118037443Y-56447754D01*
X118096309Y-56441343D01*
X118128119Y-56420630D01*
X118128460Y-56419750D01*
X118115935Y-56395562D01*
X118060687Y-56388000D01*
X117990663Y-56367496D01*
X117950803Y-56313070D01*
X117948388Y-56265484D01*
X118008400Y-56265484D01*
X118014524Y-56318270D01*
X118040441Y-56334323D01*
X118065290Y-56332616D01*
X118113784Y-56308289D01*
X118130887Y-56278829D01*
X118124235Y-56222779D01*
X118091517Y-56182689D01*
X118046982Y-56175497D01*
X118044642Y-56176327D01*
X118018493Y-56209365D01*
X118008400Y-56265484D01*
X117948388Y-56265484D01*
X117946858Y-56235344D01*
X117957600Y-56197500D01*
X117982412Y-56155344D01*
X118025310Y-56137229D01*
X118083971Y-56134000D01*
X118186200Y-56134000D01*
X118186200Y-56298206D01*
G37*
X118186200Y-56298206D02*
X118183614Y-56391555D01*
X118173626Y-56447237D01*
X118152892Y-56478219D01*
X118137069Y-56488706D01*
X118053755Y-56512057D01*
X117989350Y-56498178D01*
X117957911Y-56475250D01*
X117970552Y-56456032D01*
X118020658Y-56447460D01*
X118037443Y-56447754D01*
X118096309Y-56441343D01*
X118128119Y-56420630D01*
X118128460Y-56419750D01*
X118115935Y-56395562D01*
X118060687Y-56388000D01*
X117990663Y-56367496D01*
X117950803Y-56313070D01*
X117948388Y-56265484D01*
X118008400Y-56265484D01*
X118014524Y-56318270D01*
X118040441Y-56334323D01*
X118065290Y-56332616D01*
X118113784Y-56308289D01*
X118130887Y-56278829D01*
X118124235Y-56222779D01*
X118091517Y-56182689D01*
X118046982Y-56175497D01*
X118044642Y-56176327D01*
X118018493Y-56209365D01*
X118008400Y-56265484D01*
X117948388Y-56265484D01*
X117946858Y-56235344D01*
X117957600Y-56197500D01*
X117982412Y-56155344D01*
X118025310Y-56137229D01*
X118083971Y-56134000D01*
X118186200Y-56134000D01*
X118186200Y-56298206D01*
D13*
%TO.C,R3*%
X121055159Y-85343000D02*
X121362441Y-85343000D01*
X121055159Y-84583000D02*
X121362441Y-84583000D01*
%TO.C,R6*%
X144890758Y-75321900D02*
X144416242Y-75321900D01*
X144890758Y-76366900D02*
X144416242Y-76366900D01*
%TO.C,C7*%
X119356600Y-83552420D02*
X119356600Y-83833580D01*
X118336600Y-83552420D02*
X118336600Y-83833580D01*
%TO.C,R5*%
X130570500Y-92566258D02*
X130570500Y-92091742D01*
X129525500Y-92566258D02*
X129525500Y-92091742D01*
%TO.C,R16*%
X144763258Y-88834700D02*
X144288742Y-88834700D01*
X144763258Y-89879700D02*
X144288742Y-89879700D01*
%TO.C,R15*%
X147842500Y-86978258D02*
X147842500Y-86503742D01*
X146797500Y-86978258D02*
X146797500Y-86503742D01*
%TO.C,R9*%
X140699258Y-87234500D02*
X140224742Y-87234500D01*
X140699258Y-88279500D02*
X140224742Y-88279500D01*
%TO.C,R1*%
X106278000Y-97215336D02*
X106278000Y-98669464D01*
X108098000Y-97215336D02*
X108098000Y-98669464D01*
%TO.C,U1*%
X145045000Y-85131000D02*
X142595000Y-85131000D01*
X143245000Y-88351000D02*
X145045000Y-88351000D01*
%TO.C,U3*%
X145172000Y-76876000D02*
X142722000Y-76876000D01*
X143372000Y-80096000D02*
X145172000Y-80096000D01*
%TO.C,R12*%
X107837500Y-89137258D02*
X107837500Y-88662742D01*
X106792500Y-89137258D02*
X106792500Y-88662742D01*
%TO.C,R11*%
X106792500Y-91837742D02*
X106792500Y-92312258D01*
X107837500Y-91837742D02*
X107837500Y-92312258D01*
%TO.C,C6*%
X112053200Y-88214252D02*
X112053200Y-86791748D01*
X109333200Y-88214252D02*
X109333200Y-86791748D01*
%TO.C,C5*%
X111455252Y-91477000D02*
X110032748Y-91477000D01*
X111455252Y-94197000D02*
X110032748Y-94197000D01*
%TO.C,C4*%
X115355200Y-88214252D02*
X115355200Y-86791748D01*
X112635200Y-88214252D02*
X112635200Y-86791748D01*
%TO.C,R7*%
X129046500Y-92566258D02*
X129046500Y-92091742D01*
X128001500Y-92566258D02*
X128001500Y-92091742D01*
%TO.C,R2*%
X144763258Y-90460300D02*
X144288742Y-90460300D01*
X144763258Y-91505300D02*
X144288742Y-91505300D01*
%TO.C,J10*%
X129607000Y-55940000D02*
X129607000Y-54610000D01*
X130937000Y-55940000D02*
X129607000Y-55940000D01*
X132207000Y-55940000D02*
X132207000Y-53280000D01*
X132207000Y-53280000D02*
X144967000Y-53280000D01*
X132207000Y-55940000D02*
X144967000Y-55940000D01*
X144967000Y-55940000D02*
X144967000Y-53280000D01*
%TO.C,J9*%
X106620000Y-58360000D02*
X107950000Y-58360000D01*
X106620000Y-59690000D02*
X106620000Y-58360000D01*
X106620000Y-60960000D02*
X109280000Y-60960000D01*
X109280000Y-60960000D02*
X109280000Y-73720000D01*
X106620000Y-60960000D02*
X106620000Y-73720000D01*
X106620000Y-73720000D02*
X109280000Y-73720000D01*
%TO.C,J6*%
X106175000Y-80540000D02*
X106175000Y-76940000D01*
X113055000Y-80040000D02*
X113055000Y-77440000D01*
X108255000Y-75140000D02*
X111455000Y-75140000D01*
X108255000Y-82340000D02*
X111455000Y-82340000D01*
%TO.C,J5*%
X156080000Y-57890000D02*
X156080000Y-61490000D01*
X149200000Y-58390000D02*
X149200000Y-60990000D01*
X154000000Y-63290000D02*
X150800000Y-63290000D01*
X154000000Y-56090000D02*
X150800000Y-56090000D01*
%TO.C,J4*%
X156080000Y-72622000D02*
X156080000Y-76222000D01*
X149200000Y-73122000D02*
X149200000Y-75722000D01*
X154000000Y-78022000D02*
X150800000Y-78022000D01*
X154000000Y-70822000D02*
X150800000Y-70822000D01*
%TO.C,J3*%
X156080000Y-87100000D02*
X156080000Y-90700000D01*
X149200000Y-87600000D02*
X149200000Y-90200000D01*
X154000000Y-92500000D02*
X150800000Y-92500000D01*
X154000000Y-85300000D02*
X150800000Y-85300000D01*
%TO.C,C10*%
X117041200Y-91909020D02*
X117041200Y-92190180D01*
X118061200Y-91909020D02*
X118061200Y-92190180D01*
%TO.C,C12*%
X123111800Y-83552420D02*
X123111800Y-83833580D01*
X124131800Y-83552420D02*
X124131800Y-83833580D01*
%TO.C,C13*%
X119661400Y-96228780D02*
X119661400Y-95947620D01*
X118641400Y-96228780D02*
X118641400Y-95947620D01*
%TO.C,C11*%
X121261600Y-96228780D02*
X121261600Y-95947620D01*
X120241600Y-96228780D02*
X120241600Y-95947620D01*
%TO.C,C9*%
X118666800Y-91909020D02*
X118666800Y-92190180D01*
X119686800Y-91909020D02*
X119686800Y-92190180D01*
%TO.C,C8*%
X120241600Y-91909020D02*
X120241600Y-92190180D01*
X121261600Y-91909020D02*
X121261600Y-92190180D01*
%TO.C,C2*%
X144158580Y-83437000D02*
X143877420Y-83437000D01*
X144158580Y-84457000D02*
X143877420Y-84457000D01*
%TO.C,C1*%
X146759200Y-78294620D02*
X146759200Y-78575780D01*
X147779200Y-78294620D02*
X147779200Y-78575780D01*
%TO.C,R8*%
D14*
X139934904Y-71253333D02*
X139553952Y-71520000D01*
X139934904Y-71710476D02*
X139134904Y-71710476D01*
X139134904Y-71405714D01*
X139173000Y-71329523D01*
X139211095Y-71291428D01*
X139287285Y-71253333D01*
X139401571Y-71253333D01*
X139477761Y-71291428D01*
X139515857Y-71329523D01*
X139553952Y-71405714D01*
X139553952Y-71710476D01*
X139477761Y-70796190D02*
X139439666Y-70872380D01*
X139401571Y-70910476D01*
X139325380Y-70948571D01*
X139287285Y-70948571D01*
X139211095Y-70910476D01*
X139173000Y-70872380D01*
X139134904Y-70796190D01*
X139134904Y-70643809D01*
X139173000Y-70567619D01*
X139211095Y-70529523D01*
X139287285Y-70491428D01*
X139325380Y-70491428D01*
X139401571Y-70529523D01*
X139439666Y-70567619D01*
X139477761Y-70643809D01*
X139477761Y-70796190D01*
X139515857Y-70872380D01*
X139553952Y-70910476D01*
X139630142Y-70948571D01*
X139782523Y-70948571D01*
X139858714Y-70910476D01*
X139896809Y-70872380D01*
X139934904Y-70796190D01*
X139934904Y-70643809D01*
X139896809Y-70567619D01*
X139858714Y-70529523D01*
X139782523Y-70491428D01*
X139630142Y-70491428D01*
X139553952Y-70529523D01*
X139515857Y-70567619D01*
X139477761Y-70643809D01*
%TO.C,R18*%
X135870904Y-71253285D02*
X135489952Y-71519952D01*
X135870904Y-71710428D02*
X135070904Y-71710428D01*
X135070904Y-71405666D01*
X135109000Y-71329476D01*
X135147095Y-71291380D01*
X135223285Y-71253285D01*
X135337571Y-71253285D01*
X135413761Y-71291380D01*
X135451857Y-71329476D01*
X135489952Y-71405666D01*
X135489952Y-71710428D01*
X135870904Y-70491380D02*
X135870904Y-70948523D01*
X135870904Y-70719952D02*
X135070904Y-70719952D01*
X135185190Y-70796142D01*
X135261380Y-70872333D01*
X135299476Y-70948523D01*
X135413761Y-70034238D02*
X135375666Y-70110428D01*
X135337571Y-70148523D01*
X135261380Y-70186619D01*
X135223285Y-70186619D01*
X135147095Y-70148523D01*
X135109000Y-70110428D01*
X135070904Y-70034238D01*
X135070904Y-69881857D01*
X135109000Y-69805666D01*
X135147095Y-69767571D01*
X135223285Y-69729476D01*
X135261380Y-69729476D01*
X135337571Y-69767571D01*
X135375666Y-69805666D01*
X135413761Y-69881857D01*
X135413761Y-70034238D01*
X135451857Y-70110428D01*
X135489952Y-70148523D01*
X135566142Y-70186619D01*
X135718523Y-70186619D01*
X135794714Y-70148523D01*
X135832809Y-70110428D01*
X135870904Y-70034238D01*
X135870904Y-69881857D01*
X135832809Y-69805666D01*
X135794714Y-69767571D01*
X135718523Y-69729476D01*
X135566142Y-69729476D01*
X135489952Y-69767571D01*
X135451857Y-69805666D01*
X135413761Y-69881857D01*
%TO.C,R17*%
X138029904Y-71253285D02*
X137648952Y-71519952D01*
X138029904Y-71710428D02*
X137229904Y-71710428D01*
X137229904Y-71405666D01*
X137268000Y-71329476D01*
X137306095Y-71291380D01*
X137382285Y-71253285D01*
X137496571Y-71253285D01*
X137572761Y-71291380D01*
X137610857Y-71329476D01*
X137648952Y-71405666D01*
X137648952Y-71710428D01*
X138029904Y-70491380D02*
X138029904Y-70948523D01*
X138029904Y-70719952D02*
X137229904Y-70719952D01*
X137344190Y-70796142D01*
X137420380Y-70872333D01*
X137458476Y-70948523D01*
X137229904Y-70224714D02*
X137229904Y-69691380D01*
X138029904Y-70034238D01*
%TO.C,R14*%
X118852904Y-71380285D02*
X118471952Y-71646952D01*
X118852904Y-71837428D02*
X118052904Y-71837428D01*
X118052904Y-71532666D01*
X118091000Y-71456476D01*
X118129095Y-71418380D01*
X118205285Y-71380285D01*
X118319571Y-71380285D01*
X118395761Y-71418380D01*
X118433857Y-71456476D01*
X118471952Y-71532666D01*
X118471952Y-71837428D01*
X118852904Y-70618380D02*
X118852904Y-71075523D01*
X118852904Y-70846952D02*
X118052904Y-70846952D01*
X118167190Y-70923142D01*
X118243380Y-70999333D01*
X118281476Y-71075523D01*
X118319571Y-69932666D02*
X118852904Y-69932666D01*
X118014809Y-70123142D02*
X118586238Y-70313619D01*
X118586238Y-69818380D01*
%TO.C,R13*%
X121265904Y-71380285D02*
X120884952Y-71646952D01*
X121265904Y-71837428D02*
X120465904Y-71837428D01*
X120465904Y-71532666D01*
X120504000Y-71456476D01*
X120542095Y-71418380D01*
X120618285Y-71380285D01*
X120732571Y-71380285D01*
X120808761Y-71418380D01*
X120846857Y-71456476D01*
X120884952Y-71532666D01*
X120884952Y-71837428D01*
X121265904Y-70618380D02*
X121265904Y-71075523D01*
X121265904Y-70846952D02*
X120465904Y-70846952D01*
X120580190Y-70923142D01*
X120656380Y-70999333D01*
X120694476Y-71075523D01*
X120465904Y-70351714D02*
X120465904Y-69856476D01*
X120770666Y-70123142D01*
X120770666Y-70008857D01*
X120808761Y-69932666D01*
X120846857Y-69894571D01*
X120923047Y-69856476D01*
X121113523Y-69856476D01*
X121189714Y-69894571D01*
X121227809Y-69932666D01*
X121265904Y-70008857D01*
X121265904Y-70237428D01*
X121227809Y-70313619D01*
X121189714Y-70351714D01*
%TO.C,R10*%
X119995904Y-71380285D02*
X119614952Y-71646952D01*
X119995904Y-71837428D02*
X119195904Y-71837428D01*
X119195904Y-71532666D01*
X119234000Y-71456476D01*
X119272095Y-71418380D01*
X119348285Y-71380285D01*
X119462571Y-71380285D01*
X119538761Y-71418380D01*
X119576857Y-71456476D01*
X119614952Y-71532666D01*
X119614952Y-71837428D01*
X119995904Y-70618380D02*
X119995904Y-71075523D01*
X119995904Y-70846952D02*
X119195904Y-70846952D01*
X119310190Y-70923142D01*
X119386380Y-70999333D01*
X119424476Y-71075523D01*
X119195904Y-70123142D02*
X119195904Y-70046952D01*
X119234000Y-69970761D01*
X119272095Y-69932666D01*
X119348285Y-69894571D01*
X119500666Y-69856476D01*
X119691142Y-69856476D01*
X119843523Y-69894571D01*
X119919714Y-69932666D01*
X119957809Y-69970761D01*
X119995904Y-70046952D01*
X119995904Y-70123142D01*
X119957809Y-70199333D01*
X119919714Y-70237428D01*
X119843523Y-70275523D01*
X119691142Y-70313619D01*
X119500666Y-70313619D01*
X119348285Y-70275523D01*
X119272095Y-70237428D01*
X119234000Y-70199333D01*
X119195904Y-70123142D01*
%TO.C,C14*%
X117862314Y-99320285D02*
X117900409Y-99358380D01*
X117938504Y-99472666D01*
X117938504Y-99548857D01*
X117900409Y-99663142D01*
X117824219Y-99739333D01*
X117748028Y-99777428D01*
X117595647Y-99815523D01*
X117481361Y-99815523D01*
X117328980Y-99777428D01*
X117252790Y-99739333D01*
X117176600Y-99663142D01*
X117138504Y-99548857D01*
X117138504Y-99472666D01*
X117176600Y-99358380D01*
X117214695Y-99320285D01*
X117938504Y-98558380D02*
X117938504Y-99015523D01*
X117938504Y-98786952D02*
X117138504Y-98786952D01*
X117252790Y-98863142D01*
X117328980Y-98939333D01*
X117367076Y-99015523D01*
X117405171Y-97872666D02*
X117938504Y-97872666D01*
X117100409Y-98063142D02*
X117671838Y-98253619D01*
X117671838Y-97758380D01*
%TO.C,J1*%
X110985333Y-101542904D02*
X110985333Y-102114333D01*
X110947238Y-102228619D01*
X110871047Y-102304809D01*
X110756761Y-102342904D01*
X110680571Y-102342904D01*
X111785333Y-102342904D02*
X111328190Y-102342904D01*
X111556761Y-102342904D02*
X111556761Y-101542904D01*
X111480571Y-101657190D01*
X111404380Y-101733380D01*
X111328190Y-101771476D01*
%TO.C,U4*%
X123215476Y-63569904D02*
X123215476Y-64217523D01*
X123253571Y-64293714D01*
X123291666Y-64331809D01*
X123367857Y-64369904D01*
X123520238Y-64369904D01*
X123596428Y-64331809D01*
X123634523Y-64293714D01*
X123672619Y-64217523D01*
X123672619Y-63569904D01*
X124396428Y-63836571D02*
X124396428Y-64369904D01*
X124205952Y-63531809D02*
X124015476Y-64103238D01*
X124510714Y-64103238D01*
%TO.C,JP1*%
X114242933Y-89941904D02*
X114242933Y-90513333D01*
X114204838Y-90627619D01*
X114128647Y-90703809D01*
X114014361Y-90741904D01*
X113938171Y-90741904D01*
X114623885Y-90741904D02*
X114623885Y-89941904D01*
X114928647Y-89941904D01*
X115004838Y-89980000D01*
X115042933Y-90018095D01*
X115081028Y-90094285D01*
X115081028Y-90208571D01*
X115042933Y-90284761D01*
X115004838Y-90322857D01*
X114928647Y-90360952D01*
X114623885Y-90360952D01*
X115842933Y-90741904D02*
X115385790Y-90741904D01*
X115614361Y-90741904D02*
X115614361Y-89941904D01*
X115538171Y-90056190D01*
X115461980Y-90132380D01*
X115385790Y-90170476D01*
%TO.C,R4*%
X125469666Y-84181904D02*
X125203000Y-83800952D01*
X125012523Y-84181904D02*
X125012523Y-83381904D01*
X125317285Y-83381904D01*
X125393476Y-83420000D01*
X125431571Y-83458095D01*
X125469666Y-83534285D01*
X125469666Y-83648571D01*
X125431571Y-83724761D01*
X125393476Y-83762857D01*
X125317285Y-83800952D01*
X125012523Y-83800952D01*
X126155380Y-83648571D02*
X126155380Y-84181904D01*
X125964904Y-83343809D02*
X125774428Y-83915238D01*
X126269666Y-83915238D01*
%TO.C,U2*%
X120506176Y-80638704D02*
X120506176Y-81286323D01*
X120544271Y-81362514D01*
X120582366Y-81400609D01*
X120658557Y-81438704D01*
X120810938Y-81438704D01*
X120887128Y-81400609D01*
X120925223Y-81362514D01*
X120963319Y-81286323D01*
X120963319Y-80638704D01*
X121306176Y-80714895D02*
X121344271Y-80676800D01*
X121420461Y-80638704D01*
X121610938Y-80638704D01*
X121687128Y-80676800D01*
X121725223Y-80714895D01*
X121763319Y-80791085D01*
X121763319Y-80867276D01*
X121725223Y-80981561D01*
X121268080Y-81438704D01*
X121763319Y-81438704D01*
%TO.C,C3*%
X110610666Y-98750114D02*
X110572571Y-98788209D01*
X110458285Y-98826304D01*
X110382095Y-98826304D01*
X110267809Y-98788209D01*
X110191619Y-98712019D01*
X110153523Y-98635828D01*
X110115428Y-98483447D01*
X110115428Y-98369161D01*
X110153523Y-98216780D01*
X110191619Y-98140590D01*
X110267809Y-98064400D01*
X110382095Y-98026304D01*
X110458285Y-98026304D01*
X110572571Y-98064400D01*
X110610666Y-98102495D01*
X110877333Y-98026304D02*
X111372571Y-98026304D01*
X111105904Y-98331066D01*
X111220190Y-98331066D01*
X111296380Y-98369161D01*
X111334476Y-98407257D01*
X111372571Y-98483447D01*
X111372571Y-98673923D01*
X111334476Y-98750114D01*
X111296380Y-98788209D01*
X111220190Y-98826304D01*
X110991619Y-98826304D01*
X110915428Y-98788209D01*
X110877333Y-98750114D01*
%TO.C,R3*%
X121075466Y-86544104D02*
X120808800Y-86163152D01*
X120618323Y-86544104D02*
X120618323Y-85744104D01*
X120923085Y-85744104D01*
X120999276Y-85782200D01*
X121037371Y-85820295D01*
X121075466Y-85896485D01*
X121075466Y-86010771D01*
X121037371Y-86086961D01*
X120999276Y-86125057D01*
X120923085Y-86163152D01*
X120618323Y-86163152D01*
X121342133Y-85744104D02*
X121837371Y-85744104D01*
X121570704Y-86048866D01*
X121684990Y-86048866D01*
X121761180Y-86086961D01*
X121799276Y-86125057D01*
X121837371Y-86201247D01*
X121837371Y-86391723D01*
X121799276Y-86467914D01*
X121761180Y-86506009D01*
X121684990Y-86544104D01*
X121456419Y-86544104D01*
X121380228Y-86506009D01*
X121342133Y-86467914D01*
%TO.C,R6*%
X142208766Y-76257104D02*
X141942100Y-75876152D01*
X141751623Y-76257104D02*
X141751623Y-75457104D01*
X142056385Y-75457104D01*
X142132576Y-75495200D01*
X142170671Y-75533295D01*
X142208766Y-75609485D01*
X142208766Y-75723771D01*
X142170671Y-75799961D01*
X142132576Y-75838057D01*
X142056385Y-75876152D01*
X141751623Y-75876152D01*
X142894480Y-75457104D02*
X142742100Y-75457104D01*
X142665909Y-75495200D01*
X142627814Y-75533295D01*
X142551623Y-75647580D01*
X142513528Y-75799961D01*
X142513528Y-76104723D01*
X142551623Y-76180914D01*
X142589719Y-76219009D01*
X142665909Y-76257104D01*
X142818290Y-76257104D01*
X142894480Y-76219009D01*
X142932576Y-76180914D01*
X142970671Y-76104723D01*
X142970671Y-75914247D01*
X142932576Y-75838057D01*
X142894480Y-75799961D01*
X142818290Y-75761866D01*
X142665909Y-75761866D01*
X142589719Y-75799961D01*
X142551623Y-75838057D01*
X142513528Y-75914247D01*
%TO.C,C7*%
X117913114Y-83775533D02*
X117951209Y-83813628D01*
X117989304Y-83927914D01*
X117989304Y-84004104D01*
X117951209Y-84118390D01*
X117875019Y-84194580D01*
X117798828Y-84232676D01*
X117646447Y-84270771D01*
X117532161Y-84270771D01*
X117379780Y-84232676D01*
X117303590Y-84194580D01*
X117227400Y-84118390D01*
X117189304Y-84004104D01*
X117189304Y-83927914D01*
X117227400Y-83813628D01*
X117265495Y-83775533D01*
X117189304Y-83508866D02*
X117189304Y-82975533D01*
X117989304Y-83318390D01*
%TO.C,R5*%
X130409904Y-95002333D02*
X130028952Y-95269000D01*
X130409904Y-95459476D02*
X129609904Y-95459476D01*
X129609904Y-95154714D01*
X129648000Y-95078523D01*
X129686095Y-95040428D01*
X129762285Y-95002333D01*
X129876571Y-95002333D01*
X129952761Y-95040428D01*
X129990857Y-95078523D01*
X130028952Y-95154714D01*
X130028952Y-95459476D01*
X129609904Y-94278523D02*
X129609904Y-94659476D01*
X129990857Y-94697571D01*
X129952761Y-94659476D01*
X129914666Y-94583285D01*
X129914666Y-94392809D01*
X129952761Y-94316619D01*
X129990857Y-94278523D01*
X130067047Y-94240428D01*
X130257523Y-94240428D01*
X130333714Y-94278523D01*
X130371809Y-94316619D01*
X130409904Y-94392809D01*
X130409904Y-94583285D01*
X130371809Y-94659476D01*
X130333714Y-94697571D01*
%TO.C,R16*%
X141370114Y-89769904D02*
X141103447Y-89388952D01*
X140912971Y-89769904D02*
X140912971Y-88969904D01*
X141217733Y-88969904D01*
X141293923Y-89008000D01*
X141332019Y-89046095D01*
X141370114Y-89122285D01*
X141370114Y-89236571D01*
X141332019Y-89312761D01*
X141293923Y-89350857D01*
X141217733Y-89388952D01*
X140912971Y-89388952D01*
X142132019Y-89769904D02*
X141674876Y-89769904D01*
X141903447Y-89769904D02*
X141903447Y-88969904D01*
X141827257Y-89084190D01*
X141751066Y-89160380D01*
X141674876Y-89198476D01*
X142817733Y-88969904D02*
X142665352Y-88969904D01*
X142589161Y-89008000D01*
X142551066Y-89046095D01*
X142474876Y-89160380D01*
X142436780Y-89312761D01*
X142436780Y-89617523D01*
X142474876Y-89693714D01*
X142512971Y-89731809D01*
X142589161Y-89769904D01*
X142741542Y-89769904D01*
X142817733Y-89731809D01*
X142855828Y-89693714D01*
X142893923Y-89617523D01*
X142893923Y-89427047D01*
X142855828Y-89350857D01*
X142817733Y-89312761D01*
X142741542Y-89274666D01*
X142589161Y-89274666D01*
X142512971Y-89312761D01*
X142474876Y-89350857D01*
X142436780Y-89427047D01*
%TO.C,R15*%
X147732704Y-90023885D02*
X147351752Y-90290552D01*
X147732704Y-90481028D02*
X146932704Y-90481028D01*
X146932704Y-90176266D01*
X146970800Y-90100076D01*
X147008895Y-90061980D01*
X147085085Y-90023885D01*
X147199371Y-90023885D01*
X147275561Y-90061980D01*
X147313657Y-90100076D01*
X147351752Y-90176266D01*
X147351752Y-90481028D01*
X147732704Y-89261980D02*
X147732704Y-89719123D01*
X147732704Y-89490552D02*
X146932704Y-89490552D01*
X147046990Y-89566742D01*
X147123180Y-89642933D01*
X147161276Y-89719123D01*
X146932704Y-88538171D02*
X146932704Y-88919123D01*
X147313657Y-88957219D01*
X147275561Y-88919123D01*
X147237466Y-88842933D01*
X147237466Y-88652457D01*
X147275561Y-88576266D01*
X147313657Y-88538171D01*
X147389847Y-88500076D01*
X147580323Y-88500076D01*
X147656514Y-88538171D01*
X147694609Y-88576266D01*
X147732704Y-88652457D01*
X147732704Y-88842933D01*
X147694609Y-88919123D01*
X147656514Y-88957219D01*
%TO.C,R9*%
X138042666Y-88093504D02*
X137776000Y-87712552D01*
X137585523Y-88093504D02*
X137585523Y-87293504D01*
X137890285Y-87293504D01*
X137966476Y-87331600D01*
X138004571Y-87369695D01*
X138042666Y-87445885D01*
X138042666Y-87560171D01*
X138004571Y-87636361D01*
X137966476Y-87674457D01*
X137890285Y-87712552D01*
X137585523Y-87712552D01*
X138423619Y-88093504D02*
X138576000Y-88093504D01*
X138652190Y-88055409D01*
X138690285Y-88017314D01*
X138766476Y-87903028D01*
X138804571Y-87750647D01*
X138804571Y-87445885D01*
X138766476Y-87369695D01*
X138728380Y-87331600D01*
X138652190Y-87293504D01*
X138499809Y-87293504D01*
X138423619Y-87331600D01*
X138385523Y-87369695D01*
X138347428Y-87445885D01*
X138347428Y-87636361D01*
X138385523Y-87712552D01*
X138423619Y-87750647D01*
X138499809Y-87788742D01*
X138652190Y-87788742D01*
X138728380Y-87750647D01*
X138766476Y-87712552D01*
X138804571Y-87636361D01*
%TO.C,R1*%
X106914904Y-100971333D02*
X106533952Y-101238000D01*
X106914904Y-101428476D02*
X106114904Y-101428476D01*
X106114904Y-101123714D01*
X106153000Y-101047523D01*
X106191095Y-101009428D01*
X106267285Y-100971333D01*
X106381571Y-100971333D01*
X106457761Y-101009428D01*
X106495857Y-101047523D01*
X106533952Y-101123714D01*
X106533952Y-101428476D01*
X106914904Y-100209428D02*
X106914904Y-100666571D01*
X106914904Y-100438000D02*
X106114904Y-100438000D01*
X106229190Y-100514190D01*
X106305380Y-100590380D01*
X106343476Y-100666571D01*
%TO.C,U1*%
X140868476Y-85464704D02*
X140868476Y-86112323D01*
X140906571Y-86188514D01*
X140944666Y-86226609D01*
X141020857Y-86264704D01*
X141173238Y-86264704D01*
X141249428Y-86226609D01*
X141287523Y-86188514D01*
X141325619Y-86112323D01*
X141325619Y-85464704D01*
X142125619Y-86264704D02*
X141668476Y-86264704D01*
X141897047Y-86264704D02*
X141897047Y-85464704D01*
X141820857Y-85578990D01*
X141744666Y-85655180D01*
X141668476Y-85693276D01*
%TO.C,U3*%
X140716076Y-77870104D02*
X140716076Y-78517723D01*
X140754171Y-78593914D01*
X140792266Y-78632009D01*
X140868457Y-78670104D01*
X141020838Y-78670104D01*
X141097028Y-78632009D01*
X141135123Y-78593914D01*
X141173219Y-78517723D01*
X141173219Y-77870104D01*
X141477980Y-77870104D02*
X141973219Y-77870104D01*
X141706552Y-78174866D01*
X141820838Y-78174866D01*
X141897028Y-78212961D01*
X141935123Y-78251057D01*
X141973219Y-78327247D01*
X141973219Y-78517723D01*
X141935123Y-78593914D01*
X141897028Y-78632009D01*
X141820838Y-78670104D01*
X141592266Y-78670104D01*
X141516076Y-78632009D01*
X141477980Y-78593914D01*
%TO.C,R12*%
X107651504Y-86721885D02*
X107270552Y-86988552D01*
X107651504Y-87179028D02*
X106851504Y-87179028D01*
X106851504Y-86874266D01*
X106889600Y-86798076D01*
X106927695Y-86759980D01*
X107003885Y-86721885D01*
X107118171Y-86721885D01*
X107194361Y-86759980D01*
X107232457Y-86798076D01*
X107270552Y-86874266D01*
X107270552Y-87179028D01*
X107651504Y-85959980D02*
X107651504Y-86417123D01*
X107651504Y-86188552D02*
X106851504Y-86188552D01*
X106965790Y-86264742D01*
X107041980Y-86340933D01*
X107080076Y-86417123D01*
X106927695Y-85655219D02*
X106889600Y-85617123D01*
X106851504Y-85540933D01*
X106851504Y-85350457D01*
X106889600Y-85274266D01*
X106927695Y-85236171D01*
X107003885Y-85198076D01*
X107080076Y-85198076D01*
X107194361Y-85236171D01*
X107651504Y-85693314D01*
X107651504Y-85198076D01*
%TO.C,R11*%
X107600704Y-95103885D02*
X107219752Y-95370552D01*
X107600704Y-95561028D02*
X106800704Y-95561028D01*
X106800704Y-95256266D01*
X106838800Y-95180076D01*
X106876895Y-95141980D01*
X106953085Y-95103885D01*
X107067371Y-95103885D01*
X107143561Y-95141980D01*
X107181657Y-95180076D01*
X107219752Y-95256266D01*
X107219752Y-95561028D01*
X107600704Y-94341980D02*
X107600704Y-94799123D01*
X107600704Y-94570552D02*
X106800704Y-94570552D01*
X106914990Y-94646742D01*
X106991180Y-94722933D01*
X107029276Y-94799123D01*
X107600704Y-93580076D02*
X107600704Y-94037219D01*
X107600704Y-93808647D02*
X106800704Y-93808647D01*
X106914990Y-93884838D01*
X106991180Y-93961028D01*
X107029276Y-94037219D01*
%TO.C,C6*%
X108870714Y-86112333D02*
X108908809Y-86150428D01*
X108946904Y-86264714D01*
X108946904Y-86340904D01*
X108908809Y-86455190D01*
X108832619Y-86531380D01*
X108756428Y-86569476D01*
X108604047Y-86607571D01*
X108489761Y-86607571D01*
X108337380Y-86569476D01*
X108261190Y-86531380D01*
X108185000Y-86455190D01*
X108146904Y-86340904D01*
X108146904Y-86264714D01*
X108185000Y-86150428D01*
X108223095Y-86112333D01*
X108146904Y-85426619D02*
X108146904Y-85579000D01*
X108185000Y-85655190D01*
X108223095Y-85693285D01*
X108337380Y-85769476D01*
X108489761Y-85807571D01*
X108794523Y-85807571D01*
X108870714Y-85769476D01*
X108908809Y-85731380D01*
X108946904Y-85655190D01*
X108946904Y-85502809D01*
X108908809Y-85426619D01*
X108870714Y-85388523D01*
X108794523Y-85350428D01*
X108604047Y-85350428D01*
X108527857Y-85388523D01*
X108489761Y-85426619D01*
X108451666Y-85502809D01*
X108451666Y-85655190D01*
X108489761Y-85731380D01*
X108527857Y-85769476D01*
X108604047Y-85807571D01*
%TO.C,C5*%
X110610666Y-91065314D02*
X110572571Y-91103409D01*
X110458285Y-91141504D01*
X110382095Y-91141504D01*
X110267809Y-91103409D01*
X110191619Y-91027219D01*
X110153523Y-90951028D01*
X110115428Y-90798647D01*
X110115428Y-90684361D01*
X110153523Y-90531980D01*
X110191619Y-90455790D01*
X110267809Y-90379600D01*
X110382095Y-90341504D01*
X110458285Y-90341504D01*
X110572571Y-90379600D01*
X110610666Y-90417695D01*
X111334476Y-90341504D02*
X110953523Y-90341504D01*
X110915428Y-90722457D01*
X110953523Y-90684361D01*
X111029714Y-90646266D01*
X111220190Y-90646266D01*
X111296380Y-90684361D01*
X111334476Y-90722457D01*
X111372571Y-90798647D01*
X111372571Y-90989123D01*
X111334476Y-91065314D01*
X111296380Y-91103409D01*
X111220190Y-91141504D01*
X111029714Y-91141504D01*
X110953523Y-91103409D01*
X110915428Y-91065314D01*
%TO.C,C4*%
X116490714Y-88271333D02*
X116528809Y-88309428D01*
X116566904Y-88423714D01*
X116566904Y-88499904D01*
X116528809Y-88614190D01*
X116452619Y-88690380D01*
X116376428Y-88728476D01*
X116224047Y-88766571D01*
X116109761Y-88766571D01*
X115957380Y-88728476D01*
X115881190Y-88690380D01*
X115805000Y-88614190D01*
X115766904Y-88499904D01*
X115766904Y-88423714D01*
X115805000Y-88309428D01*
X115843095Y-88271333D01*
X116033571Y-87585619D02*
X116566904Y-87585619D01*
X115728809Y-87776095D02*
X116300238Y-87966571D01*
X116300238Y-87471333D01*
%TO.C,R7*%
X128885904Y-95002333D02*
X128504952Y-95269000D01*
X128885904Y-95459476D02*
X128085904Y-95459476D01*
X128085904Y-95154714D01*
X128124000Y-95078523D01*
X128162095Y-95040428D01*
X128238285Y-95002333D01*
X128352571Y-95002333D01*
X128428761Y-95040428D01*
X128466857Y-95078523D01*
X128504952Y-95154714D01*
X128504952Y-95459476D01*
X128085904Y-94735666D02*
X128085904Y-94202333D01*
X128885904Y-94545190D01*
%TO.C,R2*%
X141979666Y-91395504D02*
X141713000Y-91014552D01*
X141522523Y-91395504D02*
X141522523Y-90595504D01*
X141827285Y-90595504D01*
X141903476Y-90633600D01*
X141941571Y-90671695D01*
X141979666Y-90747885D01*
X141979666Y-90862171D01*
X141941571Y-90938361D01*
X141903476Y-90976457D01*
X141827285Y-91014552D01*
X141522523Y-91014552D01*
X142284428Y-90671695D02*
X142322523Y-90633600D01*
X142398714Y-90595504D01*
X142589190Y-90595504D01*
X142665380Y-90633600D01*
X142703476Y-90671695D01*
X142741571Y-90747885D01*
X142741571Y-90824076D01*
X142703476Y-90938361D01*
X142246333Y-91395504D01*
X142741571Y-91395504D01*
%TO.C,J10*%
X128168904Y-55257619D02*
X128740333Y-55257619D01*
X128854619Y-55295714D01*
X128930809Y-55371904D01*
X128968904Y-55486190D01*
X128968904Y-55562380D01*
X128968904Y-54457619D02*
X128968904Y-54914761D01*
X128968904Y-54686190D02*
X128168904Y-54686190D01*
X128283190Y-54762380D01*
X128359380Y-54838571D01*
X128397476Y-54914761D01*
X128168904Y-53962380D02*
X128168904Y-53886190D01*
X128207000Y-53810000D01*
X128245095Y-53771904D01*
X128321285Y-53733809D01*
X128473666Y-53695714D01*
X128664142Y-53695714D01*
X128816523Y-53733809D01*
X128892714Y-53771904D01*
X128930809Y-53810000D01*
X128968904Y-53886190D01*
X128968904Y-53962380D01*
X128930809Y-54038571D01*
X128892714Y-54076666D01*
X128816523Y-54114761D01*
X128664142Y-54152857D01*
X128473666Y-54152857D01*
X128321285Y-54114761D01*
X128245095Y-54076666D01*
X128207000Y-54038571D01*
X128168904Y-53962380D01*
%TO.C,J9*%
X107683333Y-56921904D02*
X107683333Y-57493333D01*
X107645238Y-57607619D01*
X107569047Y-57683809D01*
X107454761Y-57721904D01*
X107378571Y-57721904D01*
X108102380Y-57721904D02*
X108254761Y-57721904D01*
X108330952Y-57683809D01*
X108369047Y-57645714D01*
X108445238Y-57531428D01*
X108483333Y-57379047D01*
X108483333Y-57074285D01*
X108445238Y-56998095D01*
X108407142Y-56960000D01*
X108330952Y-56921904D01*
X108178571Y-56921904D01*
X108102380Y-56960000D01*
X108064285Y-56998095D01*
X108026190Y-57074285D01*
X108026190Y-57264761D01*
X108064285Y-57340952D01*
X108102380Y-57379047D01*
X108178571Y-57417142D01*
X108330952Y-57417142D01*
X108407142Y-57379047D01*
X108445238Y-57340952D01*
X108483333Y-57264761D01*
%TO.C,J6*%
X114541333Y-78301904D02*
X114541333Y-78873333D01*
X114503238Y-78987619D01*
X114427047Y-79063809D01*
X114312761Y-79101904D01*
X114236571Y-79101904D01*
X115265142Y-78301904D02*
X115112761Y-78301904D01*
X115036571Y-78340000D01*
X114998476Y-78378095D01*
X114922285Y-78492380D01*
X114884190Y-78644761D01*
X114884190Y-78949523D01*
X114922285Y-79025714D01*
X114960380Y-79063809D01*
X115036571Y-79101904D01*
X115188952Y-79101904D01*
X115265142Y-79063809D01*
X115303238Y-79025714D01*
X115341333Y-78949523D01*
X115341333Y-78759047D01*
X115303238Y-78682857D01*
X115265142Y-78644761D01*
X115188952Y-78606666D01*
X115036571Y-78606666D01*
X114960380Y-78644761D01*
X114922285Y-78682857D01*
X114884190Y-78759047D01*
%TO.C,J5*%
X152133333Y-54351904D02*
X152133333Y-54923333D01*
X152095238Y-55037619D01*
X152019047Y-55113809D01*
X151904761Y-55151904D01*
X151828571Y-55151904D01*
X152895238Y-54351904D02*
X152514285Y-54351904D01*
X152476190Y-54732857D01*
X152514285Y-54694761D01*
X152590476Y-54656666D01*
X152780952Y-54656666D01*
X152857142Y-54694761D01*
X152895238Y-54732857D01*
X152933333Y-54809047D01*
X152933333Y-54999523D01*
X152895238Y-55075714D01*
X152857142Y-55113809D01*
X152780952Y-55151904D01*
X152590476Y-55151904D01*
X152514285Y-55113809D01*
X152476190Y-55075714D01*
%TO.C,J4*%
X152133333Y-69083904D02*
X152133333Y-69655333D01*
X152095238Y-69769619D01*
X152019047Y-69845809D01*
X151904761Y-69883904D01*
X151828571Y-69883904D01*
X152857142Y-69350571D02*
X152857142Y-69883904D01*
X152666666Y-69045809D02*
X152476190Y-69617238D01*
X152971428Y-69617238D01*
%TO.C,J3*%
X152133333Y-83561904D02*
X152133333Y-84133333D01*
X152095238Y-84247619D01*
X152019047Y-84323809D01*
X151904761Y-84361904D01*
X151828571Y-84361904D01*
X152438095Y-83561904D02*
X152933333Y-83561904D01*
X152666666Y-83866666D01*
X152780952Y-83866666D01*
X152857142Y-83904761D01*
X152895238Y-83942857D01*
X152933333Y-84019047D01*
X152933333Y-84209523D01*
X152895238Y-84285714D01*
X152857142Y-84323809D01*
X152780952Y-84361904D01*
X152552380Y-84361904D01*
X152476190Y-84323809D01*
X152438095Y-84285714D01*
%TO.C,C10*%
X117836914Y-89719085D02*
X117875009Y-89757180D01*
X117913104Y-89871466D01*
X117913104Y-89947657D01*
X117875009Y-90061942D01*
X117798819Y-90138133D01*
X117722628Y-90176228D01*
X117570247Y-90214323D01*
X117455961Y-90214323D01*
X117303580Y-90176228D01*
X117227390Y-90138133D01*
X117151200Y-90061942D01*
X117113104Y-89947657D01*
X117113104Y-89871466D01*
X117151200Y-89757180D01*
X117189295Y-89719085D01*
X117913104Y-88957180D02*
X117913104Y-89414323D01*
X117913104Y-89185752D02*
X117113104Y-89185752D01*
X117227390Y-89261942D01*
X117303580Y-89338133D01*
X117341676Y-89414323D01*
X117113104Y-88461942D02*
X117113104Y-88385752D01*
X117151200Y-88309561D01*
X117189295Y-88271466D01*
X117265485Y-88233371D01*
X117417866Y-88195276D01*
X117608342Y-88195276D01*
X117760723Y-88233371D01*
X117836914Y-88271466D01*
X117875009Y-88309561D01*
X117913104Y-88385752D01*
X117913104Y-88461942D01*
X117875009Y-88538133D01*
X117836914Y-88576228D01*
X117760723Y-88614323D01*
X117608342Y-88652419D01*
X117417866Y-88652419D01*
X117265485Y-88614323D01*
X117189295Y-88576228D01*
X117151200Y-88538133D01*
X117113104Y-88461942D01*
%TO.C,C12*%
X123983714Y-86925085D02*
X124021809Y-86963180D01*
X124059904Y-87077466D01*
X124059904Y-87153657D01*
X124021809Y-87267942D01*
X123945619Y-87344133D01*
X123869428Y-87382228D01*
X123717047Y-87420323D01*
X123602761Y-87420323D01*
X123450380Y-87382228D01*
X123374190Y-87344133D01*
X123298000Y-87267942D01*
X123259904Y-87153657D01*
X123259904Y-87077466D01*
X123298000Y-86963180D01*
X123336095Y-86925085D01*
X124059904Y-86163180D02*
X124059904Y-86620323D01*
X124059904Y-86391752D02*
X123259904Y-86391752D01*
X123374190Y-86467942D01*
X123450380Y-86544133D01*
X123488476Y-86620323D01*
X123336095Y-85858419D02*
X123298000Y-85820323D01*
X123259904Y-85744133D01*
X123259904Y-85553657D01*
X123298000Y-85477466D01*
X123336095Y-85439371D01*
X123412285Y-85401276D01*
X123488476Y-85401276D01*
X123602761Y-85439371D01*
X124059904Y-85896514D01*
X124059904Y-85401276D01*
%TO.C,C13*%
X119538714Y-99320285D02*
X119576809Y-99358380D01*
X119614904Y-99472666D01*
X119614904Y-99548857D01*
X119576809Y-99663142D01*
X119500619Y-99739333D01*
X119424428Y-99777428D01*
X119272047Y-99815523D01*
X119157761Y-99815523D01*
X119005380Y-99777428D01*
X118929190Y-99739333D01*
X118853000Y-99663142D01*
X118814904Y-99548857D01*
X118814904Y-99472666D01*
X118853000Y-99358380D01*
X118891095Y-99320285D01*
X119614904Y-98558380D02*
X119614904Y-99015523D01*
X119614904Y-98786952D02*
X118814904Y-98786952D01*
X118929190Y-98863142D01*
X119005380Y-98939333D01*
X119043476Y-99015523D01*
X118814904Y-98291714D02*
X118814904Y-97796476D01*
X119119666Y-98063142D01*
X119119666Y-97948857D01*
X119157761Y-97872666D01*
X119195857Y-97834571D01*
X119272047Y-97796476D01*
X119462523Y-97796476D01*
X119538714Y-97834571D01*
X119576809Y-97872666D01*
X119614904Y-97948857D01*
X119614904Y-98177428D01*
X119576809Y-98253619D01*
X119538714Y-98291714D01*
%TO.C,C11*%
X121037314Y-99269485D02*
X121075409Y-99307580D01*
X121113504Y-99421866D01*
X121113504Y-99498057D01*
X121075409Y-99612342D01*
X120999219Y-99688533D01*
X120923028Y-99726628D01*
X120770647Y-99764723D01*
X120656361Y-99764723D01*
X120503980Y-99726628D01*
X120427790Y-99688533D01*
X120351600Y-99612342D01*
X120313504Y-99498057D01*
X120313504Y-99421866D01*
X120351600Y-99307580D01*
X120389695Y-99269485D01*
X121113504Y-98507580D02*
X121113504Y-98964723D01*
X121113504Y-98736152D02*
X120313504Y-98736152D01*
X120427790Y-98812342D01*
X120503980Y-98888533D01*
X120542076Y-98964723D01*
X121113504Y-97745676D02*
X121113504Y-98202819D01*
X121113504Y-97974247D02*
X120313504Y-97974247D01*
X120427790Y-98050438D01*
X120503980Y-98126628D01*
X120542076Y-98202819D01*
%TO.C,C9*%
X119462514Y-89744533D02*
X119500609Y-89782628D01*
X119538704Y-89896914D01*
X119538704Y-89973104D01*
X119500609Y-90087390D01*
X119424419Y-90163580D01*
X119348228Y-90201676D01*
X119195847Y-90239771D01*
X119081561Y-90239771D01*
X118929180Y-90201676D01*
X118852990Y-90163580D01*
X118776800Y-90087390D01*
X118738704Y-89973104D01*
X118738704Y-89896914D01*
X118776800Y-89782628D01*
X118814895Y-89744533D01*
X119538704Y-89363580D02*
X119538704Y-89211200D01*
X119500609Y-89135009D01*
X119462514Y-89096914D01*
X119348228Y-89020723D01*
X119195847Y-88982628D01*
X118891085Y-88982628D01*
X118814895Y-89020723D01*
X118776800Y-89058819D01*
X118738704Y-89135009D01*
X118738704Y-89287390D01*
X118776800Y-89363580D01*
X118814895Y-89401676D01*
X118891085Y-89439771D01*
X119081561Y-89439771D01*
X119157752Y-89401676D01*
X119195847Y-89363580D01*
X119233942Y-89287390D01*
X119233942Y-89135009D01*
X119195847Y-89058819D01*
X119157752Y-89020723D01*
X119081561Y-88982628D01*
%TO.C,C8*%
X121037314Y-89693733D02*
X121075409Y-89731828D01*
X121113504Y-89846114D01*
X121113504Y-89922304D01*
X121075409Y-90036590D01*
X120999219Y-90112780D01*
X120923028Y-90150876D01*
X120770647Y-90188971D01*
X120656361Y-90188971D01*
X120503980Y-90150876D01*
X120427790Y-90112780D01*
X120351600Y-90036590D01*
X120313504Y-89922304D01*
X120313504Y-89846114D01*
X120351600Y-89731828D01*
X120389695Y-89693733D01*
X120656361Y-89236590D02*
X120618266Y-89312780D01*
X120580171Y-89350876D01*
X120503980Y-89388971D01*
X120465885Y-89388971D01*
X120389695Y-89350876D01*
X120351600Y-89312780D01*
X120313504Y-89236590D01*
X120313504Y-89084209D01*
X120351600Y-89008019D01*
X120389695Y-88969923D01*
X120465885Y-88931828D01*
X120503980Y-88931828D01*
X120580171Y-88969923D01*
X120618266Y-89008019D01*
X120656361Y-89084209D01*
X120656361Y-89236590D01*
X120694457Y-89312780D01*
X120732552Y-89350876D01*
X120808742Y-89388971D01*
X120961123Y-89388971D01*
X121037314Y-89350876D01*
X121075409Y-89312780D01*
X121113504Y-89236590D01*
X121113504Y-89084209D01*
X121075409Y-89008019D01*
X121037314Y-88969923D01*
X120961123Y-88931828D01*
X120808742Y-88931828D01*
X120732552Y-88969923D01*
X120694457Y-89008019D01*
X120656361Y-89084209D01*
%TO.C,C2*%
X141395466Y-84207314D02*
X141357371Y-84245409D01*
X141243085Y-84283504D01*
X141166895Y-84283504D01*
X141052609Y-84245409D01*
X140976419Y-84169219D01*
X140938323Y-84093028D01*
X140900228Y-83940647D01*
X140900228Y-83826361D01*
X140938323Y-83673980D01*
X140976419Y-83597790D01*
X141052609Y-83521600D01*
X141166895Y-83483504D01*
X141243085Y-83483504D01*
X141357371Y-83521600D01*
X141395466Y-83559695D01*
X141700228Y-83559695D02*
X141738323Y-83521600D01*
X141814514Y-83483504D01*
X142004990Y-83483504D01*
X142081180Y-83521600D01*
X142119276Y-83559695D01*
X142157371Y-83635885D01*
X142157371Y-83712076D01*
X142119276Y-83826361D01*
X141662133Y-84283504D01*
X142157371Y-84283504D01*
%TO.C,C1*%
X147605714Y-80905333D02*
X147643809Y-80943428D01*
X147681904Y-81057714D01*
X147681904Y-81133904D01*
X147643809Y-81248190D01*
X147567619Y-81324380D01*
X147491428Y-81362476D01*
X147339047Y-81400571D01*
X147224761Y-81400571D01*
X147072380Y-81362476D01*
X146996190Y-81324380D01*
X146920000Y-81248190D01*
X146881904Y-81133904D01*
X146881904Y-81057714D01*
X146920000Y-80943428D01*
X146958095Y-80905333D01*
X147681904Y-80143428D02*
X147681904Y-80600571D01*
X147681904Y-80372000D02*
X146881904Y-80372000D01*
X146996190Y-80448190D01*
X147072380Y-80524380D01*
X147110476Y-80600571D01*
%TD*%
%LPC*%
D11*
%TO.C,U4*%
G36*
X133520000Y-78520000D02*
G01*
X132370000Y-78520000D01*
X132370000Y-77720000D01*
X133520000Y-77720000D01*
X133520000Y-78520000D01*
G37*
X133520000Y-78520000D02*
X132370000Y-78520000D01*
X132370000Y-77720000D01*
X133520000Y-77720000D01*
X133520000Y-78520000D01*
G36*
X134020000Y-77220000D02*
G01*
X122520000Y-77220000D01*
X122520000Y-65020000D01*
X134020000Y-65020000D01*
X134020000Y-77220000D01*
G37*
X134020000Y-77220000D02*
X122520000Y-77220000D01*
X122520000Y-65020000D01*
X134020000Y-65020000D01*
X134020000Y-77220000D01*
G36*
X128570000Y-78520000D02*
G01*
X127070000Y-78520000D01*
X127070000Y-77720000D01*
X128570000Y-77720000D01*
X128570000Y-78520000D01*
G37*
X128570000Y-78520000D02*
X127070000Y-78520000D01*
X127070000Y-77720000D01*
X128570000Y-77720000D01*
X128570000Y-78520000D01*
G36*
X128470000Y-79920000D02*
G01*
X126670000Y-79920000D01*
X126670000Y-79120000D01*
X128470000Y-79120000D01*
X128470000Y-79920000D01*
G37*
X128470000Y-79920000D02*
X126670000Y-79920000D01*
X126670000Y-79120000D01*
X128470000Y-79120000D01*
X128470000Y-79920000D01*
G36*
X128670000Y-81370000D02*
G01*
X127170000Y-81370000D01*
X127170000Y-80570000D01*
X128670000Y-80570000D01*
X128670000Y-81370000D01*
G37*
X128670000Y-81370000D02*
X127170000Y-81370000D01*
X127170000Y-80570000D01*
X128670000Y-80570000D01*
X128670000Y-81370000D01*
G36*
X131970000Y-81370000D02*
G01*
X129870000Y-81370000D01*
X129870000Y-80570000D01*
X131970000Y-80570000D01*
X131970000Y-81370000D01*
G37*
X131970000Y-81370000D02*
X129870000Y-81370000D01*
X129870000Y-80570000D01*
X131970000Y-80570000D01*
X131970000Y-81370000D01*
G36*
X131770000Y-79920000D02*
G01*
X129970000Y-79920000D01*
X129970000Y-79120000D01*
X131770000Y-79120000D01*
X131770000Y-79920000D01*
G37*
X131770000Y-79920000D02*
X129970000Y-79920000D01*
X129970000Y-79120000D01*
X131770000Y-79120000D01*
X131770000Y-79920000D01*
G36*
X131820000Y-78520000D02*
G01*
X129820000Y-78520000D01*
X129820000Y-77720000D01*
X131820000Y-77720000D01*
X131820000Y-78520000D01*
G37*
X131820000Y-78520000D02*
X129820000Y-78520000D01*
X129820000Y-77720000D01*
X131820000Y-77720000D01*
X131820000Y-78520000D01*
G36*
X124820000Y-78520000D02*
G01*
X123920000Y-78520000D01*
X123920000Y-77720000D01*
X124820000Y-77720000D01*
X124820000Y-78520000D01*
G37*
X124820000Y-78520000D02*
X123920000Y-78520000D01*
X123920000Y-77720000D01*
X124820000Y-77720000D01*
X124820000Y-78520000D01*
G36*
X124820000Y-81370000D02*
G01*
X124420000Y-81370000D01*
X124420000Y-79120000D01*
X124820000Y-79120000D01*
X124820000Y-81370000D01*
G37*
X124820000Y-81370000D02*
X124420000Y-81370000D01*
X124420000Y-79120000D01*
X124820000Y-79120000D01*
X124820000Y-81370000D01*
G36*
X137720000Y-76170000D02*
G01*
X134520000Y-76170000D01*
X134520000Y-75320000D01*
X137720000Y-75320000D01*
X137720000Y-76170000D01*
G37*
X137720000Y-76170000D02*
X134520000Y-76170000D01*
X134520000Y-75320000D01*
X137720000Y-75320000D01*
X137720000Y-76170000D01*
G36*
X121870000Y-76170000D02*
G01*
X118670000Y-76170000D01*
X118670000Y-75320000D01*
X121870000Y-75320000D01*
X121870000Y-76170000D01*
G37*
X121870000Y-76170000D02*
X118670000Y-76170000D01*
X118670000Y-75320000D01*
X121870000Y-75320000D01*
X121870000Y-76170000D01*
%TD*%
%TO.C,R8*%
G36*
G01*
X139388000Y-73265000D02*
X139758000Y-73265000D01*
G75*
G02*
X139893000Y-73400000I0J-135000D01*
G01*
X139893000Y-73670000D01*
G75*
G02*
X139758000Y-73805000I-135000J0D01*
G01*
X139388000Y-73805000D01*
G75*
G02*
X139253000Y-73670000I0J135000D01*
G01*
X139253000Y-73400000D01*
G75*
G02*
X139388000Y-73265000I135000J0D01*
G01*
G37*
G36*
G01*
X139388000Y-72245000D02*
X139758000Y-72245000D01*
G75*
G02*
X139893000Y-72380000I0J-135000D01*
G01*
X139893000Y-72650000D01*
G75*
G02*
X139758000Y-72785000I-135000J0D01*
G01*
X139388000Y-72785000D01*
G75*
G02*
X139253000Y-72650000I0J135000D01*
G01*
X139253000Y-72380000D01*
G75*
G02*
X139388000Y-72245000I135000J0D01*
G01*
G37*
%TD*%
%TO.C,R18*%
G36*
G01*
X135324000Y-73265000D02*
X135694000Y-73265000D01*
G75*
G02*
X135829000Y-73400000I0J-135000D01*
G01*
X135829000Y-73670000D01*
G75*
G02*
X135694000Y-73805000I-135000J0D01*
G01*
X135324000Y-73805000D01*
G75*
G02*
X135189000Y-73670000I0J135000D01*
G01*
X135189000Y-73400000D01*
G75*
G02*
X135324000Y-73265000I135000J0D01*
G01*
G37*
G36*
G01*
X135324000Y-72245000D02*
X135694000Y-72245000D01*
G75*
G02*
X135829000Y-72380000I0J-135000D01*
G01*
X135829000Y-72650000D01*
G75*
G02*
X135694000Y-72785000I-135000J0D01*
G01*
X135324000Y-72785000D01*
G75*
G02*
X135189000Y-72650000I0J135000D01*
G01*
X135189000Y-72380000D01*
G75*
G02*
X135324000Y-72245000I135000J0D01*
G01*
G37*
%TD*%
%TO.C,R17*%
G36*
G01*
X137483000Y-73265000D02*
X137853000Y-73265000D01*
G75*
G02*
X137988000Y-73400000I0J-135000D01*
G01*
X137988000Y-73670000D01*
G75*
G02*
X137853000Y-73805000I-135000J0D01*
G01*
X137483000Y-73805000D01*
G75*
G02*
X137348000Y-73670000I0J135000D01*
G01*
X137348000Y-73400000D01*
G75*
G02*
X137483000Y-73265000I135000J0D01*
G01*
G37*
G36*
G01*
X137483000Y-72245000D02*
X137853000Y-72245000D01*
G75*
G02*
X137988000Y-72380000I0J-135000D01*
G01*
X137988000Y-72650000D01*
G75*
G02*
X137853000Y-72785000I-135000J0D01*
G01*
X137483000Y-72785000D01*
G75*
G02*
X137348000Y-72650000I0J135000D01*
G01*
X137348000Y-72380000D01*
G75*
G02*
X137483000Y-72245000I135000J0D01*
G01*
G37*
%TD*%
%TO.C,R14*%
G36*
G01*
X118676000Y-73039000D02*
X118306000Y-73039000D01*
G75*
G02*
X118171000Y-72904000I0J135000D01*
G01*
X118171000Y-72634000D01*
G75*
G02*
X118306000Y-72499000I135000J0D01*
G01*
X118676000Y-72499000D01*
G75*
G02*
X118811000Y-72634000I0J-135000D01*
G01*
X118811000Y-72904000D01*
G75*
G02*
X118676000Y-73039000I-135000J0D01*
G01*
G37*
G36*
G01*
X118676000Y-74059000D02*
X118306000Y-74059000D01*
G75*
G02*
X118171000Y-73924000I0J135000D01*
G01*
X118171000Y-73654000D01*
G75*
G02*
X118306000Y-73519000I135000J0D01*
G01*
X118676000Y-73519000D01*
G75*
G02*
X118811000Y-73654000I0J-135000D01*
G01*
X118811000Y-73924000D01*
G75*
G02*
X118676000Y-74059000I-135000J0D01*
G01*
G37*
%TD*%
%TO.C,R13*%
G36*
G01*
X120962000Y-73041000D02*
X120592000Y-73041000D01*
G75*
G02*
X120457000Y-72906000I0J135000D01*
G01*
X120457000Y-72636000D01*
G75*
G02*
X120592000Y-72501000I135000J0D01*
G01*
X120962000Y-72501000D01*
G75*
G02*
X121097000Y-72636000I0J-135000D01*
G01*
X121097000Y-72906000D01*
G75*
G02*
X120962000Y-73041000I-135000J0D01*
G01*
G37*
G36*
G01*
X120962000Y-74061000D02*
X120592000Y-74061000D01*
G75*
G02*
X120457000Y-73926000I0J135000D01*
G01*
X120457000Y-73656000D01*
G75*
G02*
X120592000Y-73521000I135000J0D01*
G01*
X120962000Y-73521000D01*
G75*
G02*
X121097000Y-73656000I0J-135000D01*
G01*
X121097000Y-73926000D01*
G75*
G02*
X120962000Y-74061000I-135000J0D01*
G01*
G37*
%TD*%
%TO.C,R10*%
G36*
G01*
X119946000Y-73039000D02*
X119576000Y-73039000D01*
G75*
G02*
X119441000Y-72904000I0J135000D01*
G01*
X119441000Y-72634000D01*
G75*
G02*
X119576000Y-72499000I135000J0D01*
G01*
X119946000Y-72499000D01*
G75*
G02*
X120081000Y-72634000I0J-135000D01*
G01*
X120081000Y-72904000D01*
G75*
G02*
X119946000Y-73039000I-135000J0D01*
G01*
G37*
G36*
G01*
X119946000Y-74059000D02*
X119576000Y-74059000D01*
G75*
G02*
X119441000Y-73924000I0J135000D01*
G01*
X119441000Y-73654000D01*
G75*
G02*
X119576000Y-73519000I135000J0D01*
G01*
X119946000Y-73519000D01*
G75*
G02*
X120081000Y-73654000I0J-135000D01*
G01*
X120081000Y-73924000D01*
G75*
G02*
X119946000Y-74059000I-135000J0D01*
G01*
G37*
%TD*%
%TO.C,C14*%
G36*
G01*
X117826600Y-97313200D02*
X117326600Y-97313200D01*
G75*
G02*
X117101600Y-97088200I0J225000D01*
G01*
X117101600Y-96638200D01*
G75*
G02*
X117326600Y-96413200I225000J0D01*
G01*
X117826600Y-96413200D01*
G75*
G02*
X118051600Y-96638200I0J-225000D01*
G01*
X118051600Y-97088200D01*
G75*
G02*
X117826600Y-97313200I-225000J0D01*
G01*
G37*
G36*
G01*
X117826600Y-95763200D02*
X117326600Y-95763200D01*
G75*
G02*
X117101600Y-95538200I0J225000D01*
G01*
X117101600Y-95088200D01*
G75*
G02*
X117326600Y-94863200I225000J0D01*
G01*
X117826600Y-94863200D01*
G75*
G02*
X118051600Y-95088200I0J-225000D01*
G01*
X118051600Y-95538200D01*
G75*
G02*
X117826600Y-95763200I-225000J0D01*
G01*
G37*
%TD*%
D16*
%TO.C,J1*%
X113172000Y-105791000D03*
X123172000Y-105791000D03*
X106172000Y-105791000D03*
X121172000Y-105791000D03*
X135172000Y-105791000D03*
X129172000Y-105791000D03*
X114172000Y-105791000D03*
X111172000Y-105791000D03*
X148172000Y-105791000D03*
X137172000Y-105791000D03*
X140172000Y-105791000D03*
X147172000Y-105791000D03*
X152172000Y-105791000D03*
X126172000Y-105791000D03*
X134172000Y-105791000D03*
X136172000Y-105791000D03*
X138172000Y-105791000D03*
X146172000Y-105791000D03*
X130172000Y-105791000D03*
X109172000Y-105791000D03*
X127172000Y-105791000D03*
X139172000Y-105791000D03*
X143172000Y-105791000D03*
X145172000Y-105791000D03*
X116172000Y-105791000D03*
X128172000Y-105791000D03*
X112172000Y-105791000D03*
X132172000Y-105791000D03*
X150172000Y-105791000D03*
X110172000Y-105791000D03*
X133172000Y-105791000D03*
X120172000Y-105791000D03*
X119172000Y-105791000D03*
X151172000Y-105791000D03*
X153172000Y-105791000D03*
X122172000Y-105791000D03*
X108172000Y-105791000D03*
X141172000Y-105791000D03*
X131172000Y-105791000D03*
X115172000Y-105791000D03*
X144172000Y-105791000D03*
X149172000Y-105791000D03*
X125172000Y-105791000D03*
X142172000Y-105791000D03*
X124172000Y-105791000D03*
X154172000Y-105791000D03*
D17*
X155172000Y-105241000D03*
D16*
X156172000Y-105791000D03*
%TD*%
D18*
%TO.C,U4*%
X134020000Y-65020000D03*
X122520000Y-65020000D03*
X134020000Y-77220000D03*
X122520000Y-77220000D03*
D19*
X137270000Y-75970000D03*
X137270000Y-75670000D03*
X134920000Y-75470000D03*
X136070000Y-75570000D03*
X136070000Y-75870000D03*
X134920000Y-75770000D03*
X119120000Y-75770000D03*
X120320000Y-75870000D03*
X121470000Y-75970000D03*
X121470000Y-75670000D03*
X120320000Y-75570000D03*
X119120000Y-75470000D03*
D20*
X133170000Y-78120000D03*
X133020000Y-78120000D03*
X133320000Y-78120000D03*
D21*
X130720000Y-79520000D03*
X130820000Y-78120000D03*
X130620000Y-80970000D03*
X131420000Y-78120000D03*
X131320000Y-79520000D03*
X130920000Y-80970000D03*
X131220000Y-80970000D03*
X131120000Y-78120000D03*
X131020000Y-79520000D03*
X131620000Y-79520000D03*
X131820000Y-80970000D03*
X131720000Y-78120000D03*
D20*
X132570000Y-78120000D03*
X132870000Y-78120000D03*
X132720000Y-78120000D03*
D21*
X130520000Y-78120000D03*
X130420000Y-79520000D03*
X130320000Y-80970000D03*
X130220000Y-78120000D03*
X130120000Y-79520000D03*
X130020000Y-80970000D03*
X129920000Y-78120000D03*
X128520000Y-80970000D03*
D22*
X128270000Y-71120000D03*
D21*
X128420000Y-78120000D03*
X128320000Y-79520000D03*
X128220000Y-80970000D03*
X128120000Y-78120000D03*
X128020000Y-79520000D03*
X127920000Y-80970000D03*
X127820000Y-78120000D03*
X127720000Y-79520000D03*
X127620000Y-80970000D03*
X127520000Y-78120000D03*
X127420000Y-79520000D03*
X127320000Y-80970000D03*
X127220000Y-78120000D03*
X127120000Y-79520000D03*
X126820000Y-79520000D03*
X124620000Y-80970000D03*
X124520000Y-79520000D03*
D20*
X124320000Y-78120000D03*
X124220000Y-78120000D03*
%TD*%
D23*
%TO.C,JP1*%
X114909600Y-97790000D03*
X114909600Y-95250000D03*
D24*
X114909600Y-92710000D03*
%TD*%
%TO.C,R4*%
G36*
G01*
X125919200Y-82735000D02*
X125919200Y-82365000D01*
G75*
G02*
X126054200Y-82230000I135000J0D01*
G01*
X126324200Y-82230000D01*
G75*
G02*
X126459200Y-82365000I0J-135000D01*
G01*
X126459200Y-82735000D01*
G75*
G02*
X126324200Y-82870000I-135000J0D01*
G01*
X126054200Y-82870000D01*
G75*
G02*
X125919200Y-82735000I0J135000D01*
G01*
G37*
G36*
G01*
X124899200Y-82735000D02*
X124899200Y-82365000D01*
G75*
G02*
X125034200Y-82230000I135000J0D01*
G01*
X125304200Y-82230000D01*
G75*
G02*
X125439200Y-82365000I0J-135000D01*
G01*
X125439200Y-82735000D01*
G75*
G02*
X125304200Y-82870000I-135000J0D01*
G01*
X125034200Y-82870000D01*
G75*
G02*
X124899200Y-82735000I0J135000D01*
G01*
G37*
%TD*%
D25*
%TO.C,U2*%
X120348799Y-82880196D03*
D26*
X120458799Y-82240199D03*
X120958801Y-82240199D03*
X121458799Y-82240199D03*
X121958799Y-82240199D03*
D25*
X122068801Y-82880196D03*
D26*
X121958799Y-83520199D03*
X121458799Y-83520199D03*
X120958801Y-83520199D03*
X120458799Y-83520199D03*
%TD*%
%TO.C,C3*%
G36*
G01*
X109844000Y-95064399D02*
X109844000Y-97264401D01*
G75*
G02*
X109594001Y-97514400I-249999J0D01*
G01*
X108943999Y-97514400D01*
G75*
G02*
X108694000Y-97264401I0J249999D01*
G01*
X108694000Y-95064399D01*
G75*
G02*
X108943999Y-94814400I249999J0D01*
G01*
X109594001Y-94814400D01*
G75*
G02*
X109844000Y-95064399I0J-249999D01*
G01*
G37*
G36*
G01*
X112794000Y-95064399D02*
X112794000Y-97264401D01*
G75*
G02*
X112544001Y-97514400I-249999J0D01*
G01*
X111893999Y-97514400D01*
G75*
G02*
X111644000Y-97264401I0J249999D01*
G01*
X111644000Y-95064399D01*
G75*
G02*
X111893999Y-94814400I249999J0D01*
G01*
X112544001Y-94814400D01*
G75*
G02*
X112794000Y-95064399I0J-249999D01*
G01*
G37*
%TD*%
%TO.C,R3*%
G36*
G01*
X121448800Y-85148000D02*
X121448800Y-84778000D01*
G75*
G02*
X121583800Y-84643000I135000J0D01*
G01*
X121853800Y-84643000D01*
G75*
G02*
X121988800Y-84778000I0J-135000D01*
G01*
X121988800Y-85148000D01*
G75*
G02*
X121853800Y-85283000I-135000J0D01*
G01*
X121583800Y-85283000D01*
G75*
G02*
X121448800Y-85148000I0J135000D01*
G01*
G37*
G36*
G01*
X120428800Y-85148000D02*
X120428800Y-84778000D01*
G75*
G02*
X120563800Y-84643000I135000J0D01*
G01*
X120833800Y-84643000D01*
G75*
G02*
X120968800Y-84778000I0J-135000D01*
G01*
X120968800Y-85148000D01*
G75*
G02*
X120833800Y-85283000I-135000J0D01*
G01*
X120563800Y-85283000D01*
G75*
G02*
X120428800Y-85148000I0J135000D01*
G01*
G37*
%TD*%
%TO.C,R6*%
G36*
G01*
X144228500Y-75569400D02*
X144228500Y-76119400D01*
G75*
G02*
X144028500Y-76319400I-200000J0D01*
G01*
X143628500Y-76319400D01*
G75*
G02*
X143428500Y-76119400I0J200000D01*
G01*
X143428500Y-75569400D01*
G75*
G02*
X143628500Y-75369400I200000J0D01*
G01*
X144028500Y-75369400D01*
G75*
G02*
X144228500Y-75569400I0J-200000D01*
G01*
G37*
G36*
G01*
X145878500Y-75569400D02*
X145878500Y-76119400D01*
G75*
G02*
X145678500Y-76319400I-200000J0D01*
G01*
X145278500Y-76319400D01*
G75*
G02*
X145078500Y-76119400I0J200000D01*
G01*
X145078500Y-75569400D01*
G75*
G02*
X145278500Y-75369400I200000J0D01*
G01*
X145678500Y-75369400D01*
G75*
G02*
X145878500Y-75569400I0J-200000D01*
G01*
G37*
%TD*%
%TO.C,C7*%
G36*
G01*
X118596600Y-84018000D02*
X119096600Y-84018000D01*
G75*
G02*
X119321600Y-84243000I0J-225000D01*
G01*
X119321600Y-84693000D01*
G75*
G02*
X119096600Y-84918000I-225000J0D01*
G01*
X118596600Y-84918000D01*
G75*
G02*
X118371600Y-84693000I0J225000D01*
G01*
X118371600Y-84243000D01*
G75*
G02*
X118596600Y-84018000I225000J0D01*
G01*
G37*
G36*
G01*
X118596600Y-82468000D02*
X119096600Y-82468000D01*
G75*
G02*
X119321600Y-82693000I0J-225000D01*
G01*
X119321600Y-83143000D01*
G75*
G02*
X119096600Y-83368000I-225000J0D01*
G01*
X118596600Y-83368000D01*
G75*
G02*
X118371600Y-83143000I0J225000D01*
G01*
X118371600Y-82693000D01*
G75*
G02*
X118596600Y-82468000I225000J0D01*
G01*
G37*
%TD*%
%TO.C,R5*%
G36*
G01*
X130323000Y-91904000D02*
X129773000Y-91904000D01*
G75*
G02*
X129573000Y-91704000I0J200000D01*
G01*
X129573000Y-91304000D01*
G75*
G02*
X129773000Y-91104000I200000J0D01*
G01*
X130323000Y-91104000D01*
G75*
G02*
X130523000Y-91304000I0J-200000D01*
G01*
X130523000Y-91704000D01*
G75*
G02*
X130323000Y-91904000I-200000J0D01*
G01*
G37*
G36*
G01*
X130323000Y-93554000D02*
X129773000Y-93554000D01*
G75*
G02*
X129573000Y-93354000I0J200000D01*
G01*
X129573000Y-92954000D01*
G75*
G02*
X129773000Y-92754000I200000J0D01*
G01*
X130323000Y-92754000D01*
G75*
G02*
X130523000Y-92954000I0J-200000D01*
G01*
X130523000Y-93354000D01*
G75*
G02*
X130323000Y-93554000I-200000J0D01*
G01*
G37*
%TD*%
%TO.C,R16*%
G36*
G01*
X144101000Y-89082200D02*
X144101000Y-89632200D01*
G75*
G02*
X143901000Y-89832200I-200000J0D01*
G01*
X143501000Y-89832200D01*
G75*
G02*
X143301000Y-89632200I0J200000D01*
G01*
X143301000Y-89082200D01*
G75*
G02*
X143501000Y-88882200I200000J0D01*
G01*
X143901000Y-88882200D01*
G75*
G02*
X144101000Y-89082200I0J-200000D01*
G01*
G37*
G36*
G01*
X145751000Y-89082200D02*
X145751000Y-89632200D01*
G75*
G02*
X145551000Y-89832200I-200000J0D01*
G01*
X145151000Y-89832200D01*
G75*
G02*
X144951000Y-89632200I0J200000D01*
G01*
X144951000Y-89082200D01*
G75*
G02*
X145151000Y-88882200I200000J0D01*
G01*
X145551000Y-88882200D01*
G75*
G02*
X145751000Y-89082200I0J-200000D01*
G01*
G37*
%TD*%
%TO.C,R15*%
G36*
G01*
X147595000Y-86316000D02*
X147045000Y-86316000D01*
G75*
G02*
X146845000Y-86116000I0J200000D01*
G01*
X146845000Y-85716000D01*
G75*
G02*
X147045000Y-85516000I200000J0D01*
G01*
X147595000Y-85516000D01*
G75*
G02*
X147795000Y-85716000I0J-200000D01*
G01*
X147795000Y-86116000D01*
G75*
G02*
X147595000Y-86316000I-200000J0D01*
G01*
G37*
G36*
G01*
X147595000Y-87966000D02*
X147045000Y-87966000D01*
G75*
G02*
X146845000Y-87766000I0J200000D01*
G01*
X146845000Y-87366000D01*
G75*
G02*
X147045000Y-87166000I200000J0D01*
G01*
X147595000Y-87166000D01*
G75*
G02*
X147795000Y-87366000I0J-200000D01*
G01*
X147795000Y-87766000D01*
G75*
G02*
X147595000Y-87966000I-200000J0D01*
G01*
G37*
%TD*%
%TO.C,R9*%
G36*
G01*
X140037000Y-87482000D02*
X140037000Y-88032000D01*
G75*
G02*
X139837000Y-88232000I-200000J0D01*
G01*
X139437000Y-88232000D01*
G75*
G02*
X139237000Y-88032000I0J200000D01*
G01*
X139237000Y-87482000D01*
G75*
G02*
X139437000Y-87282000I200000J0D01*
G01*
X139837000Y-87282000D01*
G75*
G02*
X140037000Y-87482000I0J-200000D01*
G01*
G37*
G36*
G01*
X141687000Y-87482000D02*
X141687000Y-88032000D01*
G75*
G02*
X141487000Y-88232000I-200000J0D01*
G01*
X141087000Y-88232000D01*
G75*
G02*
X140887000Y-88032000I0J200000D01*
G01*
X140887000Y-87482000D01*
G75*
G02*
X141087000Y-87282000I200000J0D01*
G01*
X141487000Y-87282000D01*
G75*
G02*
X141687000Y-87482000I0J-200000D01*
G01*
G37*
%TD*%
%TO.C,R1*%
G36*
G01*
X106562997Y-98842400D02*
X107813003Y-98842400D01*
G75*
G02*
X108063000Y-99092397I0J-249997D01*
G01*
X108063000Y-99717403D01*
G75*
G02*
X107813003Y-99967400I-249997J0D01*
G01*
X106562997Y-99967400D01*
G75*
G02*
X106313000Y-99717403I0J249997D01*
G01*
X106313000Y-99092397D01*
G75*
G02*
X106562997Y-98842400I249997J0D01*
G01*
G37*
G36*
G01*
X106562997Y-95917400D02*
X107813003Y-95917400D01*
G75*
G02*
X108063000Y-96167397I0J-249997D01*
G01*
X108063000Y-96792403D01*
G75*
G02*
X107813003Y-97042400I-249997J0D01*
G01*
X106562997Y-97042400D01*
G75*
G02*
X106313000Y-96792403I0J249997D01*
G01*
X106313000Y-96167397D01*
G75*
G02*
X106562997Y-95917400I249997J0D01*
G01*
G37*
%TD*%
D27*
%TO.C,U1*%
X145245000Y-86741000D03*
X145245000Y-85791000D03*
X145245000Y-87691000D03*
X143045000Y-87691000D03*
X143045000Y-86741000D03*
X143045000Y-85791000D03*
%TD*%
%TO.C,U3*%
X145372000Y-78486000D03*
X145372000Y-77536000D03*
X145372000Y-79436000D03*
X143172000Y-79436000D03*
X143172000Y-78486000D03*
X143172000Y-77536000D03*
%TD*%
D28*
%TO.C,FID2*%
X154305000Y-100330000D03*
%TD*%
%TO.C,FID1*%
X107950000Y-54610000D03*
%TD*%
%TO.C,R12*%
G36*
G01*
X107590000Y-88475000D02*
X107040000Y-88475000D01*
G75*
G02*
X106840000Y-88275000I0J200000D01*
G01*
X106840000Y-87875000D01*
G75*
G02*
X107040000Y-87675000I200000J0D01*
G01*
X107590000Y-87675000D01*
G75*
G02*
X107790000Y-87875000I0J-200000D01*
G01*
X107790000Y-88275000D01*
G75*
G02*
X107590000Y-88475000I-200000J0D01*
G01*
G37*
G36*
G01*
X107590000Y-90125000D02*
X107040000Y-90125000D01*
G75*
G02*
X106840000Y-89925000I0J200000D01*
G01*
X106840000Y-89525000D01*
G75*
G02*
X107040000Y-89325000I200000J0D01*
G01*
X107590000Y-89325000D01*
G75*
G02*
X107790000Y-89525000I0J-200000D01*
G01*
X107790000Y-89925000D01*
G75*
G02*
X107590000Y-90125000I-200000J0D01*
G01*
G37*
%TD*%
%TO.C,R11*%
G36*
G01*
X107040000Y-92500000D02*
X107590000Y-92500000D01*
G75*
G02*
X107790000Y-92700000I0J-200000D01*
G01*
X107790000Y-93100000D01*
G75*
G02*
X107590000Y-93300000I-200000J0D01*
G01*
X107040000Y-93300000D01*
G75*
G02*
X106840000Y-93100000I0J200000D01*
G01*
X106840000Y-92700000D01*
G75*
G02*
X107040000Y-92500000I200000J0D01*
G01*
G37*
G36*
G01*
X107040000Y-90850000D02*
X107590000Y-90850000D01*
G75*
G02*
X107790000Y-91050000I0J-200000D01*
G01*
X107790000Y-91450000D01*
G75*
G02*
X107590000Y-91650000I-200000J0D01*
G01*
X107040000Y-91650000D01*
G75*
G02*
X106840000Y-91450000I0J200000D01*
G01*
X106840000Y-91050000D01*
G75*
G02*
X107040000Y-90850000I200000J0D01*
G01*
G37*
%TD*%
%TO.C,C6*%
G36*
G01*
X111793201Y-86603000D02*
X109593199Y-86603000D01*
G75*
G02*
X109343200Y-86353001I0J249999D01*
G01*
X109343200Y-85702999D01*
G75*
G02*
X109593199Y-85453000I249999J0D01*
G01*
X111793201Y-85453000D01*
G75*
G02*
X112043200Y-85702999I0J-249999D01*
G01*
X112043200Y-86353001D01*
G75*
G02*
X111793201Y-86603000I-249999J0D01*
G01*
G37*
G36*
G01*
X111793201Y-89553000D02*
X109593199Y-89553000D01*
G75*
G02*
X109343200Y-89303001I0J249999D01*
G01*
X109343200Y-88652999D01*
G75*
G02*
X109593199Y-88403000I249999J0D01*
G01*
X111793201Y-88403000D01*
G75*
G02*
X112043200Y-88652999I0J-249999D01*
G01*
X112043200Y-89303001D01*
G75*
G02*
X111793201Y-89553000I-249999J0D01*
G01*
G37*
%TD*%
%TO.C,C5*%
G36*
G01*
X109844000Y-91736999D02*
X109844000Y-93937001D01*
G75*
G02*
X109594001Y-94187000I-249999J0D01*
G01*
X108943999Y-94187000D01*
G75*
G02*
X108694000Y-93937001I0J249999D01*
G01*
X108694000Y-91736999D01*
G75*
G02*
X108943999Y-91487000I249999J0D01*
G01*
X109594001Y-91487000D01*
G75*
G02*
X109844000Y-91736999I0J-249999D01*
G01*
G37*
G36*
G01*
X112794000Y-91736999D02*
X112794000Y-93937001D01*
G75*
G02*
X112544001Y-94187000I-249999J0D01*
G01*
X111893999Y-94187000D01*
G75*
G02*
X111644000Y-93937001I0J249999D01*
G01*
X111644000Y-91736999D01*
G75*
G02*
X111893999Y-91487000I249999J0D01*
G01*
X112544001Y-91487000D01*
G75*
G02*
X112794000Y-91736999I0J-249999D01*
G01*
G37*
%TD*%
%TO.C,C4*%
G36*
G01*
X115095201Y-86603000D02*
X112895199Y-86603000D01*
G75*
G02*
X112645200Y-86353001I0J249999D01*
G01*
X112645200Y-85702999D01*
G75*
G02*
X112895199Y-85453000I249999J0D01*
G01*
X115095201Y-85453000D01*
G75*
G02*
X115345200Y-85702999I0J-249999D01*
G01*
X115345200Y-86353001D01*
G75*
G02*
X115095201Y-86603000I-249999J0D01*
G01*
G37*
G36*
G01*
X115095201Y-89553000D02*
X112895199Y-89553000D01*
G75*
G02*
X112645200Y-89303001I0J249999D01*
G01*
X112645200Y-88652999D01*
G75*
G02*
X112895199Y-88403000I249999J0D01*
G01*
X115095201Y-88403000D01*
G75*
G02*
X115345200Y-88652999I0J-249999D01*
G01*
X115345200Y-89303001D01*
G75*
G02*
X115095201Y-89553000I-249999J0D01*
G01*
G37*
%TD*%
%TO.C,R7*%
G36*
G01*
X128799000Y-91904000D02*
X128249000Y-91904000D01*
G75*
G02*
X128049000Y-91704000I0J200000D01*
G01*
X128049000Y-91304000D01*
G75*
G02*
X128249000Y-91104000I200000J0D01*
G01*
X128799000Y-91104000D01*
G75*
G02*
X128999000Y-91304000I0J-200000D01*
G01*
X128999000Y-91704000D01*
G75*
G02*
X128799000Y-91904000I-200000J0D01*
G01*
G37*
G36*
G01*
X128799000Y-93554000D02*
X128249000Y-93554000D01*
G75*
G02*
X128049000Y-93354000I0J200000D01*
G01*
X128049000Y-92954000D01*
G75*
G02*
X128249000Y-92754000I200000J0D01*
G01*
X128799000Y-92754000D01*
G75*
G02*
X128999000Y-92954000I0J-200000D01*
G01*
X128999000Y-93354000D01*
G75*
G02*
X128799000Y-93554000I-200000J0D01*
G01*
G37*
%TD*%
%TO.C,R2*%
G36*
G01*
X144101000Y-90707800D02*
X144101000Y-91257800D01*
G75*
G02*
X143901000Y-91457800I-200000J0D01*
G01*
X143501000Y-91457800D01*
G75*
G02*
X143301000Y-91257800I0J200000D01*
G01*
X143301000Y-90707800D01*
G75*
G02*
X143501000Y-90507800I200000J0D01*
G01*
X143901000Y-90507800D01*
G75*
G02*
X144101000Y-90707800I0J-200000D01*
G01*
G37*
G36*
G01*
X145751000Y-90707800D02*
X145751000Y-91257800D01*
G75*
G02*
X145551000Y-91457800I-200000J0D01*
G01*
X145151000Y-91457800D01*
G75*
G02*
X144951000Y-91257800I0J200000D01*
G01*
X144951000Y-90707800D01*
G75*
G02*
X145151000Y-90507800I200000J0D01*
G01*
X145551000Y-90507800D01*
G75*
G02*
X145751000Y-90707800I0J-200000D01*
G01*
G37*
%TD*%
D23*
%TO.C,J10*%
X143637000Y-54610000D03*
X141097000Y-54610000D03*
X138557000Y-54610000D03*
X136017000Y-54610000D03*
X133477000Y-54610000D03*
D24*
X130937000Y-54610000D03*
%TD*%
D23*
%TO.C,J9*%
X107950000Y-72390000D03*
X107950000Y-69850000D03*
X107950000Y-67310000D03*
X107950000Y-64770000D03*
X107950000Y-62230000D03*
D24*
X107950000Y-59690000D03*
%TD*%
D29*
%TO.C,J6*%
X112395000Y-81280000D03*
X107315000Y-81280000D03*
X107315000Y-76200000D03*
X112395000Y-76200000D03*
X109855000Y-78740000D03*
%TD*%
%TO.C,J5*%
X149860000Y-57150000D03*
X154940000Y-57150000D03*
X154940000Y-62230000D03*
X149860000Y-62230000D03*
X152400000Y-59690000D03*
%TD*%
%TO.C,J4*%
X149860000Y-71882000D03*
X154940000Y-71882000D03*
X154940000Y-76962000D03*
X149860000Y-76962000D03*
X152400000Y-74422000D03*
%TD*%
%TO.C,J3*%
X149860000Y-86360000D03*
X154940000Y-86360000D03*
X154940000Y-91440000D03*
X149860000Y-91440000D03*
X152400000Y-88900000D03*
%TD*%
D30*
%TO.C,H2*%
X137250000Y-64750000D03*
%TD*%
%TO.C,H1*%
X119250000Y-64750000D03*
%TD*%
%TO.C,C10*%
G36*
G01*
X117301200Y-92374600D02*
X117801200Y-92374600D01*
G75*
G02*
X118026200Y-92599600I0J-225000D01*
G01*
X118026200Y-93049600D01*
G75*
G02*
X117801200Y-93274600I-225000J0D01*
G01*
X117301200Y-93274600D01*
G75*
G02*
X117076200Y-93049600I0J225000D01*
G01*
X117076200Y-92599600D01*
G75*
G02*
X117301200Y-92374600I225000J0D01*
G01*
G37*
G36*
G01*
X117301200Y-90824600D02*
X117801200Y-90824600D01*
G75*
G02*
X118026200Y-91049600I0J-225000D01*
G01*
X118026200Y-91499600D01*
G75*
G02*
X117801200Y-91724600I-225000J0D01*
G01*
X117301200Y-91724600D01*
G75*
G02*
X117076200Y-91499600I0J225000D01*
G01*
X117076200Y-91049600D01*
G75*
G02*
X117301200Y-90824600I225000J0D01*
G01*
G37*
%TD*%
%TO.C,C12*%
G36*
G01*
X123371800Y-84018000D02*
X123871800Y-84018000D01*
G75*
G02*
X124096800Y-84243000I0J-225000D01*
G01*
X124096800Y-84693000D01*
G75*
G02*
X123871800Y-84918000I-225000J0D01*
G01*
X123371800Y-84918000D01*
G75*
G02*
X123146800Y-84693000I0J225000D01*
G01*
X123146800Y-84243000D01*
G75*
G02*
X123371800Y-84018000I225000J0D01*
G01*
G37*
G36*
G01*
X123371800Y-82468000D02*
X123871800Y-82468000D01*
G75*
G02*
X124096800Y-82693000I0J-225000D01*
G01*
X124096800Y-83143000D01*
G75*
G02*
X123871800Y-83368000I-225000J0D01*
G01*
X123371800Y-83368000D01*
G75*
G02*
X123146800Y-83143000I0J225000D01*
G01*
X123146800Y-82693000D01*
G75*
G02*
X123371800Y-82468000I225000J0D01*
G01*
G37*
%TD*%
%TO.C,C13*%
G36*
G01*
X119401400Y-95763200D02*
X118901400Y-95763200D01*
G75*
G02*
X118676400Y-95538200I0J225000D01*
G01*
X118676400Y-95088200D01*
G75*
G02*
X118901400Y-94863200I225000J0D01*
G01*
X119401400Y-94863200D01*
G75*
G02*
X119626400Y-95088200I0J-225000D01*
G01*
X119626400Y-95538200D01*
G75*
G02*
X119401400Y-95763200I-225000J0D01*
G01*
G37*
G36*
G01*
X119401400Y-97313200D02*
X118901400Y-97313200D01*
G75*
G02*
X118676400Y-97088200I0J225000D01*
G01*
X118676400Y-96638200D01*
G75*
G02*
X118901400Y-96413200I225000J0D01*
G01*
X119401400Y-96413200D01*
G75*
G02*
X119626400Y-96638200I0J-225000D01*
G01*
X119626400Y-97088200D01*
G75*
G02*
X119401400Y-97313200I-225000J0D01*
G01*
G37*
%TD*%
%TO.C,C11*%
G36*
G01*
X121001600Y-95763200D02*
X120501600Y-95763200D01*
G75*
G02*
X120276600Y-95538200I0J225000D01*
G01*
X120276600Y-95088200D01*
G75*
G02*
X120501600Y-94863200I225000J0D01*
G01*
X121001600Y-94863200D01*
G75*
G02*
X121226600Y-95088200I0J-225000D01*
G01*
X121226600Y-95538200D01*
G75*
G02*
X121001600Y-95763200I-225000J0D01*
G01*
G37*
G36*
G01*
X121001600Y-97313200D02*
X120501600Y-97313200D01*
G75*
G02*
X120276600Y-97088200I0J225000D01*
G01*
X120276600Y-96638200D01*
G75*
G02*
X120501600Y-96413200I225000J0D01*
G01*
X121001600Y-96413200D01*
G75*
G02*
X121226600Y-96638200I0J-225000D01*
G01*
X121226600Y-97088200D01*
G75*
G02*
X121001600Y-97313200I-225000J0D01*
G01*
G37*
%TD*%
%TO.C,C9*%
G36*
G01*
X118926800Y-92374600D02*
X119426800Y-92374600D01*
G75*
G02*
X119651800Y-92599600I0J-225000D01*
G01*
X119651800Y-93049600D01*
G75*
G02*
X119426800Y-93274600I-225000J0D01*
G01*
X118926800Y-93274600D01*
G75*
G02*
X118701800Y-93049600I0J225000D01*
G01*
X118701800Y-92599600D01*
G75*
G02*
X118926800Y-92374600I225000J0D01*
G01*
G37*
G36*
G01*
X118926800Y-90824600D02*
X119426800Y-90824600D01*
G75*
G02*
X119651800Y-91049600I0J-225000D01*
G01*
X119651800Y-91499600D01*
G75*
G02*
X119426800Y-91724600I-225000J0D01*
G01*
X118926800Y-91724600D01*
G75*
G02*
X118701800Y-91499600I0J225000D01*
G01*
X118701800Y-91049600D01*
G75*
G02*
X118926800Y-90824600I225000J0D01*
G01*
G37*
%TD*%
%TO.C,C8*%
G36*
G01*
X120501600Y-92374600D02*
X121001600Y-92374600D01*
G75*
G02*
X121226600Y-92599600I0J-225000D01*
G01*
X121226600Y-93049600D01*
G75*
G02*
X121001600Y-93274600I-225000J0D01*
G01*
X120501600Y-93274600D01*
G75*
G02*
X120276600Y-93049600I0J225000D01*
G01*
X120276600Y-92599600D01*
G75*
G02*
X120501600Y-92374600I225000J0D01*
G01*
G37*
G36*
G01*
X120501600Y-90824600D02*
X121001600Y-90824600D01*
G75*
G02*
X121226600Y-91049600I0J-225000D01*
G01*
X121226600Y-91499600D01*
G75*
G02*
X121001600Y-91724600I-225000J0D01*
G01*
X120501600Y-91724600D01*
G75*
G02*
X120276600Y-91499600I0J225000D01*
G01*
X120276600Y-91049600D01*
G75*
G02*
X120501600Y-90824600I225000J0D01*
G01*
G37*
%TD*%
%TO.C,C2*%
G36*
G01*
X143693000Y-83697000D02*
X143693000Y-84197000D01*
G75*
G02*
X143468000Y-84422000I-225000J0D01*
G01*
X143018000Y-84422000D01*
G75*
G02*
X142793000Y-84197000I0J225000D01*
G01*
X142793000Y-83697000D01*
G75*
G02*
X143018000Y-83472000I225000J0D01*
G01*
X143468000Y-83472000D01*
G75*
G02*
X143693000Y-83697000I0J-225000D01*
G01*
G37*
G36*
G01*
X145243000Y-83697000D02*
X145243000Y-84197000D01*
G75*
G02*
X145018000Y-84422000I-225000J0D01*
G01*
X144568000Y-84422000D01*
G75*
G02*
X144343000Y-84197000I0J225000D01*
G01*
X144343000Y-83697000D01*
G75*
G02*
X144568000Y-83472000I225000J0D01*
G01*
X145018000Y-83472000D01*
G75*
G02*
X145243000Y-83697000I0J-225000D01*
G01*
G37*
%TD*%
%TO.C,C1*%
G36*
G01*
X147019200Y-78760200D02*
X147519200Y-78760200D01*
G75*
G02*
X147744200Y-78985200I0J-225000D01*
G01*
X147744200Y-79435200D01*
G75*
G02*
X147519200Y-79660200I-225000J0D01*
G01*
X147019200Y-79660200D01*
G75*
G02*
X146794200Y-79435200I0J225000D01*
G01*
X146794200Y-78985200D01*
G75*
G02*
X147019200Y-78760200I225000J0D01*
G01*
G37*
G36*
G01*
X147019200Y-77210200D02*
X147519200Y-77210200D01*
G75*
G02*
X147744200Y-77435200I0J-225000D01*
G01*
X147744200Y-77885200D01*
G75*
G02*
X147519200Y-78110200I-225000J0D01*
G01*
X147019200Y-78110200D01*
G75*
G02*
X146794200Y-77885200I0J225000D01*
G01*
X146794200Y-77435200D01*
G75*
G02*
X147019200Y-77210200I225000J0D01*
G01*
G37*
%TD*%
D31*
X128676400Y-77647800D03*
X126923800Y-77645000D03*
X129286000Y-93649798D03*
X118846600Y-82245200D03*
X123621800Y-82270606D03*
X121602198Y-91274600D03*
X122174010Y-91287600D03*
X131438370Y-80070025D03*
X130511716Y-78787014D03*
X147269200Y-76911200D03*
X145415000Y-83947000D03*
X125095000Y-80010000D03*
X122123200Y-96850200D03*
X121551404Y-96863200D03*
X131445000Y-74015600D03*
X125095000Y-74015600D03*
X128270000Y-74015600D03*
X131445000Y-71120000D03*
X128270000Y-71120000D03*
X125095000Y-71120000D03*
X131445000Y-67945000D03*
X128270000Y-67945000D03*
X125095000Y-67945000D03*
X114274600Y-84709000D03*
X133718300Y-78359000D03*
X130048000Y-90754206D03*
X126034800Y-79603600D03*
X129507436Y-77851000D03*
X132156200Y-82321400D03*
X132384800Y-79857600D03*
X128369479Y-84582008D03*
X128828798Y-79527400D03*
X130149600Y-102997000D03*
X126765067Y-84281583D03*
X147269200Y-79832200D03*
X142367000Y-86741000D03*
X142621000Y-83947000D03*
X147320000Y-85344000D03*
X113030000Y-92837000D03*
X120777000Y-94742000D03*
X117500400Y-93421200D03*
X119176800Y-93421200D03*
X120751600Y-93421200D03*
X121488200Y-81534000D03*
X115214400Y-102108000D03*
X115214400Y-102743000D03*
X115824000Y-102108000D03*
X115824000Y-102717600D03*
X117500388Y-94691200D03*
X113944400Y-89814398D03*
X110642400Y-89814400D03*
X120395996Y-84201000D03*
X123596400Y-85090006D03*
X123875800Y-80010004D03*
X129717788Y-78917800D03*
X130310139Y-81684664D03*
X128379823Y-81686400D03*
X127304800Y-81686398D03*
X131785620Y-77645014D03*
X131157489Y-81730881D03*
X118846600Y-85115400D03*
X119151402Y-94691200D03*
X112937990Y-96164400D03*
X142367000Y-78498694D03*
X106297030Y-103276400D03*
X118110000Y-72009014D03*
X118618000Y-74675996D03*
X121412000Y-74676000D03*
X120396000Y-71882002D03*
X119380000Y-71882000D03*
X136857490Y-74523574D03*
X135509000Y-71628000D03*
X137795000Y-71755000D03*
X136070000Y-74627402D03*
X135255000Y-74649590D03*
X109347000Y-90932000D03*
X123571000Y-78020022D03*
M02*
