%TF.GenerationSoftware,KiCad,Pcbnew,(5.1.10)-1*%
%TF.CreationDate,2021-08-04T15:35:23+02:00*%
%TF.ProjectId,astropix_v2,61737472-6f70-4697-985f-76322e6b6963,1.0*%
%TF.SameCoordinates,Original*%
%TF.FileFunction,Legend,Top*%
%TF.FilePolarity,Positive*%
%FSLAX46Y46*%
G04 Gerber Fmt 4.6, Leading zero omitted, Abs format (unit mm)*
G04 Created by KiCad (PCBNEW (5.1.10)-1) date 2021-08-04 15:35:23*
%MOMM*%
%LPD*%
G01*
G04 APERTURE LIST*
%ADD10C,0.200000*%
%ADD11C,0.100000*%
%ADD12C,0.300000*%
%ADD13C,0.120000*%
%ADD14C,0.150000*%
%ADD15C,0.010000*%
%ADD16C,3.100000*%
%ADD17C,3.200000*%
%ADD18R,0.700000X4.300000*%
%ADD19R,0.700000X3.200000*%
%ADD20R,0.125000X0.500000*%
%ADD21R,0.125000X0.600000*%
%ADD22R,9.800000X10.500000*%
%ADD23R,0.600000X0.125000*%
%ADD24C,0.600000*%
%ADD25O,1.700000X1.700000*%
%ADD26R,1.700000X1.700000*%
%ADD27R,0.299999X0.579999*%
%ADD28R,0.629999X0.349999*%
%ADD29R,1.060000X0.650000*%
%ADD30C,2.000000*%
%ADD31C,2.250000*%
%ADD32C,0.450000*%
G04 APERTURE END LIST*
D10*
X108458000Y-86995000D02*
X109093000Y-86995000D01*
X115951000Y-69215000D02*
X105537000Y-69215000D01*
X115951000Y-86995000D02*
X115951000Y-69215000D01*
X115570000Y-86995000D02*
X115951000Y-86995000D01*
X108458000Y-91059000D02*
X108458000Y-86995000D01*
X110236000Y-91059000D02*
X108458000Y-91059000D01*
X107188000Y-101981000D02*
X110236000Y-97790000D01*
X107188000Y-108712000D02*
X107188000Y-101981000D01*
D11*
G36*
X152908000Y-100330000D02*
G01*
X141630400Y-100330000D01*
X141630400Y-93472000D01*
X152908000Y-93472000D01*
X152908000Y-100330000D01*
G37*
X152908000Y-100330000D02*
X141630400Y-100330000D01*
X141630400Y-93472000D01*
X152908000Y-93472000D01*
X152908000Y-100330000D01*
D12*
X121606952Y-59515333D02*
X122559333Y-59515333D01*
X121416476Y-60086761D02*
X122083142Y-58086761D01*
X122749809Y-60086761D01*
X123321238Y-59991523D02*
X123511714Y-60086761D01*
X123892666Y-60086761D01*
X124083142Y-59991523D01*
X124178380Y-59801047D01*
X124178380Y-59705809D01*
X124083142Y-59515333D01*
X123892666Y-59420095D01*
X123606952Y-59420095D01*
X123416476Y-59324857D01*
X123321238Y-59134380D01*
X123321238Y-59039142D01*
X123416476Y-58848666D01*
X123606952Y-58753428D01*
X123892666Y-58753428D01*
X124083142Y-58848666D01*
X124749809Y-58753428D02*
X125511714Y-58753428D01*
X125035523Y-58086761D02*
X125035523Y-59801047D01*
X125130761Y-59991523D01*
X125321238Y-60086761D01*
X125511714Y-60086761D01*
X126178380Y-60086761D02*
X126178380Y-58753428D01*
X126178380Y-59134380D02*
X126273619Y-58943904D01*
X126368857Y-58848666D01*
X126559333Y-58753428D01*
X126749809Y-58753428D01*
X127702190Y-60086761D02*
X127511714Y-59991523D01*
X127416476Y-59896285D01*
X127321238Y-59705809D01*
X127321238Y-59134380D01*
X127416476Y-58943904D01*
X127511714Y-58848666D01*
X127702190Y-58753428D01*
X127987904Y-58753428D01*
X128178380Y-58848666D01*
X128273619Y-58943904D01*
X128368857Y-59134380D01*
X128368857Y-59705809D01*
X128273619Y-59896285D01*
X128178380Y-59991523D01*
X127987904Y-60086761D01*
X127702190Y-60086761D01*
X129226000Y-60086761D02*
X129226000Y-58086761D01*
X129987904Y-58086761D01*
X130178380Y-58182000D01*
X130273619Y-58277238D01*
X130368857Y-58467714D01*
X130368857Y-58753428D01*
X130273619Y-58943904D01*
X130178380Y-59039142D01*
X129987904Y-59134380D01*
X129226000Y-59134380D01*
X131226000Y-60086761D02*
X131226000Y-58753428D01*
X131226000Y-58086761D02*
X131130761Y-58182000D01*
X131226000Y-58277238D01*
X131321238Y-58182000D01*
X131226000Y-58086761D01*
X131226000Y-58277238D01*
X131987904Y-60086761D02*
X133035523Y-58753428D01*
X131987904Y-58753428D02*
X133035523Y-60086761D01*
X133702190Y-58277238D02*
X133797428Y-58182000D01*
X133987904Y-58086761D01*
X134464095Y-58086761D01*
X134654571Y-58182000D01*
X134749809Y-58277238D01*
X134845047Y-58467714D01*
X134845047Y-58658190D01*
X134749809Y-58943904D01*
X133606952Y-60086761D01*
X134845047Y-60086761D01*
D10*
X106746476Y-67098904D02*
X106746476Y-66298904D01*
X107203619Y-67098904D01*
X107203619Y-66298904D01*
X107584571Y-67022714D02*
X107622666Y-67060809D01*
X107584571Y-67098904D01*
X107546476Y-67060809D01*
X107584571Y-67022714D01*
X107584571Y-67098904D01*
X108536952Y-67060809D02*
X108651238Y-67098904D01*
X108841714Y-67098904D01*
X108917904Y-67060809D01*
X108956000Y-67022714D01*
X108994095Y-66946523D01*
X108994095Y-66870333D01*
X108956000Y-66794142D01*
X108917904Y-66756047D01*
X108841714Y-66717952D01*
X108689333Y-66679857D01*
X108613142Y-66641761D01*
X108575047Y-66603666D01*
X108536952Y-66527476D01*
X108536952Y-66451285D01*
X108575047Y-66375095D01*
X108613142Y-66337000D01*
X108689333Y-66298904D01*
X108879809Y-66298904D01*
X108994095Y-66337000D01*
X109222666Y-66565571D02*
X109527428Y-66565571D01*
X109336952Y-66298904D02*
X109336952Y-66984619D01*
X109375047Y-67060809D01*
X109451238Y-67098904D01*
X109527428Y-67098904D01*
X109794095Y-67098904D02*
X109794095Y-66565571D01*
X109794095Y-66717952D02*
X109832190Y-66641761D01*
X109870285Y-66603666D01*
X109946476Y-66565571D01*
X110022666Y-66565571D01*
X110289333Y-67098904D02*
X110289333Y-66565571D01*
X110289333Y-66298904D02*
X110251238Y-66337000D01*
X110289333Y-66375095D01*
X110327428Y-66337000D01*
X110289333Y-66298904D01*
X110289333Y-66375095D01*
X110975047Y-67060809D02*
X110898857Y-67098904D01*
X110746476Y-67098904D01*
X110670285Y-67060809D01*
X110632190Y-66984619D01*
X110632190Y-66679857D01*
X110670285Y-66603666D01*
X110746476Y-66565571D01*
X110898857Y-66565571D01*
X110975047Y-66603666D01*
X111013142Y-66679857D01*
X111013142Y-66756047D01*
X110632190Y-66832238D01*
X111356000Y-67098904D02*
X111356000Y-66298904D01*
X111356000Y-66603666D02*
X111432190Y-66565571D01*
X111584571Y-66565571D01*
X111660761Y-66603666D01*
X111698857Y-66641761D01*
X111736952Y-66717952D01*
X111736952Y-66946523D01*
X111698857Y-67022714D01*
X111660761Y-67060809D01*
X111584571Y-67098904D01*
X111432190Y-67098904D01*
X111356000Y-67060809D01*
X112079809Y-67098904D02*
X112079809Y-66565571D01*
X112079809Y-66298904D02*
X112041714Y-66337000D01*
X112079809Y-66375095D01*
X112117904Y-66337000D01*
X112079809Y-66298904D01*
X112079809Y-66375095D01*
X112803619Y-66565571D02*
X112803619Y-67213190D01*
X112765523Y-67289380D01*
X112727428Y-67327476D01*
X112651238Y-67365571D01*
X112536952Y-67365571D01*
X112460761Y-67327476D01*
X112803619Y-67060809D02*
X112727428Y-67098904D01*
X112575047Y-67098904D01*
X112498857Y-67060809D01*
X112460761Y-67022714D01*
X112422666Y-66946523D01*
X112422666Y-66717952D01*
X112460761Y-66641761D01*
X112498857Y-66603666D01*
X112575047Y-66565571D01*
X112727428Y-66565571D01*
X112803619Y-66603666D01*
X106975047Y-67698904D02*
X106975047Y-68270333D01*
X106936952Y-68384619D01*
X106860761Y-68460809D01*
X106746476Y-68498904D01*
X106670285Y-68498904D01*
X107698857Y-67965571D02*
X107698857Y-68498904D01*
X107356000Y-67965571D02*
X107356000Y-68384619D01*
X107394095Y-68460809D01*
X107470285Y-68498904D01*
X107584571Y-68498904D01*
X107660761Y-68460809D01*
X107698857Y-68422714D01*
X108194095Y-68498904D02*
X108117904Y-68460809D01*
X108079809Y-68384619D01*
X108079809Y-67698904D01*
X108498857Y-68498904D02*
X108498857Y-67965571D01*
X108498857Y-67698904D02*
X108460761Y-67737000D01*
X108498857Y-67775095D01*
X108536952Y-67737000D01*
X108498857Y-67698904D01*
X108498857Y-67775095D01*
X109451238Y-67775095D02*
X109489333Y-67737000D01*
X109565523Y-67698904D01*
X109756000Y-67698904D01*
X109832190Y-67737000D01*
X109870285Y-67775095D01*
X109908380Y-67851285D01*
X109908380Y-67927476D01*
X109870285Y-68041761D01*
X109413142Y-68498904D01*
X109908380Y-68498904D01*
X110403619Y-67698904D02*
X110479809Y-67698904D01*
X110556000Y-67737000D01*
X110594095Y-67775095D01*
X110632190Y-67851285D01*
X110670285Y-68003666D01*
X110670285Y-68194142D01*
X110632190Y-68346523D01*
X110594095Y-68422714D01*
X110556000Y-68460809D01*
X110479809Y-68498904D01*
X110403619Y-68498904D01*
X110327428Y-68460809D01*
X110289333Y-68422714D01*
X110251238Y-68346523D01*
X110213142Y-68194142D01*
X110213142Y-68003666D01*
X110251238Y-67851285D01*
X110289333Y-67775095D01*
X110327428Y-67737000D01*
X110403619Y-67698904D01*
X110975047Y-67775095D02*
X111013142Y-67737000D01*
X111089333Y-67698904D01*
X111279809Y-67698904D01*
X111356000Y-67737000D01*
X111394095Y-67775095D01*
X111432190Y-67851285D01*
X111432190Y-67927476D01*
X111394095Y-68041761D01*
X110936952Y-68498904D01*
X111432190Y-68498904D01*
X112194095Y-68498904D02*
X111736952Y-68498904D01*
X111965523Y-68498904D02*
X111965523Y-67698904D01*
X111889333Y-67813190D01*
X111813142Y-67889380D01*
X111736952Y-67927476D01*
D12*
X106997714Y-65147000D02*
X107712000Y-65147000D01*
X106854857Y-65575571D02*
X107354857Y-64075571D01*
X107854857Y-65575571D01*
X108354857Y-65575571D02*
X108354857Y-64075571D01*
X108712000Y-64075571D01*
X108926285Y-64147000D01*
X109069142Y-64289857D01*
X109140571Y-64432714D01*
X109212000Y-64718428D01*
X109212000Y-64932714D01*
X109140571Y-65218428D01*
X109069142Y-65361285D01*
X108926285Y-65504142D01*
X108712000Y-65575571D01*
X108354857Y-65575571D01*
X110569142Y-65575571D02*
X109854857Y-65575571D01*
X109854857Y-64075571D01*
D13*
%TO.C,R8*%
X139193000Y-72871359D02*
X139193000Y-73178641D01*
X139953000Y-72871359D02*
X139953000Y-73178641D01*
%TO.C,R18*%
X135129000Y-72871359D02*
X135129000Y-73178641D01*
X135889000Y-72871359D02*
X135889000Y-73178641D01*
%TO.C,R17*%
X137288000Y-72871359D02*
X137288000Y-73178641D01*
X138048000Y-72871359D02*
X138048000Y-73178641D01*
%TO.C,R14*%
X118871000Y-73432641D02*
X118871000Y-73125359D01*
X118111000Y-73432641D02*
X118111000Y-73125359D01*
%TO.C,R13*%
X121157000Y-73434641D02*
X121157000Y-73127359D01*
X120397000Y-73434641D02*
X120397000Y-73127359D01*
%TO.C,R10*%
X120141000Y-73432641D02*
X120141000Y-73125359D01*
X119381000Y-73432641D02*
X119381000Y-73125359D01*
%TO.C,C14*%
X118086600Y-96228780D02*
X118086600Y-95947620D01*
X117066600Y-96228780D02*
X117066600Y-95947620D01*
%TO.C,JP1*%
X113579600Y-91380000D02*
X114909600Y-91380000D01*
X113579600Y-92710000D02*
X113579600Y-91380000D01*
X113579600Y-93980000D02*
X116239600Y-93980000D01*
X116239600Y-93980000D02*
X116239600Y-99120000D01*
X113579600Y-93980000D02*
X113579600Y-99120000D01*
X113579600Y-99120000D02*
X116239600Y-99120000D01*
%TO.C,R4*%
X125525559Y-82930000D02*
X125832841Y-82930000D01*
X125525559Y-82170000D02*
X125832841Y-82170000D01*
D11*
%TO.C,U2*%
X120086298Y-84055201D02*
G75*
G03*
X120086298Y-84055201I-50000J0D01*
G01*
D14*
X120033799Y-83655200D02*
X120033799Y-83430199D01*
X122383799Y-83655200D02*
X122383799Y-83430199D01*
X122383799Y-82330199D02*
X122383799Y-82105200D01*
X120033799Y-82330199D02*
X120033799Y-82105200D01*
D13*
%TO.C,C3*%
X111455252Y-94804400D02*
X110032748Y-94804400D01*
X111455252Y-97524400D02*
X110032748Y-97524400D01*
D15*
%TO.C,Logo2*%
G36*
X112603414Y-81904771D02*
G01*
X112622234Y-81907010D01*
X112623600Y-81908056D01*
X112617863Y-81920481D01*
X112601568Y-81952703D01*
X112576080Y-82002094D01*
X112542770Y-82066024D01*
X112503005Y-82141866D01*
X112458153Y-82226991D01*
X112420513Y-82298150D01*
X112372849Y-82388582D01*
X112329494Y-82471744D01*
X112291774Y-82545022D01*
X112261016Y-82605801D01*
X112238544Y-82651468D01*
X112225684Y-82679407D01*
X112223189Y-82687222D01*
X112236441Y-82685296D01*
X112270423Y-82676734D01*
X112321635Y-82662520D01*
X112386575Y-82643642D01*
X112461746Y-82621083D01*
X112503952Y-82608152D01*
X112583068Y-82584056D01*
X112653772Y-82563111D01*
X112712568Y-82546305D01*
X112755958Y-82534626D01*
X112780444Y-82529061D01*
X112784550Y-82528917D01*
X112780886Y-82541432D01*
X112767694Y-82573835D01*
X112746328Y-82623063D01*
X112718138Y-82686050D01*
X112684479Y-82759732D01*
X112648347Y-82837532D01*
X112609361Y-82920954D01*
X112573131Y-82998692D01*
X112541304Y-83067195D01*
X112515526Y-83122913D01*
X112497443Y-83162296D01*
X112489222Y-83180583D01*
X112471896Y-83220617D01*
X112535817Y-83203755D01*
X112572352Y-83194645D01*
X112588842Y-83192919D01*
X112589664Y-83198987D01*
X112583198Y-83208171D01*
X112566446Y-83228948D01*
X112539793Y-83261179D01*
X112507107Y-83300281D01*
X112472259Y-83341670D01*
X112439116Y-83380761D01*
X112411549Y-83412973D01*
X112393426Y-83433719D01*
X112388352Y-83439000D01*
X112385513Y-83427344D01*
X112379574Y-83395902D01*
X112371502Y-83349958D01*
X112365196Y-83312573D01*
X112353836Y-83243404D01*
X112347070Y-83196297D01*
X112345410Y-83168244D01*
X112349368Y-83156238D01*
X112359456Y-83157270D01*
X112376187Y-83168332D01*
X112388205Y-83177450D01*
X112432211Y-83211015D01*
X112451056Y-83144032D01*
X112474756Y-83058890D01*
X112497671Y-82974930D01*
X112518871Y-82895715D01*
X112537432Y-82824813D01*
X112552424Y-82765789D01*
X112562923Y-82722209D01*
X112567999Y-82697637D01*
X112568176Y-82693542D01*
X112555489Y-82696231D01*
X112522291Y-82706078D01*
X112472082Y-82721966D01*
X112408366Y-82742777D01*
X112334643Y-82767394D01*
X112300203Y-82779053D01*
X112223157Y-82804950D01*
X112154524Y-82827460D01*
X112097822Y-82845476D01*
X112056564Y-82857892D01*
X112034267Y-82863601D01*
X112031376Y-82863709D01*
X112034931Y-82851264D01*
X112047179Y-82817843D01*
X112067134Y-82765953D01*
X112093805Y-82698098D01*
X112126207Y-82616786D01*
X112163349Y-82524523D01*
X112204244Y-82423815D01*
X112220638Y-82383671D01*
X112414916Y-81908650D01*
X112519258Y-81904961D01*
X112567115Y-81904030D01*
X112603414Y-81904771D01*
G37*
X112603414Y-81904771D02*
X112622234Y-81907010D01*
X112623600Y-81908056D01*
X112617863Y-81920481D01*
X112601568Y-81952703D01*
X112576080Y-82002094D01*
X112542770Y-82066024D01*
X112503005Y-82141866D01*
X112458153Y-82226991D01*
X112420513Y-82298150D01*
X112372849Y-82388582D01*
X112329494Y-82471744D01*
X112291774Y-82545022D01*
X112261016Y-82605801D01*
X112238544Y-82651468D01*
X112225684Y-82679407D01*
X112223189Y-82687222D01*
X112236441Y-82685296D01*
X112270423Y-82676734D01*
X112321635Y-82662520D01*
X112386575Y-82643642D01*
X112461746Y-82621083D01*
X112503952Y-82608152D01*
X112583068Y-82584056D01*
X112653772Y-82563111D01*
X112712568Y-82546305D01*
X112755958Y-82534626D01*
X112780444Y-82529061D01*
X112784550Y-82528917D01*
X112780886Y-82541432D01*
X112767694Y-82573835D01*
X112746328Y-82623063D01*
X112718138Y-82686050D01*
X112684479Y-82759732D01*
X112648347Y-82837532D01*
X112609361Y-82920954D01*
X112573131Y-82998692D01*
X112541304Y-83067195D01*
X112515526Y-83122913D01*
X112497443Y-83162296D01*
X112489222Y-83180583D01*
X112471896Y-83220617D01*
X112535817Y-83203755D01*
X112572352Y-83194645D01*
X112588842Y-83192919D01*
X112589664Y-83198987D01*
X112583198Y-83208171D01*
X112566446Y-83228948D01*
X112539793Y-83261179D01*
X112507107Y-83300281D01*
X112472259Y-83341670D01*
X112439116Y-83380761D01*
X112411549Y-83412973D01*
X112393426Y-83433719D01*
X112388352Y-83439000D01*
X112385513Y-83427344D01*
X112379574Y-83395902D01*
X112371502Y-83349958D01*
X112365196Y-83312573D01*
X112353836Y-83243404D01*
X112347070Y-83196297D01*
X112345410Y-83168244D01*
X112349368Y-83156238D01*
X112359456Y-83157270D01*
X112376187Y-83168332D01*
X112388205Y-83177450D01*
X112432211Y-83211015D01*
X112451056Y-83144032D01*
X112474756Y-83058890D01*
X112497671Y-82974930D01*
X112518871Y-82895715D01*
X112537432Y-82824813D01*
X112552424Y-82765789D01*
X112562923Y-82722209D01*
X112567999Y-82697637D01*
X112568176Y-82693542D01*
X112555489Y-82696231D01*
X112522291Y-82706078D01*
X112472082Y-82721966D01*
X112408366Y-82742777D01*
X112334643Y-82767394D01*
X112300203Y-82779053D01*
X112223157Y-82804950D01*
X112154524Y-82827460D01*
X112097822Y-82845476D01*
X112056564Y-82857892D01*
X112034267Y-82863601D01*
X112031376Y-82863709D01*
X112034931Y-82851264D01*
X112047179Y-82817843D01*
X112067134Y-82765953D01*
X112093805Y-82698098D01*
X112126207Y-82616786D01*
X112163349Y-82524523D01*
X112204244Y-82423815D01*
X112220638Y-82383671D01*
X112414916Y-81908650D01*
X112519258Y-81904961D01*
X112567115Y-81904030D01*
X112603414Y-81904771D01*
G36*
X112551181Y-80958667D02*
G01*
X112580565Y-80969743D01*
X112610139Y-80994660D01*
X112616046Y-81000600D01*
X112626452Y-81015257D01*
X112649024Y-81050021D01*
X112682771Y-81103269D01*
X112726704Y-81173380D01*
X112779830Y-81258732D01*
X112841161Y-81357704D01*
X112909705Y-81468674D01*
X112984472Y-81590021D01*
X113064472Y-81720124D01*
X113148715Y-81857360D01*
X113236209Y-82000109D01*
X113325965Y-82146749D01*
X113416992Y-82295658D01*
X113508299Y-82445215D01*
X113598897Y-82593798D01*
X113687794Y-82739787D01*
X113774001Y-82881559D01*
X113856526Y-83017493D01*
X113934380Y-83145967D01*
X114006572Y-83265361D01*
X114072112Y-83374052D01*
X114130009Y-83470419D01*
X114179272Y-83552841D01*
X114218912Y-83619695D01*
X114247938Y-83669361D01*
X114265359Y-83700218D01*
X114267640Y-83704520D01*
X114286122Y-83761073D01*
X114282089Y-83811528D01*
X114256899Y-83852236D01*
X114211909Y-83879551D01*
X114201200Y-83882935D01*
X114180181Y-83885147D01*
X114133807Y-83887157D01*
X114062123Y-83888965D01*
X113965173Y-83890571D01*
X113843003Y-83891974D01*
X113695656Y-83893174D01*
X113523178Y-83894170D01*
X113325612Y-83894963D01*
X113103004Y-83895551D01*
X112855397Y-83895936D01*
X112582838Y-83896115D01*
X112492448Y-83896129D01*
X110830946Y-83896200D01*
X110792239Y-83857493D01*
X110767377Y-83828687D01*
X110758147Y-83801924D01*
X110759711Y-83765418D01*
X110763103Y-83753070D01*
X110771654Y-83732765D01*
X110785952Y-83703490D01*
X110806585Y-83664227D01*
X110834142Y-83613961D01*
X110869210Y-83551676D01*
X110871500Y-83547680D01*
X111277400Y-83547680D01*
X111289751Y-83549220D01*
X111325411Y-83550616D01*
X111382290Y-83551870D01*
X111458297Y-83552983D01*
X111551341Y-83553955D01*
X111659333Y-83554788D01*
X111780180Y-83555481D01*
X111911794Y-83556038D01*
X112052082Y-83556457D01*
X112198955Y-83556740D01*
X112350323Y-83556888D01*
X112504094Y-83556903D01*
X112658178Y-83556784D01*
X112810485Y-83556532D01*
X112958924Y-83556150D01*
X113101404Y-83555637D01*
X113235835Y-83554994D01*
X113360127Y-83554223D01*
X113472188Y-83553324D01*
X113569929Y-83552298D01*
X113651258Y-83551147D01*
X113714086Y-83549870D01*
X113756321Y-83548469D01*
X113775874Y-83546946D01*
X113776932Y-83546587D01*
X113772121Y-83534678D01*
X113755198Y-83502875D01*
X113727247Y-83452988D01*
X113689350Y-83386826D01*
X113642591Y-83306199D01*
X113588053Y-83212917D01*
X113526821Y-83108789D01*
X113459977Y-82995625D01*
X113388605Y-82875234D01*
X113313788Y-82749426D01*
X113236611Y-82620011D01*
X113158155Y-82488797D01*
X113079505Y-82357595D01*
X113001744Y-82228215D01*
X112925956Y-82102465D01*
X112853224Y-81982156D01*
X112784632Y-81869096D01*
X112721262Y-81765096D01*
X112664199Y-81671965D01*
X112614526Y-81591513D01*
X112573326Y-81525549D01*
X112541682Y-81475883D01*
X112520679Y-81444325D01*
X112511400Y-81432683D01*
X112511256Y-81432656D01*
X112503060Y-81443420D01*
X112483260Y-81474361D01*
X112452926Y-81523647D01*
X112413129Y-81589442D01*
X112364938Y-81669914D01*
X112309423Y-81763227D01*
X112247654Y-81867548D01*
X112180702Y-81981043D01*
X112109635Y-82101877D01*
X112035525Y-82228216D01*
X111959440Y-82358227D01*
X111882452Y-82490075D01*
X111805629Y-82621927D01*
X111730043Y-82751947D01*
X111656762Y-82878302D01*
X111586857Y-82999159D01*
X111521398Y-83112682D01*
X111461455Y-83217037D01*
X111408097Y-83310392D01*
X111362396Y-83390910D01*
X111325420Y-83456760D01*
X111298239Y-83506105D01*
X111281925Y-83537113D01*
X111277400Y-83547680D01*
X110871500Y-83547680D01*
X110912378Y-83476357D01*
X110964233Y-83386987D01*
X111025363Y-83282551D01*
X111096356Y-83162034D01*
X111177801Y-83024419D01*
X111270285Y-82868690D01*
X111374397Y-82693833D01*
X111490724Y-82498830D01*
X111562558Y-82378550D01*
X111664058Y-82208883D01*
X111762513Y-82044753D01*
X111857081Y-81887541D01*
X111946919Y-81738628D01*
X112031184Y-81599397D01*
X112109034Y-81471230D01*
X112179627Y-81355507D01*
X112242120Y-81253610D01*
X112295671Y-81166922D01*
X112339437Y-81096823D01*
X112372576Y-81044696D01*
X112394246Y-81011923D01*
X112402725Y-81000600D01*
X112433443Y-80972842D01*
X112461863Y-80959803D01*
X112500638Y-80956202D01*
X112509299Y-80956150D01*
X112551181Y-80958667D01*
G37*
X112551181Y-80958667D02*
X112580565Y-80969743D01*
X112610139Y-80994660D01*
X112616046Y-81000600D01*
X112626452Y-81015257D01*
X112649024Y-81050021D01*
X112682771Y-81103269D01*
X112726704Y-81173380D01*
X112779830Y-81258732D01*
X112841161Y-81357704D01*
X112909705Y-81468674D01*
X112984472Y-81590021D01*
X113064472Y-81720124D01*
X113148715Y-81857360D01*
X113236209Y-82000109D01*
X113325965Y-82146749D01*
X113416992Y-82295658D01*
X113508299Y-82445215D01*
X113598897Y-82593798D01*
X113687794Y-82739787D01*
X113774001Y-82881559D01*
X113856526Y-83017493D01*
X113934380Y-83145967D01*
X114006572Y-83265361D01*
X114072112Y-83374052D01*
X114130009Y-83470419D01*
X114179272Y-83552841D01*
X114218912Y-83619695D01*
X114247938Y-83669361D01*
X114265359Y-83700218D01*
X114267640Y-83704520D01*
X114286122Y-83761073D01*
X114282089Y-83811528D01*
X114256899Y-83852236D01*
X114211909Y-83879551D01*
X114201200Y-83882935D01*
X114180181Y-83885147D01*
X114133807Y-83887157D01*
X114062123Y-83888965D01*
X113965173Y-83890571D01*
X113843003Y-83891974D01*
X113695656Y-83893174D01*
X113523178Y-83894170D01*
X113325612Y-83894963D01*
X113103004Y-83895551D01*
X112855397Y-83895936D01*
X112582838Y-83896115D01*
X112492448Y-83896129D01*
X110830946Y-83896200D01*
X110792239Y-83857493D01*
X110767377Y-83828687D01*
X110758147Y-83801924D01*
X110759711Y-83765418D01*
X110763103Y-83753070D01*
X110771654Y-83732765D01*
X110785952Y-83703490D01*
X110806585Y-83664227D01*
X110834142Y-83613961D01*
X110869210Y-83551676D01*
X110871500Y-83547680D01*
X111277400Y-83547680D01*
X111289751Y-83549220D01*
X111325411Y-83550616D01*
X111382290Y-83551870D01*
X111458297Y-83552983D01*
X111551341Y-83553955D01*
X111659333Y-83554788D01*
X111780180Y-83555481D01*
X111911794Y-83556038D01*
X112052082Y-83556457D01*
X112198955Y-83556740D01*
X112350323Y-83556888D01*
X112504094Y-83556903D01*
X112658178Y-83556784D01*
X112810485Y-83556532D01*
X112958924Y-83556150D01*
X113101404Y-83555637D01*
X113235835Y-83554994D01*
X113360127Y-83554223D01*
X113472188Y-83553324D01*
X113569929Y-83552298D01*
X113651258Y-83551147D01*
X113714086Y-83549870D01*
X113756321Y-83548469D01*
X113775874Y-83546946D01*
X113776932Y-83546587D01*
X113772121Y-83534678D01*
X113755198Y-83502875D01*
X113727247Y-83452988D01*
X113689350Y-83386826D01*
X113642591Y-83306199D01*
X113588053Y-83212917D01*
X113526821Y-83108789D01*
X113459977Y-82995625D01*
X113388605Y-82875234D01*
X113313788Y-82749426D01*
X113236611Y-82620011D01*
X113158155Y-82488797D01*
X113079505Y-82357595D01*
X113001744Y-82228215D01*
X112925956Y-82102465D01*
X112853224Y-81982156D01*
X112784632Y-81869096D01*
X112721262Y-81765096D01*
X112664199Y-81671965D01*
X112614526Y-81591513D01*
X112573326Y-81525549D01*
X112541682Y-81475883D01*
X112520679Y-81444325D01*
X112511400Y-81432683D01*
X112511256Y-81432656D01*
X112503060Y-81443420D01*
X112483260Y-81474361D01*
X112452926Y-81523647D01*
X112413129Y-81589442D01*
X112364938Y-81669914D01*
X112309423Y-81763227D01*
X112247654Y-81867548D01*
X112180702Y-81981043D01*
X112109635Y-82101877D01*
X112035525Y-82228216D01*
X111959440Y-82358227D01*
X111882452Y-82490075D01*
X111805629Y-82621927D01*
X111730043Y-82751947D01*
X111656762Y-82878302D01*
X111586857Y-82999159D01*
X111521398Y-83112682D01*
X111461455Y-83217037D01*
X111408097Y-83310392D01*
X111362396Y-83390910D01*
X111325420Y-83456760D01*
X111298239Y-83506105D01*
X111281925Y-83537113D01*
X111277400Y-83547680D01*
X110871500Y-83547680D01*
X110912378Y-83476357D01*
X110964233Y-83386987D01*
X111025363Y-83282551D01*
X111096356Y-83162034D01*
X111177801Y-83024419D01*
X111270285Y-82868690D01*
X111374397Y-82693833D01*
X111490724Y-82498830D01*
X111562558Y-82378550D01*
X111664058Y-82208883D01*
X111762513Y-82044753D01*
X111857081Y-81887541D01*
X111946919Y-81738628D01*
X112031184Y-81599397D01*
X112109034Y-81471230D01*
X112179627Y-81355507D01*
X112242120Y-81253610D01*
X112295671Y-81166922D01*
X112339437Y-81096823D01*
X112372576Y-81044696D01*
X112394246Y-81011923D01*
X112402725Y-81000600D01*
X112433443Y-80972842D01*
X112461863Y-80959803D01*
X112500638Y-80956202D01*
X112509299Y-80956150D01*
X112551181Y-80958667D01*
%TO.C,Logo1*%
G36*
X114300000Y-60782200D02*
G01*
X113766600Y-60782200D01*
X113766600Y-62992000D01*
X112979739Y-62992000D01*
X112973119Y-61893450D01*
X112966500Y-60794900D01*
X112693450Y-60787690D01*
X112420400Y-60780481D01*
X112420400Y-60147200D01*
X114300000Y-60147200D01*
X114300000Y-60782200D01*
G37*
X114300000Y-60782200D02*
X113766600Y-60782200D01*
X113766600Y-62992000D01*
X112979739Y-62992000D01*
X112973119Y-61893450D01*
X112966500Y-60794900D01*
X112693450Y-60787690D01*
X112420400Y-60780481D01*
X112420400Y-60147200D01*
X114300000Y-60147200D01*
X114300000Y-60782200D01*
G36*
X112242600Y-62992000D02*
G01*
X111455200Y-62992000D01*
X111455200Y-60147200D01*
X112242600Y-60147200D01*
X112242600Y-62992000D01*
G37*
X112242600Y-62992000D02*
X111455200Y-62992000D01*
X111455200Y-60147200D01*
X112242600Y-60147200D01*
X112242600Y-62992000D01*
G36*
X110756140Y-60860769D02*
G01*
X110604709Y-61049255D01*
X110482655Y-61202365D01*
X110387175Y-61324032D01*
X110315465Y-61418186D01*
X110264723Y-61488759D01*
X110232144Y-61539683D01*
X110214926Y-61574890D01*
X110210265Y-61598310D01*
X110215357Y-61613875D01*
X110217322Y-61616419D01*
X110242953Y-61647431D01*
X110295413Y-61711514D01*
X110370011Y-61802898D01*
X110462054Y-61915815D01*
X110566853Y-62044497D01*
X110679716Y-62183175D01*
X110795952Y-62326081D01*
X110910870Y-62467447D01*
X111019778Y-62601504D01*
X111117986Y-62722484D01*
X111200803Y-62824618D01*
X111263537Y-62902138D01*
X111301497Y-62949275D01*
X111310184Y-62960250D01*
X111309366Y-62972177D01*
X111282375Y-62980872D01*
X111223749Y-62986762D01*
X111128021Y-62990271D01*
X110989728Y-62991823D01*
X110902219Y-62992000D01*
X110470018Y-62992000D01*
X109423200Y-61871638D01*
X109424570Y-61561869D01*
X109425941Y-61252100D01*
X109926220Y-60700474D01*
X110426500Y-60148848D01*
X111330666Y-60147200D01*
X110756140Y-60860769D01*
G37*
X110756140Y-60860769D02*
X110604709Y-61049255D01*
X110482655Y-61202365D01*
X110387175Y-61324032D01*
X110315465Y-61418186D01*
X110264723Y-61488759D01*
X110232144Y-61539683D01*
X110214926Y-61574890D01*
X110210265Y-61598310D01*
X110215357Y-61613875D01*
X110217322Y-61616419D01*
X110242953Y-61647431D01*
X110295413Y-61711514D01*
X110370011Y-61802898D01*
X110462054Y-61915815D01*
X110566853Y-62044497D01*
X110679716Y-62183175D01*
X110795952Y-62326081D01*
X110910870Y-62467447D01*
X111019778Y-62601504D01*
X111117986Y-62722484D01*
X111200803Y-62824618D01*
X111263537Y-62902138D01*
X111301497Y-62949275D01*
X111310184Y-62960250D01*
X111309366Y-62972177D01*
X111282375Y-62980872D01*
X111223749Y-62986762D01*
X111128021Y-62990271D01*
X110989728Y-62991823D01*
X110902219Y-62992000D01*
X110470018Y-62992000D01*
X109423200Y-61871638D01*
X109424570Y-61561869D01*
X109425941Y-61252100D01*
X109926220Y-60700474D01*
X110426500Y-60148848D01*
X111330666Y-60147200D01*
X110756140Y-60860769D01*
G36*
X109232700Y-62979300D02*
G01*
X106375200Y-62992422D01*
X106375269Y-62953900D01*
X109143800Y-62953900D01*
X109156500Y-62966600D01*
X109169200Y-62953900D01*
X109156500Y-62941200D01*
X109143800Y-62953900D01*
X106375269Y-62953900D01*
X106375349Y-62909661D01*
X106379036Y-62850229D01*
X106388700Y-62760808D01*
X106402469Y-62654220D01*
X106418467Y-62543284D01*
X106434821Y-62440820D01*
X106449656Y-62359647D01*
X106461099Y-62312586D01*
X106463409Y-62307317D01*
X106489735Y-62309398D01*
X106560723Y-62322932D01*
X106671798Y-62346854D01*
X106818388Y-62380105D01*
X106995919Y-62421620D01*
X107199817Y-62470339D01*
X107425511Y-62525199D01*
X107668425Y-62585138D01*
X107787859Y-62614915D01*
X108037223Y-62677097D01*
X108271388Y-62735110D01*
X108485796Y-62787853D01*
X108675891Y-62834222D01*
X108837114Y-62873113D01*
X108964906Y-62903424D01*
X109054711Y-62924052D01*
X109101969Y-62933893D01*
X109108193Y-62934473D01*
X109087500Y-62922489D01*
X109024883Y-62891202D01*
X108924538Y-62842602D01*
X108790663Y-62778681D01*
X108627455Y-62701427D01*
X108439110Y-62612834D01*
X108229826Y-62514889D01*
X108003800Y-62409586D01*
X107892032Y-62357677D01*
X107658915Y-62249470D01*
X107439978Y-62147746D01*
X107239498Y-62054498D01*
X107061749Y-61971721D01*
X106911009Y-61901408D01*
X106791552Y-61845552D01*
X106707655Y-61806147D01*
X106663593Y-61785186D01*
X106657872Y-61782282D01*
X106662421Y-61755926D01*
X106691274Y-61696752D01*
X106739148Y-61613241D01*
X106800762Y-61513872D01*
X106870834Y-61407123D01*
X106944080Y-61301472D01*
X107015219Y-61205400D01*
X107025480Y-61192214D01*
X107045956Y-61206009D01*
X107102225Y-61248983D01*
X107190673Y-61318256D01*
X107307684Y-61410950D01*
X107449645Y-61524185D01*
X107612940Y-61655081D01*
X107793956Y-61800759D01*
X107989078Y-61958341D01*
X108100902Y-62048882D01*
X108301975Y-62211596D01*
X108490707Y-62363863D01*
X108663512Y-62502824D01*
X108816809Y-62625619D01*
X108947013Y-62729388D01*
X109050542Y-62811272D01*
X109123811Y-62868412D01*
X109163238Y-62897947D01*
X109169199Y-62901378D01*
X109153575Y-62879769D01*
X109108681Y-62822575D01*
X109037489Y-62733470D01*
X108942969Y-62616126D01*
X108828091Y-62474219D01*
X108695826Y-62311421D01*
X108549144Y-62131406D01*
X108391015Y-61937848D01*
X108318299Y-61848999D01*
X108155948Y-61650288D01*
X108003749Y-61463133D01*
X107864677Y-61291256D01*
X107741709Y-61138378D01*
X107637824Y-61008217D01*
X107555996Y-60904495D01*
X107499203Y-60830933D01*
X107470422Y-60791251D01*
X107467400Y-60785503D01*
X107488302Y-60754275D01*
X107544069Y-60706466D01*
X107624291Y-60648535D01*
X107718560Y-60586943D01*
X107816465Y-60528148D01*
X107907598Y-60478612D01*
X107981548Y-60444792D01*
X108027907Y-60433150D01*
X108033442Y-60434235D01*
X108049814Y-60458979D01*
X108085470Y-60525505D01*
X108138306Y-60629516D01*
X108206223Y-60766714D01*
X108287119Y-60932802D01*
X108378892Y-61123482D01*
X108479441Y-61334457D01*
X108586665Y-61561429D01*
X108635800Y-61666075D01*
X108744620Y-61897930D01*
X108846881Y-62115143D01*
X108940580Y-62313508D01*
X109023717Y-62488820D01*
X109094288Y-62636872D01*
X109150293Y-62753458D01*
X109189730Y-62834373D01*
X109210596Y-62875411D01*
X109213411Y-62879737D01*
X109208548Y-62854744D01*
X109192329Y-62785044D01*
X109165871Y-62675173D01*
X109130291Y-62529667D01*
X109086707Y-62353063D01*
X109036236Y-62149899D01*
X108979995Y-61924712D01*
X108919102Y-61682036D01*
X108888041Y-61558658D01*
X108825360Y-61308912D01*
X108766973Y-61074258D01*
X108713977Y-60859257D01*
X108667475Y-60668471D01*
X108628566Y-60506460D01*
X108598350Y-60377785D01*
X108577927Y-60287008D01*
X108568398Y-60238689D01*
X108568027Y-60231905D01*
X108599558Y-60221085D01*
X108668854Y-60206689D01*
X108763176Y-60190610D01*
X108869785Y-60174740D01*
X108975940Y-60160970D01*
X109068904Y-60151194D01*
X109135936Y-60147303D01*
X109137663Y-60147296D01*
X109245826Y-60147200D01*
X109232700Y-62979300D01*
G37*
X109232700Y-62979300D02*
X106375200Y-62992422D01*
X106375269Y-62953900D01*
X109143800Y-62953900D01*
X109156500Y-62966600D01*
X109169200Y-62953900D01*
X109156500Y-62941200D01*
X109143800Y-62953900D01*
X106375269Y-62953900D01*
X106375349Y-62909661D01*
X106379036Y-62850229D01*
X106388700Y-62760808D01*
X106402469Y-62654220D01*
X106418467Y-62543284D01*
X106434821Y-62440820D01*
X106449656Y-62359647D01*
X106461099Y-62312586D01*
X106463409Y-62307317D01*
X106489735Y-62309398D01*
X106560723Y-62322932D01*
X106671798Y-62346854D01*
X106818388Y-62380105D01*
X106995919Y-62421620D01*
X107199817Y-62470339D01*
X107425511Y-62525199D01*
X107668425Y-62585138D01*
X107787859Y-62614915D01*
X108037223Y-62677097D01*
X108271388Y-62735110D01*
X108485796Y-62787853D01*
X108675891Y-62834222D01*
X108837114Y-62873113D01*
X108964906Y-62903424D01*
X109054711Y-62924052D01*
X109101969Y-62933893D01*
X109108193Y-62934473D01*
X109087500Y-62922489D01*
X109024883Y-62891202D01*
X108924538Y-62842602D01*
X108790663Y-62778681D01*
X108627455Y-62701427D01*
X108439110Y-62612834D01*
X108229826Y-62514889D01*
X108003800Y-62409586D01*
X107892032Y-62357677D01*
X107658915Y-62249470D01*
X107439978Y-62147746D01*
X107239498Y-62054498D01*
X107061749Y-61971721D01*
X106911009Y-61901408D01*
X106791552Y-61845552D01*
X106707655Y-61806147D01*
X106663593Y-61785186D01*
X106657872Y-61782282D01*
X106662421Y-61755926D01*
X106691274Y-61696752D01*
X106739148Y-61613241D01*
X106800762Y-61513872D01*
X106870834Y-61407123D01*
X106944080Y-61301472D01*
X107015219Y-61205400D01*
X107025480Y-61192214D01*
X107045956Y-61206009D01*
X107102225Y-61248983D01*
X107190673Y-61318256D01*
X107307684Y-61410950D01*
X107449645Y-61524185D01*
X107612940Y-61655081D01*
X107793956Y-61800759D01*
X107989078Y-61958341D01*
X108100902Y-62048882D01*
X108301975Y-62211596D01*
X108490707Y-62363863D01*
X108663512Y-62502824D01*
X108816809Y-62625619D01*
X108947013Y-62729388D01*
X109050542Y-62811272D01*
X109123811Y-62868412D01*
X109163238Y-62897947D01*
X109169199Y-62901378D01*
X109153575Y-62879769D01*
X109108681Y-62822575D01*
X109037489Y-62733470D01*
X108942969Y-62616126D01*
X108828091Y-62474219D01*
X108695826Y-62311421D01*
X108549144Y-62131406D01*
X108391015Y-61937848D01*
X108318299Y-61848999D01*
X108155948Y-61650288D01*
X108003749Y-61463133D01*
X107864677Y-61291256D01*
X107741709Y-61138378D01*
X107637824Y-61008217D01*
X107555996Y-60904495D01*
X107499203Y-60830933D01*
X107470422Y-60791251D01*
X107467400Y-60785503D01*
X107488302Y-60754275D01*
X107544069Y-60706466D01*
X107624291Y-60648535D01*
X107718560Y-60586943D01*
X107816465Y-60528148D01*
X107907598Y-60478612D01*
X107981548Y-60444792D01*
X108027907Y-60433150D01*
X108033442Y-60434235D01*
X108049814Y-60458979D01*
X108085470Y-60525505D01*
X108138306Y-60629516D01*
X108206223Y-60766714D01*
X108287119Y-60932802D01*
X108378892Y-61123482D01*
X108479441Y-61334457D01*
X108586665Y-61561429D01*
X108635800Y-61666075D01*
X108744620Y-61897930D01*
X108846881Y-62115143D01*
X108940580Y-62313508D01*
X109023717Y-62488820D01*
X109094288Y-62636872D01*
X109150293Y-62753458D01*
X109189730Y-62834373D01*
X109210596Y-62875411D01*
X109213411Y-62879737D01*
X109208548Y-62854744D01*
X109192329Y-62785044D01*
X109165871Y-62675173D01*
X109130291Y-62529667D01*
X109086707Y-62353063D01*
X109036236Y-62149899D01*
X108979995Y-61924712D01*
X108919102Y-61682036D01*
X108888041Y-61558658D01*
X108825360Y-61308912D01*
X108766973Y-61074258D01*
X108713977Y-60859257D01*
X108667475Y-60668471D01*
X108628566Y-60506460D01*
X108598350Y-60377785D01*
X108577927Y-60287008D01*
X108568398Y-60238689D01*
X108568027Y-60231905D01*
X108599558Y-60221085D01*
X108668854Y-60206689D01*
X108763176Y-60190610D01*
X108869785Y-60174740D01*
X108975940Y-60160970D01*
X109068904Y-60151194D01*
X109135936Y-60147303D01*
X109137663Y-60147296D01*
X109245826Y-60147200D01*
X109232700Y-62979300D01*
G36*
X114068534Y-63317372D02*
G01*
X114071400Y-63334900D01*
X114057684Y-63368701D01*
X114046000Y-63373000D01*
X114023465Y-63352427D01*
X114020600Y-63334900D01*
X114034315Y-63301098D01*
X114046000Y-63296800D01*
X114068534Y-63317372D01*
G37*
X114068534Y-63317372D02*
X114071400Y-63334900D01*
X114057684Y-63368701D01*
X114046000Y-63373000D01*
X114023465Y-63352427D01*
X114020600Y-63334900D01*
X114034315Y-63301098D01*
X114046000Y-63296800D01*
X114068534Y-63317372D01*
G36*
X111175061Y-63341528D02*
G01*
X111175800Y-63347600D01*
X111156471Y-63372261D01*
X111150400Y-63373000D01*
X111125738Y-63353671D01*
X111125000Y-63347600D01*
X111144328Y-63322938D01*
X111150400Y-63322200D01*
X111175061Y-63341528D01*
G37*
X111175061Y-63341528D02*
X111175800Y-63347600D01*
X111156471Y-63372261D01*
X111150400Y-63373000D01*
X111125738Y-63353671D01*
X111125000Y-63347600D01*
X111144328Y-63322938D01*
X111150400Y-63322200D01*
X111175061Y-63341528D01*
G36*
X111069901Y-63335915D02*
G01*
X111074200Y-63347600D01*
X111053627Y-63370134D01*
X111036100Y-63373000D01*
X111002298Y-63359284D01*
X110998000Y-63347600D01*
X111018572Y-63325065D01*
X111036100Y-63322200D01*
X111069901Y-63335915D01*
G37*
X111069901Y-63335915D02*
X111074200Y-63347600D01*
X111053627Y-63370134D01*
X111036100Y-63373000D01*
X111002298Y-63359284D01*
X110998000Y-63347600D01*
X111018572Y-63325065D01*
X111036100Y-63322200D01*
X111069901Y-63335915D01*
G36*
X109852134Y-63317372D02*
G01*
X109855000Y-63334900D01*
X109841284Y-63368701D01*
X109829600Y-63373000D01*
X109807065Y-63352427D01*
X109804200Y-63334900D01*
X109817915Y-63301098D01*
X109829600Y-63296800D01*
X109852134Y-63317372D01*
G37*
X109852134Y-63317372D02*
X109855000Y-63334900D01*
X109841284Y-63368701D01*
X109829600Y-63373000D01*
X109807065Y-63352427D01*
X109804200Y-63334900D01*
X109817915Y-63301098D01*
X109829600Y-63296800D01*
X109852134Y-63317372D01*
G36*
X114060489Y-63446644D02*
G01*
X114069685Y-63505052D01*
X114071400Y-63550800D01*
X114066831Y-63623246D01*
X114055149Y-63669229D01*
X114046000Y-63677800D01*
X114031510Y-63654955D01*
X114022314Y-63596547D01*
X114020600Y-63550800D01*
X114025168Y-63478353D01*
X114036850Y-63432370D01*
X114046000Y-63423800D01*
X114060489Y-63446644D01*
G37*
X114060489Y-63446644D02*
X114069685Y-63505052D01*
X114071400Y-63550800D01*
X114066831Y-63623246D01*
X114055149Y-63669229D01*
X114046000Y-63677800D01*
X114031510Y-63654955D01*
X114022314Y-63596547D01*
X114020600Y-63550800D01*
X114025168Y-63478353D01*
X114036850Y-63432370D01*
X114046000Y-63423800D01*
X114060489Y-63446644D01*
G36*
X113316796Y-63306779D02*
G01*
X113328593Y-63342840D01*
X113333927Y-63414171D01*
X113334800Y-63487300D01*
X113332804Y-63587783D01*
X113325591Y-63646766D01*
X113311325Y-63673435D01*
X113296700Y-63677800D01*
X113276603Y-63667820D01*
X113264806Y-63631759D01*
X113259472Y-63560428D01*
X113258600Y-63487300D01*
X113260595Y-63386816D01*
X113267808Y-63327833D01*
X113282074Y-63301164D01*
X113296700Y-63296800D01*
X113316796Y-63306779D01*
G37*
X113316796Y-63306779D02*
X113328593Y-63342840D01*
X113333927Y-63414171D01*
X113334800Y-63487300D01*
X113332804Y-63587783D01*
X113325591Y-63646766D01*
X113311325Y-63673435D01*
X113296700Y-63677800D01*
X113276603Y-63667820D01*
X113264806Y-63631759D01*
X113259472Y-63560428D01*
X113258600Y-63487300D01*
X113260595Y-63386816D01*
X113267808Y-63327833D01*
X113282074Y-63301164D01*
X113296700Y-63296800D01*
X113316796Y-63306779D01*
G36*
X112827475Y-63434193D02*
G01*
X112862182Y-63463977D01*
X112874568Y-63520977D01*
X112877147Y-63587883D01*
X112870791Y-63645994D01*
X112856374Y-63676611D01*
X112852200Y-63677800D01*
X112835015Y-63655566D01*
X112826896Y-63601304D01*
X112826800Y-63593979D01*
X112818255Y-63526895D01*
X112797629Y-63481012D01*
X112796924Y-63480284D01*
X112757569Y-63464631D01*
X112723715Y-63491027D01*
X112702929Y-63550764D01*
X112699800Y-63592010D01*
X112693206Y-63649522D01*
X112677064Y-63677327D01*
X112674400Y-63677800D01*
X112659910Y-63654955D01*
X112650714Y-63596547D01*
X112649000Y-63550800D01*
X112649000Y-63423800D01*
X112747882Y-63423800D01*
X112827475Y-63434193D01*
G37*
X112827475Y-63434193D02*
X112862182Y-63463977D01*
X112874568Y-63520977D01*
X112877147Y-63587883D01*
X112870791Y-63645994D01*
X112856374Y-63676611D01*
X112852200Y-63677800D01*
X112835015Y-63655566D01*
X112826896Y-63601304D01*
X112826800Y-63593979D01*
X112818255Y-63526895D01*
X112797629Y-63481012D01*
X112796924Y-63480284D01*
X112757569Y-63464631D01*
X112723715Y-63491027D01*
X112702929Y-63550764D01*
X112699800Y-63592010D01*
X112693206Y-63649522D01*
X112677064Y-63677327D01*
X112674400Y-63677800D01*
X112659910Y-63654955D01*
X112650714Y-63596547D01*
X112649000Y-63550800D01*
X112649000Y-63423800D01*
X112747882Y-63423800D01*
X112827475Y-63434193D01*
G36*
X112387542Y-63318880D02*
G01*
X112395000Y-63360300D01*
X112405904Y-63409056D01*
X112446901Y-63423692D01*
X112453420Y-63423800D01*
X112513130Y-63436347D01*
X112542320Y-63454279D01*
X112561138Y-63494295D01*
X112570883Y-63555348D01*
X112571127Y-63618586D01*
X112561441Y-63665154D01*
X112547400Y-63677800D01*
X112528486Y-63656013D01*
X112522000Y-63612630D01*
X112510794Y-63535595D01*
X112482137Y-63481665D01*
X112443470Y-63463094D01*
X112432712Y-63465563D01*
X112404324Y-63502898D01*
X112395000Y-63578917D01*
X112388355Y-63648535D01*
X112366478Y-63676433D01*
X112356900Y-63677800D01*
X112336803Y-63667820D01*
X112325006Y-63631759D01*
X112319672Y-63560428D01*
X112318800Y-63487300D01*
X112320795Y-63386816D01*
X112328008Y-63327833D01*
X112342274Y-63301164D01*
X112356900Y-63296800D01*
X112387542Y-63318880D01*
G37*
X112387542Y-63318880D02*
X112395000Y-63360300D01*
X112405904Y-63409056D01*
X112446901Y-63423692D01*
X112453420Y-63423800D01*
X112513130Y-63436347D01*
X112542320Y-63454279D01*
X112561138Y-63494295D01*
X112570883Y-63555348D01*
X112571127Y-63618586D01*
X112561441Y-63665154D01*
X112547400Y-63677800D01*
X112528486Y-63656013D01*
X112522000Y-63612630D01*
X112510794Y-63535595D01*
X112482137Y-63481665D01*
X112443470Y-63463094D01*
X112432712Y-63465563D01*
X112404324Y-63502898D01*
X112395000Y-63578917D01*
X112388355Y-63648535D01*
X112366478Y-63676433D01*
X112356900Y-63677800D01*
X112336803Y-63667820D01*
X112325006Y-63631759D01*
X112319672Y-63560428D01*
X112318800Y-63487300D01*
X112320795Y-63386816D01*
X112328008Y-63327833D01*
X112342274Y-63301164D01*
X112356900Y-63296800D01*
X112387542Y-63318880D01*
G36*
X111747604Y-63326375D02*
G01*
X111798346Y-63337146D01*
X111810800Y-63347600D01*
X111789526Y-63368237D01*
X111760000Y-63373000D01*
X111731627Y-63378560D01*
X111716295Y-63402987D01*
X111710133Y-63457899D01*
X111709200Y-63525400D01*
X111705344Y-63606576D01*
X111695270Y-63661612D01*
X111683800Y-63677800D01*
X111670270Y-63654664D01*
X111661097Y-63594225D01*
X111658400Y-63525400D01*
X111657055Y-63440937D01*
X111649708Y-63395336D01*
X111631388Y-63376668D01*
X111597125Y-63373003D01*
X111594900Y-63373000D01*
X111547165Y-63364305D01*
X111531400Y-63347600D01*
X111554365Y-63333690D01*
X111613607Y-63324464D01*
X111671100Y-63322200D01*
X111747604Y-63326375D01*
G37*
X111747604Y-63326375D02*
X111798346Y-63337146D01*
X111810800Y-63347600D01*
X111789526Y-63368237D01*
X111760000Y-63373000D01*
X111731627Y-63378560D01*
X111716295Y-63402987D01*
X111710133Y-63457899D01*
X111709200Y-63525400D01*
X111705344Y-63606576D01*
X111695270Y-63661612D01*
X111683800Y-63677800D01*
X111670270Y-63654664D01*
X111661097Y-63594225D01*
X111658400Y-63525400D01*
X111657055Y-63440937D01*
X111649708Y-63395336D01*
X111631388Y-63376668D01*
X111597125Y-63373003D01*
X111594900Y-63373000D01*
X111547165Y-63364305D01*
X111531400Y-63347600D01*
X111554365Y-63333690D01*
X111613607Y-63324464D01*
X111671100Y-63322200D01*
X111747604Y-63326375D01*
G36*
X111411347Y-63432428D02*
G01*
X111428277Y-63452425D01*
X111400532Y-63474961D01*
X111379000Y-63481959D01*
X111342894Y-63505032D01*
X111329064Y-63557865D01*
X111328200Y-63586522D01*
X111321974Y-63646220D01*
X111306618Y-63676763D01*
X111302800Y-63677800D01*
X111288310Y-63654955D01*
X111279114Y-63596547D01*
X111277400Y-63550800D01*
X111279064Y-63475619D01*
X111289300Y-63438129D01*
X111315970Y-63425226D01*
X111353600Y-63423800D01*
X111411347Y-63432428D01*
G37*
X111411347Y-63432428D02*
X111428277Y-63452425D01*
X111400532Y-63474961D01*
X111379000Y-63481959D01*
X111342894Y-63505032D01*
X111329064Y-63557865D01*
X111328200Y-63586522D01*
X111321974Y-63646220D01*
X111306618Y-63676763D01*
X111302800Y-63677800D01*
X111288310Y-63654955D01*
X111279114Y-63596547D01*
X111277400Y-63550800D01*
X111279064Y-63475619D01*
X111289300Y-63438129D01*
X111315970Y-63425226D01*
X111353600Y-63423800D01*
X111411347Y-63432428D01*
G36*
X111013678Y-63446265D02*
G01*
X111026414Y-63501961D01*
X111028216Y-63519050D01*
X111039411Y-63583866D01*
X111063672Y-63610903D01*
X111086900Y-63614300D01*
X111122373Y-63603369D01*
X111140211Y-63562074D01*
X111145583Y-63519050D01*
X111157408Y-63448955D01*
X111173814Y-63425794D01*
X111189668Y-63446638D01*
X111199841Y-63508556D01*
X111201200Y-63550800D01*
X111199723Y-63625960D01*
X111189521Y-63663436D01*
X111161938Y-63676345D01*
X111117380Y-63677800D01*
X111050073Y-63669070D01*
X111003781Y-63648000D01*
X111003080Y-63647320D01*
X110984590Y-63607784D01*
X110974679Y-63546942D01*
X110973906Y-63483661D01*
X110982827Y-63436809D01*
X110996466Y-63423800D01*
X111013678Y-63446265D01*
G37*
X111013678Y-63446265D02*
X111026414Y-63501961D01*
X111028216Y-63519050D01*
X111039411Y-63583866D01*
X111063672Y-63610903D01*
X111086900Y-63614300D01*
X111122373Y-63603369D01*
X111140211Y-63562074D01*
X111145583Y-63519050D01*
X111157408Y-63448955D01*
X111173814Y-63425794D01*
X111189668Y-63446638D01*
X111199841Y-63508556D01*
X111201200Y-63550800D01*
X111199723Y-63625960D01*
X111189521Y-63663436D01*
X111161938Y-63676345D01*
X111117380Y-63677800D01*
X111050073Y-63669070D01*
X111003781Y-63648000D01*
X111003080Y-63647320D01*
X110984590Y-63607784D01*
X110974679Y-63546942D01*
X110973906Y-63483661D01*
X110982827Y-63436809D01*
X110996466Y-63423800D01*
X111013678Y-63446265D01*
G36*
X110915199Y-63308720D02*
G01*
X110914601Y-63335150D01*
X110877350Y-63359396D01*
X110846706Y-63375336D01*
X110858066Y-63394634D01*
X110877350Y-63409364D01*
X110916880Y-63448046D01*
X110911009Y-63470392D01*
X110883700Y-63474600D01*
X110857207Y-63491376D01*
X110846291Y-63546990D01*
X110845600Y-63576200D01*
X110839966Y-63639822D01*
X110825893Y-63675209D01*
X110820200Y-63677800D01*
X110804156Y-63655297D01*
X110795367Y-63599218D01*
X110794800Y-63578316D01*
X110787330Y-63510510D01*
X110768536Y-63469594D01*
X110763050Y-63465950D01*
X110745620Y-63447218D01*
X110759626Y-63432083D01*
X110789389Y-63392454D01*
X110805788Y-63353950D01*
X110839524Y-63307455D01*
X110872711Y-63296800D01*
X110915199Y-63308720D01*
G37*
X110915199Y-63308720D02*
X110914601Y-63335150D01*
X110877350Y-63359396D01*
X110846706Y-63375336D01*
X110858066Y-63394634D01*
X110877350Y-63409364D01*
X110916880Y-63448046D01*
X110911009Y-63470392D01*
X110883700Y-63474600D01*
X110857207Y-63491376D01*
X110846291Y-63546990D01*
X110845600Y-63576200D01*
X110839966Y-63639822D01*
X110825893Y-63675209D01*
X110820200Y-63677800D01*
X110804156Y-63655297D01*
X110795367Y-63599218D01*
X110794800Y-63578316D01*
X110787330Y-63510510D01*
X110768536Y-63469594D01*
X110763050Y-63465950D01*
X110745620Y-63447218D01*
X110759626Y-63432083D01*
X110789389Y-63392454D01*
X110805788Y-63353950D01*
X110839524Y-63307455D01*
X110872711Y-63296800D01*
X110915199Y-63308720D01*
G36*
X109844089Y-63446644D02*
G01*
X109853285Y-63505052D01*
X109855000Y-63550800D01*
X109850431Y-63623246D01*
X109838749Y-63669229D01*
X109829600Y-63677800D01*
X109815110Y-63654955D01*
X109805914Y-63596547D01*
X109804200Y-63550800D01*
X109808768Y-63478353D01*
X109820450Y-63432370D01*
X109829600Y-63423800D01*
X109844089Y-63446644D01*
G37*
X109844089Y-63446644D02*
X109853285Y-63505052D01*
X109855000Y-63550800D01*
X109850431Y-63623246D01*
X109838749Y-63669229D01*
X109829600Y-63677800D01*
X109815110Y-63654955D01*
X109805914Y-63596547D01*
X109804200Y-63550800D01*
X109808768Y-63478353D01*
X109820450Y-63432370D01*
X109829600Y-63423800D01*
X109844089Y-63446644D01*
G36*
X109271475Y-63434193D02*
G01*
X109306182Y-63463977D01*
X109318568Y-63520977D01*
X109321147Y-63587883D01*
X109314791Y-63645994D01*
X109300374Y-63676611D01*
X109296200Y-63677800D01*
X109279015Y-63655566D01*
X109270896Y-63601304D01*
X109270800Y-63593979D01*
X109262255Y-63526895D01*
X109241629Y-63481012D01*
X109240924Y-63480284D01*
X109201569Y-63464631D01*
X109167715Y-63491027D01*
X109146929Y-63550764D01*
X109143800Y-63592010D01*
X109137206Y-63649522D01*
X109121064Y-63677327D01*
X109118400Y-63677800D01*
X109103910Y-63654955D01*
X109094714Y-63596547D01*
X109093000Y-63550800D01*
X109093000Y-63423800D01*
X109191882Y-63423800D01*
X109271475Y-63434193D01*
G37*
X109271475Y-63434193D02*
X109306182Y-63463977D01*
X109318568Y-63520977D01*
X109321147Y-63587883D01*
X109314791Y-63645994D01*
X109300374Y-63676611D01*
X109296200Y-63677800D01*
X109279015Y-63655566D01*
X109270896Y-63601304D01*
X109270800Y-63593979D01*
X109262255Y-63526895D01*
X109241629Y-63481012D01*
X109240924Y-63480284D01*
X109201569Y-63464631D01*
X109167715Y-63491027D01*
X109146929Y-63550764D01*
X109143800Y-63592010D01*
X109137206Y-63649522D01*
X109121064Y-63677327D01*
X109118400Y-63677800D01*
X109103910Y-63654955D01*
X109094714Y-63596547D01*
X109093000Y-63550800D01*
X109093000Y-63423800D01*
X109191882Y-63423800D01*
X109271475Y-63434193D01*
G36*
X108972350Y-63328457D02*
G01*
X108992434Y-63360281D01*
X109006396Y-63436862D01*
X109011610Y-63508374D01*
X109013691Y-63600886D01*
X109008377Y-63653032D01*
X108993768Y-63674946D01*
X108979860Y-63677800D01*
X108958765Y-63668290D01*
X108946629Y-63633342D01*
X108941350Y-63563326D01*
X108940600Y-63497883D01*
X108943197Y-63399024D01*
X108951782Y-63344385D01*
X108967545Y-63327614D01*
X108972350Y-63328457D01*
G37*
X108972350Y-63328457D02*
X108992434Y-63360281D01*
X109006396Y-63436862D01*
X109011610Y-63508374D01*
X109013691Y-63600886D01*
X109008377Y-63653032D01*
X108993768Y-63674946D01*
X108979860Y-63677800D01*
X108958765Y-63668290D01*
X108946629Y-63633342D01*
X108941350Y-63563326D01*
X108940600Y-63497883D01*
X108943197Y-63399024D01*
X108951782Y-63344385D01*
X108967545Y-63327614D01*
X108972350Y-63328457D01*
G36*
X108705650Y-63425132D02*
G01*
X108766100Y-63427189D01*
X108781734Y-63435299D01*
X108758535Y-63455931D01*
X108743750Y-63466330D01*
X108697720Y-63522744D01*
X108686600Y-63591998D01*
X108677708Y-63656513D01*
X108649675Y-63677782D01*
X108648500Y-63677800D01*
X108624540Y-63664204D01*
X108612838Y-63617131D01*
X108610400Y-63550800D01*
X108610400Y-63423800D01*
X108705650Y-63425132D01*
G37*
X108705650Y-63425132D02*
X108766100Y-63427189D01*
X108781734Y-63435299D01*
X108758535Y-63455931D01*
X108743750Y-63466330D01*
X108697720Y-63522744D01*
X108686600Y-63591998D01*
X108677708Y-63656513D01*
X108649675Y-63677782D01*
X108648500Y-63677800D01*
X108624540Y-63664204D01*
X108612838Y-63617131D01*
X108610400Y-63550800D01*
X108610400Y-63423800D01*
X108705650Y-63425132D01*
G36*
X108070693Y-63318536D02*
G01*
X108077000Y-63360300D01*
X108085619Y-63406268D01*
X108121744Y-63422585D01*
X108150482Y-63423800D01*
X108212347Y-63437133D01*
X108239382Y-63463977D01*
X108251768Y-63520977D01*
X108254347Y-63587883D01*
X108247991Y-63645994D01*
X108233574Y-63676611D01*
X108229400Y-63677800D01*
X108212215Y-63655566D01*
X108204096Y-63601304D01*
X108204000Y-63593979D01*
X108191833Y-63514613D01*
X108159101Y-63469617D01*
X108112004Y-63466602D01*
X108087053Y-63501274D01*
X108077041Y-63573140D01*
X108077000Y-63578917D01*
X108071222Y-63641528D01*
X108056832Y-63675675D01*
X108051600Y-63677800D01*
X108038801Y-63654162D01*
X108029881Y-63590176D01*
X108026223Y-63496233D01*
X108026200Y-63487300D01*
X108029351Y-63391311D01*
X108037883Y-63324407D01*
X108050408Y-63296978D01*
X108051600Y-63296800D01*
X108070693Y-63318536D01*
G37*
X108070693Y-63318536D02*
X108077000Y-63360300D01*
X108085619Y-63406268D01*
X108121744Y-63422585D01*
X108150482Y-63423800D01*
X108212347Y-63437133D01*
X108239382Y-63463977D01*
X108251768Y-63520977D01*
X108254347Y-63587883D01*
X108247991Y-63645994D01*
X108233574Y-63676611D01*
X108229400Y-63677800D01*
X108212215Y-63655566D01*
X108204096Y-63601304D01*
X108204000Y-63593979D01*
X108191833Y-63514613D01*
X108159101Y-63469617D01*
X108112004Y-63466602D01*
X108087053Y-63501274D01*
X108077041Y-63573140D01*
X108077000Y-63578917D01*
X108071222Y-63641528D01*
X108056832Y-63675675D01*
X108051600Y-63677800D01*
X108038801Y-63654162D01*
X108029881Y-63590176D01*
X108026223Y-63496233D01*
X108026200Y-63487300D01*
X108029351Y-63391311D01*
X108037883Y-63324407D01*
X108050408Y-63296978D01*
X108051600Y-63296800D01*
X108070693Y-63318536D01*
G36*
X107640993Y-63429816D02*
G01*
X107659375Y-63445732D01*
X107657900Y-63449200D01*
X107621149Y-63472571D01*
X107605600Y-63474600D01*
X107579731Y-63493425D01*
X107569405Y-63553903D01*
X107569000Y-63576200D01*
X107562708Y-63646845D01*
X107541853Y-63675956D01*
X107530900Y-63677800D01*
X107506940Y-63664204D01*
X107495238Y-63617131D01*
X107492800Y-63550800D01*
X107492800Y-63423800D01*
X107583199Y-63423800D01*
X107640993Y-63429816D01*
G37*
X107640993Y-63429816D02*
X107659375Y-63445732D01*
X107657900Y-63449200D01*
X107621149Y-63472571D01*
X107605600Y-63474600D01*
X107579731Y-63493425D01*
X107569405Y-63553903D01*
X107569000Y-63576200D01*
X107562708Y-63646845D01*
X107541853Y-63675956D01*
X107530900Y-63677800D01*
X107506940Y-63664204D01*
X107495238Y-63617131D01*
X107492800Y-63550800D01*
X107492800Y-63423800D01*
X107583199Y-63423800D01*
X107640993Y-63429816D01*
G36*
X107194350Y-63303065D02*
G01*
X107214247Y-63335203D01*
X107227990Y-63414076D01*
X107233562Y-63495681D01*
X107235716Y-63592258D01*
X107231176Y-63648155D01*
X107218221Y-63673250D01*
X107201812Y-63677800D01*
X107181339Y-63668693D01*
X107169271Y-63635090D01*
X107163687Y-63567564D01*
X107162600Y-63485183D01*
X107164960Y-63382216D01*
X107172787Y-63323465D01*
X107187195Y-63302530D01*
X107194350Y-63303065D01*
G37*
X107194350Y-63303065D02*
X107214247Y-63335203D01*
X107227990Y-63414076D01*
X107233562Y-63495681D01*
X107235716Y-63592258D01*
X107231176Y-63648155D01*
X107218221Y-63673250D01*
X107201812Y-63677800D01*
X107181339Y-63668693D01*
X107169271Y-63635090D01*
X107163687Y-63567564D01*
X107162600Y-63485183D01*
X107164960Y-63382216D01*
X107172787Y-63323465D01*
X107187195Y-63302530D01*
X107194350Y-63303065D01*
G36*
X107089061Y-63434696D02*
G01*
X107111792Y-63450565D01*
X107111800Y-63450898D01*
X107091363Y-63472280D01*
X107075932Y-63474600D01*
X107047058Y-63498389D01*
X107025264Y-63563402D01*
X107022900Y-63576200D01*
X107004326Y-63649885D01*
X106984798Y-63674481D01*
X106968569Y-63651432D01*
X106959895Y-63582179D01*
X106959400Y-63554665D01*
X106961280Y-63480872D01*
X106972410Y-63444328D01*
X107001026Y-63431489D01*
X107035600Y-63429364D01*
X107089061Y-63434696D01*
G37*
X107089061Y-63434696D02*
X107111792Y-63450565D01*
X107111800Y-63450898D01*
X107091363Y-63472280D01*
X107075932Y-63474600D01*
X107047058Y-63498389D01*
X107025264Y-63563402D01*
X107022900Y-63576200D01*
X107004326Y-63649885D01*
X106984798Y-63674481D01*
X106968569Y-63651432D01*
X106959895Y-63582179D01*
X106959400Y-63554665D01*
X106961280Y-63480872D01*
X106972410Y-63444328D01*
X107001026Y-63431489D01*
X107035600Y-63429364D01*
X107089061Y-63434696D01*
G36*
X106392601Y-63344380D02*
G01*
X106400550Y-63398285D01*
X106400600Y-63403382D01*
X106400600Y-63484565D01*
X106484359Y-63403382D01*
X106547574Y-63349525D01*
X106591299Y-63324958D01*
X106609394Y-63328991D01*
X106595719Y-63360934D01*
X106552999Y-63411100D01*
X106466834Y-63500000D01*
X106553000Y-63588900D01*
X106599429Y-63644644D01*
X106608729Y-63673081D01*
X106587039Y-63673521D01*
X106540499Y-63645273D01*
X106484359Y-63596617D01*
X106400600Y-63515434D01*
X106400600Y-63596617D01*
X106393660Y-63652236D01*
X106376794Y-63677640D01*
X106375200Y-63677800D01*
X106362170Y-63654307D01*
X106353167Y-63591341D01*
X106349800Y-63500172D01*
X106349800Y-63500000D01*
X106353156Y-63408792D01*
X106362151Y-63345769D01*
X106375175Y-63322200D01*
X106375200Y-63322200D01*
X106392601Y-63344380D01*
G37*
X106392601Y-63344380D02*
X106400550Y-63398285D01*
X106400600Y-63403382D01*
X106400600Y-63484565D01*
X106484359Y-63403382D01*
X106547574Y-63349525D01*
X106591299Y-63324958D01*
X106609394Y-63328991D01*
X106595719Y-63360934D01*
X106552999Y-63411100D01*
X106466834Y-63500000D01*
X106553000Y-63588900D01*
X106599429Y-63644644D01*
X106608729Y-63673081D01*
X106587039Y-63673521D01*
X106540499Y-63645273D01*
X106484359Y-63596617D01*
X106400600Y-63515434D01*
X106400600Y-63596617D01*
X106393660Y-63652236D01*
X106376794Y-63677640D01*
X106375200Y-63677800D01*
X106362170Y-63654307D01*
X106353167Y-63591341D01*
X106349800Y-63500172D01*
X106349800Y-63500000D01*
X106353156Y-63408792D01*
X106362151Y-63345769D01*
X106375175Y-63322200D01*
X106375200Y-63322200D01*
X106392601Y-63344380D01*
G36*
X114321735Y-63445913D02*
G01*
X114344087Y-63491990D01*
X114346137Y-63506350D01*
X114346921Y-63552326D01*
X114325696Y-63571892D01*
X114268807Y-63576182D01*
X114260477Y-63576200D01*
X114201469Y-63578820D01*
X114184418Y-63590492D01*
X114199755Y-63615932D01*
X114253466Y-63643949D01*
X114291765Y-63640848D01*
X114339177Y-63639990D01*
X114348941Y-63659910D01*
X114315170Y-63685954D01*
X114310622Y-63687782D01*
X114262176Y-63701369D01*
X114222312Y-63691601D01*
X114178651Y-63663659D01*
X114135799Y-63608463D01*
X114122368Y-63537175D01*
X114128377Y-63515366D01*
X114183326Y-63515366D01*
X114209340Y-63524759D01*
X114233389Y-63525400D01*
X114282605Y-63517961D01*
X114300000Y-63502717D01*
X114280742Y-63472753D01*
X114238955Y-63466468D01*
X114198618Y-63487106D01*
X114197146Y-63488809D01*
X114183326Y-63515366D01*
X114128377Y-63515366D01*
X114140405Y-63471718D01*
X114158764Y-63450474D01*
X114210059Y-63430577D01*
X114266714Y-63428314D01*
X114321735Y-63445913D01*
G37*
X114321735Y-63445913D02*
X114344087Y-63491990D01*
X114346137Y-63506350D01*
X114346921Y-63552326D01*
X114325696Y-63571892D01*
X114268807Y-63576182D01*
X114260477Y-63576200D01*
X114201469Y-63578820D01*
X114184418Y-63590492D01*
X114199755Y-63615932D01*
X114253466Y-63643949D01*
X114291765Y-63640848D01*
X114339177Y-63639990D01*
X114348941Y-63659910D01*
X114315170Y-63685954D01*
X114310622Y-63687782D01*
X114262176Y-63701369D01*
X114222312Y-63691601D01*
X114178651Y-63663659D01*
X114135799Y-63608463D01*
X114122368Y-63537175D01*
X114128377Y-63515366D01*
X114183326Y-63515366D01*
X114209340Y-63524759D01*
X114233389Y-63525400D01*
X114282605Y-63517961D01*
X114300000Y-63502717D01*
X114280742Y-63472753D01*
X114238955Y-63466468D01*
X114198618Y-63487106D01*
X114197146Y-63488809D01*
X114183326Y-63515366D01*
X114128377Y-63515366D01*
X114140405Y-63471718D01*
X114158764Y-63450474D01*
X114210059Y-63430577D01*
X114266714Y-63428314D01*
X114321735Y-63445913D01*
G36*
X113594318Y-63436956D02*
G01*
X113642192Y-63483119D01*
X113644221Y-63487300D01*
X113659338Y-63568700D01*
X113633695Y-63635604D01*
X113577180Y-63677478D01*
X113499677Y-63683786D01*
X113467962Y-63675108D01*
X113416354Y-63632025D01*
X113394497Y-63567101D01*
X113450179Y-63567101D01*
X113463604Y-63604972D01*
X113503271Y-63644541D01*
X113545822Y-63640588D01*
X113577437Y-63597563D01*
X113584483Y-63566038D01*
X113577225Y-63499077D01*
X113542666Y-63463941D01*
X113497817Y-63466213D01*
X113456686Y-63505445D01*
X113450179Y-63567101D01*
X113394497Y-63567101D01*
X113393187Y-63563211D01*
X113404264Y-63488414D01*
X113409733Y-63476965D01*
X113458184Y-63433002D01*
X113526347Y-63419958D01*
X113594318Y-63436956D01*
G37*
X113594318Y-63436956D02*
X113642192Y-63483119D01*
X113644221Y-63487300D01*
X113659338Y-63568700D01*
X113633695Y-63635604D01*
X113577180Y-63677478D01*
X113499677Y-63683786D01*
X113467962Y-63675108D01*
X113416354Y-63632025D01*
X113394497Y-63567101D01*
X113450179Y-63567101D01*
X113463604Y-63604972D01*
X113503271Y-63644541D01*
X113545822Y-63640588D01*
X113577437Y-63597563D01*
X113584483Y-63566038D01*
X113577225Y-63499077D01*
X113542666Y-63463941D01*
X113497817Y-63466213D01*
X113456686Y-63505445D01*
X113450179Y-63567101D01*
X113394497Y-63567101D01*
X113393187Y-63563211D01*
X113404264Y-63488414D01*
X113409733Y-63476965D01*
X113458184Y-63433002D01*
X113526347Y-63419958D01*
X113594318Y-63436956D01*
G36*
X113133438Y-63434829D02*
G01*
X113182255Y-63478039D01*
X113187021Y-63487300D01*
X113200995Y-63565944D01*
X113176429Y-63633695D01*
X113123017Y-63678443D01*
X113050453Y-63688077D01*
X113030000Y-63683444D01*
X112971093Y-63643551D01*
X112933371Y-63578969D01*
X112928643Y-63549284D01*
X113004600Y-63549284D01*
X113018191Y-63619407D01*
X113051720Y-63653419D01*
X113094321Y-63646666D01*
X113130706Y-63603269D01*
X113153237Y-63554241D01*
X113147537Y-63522859D01*
X113118164Y-63490193D01*
X113067378Y-63463200D01*
X113025672Y-63480636D01*
X113005121Y-63536218D01*
X113004600Y-63549284D01*
X112928643Y-63549284D01*
X112928400Y-63547759D01*
X112949196Y-63484125D01*
X113000944Y-63441604D01*
X113067680Y-63423928D01*
X113133438Y-63434829D01*
G37*
X113133438Y-63434829D02*
X113182255Y-63478039D01*
X113187021Y-63487300D01*
X113200995Y-63565944D01*
X113176429Y-63633695D01*
X113123017Y-63678443D01*
X113050453Y-63688077D01*
X113030000Y-63683444D01*
X112971093Y-63643551D01*
X112933371Y-63578969D01*
X112928643Y-63549284D01*
X113004600Y-63549284D01*
X113018191Y-63619407D01*
X113051720Y-63653419D01*
X113094321Y-63646666D01*
X113130706Y-63603269D01*
X113153237Y-63554241D01*
X113147537Y-63522859D01*
X113118164Y-63490193D01*
X113067378Y-63463200D01*
X113025672Y-63480636D01*
X113005121Y-63536218D01*
X113004600Y-63549284D01*
X112928643Y-63549284D01*
X112928400Y-63547759D01*
X112949196Y-63484125D01*
X113000944Y-63441604D01*
X113067680Y-63423928D01*
X113133438Y-63434829D01*
G36*
X112256184Y-63431038D02*
G01*
X112268000Y-63446377D01*
X112247459Y-63464163D01*
X112227065Y-63465427D01*
X112180963Y-63481749D01*
X112157345Y-63506350D01*
X112144619Y-63564395D01*
X112174615Y-63617052D01*
X112239771Y-63651676D01*
X112245003Y-63652991D01*
X112285263Y-63665323D01*
X112279082Y-63677085D01*
X112259572Y-63685319D01*
X112221547Y-63699356D01*
X112197351Y-63697354D01*
X112162059Y-63674531D01*
X112146651Y-63663659D01*
X112103689Y-63607888D01*
X112090128Y-63535351D01*
X112108821Y-63469052D01*
X112120680Y-63454279D01*
X112161774Y-63432459D01*
X112214129Y-63424327D01*
X112256184Y-63431038D01*
G37*
X112256184Y-63431038D02*
X112268000Y-63446377D01*
X112247459Y-63464163D01*
X112227065Y-63465427D01*
X112180963Y-63481749D01*
X112157345Y-63506350D01*
X112144619Y-63564395D01*
X112174615Y-63617052D01*
X112239771Y-63651676D01*
X112245003Y-63652991D01*
X112285263Y-63665323D01*
X112279082Y-63677085D01*
X112259572Y-63685319D01*
X112221547Y-63699356D01*
X112197351Y-63697354D01*
X112162059Y-63674531D01*
X112146651Y-63663659D01*
X112103689Y-63607888D01*
X112090128Y-63535351D01*
X112108821Y-63469052D01*
X112120680Y-63454279D01*
X112161774Y-63432459D01*
X112214129Y-63424327D01*
X112256184Y-63431038D01*
G36*
X111965101Y-63431046D02*
G01*
X112017233Y-63468102D01*
X112039382Y-63528583D01*
X112039400Y-63530479D01*
X112027506Y-63562079D01*
X111983754Y-63574927D01*
X111947389Y-63576200D01*
X111889185Y-63578882D01*
X111872961Y-63590836D01*
X111888355Y-63615932D01*
X111943026Y-63644204D01*
X111986715Y-63640943D01*
X112031143Y-63632569D01*
X112030293Y-63642271D01*
X112002795Y-63664710D01*
X111957045Y-63695977D01*
X111922025Y-63697073D01*
X111873193Y-63667810D01*
X111867251Y-63663659D01*
X111824289Y-63607888D01*
X111810728Y-63535351D01*
X111816362Y-63515366D01*
X111871926Y-63515366D01*
X111897940Y-63524759D01*
X111921989Y-63525400D01*
X111971205Y-63517961D01*
X111988600Y-63502717D01*
X111969342Y-63472753D01*
X111927555Y-63466468D01*
X111887218Y-63487106D01*
X111885746Y-63488809D01*
X111871926Y-63515366D01*
X111816362Y-63515366D01*
X111829421Y-63469052D01*
X111841280Y-63454279D01*
X111900584Y-63424182D01*
X111965101Y-63431046D01*
G37*
X111965101Y-63431046D02*
X112017233Y-63468102D01*
X112039382Y-63528583D01*
X112039400Y-63530479D01*
X112027506Y-63562079D01*
X111983754Y-63574927D01*
X111947389Y-63576200D01*
X111889185Y-63578882D01*
X111872961Y-63590836D01*
X111888355Y-63615932D01*
X111943026Y-63644204D01*
X111986715Y-63640943D01*
X112031143Y-63632569D01*
X112030293Y-63642271D01*
X112002795Y-63664710D01*
X111957045Y-63695977D01*
X111922025Y-63697073D01*
X111873193Y-63667810D01*
X111867251Y-63663659D01*
X111824289Y-63607888D01*
X111810728Y-63535351D01*
X111816362Y-63515366D01*
X111871926Y-63515366D01*
X111897940Y-63524759D01*
X111921989Y-63525400D01*
X111971205Y-63517961D01*
X111988600Y-63502717D01*
X111969342Y-63472753D01*
X111927555Y-63466468D01*
X111887218Y-63487106D01*
X111885746Y-63488809D01*
X111871926Y-63515366D01*
X111816362Y-63515366D01*
X111829421Y-63469052D01*
X111841280Y-63454279D01*
X111900584Y-63424182D01*
X111965101Y-63431046D01*
G36*
X110512534Y-63368172D02*
G01*
X110515400Y-63385700D01*
X110535731Y-63419374D01*
X110553500Y-63423800D01*
X110587301Y-63437515D01*
X110591600Y-63449200D01*
X110571027Y-63471734D01*
X110553500Y-63474600D01*
X110525236Y-63494944D01*
X110515077Y-63542717D01*
X110522647Y-63598027D01*
X110547572Y-63640981D01*
X110556761Y-63647622D01*
X110580824Y-63672470D01*
X110575269Y-63684894D01*
X110536699Y-63685682D01*
X110508507Y-63674447D01*
X110473487Y-63627021D01*
X110464600Y-63564354D01*
X110456038Y-63502090D01*
X110435190Y-63465340D01*
X110432850Y-63464016D01*
X110414170Y-63447335D01*
X110432850Y-63434383D01*
X110462095Y-63398720D01*
X110464600Y-63383583D01*
X110479012Y-63351163D01*
X110490000Y-63347600D01*
X110512534Y-63368172D01*
G37*
X110512534Y-63368172D02*
X110515400Y-63385700D01*
X110535731Y-63419374D01*
X110553500Y-63423800D01*
X110587301Y-63437515D01*
X110591600Y-63449200D01*
X110571027Y-63471734D01*
X110553500Y-63474600D01*
X110525236Y-63494944D01*
X110515077Y-63542717D01*
X110522647Y-63598027D01*
X110547572Y-63640981D01*
X110556761Y-63647622D01*
X110580824Y-63672470D01*
X110575269Y-63684894D01*
X110536699Y-63685682D01*
X110508507Y-63674447D01*
X110473487Y-63627021D01*
X110464600Y-63564354D01*
X110456038Y-63502090D01*
X110435190Y-63465340D01*
X110432850Y-63464016D01*
X110414170Y-63447335D01*
X110432850Y-63434383D01*
X110462095Y-63398720D01*
X110464600Y-63383583D01*
X110479012Y-63351163D01*
X110490000Y-63347600D01*
X110512534Y-63368172D01*
G36*
X110352089Y-63446644D02*
G01*
X110361285Y-63505052D01*
X110363000Y-63550800D01*
X110358456Y-63632215D01*
X110343347Y-63671341D01*
X110326977Y-63677800D01*
X110268909Y-63686220D01*
X110257127Y-63689816D01*
X110208642Y-63688076D01*
X110178850Y-63675854D01*
X110147296Y-63637007D01*
X110134900Y-63562835D01*
X110134400Y-63536837D01*
X110139497Y-63469111D01*
X110152380Y-63428748D01*
X110159800Y-63423800D01*
X110175802Y-63446311D01*
X110184609Y-63502453D01*
X110185200Y-63523900D01*
X110191371Y-63591736D01*
X110206696Y-63635477D01*
X110211712Y-63640387D01*
X110252707Y-63642118D01*
X110288484Y-63605251D01*
X110309791Y-63541831D01*
X110312200Y-63509589D01*
X110318793Y-63452077D01*
X110334935Y-63424272D01*
X110337600Y-63423800D01*
X110352089Y-63446644D01*
G37*
X110352089Y-63446644D02*
X110361285Y-63505052D01*
X110363000Y-63550800D01*
X110358456Y-63632215D01*
X110343347Y-63671341D01*
X110326977Y-63677800D01*
X110268909Y-63686220D01*
X110257127Y-63689816D01*
X110208642Y-63688076D01*
X110178850Y-63675854D01*
X110147296Y-63637007D01*
X110134900Y-63562835D01*
X110134400Y-63536837D01*
X110139497Y-63469111D01*
X110152380Y-63428748D01*
X110159800Y-63423800D01*
X110175802Y-63446311D01*
X110184609Y-63502453D01*
X110185200Y-63523900D01*
X110191371Y-63591736D01*
X110206696Y-63635477D01*
X110211712Y-63640387D01*
X110252707Y-63642118D01*
X110288484Y-63605251D01*
X110309791Y-63541831D01*
X110312200Y-63509589D01*
X110318793Y-63452077D01*
X110334935Y-63424272D01*
X110337600Y-63423800D01*
X110352089Y-63446644D01*
G36*
X110004534Y-63368172D02*
G01*
X110007400Y-63385700D01*
X110028239Y-63418320D01*
X110051850Y-63424607D01*
X110082401Y-63427900D01*
X110071731Y-63443662D01*
X110051850Y-63459157D01*
X110017007Y-63510274D01*
X110009482Y-63575079D01*
X110029645Y-63630927D01*
X110048761Y-63647622D01*
X110072824Y-63672470D01*
X110067269Y-63684894D01*
X110028699Y-63685682D01*
X110000507Y-63674447D01*
X109965487Y-63627021D01*
X109956600Y-63564354D01*
X109948038Y-63502090D01*
X109927190Y-63465340D01*
X109924850Y-63464016D01*
X109906170Y-63447335D01*
X109924850Y-63434383D01*
X109954095Y-63398720D01*
X109956600Y-63383583D01*
X109971012Y-63351163D01*
X109982000Y-63347600D01*
X110004534Y-63368172D01*
G37*
X110004534Y-63368172D02*
X110007400Y-63385700D01*
X110028239Y-63418320D01*
X110051850Y-63424607D01*
X110082401Y-63427900D01*
X110071731Y-63443662D01*
X110051850Y-63459157D01*
X110017007Y-63510274D01*
X110009482Y-63575079D01*
X110029645Y-63630927D01*
X110048761Y-63647622D01*
X110072824Y-63672470D01*
X110067269Y-63684894D01*
X110028699Y-63685682D01*
X110000507Y-63674447D01*
X109965487Y-63627021D01*
X109956600Y-63564354D01*
X109948038Y-63502090D01*
X109927190Y-63465340D01*
X109924850Y-63464016D01*
X109906170Y-63447335D01*
X109924850Y-63434383D01*
X109954095Y-63398720D01*
X109956600Y-63383583D01*
X109971012Y-63351163D01*
X109982000Y-63347600D01*
X110004534Y-63368172D01*
G36*
X109674684Y-63368017D02*
G01*
X109677200Y-63383583D01*
X109696624Y-63425793D01*
X109708950Y-63434383D01*
X109727629Y-63451064D01*
X109708950Y-63464016D01*
X109684874Y-63496880D01*
X109676276Y-63551901D01*
X109682303Y-63608661D01*
X109702106Y-63646743D01*
X109716799Y-63652400D01*
X109743089Y-63664713D01*
X109740700Y-63677800D01*
X109715133Y-63699386D01*
X109670844Y-63691295D01*
X109658150Y-63686378D01*
X109637039Y-63654856D01*
X109626630Y-63594196D01*
X109626400Y-63583233D01*
X109612170Y-63501746D01*
X109581950Y-63459157D01*
X109551398Y-63433229D01*
X109562068Y-63425372D01*
X109581950Y-63424607D01*
X109619565Y-63406061D01*
X109626400Y-63385700D01*
X109640115Y-63351898D01*
X109651800Y-63347600D01*
X109674684Y-63368017D01*
G37*
X109674684Y-63368017D02*
X109677200Y-63383583D01*
X109696624Y-63425793D01*
X109708950Y-63434383D01*
X109727629Y-63451064D01*
X109708950Y-63464016D01*
X109684874Y-63496880D01*
X109676276Y-63551901D01*
X109682303Y-63608661D01*
X109702106Y-63646743D01*
X109716799Y-63652400D01*
X109743089Y-63664713D01*
X109740700Y-63677800D01*
X109715133Y-63699386D01*
X109670844Y-63691295D01*
X109658150Y-63686378D01*
X109637039Y-63654856D01*
X109626630Y-63594196D01*
X109626400Y-63583233D01*
X109612170Y-63501746D01*
X109581950Y-63459157D01*
X109551398Y-63433229D01*
X109562068Y-63425372D01*
X109581950Y-63424607D01*
X109619565Y-63406061D01*
X109626400Y-63385700D01*
X109640115Y-63351898D01*
X109651800Y-63347600D01*
X109674684Y-63368017D01*
G36*
X109508621Y-63432128D02*
G01*
X109524800Y-63448402D01*
X109506389Y-63462876D01*
X109489269Y-63459371D01*
X109449349Y-63456196D01*
X109440313Y-63479797D01*
X109462586Y-63516290D01*
X109486918Y-63535907D01*
X109538462Y-63578976D01*
X109544357Y-63618255D01*
X109510285Y-63663285D01*
X109468678Y-63696083D01*
X109427594Y-63694991D01*
X109404150Y-63686378D01*
X109373319Y-63662032D01*
X109384865Y-63643696D01*
X109423200Y-63645040D01*
X109464650Y-63644089D01*
X109470958Y-63617047D01*
X109442587Y-63574055D01*
X109418964Y-63552477D01*
X109380667Y-63500510D01*
X109386799Y-63453992D01*
X109432986Y-63426464D01*
X109460502Y-63423800D01*
X109508621Y-63432128D01*
G37*
X109508621Y-63432128D02*
X109524800Y-63448402D01*
X109506389Y-63462876D01*
X109489269Y-63459371D01*
X109449349Y-63456196D01*
X109440313Y-63479797D01*
X109462586Y-63516290D01*
X109486918Y-63535907D01*
X109538462Y-63578976D01*
X109544357Y-63618255D01*
X109510285Y-63663285D01*
X109468678Y-63696083D01*
X109427594Y-63694991D01*
X109404150Y-63686378D01*
X109373319Y-63662032D01*
X109384865Y-63643696D01*
X109423200Y-63645040D01*
X109464650Y-63644089D01*
X109470958Y-63617047D01*
X109442587Y-63574055D01*
X109418964Y-63552477D01*
X109380667Y-63500510D01*
X109386799Y-63453992D01*
X109432986Y-63426464D01*
X109460502Y-63423800D01*
X109508621Y-63432128D01*
G36*
X108504524Y-63442727D02*
G01*
X108534480Y-63475124D01*
X108550596Y-63532791D01*
X108522928Y-63566020D01*
X108454384Y-63576200D01*
X108398681Y-63584851D01*
X108388807Y-63607950D01*
X108419514Y-63629966D01*
X108467124Y-63634918D01*
X108519858Y-63640364D01*
X108532451Y-63660404D01*
X108499983Y-63685369D01*
X108494022Y-63687782D01*
X108457215Y-63700292D01*
X108449572Y-63701589D01*
X108425806Y-63692111D01*
X108388909Y-63677289D01*
X108336080Y-63631723D01*
X108313007Y-63561168D01*
X108323141Y-63500000D01*
X108381800Y-63500000D01*
X108403073Y-63520637D01*
X108432600Y-63525400D01*
X108473874Y-63514763D01*
X108483400Y-63500000D01*
X108462126Y-63479362D01*
X108432600Y-63474600D01*
X108391325Y-63485236D01*
X108381800Y-63500000D01*
X108323141Y-63500000D01*
X108325550Y-63485465D01*
X108329733Y-63476965D01*
X108376983Y-63434489D01*
X108442412Y-63423012D01*
X108504524Y-63442727D01*
G37*
X108504524Y-63442727D02*
X108534480Y-63475124D01*
X108550596Y-63532791D01*
X108522928Y-63566020D01*
X108454384Y-63576200D01*
X108398681Y-63584851D01*
X108388807Y-63607950D01*
X108419514Y-63629966D01*
X108467124Y-63634918D01*
X108519858Y-63640364D01*
X108532451Y-63660404D01*
X108499983Y-63685369D01*
X108494022Y-63687782D01*
X108457215Y-63700292D01*
X108449572Y-63701589D01*
X108425806Y-63692111D01*
X108388909Y-63677289D01*
X108336080Y-63631723D01*
X108313007Y-63561168D01*
X108323141Y-63500000D01*
X108381800Y-63500000D01*
X108403073Y-63520637D01*
X108432600Y-63525400D01*
X108473874Y-63514763D01*
X108483400Y-63500000D01*
X108462126Y-63479362D01*
X108432600Y-63474600D01*
X108391325Y-63485236D01*
X108381800Y-63500000D01*
X108323141Y-63500000D01*
X108325550Y-63485465D01*
X108329733Y-63476965D01*
X108376983Y-63434489D01*
X108442412Y-63423012D01*
X108504524Y-63442727D01*
G36*
X107935859Y-63437395D02*
G01*
X107947561Y-63484468D01*
X107950000Y-63550800D01*
X107947180Y-63627251D01*
X107935579Y-63665358D01*
X107910479Y-63677415D01*
X107901277Y-63677800D01*
X107839723Y-63685088D01*
X107815652Y-63691960D01*
X107770435Y-63687073D01*
X107737375Y-63664746D01*
X107713926Y-63621218D01*
X107699697Y-63557735D01*
X107695856Y-63491945D01*
X107703575Y-63441498D01*
X107721400Y-63423800D01*
X107739687Y-63445754D01*
X107746800Y-63495145D01*
X107758209Y-63563698D01*
X107786323Y-63618444D01*
X107821965Y-63645593D01*
X107844546Y-63642081D01*
X107863282Y-63607125D01*
X107873284Y-63542917D01*
X107873800Y-63523900D01*
X107880282Y-63453821D01*
X107901691Y-63425374D01*
X107911900Y-63423800D01*
X107935859Y-63437395D01*
G37*
X107935859Y-63437395D02*
X107947561Y-63484468D01*
X107950000Y-63550800D01*
X107947180Y-63627251D01*
X107935579Y-63665358D01*
X107910479Y-63677415D01*
X107901277Y-63677800D01*
X107839723Y-63685088D01*
X107815652Y-63691960D01*
X107770435Y-63687073D01*
X107737375Y-63664746D01*
X107713926Y-63621218D01*
X107699697Y-63557735D01*
X107695856Y-63491945D01*
X107703575Y-63441498D01*
X107721400Y-63423800D01*
X107739687Y-63445754D01*
X107746800Y-63495145D01*
X107758209Y-63563698D01*
X107786323Y-63618444D01*
X107821965Y-63645593D01*
X107844546Y-63642081D01*
X107863282Y-63607125D01*
X107873284Y-63542917D01*
X107873800Y-63523900D01*
X107880282Y-63453821D01*
X107901691Y-63425374D01*
X107911900Y-63423800D01*
X107935859Y-63437395D01*
G36*
X107424720Y-63431749D02*
G01*
X107442000Y-63450230D01*
X107423660Y-63468834D01*
X107404713Y-63465726D01*
X107363877Y-63463222D01*
X107354253Y-63486563D01*
X107379949Y-63518632D01*
X107390488Y-63525019D01*
X107434960Y-63569501D01*
X107441222Y-63622154D01*
X107416010Y-63667472D01*
X107366055Y-63689944D01*
X107321350Y-63684249D01*
X107291089Y-63660591D01*
X107303888Y-63639220D01*
X107331316Y-63636172D01*
X107373976Y-63625344D01*
X107380803Y-63595739D01*
X107349385Y-63566837D01*
X107340317Y-63563473D01*
X107297661Y-63531750D01*
X107292745Y-63487511D01*
X107321664Y-63447328D01*
X107372150Y-63428462D01*
X107424720Y-63431749D01*
G37*
X107424720Y-63431749D02*
X107442000Y-63450230D01*
X107423660Y-63468834D01*
X107404713Y-63465726D01*
X107363877Y-63463222D01*
X107354253Y-63486563D01*
X107379949Y-63518632D01*
X107390488Y-63525019D01*
X107434960Y-63569501D01*
X107441222Y-63622154D01*
X107416010Y-63667472D01*
X107366055Y-63689944D01*
X107321350Y-63684249D01*
X107291089Y-63660591D01*
X107303888Y-63639220D01*
X107331316Y-63636172D01*
X107373976Y-63625344D01*
X107380803Y-63595739D01*
X107349385Y-63566837D01*
X107340317Y-63563473D01*
X107297661Y-63531750D01*
X107292745Y-63487511D01*
X107321664Y-63447328D01*
X107372150Y-63428462D01*
X107424720Y-63431749D01*
G36*
X106787950Y-63428540D02*
G01*
X106838540Y-63436947D01*
X106863963Y-63459029D01*
X106874698Y-63509361D01*
X106878110Y-63553947D01*
X106880046Y-63626581D01*
X106869549Y-63663552D01*
X106840705Y-63679581D01*
X106826352Y-63682745D01*
X106763653Y-63687008D01*
X106729841Y-63682138D01*
X106681839Y-63648261D01*
X106672532Y-63606431D01*
X106739651Y-63606431D01*
X106752917Y-63638417D01*
X106788728Y-63645773D01*
X106790277Y-63645285D01*
X106820329Y-63614693D01*
X106827912Y-63593145D01*
X106822900Y-63556186D01*
X106786788Y-63558718D01*
X106759295Y-63573749D01*
X106739651Y-63606431D01*
X106672532Y-63606431D01*
X106671298Y-63600886D01*
X106694033Y-63555604D01*
X106745861Y-63528007D01*
X106771910Y-63525400D01*
X106819141Y-63515371D01*
X106825366Y-63493650D01*
X106794507Y-63470678D01*
X106759750Y-63467950D01*
X106716860Y-63462373D01*
X106705400Y-63447291D01*
X106727427Y-63431187D01*
X106781573Y-63428003D01*
X106787950Y-63428540D01*
G37*
X106787950Y-63428540D02*
X106838540Y-63436947D01*
X106863963Y-63459029D01*
X106874698Y-63509361D01*
X106878110Y-63553947D01*
X106880046Y-63626581D01*
X106869549Y-63663552D01*
X106840705Y-63679581D01*
X106826352Y-63682745D01*
X106763653Y-63687008D01*
X106729841Y-63682138D01*
X106681839Y-63648261D01*
X106672532Y-63606431D01*
X106739651Y-63606431D01*
X106752917Y-63638417D01*
X106788728Y-63645773D01*
X106790277Y-63645285D01*
X106820329Y-63614693D01*
X106827912Y-63593145D01*
X106822900Y-63556186D01*
X106786788Y-63558718D01*
X106759295Y-63573749D01*
X106739651Y-63606431D01*
X106672532Y-63606431D01*
X106671298Y-63600886D01*
X106694033Y-63555604D01*
X106745861Y-63528007D01*
X106771910Y-63525400D01*
X106819141Y-63515371D01*
X106825366Y-63493650D01*
X106794507Y-63470678D01*
X106759750Y-63467950D01*
X106716860Y-63462373D01*
X106705400Y-63447291D01*
X106727427Y-63431187D01*
X106781573Y-63428003D01*
X106787950Y-63428540D01*
G36*
X113944400Y-63588006D02*
G01*
X113941814Y-63681355D01*
X113931826Y-63737037D01*
X113911092Y-63768019D01*
X113895269Y-63778506D01*
X113811955Y-63801857D01*
X113747550Y-63787978D01*
X113716111Y-63765050D01*
X113728752Y-63745832D01*
X113778858Y-63737260D01*
X113795643Y-63737554D01*
X113854509Y-63731143D01*
X113886319Y-63710430D01*
X113886660Y-63709550D01*
X113874135Y-63685362D01*
X113818887Y-63677800D01*
X113748863Y-63657296D01*
X113709003Y-63602870D01*
X113706588Y-63555284D01*
X113766600Y-63555284D01*
X113772724Y-63608070D01*
X113798641Y-63624123D01*
X113823490Y-63622416D01*
X113871984Y-63598089D01*
X113889087Y-63568629D01*
X113882435Y-63512579D01*
X113849717Y-63472489D01*
X113805182Y-63465297D01*
X113802842Y-63466127D01*
X113776693Y-63499165D01*
X113766600Y-63555284D01*
X113706588Y-63555284D01*
X113705058Y-63525144D01*
X113715800Y-63487300D01*
X113740612Y-63445144D01*
X113783510Y-63427029D01*
X113842171Y-63423800D01*
X113944400Y-63423800D01*
X113944400Y-63588006D01*
G37*
X113944400Y-63588006D02*
X113941814Y-63681355D01*
X113931826Y-63737037D01*
X113911092Y-63768019D01*
X113895269Y-63778506D01*
X113811955Y-63801857D01*
X113747550Y-63787978D01*
X113716111Y-63765050D01*
X113728752Y-63745832D01*
X113778858Y-63737260D01*
X113795643Y-63737554D01*
X113854509Y-63731143D01*
X113886319Y-63710430D01*
X113886660Y-63709550D01*
X113874135Y-63685362D01*
X113818887Y-63677800D01*
X113748863Y-63657296D01*
X113709003Y-63602870D01*
X113706588Y-63555284D01*
X113766600Y-63555284D01*
X113772724Y-63608070D01*
X113798641Y-63624123D01*
X113823490Y-63622416D01*
X113871984Y-63598089D01*
X113889087Y-63568629D01*
X113882435Y-63512579D01*
X113849717Y-63472489D01*
X113805182Y-63465297D01*
X113802842Y-63466127D01*
X113776693Y-63499165D01*
X113766600Y-63555284D01*
X113706588Y-63555284D01*
X113705058Y-63525144D01*
X113715800Y-63487300D01*
X113740612Y-63445144D01*
X113783510Y-63427029D01*
X113842171Y-63423800D01*
X113944400Y-63423800D01*
X113944400Y-63588006D01*
D13*
%TO.C,R3*%
X121055159Y-85343000D02*
X121362441Y-85343000D01*
X121055159Y-84583000D02*
X121362441Y-84583000D01*
%TO.C,R6*%
X144890758Y-75321900D02*
X144416242Y-75321900D01*
X144890758Y-76366900D02*
X144416242Y-76366900D01*
%TO.C,C7*%
X119356600Y-83552420D02*
X119356600Y-83833580D01*
X118336600Y-83552420D02*
X118336600Y-83833580D01*
%TO.C,R5*%
X130570500Y-92566258D02*
X130570500Y-92091742D01*
X129525500Y-92566258D02*
X129525500Y-92091742D01*
%TO.C,R16*%
X144763258Y-88834700D02*
X144288742Y-88834700D01*
X144763258Y-89879700D02*
X144288742Y-89879700D01*
%TO.C,R15*%
X147842500Y-86978258D02*
X147842500Y-86503742D01*
X146797500Y-86978258D02*
X146797500Y-86503742D01*
%TO.C,R9*%
X140699258Y-87234500D02*
X140224742Y-87234500D01*
X140699258Y-88279500D02*
X140224742Y-88279500D01*
%TO.C,R1*%
X106278000Y-97215336D02*
X106278000Y-98669464D01*
X108098000Y-97215336D02*
X108098000Y-98669464D01*
%TO.C,U1*%
X145045000Y-85131000D02*
X142595000Y-85131000D01*
X143245000Y-88351000D02*
X145045000Y-88351000D01*
%TO.C,U3*%
X145172000Y-76876000D02*
X142722000Y-76876000D01*
X143372000Y-80096000D02*
X145172000Y-80096000D01*
%TO.C,R12*%
X107837500Y-89137258D02*
X107837500Y-88662742D01*
X106792500Y-89137258D02*
X106792500Y-88662742D01*
%TO.C,R11*%
X106792500Y-91837742D02*
X106792500Y-92312258D01*
X107837500Y-91837742D02*
X107837500Y-92312258D01*
%TO.C,C6*%
X112053200Y-88214252D02*
X112053200Y-86791748D01*
X109333200Y-88214252D02*
X109333200Y-86791748D01*
%TO.C,C5*%
X111455252Y-91477000D02*
X110032748Y-91477000D01*
X111455252Y-94197000D02*
X110032748Y-94197000D01*
%TO.C,C4*%
X115355200Y-88214252D02*
X115355200Y-86791748D01*
X112635200Y-88214252D02*
X112635200Y-86791748D01*
%TO.C,R7*%
X129046500Y-92566258D02*
X129046500Y-92091742D01*
X128001500Y-92566258D02*
X128001500Y-92091742D01*
%TO.C,R2*%
X144763258Y-90460300D02*
X144288742Y-90460300D01*
X144763258Y-91505300D02*
X144288742Y-91505300D01*
%TO.C,J10*%
X129607000Y-55940000D02*
X129607000Y-54610000D01*
X130937000Y-55940000D02*
X129607000Y-55940000D01*
X132207000Y-55940000D02*
X132207000Y-53280000D01*
X132207000Y-53280000D02*
X144967000Y-53280000D01*
X132207000Y-55940000D02*
X144967000Y-55940000D01*
X144967000Y-55940000D02*
X144967000Y-53280000D01*
%TO.C,J9*%
X127822000Y-53280000D02*
X127822000Y-54610000D01*
X126492000Y-53280000D02*
X127822000Y-53280000D01*
X125222000Y-53280000D02*
X125222000Y-55940000D01*
X125222000Y-55940000D02*
X112462000Y-55940000D01*
X125222000Y-53280000D02*
X112462000Y-53280000D01*
X112462000Y-53280000D02*
X112462000Y-55940000D01*
%TO.C,J6*%
X106175000Y-75587000D02*
X106175000Y-71987000D01*
X113055000Y-75087000D02*
X113055000Y-72487000D01*
X108255000Y-70187000D02*
X111455000Y-70187000D01*
X108255000Y-77387000D02*
X111455000Y-77387000D01*
%TO.C,J5*%
X156080000Y-59160000D02*
X156080000Y-62760000D01*
X149200000Y-59660000D02*
X149200000Y-62260000D01*
X154000000Y-64560000D02*
X150800000Y-64560000D01*
X154000000Y-57360000D02*
X150800000Y-57360000D01*
%TO.C,J4*%
X156080000Y-72622000D02*
X156080000Y-76222000D01*
X149200000Y-73122000D02*
X149200000Y-75722000D01*
X154000000Y-78022000D02*
X150800000Y-78022000D01*
X154000000Y-70822000D02*
X150800000Y-70822000D01*
%TO.C,J3*%
X156080000Y-87100000D02*
X156080000Y-90700000D01*
X149200000Y-87600000D02*
X149200000Y-90200000D01*
X154000000Y-92500000D02*
X150800000Y-92500000D01*
X154000000Y-85300000D02*
X150800000Y-85300000D01*
%TO.C,C10*%
X117041200Y-91909020D02*
X117041200Y-92190180D01*
X118061200Y-91909020D02*
X118061200Y-92190180D01*
%TO.C,C12*%
X123111800Y-83552420D02*
X123111800Y-83833580D01*
X124131800Y-83552420D02*
X124131800Y-83833580D01*
%TO.C,C13*%
X119661400Y-96228780D02*
X119661400Y-95947620D01*
X118641400Y-96228780D02*
X118641400Y-95947620D01*
%TO.C,C11*%
X121261600Y-96228780D02*
X121261600Y-95947620D01*
X120241600Y-96228780D02*
X120241600Y-95947620D01*
%TO.C,C9*%
X118666800Y-91909020D02*
X118666800Y-92190180D01*
X119686800Y-91909020D02*
X119686800Y-92190180D01*
%TO.C,C8*%
X120241600Y-91909020D02*
X120241600Y-92190180D01*
X121261600Y-91909020D02*
X121261600Y-92190180D01*
%TO.C,C2*%
X144158580Y-83437000D02*
X143877420Y-83437000D01*
X144158580Y-84457000D02*
X143877420Y-84457000D01*
%TO.C,C1*%
X146759200Y-78294620D02*
X146759200Y-78575780D01*
X147779200Y-78294620D02*
X147779200Y-78575780D01*
%TO.C,R8*%
D14*
X139934904Y-71253333D02*
X139553952Y-71520000D01*
X139934904Y-71710476D02*
X139134904Y-71710476D01*
X139134904Y-71405714D01*
X139173000Y-71329523D01*
X139211095Y-71291428D01*
X139287285Y-71253333D01*
X139401571Y-71253333D01*
X139477761Y-71291428D01*
X139515857Y-71329523D01*
X139553952Y-71405714D01*
X139553952Y-71710476D01*
X139477761Y-70796190D02*
X139439666Y-70872380D01*
X139401571Y-70910476D01*
X139325380Y-70948571D01*
X139287285Y-70948571D01*
X139211095Y-70910476D01*
X139173000Y-70872380D01*
X139134904Y-70796190D01*
X139134904Y-70643809D01*
X139173000Y-70567619D01*
X139211095Y-70529523D01*
X139287285Y-70491428D01*
X139325380Y-70491428D01*
X139401571Y-70529523D01*
X139439666Y-70567619D01*
X139477761Y-70643809D01*
X139477761Y-70796190D01*
X139515857Y-70872380D01*
X139553952Y-70910476D01*
X139630142Y-70948571D01*
X139782523Y-70948571D01*
X139858714Y-70910476D01*
X139896809Y-70872380D01*
X139934904Y-70796190D01*
X139934904Y-70643809D01*
X139896809Y-70567619D01*
X139858714Y-70529523D01*
X139782523Y-70491428D01*
X139630142Y-70491428D01*
X139553952Y-70529523D01*
X139515857Y-70567619D01*
X139477761Y-70643809D01*
%TO.C,R18*%
X135870904Y-71253285D02*
X135489952Y-71519952D01*
X135870904Y-71710428D02*
X135070904Y-71710428D01*
X135070904Y-71405666D01*
X135109000Y-71329476D01*
X135147095Y-71291380D01*
X135223285Y-71253285D01*
X135337571Y-71253285D01*
X135413761Y-71291380D01*
X135451857Y-71329476D01*
X135489952Y-71405666D01*
X135489952Y-71710428D01*
X135870904Y-70491380D02*
X135870904Y-70948523D01*
X135870904Y-70719952D02*
X135070904Y-70719952D01*
X135185190Y-70796142D01*
X135261380Y-70872333D01*
X135299476Y-70948523D01*
X135413761Y-70034238D02*
X135375666Y-70110428D01*
X135337571Y-70148523D01*
X135261380Y-70186619D01*
X135223285Y-70186619D01*
X135147095Y-70148523D01*
X135109000Y-70110428D01*
X135070904Y-70034238D01*
X135070904Y-69881857D01*
X135109000Y-69805666D01*
X135147095Y-69767571D01*
X135223285Y-69729476D01*
X135261380Y-69729476D01*
X135337571Y-69767571D01*
X135375666Y-69805666D01*
X135413761Y-69881857D01*
X135413761Y-70034238D01*
X135451857Y-70110428D01*
X135489952Y-70148523D01*
X135566142Y-70186619D01*
X135718523Y-70186619D01*
X135794714Y-70148523D01*
X135832809Y-70110428D01*
X135870904Y-70034238D01*
X135870904Y-69881857D01*
X135832809Y-69805666D01*
X135794714Y-69767571D01*
X135718523Y-69729476D01*
X135566142Y-69729476D01*
X135489952Y-69767571D01*
X135451857Y-69805666D01*
X135413761Y-69881857D01*
%TO.C,R17*%
X138029904Y-71253285D02*
X137648952Y-71519952D01*
X138029904Y-71710428D02*
X137229904Y-71710428D01*
X137229904Y-71405666D01*
X137268000Y-71329476D01*
X137306095Y-71291380D01*
X137382285Y-71253285D01*
X137496571Y-71253285D01*
X137572761Y-71291380D01*
X137610857Y-71329476D01*
X137648952Y-71405666D01*
X137648952Y-71710428D01*
X138029904Y-70491380D02*
X138029904Y-70948523D01*
X138029904Y-70719952D02*
X137229904Y-70719952D01*
X137344190Y-70796142D01*
X137420380Y-70872333D01*
X137458476Y-70948523D01*
X137229904Y-70224714D02*
X137229904Y-69691380D01*
X138029904Y-70034238D01*
%TO.C,R14*%
X118852904Y-71380285D02*
X118471952Y-71646952D01*
X118852904Y-71837428D02*
X118052904Y-71837428D01*
X118052904Y-71532666D01*
X118091000Y-71456476D01*
X118129095Y-71418380D01*
X118205285Y-71380285D01*
X118319571Y-71380285D01*
X118395761Y-71418380D01*
X118433857Y-71456476D01*
X118471952Y-71532666D01*
X118471952Y-71837428D01*
X118852904Y-70618380D02*
X118852904Y-71075523D01*
X118852904Y-70846952D02*
X118052904Y-70846952D01*
X118167190Y-70923142D01*
X118243380Y-70999333D01*
X118281476Y-71075523D01*
X118319571Y-69932666D02*
X118852904Y-69932666D01*
X118014809Y-70123142D02*
X118586238Y-70313619D01*
X118586238Y-69818380D01*
%TO.C,R13*%
X121265904Y-71380285D02*
X120884952Y-71646952D01*
X121265904Y-71837428D02*
X120465904Y-71837428D01*
X120465904Y-71532666D01*
X120504000Y-71456476D01*
X120542095Y-71418380D01*
X120618285Y-71380285D01*
X120732571Y-71380285D01*
X120808761Y-71418380D01*
X120846857Y-71456476D01*
X120884952Y-71532666D01*
X120884952Y-71837428D01*
X121265904Y-70618380D02*
X121265904Y-71075523D01*
X121265904Y-70846952D02*
X120465904Y-70846952D01*
X120580190Y-70923142D01*
X120656380Y-70999333D01*
X120694476Y-71075523D01*
X120465904Y-70351714D02*
X120465904Y-69856476D01*
X120770666Y-70123142D01*
X120770666Y-70008857D01*
X120808761Y-69932666D01*
X120846857Y-69894571D01*
X120923047Y-69856476D01*
X121113523Y-69856476D01*
X121189714Y-69894571D01*
X121227809Y-69932666D01*
X121265904Y-70008857D01*
X121265904Y-70237428D01*
X121227809Y-70313619D01*
X121189714Y-70351714D01*
%TO.C,R10*%
X119995904Y-71380285D02*
X119614952Y-71646952D01*
X119995904Y-71837428D02*
X119195904Y-71837428D01*
X119195904Y-71532666D01*
X119234000Y-71456476D01*
X119272095Y-71418380D01*
X119348285Y-71380285D01*
X119462571Y-71380285D01*
X119538761Y-71418380D01*
X119576857Y-71456476D01*
X119614952Y-71532666D01*
X119614952Y-71837428D01*
X119995904Y-70618380D02*
X119995904Y-71075523D01*
X119995904Y-70846952D02*
X119195904Y-70846952D01*
X119310190Y-70923142D01*
X119386380Y-70999333D01*
X119424476Y-71075523D01*
X119195904Y-70123142D02*
X119195904Y-70046952D01*
X119234000Y-69970761D01*
X119272095Y-69932666D01*
X119348285Y-69894571D01*
X119500666Y-69856476D01*
X119691142Y-69856476D01*
X119843523Y-69894571D01*
X119919714Y-69932666D01*
X119957809Y-69970761D01*
X119995904Y-70046952D01*
X119995904Y-70123142D01*
X119957809Y-70199333D01*
X119919714Y-70237428D01*
X119843523Y-70275523D01*
X119691142Y-70313619D01*
X119500666Y-70313619D01*
X119348285Y-70275523D01*
X119272095Y-70237428D01*
X119234000Y-70199333D01*
X119195904Y-70123142D01*
%TO.C,C14*%
X117862314Y-99320285D02*
X117900409Y-99358380D01*
X117938504Y-99472666D01*
X117938504Y-99548857D01*
X117900409Y-99663142D01*
X117824219Y-99739333D01*
X117748028Y-99777428D01*
X117595647Y-99815523D01*
X117481361Y-99815523D01*
X117328980Y-99777428D01*
X117252790Y-99739333D01*
X117176600Y-99663142D01*
X117138504Y-99548857D01*
X117138504Y-99472666D01*
X117176600Y-99358380D01*
X117214695Y-99320285D01*
X117938504Y-98558380D02*
X117938504Y-99015523D01*
X117938504Y-98786952D02*
X117138504Y-98786952D01*
X117252790Y-98863142D01*
X117328980Y-98939333D01*
X117367076Y-99015523D01*
X117405171Y-97872666D02*
X117938504Y-97872666D01*
X117100409Y-98063142D02*
X117671838Y-98253619D01*
X117671838Y-97758380D01*
%TO.C,J1*%
X110985333Y-101542904D02*
X110985333Y-102114333D01*
X110947238Y-102228619D01*
X110871047Y-102304809D01*
X110756761Y-102342904D01*
X110680571Y-102342904D01*
X111785333Y-102342904D02*
X111328190Y-102342904D01*
X111556761Y-102342904D02*
X111556761Y-101542904D01*
X111480571Y-101657190D01*
X111404380Y-101733380D01*
X111328190Y-101771476D01*
%TO.C,JP1*%
X114242933Y-89941904D02*
X114242933Y-90513333D01*
X114204838Y-90627619D01*
X114128647Y-90703809D01*
X114014361Y-90741904D01*
X113938171Y-90741904D01*
X114623885Y-90741904D02*
X114623885Y-89941904D01*
X114928647Y-89941904D01*
X115004838Y-89980000D01*
X115042933Y-90018095D01*
X115081028Y-90094285D01*
X115081028Y-90208571D01*
X115042933Y-90284761D01*
X115004838Y-90322857D01*
X114928647Y-90360952D01*
X114623885Y-90360952D01*
X115842933Y-90741904D02*
X115385790Y-90741904D01*
X115614361Y-90741904D02*
X115614361Y-89941904D01*
X115538171Y-90056190D01*
X115461980Y-90132380D01*
X115385790Y-90170476D01*
%TO.C,R4*%
X125469666Y-84181904D02*
X125203000Y-83800952D01*
X125012523Y-84181904D02*
X125012523Y-83381904D01*
X125317285Y-83381904D01*
X125393476Y-83420000D01*
X125431571Y-83458095D01*
X125469666Y-83534285D01*
X125469666Y-83648571D01*
X125431571Y-83724761D01*
X125393476Y-83762857D01*
X125317285Y-83800952D01*
X125012523Y-83800952D01*
X126155380Y-83648571D02*
X126155380Y-84181904D01*
X125964904Y-83343809D02*
X125774428Y-83915238D01*
X126269666Y-83915238D01*
%TO.C,U2*%
X120506176Y-80638704D02*
X120506176Y-81286323D01*
X120544271Y-81362514D01*
X120582366Y-81400609D01*
X120658557Y-81438704D01*
X120810938Y-81438704D01*
X120887128Y-81400609D01*
X120925223Y-81362514D01*
X120963319Y-81286323D01*
X120963319Y-80638704D01*
X121306176Y-80714895D02*
X121344271Y-80676800D01*
X121420461Y-80638704D01*
X121610938Y-80638704D01*
X121687128Y-80676800D01*
X121725223Y-80714895D01*
X121763319Y-80791085D01*
X121763319Y-80867276D01*
X121725223Y-80981561D01*
X121268080Y-81438704D01*
X121763319Y-81438704D01*
%TO.C,C3*%
X110610666Y-98750114D02*
X110572571Y-98788209D01*
X110458285Y-98826304D01*
X110382095Y-98826304D01*
X110267809Y-98788209D01*
X110191619Y-98712019D01*
X110153523Y-98635828D01*
X110115428Y-98483447D01*
X110115428Y-98369161D01*
X110153523Y-98216780D01*
X110191619Y-98140590D01*
X110267809Y-98064400D01*
X110382095Y-98026304D01*
X110458285Y-98026304D01*
X110572571Y-98064400D01*
X110610666Y-98102495D01*
X110877333Y-98026304D02*
X111372571Y-98026304D01*
X111105904Y-98331066D01*
X111220190Y-98331066D01*
X111296380Y-98369161D01*
X111334476Y-98407257D01*
X111372571Y-98483447D01*
X111372571Y-98673923D01*
X111334476Y-98750114D01*
X111296380Y-98788209D01*
X111220190Y-98826304D01*
X110991619Y-98826304D01*
X110915428Y-98788209D01*
X110877333Y-98750114D01*
%TO.C,R3*%
X121075466Y-86544104D02*
X120808800Y-86163152D01*
X120618323Y-86544104D02*
X120618323Y-85744104D01*
X120923085Y-85744104D01*
X120999276Y-85782200D01*
X121037371Y-85820295D01*
X121075466Y-85896485D01*
X121075466Y-86010771D01*
X121037371Y-86086961D01*
X120999276Y-86125057D01*
X120923085Y-86163152D01*
X120618323Y-86163152D01*
X121342133Y-85744104D02*
X121837371Y-85744104D01*
X121570704Y-86048866D01*
X121684990Y-86048866D01*
X121761180Y-86086961D01*
X121799276Y-86125057D01*
X121837371Y-86201247D01*
X121837371Y-86391723D01*
X121799276Y-86467914D01*
X121761180Y-86506009D01*
X121684990Y-86544104D01*
X121456419Y-86544104D01*
X121380228Y-86506009D01*
X121342133Y-86467914D01*
%TO.C,R6*%
X142208766Y-76257104D02*
X141942100Y-75876152D01*
X141751623Y-76257104D02*
X141751623Y-75457104D01*
X142056385Y-75457104D01*
X142132576Y-75495200D01*
X142170671Y-75533295D01*
X142208766Y-75609485D01*
X142208766Y-75723771D01*
X142170671Y-75799961D01*
X142132576Y-75838057D01*
X142056385Y-75876152D01*
X141751623Y-75876152D01*
X142894480Y-75457104D02*
X142742100Y-75457104D01*
X142665909Y-75495200D01*
X142627814Y-75533295D01*
X142551623Y-75647580D01*
X142513528Y-75799961D01*
X142513528Y-76104723D01*
X142551623Y-76180914D01*
X142589719Y-76219009D01*
X142665909Y-76257104D01*
X142818290Y-76257104D01*
X142894480Y-76219009D01*
X142932576Y-76180914D01*
X142970671Y-76104723D01*
X142970671Y-75914247D01*
X142932576Y-75838057D01*
X142894480Y-75799961D01*
X142818290Y-75761866D01*
X142665909Y-75761866D01*
X142589719Y-75799961D01*
X142551623Y-75838057D01*
X142513528Y-75914247D01*
%TO.C,C7*%
X117913114Y-83775533D02*
X117951209Y-83813628D01*
X117989304Y-83927914D01*
X117989304Y-84004104D01*
X117951209Y-84118390D01*
X117875019Y-84194580D01*
X117798828Y-84232676D01*
X117646447Y-84270771D01*
X117532161Y-84270771D01*
X117379780Y-84232676D01*
X117303590Y-84194580D01*
X117227400Y-84118390D01*
X117189304Y-84004104D01*
X117189304Y-83927914D01*
X117227400Y-83813628D01*
X117265495Y-83775533D01*
X117189304Y-83508866D02*
X117189304Y-82975533D01*
X117989304Y-83318390D01*
%TO.C,R5*%
X130409904Y-95002333D02*
X130028952Y-95269000D01*
X130409904Y-95459476D02*
X129609904Y-95459476D01*
X129609904Y-95154714D01*
X129648000Y-95078523D01*
X129686095Y-95040428D01*
X129762285Y-95002333D01*
X129876571Y-95002333D01*
X129952761Y-95040428D01*
X129990857Y-95078523D01*
X130028952Y-95154714D01*
X130028952Y-95459476D01*
X129609904Y-94278523D02*
X129609904Y-94659476D01*
X129990857Y-94697571D01*
X129952761Y-94659476D01*
X129914666Y-94583285D01*
X129914666Y-94392809D01*
X129952761Y-94316619D01*
X129990857Y-94278523D01*
X130067047Y-94240428D01*
X130257523Y-94240428D01*
X130333714Y-94278523D01*
X130371809Y-94316619D01*
X130409904Y-94392809D01*
X130409904Y-94583285D01*
X130371809Y-94659476D01*
X130333714Y-94697571D01*
%TO.C,R16*%
X141370114Y-89769904D02*
X141103447Y-89388952D01*
X140912971Y-89769904D02*
X140912971Y-88969904D01*
X141217733Y-88969904D01*
X141293923Y-89008000D01*
X141332019Y-89046095D01*
X141370114Y-89122285D01*
X141370114Y-89236571D01*
X141332019Y-89312761D01*
X141293923Y-89350857D01*
X141217733Y-89388952D01*
X140912971Y-89388952D01*
X142132019Y-89769904D02*
X141674876Y-89769904D01*
X141903447Y-89769904D02*
X141903447Y-88969904D01*
X141827257Y-89084190D01*
X141751066Y-89160380D01*
X141674876Y-89198476D01*
X142817733Y-88969904D02*
X142665352Y-88969904D01*
X142589161Y-89008000D01*
X142551066Y-89046095D01*
X142474876Y-89160380D01*
X142436780Y-89312761D01*
X142436780Y-89617523D01*
X142474876Y-89693714D01*
X142512971Y-89731809D01*
X142589161Y-89769904D01*
X142741542Y-89769904D01*
X142817733Y-89731809D01*
X142855828Y-89693714D01*
X142893923Y-89617523D01*
X142893923Y-89427047D01*
X142855828Y-89350857D01*
X142817733Y-89312761D01*
X142741542Y-89274666D01*
X142589161Y-89274666D01*
X142512971Y-89312761D01*
X142474876Y-89350857D01*
X142436780Y-89427047D01*
%TO.C,R15*%
X147732704Y-90023885D02*
X147351752Y-90290552D01*
X147732704Y-90481028D02*
X146932704Y-90481028D01*
X146932704Y-90176266D01*
X146970800Y-90100076D01*
X147008895Y-90061980D01*
X147085085Y-90023885D01*
X147199371Y-90023885D01*
X147275561Y-90061980D01*
X147313657Y-90100076D01*
X147351752Y-90176266D01*
X147351752Y-90481028D01*
X147732704Y-89261980D02*
X147732704Y-89719123D01*
X147732704Y-89490552D02*
X146932704Y-89490552D01*
X147046990Y-89566742D01*
X147123180Y-89642933D01*
X147161276Y-89719123D01*
X146932704Y-88538171D02*
X146932704Y-88919123D01*
X147313657Y-88957219D01*
X147275561Y-88919123D01*
X147237466Y-88842933D01*
X147237466Y-88652457D01*
X147275561Y-88576266D01*
X147313657Y-88538171D01*
X147389847Y-88500076D01*
X147580323Y-88500076D01*
X147656514Y-88538171D01*
X147694609Y-88576266D01*
X147732704Y-88652457D01*
X147732704Y-88842933D01*
X147694609Y-88919123D01*
X147656514Y-88957219D01*
%TO.C,R9*%
X138042666Y-88093504D02*
X137776000Y-87712552D01*
X137585523Y-88093504D02*
X137585523Y-87293504D01*
X137890285Y-87293504D01*
X137966476Y-87331600D01*
X138004571Y-87369695D01*
X138042666Y-87445885D01*
X138042666Y-87560171D01*
X138004571Y-87636361D01*
X137966476Y-87674457D01*
X137890285Y-87712552D01*
X137585523Y-87712552D01*
X138423619Y-88093504D02*
X138576000Y-88093504D01*
X138652190Y-88055409D01*
X138690285Y-88017314D01*
X138766476Y-87903028D01*
X138804571Y-87750647D01*
X138804571Y-87445885D01*
X138766476Y-87369695D01*
X138728380Y-87331600D01*
X138652190Y-87293504D01*
X138499809Y-87293504D01*
X138423619Y-87331600D01*
X138385523Y-87369695D01*
X138347428Y-87445885D01*
X138347428Y-87636361D01*
X138385523Y-87712552D01*
X138423619Y-87750647D01*
X138499809Y-87788742D01*
X138652190Y-87788742D01*
X138728380Y-87750647D01*
X138766476Y-87712552D01*
X138804571Y-87636361D01*
%TO.C,R1*%
X106914904Y-100971333D02*
X106533952Y-101238000D01*
X106914904Y-101428476D02*
X106114904Y-101428476D01*
X106114904Y-101123714D01*
X106153000Y-101047523D01*
X106191095Y-101009428D01*
X106267285Y-100971333D01*
X106381571Y-100971333D01*
X106457761Y-101009428D01*
X106495857Y-101047523D01*
X106533952Y-101123714D01*
X106533952Y-101428476D01*
X106914904Y-100209428D02*
X106914904Y-100666571D01*
X106914904Y-100438000D02*
X106114904Y-100438000D01*
X106229190Y-100514190D01*
X106305380Y-100590380D01*
X106343476Y-100666571D01*
%TO.C,U1*%
X140868476Y-85464704D02*
X140868476Y-86112323D01*
X140906571Y-86188514D01*
X140944666Y-86226609D01*
X141020857Y-86264704D01*
X141173238Y-86264704D01*
X141249428Y-86226609D01*
X141287523Y-86188514D01*
X141325619Y-86112323D01*
X141325619Y-85464704D01*
X142125619Y-86264704D02*
X141668476Y-86264704D01*
X141897047Y-86264704D02*
X141897047Y-85464704D01*
X141820857Y-85578990D01*
X141744666Y-85655180D01*
X141668476Y-85693276D01*
%TO.C,U3*%
X140716076Y-77870104D02*
X140716076Y-78517723D01*
X140754171Y-78593914D01*
X140792266Y-78632009D01*
X140868457Y-78670104D01*
X141020838Y-78670104D01*
X141097028Y-78632009D01*
X141135123Y-78593914D01*
X141173219Y-78517723D01*
X141173219Y-77870104D01*
X141477980Y-77870104D02*
X141973219Y-77870104D01*
X141706552Y-78174866D01*
X141820838Y-78174866D01*
X141897028Y-78212961D01*
X141935123Y-78251057D01*
X141973219Y-78327247D01*
X141973219Y-78517723D01*
X141935123Y-78593914D01*
X141897028Y-78632009D01*
X141820838Y-78670104D01*
X141592266Y-78670104D01*
X141516076Y-78632009D01*
X141477980Y-78593914D01*
%TO.C,R12*%
X107651504Y-86721885D02*
X107270552Y-86988552D01*
X107651504Y-87179028D02*
X106851504Y-87179028D01*
X106851504Y-86874266D01*
X106889600Y-86798076D01*
X106927695Y-86759980D01*
X107003885Y-86721885D01*
X107118171Y-86721885D01*
X107194361Y-86759980D01*
X107232457Y-86798076D01*
X107270552Y-86874266D01*
X107270552Y-87179028D01*
X107651504Y-85959980D02*
X107651504Y-86417123D01*
X107651504Y-86188552D02*
X106851504Y-86188552D01*
X106965790Y-86264742D01*
X107041980Y-86340933D01*
X107080076Y-86417123D01*
X106927695Y-85655219D02*
X106889600Y-85617123D01*
X106851504Y-85540933D01*
X106851504Y-85350457D01*
X106889600Y-85274266D01*
X106927695Y-85236171D01*
X107003885Y-85198076D01*
X107080076Y-85198076D01*
X107194361Y-85236171D01*
X107651504Y-85693314D01*
X107651504Y-85198076D01*
%TO.C,R11*%
X107600704Y-95103885D02*
X107219752Y-95370552D01*
X107600704Y-95561028D02*
X106800704Y-95561028D01*
X106800704Y-95256266D01*
X106838800Y-95180076D01*
X106876895Y-95141980D01*
X106953085Y-95103885D01*
X107067371Y-95103885D01*
X107143561Y-95141980D01*
X107181657Y-95180076D01*
X107219752Y-95256266D01*
X107219752Y-95561028D01*
X107600704Y-94341980D02*
X107600704Y-94799123D01*
X107600704Y-94570552D02*
X106800704Y-94570552D01*
X106914990Y-94646742D01*
X106991180Y-94722933D01*
X107029276Y-94799123D01*
X107600704Y-93580076D02*
X107600704Y-94037219D01*
X107600704Y-93808647D02*
X106800704Y-93808647D01*
X106914990Y-93884838D01*
X106991180Y-93961028D01*
X107029276Y-94037219D01*
%TO.C,C6*%
X108870714Y-86112333D02*
X108908809Y-86150428D01*
X108946904Y-86264714D01*
X108946904Y-86340904D01*
X108908809Y-86455190D01*
X108832619Y-86531380D01*
X108756428Y-86569476D01*
X108604047Y-86607571D01*
X108489761Y-86607571D01*
X108337380Y-86569476D01*
X108261190Y-86531380D01*
X108185000Y-86455190D01*
X108146904Y-86340904D01*
X108146904Y-86264714D01*
X108185000Y-86150428D01*
X108223095Y-86112333D01*
X108146904Y-85426619D02*
X108146904Y-85579000D01*
X108185000Y-85655190D01*
X108223095Y-85693285D01*
X108337380Y-85769476D01*
X108489761Y-85807571D01*
X108794523Y-85807571D01*
X108870714Y-85769476D01*
X108908809Y-85731380D01*
X108946904Y-85655190D01*
X108946904Y-85502809D01*
X108908809Y-85426619D01*
X108870714Y-85388523D01*
X108794523Y-85350428D01*
X108604047Y-85350428D01*
X108527857Y-85388523D01*
X108489761Y-85426619D01*
X108451666Y-85502809D01*
X108451666Y-85655190D01*
X108489761Y-85731380D01*
X108527857Y-85769476D01*
X108604047Y-85807571D01*
%TO.C,C5*%
X110610666Y-91065314D02*
X110572571Y-91103409D01*
X110458285Y-91141504D01*
X110382095Y-91141504D01*
X110267809Y-91103409D01*
X110191619Y-91027219D01*
X110153523Y-90951028D01*
X110115428Y-90798647D01*
X110115428Y-90684361D01*
X110153523Y-90531980D01*
X110191619Y-90455790D01*
X110267809Y-90379600D01*
X110382095Y-90341504D01*
X110458285Y-90341504D01*
X110572571Y-90379600D01*
X110610666Y-90417695D01*
X111334476Y-90341504D02*
X110953523Y-90341504D01*
X110915428Y-90722457D01*
X110953523Y-90684361D01*
X111029714Y-90646266D01*
X111220190Y-90646266D01*
X111296380Y-90684361D01*
X111334476Y-90722457D01*
X111372571Y-90798647D01*
X111372571Y-90989123D01*
X111334476Y-91065314D01*
X111296380Y-91103409D01*
X111220190Y-91141504D01*
X111029714Y-91141504D01*
X110953523Y-91103409D01*
X110915428Y-91065314D01*
%TO.C,C4*%
X116490714Y-88271333D02*
X116528809Y-88309428D01*
X116566904Y-88423714D01*
X116566904Y-88499904D01*
X116528809Y-88614190D01*
X116452619Y-88690380D01*
X116376428Y-88728476D01*
X116224047Y-88766571D01*
X116109761Y-88766571D01*
X115957380Y-88728476D01*
X115881190Y-88690380D01*
X115805000Y-88614190D01*
X115766904Y-88499904D01*
X115766904Y-88423714D01*
X115805000Y-88309428D01*
X115843095Y-88271333D01*
X116033571Y-87585619D02*
X116566904Y-87585619D01*
X115728809Y-87776095D02*
X116300238Y-87966571D01*
X116300238Y-87471333D01*
%TO.C,R7*%
X128885904Y-95002333D02*
X128504952Y-95269000D01*
X128885904Y-95459476D02*
X128085904Y-95459476D01*
X128085904Y-95154714D01*
X128124000Y-95078523D01*
X128162095Y-95040428D01*
X128238285Y-95002333D01*
X128352571Y-95002333D01*
X128428761Y-95040428D01*
X128466857Y-95078523D01*
X128504952Y-95154714D01*
X128504952Y-95459476D01*
X128085904Y-94735666D02*
X128085904Y-94202333D01*
X128885904Y-94545190D01*
%TO.C,R2*%
X141979666Y-91395504D02*
X141713000Y-91014552D01*
X141522523Y-91395504D02*
X141522523Y-90595504D01*
X141827285Y-90595504D01*
X141903476Y-90633600D01*
X141941571Y-90671695D01*
X141979666Y-90747885D01*
X141979666Y-90862171D01*
X141941571Y-90938361D01*
X141903476Y-90976457D01*
X141827285Y-91014552D01*
X141522523Y-91014552D01*
X142284428Y-90671695D02*
X142322523Y-90633600D01*
X142398714Y-90595504D01*
X142589190Y-90595504D01*
X142665380Y-90633600D01*
X142703476Y-90671695D01*
X142741571Y-90747885D01*
X142741571Y-90824076D01*
X142703476Y-90938361D01*
X142246333Y-91395504D01*
X142741571Y-91395504D01*
%TO.C,J10*%
X128168904Y-55257619D02*
X128740333Y-55257619D01*
X128854619Y-55295714D01*
X128930809Y-55371904D01*
X128968904Y-55486190D01*
X128968904Y-55562380D01*
X128968904Y-54457619D02*
X128968904Y-54914761D01*
X128968904Y-54686190D02*
X128168904Y-54686190D01*
X128283190Y-54762380D01*
X128359380Y-54838571D01*
X128397476Y-54914761D01*
X128168904Y-53962380D02*
X128168904Y-53886190D01*
X128207000Y-53810000D01*
X128245095Y-53771904D01*
X128321285Y-53733809D01*
X128473666Y-53695714D01*
X128664142Y-53695714D01*
X128816523Y-53733809D01*
X128892714Y-53771904D01*
X128930809Y-53810000D01*
X128968904Y-53886190D01*
X128968904Y-53962380D01*
X128930809Y-54038571D01*
X128892714Y-54076666D01*
X128816523Y-54114761D01*
X128664142Y-54152857D01*
X128473666Y-54152857D01*
X128321285Y-54114761D01*
X128245095Y-54076666D01*
X128207000Y-54038571D01*
X128168904Y-53962380D01*
%TO.C,J9*%
X128383904Y-54876666D02*
X128955333Y-54876666D01*
X129069619Y-54914761D01*
X129145809Y-54990952D01*
X129183904Y-55105238D01*
X129183904Y-55181428D01*
X129183904Y-54457619D02*
X129183904Y-54305238D01*
X129145809Y-54229047D01*
X129107714Y-54190952D01*
X128993428Y-54114761D01*
X128841047Y-54076666D01*
X128536285Y-54076666D01*
X128460095Y-54114761D01*
X128422000Y-54152857D01*
X128383904Y-54229047D01*
X128383904Y-54381428D01*
X128422000Y-54457619D01*
X128460095Y-54495714D01*
X128536285Y-54533809D01*
X128726761Y-54533809D01*
X128802952Y-54495714D01*
X128841047Y-54457619D01*
X128879142Y-54381428D01*
X128879142Y-54229047D01*
X128841047Y-54152857D01*
X128802952Y-54114761D01*
X128726761Y-54076666D01*
%TO.C,J6*%
X114541333Y-73348904D02*
X114541333Y-73920333D01*
X114503238Y-74034619D01*
X114427047Y-74110809D01*
X114312761Y-74148904D01*
X114236571Y-74148904D01*
X115265142Y-73348904D02*
X115112761Y-73348904D01*
X115036571Y-73387000D01*
X114998476Y-73425095D01*
X114922285Y-73539380D01*
X114884190Y-73691761D01*
X114884190Y-73996523D01*
X114922285Y-74072714D01*
X114960380Y-74110809D01*
X115036571Y-74148904D01*
X115188952Y-74148904D01*
X115265142Y-74110809D01*
X115303238Y-74072714D01*
X115341333Y-73996523D01*
X115341333Y-73806047D01*
X115303238Y-73729857D01*
X115265142Y-73691761D01*
X115188952Y-73653666D01*
X115036571Y-73653666D01*
X114960380Y-73691761D01*
X114922285Y-73729857D01*
X114884190Y-73806047D01*
%TO.C,J5*%
X152133333Y-65093904D02*
X152133333Y-65665333D01*
X152095238Y-65779619D01*
X152019047Y-65855809D01*
X151904761Y-65893904D01*
X151828571Y-65893904D01*
X152895238Y-65093904D02*
X152514285Y-65093904D01*
X152476190Y-65474857D01*
X152514285Y-65436761D01*
X152590476Y-65398666D01*
X152780952Y-65398666D01*
X152857142Y-65436761D01*
X152895238Y-65474857D01*
X152933333Y-65551047D01*
X152933333Y-65741523D01*
X152895238Y-65817714D01*
X152857142Y-65855809D01*
X152780952Y-65893904D01*
X152590476Y-65893904D01*
X152514285Y-65855809D01*
X152476190Y-65817714D01*
%TO.C,J4*%
X152133333Y-69538904D02*
X152133333Y-70110333D01*
X152095238Y-70224619D01*
X152019047Y-70300809D01*
X151904761Y-70338904D01*
X151828571Y-70338904D01*
X152857142Y-69805571D02*
X152857142Y-70338904D01*
X152666666Y-69500809D02*
X152476190Y-70072238D01*
X152971428Y-70072238D01*
%TO.C,J3*%
X152133333Y-83561904D02*
X152133333Y-84133333D01*
X152095238Y-84247619D01*
X152019047Y-84323809D01*
X151904761Y-84361904D01*
X151828571Y-84361904D01*
X152438095Y-83561904D02*
X152933333Y-83561904D01*
X152666666Y-83866666D01*
X152780952Y-83866666D01*
X152857142Y-83904761D01*
X152895238Y-83942857D01*
X152933333Y-84019047D01*
X152933333Y-84209523D01*
X152895238Y-84285714D01*
X152857142Y-84323809D01*
X152780952Y-84361904D01*
X152552380Y-84361904D01*
X152476190Y-84323809D01*
X152438095Y-84285714D01*
%TO.C,C10*%
X117836914Y-89719085D02*
X117875009Y-89757180D01*
X117913104Y-89871466D01*
X117913104Y-89947657D01*
X117875009Y-90061942D01*
X117798819Y-90138133D01*
X117722628Y-90176228D01*
X117570247Y-90214323D01*
X117455961Y-90214323D01*
X117303580Y-90176228D01*
X117227390Y-90138133D01*
X117151200Y-90061942D01*
X117113104Y-89947657D01*
X117113104Y-89871466D01*
X117151200Y-89757180D01*
X117189295Y-89719085D01*
X117913104Y-88957180D02*
X117913104Y-89414323D01*
X117913104Y-89185752D02*
X117113104Y-89185752D01*
X117227390Y-89261942D01*
X117303580Y-89338133D01*
X117341676Y-89414323D01*
X117113104Y-88461942D02*
X117113104Y-88385752D01*
X117151200Y-88309561D01*
X117189295Y-88271466D01*
X117265485Y-88233371D01*
X117417866Y-88195276D01*
X117608342Y-88195276D01*
X117760723Y-88233371D01*
X117836914Y-88271466D01*
X117875009Y-88309561D01*
X117913104Y-88385752D01*
X117913104Y-88461942D01*
X117875009Y-88538133D01*
X117836914Y-88576228D01*
X117760723Y-88614323D01*
X117608342Y-88652419D01*
X117417866Y-88652419D01*
X117265485Y-88614323D01*
X117189295Y-88576228D01*
X117151200Y-88538133D01*
X117113104Y-88461942D01*
%TO.C,C12*%
X123983714Y-86925085D02*
X124021809Y-86963180D01*
X124059904Y-87077466D01*
X124059904Y-87153657D01*
X124021809Y-87267942D01*
X123945619Y-87344133D01*
X123869428Y-87382228D01*
X123717047Y-87420323D01*
X123602761Y-87420323D01*
X123450380Y-87382228D01*
X123374190Y-87344133D01*
X123298000Y-87267942D01*
X123259904Y-87153657D01*
X123259904Y-87077466D01*
X123298000Y-86963180D01*
X123336095Y-86925085D01*
X124059904Y-86163180D02*
X124059904Y-86620323D01*
X124059904Y-86391752D02*
X123259904Y-86391752D01*
X123374190Y-86467942D01*
X123450380Y-86544133D01*
X123488476Y-86620323D01*
X123336095Y-85858419D02*
X123298000Y-85820323D01*
X123259904Y-85744133D01*
X123259904Y-85553657D01*
X123298000Y-85477466D01*
X123336095Y-85439371D01*
X123412285Y-85401276D01*
X123488476Y-85401276D01*
X123602761Y-85439371D01*
X124059904Y-85896514D01*
X124059904Y-85401276D01*
%TO.C,C13*%
X119538714Y-99320285D02*
X119576809Y-99358380D01*
X119614904Y-99472666D01*
X119614904Y-99548857D01*
X119576809Y-99663142D01*
X119500619Y-99739333D01*
X119424428Y-99777428D01*
X119272047Y-99815523D01*
X119157761Y-99815523D01*
X119005380Y-99777428D01*
X118929190Y-99739333D01*
X118853000Y-99663142D01*
X118814904Y-99548857D01*
X118814904Y-99472666D01*
X118853000Y-99358380D01*
X118891095Y-99320285D01*
X119614904Y-98558380D02*
X119614904Y-99015523D01*
X119614904Y-98786952D02*
X118814904Y-98786952D01*
X118929190Y-98863142D01*
X119005380Y-98939333D01*
X119043476Y-99015523D01*
X118814904Y-98291714D02*
X118814904Y-97796476D01*
X119119666Y-98063142D01*
X119119666Y-97948857D01*
X119157761Y-97872666D01*
X119195857Y-97834571D01*
X119272047Y-97796476D01*
X119462523Y-97796476D01*
X119538714Y-97834571D01*
X119576809Y-97872666D01*
X119614904Y-97948857D01*
X119614904Y-98177428D01*
X119576809Y-98253619D01*
X119538714Y-98291714D01*
%TO.C,C11*%
X121037314Y-99269485D02*
X121075409Y-99307580D01*
X121113504Y-99421866D01*
X121113504Y-99498057D01*
X121075409Y-99612342D01*
X120999219Y-99688533D01*
X120923028Y-99726628D01*
X120770647Y-99764723D01*
X120656361Y-99764723D01*
X120503980Y-99726628D01*
X120427790Y-99688533D01*
X120351600Y-99612342D01*
X120313504Y-99498057D01*
X120313504Y-99421866D01*
X120351600Y-99307580D01*
X120389695Y-99269485D01*
X121113504Y-98507580D02*
X121113504Y-98964723D01*
X121113504Y-98736152D02*
X120313504Y-98736152D01*
X120427790Y-98812342D01*
X120503980Y-98888533D01*
X120542076Y-98964723D01*
X121113504Y-97745676D02*
X121113504Y-98202819D01*
X121113504Y-97974247D02*
X120313504Y-97974247D01*
X120427790Y-98050438D01*
X120503980Y-98126628D01*
X120542076Y-98202819D01*
%TO.C,C9*%
X119462514Y-89744533D02*
X119500609Y-89782628D01*
X119538704Y-89896914D01*
X119538704Y-89973104D01*
X119500609Y-90087390D01*
X119424419Y-90163580D01*
X119348228Y-90201676D01*
X119195847Y-90239771D01*
X119081561Y-90239771D01*
X118929180Y-90201676D01*
X118852990Y-90163580D01*
X118776800Y-90087390D01*
X118738704Y-89973104D01*
X118738704Y-89896914D01*
X118776800Y-89782628D01*
X118814895Y-89744533D01*
X119538704Y-89363580D02*
X119538704Y-89211200D01*
X119500609Y-89135009D01*
X119462514Y-89096914D01*
X119348228Y-89020723D01*
X119195847Y-88982628D01*
X118891085Y-88982628D01*
X118814895Y-89020723D01*
X118776800Y-89058819D01*
X118738704Y-89135009D01*
X118738704Y-89287390D01*
X118776800Y-89363580D01*
X118814895Y-89401676D01*
X118891085Y-89439771D01*
X119081561Y-89439771D01*
X119157752Y-89401676D01*
X119195847Y-89363580D01*
X119233942Y-89287390D01*
X119233942Y-89135009D01*
X119195847Y-89058819D01*
X119157752Y-89020723D01*
X119081561Y-88982628D01*
%TO.C,C8*%
X121037314Y-89693733D02*
X121075409Y-89731828D01*
X121113504Y-89846114D01*
X121113504Y-89922304D01*
X121075409Y-90036590D01*
X120999219Y-90112780D01*
X120923028Y-90150876D01*
X120770647Y-90188971D01*
X120656361Y-90188971D01*
X120503980Y-90150876D01*
X120427790Y-90112780D01*
X120351600Y-90036590D01*
X120313504Y-89922304D01*
X120313504Y-89846114D01*
X120351600Y-89731828D01*
X120389695Y-89693733D01*
X120656361Y-89236590D02*
X120618266Y-89312780D01*
X120580171Y-89350876D01*
X120503980Y-89388971D01*
X120465885Y-89388971D01*
X120389695Y-89350876D01*
X120351600Y-89312780D01*
X120313504Y-89236590D01*
X120313504Y-89084209D01*
X120351600Y-89008019D01*
X120389695Y-88969923D01*
X120465885Y-88931828D01*
X120503980Y-88931828D01*
X120580171Y-88969923D01*
X120618266Y-89008019D01*
X120656361Y-89084209D01*
X120656361Y-89236590D01*
X120694457Y-89312780D01*
X120732552Y-89350876D01*
X120808742Y-89388971D01*
X120961123Y-89388971D01*
X121037314Y-89350876D01*
X121075409Y-89312780D01*
X121113504Y-89236590D01*
X121113504Y-89084209D01*
X121075409Y-89008019D01*
X121037314Y-88969923D01*
X120961123Y-88931828D01*
X120808742Y-88931828D01*
X120732552Y-88969923D01*
X120694457Y-89008019D01*
X120656361Y-89084209D01*
%TO.C,C2*%
X141395466Y-84207314D02*
X141357371Y-84245409D01*
X141243085Y-84283504D01*
X141166895Y-84283504D01*
X141052609Y-84245409D01*
X140976419Y-84169219D01*
X140938323Y-84093028D01*
X140900228Y-83940647D01*
X140900228Y-83826361D01*
X140938323Y-83673980D01*
X140976419Y-83597790D01*
X141052609Y-83521600D01*
X141166895Y-83483504D01*
X141243085Y-83483504D01*
X141357371Y-83521600D01*
X141395466Y-83559695D01*
X141700228Y-83559695D02*
X141738323Y-83521600D01*
X141814514Y-83483504D01*
X142004990Y-83483504D01*
X142081180Y-83521600D01*
X142119276Y-83559695D01*
X142157371Y-83635885D01*
X142157371Y-83712076D01*
X142119276Y-83826361D01*
X141662133Y-84283504D01*
X142157371Y-84283504D01*
%TO.C,C1*%
X147605714Y-80905333D02*
X147643809Y-80943428D01*
X147681904Y-81057714D01*
X147681904Y-81133904D01*
X147643809Y-81248190D01*
X147567619Y-81324380D01*
X147491428Y-81362476D01*
X147339047Y-81400571D01*
X147224761Y-81400571D01*
X147072380Y-81362476D01*
X146996190Y-81324380D01*
X146920000Y-81248190D01*
X146881904Y-81133904D01*
X146881904Y-81057714D01*
X146920000Y-80943428D01*
X146958095Y-80905333D01*
X147681904Y-80143428D02*
X147681904Y-80600571D01*
X147681904Y-80372000D02*
X146881904Y-80372000D01*
X146996190Y-80448190D01*
X147072380Y-80524380D01*
X147110476Y-80600571D01*
%TD*%
%LPC*%
D11*
%TO.C,U4*%
G36*
X121870000Y-76170000D02*
G01*
X118670000Y-76170000D01*
X118670000Y-75320000D01*
X121870000Y-75320000D01*
X121870000Y-76170000D01*
G37*
X121870000Y-76170000D02*
X118670000Y-76170000D01*
X118670000Y-75320000D01*
X121870000Y-75320000D01*
X121870000Y-76170000D01*
G36*
X137720000Y-76170000D02*
G01*
X134520000Y-76170000D01*
X134520000Y-75320000D01*
X137720000Y-75320000D01*
X137720000Y-76170000D01*
G37*
X137720000Y-76170000D02*
X134520000Y-76170000D01*
X134520000Y-75320000D01*
X137720000Y-75320000D01*
X137720000Y-76170000D01*
G36*
X124820000Y-81370000D02*
G01*
X124420000Y-81370000D01*
X124420000Y-79120000D01*
X124820000Y-79120000D01*
X124820000Y-81370000D01*
G37*
X124820000Y-81370000D02*
X124420000Y-81370000D01*
X124420000Y-79120000D01*
X124820000Y-79120000D01*
X124820000Y-81370000D01*
G36*
X124820000Y-78520000D02*
G01*
X123920000Y-78520000D01*
X123920000Y-77720000D01*
X124820000Y-77720000D01*
X124820000Y-78520000D01*
G37*
X124820000Y-78520000D02*
X123920000Y-78520000D01*
X123920000Y-77720000D01*
X124820000Y-77720000D01*
X124820000Y-78520000D01*
G36*
X131820000Y-78520000D02*
G01*
X129820000Y-78520000D01*
X129820000Y-77720000D01*
X131820000Y-77720000D01*
X131820000Y-78520000D01*
G37*
X131820000Y-78520000D02*
X129820000Y-78520000D01*
X129820000Y-77720000D01*
X131820000Y-77720000D01*
X131820000Y-78520000D01*
G36*
X131770000Y-79920000D02*
G01*
X129970000Y-79920000D01*
X129970000Y-79120000D01*
X131770000Y-79120000D01*
X131770000Y-79920000D01*
G37*
X131770000Y-79920000D02*
X129970000Y-79920000D01*
X129970000Y-79120000D01*
X131770000Y-79120000D01*
X131770000Y-79920000D01*
G36*
X131970000Y-81370000D02*
G01*
X129870000Y-81370000D01*
X129870000Y-80570000D01*
X131970000Y-80570000D01*
X131970000Y-81370000D01*
G37*
X131970000Y-81370000D02*
X129870000Y-81370000D01*
X129870000Y-80570000D01*
X131970000Y-80570000D01*
X131970000Y-81370000D01*
G36*
X128670000Y-81370000D02*
G01*
X127170000Y-81370000D01*
X127170000Y-80570000D01*
X128670000Y-80570000D01*
X128670000Y-81370000D01*
G37*
X128670000Y-81370000D02*
X127170000Y-81370000D01*
X127170000Y-80570000D01*
X128670000Y-80570000D01*
X128670000Y-81370000D01*
G36*
X128470000Y-79920000D02*
G01*
X126670000Y-79920000D01*
X126670000Y-79120000D01*
X128470000Y-79120000D01*
X128470000Y-79920000D01*
G37*
X128470000Y-79920000D02*
X126670000Y-79920000D01*
X126670000Y-79120000D01*
X128470000Y-79120000D01*
X128470000Y-79920000D01*
G36*
X128570000Y-78520000D02*
G01*
X127070000Y-78520000D01*
X127070000Y-77720000D01*
X128570000Y-77720000D01*
X128570000Y-78520000D01*
G37*
X128570000Y-78520000D02*
X127070000Y-78520000D01*
X127070000Y-77720000D01*
X128570000Y-77720000D01*
X128570000Y-78520000D01*
G36*
X134020000Y-77220000D02*
G01*
X122520000Y-77220000D01*
X122520000Y-65020000D01*
X134020000Y-65020000D01*
X134020000Y-77220000D01*
G37*
X134020000Y-77220000D02*
X122520000Y-77220000D01*
X122520000Y-65020000D01*
X134020000Y-65020000D01*
X134020000Y-77220000D01*
G36*
X133520000Y-78520000D02*
G01*
X132370000Y-78520000D01*
X132370000Y-77720000D01*
X133520000Y-77720000D01*
X133520000Y-78520000D01*
G37*
X133520000Y-78520000D02*
X132370000Y-78520000D01*
X132370000Y-77720000D01*
X133520000Y-77720000D01*
X133520000Y-78520000D01*
%TD*%
D16*
%TO.C,H3*%
X108572000Y-54580000D03*
X153572000Y-54580000D03*
X108572000Y-81580000D03*
X153572000Y-81580000D03*
%TD*%
D17*
%TO.C,H2*%
X137160000Y-65024000D03*
%TD*%
%TO.C,H1*%
X119380000Y-65024000D03*
%TD*%
%TO.C,R8*%
G36*
G01*
X139388000Y-73265000D02*
X139758000Y-73265000D01*
G75*
G02*
X139893000Y-73400000I0J-135000D01*
G01*
X139893000Y-73670000D01*
G75*
G02*
X139758000Y-73805000I-135000J0D01*
G01*
X139388000Y-73805000D01*
G75*
G02*
X139253000Y-73670000I0J135000D01*
G01*
X139253000Y-73400000D01*
G75*
G02*
X139388000Y-73265000I135000J0D01*
G01*
G37*
G36*
G01*
X139388000Y-72245000D02*
X139758000Y-72245000D01*
G75*
G02*
X139893000Y-72380000I0J-135000D01*
G01*
X139893000Y-72650000D01*
G75*
G02*
X139758000Y-72785000I-135000J0D01*
G01*
X139388000Y-72785000D01*
G75*
G02*
X139253000Y-72650000I0J135000D01*
G01*
X139253000Y-72380000D01*
G75*
G02*
X139388000Y-72245000I135000J0D01*
G01*
G37*
%TD*%
%TO.C,R18*%
G36*
G01*
X135324000Y-73265000D02*
X135694000Y-73265000D01*
G75*
G02*
X135829000Y-73400000I0J-135000D01*
G01*
X135829000Y-73670000D01*
G75*
G02*
X135694000Y-73805000I-135000J0D01*
G01*
X135324000Y-73805000D01*
G75*
G02*
X135189000Y-73670000I0J135000D01*
G01*
X135189000Y-73400000D01*
G75*
G02*
X135324000Y-73265000I135000J0D01*
G01*
G37*
G36*
G01*
X135324000Y-72245000D02*
X135694000Y-72245000D01*
G75*
G02*
X135829000Y-72380000I0J-135000D01*
G01*
X135829000Y-72650000D01*
G75*
G02*
X135694000Y-72785000I-135000J0D01*
G01*
X135324000Y-72785000D01*
G75*
G02*
X135189000Y-72650000I0J135000D01*
G01*
X135189000Y-72380000D01*
G75*
G02*
X135324000Y-72245000I135000J0D01*
G01*
G37*
%TD*%
%TO.C,R17*%
G36*
G01*
X137483000Y-73265000D02*
X137853000Y-73265000D01*
G75*
G02*
X137988000Y-73400000I0J-135000D01*
G01*
X137988000Y-73670000D01*
G75*
G02*
X137853000Y-73805000I-135000J0D01*
G01*
X137483000Y-73805000D01*
G75*
G02*
X137348000Y-73670000I0J135000D01*
G01*
X137348000Y-73400000D01*
G75*
G02*
X137483000Y-73265000I135000J0D01*
G01*
G37*
G36*
G01*
X137483000Y-72245000D02*
X137853000Y-72245000D01*
G75*
G02*
X137988000Y-72380000I0J-135000D01*
G01*
X137988000Y-72650000D01*
G75*
G02*
X137853000Y-72785000I-135000J0D01*
G01*
X137483000Y-72785000D01*
G75*
G02*
X137348000Y-72650000I0J135000D01*
G01*
X137348000Y-72380000D01*
G75*
G02*
X137483000Y-72245000I135000J0D01*
G01*
G37*
%TD*%
%TO.C,R14*%
G36*
G01*
X118676000Y-73039000D02*
X118306000Y-73039000D01*
G75*
G02*
X118171000Y-72904000I0J135000D01*
G01*
X118171000Y-72634000D01*
G75*
G02*
X118306000Y-72499000I135000J0D01*
G01*
X118676000Y-72499000D01*
G75*
G02*
X118811000Y-72634000I0J-135000D01*
G01*
X118811000Y-72904000D01*
G75*
G02*
X118676000Y-73039000I-135000J0D01*
G01*
G37*
G36*
G01*
X118676000Y-74059000D02*
X118306000Y-74059000D01*
G75*
G02*
X118171000Y-73924000I0J135000D01*
G01*
X118171000Y-73654000D01*
G75*
G02*
X118306000Y-73519000I135000J0D01*
G01*
X118676000Y-73519000D01*
G75*
G02*
X118811000Y-73654000I0J-135000D01*
G01*
X118811000Y-73924000D01*
G75*
G02*
X118676000Y-74059000I-135000J0D01*
G01*
G37*
%TD*%
%TO.C,R13*%
G36*
G01*
X120962000Y-73041000D02*
X120592000Y-73041000D01*
G75*
G02*
X120457000Y-72906000I0J135000D01*
G01*
X120457000Y-72636000D01*
G75*
G02*
X120592000Y-72501000I135000J0D01*
G01*
X120962000Y-72501000D01*
G75*
G02*
X121097000Y-72636000I0J-135000D01*
G01*
X121097000Y-72906000D01*
G75*
G02*
X120962000Y-73041000I-135000J0D01*
G01*
G37*
G36*
G01*
X120962000Y-74061000D02*
X120592000Y-74061000D01*
G75*
G02*
X120457000Y-73926000I0J135000D01*
G01*
X120457000Y-73656000D01*
G75*
G02*
X120592000Y-73521000I135000J0D01*
G01*
X120962000Y-73521000D01*
G75*
G02*
X121097000Y-73656000I0J-135000D01*
G01*
X121097000Y-73926000D01*
G75*
G02*
X120962000Y-74061000I-135000J0D01*
G01*
G37*
%TD*%
%TO.C,R10*%
G36*
G01*
X119946000Y-73039000D02*
X119576000Y-73039000D01*
G75*
G02*
X119441000Y-72904000I0J135000D01*
G01*
X119441000Y-72634000D01*
G75*
G02*
X119576000Y-72499000I135000J0D01*
G01*
X119946000Y-72499000D01*
G75*
G02*
X120081000Y-72634000I0J-135000D01*
G01*
X120081000Y-72904000D01*
G75*
G02*
X119946000Y-73039000I-135000J0D01*
G01*
G37*
G36*
G01*
X119946000Y-74059000D02*
X119576000Y-74059000D01*
G75*
G02*
X119441000Y-73924000I0J135000D01*
G01*
X119441000Y-73654000D01*
G75*
G02*
X119576000Y-73519000I135000J0D01*
G01*
X119946000Y-73519000D01*
G75*
G02*
X120081000Y-73654000I0J-135000D01*
G01*
X120081000Y-73924000D01*
G75*
G02*
X119946000Y-74059000I-135000J0D01*
G01*
G37*
%TD*%
%TO.C,C14*%
G36*
G01*
X117826600Y-97313200D02*
X117326600Y-97313200D01*
G75*
G02*
X117101600Y-97088200I0J225000D01*
G01*
X117101600Y-96638200D01*
G75*
G02*
X117326600Y-96413200I225000J0D01*
G01*
X117826600Y-96413200D01*
G75*
G02*
X118051600Y-96638200I0J-225000D01*
G01*
X118051600Y-97088200D01*
G75*
G02*
X117826600Y-97313200I-225000J0D01*
G01*
G37*
G36*
G01*
X117826600Y-95763200D02*
X117326600Y-95763200D01*
G75*
G02*
X117101600Y-95538200I0J225000D01*
G01*
X117101600Y-95088200D01*
G75*
G02*
X117326600Y-94863200I225000J0D01*
G01*
X117826600Y-94863200D01*
G75*
G02*
X118051600Y-95088200I0J-225000D01*
G01*
X118051600Y-95538200D01*
G75*
G02*
X117826600Y-95763200I-225000J0D01*
G01*
G37*
%TD*%
D18*
%TO.C,J1*%
X156172000Y-105791000D03*
D19*
X155172000Y-105241000D03*
D18*
X154172000Y-105791000D03*
X124172000Y-105791000D03*
X142172000Y-105791000D03*
X125172000Y-105791000D03*
X149172000Y-105791000D03*
X144172000Y-105791000D03*
X115172000Y-105791000D03*
X131172000Y-105791000D03*
X141172000Y-105791000D03*
X108172000Y-105791000D03*
X122172000Y-105791000D03*
X153172000Y-105791000D03*
X151172000Y-105791000D03*
X119172000Y-105791000D03*
X120172000Y-105791000D03*
X133172000Y-105791000D03*
X110172000Y-105791000D03*
X150172000Y-105791000D03*
X132172000Y-105791000D03*
X112172000Y-105791000D03*
X128172000Y-105791000D03*
X116172000Y-105791000D03*
X145172000Y-105791000D03*
X143172000Y-105791000D03*
X139172000Y-105791000D03*
X127172000Y-105791000D03*
X109172000Y-105791000D03*
X130172000Y-105791000D03*
X146172000Y-105791000D03*
X138172000Y-105791000D03*
X136172000Y-105791000D03*
X134172000Y-105791000D03*
X126172000Y-105791000D03*
X152172000Y-105791000D03*
X147172000Y-105791000D03*
X140172000Y-105791000D03*
X137172000Y-105791000D03*
X148172000Y-105791000D03*
X111172000Y-105791000D03*
X114172000Y-105791000D03*
X129172000Y-105791000D03*
X135172000Y-105791000D03*
X121172000Y-105791000D03*
X106172000Y-105791000D03*
X123172000Y-105791000D03*
X113172000Y-105791000D03*
%TD*%
D20*
%TO.C,U4*%
X124220000Y-78120000D03*
X124320000Y-78120000D03*
D21*
X124520000Y-79520000D03*
X124620000Y-80970000D03*
X126820000Y-79520000D03*
X127120000Y-79520000D03*
X127220000Y-78120000D03*
X127320000Y-80970000D03*
X127420000Y-79520000D03*
X127520000Y-78120000D03*
X127620000Y-80970000D03*
X127720000Y-79520000D03*
X127820000Y-78120000D03*
X127920000Y-80970000D03*
X128020000Y-79520000D03*
X128120000Y-78120000D03*
X128220000Y-80970000D03*
X128320000Y-79520000D03*
X128420000Y-78120000D03*
D22*
X128270000Y-71120000D03*
D21*
X128520000Y-80970000D03*
X129920000Y-78120000D03*
X130020000Y-80970000D03*
X130120000Y-79520000D03*
X130220000Y-78120000D03*
X130320000Y-80970000D03*
X130420000Y-79520000D03*
X130520000Y-78120000D03*
D20*
X132720000Y-78120000D03*
X132870000Y-78120000D03*
X132570000Y-78120000D03*
D21*
X131720000Y-78120000D03*
X131820000Y-80970000D03*
X131620000Y-79520000D03*
X131020000Y-79520000D03*
X131120000Y-78120000D03*
X131220000Y-80970000D03*
X130920000Y-80970000D03*
X131320000Y-79520000D03*
X131420000Y-78120000D03*
X130620000Y-80970000D03*
X130820000Y-78120000D03*
X130720000Y-79520000D03*
D20*
X133320000Y-78120000D03*
X133020000Y-78120000D03*
X133170000Y-78120000D03*
D23*
X119120000Y-75470000D03*
X120320000Y-75570000D03*
X121470000Y-75670000D03*
X121470000Y-75970000D03*
X120320000Y-75870000D03*
X119120000Y-75770000D03*
X134920000Y-75770000D03*
X136070000Y-75870000D03*
X136070000Y-75570000D03*
X134920000Y-75470000D03*
X137270000Y-75670000D03*
X137270000Y-75970000D03*
D24*
X122520000Y-77220000D03*
X134020000Y-77220000D03*
X122520000Y-65020000D03*
X134020000Y-65020000D03*
%TD*%
D25*
%TO.C,JP1*%
X114909600Y-97790000D03*
X114909600Y-95250000D03*
D26*
X114909600Y-92710000D03*
%TD*%
%TO.C,R4*%
G36*
G01*
X125919200Y-82735000D02*
X125919200Y-82365000D01*
G75*
G02*
X126054200Y-82230000I135000J0D01*
G01*
X126324200Y-82230000D01*
G75*
G02*
X126459200Y-82365000I0J-135000D01*
G01*
X126459200Y-82735000D01*
G75*
G02*
X126324200Y-82870000I-135000J0D01*
G01*
X126054200Y-82870000D01*
G75*
G02*
X125919200Y-82735000I0J135000D01*
G01*
G37*
G36*
G01*
X124899200Y-82735000D02*
X124899200Y-82365000D01*
G75*
G02*
X125034200Y-82230000I135000J0D01*
G01*
X125304200Y-82230000D01*
G75*
G02*
X125439200Y-82365000I0J-135000D01*
G01*
X125439200Y-82735000D01*
G75*
G02*
X125304200Y-82870000I-135000J0D01*
G01*
X125034200Y-82870000D01*
G75*
G02*
X124899200Y-82735000I0J135000D01*
G01*
G37*
%TD*%
D27*
%TO.C,U2*%
X120458799Y-83520199D03*
X120958801Y-83520199D03*
X121458799Y-83520199D03*
X121958799Y-83520199D03*
D28*
X122068801Y-82880196D03*
D27*
X121958799Y-82240199D03*
X121458799Y-82240199D03*
X120958801Y-82240199D03*
X120458799Y-82240199D03*
D28*
X120348799Y-82880196D03*
%TD*%
%TO.C,C3*%
G36*
G01*
X109844000Y-95064399D02*
X109844000Y-97264401D01*
G75*
G02*
X109594001Y-97514400I-249999J0D01*
G01*
X108943999Y-97514400D01*
G75*
G02*
X108694000Y-97264401I0J249999D01*
G01*
X108694000Y-95064399D01*
G75*
G02*
X108943999Y-94814400I249999J0D01*
G01*
X109594001Y-94814400D01*
G75*
G02*
X109844000Y-95064399I0J-249999D01*
G01*
G37*
G36*
G01*
X112794000Y-95064399D02*
X112794000Y-97264401D01*
G75*
G02*
X112544001Y-97514400I-249999J0D01*
G01*
X111893999Y-97514400D01*
G75*
G02*
X111644000Y-97264401I0J249999D01*
G01*
X111644000Y-95064399D01*
G75*
G02*
X111893999Y-94814400I249999J0D01*
G01*
X112544001Y-94814400D01*
G75*
G02*
X112794000Y-95064399I0J-249999D01*
G01*
G37*
%TD*%
%TO.C,R3*%
G36*
G01*
X121448800Y-85148000D02*
X121448800Y-84778000D01*
G75*
G02*
X121583800Y-84643000I135000J0D01*
G01*
X121853800Y-84643000D01*
G75*
G02*
X121988800Y-84778000I0J-135000D01*
G01*
X121988800Y-85148000D01*
G75*
G02*
X121853800Y-85283000I-135000J0D01*
G01*
X121583800Y-85283000D01*
G75*
G02*
X121448800Y-85148000I0J135000D01*
G01*
G37*
G36*
G01*
X120428800Y-85148000D02*
X120428800Y-84778000D01*
G75*
G02*
X120563800Y-84643000I135000J0D01*
G01*
X120833800Y-84643000D01*
G75*
G02*
X120968800Y-84778000I0J-135000D01*
G01*
X120968800Y-85148000D01*
G75*
G02*
X120833800Y-85283000I-135000J0D01*
G01*
X120563800Y-85283000D01*
G75*
G02*
X120428800Y-85148000I0J135000D01*
G01*
G37*
%TD*%
%TO.C,R6*%
G36*
G01*
X144228500Y-75569400D02*
X144228500Y-76119400D01*
G75*
G02*
X144028500Y-76319400I-200000J0D01*
G01*
X143628500Y-76319400D01*
G75*
G02*
X143428500Y-76119400I0J200000D01*
G01*
X143428500Y-75569400D01*
G75*
G02*
X143628500Y-75369400I200000J0D01*
G01*
X144028500Y-75369400D01*
G75*
G02*
X144228500Y-75569400I0J-200000D01*
G01*
G37*
G36*
G01*
X145878500Y-75569400D02*
X145878500Y-76119400D01*
G75*
G02*
X145678500Y-76319400I-200000J0D01*
G01*
X145278500Y-76319400D01*
G75*
G02*
X145078500Y-76119400I0J200000D01*
G01*
X145078500Y-75569400D01*
G75*
G02*
X145278500Y-75369400I200000J0D01*
G01*
X145678500Y-75369400D01*
G75*
G02*
X145878500Y-75569400I0J-200000D01*
G01*
G37*
%TD*%
%TO.C,C7*%
G36*
G01*
X118596600Y-84018000D02*
X119096600Y-84018000D01*
G75*
G02*
X119321600Y-84243000I0J-225000D01*
G01*
X119321600Y-84693000D01*
G75*
G02*
X119096600Y-84918000I-225000J0D01*
G01*
X118596600Y-84918000D01*
G75*
G02*
X118371600Y-84693000I0J225000D01*
G01*
X118371600Y-84243000D01*
G75*
G02*
X118596600Y-84018000I225000J0D01*
G01*
G37*
G36*
G01*
X118596600Y-82468000D02*
X119096600Y-82468000D01*
G75*
G02*
X119321600Y-82693000I0J-225000D01*
G01*
X119321600Y-83143000D01*
G75*
G02*
X119096600Y-83368000I-225000J0D01*
G01*
X118596600Y-83368000D01*
G75*
G02*
X118371600Y-83143000I0J225000D01*
G01*
X118371600Y-82693000D01*
G75*
G02*
X118596600Y-82468000I225000J0D01*
G01*
G37*
%TD*%
%TO.C,R5*%
G36*
G01*
X130323000Y-91904000D02*
X129773000Y-91904000D01*
G75*
G02*
X129573000Y-91704000I0J200000D01*
G01*
X129573000Y-91304000D01*
G75*
G02*
X129773000Y-91104000I200000J0D01*
G01*
X130323000Y-91104000D01*
G75*
G02*
X130523000Y-91304000I0J-200000D01*
G01*
X130523000Y-91704000D01*
G75*
G02*
X130323000Y-91904000I-200000J0D01*
G01*
G37*
G36*
G01*
X130323000Y-93554000D02*
X129773000Y-93554000D01*
G75*
G02*
X129573000Y-93354000I0J200000D01*
G01*
X129573000Y-92954000D01*
G75*
G02*
X129773000Y-92754000I200000J0D01*
G01*
X130323000Y-92754000D01*
G75*
G02*
X130523000Y-92954000I0J-200000D01*
G01*
X130523000Y-93354000D01*
G75*
G02*
X130323000Y-93554000I-200000J0D01*
G01*
G37*
%TD*%
%TO.C,R16*%
G36*
G01*
X144101000Y-89082200D02*
X144101000Y-89632200D01*
G75*
G02*
X143901000Y-89832200I-200000J0D01*
G01*
X143501000Y-89832200D01*
G75*
G02*
X143301000Y-89632200I0J200000D01*
G01*
X143301000Y-89082200D01*
G75*
G02*
X143501000Y-88882200I200000J0D01*
G01*
X143901000Y-88882200D01*
G75*
G02*
X144101000Y-89082200I0J-200000D01*
G01*
G37*
G36*
G01*
X145751000Y-89082200D02*
X145751000Y-89632200D01*
G75*
G02*
X145551000Y-89832200I-200000J0D01*
G01*
X145151000Y-89832200D01*
G75*
G02*
X144951000Y-89632200I0J200000D01*
G01*
X144951000Y-89082200D01*
G75*
G02*
X145151000Y-88882200I200000J0D01*
G01*
X145551000Y-88882200D01*
G75*
G02*
X145751000Y-89082200I0J-200000D01*
G01*
G37*
%TD*%
%TO.C,R15*%
G36*
G01*
X147595000Y-86316000D02*
X147045000Y-86316000D01*
G75*
G02*
X146845000Y-86116000I0J200000D01*
G01*
X146845000Y-85716000D01*
G75*
G02*
X147045000Y-85516000I200000J0D01*
G01*
X147595000Y-85516000D01*
G75*
G02*
X147795000Y-85716000I0J-200000D01*
G01*
X147795000Y-86116000D01*
G75*
G02*
X147595000Y-86316000I-200000J0D01*
G01*
G37*
G36*
G01*
X147595000Y-87966000D02*
X147045000Y-87966000D01*
G75*
G02*
X146845000Y-87766000I0J200000D01*
G01*
X146845000Y-87366000D01*
G75*
G02*
X147045000Y-87166000I200000J0D01*
G01*
X147595000Y-87166000D01*
G75*
G02*
X147795000Y-87366000I0J-200000D01*
G01*
X147795000Y-87766000D01*
G75*
G02*
X147595000Y-87966000I-200000J0D01*
G01*
G37*
%TD*%
%TO.C,R9*%
G36*
G01*
X140037000Y-87482000D02*
X140037000Y-88032000D01*
G75*
G02*
X139837000Y-88232000I-200000J0D01*
G01*
X139437000Y-88232000D01*
G75*
G02*
X139237000Y-88032000I0J200000D01*
G01*
X139237000Y-87482000D01*
G75*
G02*
X139437000Y-87282000I200000J0D01*
G01*
X139837000Y-87282000D01*
G75*
G02*
X140037000Y-87482000I0J-200000D01*
G01*
G37*
G36*
G01*
X141687000Y-87482000D02*
X141687000Y-88032000D01*
G75*
G02*
X141487000Y-88232000I-200000J0D01*
G01*
X141087000Y-88232000D01*
G75*
G02*
X140887000Y-88032000I0J200000D01*
G01*
X140887000Y-87482000D01*
G75*
G02*
X141087000Y-87282000I200000J0D01*
G01*
X141487000Y-87282000D01*
G75*
G02*
X141687000Y-87482000I0J-200000D01*
G01*
G37*
%TD*%
%TO.C,R1*%
G36*
G01*
X106562997Y-98842400D02*
X107813003Y-98842400D01*
G75*
G02*
X108063000Y-99092397I0J-249997D01*
G01*
X108063000Y-99717403D01*
G75*
G02*
X107813003Y-99967400I-249997J0D01*
G01*
X106562997Y-99967400D01*
G75*
G02*
X106313000Y-99717403I0J249997D01*
G01*
X106313000Y-99092397D01*
G75*
G02*
X106562997Y-98842400I249997J0D01*
G01*
G37*
G36*
G01*
X106562997Y-95917400D02*
X107813003Y-95917400D01*
G75*
G02*
X108063000Y-96167397I0J-249997D01*
G01*
X108063000Y-96792403D01*
G75*
G02*
X107813003Y-97042400I-249997J0D01*
G01*
X106562997Y-97042400D01*
G75*
G02*
X106313000Y-96792403I0J249997D01*
G01*
X106313000Y-96167397D01*
G75*
G02*
X106562997Y-95917400I249997J0D01*
G01*
G37*
%TD*%
D29*
%TO.C,U1*%
X145245000Y-86741000D03*
X145245000Y-85791000D03*
X145245000Y-87691000D03*
X143045000Y-87691000D03*
X143045000Y-86741000D03*
X143045000Y-85791000D03*
%TD*%
%TO.C,U3*%
X145372000Y-78486000D03*
X145372000Y-77536000D03*
X145372000Y-79436000D03*
X143172000Y-79436000D03*
X143172000Y-78486000D03*
X143172000Y-77536000D03*
%TD*%
D30*
%TO.C,FID2*%
X154305000Y-100330000D03*
%TD*%
%TO.C,FID1*%
X110744000Y-57150000D03*
%TD*%
%TO.C,R12*%
G36*
G01*
X107590000Y-88475000D02*
X107040000Y-88475000D01*
G75*
G02*
X106840000Y-88275000I0J200000D01*
G01*
X106840000Y-87875000D01*
G75*
G02*
X107040000Y-87675000I200000J0D01*
G01*
X107590000Y-87675000D01*
G75*
G02*
X107790000Y-87875000I0J-200000D01*
G01*
X107790000Y-88275000D01*
G75*
G02*
X107590000Y-88475000I-200000J0D01*
G01*
G37*
G36*
G01*
X107590000Y-90125000D02*
X107040000Y-90125000D01*
G75*
G02*
X106840000Y-89925000I0J200000D01*
G01*
X106840000Y-89525000D01*
G75*
G02*
X107040000Y-89325000I200000J0D01*
G01*
X107590000Y-89325000D01*
G75*
G02*
X107790000Y-89525000I0J-200000D01*
G01*
X107790000Y-89925000D01*
G75*
G02*
X107590000Y-90125000I-200000J0D01*
G01*
G37*
%TD*%
%TO.C,R11*%
G36*
G01*
X107040000Y-92500000D02*
X107590000Y-92500000D01*
G75*
G02*
X107790000Y-92700000I0J-200000D01*
G01*
X107790000Y-93100000D01*
G75*
G02*
X107590000Y-93300000I-200000J0D01*
G01*
X107040000Y-93300000D01*
G75*
G02*
X106840000Y-93100000I0J200000D01*
G01*
X106840000Y-92700000D01*
G75*
G02*
X107040000Y-92500000I200000J0D01*
G01*
G37*
G36*
G01*
X107040000Y-90850000D02*
X107590000Y-90850000D01*
G75*
G02*
X107790000Y-91050000I0J-200000D01*
G01*
X107790000Y-91450000D01*
G75*
G02*
X107590000Y-91650000I-200000J0D01*
G01*
X107040000Y-91650000D01*
G75*
G02*
X106840000Y-91450000I0J200000D01*
G01*
X106840000Y-91050000D01*
G75*
G02*
X107040000Y-90850000I200000J0D01*
G01*
G37*
%TD*%
%TO.C,C6*%
G36*
G01*
X111793201Y-86603000D02*
X109593199Y-86603000D01*
G75*
G02*
X109343200Y-86353001I0J249999D01*
G01*
X109343200Y-85702999D01*
G75*
G02*
X109593199Y-85453000I249999J0D01*
G01*
X111793201Y-85453000D01*
G75*
G02*
X112043200Y-85702999I0J-249999D01*
G01*
X112043200Y-86353001D01*
G75*
G02*
X111793201Y-86603000I-249999J0D01*
G01*
G37*
G36*
G01*
X111793201Y-89553000D02*
X109593199Y-89553000D01*
G75*
G02*
X109343200Y-89303001I0J249999D01*
G01*
X109343200Y-88652999D01*
G75*
G02*
X109593199Y-88403000I249999J0D01*
G01*
X111793201Y-88403000D01*
G75*
G02*
X112043200Y-88652999I0J-249999D01*
G01*
X112043200Y-89303001D01*
G75*
G02*
X111793201Y-89553000I-249999J0D01*
G01*
G37*
%TD*%
%TO.C,C5*%
G36*
G01*
X109844000Y-91736999D02*
X109844000Y-93937001D01*
G75*
G02*
X109594001Y-94187000I-249999J0D01*
G01*
X108943999Y-94187000D01*
G75*
G02*
X108694000Y-93937001I0J249999D01*
G01*
X108694000Y-91736999D01*
G75*
G02*
X108943999Y-91487000I249999J0D01*
G01*
X109594001Y-91487000D01*
G75*
G02*
X109844000Y-91736999I0J-249999D01*
G01*
G37*
G36*
G01*
X112794000Y-91736999D02*
X112794000Y-93937001D01*
G75*
G02*
X112544001Y-94187000I-249999J0D01*
G01*
X111893999Y-94187000D01*
G75*
G02*
X111644000Y-93937001I0J249999D01*
G01*
X111644000Y-91736999D01*
G75*
G02*
X111893999Y-91487000I249999J0D01*
G01*
X112544001Y-91487000D01*
G75*
G02*
X112794000Y-91736999I0J-249999D01*
G01*
G37*
%TD*%
%TO.C,C4*%
G36*
G01*
X115095201Y-86603000D02*
X112895199Y-86603000D01*
G75*
G02*
X112645200Y-86353001I0J249999D01*
G01*
X112645200Y-85702999D01*
G75*
G02*
X112895199Y-85453000I249999J0D01*
G01*
X115095201Y-85453000D01*
G75*
G02*
X115345200Y-85702999I0J-249999D01*
G01*
X115345200Y-86353001D01*
G75*
G02*
X115095201Y-86603000I-249999J0D01*
G01*
G37*
G36*
G01*
X115095201Y-89553000D02*
X112895199Y-89553000D01*
G75*
G02*
X112645200Y-89303001I0J249999D01*
G01*
X112645200Y-88652999D01*
G75*
G02*
X112895199Y-88403000I249999J0D01*
G01*
X115095201Y-88403000D01*
G75*
G02*
X115345200Y-88652999I0J-249999D01*
G01*
X115345200Y-89303001D01*
G75*
G02*
X115095201Y-89553000I-249999J0D01*
G01*
G37*
%TD*%
%TO.C,R7*%
G36*
G01*
X128799000Y-91904000D02*
X128249000Y-91904000D01*
G75*
G02*
X128049000Y-91704000I0J200000D01*
G01*
X128049000Y-91304000D01*
G75*
G02*
X128249000Y-91104000I200000J0D01*
G01*
X128799000Y-91104000D01*
G75*
G02*
X128999000Y-91304000I0J-200000D01*
G01*
X128999000Y-91704000D01*
G75*
G02*
X128799000Y-91904000I-200000J0D01*
G01*
G37*
G36*
G01*
X128799000Y-93554000D02*
X128249000Y-93554000D01*
G75*
G02*
X128049000Y-93354000I0J200000D01*
G01*
X128049000Y-92954000D01*
G75*
G02*
X128249000Y-92754000I200000J0D01*
G01*
X128799000Y-92754000D01*
G75*
G02*
X128999000Y-92954000I0J-200000D01*
G01*
X128999000Y-93354000D01*
G75*
G02*
X128799000Y-93554000I-200000J0D01*
G01*
G37*
%TD*%
%TO.C,R2*%
G36*
G01*
X144101000Y-90707800D02*
X144101000Y-91257800D01*
G75*
G02*
X143901000Y-91457800I-200000J0D01*
G01*
X143501000Y-91457800D01*
G75*
G02*
X143301000Y-91257800I0J200000D01*
G01*
X143301000Y-90707800D01*
G75*
G02*
X143501000Y-90507800I200000J0D01*
G01*
X143901000Y-90507800D01*
G75*
G02*
X144101000Y-90707800I0J-200000D01*
G01*
G37*
G36*
G01*
X145751000Y-90707800D02*
X145751000Y-91257800D01*
G75*
G02*
X145551000Y-91457800I-200000J0D01*
G01*
X145151000Y-91457800D01*
G75*
G02*
X144951000Y-91257800I0J200000D01*
G01*
X144951000Y-90707800D01*
G75*
G02*
X145151000Y-90507800I200000J0D01*
G01*
X145551000Y-90507800D01*
G75*
G02*
X145751000Y-90707800I0J-200000D01*
G01*
G37*
%TD*%
D25*
%TO.C,J10*%
X143637000Y-54610000D03*
X141097000Y-54610000D03*
X138557000Y-54610000D03*
X136017000Y-54610000D03*
X133477000Y-54610000D03*
D26*
X130937000Y-54610000D03*
%TD*%
D25*
%TO.C,J9*%
X113792000Y-54610000D03*
X116332000Y-54610000D03*
X118872000Y-54610000D03*
X121412000Y-54610000D03*
X123952000Y-54610000D03*
D26*
X126492000Y-54610000D03*
%TD*%
D31*
%TO.C,J6*%
X112395000Y-76327000D03*
X107315000Y-76327000D03*
X107315000Y-71247000D03*
X112395000Y-71247000D03*
X109855000Y-73787000D03*
%TD*%
%TO.C,J5*%
X149860000Y-58420000D03*
X154940000Y-58420000D03*
X154940000Y-63500000D03*
X149860000Y-63500000D03*
X152400000Y-60960000D03*
%TD*%
%TO.C,J4*%
X149860000Y-71882000D03*
X154940000Y-71882000D03*
X154940000Y-76962000D03*
X149860000Y-76962000D03*
X152400000Y-74422000D03*
%TD*%
%TO.C,J3*%
X149860000Y-86360000D03*
X154940000Y-86360000D03*
X154940000Y-91440000D03*
X149860000Y-91440000D03*
X152400000Y-88900000D03*
%TD*%
%TO.C,C10*%
G36*
G01*
X117301200Y-92374600D02*
X117801200Y-92374600D01*
G75*
G02*
X118026200Y-92599600I0J-225000D01*
G01*
X118026200Y-93049600D01*
G75*
G02*
X117801200Y-93274600I-225000J0D01*
G01*
X117301200Y-93274600D01*
G75*
G02*
X117076200Y-93049600I0J225000D01*
G01*
X117076200Y-92599600D01*
G75*
G02*
X117301200Y-92374600I225000J0D01*
G01*
G37*
G36*
G01*
X117301200Y-90824600D02*
X117801200Y-90824600D01*
G75*
G02*
X118026200Y-91049600I0J-225000D01*
G01*
X118026200Y-91499600D01*
G75*
G02*
X117801200Y-91724600I-225000J0D01*
G01*
X117301200Y-91724600D01*
G75*
G02*
X117076200Y-91499600I0J225000D01*
G01*
X117076200Y-91049600D01*
G75*
G02*
X117301200Y-90824600I225000J0D01*
G01*
G37*
%TD*%
%TO.C,C12*%
G36*
G01*
X123371800Y-84018000D02*
X123871800Y-84018000D01*
G75*
G02*
X124096800Y-84243000I0J-225000D01*
G01*
X124096800Y-84693000D01*
G75*
G02*
X123871800Y-84918000I-225000J0D01*
G01*
X123371800Y-84918000D01*
G75*
G02*
X123146800Y-84693000I0J225000D01*
G01*
X123146800Y-84243000D01*
G75*
G02*
X123371800Y-84018000I225000J0D01*
G01*
G37*
G36*
G01*
X123371800Y-82468000D02*
X123871800Y-82468000D01*
G75*
G02*
X124096800Y-82693000I0J-225000D01*
G01*
X124096800Y-83143000D01*
G75*
G02*
X123871800Y-83368000I-225000J0D01*
G01*
X123371800Y-83368000D01*
G75*
G02*
X123146800Y-83143000I0J225000D01*
G01*
X123146800Y-82693000D01*
G75*
G02*
X123371800Y-82468000I225000J0D01*
G01*
G37*
%TD*%
%TO.C,C13*%
G36*
G01*
X119401400Y-95763200D02*
X118901400Y-95763200D01*
G75*
G02*
X118676400Y-95538200I0J225000D01*
G01*
X118676400Y-95088200D01*
G75*
G02*
X118901400Y-94863200I225000J0D01*
G01*
X119401400Y-94863200D01*
G75*
G02*
X119626400Y-95088200I0J-225000D01*
G01*
X119626400Y-95538200D01*
G75*
G02*
X119401400Y-95763200I-225000J0D01*
G01*
G37*
G36*
G01*
X119401400Y-97313200D02*
X118901400Y-97313200D01*
G75*
G02*
X118676400Y-97088200I0J225000D01*
G01*
X118676400Y-96638200D01*
G75*
G02*
X118901400Y-96413200I225000J0D01*
G01*
X119401400Y-96413200D01*
G75*
G02*
X119626400Y-96638200I0J-225000D01*
G01*
X119626400Y-97088200D01*
G75*
G02*
X119401400Y-97313200I-225000J0D01*
G01*
G37*
%TD*%
%TO.C,C11*%
G36*
G01*
X121001600Y-95763200D02*
X120501600Y-95763200D01*
G75*
G02*
X120276600Y-95538200I0J225000D01*
G01*
X120276600Y-95088200D01*
G75*
G02*
X120501600Y-94863200I225000J0D01*
G01*
X121001600Y-94863200D01*
G75*
G02*
X121226600Y-95088200I0J-225000D01*
G01*
X121226600Y-95538200D01*
G75*
G02*
X121001600Y-95763200I-225000J0D01*
G01*
G37*
G36*
G01*
X121001600Y-97313200D02*
X120501600Y-97313200D01*
G75*
G02*
X120276600Y-97088200I0J225000D01*
G01*
X120276600Y-96638200D01*
G75*
G02*
X120501600Y-96413200I225000J0D01*
G01*
X121001600Y-96413200D01*
G75*
G02*
X121226600Y-96638200I0J-225000D01*
G01*
X121226600Y-97088200D01*
G75*
G02*
X121001600Y-97313200I-225000J0D01*
G01*
G37*
%TD*%
%TO.C,C9*%
G36*
G01*
X118926800Y-92374600D02*
X119426800Y-92374600D01*
G75*
G02*
X119651800Y-92599600I0J-225000D01*
G01*
X119651800Y-93049600D01*
G75*
G02*
X119426800Y-93274600I-225000J0D01*
G01*
X118926800Y-93274600D01*
G75*
G02*
X118701800Y-93049600I0J225000D01*
G01*
X118701800Y-92599600D01*
G75*
G02*
X118926800Y-92374600I225000J0D01*
G01*
G37*
G36*
G01*
X118926800Y-90824600D02*
X119426800Y-90824600D01*
G75*
G02*
X119651800Y-91049600I0J-225000D01*
G01*
X119651800Y-91499600D01*
G75*
G02*
X119426800Y-91724600I-225000J0D01*
G01*
X118926800Y-91724600D01*
G75*
G02*
X118701800Y-91499600I0J225000D01*
G01*
X118701800Y-91049600D01*
G75*
G02*
X118926800Y-90824600I225000J0D01*
G01*
G37*
%TD*%
%TO.C,C8*%
G36*
G01*
X120501600Y-92374600D02*
X121001600Y-92374600D01*
G75*
G02*
X121226600Y-92599600I0J-225000D01*
G01*
X121226600Y-93049600D01*
G75*
G02*
X121001600Y-93274600I-225000J0D01*
G01*
X120501600Y-93274600D01*
G75*
G02*
X120276600Y-93049600I0J225000D01*
G01*
X120276600Y-92599600D01*
G75*
G02*
X120501600Y-92374600I225000J0D01*
G01*
G37*
G36*
G01*
X120501600Y-90824600D02*
X121001600Y-90824600D01*
G75*
G02*
X121226600Y-91049600I0J-225000D01*
G01*
X121226600Y-91499600D01*
G75*
G02*
X121001600Y-91724600I-225000J0D01*
G01*
X120501600Y-91724600D01*
G75*
G02*
X120276600Y-91499600I0J225000D01*
G01*
X120276600Y-91049600D01*
G75*
G02*
X120501600Y-90824600I225000J0D01*
G01*
G37*
%TD*%
%TO.C,C2*%
G36*
G01*
X143693000Y-83697000D02*
X143693000Y-84197000D01*
G75*
G02*
X143468000Y-84422000I-225000J0D01*
G01*
X143018000Y-84422000D01*
G75*
G02*
X142793000Y-84197000I0J225000D01*
G01*
X142793000Y-83697000D01*
G75*
G02*
X143018000Y-83472000I225000J0D01*
G01*
X143468000Y-83472000D01*
G75*
G02*
X143693000Y-83697000I0J-225000D01*
G01*
G37*
G36*
G01*
X145243000Y-83697000D02*
X145243000Y-84197000D01*
G75*
G02*
X145018000Y-84422000I-225000J0D01*
G01*
X144568000Y-84422000D01*
G75*
G02*
X144343000Y-84197000I0J225000D01*
G01*
X144343000Y-83697000D01*
G75*
G02*
X144568000Y-83472000I225000J0D01*
G01*
X145018000Y-83472000D01*
G75*
G02*
X145243000Y-83697000I0J-225000D01*
G01*
G37*
%TD*%
%TO.C,C1*%
G36*
G01*
X147019200Y-78760200D02*
X147519200Y-78760200D01*
G75*
G02*
X147744200Y-78985200I0J-225000D01*
G01*
X147744200Y-79435200D01*
G75*
G02*
X147519200Y-79660200I-225000J0D01*
G01*
X147019200Y-79660200D01*
G75*
G02*
X146794200Y-79435200I0J225000D01*
G01*
X146794200Y-78985200D01*
G75*
G02*
X147019200Y-78760200I225000J0D01*
G01*
G37*
G36*
G01*
X147019200Y-77210200D02*
X147519200Y-77210200D01*
G75*
G02*
X147744200Y-77435200I0J-225000D01*
G01*
X147744200Y-77885200D01*
G75*
G02*
X147519200Y-78110200I-225000J0D01*
G01*
X147019200Y-78110200D01*
G75*
G02*
X146794200Y-77885200I0J225000D01*
G01*
X146794200Y-77435200D01*
G75*
G02*
X147019200Y-77210200I225000J0D01*
G01*
G37*
%TD*%
D32*
X128676400Y-77647800D03*
X126923800Y-77645000D03*
X118846600Y-82245200D03*
X123621800Y-82270606D03*
X121602198Y-91274600D03*
X122174010Y-91287600D03*
X129286000Y-93649798D03*
X131438370Y-80070025D03*
X130511716Y-78787014D03*
X147269200Y-76911200D03*
X145415000Y-83947000D03*
X125095000Y-80010000D03*
X122123200Y-96850200D03*
X121551404Y-96863200D03*
X131445000Y-74015600D03*
X125095000Y-74015600D03*
X128270000Y-74015600D03*
X131445000Y-71120000D03*
X128270000Y-71120000D03*
X125095000Y-71120000D03*
X131445000Y-67945000D03*
X128270000Y-67945000D03*
X125095000Y-67945000D03*
X114274600Y-84709000D03*
X133718300Y-78359000D03*
X129381490Y-90754206D03*
X126187200Y-79349600D03*
X129507436Y-77851000D03*
X132156200Y-82321400D03*
X132384800Y-79857600D03*
X129050524Y-79221109D03*
X147269200Y-79832200D03*
X142367000Y-86741000D03*
X142621000Y-83947000D03*
X147320000Y-85344000D03*
X113030000Y-92837000D03*
X120777000Y-94742000D03*
X117500400Y-93421200D03*
X119176800Y-93421200D03*
X120751600Y-93421200D03*
X121488200Y-81534000D03*
X115214400Y-102108000D03*
X115214400Y-102743000D03*
X115824000Y-102108000D03*
X115824000Y-102717600D03*
X117500388Y-94691200D03*
X113944400Y-89814398D03*
X110642400Y-89814400D03*
X120395996Y-84201000D03*
X123596400Y-85090006D03*
X123875800Y-80010004D03*
X131785620Y-77645014D03*
X118846600Y-85115400D03*
X119151402Y-94691200D03*
X112937990Y-96164400D03*
X142367000Y-78498694D03*
X131157489Y-81730881D03*
X130310139Y-81684664D03*
X127192846Y-81686398D03*
X129874775Y-78998077D03*
X128607447Y-81801912D03*
X128301510Y-84582000D03*
X106297030Y-103276400D03*
X118491000Y-71882000D03*
X118618000Y-74675996D03*
X121412000Y-74676000D03*
X120739311Y-71919689D03*
X119761000Y-71882000D03*
X136857490Y-74523574D03*
X135509000Y-71628000D03*
X137795000Y-71755000D03*
X136070000Y-74627402D03*
X135255000Y-74649590D03*
X109347000Y-90932000D03*
X123571000Y-78020022D03*
X128332510Y-82524600D03*
X128828800Y-79806800D03*
M02*
