%TF.GenerationSoftware,KiCad,Pcbnew,(5.1.10)-1*%
%TF.CreationDate,2021-07-22T16:49:50+02:00*%
%TF.ProjectId,astropix_v2,61737472-6f70-4697-985f-76322e6b6963,1.0*%
%TF.SameCoordinates,Original*%
%TF.FileFunction,Copper,L2,Inr*%
%TF.FilePolarity,Positive*%
%FSLAX46Y46*%
G04 Gerber Fmt 4.6, Leading zero omitted, Abs format (unit mm)*
G04 Created by KiCad (PCBNEW (5.1.10)-1) date 2021-07-22 16:49:50*
%MOMM*%
%LPD*%
G01*
G04 APERTURE LIST*
%TA.AperFunction,ComponentPad*%
%ADD10C,0.600000*%
%TD*%
%TA.AperFunction,ComponentPad*%
%ADD11O,1.700000X1.700000*%
%TD*%
%TA.AperFunction,ComponentPad*%
%ADD12R,1.700000X1.700000*%
%TD*%
%TA.AperFunction,ComponentPad*%
%ADD13C,2.250000*%
%TD*%
%TA.AperFunction,ViaPad*%
%ADD14C,0.450000*%
%TD*%
%TA.AperFunction,Conductor*%
%ADD15C,0.254000*%
%TD*%
%TA.AperFunction,Conductor*%
%ADD16C,0.100000*%
%TD*%
G04 APERTURE END LIST*
D10*
%TO.N,GND*%
%TO.C,U4*%
X134020000Y-65020000D03*
X122520000Y-65020000D03*
X134020000Y-77220000D03*
X122520000Y-77220000D03*
%TD*%
D11*
%TO.N,/POW4_in*%
%TO.C,JP1*%
X114909600Y-97790000D03*
%TO.N,VDD*%
X114909600Y-95250000D03*
D12*
%TO.N,/VDD18_in*%
X114909600Y-92710000D03*
%TD*%
D11*
%TO.N,GND*%
%TO.C,J10*%
X143637000Y-54610000D03*
%TO.N,/spi_right_mosi*%
X141097000Y-54610000D03*
%TO.N,/spi_right_csn*%
X138557000Y-54610000D03*
%TO.N,/spi_right_miso0*%
X136017000Y-54610000D03*
%TO.N,/spi_right_miso1*%
X133477000Y-54610000D03*
D12*
%TO.N,/spi_right_clk*%
X130937000Y-54610000D03*
%TD*%
D11*
%TO.N,GND*%
%TO.C,J9*%
X107950000Y-72390000D03*
%TO.N,/spi_left_csn*%
X107950000Y-69850000D03*
%TO.N,/spi_left_clk*%
X107950000Y-67310000D03*
%TO.N,/spi_left_miso1*%
X107950000Y-64770000D03*
%TO.N,/spi_left_miso0*%
X107950000Y-62230000D03*
D12*
%TO.N,/spi_left_mosi*%
X107950000Y-59690000D03*
%TD*%
D13*
%TO.N,GND*%
%TO.C,J6*%
X112395000Y-81280000D03*
X107315000Y-81280000D03*
X107315000Y-76200000D03*
X112395000Y-76200000D03*
%TO.N,/HV_in_ext*%
X109855000Y-78740000D03*
%TD*%
%TO.N,GND*%
%TO.C,J5*%
X149860000Y-57150000D03*
X154940000Y-57150000D03*
X154940000Y-62230000D03*
X149860000Y-62230000D03*
%TO.N,/sc_out*%
X152400000Y-59690000D03*
%TD*%
%TO.N,GND*%
%TO.C,J4*%
X149860000Y-71882000D03*
X154940000Y-71882000D03*
X154940000Y-76962000D03*
X149860000Y-76962000D03*
%TO.N,Net-(J4-Pad1)*%
X152400000Y-74422000D03*
%TD*%
%TO.N,GND*%
%TO.C,J3*%
X149860000Y-86360000D03*
X154940000Y-86360000D03*
X154940000Y-91440000D03*
X149860000Y-91440000D03*
%TO.N,Net-(J3-Pad1)*%
X152400000Y-88900000D03*
%TD*%
D14*
%TO.N,VDD*%
X128676400Y-77647800D03*
X126923800Y-77645000D03*
X129286000Y-93649798D03*
X118846600Y-82245200D03*
X123621800Y-82270606D03*
X121602198Y-91274600D03*
X122174010Y-91287600D03*
%TO.N,VDDA*%
X131438370Y-80070025D03*
X130511716Y-78787014D03*
X147269200Y-76911200D03*
X145415000Y-83947000D03*
X125095000Y-80010000D03*
X122123200Y-96850200D03*
X121551404Y-96863200D03*
%TO.N,suba*%
X131445000Y-74015600D03*
X125095000Y-74015600D03*
X128270000Y-74015600D03*
X131445000Y-71120000D03*
X128270000Y-71120000D03*
X125095000Y-71120000D03*
X131445000Y-67945000D03*
X128270000Y-67945000D03*
X125095000Y-67945000D03*
X114274600Y-84709000D03*
X133718300Y-78359000D03*
%TO.N,/res_n*%
X130048000Y-90754206D03*
X126034800Y-79603600D03*
%TO.N,/Inj*%
X129507436Y-77851000D03*
%TO.N,/DAC_vminuspix*%
X132156200Y-82321400D03*
X132384800Y-79857600D03*
%TO.N,/sr_ck2*%
X128369479Y-84582008D03*
%TO.N,/sr_ck1*%
X128828798Y-79527400D03*
%TO.N,/hold*%
X130149600Y-102997000D03*
X126765067Y-84281583D03*
%TO.N,GND*%
X147269200Y-79832200D03*
X142367000Y-86741000D03*
X142621000Y-83947000D03*
X147320000Y-85344000D03*
X113030000Y-92837000D03*
X120777000Y-94742000D03*
X117500400Y-93421200D03*
X119176800Y-93421200D03*
X120751600Y-93421200D03*
X121488200Y-81534000D03*
X115214400Y-102108000D03*
X115214400Y-102743000D03*
X115824000Y-102108000D03*
X115824000Y-102717600D03*
X117500388Y-94691200D03*
X113944400Y-89814398D03*
X110642400Y-89814400D03*
X120395996Y-84201000D03*
X123596400Y-85090006D03*
X123875800Y-80010004D03*
X129717788Y-78917800D03*
X130310139Y-81684664D03*
X128379823Y-81686400D03*
X127304800Y-81686398D03*
X131785620Y-77645014D03*
X131157489Y-81730881D03*
X118846600Y-85115400D03*
X119151402Y-94691200D03*
X112937990Y-96164400D03*
X142367000Y-78498694D03*
%TO.N,-HV*%
X106297030Y-103276400D03*
%TO.N,/spi_left_csn*%
X118110000Y-72009014D03*
%TO.N,/spi_left_clk*%
X118618000Y-74675996D03*
%TO.N,/spi_left_mosi*%
X121412000Y-74676000D03*
%TO.N,/spi_left_miso0*%
X120396000Y-71882002D03*
%TO.N,/spi_left_miso1*%
X119380000Y-71882000D03*
%TO.N,/spi_right_csn*%
X136857490Y-74523574D03*
%TO.N,/spi_right_clk*%
X135509000Y-71628000D03*
%TO.N,/spi_right_mosi*%
X137795000Y-71755000D03*
%TO.N,/spi_right_miso0*%
X136070000Y-74627402D03*
%TO.N,/spi_right_miso1*%
X135255000Y-74649590D03*
%TO.N,subd*%
X109347000Y-90932000D03*
X123571000Y-78020022D03*
%TD*%
D15*
%TO.N,GND*%
X156412051Y-56204059D02*
X156164531Y-56105074D01*
X155119605Y-57150000D01*
X156164531Y-58194926D01*
X156411159Y-58096298D01*
X156409656Y-61283101D01*
X156164531Y-61185074D01*
X155119605Y-62230000D01*
X156164531Y-63274926D01*
X156408763Y-63177256D01*
X156405105Y-70933281D01*
X156164531Y-70837074D01*
X155119605Y-71882000D01*
X156164531Y-72926926D01*
X156404210Y-72831077D01*
X156402710Y-76012323D01*
X156164531Y-75917074D01*
X155119605Y-76962000D01*
X156164531Y-78006926D01*
X156401814Y-77912035D01*
X156398279Y-85408551D01*
X156164531Y-85315074D01*
X155119605Y-86360000D01*
X156164531Y-87404926D01*
X156397381Y-87311808D01*
X156395883Y-90487593D01*
X156164531Y-90395074D01*
X155119605Y-91440000D01*
X156164531Y-92484926D01*
X156394985Y-92392766D01*
X156391011Y-100819722D01*
X156391000Y-100819833D01*
X156391000Y-100842556D01*
X156390991Y-100861964D01*
X156391000Y-100862056D01*
X156391001Y-108562473D01*
X156143475Y-108810000D01*
X119300526Y-108810000D01*
X119053000Y-108562475D01*
X119053000Y-102937314D01*
X129543600Y-102937314D01*
X129543600Y-103056686D01*
X129566888Y-103173764D01*
X129612570Y-103284049D01*
X129678889Y-103383302D01*
X129763298Y-103467711D01*
X129862551Y-103534030D01*
X129972836Y-103579712D01*
X130089914Y-103603000D01*
X130209286Y-103603000D01*
X130326364Y-103579712D01*
X130436649Y-103534030D01*
X130535902Y-103467711D01*
X130620311Y-103383302D01*
X130686630Y-103284049D01*
X130732312Y-103173764D01*
X130755600Y-103056686D01*
X130755600Y-102937314D01*
X130732312Y-102820236D01*
X130686630Y-102709951D01*
X130620311Y-102610698D01*
X130535902Y-102526289D01*
X130436649Y-102459970D01*
X130326364Y-102414288D01*
X130209286Y-102391000D01*
X130089914Y-102391000D01*
X129972836Y-102414288D01*
X129862551Y-102459970D01*
X129763298Y-102526289D01*
X129678889Y-102610698D01*
X129612570Y-102709951D01*
X129566888Y-102820236D01*
X129543600Y-102937314D01*
X119053000Y-102937314D01*
X119053000Y-101769832D01*
X119050850Y-101748003D01*
X119050850Y-101735678D01*
X119050221Y-101729693D01*
X119029554Y-101545441D01*
X119021429Y-101507216D01*
X119013845Y-101468914D01*
X119012066Y-101463165D01*
X119012066Y-101463163D01*
X119012064Y-101463157D01*
X118956005Y-101286435D01*
X118940624Y-101250549D01*
X118925730Y-101214413D01*
X118922867Y-101209119D01*
X118833546Y-101046645D01*
X118811483Y-101014423D01*
X118789858Y-100981875D01*
X118786022Y-100977238D01*
X118666844Y-100835209D01*
X118638934Y-100807877D01*
X118611410Y-100780160D01*
X118606752Y-100776361D01*
X118606746Y-100776355D01*
X118606739Y-100776351D01*
X118462251Y-100660179D01*
X118429565Y-100638790D01*
X118397180Y-100616946D01*
X118391874Y-100614125D01*
X118391866Y-100614120D01*
X118391858Y-100614117D01*
X118227557Y-100528222D01*
X118191355Y-100513595D01*
X118155326Y-100498450D01*
X118149564Y-100496710D01*
X117971701Y-100444363D01*
X117933324Y-100437042D01*
X117895064Y-100429188D01*
X117889084Y-100428602D01*
X117889074Y-100428600D01*
X117889065Y-100428600D01*
X117704431Y-100411797D01*
X117665401Y-100412069D01*
X117626304Y-100411797D01*
X117620315Y-100412384D01*
X117435923Y-100431765D01*
X117397660Y-100439619D01*
X117359289Y-100446939D01*
X117353533Y-100448677D01*
X117353524Y-100448679D01*
X117353516Y-100448683D01*
X117176411Y-100503505D01*
X117140431Y-100518629D01*
X117104180Y-100533276D01*
X117098866Y-100536101D01*
X116935773Y-100624285D01*
X116903353Y-100646152D01*
X116870700Y-100667520D01*
X116866045Y-100671316D01*
X116866037Y-100671322D01*
X116866030Y-100671329D01*
X116723177Y-100789508D01*
X116695656Y-100817222D01*
X116667743Y-100844556D01*
X116663907Y-100849193D01*
X116546724Y-100992873D01*
X116525109Y-101025406D01*
X116503038Y-101057641D01*
X116500175Y-101062934D01*
X116413131Y-101226640D01*
X116398244Y-101262757D01*
X116382855Y-101298663D01*
X116381080Y-101304400D01*
X116381076Y-101304409D01*
X116381074Y-101304418D01*
X116327488Y-101481906D01*
X116319904Y-101520208D01*
X116311779Y-101558433D01*
X116311150Y-101564418D01*
X116293057Y-101748941D01*
X116293057Y-101748949D01*
X116291000Y-101769833D01*
X116291001Y-108562473D01*
X116043475Y-108810000D01*
X106200526Y-108810000D01*
X105953000Y-108562475D01*
X105953000Y-104056096D01*
X106048511Y-104095658D01*
X106213115Y-104128400D01*
X106380945Y-104128400D01*
X106545549Y-104095658D01*
X106700603Y-104031432D01*
X106840148Y-103938191D01*
X106958821Y-103819518D01*
X107052062Y-103679973D01*
X107116288Y-103524919D01*
X107149030Y-103360315D01*
X107149030Y-103192485D01*
X107116288Y-103027881D01*
X107052062Y-102872827D01*
X106958821Y-102733282D01*
X106840148Y-102614609D01*
X106700603Y-102521368D01*
X106545549Y-102457142D01*
X106380945Y-102424400D01*
X106213115Y-102424400D01*
X106048511Y-102457142D01*
X105953000Y-102496704D01*
X105953000Y-100839540D01*
X105953974Y-97668757D01*
X113678600Y-97668757D01*
X113678600Y-97911243D01*
X113725907Y-98149069D01*
X113818702Y-98373097D01*
X113953420Y-98574717D01*
X114124883Y-98746180D01*
X114326503Y-98880898D01*
X114550531Y-98973693D01*
X114788357Y-99021000D01*
X115030843Y-99021000D01*
X115268669Y-98973693D01*
X115492697Y-98880898D01*
X115694317Y-98746180D01*
X115865780Y-98574717D01*
X116000498Y-98373097D01*
X116093293Y-98149069D01*
X116140600Y-97911243D01*
X116140600Y-97668757D01*
X116093293Y-97430931D01*
X116000498Y-97206903D01*
X115865780Y-97005283D01*
X115694317Y-96833820D01*
X115648961Y-96803514D01*
X120945404Y-96803514D01*
X120945404Y-96922886D01*
X120968692Y-97039964D01*
X121014374Y-97150249D01*
X121080693Y-97249502D01*
X121165102Y-97333911D01*
X121264355Y-97400230D01*
X121374640Y-97445912D01*
X121491718Y-97469200D01*
X121611090Y-97469200D01*
X121728168Y-97445912D01*
X121838453Y-97400230D01*
X121849582Y-97392794D01*
X121946436Y-97432912D01*
X122063514Y-97456200D01*
X122182886Y-97456200D01*
X122299964Y-97432912D01*
X122410249Y-97387230D01*
X122509502Y-97320911D01*
X122593911Y-97236502D01*
X122660230Y-97137249D01*
X122705912Y-97026964D01*
X122729200Y-96909886D01*
X122729200Y-96790514D01*
X122705912Y-96673436D01*
X122660230Y-96563151D01*
X122593911Y-96463898D01*
X122509502Y-96379489D01*
X122410249Y-96313170D01*
X122299964Y-96267488D01*
X122182886Y-96244200D01*
X122063514Y-96244200D01*
X121946436Y-96267488D01*
X121836151Y-96313170D01*
X121825022Y-96320606D01*
X121728168Y-96280488D01*
X121611090Y-96257200D01*
X121491718Y-96257200D01*
X121374640Y-96280488D01*
X121264355Y-96326170D01*
X121165102Y-96392489D01*
X121080693Y-96476898D01*
X121014374Y-96576151D01*
X120968692Y-96686436D01*
X120945404Y-96803514D01*
X115648961Y-96803514D01*
X115492697Y-96699102D01*
X115268669Y-96606307D01*
X115030843Y-96559000D01*
X114788357Y-96559000D01*
X114550531Y-96606307D01*
X114326503Y-96699102D01*
X114124883Y-96833820D01*
X113953420Y-97005283D01*
X113818702Y-97206903D01*
X113725907Y-97430931D01*
X113678600Y-97668757D01*
X105953974Y-97668757D01*
X105954754Y-95128757D01*
X113678600Y-95128757D01*
X113678600Y-95371243D01*
X113725907Y-95609069D01*
X113818702Y-95833097D01*
X113953420Y-96034717D01*
X114124883Y-96206180D01*
X114326503Y-96340898D01*
X114550531Y-96433693D01*
X114788357Y-96481000D01*
X115030843Y-96481000D01*
X115268669Y-96433693D01*
X115492697Y-96340898D01*
X115694317Y-96206180D01*
X115865780Y-96034717D01*
X116000498Y-95833097D01*
X116093293Y-95609069D01*
X116140600Y-95371243D01*
X116140600Y-95128757D01*
X116093293Y-94890931D01*
X116000498Y-94666903D01*
X115865780Y-94465283D01*
X115694317Y-94293820D01*
X115492697Y-94159102D01*
X115268669Y-94066307D01*
X115030843Y-94019000D01*
X114788357Y-94019000D01*
X114550531Y-94066307D01*
X114326503Y-94159102D01*
X114124883Y-94293820D01*
X113953420Y-94465283D01*
X113818702Y-94666903D01*
X113725907Y-94890931D01*
X113678600Y-95128757D01*
X105954754Y-95128757D01*
X105955760Y-91860000D01*
X113676757Y-91860000D01*
X113676757Y-93560000D01*
X113684113Y-93634689D01*
X113705899Y-93706508D01*
X113741278Y-93772696D01*
X113788889Y-93830711D01*
X113846904Y-93878322D01*
X113913092Y-93913701D01*
X113984911Y-93935487D01*
X114059600Y-93942843D01*
X115759600Y-93942843D01*
X115834289Y-93935487D01*
X115906108Y-93913701D01*
X115972296Y-93878322D01*
X116030311Y-93830711D01*
X116077922Y-93772696D01*
X116113301Y-93706508D01*
X116135087Y-93634689D01*
X116139477Y-93590112D01*
X128680000Y-93590112D01*
X128680000Y-93709484D01*
X128703288Y-93826562D01*
X128748970Y-93936847D01*
X128815289Y-94036100D01*
X128899698Y-94120509D01*
X128998951Y-94186828D01*
X129109236Y-94232510D01*
X129226314Y-94255798D01*
X129345686Y-94255798D01*
X129462764Y-94232510D01*
X129573049Y-94186828D01*
X129672302Y-94120509D01*
X129756711Y-94036100D01*
X129823030Y-93936847D01*
X129868712Y-93826562D01*
X129892000Y-93709484D01*
X129892000Y-93590112D01*
X129868712Y-93473034D01*
X129823030Y-93362749D01*
X129756711Y-93263496D01*
X129672302Y-93179087D01*
X129573049Y-93112768D01*
X129462764Y-93067086D01*
X129345686Y-93043798D01*
X129226314Y-93043798D01*
X129109236Y-93067086D01*
X128998951Y-93112768D01*
X128899698Y-93179087D01*
X128815289Y-93263496D01*
X128748970Y-93362749D01*
X128703288Y-93473034D01*
X128680000Y-93590112D01*
X116139477Y-93590112D01*
X116142443Y-93560000D01*
X116142443Y-92664531D01*
X148815074Y-92664531D01*
X148925921Y-92941714D01*
X149236840Y-93095089D01*
X149571705Y-93184860D01*
X149917650Y-93207576D01*
X150261380Y-93162366D01*
X150589685Y-93050966D01*
X150794079Y-92941714D01*
X150904926Y-92664531D01*
X153895074Y-92664531D01*
X154005921Y-92941714D01*
X154316840Y-93095089D01*
X154651705Y-93184860D01*
X154997650Y-93207576D01*
X155341380Y-93162366D01*
X155669685Y-93050966D01*
X155874079Y-92941714D01*
X155984926Y-92664531D01*
X154940000Y-91619605D01*
X153895074Y-92664531D01*
X150904926Y-92664531D01*
X149860000Y-91619605D01*
X148815074Y-92664531D01*
X116142443Y-92664531D01*
X116142443Y-91860000D01*
X116135087Y-91785311D01*
X116113301Y-91713492D01*
X116077922Y-91647304D01*
X116030311Y-91589289D01*
X115972296Y-91541678D01*
X115906108Y-91506299D01*
X115834289Y-91484513D01*
X115759600Y-91477157D01*
X114059600Y-91477157D01*
X113984911Y-91484513D01*
X113913092Y-91506299D01*
X113846904Y-91541678D01*
X113788889Y-91589289D01*
X113741278Y-91647304D01*
X113705899Y-91713492D01*
X113684113Y-91785311D01*
X113676757Y-91860000D01*
X105955760Y-91860000D01*
X105956072Y-90848085D01*
X108495000Y-90848085D01*
X108495000Y-91015915D01*
X108527742Y-91180519D01*
X108591968Y-91335573D01*
X108685209Y-91475118D01*
X108803882Y-91593791D01*
X108943427Y-91687032D01*
X109098481Y-91751258D01*
X109263085Y-91784000D01*
X109430915Y-91784000D01*
X109595519Y-91751258D01*
X109750573Y-91687032D01*
X109890118Y-91593791D01*
X110008791Y-91475118D01*
X110102032Y-91335573D01*
X110152011Y-91214914D01*
X120996198Y-91214914D01*
X120996198Y-91334286D01*
X121019486Y-91451364D01*
X121065168Y-91561649D01*
X121131487Y-91660902D01*
X121215896Y-91745311D01*
X121315149Y-91811630D01*
X121425434Y-91857312D01*
X121542512Y-91880600D01*
X121661884Y-91880600D01*
X121778962Y-91857312D01*
X121875825Y-91817189D01*
X121886961Y-91824630D01*
X121997246Y-91870312D01*
X122114324Y-91893600D01*
X122233696Y-91893600D01*
X122350774Y-91870312D01*
X122461059Y-91824630D01*
X122560312Y-91758311D01*
X122644721Y-91673902D01*
X122711040Y-91574649D01*
X122742934Y-91497650D01*
X148092424Y-91497650D01*
X148137634Y-91841380D01*
X148249034Y-92169685D01*
X148358286Y-92374079D01*
X148635469Y-92484926D01*
X149680395Y-91440000D01*
X150039605Y-91440000D01*
X151084531Y-92484926D01*
X151361714Y-92374079D01*
X151515089Y-92063160D01*
X151604860Y-91728295D01*
X151620004Y-91497650D01*
X153172424Y-91497650D01*
X153217634Y-91841380D01*
X153329034Y-92169685D01*
X153438286Y-92374079D01*
X153715469Y-92484926D01*
X154760395Y-91440000D01*
X153715469Y-90395074D01*
X153438286Y-90505921D01*
X153284911Y-90816840D01*
X153195140Y-91151705D01*
X153172424Y-91497650D01*
X151620004Y-91497650D01*
X151627576Y-91382350D01*
X151582366Y-91038620D01*
X151470966Y-90710315D01*
X151361714Y-90505921D01*
X151084531Y-90395074D01*
X150039605Y-91440000D01*
X149680395Y-91440000D01*
X148635469Y-90395074D01*
X148358286Y-90505921D01*
X148204911Y-90816840D01*
X148115140Y-91151705D01*
X148092424Y-91497650D01*
X122742934Y-91497650D01*
X122756722Y-91464364D01*
X122780010Y-91347286D01*
X122780010Y-91227914D01*
X122756722Y-91110836D01*
X122711040Y-91000551D01*
X122644721Y-90901298D01*
X122560312Y-90816889D01*
X122461059Y-90750570D01*
X122350774Y-90704888D01*
X122298650Y-90694520D01*
X129442000Y-90694520D01*
X129442000Y-90813892D01*
X129465288Y-90930970D01*
X129510970Y-91041255D01*
X129577289Y-91140508D01*
X129661698Y-91224917D01*
X129760951Y-91291236D01*
X129871236Y-91336918D01*
X129988314Y-91360206D01*
X130107686Y-91360206D01*
X130224764Y-91336918D01*
X130335049Y-91291236D01*
X130434302Y-91224917D01*
X130518711Y-91140508D01*
X130585030Y-91041255D01*
X130630712Y-90930970D01*
X130654000Y-90813892D01*
X130654000Y-90694520D01*
X130630712Y-90577442D01*
X130585030Y-90467157D01*
X130518711Y-90367904D01*
X130434302Y-90283495D01*
X130335049Y-90217176D01*
X130330928Y-90215469D01*
X148815074Y-90215469D01*
X149860000Y-91260395D01*
X150904926Y-90215469D01*
X150794079Y-89938286D01*
X150483160Y-89784911D01*
X150148295Y-89695140D01*
X149802350Y-89672424D01*
X149458620Y-89717634D01*
X149130315Y-89829034D01*
X148925921Y-89938286D01*
X148815074Y-90215469D01*
X130330928Y-90215469D01*
X130224764Y-90171494D01*
X130107686Y-90148206D01*
X129988314Y-90148206D01*
X129871236Y-90171494D01*
X129760951Y-90217176D01*
X129661698Y-90283495D01*
X129577289Y-90367904D01*
X129510970Y-90467157D01*
X129465288Y-90577442D01*
X129442000Y-90694520D01*
X122298650Y-90694520D01*
X122233696Y-90681600D01*
X122114324Y-90681600D01*
X121997246Y-90704888D01*
X121900383Y-90745011D01*
X121889247Y-90737570D01*
X121778962Y-90691888D01*
X121661884Y-90668600D01*
X121542512Y-90668600D01*
X121425434Y-90691888D01*
X121315149Y-90737570D01*
X121215896Y-90803889D01*
X121131487Y-90888298D01*
X121065168Y-90987551D01*
X121019486Y-91097836D01*
X120996198Y-91214914D01*
X110152011Y-91214914D01*
X110166258Y-91180519D01*
X110199000Y-91015915D01*
X110199000Y-90848085D01*
X110166258Y-90683481D01*
X110102032Y-90528427D01*
X110008791Y-90388882D01*
X109890118Y-90270209D01*
X109750573Y-90176968D01*
X109595519Y-90112742D01*
X109430915Y-90080000D01*
X109263085Y-90080000D01*
X109098481Y-90112742D01*
X108943427Y-90176968D01*
X108803882Y-90270209D01*
X108685209Y-90388882D01*
X108591968Y-90528427D01*
X108527742Y-90683481D01*
X108495000Y-90848085D01*
X105956072Y-90848085D01*
X105956716Y-88751672D01*
X150894000Y-88751672D01*
X150894000Y-89048328D01*
X150951875Y-89339284D01*
X151065400Y-89613359D01*
X151230213Y-89860019D01*
X151439981Y-90069787D01*
X151686641Y-90234600D01*
X151960716Y-90348125D01*
X152251672Y-90406000D01*
X152548328Y-90406000D01*
X152839284Y-90348125D01*
X153113359Y-90234600D01*
X153141990Y-90215469D01*
X153895074Y-90215469D01*
X154940000Y-91260395D01*
X155984926Y-90215469D01*
X155874079Y-89938286D01*
X155563160Y-89784911D01*
X155228295Y-89695140D01*
X154882350Y-89672424D01*
X154538620Y-89717634D01*
X154210315Y-89829034D01*
X154005921Y-89938286D01*
X153895074Y-90215469D01*
X153141990Y-90215469D01*
X153360019Y-90069787D01*
X153569787Y-89860019D01*
X153734600Y-89613359D01*
X153848125Y-89339284D01*
X153906000Y-89048328D01*
X153906000Y-88751672D01*
X153848125Y-88460716D01*
X153734600Y-88186641D01*
X153569787Y-87939981D01*
X153360019Y-87730213D01*
X153141991Y-87584531D01*
X153895074Y-87584531D01*
X154005921Y-87861714D01*
X154316840Y-88015089D01*
X154651705Y-88104860D01*
X154997650Y-88127576D01*
X155341380Y-88082366D01*
X155669685Y-87970966D01*
X155874079Y-87861714D01*
X155984926Y-87584531D01*
X154940000Y-86539605D01*
X153895074Y-87584531D01*
X153141991Y-87584531D01*
X153113359Y-87565400D01*
X152839284Y-87451875D01*
X152548328Y-87394000D01*
X152251672Y-87394000D01*
X151960716Y-87451875D01*
X151686641Y-87565400D01*
X151439981Y-87730213D01*
X151230213Y-87939981D01*
X151065400Y-88186641D01*
X150951875Y-88460716D01*
X150894000Y-88751672D01*
X105956716Y-88751672D01*
X105957075Y-87584531D01*
X148815074Y-87584531D01*
X148925921Y-87861714D01*
X149236840Y-88015089D01*
X149571705Y-88104860D01*
X149917650Y-88127576D01*
X150261380Y-88082366D01*
X150589685Y-87970966D01*
X150794079Y-87861714D01*
X150904926Y-87584531D01*
X149860000Y-86539605D01*
X148815074Y-87584531D01*
X105957075Y-87584531D01*
X105957434Y-86417650D01*
X148092424Y-86417650D01*
X148137634Y-86761380D01*
X148249034Y-87089685D01*
X148358286Y-87294079D01*
X148635469Y-87404926D01*
X149680395Y-86360000D01*
X150039605Y-86360000D01*
X151084531Y-87404926D01*
X151361714Y-87294079D01*
X151515089Y-86983160D01*
X151604860Y-86648295D01*
X151620004Y-86417650D01*
X153172424Y-86417650D01*
X153217634Y-86761380D01*
X153329034Y-87089685D01*
X153438286Y-87294079D01*
X153715469Y-87404926D01*
X154760395Y-86360000D01*
X153715469Y-85315074D01*
X153438286Y-85425921D01*
X153284911Y-85736840D01*
X153195140Y-86071705D01*
X153172424Y-86417650D01*
X151620004Y-86417650D01*
X151627576Y-86302350D01*
X151582366Y-85958620D01*
X151470966Y-85630315D01*
X151361714Y-85425921D01*
X151084531Y-85315074D01*
X150039605Y-86360000D01*
X149680395Y-86360000D01*
X148635469Y-85315074D01*
X148358286Y-85425921D01*
X148204911Y-85736840D01*
X148115140Y-86071705D01*
X148092424Y-86417650D01*
X105957434Y-86417650D01*
X105957986Y-84625085D01*
X113422600Y-84625085D01*
X113422600Y-84792915D01*
X113455342Y-84957519D01*
X113519568Y-85112573D01*
X113612809Y-85252118D01*
X113731482Y-85370791D01*
X113871027Y-85464032D01*
X114026081Y-85528258D01*
X114190685Y-85561000D01*
X114358515Y-85561000D01*
X114523119Y-85528258D01*
X114678173Y-85464032D01*
X114817718Y-85370791D01*
X114936391Y-85252118D01*
X115029632Y-85112573D01*
X115093858Y-84957519D01*
X115126600Y-84792915D01*
X115126600Y-84625085D01*
X115093858Y-84460481D01*
X115029632Y-84305427D01*
X114973820Y-84221897D01*
X126159067Y-84221897D01*
X126159067Y-84341269D01*
X126182355Y-84458347D01*
X126228037Y-84568632D01*
X126294356Y-84667885D01*
X126378765Y-84752294D01*
X126478018Y-84818613D01*
X126588303Y-84864295D01*
X126705381Y-84887583D01*
X126824753Y-84887583D01*
X126941831Y-84864295D01*
X127052116Y-84818613D01*
X127151369Y-84752294D01*
X127235778Y-84667885D01*
X127302097Y-84568632D01*
X127321279Y-84522322D01*
X127763479Y-84522322D01*
X127763479Y-84641694D01*
X127786767Y-84758772D01*
X127832449Y-84869057D01*
X127898768Y-84968310D01*
X127983177Y-85052719D01*
X128082430Y-85119038D01*
X128192715Y-85164720D01*
X128309793Y-85188008D01*
X128429165Y-85188008D01*
X128546243Y-85164720D01*
X128616860Y-85135469D01*
X148815074Y-85135469D01*
X149860000Y-86180395D01*
X150904926Y-85135469D01*
X153895074Y-85135469D01*
X154940000Y-86180395D01*
X155984926Y-85135469D01*
X155874079Y-84858286D01*
X155563160Y-84704911D01*
X155228295Y-84615140D01*
X154882350Y-84592424D01*
X154538620Y-84637634D01*
X154210315Y-84749034D01*
X154005921Y-84858286D01*
X153895074Y-85135469D01*
X150904926Y-85135469D01*
X150794079Y-84858286D01*
X150483160Y-84704911D01*
X150148295Y-84615140D01*
X149802350Y-84592424D01*
X149458620Y-84637634D01*
X149130315Y-84749034D01*
X148925921Y-84858286D01*
X148815074Y-85135469D01*
X128616860Y-85135469D01*
X128656528Y-85119038D01*
X128755781Y-85052719D01*
X128840190Y-84968310D01*
X128906509Y-84869057D01*
X128952191Y-84758772D01*
X128975479Y-84641694D01*
X128975479Y-84522322D01*
X128952191Y-84405244D01*
X128906509Y-84294959D01*
X128840190Y-84195706D01*
X128755781Y-84111297D01*
X128656528Y-84044978D01*
X128546243Y-83999296D01*
X128429165Y-83976008D01*
X128309793Y-83976008D01*
X128192715Y-83999296D01*
X128082430Y-84044978D01*
X127983177Y-84111297D01*
X127898768Y-84195706D01*
X127832449Y-84294959D01*
X127786767Y-84405244D01*
X127763479Y-84522322D01*
X127321279Y-84522322D01*
X127347779Y-84458347D01*
X127371067Y-84341269D01*
X127371067Y-84221897D01*
X127347779Y-84104819D01*
X127302097Y-83994534D01*
X127235778Y-83895281D01*
X127227811Y-83887314D01*
X144809000Y-83887314D01*
X144809000Y-84006686D01*
X144832288Y-84123764D01*
X144877970Y-84234049D01*
X144944289Y-84333302D01*
X145028698Y-84417711D01*
X145127951Y-84484030D01*
X145238236Y-84529712D01*
X145355314Y-84553000D01*
X145474686Y-84553000D01*
X145591764Y-84529712D01*
X145702049Y-84484030D01*
X145801302Y-84417711D01*
X145885711Y-84333302D01*
X145952030Y-84234049D01*
X145997712Y-84123764D01*
X146021000Y-84006686D01*
X146021000Y-83887314D01*
X145997712Y-83770236D01*
X145952030Y-83659951D01*
X145885711Y-83560698D01*
X145801302Y-83476289D01*
X145702049Y-83409970D01*
X145591764Y-83364288D01*
X145474686Y-83341000D01*
X145355314Y-83341000D01*
X145238236Y-83364288D01*
X145127951Y-83409970D01*
X145028698Y-83476289D01*
X144944289Y-83560698D01*
X144877970Y-83659951D01*
X144832288Y-83770236D01*
X144809000Y-83887314D01*
X127227811Y-83887314D01*
X127151369Y-83810872D01*
X127052116Y-83744553D01*
X126941831Y-83698871D01*
X126824753Y-83675583D01*
X126705381Y-83675583D01*
X126588303Y-83698871D01*
X126478018Y-83744553D01*
X126378765Y-83810872D01*
X126294356Y-83895281D01*
X126228037Y-83994534D01*
X126182355Y-84104819D01*
X126159067Y-84221897D01*
X114973820Y-84221897D01*
X114936391Y-84165882D01*
X114817718Y-84047209D01*
X114678173Y-83953968D01*
X114523119Y-83889742D01*
X114358515Y-83857000D01*
X114190685Y-83857000D01*
X114026081Y-83889742D01*
X113871027Y-83953968D01*
X113731482Y-84047209D01*
X113612809Y-84165882D01*
X113519568Y-84305427D01*
X113455342Y-84460481D01*
X113422600Y-84625085D01*
X105957986Y-84625085D01*
X105958639Y-82504531D01*
X106270074Y-82504531D01*
X106380921Y-82781714D01*
X106691840Y-82935089D01*
X107026705Y-83024860D01*
X107372650Y-83047576D01*
X107716380Y-83002366D01*
X108044685Y-82890966D01*
X108249079Y-82781714D01*
X108359926Y-82504531D01*
X111350074Y-82504531D01*
X111460921Y-82781714D01*
X111771840Y-82935089D01*
X112106705Y-83024860D01*
X112452650Y-83047576D01*
X112796380Y-83002366D01*
X113124685Y-82890966D01*
X113329079Y-82781714D01*
X113439926Y-82504531D01*
X112395000Y-81459605D01*
X111350074Y-82504531D01*
X108359926Y-82504531D01*
X107315000Y-81459605D01*
X106270074Y-82504531D01*
X105958639Y-82504531D01*
X105958711Y-82272235D01*
X106090469Y-82324926D01*
X107135395Y-81280000D01*
X107494605Y-81280000D01*
X108539531Y-82324926D01*
X108816714Y-82214079D01*
X108970089Y-81903160D01*
X109059860Y-81568295D01*
X109075004Y-81337650D01*
X110627424Y-81337650D01*
X110672634Y-81681380D01*
X110784034Y-82009685D01*
X110893286Y-82214079D01*
X111170469Y-82324926D01*
X112215395Y-81280000D01*
X112574605Y-81280000D01*
X113619531Y-82324926D01*
X113896714Y-82214079D01*
X113910804Y-82185514D01*
X118240600Y-82185514D01*
X118240600Y-82304886D01*
X118263888Y-82421964D01*
X118309570Y-82532249D01*
X118375889Y-82631502D01*
X118460298Y-82715911D01*
X118559551Y-82782230D01*
X118669836Y-82827912D01*
X118786914Y-82851200D01*
X118906286Y-82851200D01*
X119023364Y-82827912D01*
X119133649Y-82782230D01*
X119232902Y-82715911D01*
X119317311Y-82631502D01*
X119383630Y-82532249D01*
X119429312Y-82421964D01*
X119452600Y-82304886D01*
X119452600Y-82210920D01*
X123015800Y-82210920D01*
X123015800Y-82330292D01*
X123039088Y-82447370D01*
X123084770Y-82557655D01*
X123151089Y-82656908D01*
X123235498Y-82741317D01*
X123334751Y-82807636D01*
X123445036Y-82853318D01*
X123562114Y-82876606D01*
X123681486Y-82876606D01*
X123798564Y-82853318D01*
X123908849Y-82807636D01*
X124008102Y-82741317D01*
X124092511Y-82656908D01*
X124158830Y-82557655D01*
X124204512Y-82447370D01*
X124227800Y-82330292D01*
X124227800Y-82261714D01*
X131550200Y-82261714D01*
X131550200Y-82381086D01*
X131573488Y-82498164D01*
X131619170Y-82608449D01*
X131685489Y-82707702D01*
X131769898Y-82792111D01*
X131869151Y-82858430D01*
X131979436Y-82904112D01*
X132096514Y-82927400D01*
X132215886Y-82927400D01*
X132332964Y-82904112D01*
X132443249Y-82858430D01*
X132542502Y-82792111D01*
X132626911Y-82707702D01*
X132693230Y-82608449D01*
X132738912Y-82498164D01*
X132762200Y-82381086D01*
X132762200Y-82261714D01*
X132738912Y-82144636D01*
X132693230Y-82034351D01*
X132626911Y-81935098D01*
X132542502Y-81850689D01*
X132443249Y-81784370D01*
X132332964Y-81738688D01*
X132215886Y-81715400D01*
X132096514Y-81715400D01*
X131979436Y-81738688D01*
X131869151Y-81784370D01*
X131769898Y-81850689D01*
X131685489Y-81935098D01*
X131619170Y-82034351D01*
X131573488Y-82144636D01*
X131550200Y-82261714D01*
X124227800Y-82261714D01*
X124227800Y-82210920D01*
X124204512Y-82093842D01*
X124158830Y-81983557D01*
X124092511Y-81884304D01*
X124008102Y-81799895D01*
X123908849Y-81733576D01*
X123798564Y-81687894D01*
X123681486Y-81664606D01*
X123562114Y-81664606D01*
X123445036Y-81687894D01*
X123334751Y-81733576D01*
X123235498Y-81799895D01*
X123151089Y-81884304D01*
X123084770Y-81983557D01*
X123039088Y-82093842D01*
X123015800Y-82210920D01*
X119452600Y-82210920D01*
X119452600Y-82185514D01*
X119429312Y-82068436D01*
X119383630Y-81958151D01*
X119317311Y-81858898D01*
X119232902Y-81774489D01*
X119133649Y-81708170D01*
X119023364Y-81662488D01*
X118906286Y-81639200D01*
X118786914Y-81639200D01*
X118669836Y-81662488D01*
X118559551Y-81708170D01*
X118460298Y-81774489D01*
X118375889Y-81858898D01*
X118309570Y-81958151D01*
X118263888Y-82068436D01*
X118240600Y-82185514D01*
X113910804Y-82185514D01*
X114050089Y-81903160D01*
X114139860Y-81568295D01*
X114162576Y-81222350D01*
X114117366Y-80878620D01*
X114005966Y-80550315D01*
X113896714Y-80345921D01*
X113619531Y-80235074D01*
X112574605Y-81280000D01*
X112215395Y-81280000D01*
X111170469Y-80235074D01*
X110893286Y-80345921D01*
X110739911Y-80656840D01*
X110650140Y-80991705D01*
X110627424Y-81337650D01*
X109075004Y-81337650D01*
X109082576Y-81222350D01*
X109037366Y-80878620D01*
X108925966Y-80550315D01*
X108816714Y-80345921D01*
X108539531Y-80235074D01*
X107494605Y-81280000D01*
X107135395Y-81280000D01*
X106090469Y-80235074D01*
X105959321Y-80287521D01*
X105959392Y-80055469D01*
X106270074Y-80055469D01*
X107315000Y-81100395D01*
X108359926Y-80055469D01*
X108249079Y-79778286D01*
X107938160Y-79624911D01*
X107603295Y-79535140D01*
X107257350Y-79512424D01*
X106913620Y-79557634D01*
X106585315Y-79669034D01*
X106380921Y-79778286D01*
X106270074Y-80055469D01*
X105959392Y-80055469D01*
X105959849Y-78567443D01*
X108103000Y-78567443D01*
X108103000Y-78912557D01*
X108170329Y-79251039D01*
X108302398Y-79569883D01*
X108494133Y-79856835D01*
X108738165Y-80100867D01*
X109025117Y-80292602D01*
X109343961Y-80424671D01*
X109682443Y-80492000D01*
X110027557Y-80492000D01*
X110366039Y-80424671D01*
X110684883Y-80292602D01*
X110971835Y-80100867D01*
X111017233Y-80055469D01*
X111350074Y-80055469D01*
X112395000Y-81100395D01*
X113439926Y-80055469D01*
X113397874Y-79950314D01*
X124489000Y-79950314D01*
X124489000Y-80069686D01*
X124512288Y-80186764D01*
X124557970Y-80297049D01*
X124624289Y-80396302D01*
X124708698Y-80480711D01*
X124807951Y-80547030D01*
X124918236Y-80592712D01*
X125035314Y-80616000D01*
X125154686Y-80616000D01*
X125271764Y-80592712D01*
X125382049Y-80547030D01*
X125481302Y-80480711D01*
X125565711Y-80396302D01*
X125632030Y-80297049D01*
X125677712Y-80186764D01*
X125694029Y-80104734D01*
X125747751Y-80140630D01*
X125858036Y-80186312D01*
X125975114Y-80209600D01*
X126094486Y-80209600D01*
X126211564Y-80186312D01*
X126321849Y-80140630D01*
X126421102Y-80074311D01*
X126505511Y-79989902D01*
X126571830Y-79890649D01*
X126617512Y-79780364D01*
X126640800Y-79663286D01*
X126640800Y-79543914D01*
X126625644Y-79467714D01*
X128222798Y-79467714D01*
X128222798Y-79587086D01*
X128246086Y-79704164D01*
X128291768Y-79814449D01*
X128358087Y-79913702D01*
X128442496Y-79998111D01*
X128541749Y-80064430D01*
X128652034Y-80110112D01*
X128769112Y-80133400D01*
X128888484Y-80133400D01*
X129005562Y-80110112D01*
X129115847Y-80064430D01*
X129196799Y-80010339D01*
X130832370Y-80010339D01*
X130832370Y-80129711D01*
X130855658Y-80246789D01*
X130901340Y-80357074D01*
X130967659Y-80456327D01*
X131052068Y-80540736D01*
X131151321Y-80607055D01*
X131261606Y-80652737D01*
X131378684Y-80676025D01*
X131498056Y-80676025D01*
X131615134Y-80652737D01*
X131725419Y-80607055D01*
X131824672Y-80540736D01*
X131909081Y-80456327D01*
X131975400Y-80357074D01*
X131990590Y-80320403D01*
X131998498Y-80328311D01*
X132097751Y-80394630D01*
X132208036Y-80440312D01*
X132325114Y-80463600D01*
X132444486Y-80463600D01*
X132561564Y-80440312D01*
X132671849Y-80394630D01*
X132771102Y-80328311D01*
X132855511Y-80243902D01*
X132921830Y-80144649D01*
X132967512Y-80034364D01*
X132990800Y-79917286D01*
X132990800Y-79797914D01*
X132967512Y-79680836D01*
X132921830Y-79570551D01*
X132855511Y-79471298D01*
X132771102Y-79386889D01*
X132671849Y-79320570D01*
X132561564Y-79274888D01*
X132444486Y-79251600D01*
X132325114Y-79251600D01*
X132208036Y-79274888D01*
X132097751Y-79320570D01*
X131998498Y-79386889D01*
X131914089Y-79471298D01*
X131847770Y-79570551D01*
X131832580Y-79607222D01*
X131824672Y-79599314D01*
X131725419Y-79532995D01*
X131615134Y-79487313D01*
X131498056Y-79464025D01*
X131378684Y-79464025D01*
X131261606Y-79487313D01*
X131151321Y-79532995D01*
X131052068Y-79599314D01*
X130967659Y-79683723D01*
X130901340Y-79782976D01*
X130855658Y-79893261D01*
X130832370Y-80010339D01*
X129196799Y-80010339D01*
X129215100Y-79998111D01*
X129299509Y-79913702D01*
X129365828Y-79814449D01*
X129411510Y-79704164D01*
X129434798Y-79587086D01*
X129434798Y-79467714D01*
X129411510Y-79350636D01*
X129365828Y-79240351D01*
X129299509Y-79141098D01*
X129215100Y-79056689D01*
X129115847Y-78990370D01*
X129005562Y-78944688D01*
X128888484Y-78921400D01*
X128769112Y-78921400D01*
X128652034Y-78944688D01*
X128541749Y-78990370D01*
X128442496Y-79056689D01*
X128358087Y-79141098D01*
X128291768Y-79240351D01*
X128246086Y-79350636D01*
X128222798Y-79467714D01*
X126625644Y-79467714D01*
X126617512Y-79426836D01*
X126571830Y-79316551D01*
X126505511Y-79217298D01*
X126421102Y-79132889D01*
X126321849Y-79066570D01*
X126211564Y-79020888D01*
X126094486Y-78997600D01*
X125975114Y-78997600D01*
X125858036Y-79020888D01*
X125747751Y-79066570D01*
X125648498Y-79132889D01*
X125564089Y-79217298D01*
X125497770Y-79316551D01*
X125452088Y-79426836D01*
X125435771Y-79508866D01*
X125382049Y-79472970D01*
X125271764Y-79427288D01*
X125154686Y-79404000D01*
X125035314Y-79404000D01*
X124918236Y-79427288D01*
X124807951Y-79472970D01*
X124708698Y-79539289D01*
X124624289Y-79623698D01*
X124557970Y-79722951D01*
X124512288Y-79833236D01*
X124489000Y-79950314D01*
X113397874Y-79950314D01*
X113329079Y-79778286D01*
X113018160Y-79624911D01*
X112683295Y-79535140D01*
X112337350Y-79512424D01*
X111993620Y-79557634D01*
X111665315Y-79669034D01*
X111460921Y-79778286D01*
X111350074Y-80055469D01*
X111017233Y-80055469D01*
X111215867Y-79856835D01*
X111407602Y-79569883D01*
X111539671Y-79251039D01*
X111607000Y-78912557D01*
X111607000Y-78567443D01*
X111539671Y-78228961D01*
X111407602Y-77910117D01*
X111215867Y-77623165D01*
X111017233Y-77424531D01*
X111350074Y-77424531D01*
X111460921Y-77701714D01*
X111771840Y-77855089D01*
X112106705Y-77944860D01*
X112452650Y-77967576D01*
X112796380Y-77922366D01*
X112996265Y-77854541D01*
X122065064Y-77854541D01*
X122075575Y-78047763D01*
X122245603Y-78118562D01*
X122426176Y-78154828D01*
X122610355Y-78155171D01*
X122724710Y-78132644D01*
X122751742Y-78268541D01*
X122815968Y-78423595D01*
X122909209Y-78563140D01*
X123027882Y-78681813D01*
X123167427Y-78775054D01*
X123322481Y-78839280D01*
X123487085Y-78872022D01*
X123654915Y-78872022D01*
X123819519Y-78839280D01*
X123974573Y-78775054D01*
X124045999Y-78727328D01*
X129905716Y-78727328D01*
X129905716Y-78846700D01*
X129929004Y-78963778D01*
X129974686Y-79074063D01*
X130041005Y-79173316D01*
X130125414Y-79257725D01*
X130224667Y-79324044D01*
X130334952Y-79369726D01*
X130452030Y-79393014D01*
X130571402Y-79393014D01*
X130688480Y-79369726D01*
X130798765Y-79324044D01*
X130898018Y-79257725D01*
X130982427Y-79173316D01*
X131048746Y-79074063D01*
X131094428Y-78963778D01*
X131117716Y-78846700D01*
X131117716Y-78727328D01*
X131094428Y-78610250D01*
X131048746Y-78499965D01*
X130982427Y-78400712D01*
X130898018Y-78316303D01*
X130836332Y-78275085D01*
X132866300Y-78275085D01*
X132866300Y-78442915D01*
X132899042Y-78607519D01*
X132963268Y-78762573D01*
X133056509Y-78902118D01*
X133175182Y-79020791D01*
X133314727Y-79114032D01*
X133469781Y-79178258D01*
X133634385Y-79211000D01*
X133802215Y-79211000D01*
X133966819Y-79178258D01*
X134121873Y-79114032D01*
X134261418Y-79020791D01*
X134380091Y-78902118D01*
X134473332Y-78762573D01*
X134537558Y-78607519D01*
X134570300Y-78442915D01*
X134570300Y-78275085D01*
X134552686Y-78186531D01*
X148815074Y-78186531D01*
X148925921Y-78463714D01*
X149236840Y-78617089D01*
X149571705Y-78706860D01*
X149917650Y-78729576D01*
X150261380Y-78684366D01*
X150589685Y-78572966D01*
X150794079Y-78463714D01*
X150904926Y-78186531D01*
X153895074Y-78186531D01*
X154005921Y-78463714D01*
X154316840Y-78617089D01*
X154651705Y-78706860D01*
X154997650Y-78729576D01*
X155341380Y-78684366D01*
X155669685Y-78572966D01*
X155874079Y-78463714D01*
X155984926Y-78186531D01*
X154940000Y-77141605D01*
X153895074Y-78186531D01*
X150904926Y-78186531D01*
X149860000Y-77141605D01*
X148815074Y-78186531D01*
X134552686Y-78186531D01*
X134537558Y-78110481D01*
X134473332Y-77955427D01*
X134469740Y-77950052D01*
X134474936Y-77854541D01*
X134020000Y-77399605D01*
X134005858Y-77413748D01*
X133826253Y-77234143D01*
X133840395Y-77220000D01*
X134199605Y-77220000D01*
X134654541Y-77674936D01*
X134847763Y-77664425D01*
X134918562Y-77494397D01*
X134954828Y-77313824D01*
X134955171Y-77129645D01*
X134919574Y-76948939D01*
X134879432Y-76851514D01*
X146663200Y-76851514D01*
X146663200Y-76970886D01*
X146686488Y-77087964D01*
X146732170Y-77198249D01*
X146798489Y-77297502D01*
X146882898Y-77381911D01*
X146982151Y-77448230D01*
X147092436Y-77493912D01*
X147209514Y-77517200D01*
X147328886Y-77517200D01*
X147445964Y-77493912D01*
X147556249Y-77448230D01*
X147655502Y-77381911D01*
X147739911Y-77297502D01*
X147806230Y-77198249D01*
X147851912Y-77087964D01*
X147865500Y-77019650D01*
X148092424Y-77019650D01*
X148137634Y-77363380D01*
X148249034Y-77691685D01*
X148358286Y-77896079D01*
X148635469Y-78006926D01*
X149680395Y-76962000D01*
X150039605Y-76962000D01*
X151084531Y-78006926D01*
X151361714Y-77896079D01*
X151515089Y-77585160D01*
X151604860Y-77250295D01*
X151620004Y-77019650D01*
X153172424Y-77019650D01*
X153217634Y-77363380D01*
X153329034Y-77691685D01*
X153438286Y-77896079D01*
X153715469Y-78006926D01*
X154760395Y-76962000D01*
X153715469Y-75917074D01*
X153438286Y-76027921D01*
X153284911Y-76338840D01*
X153195140Y-76673705D01*
X153172424Y-77019650D01*
X151620004Y-77019650D01*
X151627576Y-76904350D01*
X151582366Y-76560620D01*
X151470966Y-76232315D01*
X151361714Y-76027921D01*
X151084531Y-75917074D01*
X150039605Y-76962000D01*
X149680395Y-76962000D01*
X148635469Y-75917074D01*
X148358286Y-76027921D01*
X148204911Y-76338840D01*
X148115140Y-76673705D01*
X148092424Y-77019650D01*
X147865500Y-77019650D01*
X147875200Y-76970886D01*
X147875200Y-76851514D01*
X147851912Y-76734436D01*
X147806230Y-76624151D01*
X147739911Y-76524898D01*
X147655502Y-76440489D01*
X147556249Y-76374170D01*
X147445964Y-76328488D01*
X147328886Y-76305200D01*
X147209514Y-76305200D01*
X147092436Y-76328488D01*
X146982151Y-76374170D01*
X146882898Y-76440489D01*
X146798489Y-76524898D01*
X146732170Y-76624151D01*
X146686488Y-76734436D01*
X146663200Y-76851514D01*
X134879432Y-76851514D01*
X134849408Y-76778649D01*
X134847763Y-76775575D01*
X134654541Y-76765064D01*
X134199605Y-77220000D01*
X133840395Y-77220000D01*
X133385459Y-76765064D01*
X133192237Y-76775575D01*
X133121438Y-76945603D01*
X133085172Y-77126176D01*
X133084829Y-77310355D01*
X133120426Y-77491061D01*
X133190592Y-77661351D01*
X133192237Y-77664425D01*
X133221837Y-77666035D01*
X133175182Y-77697209D01*
X133056509Y-77815882D01*
X132963268Y-77955427D01*
X132899042Y-78110481D01*
X132866300Y-78275085D01*
X130836332Y-78275085D01*
X130798765Y-78249984D01*
X130688480Y-78204302D01*
X130571402Y-78181014D01*
X130452030Y-78181014D01*
X130334952Y-78204302D01*
X130224667Y-78249984D01*
X130125414Y-78316303D01*
X130041005Y-78400712D01*
X129974686Y-78499965D01*
X129929004Y-78610250D01*
X129905716Y-78727328D01*
X124045999Y-78727328D01*
X124114118Y-78681813D01*
X124232791Y-78563140D01*
X124326032Y-78423595D01*
X124390258Y-78268541D01*
X124423000Y-78103937D01*
X124423000Y-77936107D01*
X124390258Y-77771503D01*
X124326032Y-77616449D01*
X124305229Y-77585314D01*
X126317800Y-77585314D01*
X126317800Y-77704686D01*
X126341088Y-77821764D01*
X126386770Y-77932049D01*
X126453089Y-78031302D01*
X126537498Y-78115711D01*
X126636751Y-78182030D01*
X126747036Y-78227712D01*
X126864114Y-78251000D01*
X126983486Y-78251000D01*
X127100564Y-78227712D01*
X127210849Y-78182030D01*
X127310102Y-78115711D01*
X127394511Y-78031302D01*
X127460830Y-77932049D01*
X127506512Y-77821764D01*
X127529800Y-77704686D01*
X127529800Y-77588114D01*
X128070400Y-77588114D01*
X128070400Y-77707486D01*
X128093688Y-77824564D01*
X128139370Y-77934849D01*
X128205689Y-78034102D01*
X128290098Y-78118511D01*
X128389351Y-78184830D01*
X128499636Y-78230512D01*
X128616714Y-78253800D01*
X128736086Y-78253800D01*
X128853164Y-78230512D01*
X128963449Y-78184830D01*
X128989869Y-78167177D01*
X129036725Y-78237302D01*
X129121134Y-78321711D01*
X129220387Y-78388030D01*
X129330672Y-78433712D01*
X129447750Y-78457000D01*
X129567122Y-78457000D01*
X129684200Y-78433712D01*
X129794485Y-78388030D01*
X129893738Y-78321711D01*
X129978147Y-78237302D01*
X130044466Y-78138049D01*
X130090148Y-78027764D01*
X130113436Y-77910686D01*
X130113436Y-77791314D01*
X130090148Y-77674236D01*
X130044466Y-77563951D01*
X129978147Y-77464698D01*
X129893738Y-77380289D01*
X129794485Y-77313970D01*
X129684200Y-77268288D01*
X129567122Y-77245000D01*
X129447750Y-77245000D01*
X129330672Y-77268288D01*
X129220387Y-77313970D01*
X129193967Y-77331623D01*
X129147111Y-77261498D01*
X129062702Y-77177089D01*
X128963449Y-77110770D01*
X128853164Y-77065088D01*
X128736086Y-77041800D01*
X128616714Y-77041800D01*
X128499636Y-77065088D01*
X128389351Y-77110770D01*
X128290098Y-77177089D01*
X128205689Y-77261498D01*
X128139370Y-77360751D01*
X128093688Y-77471036D01*
X128070400Y-77588114D01*
X127529800Y-77588114D01*
X127529800Y-77585314D01*
X127506512Y-77468236D01*
X127460830Y-77357951D01*
X127394511Y-77258698D01*
X127310102Y-77174289D01*
X127210849Y-77107970D01*
X127100564Y-77062288D01*
X126983486Y-77039000D01*
X126864114Y-77039000D01*
X126747036Y-77062288D01*
X126636751Y-77107970D01*
X126537498Y-77174289D01*
X126453089Y-77258698D01*
X126386770Y-77357951D01*
X126341088Y-77468236D01*
X126317800Y-77585314D01*
X124305229Y-77585314D01*
X124232791Y-77476904D01*
X124114118Y-77358231D01*
X123974573Y-77264990D01*
X123819519Y-77200764D01*
X123654915Y-77168022D01*
X123487085Y-77168022D01*
X123455088Y-77174387D01*
X123455171Y-77129645D01*
X123419574Y-76948939D01*
X123349408Y-76778649D01*
X123347763Y-76775575D01*
X123154541Y-76765064D01*
X122699605Y-77220000D01*
X122713748Y-77234143D01*
X122534143Y-77413748D01*
X122520000Y-77399605D01*
X122065064Y-77854541D01*
X112996265Y-77854541D01*
X113124685Y-77810966D01*
X113329079Y-77701714D01*
X113439926Y-77424531D01*
X113325750Y-77310355D01*
X121584829Y-77310355D01*
X121620426Y-77491061D01*
X121690592Y-77661351D01*
X121692237Y-77664425D01*
X121885459Y-77674936D01*
X122340395Y-77220000D01*
X121885459Y-76765064D01*
X121692237Y-76775575D01*
X121621438Y-76945603D01*
X121585172Y-77126176D01*
X121584829Y-77310355D01*
X113325750Y-77310355D01*
X112395000Y-76379605D01*
X111350074Y-77424531D01*
X111017233Y-77424531D01*
X110971835Y-77379133D01*
X110684883Y-77187398D01*
X110366039Y-77055329D01*
X110027557Y-76988000D01*
X109682443Y-76988000D01*
X109343961Y-77055329D01*
X109025117Y-77187398D01*
X108738165Y-77379133D01*
X108494133Y-77623165D01*
X108302398Y-77910117D01*
X108170329Y-78228961D01*
X108103000Y-78567443D01*
X105959849Y-78567443D01*
X105960201Y-77424531D01*
X106270074Y-77424531D01*
X106380921Y-77701714D01*
X106691840Y-77855089D01*
X107026705Y-77944860D01*
X107372650Y-77967576D01*
X107716380Y-77922366D01*
X108044685Y-77810966D01*
X108249079Y-77701714D01*
X108359926Y-77424531D01*
X107315000Y-76379605D01*
X106270074Y-77424531D01*
X105960201Y-77424531D01*
X105960273Y-77192860D01*
X106090469Y-77244926D01*
X107135395Y-76200000D01*
X107494605Y-76200000D01*
X108539531Y-77244926D01*
X108816714Y-77134079D01*
X108970089Y-76823160D01*
X109059860Y-76488295D01*
X109075004Y-76257650D01*
X110627424Y-76257650D01*
X110672634Y-76601380D01*
X110784034Y-76929685D01*
X110893286Y-77134079D01*
X111170469Y-77244926D01*
X112215395Y-76200000D01*
X112574605Y-76200000D01*
X113619531Y-77244926D01*
X113896714Y-77134079D01*
X114050089Y-76823160D01*
X114113812Y-76585459D01*
X122065064Y-76585459D01*
X122520000Y-77040395D01*
X122974936Y-76585459D01*
X133565064Y-76585459D01*
X134020000Y-77040395D01*
X134474936Y-76585459D01*
X134464425Y-76392237D01*
X134294397Y-76321438D01*
X134113824Y-76285172D01*
X133929645Y-76284829D01*
X133748939Y-76320426D01*
X133578649Y-76390592D01*
X133575575Y-76392237D01*
X133565064Y-76585459D01*
X122974936Y-76585459D01*
X122964425Y-76392237D01*
X122794397Y-76321438D01*
X122613824Y-76285172D01*
X122429645Y-76284829D01*
X122248939Y-76320426D01*
X122078649Y-76390592D01*
X122075575Y-76392237D01*
X122065064Y-76585459D01*
X114113812Y-76585459D01*
X114139860Y-76488295D01*
X114162576Y-76142350D01*
X114117366Y-75798620D01*
X114096617Y-75737469D01*
X148815074Y-75737469D01*
X149860000Y-76782395D01*
X150904926Y-75737469D01*
X150794079Y-75460286D01*
X150483160Y-75306911D01*
X150148295Y-75217140D01*
X149802350Y-75194424D01*
X149458620Y-75239634D01*
X149130315Y-75351034D01*
X148925921Y-75460286D01*
X148815074Y-75737469D01*
X114096617Y-75737469D01*
X114005966Y-75470315D01*
X113896714Y-75265921D01*
X113619531Y-75155074D01*
X112574605Y-76200000D01*
X112215395Y-76200000D01*
X111170469Y-75155074D01*
X110893286Y-75265921D01*
X110739911Y-75576840D01*
X110650140Y-75911705D01*
X110627424Y-76257650D01*
X109075004Y-76257650D01*
X109082576Y-76142350D01*
X109037366Y-75798620D01*
X108925966Y-75470315D01*
X108816714Y-75265921D01*
X108539531Y-75155074D01*
X107494605Y-76200000D01*
X107135395Y-76200000D01*
X106090469Y-75155074D01*
X105960884Y-75206896D01*
X105960955Y-74975469D01*
X106270074Y-74975469D01*
X107315000Y-76020395D01*
X108359926Y-74975469D01*
X111350074Y-74975469D01*
X112395000Y-76020395D01*
X113439926Y-74975469D01*
X113329079Y-74698286D01*
X113162899Y-74616310D01*
X118012000Y-74616310D01*
X118012000Y-74735682D01*
X118035288Y-74852760D01*
X118080970Y-74963045D01*
X118147289Y-75062298D01*
X118231698Y-75146707D01*
X118330951Y-75213026D01*
X118441236Y-75258708D01*
X118558314Y-75281996D01*
X118677686Y-75281996D01*
X118794764Y-75258708D01*
X118905049Y-75213026D01*
X119004302Y-75146707D01*
X119088711Y-75062298D01*
X119155030Y-74963045D01*
X119200712Y-74852760D01*
X119224000Y-74735682D01*
X119224000Y-74616314D01*
X120806000Y-74616314D01*
X120806000Y-74735686D01*
X120829288Y-74852764D01*
X120874970Y-74963049D01*
X120941289Y-75062302D01*
X121025698Y-75146711D01*
X121124951Y-75213030D01*
X121235236Y-75258712D01*
X121352314Y-75282000D01*
X121471686Y-75282000D01*
X121588764Y-75258712D01*
X121699049Y-75213030D01*
X121798302Y-75146711D01*
X121882711Y-75062302D01*
X121949030Y-74963049D01*
X121994712Y-74852764D01*
X122018000Y-74735686D01*
X122018000Y-74616314D01*
X121994712Y-74499236D01*
X121949030Y-74388951D01*
X121882711Y-74289698D01*
X121798302Y-74205289D01*
X121699049Y-74138970D01*
X121588764Y-74093288D01*
X121471686Y-74070000D01*
X121352314Y-74070000D01*
X121235236Y-74093288D01*
X121124951Y-74138970D01*
X121025698Y-74205289D01*
X120941289Y-74289698D01*
X120874970Y-74388951D01*
X120829288Y-74499236D01*
X120806000Y-74616314D01*
X119224000Y-74616314D01*
X119224000Y-74616310D01*
X119200712Y-74499232D01*
X119155030Y-74388947D01*
X119088711Y-74289694D01*
X119004302Y-74205285D01*
X118905049Y-74138966D01*
X118794764Y-74093284D01*
X118677686Y-74069996D01*
X118558314Y-74069996D01*
X118441236Y-74093284D01*
X118330951Y-74138966D01*
X118231698Y-74205285D01*
X118147289Y-74289694D01*
X118080970Y-74388947D01*
X118035288Y-74499232D01*
X118012000Y-74616310D01*
X113162899Y-74616310D01*
X113018160Y-74544911D01*
X112683295Y-74455140D01*
X112337350Y-74432424D01*
X111993620Y-74477634D01*
X111665315Y-74589034D01*
X111460921Y-74698286D01*
X111350074Y-74975469D01*
X108359926Y-74975469D01*
X108249079Y-74698286D01*
X107938160Y-74544911D01*
X107603295Y-74455140D01*
X107257350Y-74432424D01*
X106913620Y-74477634D01*
X106585315Y-74589034D01*
X106380921Y-74698286D01*
X106270074Y-74975469D01*
X105960955Y-74975469D01*
X105961275Y-73931685D01*
X124243000Y-73931685D01*
X124243000Y-74099515D01*
X124275742Y-74264119D01*
X124339968Y-74419173D01*
X124433209Y-74558718D01*
X124551882Y-74677391D01*
X124691427Y-74770632D01*
X124846481Y-74834858D01*
X125011085Y-74867600D01*
X125178915Y-74867600D01*
X125343519Y-74834858D01*
X125498573Y-74770632D01*
X125638118Y-74677391D01*
X125756791Y-74558718D01*
X125850032Y-74419173D01*
X125914258Y-74264119D01*
X125947000Y-74099515D01*
X125947000Y-73931685D01*
X127418000Y-73931685D01*
X127418000Y-74099515D01*
X127450742Y-74264119D01*
X127514968Y-74419173D01*
X127608209Y-74558718D01*
X127726882Y-74677391D01*
X127866427Y-74770632D01*
X128021481Y-74834858D01*
X128186085Y-74867600D01*
X128353915Y-74867600D01*
X128518519Y-74834858D01*
X128673573Y-74770632D01*
X128813118Y-74677391D01*
X128931791Y-74558718D01*
X129025032Y-74419173D01*
X129089258Y-74264119D01*
X129122000Y-74099515D01*
X129122000Y-73931685D01*
X130593000Y-73931685D01*
X130593000Y-74099515D01*
X130625742Y-74264119D01*
X130689968Y-74419173D01*
X130783209Y-74558718D01*
X130901882Y-74677391D01*
X131041427Y-74770632D01*
X131196481Y-74834858D01*
X131361085Y-74867600D01*
X131528915Y-74867600D01*
X131693519Y-74834858D01*
X131848573Y-74770632D01*
X131988118Y-74677391D01*
X132075605Y-74589904D01*
X134649000Y-74589904D01*
X134649000Y-74709276D01*
X134672288Y-74826354D01*
X134717970Y-74936639D01*
X134784289Y-75035892D01*
X134868698Y-75120301D01*
X134967951Y-75186620D01*
X135078236Y-75232302D01*
X135195314Y-75255590D01*
X135314686Y-75255590D01*
X135431764Y-75232302D01*
X135542049Y-75186620D01*
X135641302Y-75120301D01*
X135673594Y-75088009D01*
X135683698Y-75098113D01*
X135782951Y-75164432D01*
X135893236Y-75210114D01*
X136010314Y-75233402D01*
X136129686Y-75233402D01*
X136246764Y-75210114D01*
X136357049Y-75164432D01*
X136456302Y-75098113D01*
X136524505Y-75029910D01*
X136570441Y-75060604D01*
X136680726Y-75106286D01*
X136797804Y-75129574D01*
X136917176Y-75129574D01*
X137034254Y-75106286D01*
X137144539Y-75060604D01*
X137243792Y-74994285D01*
X137328201Y-74909876D01*
X137394520Y-74810623D01*
X137440202Y-74700338D01*
X137463490Y-74583260D01*
X137463490Y-74463888D01*
X137440202Y-74346810D01*
X137409907Y-74273672D01*
X150894000Y-74273672D01*
X150894000Y-74570328D01*
X150951875Y-74861284D01*
X151065400Y-75135359D01*
X151230213Y-75382019D01*
X151439981Y-75591787D01*
X151686641Y-75756600D01*
X151960716Y-75870125D01*
X152251672Y-75928000D01*
X152548328Y-75928000D01*
X152839284Y-75870125D01*
X153113359Y-75756600D01*
X153141990Y-75737469D01*
X153895074Y-75737469D01*
X154940000Y-76782395D01*
X155984926Y-75737469D01*
X155874079Y-75460286D01*
X155563160Y-75306911D01*
X155228295Y-75217140D01*
X154882350Y-75194424D01*
X154538620Y-75239634D01*
X154210315Y-75351034D01*
X154005921Y-75460286D01*
X153895074Y-75737469D01*
X153141990Y-75737469D01*
X153360019Y-75591787D01*
X153569787Y-75382019D01*
X153734600Y-75135359D01*
X153848125Y-74861284D01*
X153906000Y-74570328D01*
X153906000Y-74273672D01*
X153848125Y-73982716D01*
X153734600Y-73708641D01*
X153569787Y-73461981D01*
X153360019Y-73252213D01*
X153141991Y-73106531D01*
X153895074Y-73106531D01*
X154005921Y-73383714D01*
X154316840Y-73537089D01*
X154651705Y-73626860D01*
X154997650Y-73649576D01*
X155341380Y-73604366D01*
X155669685Y-73492966D01*
X155874079Y-73383714D01*
X155984926Y-73106531D01*
X154940000Y-72061605D01*
X153895074Y-73106531D01*
X153141991Y-73106531D01*
X153113359Y-73087400D01*
X152839284Y-72973875D01*
X152548328Y-72916000D01*
X152251672Y-72916000D01*
X151960716Y-72973875D01*
X151686641Y-73087400D01*
X151439981Y-73252213D01*
X151230213Y-73461981D01*
X151065400Y-73708641D01*
X150951875Y-73982716D01*
X150894000Y-74273672D01*
X137409907Y-74273672D01*
X137394520Y-74236525D01*
X137328201Y-74137272D01*
X137243792Y-74052863D01*
X137144539Y-73986544D01*
X137034254Y-73940862D01*
X136917176Y-73917574D01*
X136797804Y-73917574D01*
X136680726Y-73940862D01*
X136570441Y-73986544D01*
X136471188Y-74052863D01*
X136402985Y-74121066D01*
X136357049Y-74090372D01*
X136246764Y-74044690D01*
X136129686Y-74021402D01*
X136010314Y-74021402D01*
X135893236Y-74044690D01*
X135782951Y-74090372D01*
X135683698Y-74156691D01*
X135651406Y-74188983D01*
X135641302Y-74178879D01*
X135542049Y-74112560D01*
X135431764Y-74066878D01*
X135314686Y-74043590D01*
X135195314Y-74043590D01*
X135078236Y-74066878D01*
X134967951Y-74112560D01*
X134868698Y-74178879D01*
X134784289Y-74263288D01*
X134717970Y-74362541D01*
X134672288Y-74472826D01*
X134649000Y-74589904D01*
X132075605Y-74589904D01*
X132106791Y-74558718D01*
X132200032Y-74419173D01*
X132264258Y-74264119D01*
X132297000Y-74099515D01*
X132297000Y-73931685D01*
X132264258Y-73767081D01*
X132200032Y-73612027D01*
X132106791Y-73472482D01*
X131988118Y-73353809D01*
X131848573Y-73260568D01*
X131693519Y-73196342D01*
X131528915Y-73163600D01*
X131361085Y-73163600D01*
X131196481Y-73196342D01*
X131041427Y-73260568D01*
X130901882Y-73353809D01*
X130783209Y-73472482D01*
X130689968Y-73612027D01*
X130625742Y-73767081D01*
X130593000Y-73931685D01*
X129122000Y-73931685D01*
X129089258Y-73767081D01*
X129025032Y-73612027D01*
X128931791Y-73472482D01*
X128813118Y-73353809D01*
X128673573Y-73260568D01*
X128518519Y-73196342D01*
X128353915Y-73163600D01*
X128186085Y-73163600D01*
X128021481Y-73196342D01*
X127866427Y-73260568D01*
X127726882Y-73353809D01*
X127608209Y-73472482D01*
X127514968Y-73612027D01*
X127450742Y-73767081D01*
X127418000Y-73931685D01*
X125947000Y-73931685D01*
X125914258Y-73767081D01*
X125850032Y-73612027D01*
X125756791Y-73472482D01*
X125638118Y-73353809D01*
X125498573Y-73260568D01*
X125343519Y-73196342D01*
X125178915Y-73163600D01*
X125011085Y-73163600D01*
X124846481Y-73196342D01*
X124691427Y-73260568D01*
X124551882Y-73353809D01*
X124433209Y-73472482D01*
X124339968Y-73612027D01*
X124275742Y-73767081D01*
X124243000Y-73931685D01*
X105961275Y-73931685D01*
X105961640Y-72746890D01*
X106508524Y-72746890D01*
X106553175Y-72894099D01*
X106678359Y-73156920D01*
X106852412Y-73390269D01*
X107068645Y-73585178D01*
X107318748Y-73734157D01*
X107593109Y-73831481D01*
X107823000Y-73710814D01*
X107823000Y-72517000D01*
X108077000Y-72517000D01*
X108077000Y-73710814D01*
X108306891Y-73831481D01*
X108581252Y-73734157D01*
X108831355Y-73585178D01*
X109047588Y-73390269D01*
X109221641Y-73156920D01*
X109245641Y-73106531D01*
X148815074Y-73106531D01*
X148925921Y-73383714D01*
X149236840Y-73537089D01*
X149571705Y-73626860D01*
X149917650Y-73649576D01*
X150261380Y-73604366D01*
X150589685Y-73492966D01*
X150794079Y-73383714D01*
X150904926Y-73106531D01*
X149860000Y-72061605D01*
X148815074Y-73106531D01*
X109245641Y-73106531D01*
X109346825Y-72894099D01*
X109391476Y-72746890D01*
X109270155Y-72517000D01*
X108077000Y-72517000D01*
X107823000Y-72517000D01*
X106629845Y-72517000D01*
X106508524Y-72746890D01*
X105961640Y-72746890D01*
X105961859Y-72033110D01*
X106508524Y-72033110D01*
X106629845Y-72263000D01*
X107823000Y-72263000D01*
X107823000Y-72243000D01*
X108077000Y-72243000D01*
X108077000Y-72263000D01*
X109270155Y-72263000D01*
X109391476Y-72033110D01*
X109366064Y-71949328D01*
X117504000Y-71949328D01*
X117504000Y-72068700D01*
X117527288Y-72185778D01*
X117572970Y-72296063D01*
X117639289Y-72395316D01*
X117723698Y-72479725D01*
X117822951Y-72546044D01*
X117933236Y-72591726D01*
X118050314Y-72615014D01*
X118169686Y-72615014D01*
X118286764Y-72591726D01*
X118397049Y-72546044D01*
X118496302Y-72479725D01*
X118580711Y-72395316D01*
X118647030Y-72296063D01*
X118692712Y-72185778D01*
X118716000Y-72068700D01*
X118716000Y-71949328D01*
X118692712Y-71832250D01*
X118688597Y-71822314D01*
X118774000Y-71822314D01*
X118774000Y-71941686D01*
X118797288Y-72058764D01*
X118842970Y-72169049D01*
X118909289Y-72268302D01*
X118993698Y-72352711D01*
X119092951Y-72419030D01*
X119203236Y-72464712D01*
X119320314Y-72488000D01*
X119439686Y-72488000D01*
X119556764Y-72464712D01*
X119667049Y-72419030D01*
X119766302Y-72352711D01*
X119850711Y-72268302D01*
X119887999Y-72212496D01*
X119925289Y-72268304D01*
X120009698Y-72352713D01*
X120108951Y-72419032D01*
X120219236Y-72464714D01*
X120336314Y-72488002D01*
X120455686Y-72488002D01*
X120572764Y-72464714D01*
X120683049Y-72419032D01*
X120782302Y-72352713D01*
X120866711Y-72268304D01*
X120933030Y-72169051D01*
X120978712Y-72058766D01*
X121002000Y-71941688D01*
X121002000Y-71822316D01*
X120978712Y-71705238D01*
X120933030Y-71594953D01*
X120866711Y-71495700D01*
X120782302Y-71411291D01*
X120683049Y-71344972D01*
X120572764Y-71299290D01*
X120455686Y-71276002D01*
X120336314Y-71276002D01*
X120219236Y-71299290D01*
X120108951Y-71344972D01*
X120009698Y-71411291D01*
X119925289Y-71495700D01*
X119888001Y-71551506D01*
X119850711Y-71495698D01*
X119766302Y-71411289D01*
X119667049Y-71344970D01*
X119556764Y-71299288D01*
X119439686Y-71276000D01*
X119320314Y-71276000D01*
X119203236Y-71299288D01*
X119092951Y-71344970D01*
X118993698Y-71411289D01*
X118909289Y-71495698D01*
X118842970Y-71594951D01*
X118797288Y-71705236D01*
X118774000Y-71822314D01*
X118688597Y-71822314D01*
X118647030Y-71721965D01*
X118580711Y-71622712D01*
X118496302Y-71538303D01*
X118397049Y-71471984D01*
X118286764Y-71426302D01*
X118169686Y-71403014D01*
X118050314Y-71403014D01*
X117933236Y-71426302D01*
X117822951Y-71471984D01*
X117723698Y-71538303D01*
X117639289Y-71622712D01*
X117572970Y-71721965D01*
X117527288Y-71832250D01*
X117504000Y-71949328D01*
X109366064Y-71949328D01*
X109346825Y-71885901D01*
X109221641Y-71623080D01*
X109047588Y-71389731D01*
X108831355Y-71194822D01*
X108581252Y-71045843D01*
X108553744Y-71036085D01*
X124243000Y-71036085D01*
X124243000Y-71203915D01*
X124275742Y-71368519D01*
X124339968Y-71523573D01*
X124433209Y-71663118D01*
X124551882Y-71781791D01*
X124691427Y-71875032D01*
X124846481Y-71939258D01*
X125011085Y-71972000D01*
X125178915Y-71972000D01*
X125343519Y-71939258D01*
X125498573Y-71875032D01*
X125638118Y-71781791D01*
X125756791Y-71663118D01*
X125850032Y-71523573D01*
X125914258Y-71368519D01*
X125947000Y-71203915D01*
X125947000Y-71036085D01*
X127418000Y-71036085D01*
X127418000Y-71203915D01*
X127450742Y-71368519D01*
X127514968Y-71523573D01*
X127608209Y-71663118D01*
X127726882Y-71781791D01*
X127866427Y-71875032D01*
X128021481Y-71939258D01*
X128186085Y-71972000D01*
X128353915Y-71972000D01*
X128518519Y-71939258D01*
X128673573Y-71875032D01*
X128813118Y-71781791D01*
X128931791Y-71663118D01*
X129025032Y-71523573D01*
X129089258Y-71368519D01*
X129122000Y-71203915D01*
X129122000Y-71036085D01*
X130593000Y-71036085D01*
X130593000Y-71203915D01*
X130625742Y-71368519D01*
X130689968Y-71523573D01*
X130783209Y-71663118D01*
X130901882Y-71781791D01*
X131041427Y-71875032D01*
X131196481Y-71939258D01*
X131361085Y-71972000D01*
X131528915Y-71972000D01*
X131693519Y-71939258D01*
X131848573Y-71875032D01*
X131988118Y-71781791D01*
X132106791Y-71663118D01*
X132170137Y-71568314D01*
X134903000Y-71568314D01*
X134903000Y-71687686D01*
X134926288Y-71804764D01*
X134971970Y-71915049D01*
X135038289Y-72014302D01*
X135122698Y-72098711D01*
X135221951Y-72165030D01*
X135332236Y-72210712D01*
X135449314Y-72234000D01*
X135568686Y-72234000D01*
X135685764Y-72210712D01*
X135796049Y-72165030D01*
X135895302Y-72098711D01*
X135979711Y-72014302D01*
X136046030Y-71915049D01*
X136091712Y-71804764D01*
X136113482Y-71695314D01*
X137189000Y-71695314D01*
X137189000Y-71814686D01*
X137212288Y-71931764D01*
X137257970Y-72042049D01*
X137324289Y-72141302D01*
X137408698Y-72225711D01*
X137507951Y-72292030D01*
X137618236Y-72337712D01*
X137735314Y-72361000D01*
X137854686Y-72361000D01*
X137971764Y-72337712D01*
X138082049Y-72292030D01*
X138181302Y-72225711D01*
X138265711Y-72141302D01*
X138332030Y-72042049D01*
X138374445Y-71939650D01*
X148092424Y-71939650D01*
X148137634Y-72283380D01*
X148249034Y-72611685D01*
X148358286Y-72816079D01*
X148635469Y-72926926D01*
X149680395Y-71882000D01*
X150039605Y-71882000D01*
X151084531Y-72926926D01*
X151361714Y-72816079D01*
X151515089Y-72505160D01*
X151604860Y-72170295D01*
X151620004Y-71939650D01*
X153172424Y-71939650D01*
X153217634Y-72283380D01*
X153329034Y-72611685D01*
X153438286Y-72816079D01*
X153715469Y-72926926D01*
X154760395Y-71882000D01*
X153715469Y-70837074D01*
X153438286Y-70947921D01*
X153284911Y-71258840D01*
X153195140Y-71593705D01*
X153172424Y-71939650D01*
X151620004Y-71939650D01*
X151627576Y-71824350D01*
X151582366Y-71480620D01*
X151470966Y-71152315D01*
X151361714Y-70947921D01*
X151084531Y-70837074D01*
X150039605Y-71882000D01*
X149680395Y-71882000D01*
X148635469Y-70837074D01*
X148358286Y-70947921D01*
X148204911Y-71258840D01*
X148115140Y-71593705D01*
X148092424Y-71939650D01*
X138374445Y-71939650D01*
X138377712Y-71931764D01*
X138401000Y-71814686D01*
X138401000Y-71695314D01*
X138377712Y-71578236D01*
X138332030Y-71467951D01*
X138265711Y-71368698D01*
X138181302Y-71284289D01*
X138082049Y-71217970D01*
X137971764Y-71172288D01*
X137854686Y-71149000D01*
X137735314Y-71149000D01*
X137618236Y-71172288D01*
X137507951Y-71217970D01*
X137408698Y-71284289D01*
X137324289Y-71368698D01*
X137257970Y-71467951D01*
X137212288Y-71578236D01*
X137189000Y-71695314D01*
X136113482Y-71695314D01*
X136115000Y-71687686D01*
X136115000Y-71568314D01*
X136091712Y-71451236D01*
X136046030Y-71340951D01*
X135979711Y-71241698D01*
X135895302Y-71157289D01*
X135796049Y-71090970D01*
X135685764Y-71045288D01*
X135568686Y-71022000D01*
X135449314Y-71022000D01*
X135332236Y-71045288D01*
X135221951Y-71090970D01*
X135122698Y-71157289D01*
X135038289Y-71241698D01*
X134971970Y-71340951D01*
X134926288Y-71451236D01*
X134903000Y-71568314D01*
X132170137Y-71568314D01*
X132200032Y-71523573D01*
X132264258Y-71368519D01*
X132297000Y-71203915D01*
X132297000Y-71036085D01*
X132264258Y-70871481D01*
X132200032Y-70716427D01*
X132160638Y-70657469D01*
X148815074Y-70657469D01*
X149860000Y-71702395D01*
X150904926Y-70657469D01*
X153895074Y-70657469D01*
X154940000Y-71702395D01*
X155984926Y-70657469D01*
X155874079Y-70380286D01*
X155563160Y-70226911D01*
X155228295Y-70137140D01*
X154882350Y-70114424D01*
X154538620Y-70159634D01*
X154210315Y-70271034D01*
X154005921Y-70380286D01*
X153895074Y-70657469D01*
X150904926Y-70657469D01*
X150794079Y-70380286D01*
X150483160Y-70226911D01*
X150148295Y-70137140D01*
X149802350Y-70114424D01*
X149458620Y-70159634D01*
X149130315Y-70271034D01*
X148925921Y-70380286D01*
X148815074Y-70657469D01*
X132160638Y-70657469D01*
X132106791Y-70576882D01*
X131988118Y-70458209D01*
X131848573Y-70364968D01*
X131693519Y-70300742D01*
X131528915Y-70268000D01*
X131361085Y-70268000D01*
X131196481Y-70300742D01*
X131041427Y-70364968D01*
X130901882Y-70458209D01*
X130783209Y-70576882D01*
X130689968Y-70716427D01*
X130625742Y-70871481D01*
X130593000Y-71036085D01*
X129122000Y-71036085D01*
X129089258Y-70871481D01*
X129025032Y-70716427D01*
X128931791Y-70576882D01*
X128813118Y-70458209D01*
X128673573Y-70364968D01*
X128518519Y-70300742D01*
X128353915Y-70268000D01*
X128186085Y-70268000D01*
X128021481Y-70300742D01*
X127866427Y-70364968D01*
X127726882Y-70458209D01*
X127608209Y-70576882D01*
X127514968Y-70716427D01*
X127450742Y-70871481D01*
X127418000Y-71036085D01*
X125947000Y-71036085D01*
X125914258Y-70871481D01*
X125850032Y-70716427D01*
X125756791Y-70576882D01*
X125638118Y-70458209D01*
X125498573Y-70364968D01*
X125343519Y-70300742D01*
X125178915Y-70268000D01*
X125011085Y-70268000D01*
X124846481Y-70300742D01*
X124691427Y-70364968D01*
X124551882Y-70458209D01*
X124433209Y-70576882D01*
X124339968Y-70716427D01*
X124275742Y-70871481D01*
X124243000Y-71036085D01*
X108553744Y-71036085D01*
X108418832Y-70988228D01*
X108533097Y-70940898D01*
X108734717Y-70806180D01*
X108906180Y-70634717D01*
X109040898Y-70433097D01*
X109133693Y-70209069D01*
X109181000Y-69971243D01*
X109181000Y-69728757D01*
X109133693Y-69490931D01*
X109040898Y-69266903D01*
X108906180Y-69065283D01*
X108734717Y-68893820D01*
X108533097Y-68759102D01*
X108309069Y-68666307D01*
X108071243Y-68619000D01*
X107828757Y-68619000D01*
X107590931Y-68666307D01*
X107366903Y-68759102D01*
X107165283Y-68893820D01*
X106993820Y-69065283D01*
X106859102Y-69266903D01*
X106766307Y-69490931D01*
X106719000Y-69728757D01*
X106719000Y-69971243D01*
X106766307Y-70209069D01*
X106859102Y-70433097D01*
X106993820Y-70634717D01*
X107165283Y-70806180D01*
X107366903Y-70940898D01*
X107481168Y-70988228D01*
X107318748Y-71045843D01*
X107068645Y-71194822D01*
X106852412Y-71389731D01*
X106678359Y-71623080D01*
X106553175Y-71885901D01*
X106508524Y-72033110D01*
X105961859Y-72033110D01*
X105963349Y-67188757D01*
X106719000Y-67188757D01*
X106719000Y-67431243D01*
X106766307Y-67669069D01*
X106859102Y-67893097D01*
X106993820Y-68094717D01*
X107165283Y-68266180D01*
X107366903Y-68400898D01*
X107590931Y-68493693D01*
X107828757Y-68541000D01*
X108071243Y-68541000D01*
X108309069Y-68493693D01*
X108533097Y-68400898D01*
X108734717Y-68266180D01*
X108906180Y-68094717D01*
X109040898Y-67893097D01*
X109054157Y-67861085D01*
X124243000Y-67861085D01*
X124243000Y-68028915D01*
X124275742Y-68193519D01*
X124339968Y-68348573D01*
X124433209Y-68488118D01*
X124551882Y-68606791D01*
X124691427Y-68700032D01*
X124846481Y-68764258D01*
X125011085Y-68797000D01*
X125178915Y-68797000D01*
X125343519Y-68764258D01*
X125498573Y-68700032D01*
X125638118Y-68606791D01*
X125756791Y-68488118D01*
X125850032Y-68348573D01*
X125914258Y-68193519D01*
X125947000Y-68028915D01*
X125947000Y-67861085D01*
X127418000Y-67861085D01*
X127418000Y-68028915D01*
X127450742Y-68193519D01*
X127514968Y-68348573D01*
X127608209Y-68488118D01*
X127726882Y-68606791D01*
X127866427Y-68700032D01*
X128021481Y-68764258D01*
X128186085Y-68797000D01*
X128353915Y-68797000D01*
X128518519Y-68764258D01*
X128673573Y-68700032D01*
X128813118Y-68606791D01*
X128931791Y-68488118D01*
X129025032Y-68348573D01*
X129089258Y-68193519D01*
X129122000Y-68028915D01*
X129122000Y-67861085D01*
X130593000Y-67861085D01*
X130593000Y-68028915D01*
X130625742Y-68193519D01*
X130689968Y-68348573D01*
X130783209Y-68488118D01*
X130901882Y-68606791D01*
X131041427Y-68700032D01*
X131196481Y-68764258D01*
X131361085Y-68797000D01*
X131528915Y-68797000D01*
X131693519Y-68764258D01*
X131848573Y-68700032D01*
X131988118Y-68606791D01*
X132106791Y-68488118D01*
X132200032Y-68348573D01*
X132264258Y-68193519D01*
X132297000Y-68028915D01*
X132297000Y-67861085D01*
X132264258Y-67696481D01*
X132200032Y-67541427D01*
X132106791Y-67401882D01*
X131988118Y-67283209D01*
X131848573Y-67189968D01*
X131693519Y-67125742D01*
X131528915Y-67093000D01*
X131361085Y-67093000D01*
X131196481Y-67125742D01*
X131041427Y-67189968D01*
X130901882Y-67283209D01*
X130783209Y-67401882D01*
X130689968Y-67541427D01*
X130625742Y-67696481D01*
X130593000Y-67861085D01*
X129122000Y-67861085D01*
X129089258Y-67696481D01*
X129025032Y-67541427D01*
X128931791Y-67401882D01*
X128813118Y-67283209D01*
X128673573Y-67189968D01*
X128518519Y-67125742D01*
X128353915Y-67093000D01*
X128186085Y-67093000D01*
X128021481Y-67125742D01*
X127866427Y-67189968D01*
X127726882Y-67283209D01*
X127608209Y-67401882D01*
X127514968Y-67541427D01*
X127450742Y-67696481D01*
X127418000Y-67861085D01*
X125947000Y-67861085D01*
X125914258Y-67696481D01*
X125850032Y-67541427D01*
X125756791Y-67401882D01*
X125638118Y-67283209D01*
X125498573Y-67189968D01*
X125343519Y-67125742D01*
X125178915Y-67093000D01*
X125011085Y-67093000D01*
X124846481Y-67125742D01*
X124691427Y-67189968D01*
X124551882Y-67283209D01*
X124433209Y-67401882D01*
X124339968Y-67541427D01*
X124275742Y-67696481D01*
X124243000Y-67861085D01*
X109054157Y-67861085D01*
X109133693Y-67669069D01*
X109181000Y-67431243D01*
X109181000Y-67188757D01*
X109133693Y-66950931D01*
X109040898Y-66726903D01*
X108906180Y-66525283D01*
X108734717Y-66353820D01*
X108533097Y-66219102D01*
X108309069Y-66126307D01*
X108071243Y-66079000D01*
X107828757Y-66079000D01*
X107590931Y-66126307D01*
X107366903Y-66219102D01*
X107165283Y-66353820D01*
X106993820Y-66525283D01*
X106859102Y-66726903D01*
X106766307Y-66950931D01*
X106719000Y-67188757D01*
X105963349Y-67188757D01*
X105964130Y-64648757D01*
X106719000Y-64648757D01*
X106719000Y-64891243D01*
X106766307Y-65129069D01*
X106859102Y-65353097D01*
X106993820Y-65554717D01*
X107165283Y-65726180D01*
X107366903Y-65860898D01*
X107590931Y-65953693D01*
X107828757Y-66001000D01*
X108071243Y-66001000D01*
X108309069Y-65953693D01*
X108533097Y-65860898D01*
X108734717Y-65726180D01*
X108906180Y-65554717D01*
X109040898Y-65353097D01*
X109133693Y-65129069D01*
X109181000Y-64891243D01*
X109181000Y-64648757D01*
X109162329Y-64554889D01*
X117269000Y-64554889D01*
X117269000Y-64945111D01*
X117345129Y-65327836D01*
X117494461Y-65688355D01*
X117711257Y-66012814D01*
X117987186Y-66288743D01*
X118311645Y-66505539D01*
X118672164Y-66654871D01*
X119054889Y-66731000D01*
X119445111Y-66731000D01*
X119827836Y-66654871D01*
X120188355Y-66505539D01*
X120512814Y-66288743D01*
X120788743Y-66012814D01*
X121005539Y-65688355D01*
X121019545Y-65654541D01*
X122065064Y-65654541D01*
X122075575Y-65847763D01*
X122245603Y-65918562D01*
X122426176Y-65954828D01*
X122610355Y-65955171D01*
X122791061Y-65919574D01*
X122961351Y-65849408D01*
X122964425Y-65847763D01*
X122974936Y-65654541D01*
X133565064Y-65654541D01*
X133575575Y-65847763D01*
X133745603Y-65918562D01*
X133926176Y-65954828D01*
X134110355Y-65955171D01*
X134291061Y-65919574D01*
X134461351Y-65849408D01*
X134464425Y-65847763D01*
X134474936Y-65654541D01*
X134020000Y-65199605D01*
X133565064Y-65654541D01*
X122974936Y-65654541D01*
X122520000Y-65199605D01*
X122065064Y-65654541D01*
X121019545Y-65654541D01*
X121154871Y-65327836D01*
X121198130Y-65110355D01*
X121584829Y-65110355D01*
X121620426Y-65291061D01*
X121690592Y-65461351D01*
X121692237Y-65464425D01*
X121885459Y-65474936D01*
X122340395Y-65020000D01*
X122699605Y-65020000D01*
X123154541Y-65474936D01*
X123347763Y-65464425D01*
X123418562Y-65294397D01*
X123454828Y-65113824D01*
X123454834Y-65110355D01*
X133084829Y-65110355D01*
X133120426Y-65291061D01*
X133190592Y-65461351D01*
X133192237Y-65464425D01*
X133385459Y-65474936D01*
X133840395Y-65020000D01*
X134199605Y-65020000D01*
X134654541Y-65474936D01*
X134847763Y-65464425D01*
X134918562Y-65294397D01*
X134954828Y-65113824D01*
X134955171Y-64929645D01*
X134919574Y-64748939D01*
X134849408Y-64578649D01*
X134847763Y-64575575D01*
X134654541Y-64565064D01*
X134199605Y-65020000D01*
X133840395Y-65020000D01*
X133385459Y-64565064D01*
X133192237Y-64575575D01*
X133121438Y-64745603D01*
X133085172Y-64926176D01*
X133084829Y-65110355D01*
X123454834Y-65110355D01*
X123455171Y-64929645D01*
X123419574Y-64748939D01*
X123349408Y-64578649D01*
X123347763Y-64575575D01*
X123154541Y-64565064D01*
X122699605Y-65020000D01*
X122340395Y-65020000D01*
X121885459Y-64565064D01*
X121692237Y-64575575D01*
X121621438Y-64745603D01*
X121585172Y-64926176D01*
X121584829Y-65110355D01*
X121198130Y-65110355D01*
X121231000Y-64945111D01*
X121231000Y-64554889D01*
X121197299Y-64385459D01*
X122065064Y-64385459D01*
X122520000Y-64840395D01*
X122974936Y-64385459D01*
X133565064Y-64385459D01*
X134020000Y-64840395D01*
X134305506Y-64554889D01*
X135269000Y-64554889D01*
X135269000Y-64945111D01*
X135345129Y-65327836D01*
X135494461Y-65688355D01*
X135711257Y-66012814D01*
X135987186Y-66288743D01*
X136311645Y-66505539D01*
X136672164Y-66654871D01*
X137054889Y-66731000D01*
X137445111Y-66731000D01*
X137827836Y-66654871D01*
X138188355Y-66505539D01*
X138512814Y-66288743D01*
X138788743Y-66012814D01*
X139005539Y-65688355D01*
X139154871Y-65327836D01*
X139231000Y-64945111D01*
X139231000Y-64554889D01*
X139154871Y-64172164D01*
X139005539Y-63811645D01*
X138788743Y-63487186D01*
X138756088Y-63454531D01*
X148815074Y-63454531D01*
X148925921Y-63731714D01*
X149236840Y-63885089D01*
X149571705Y-63974860D01*
X149917650Y-63997576D01*
X150261380Y-63952366D01*
X150589685Y-63840966D01*
X150794079Y-63731714D01*
X150904926Y-63454531D01*
X153895074Y-63454531D01*
X154005921Y-63731714D01*
X154316840Y-63885089D01*
X154651705Y-63974860D01*
X154997650Y-63997576D01*
X155341380Y-63952366D01*
X155669685Y-63840966D01*
X155874079Y-63731714D01*
X155984926Y-63454531D01*
X154940000Y-62409605D01*
X153895074Y-63454531D01*
X150904926Y-63454531D01*
X149860000Y-62409605D01*
X148815074Y-63454531D01*
X138756088Y-63454531D01*
X138512814Y-63211257D01*
X138188355Y-62994461D01*
X137827836Y-62845129D01*
X137445111Y-62769000D01*
X137054889Y-62769000D01*
X136672164Y-62845129D01*
X136311645Y-62994461D01*
X135987186Y-63211257D01*
X135711257Y-63487186D01*
X135494461Y-63811645D01*
X135345129Y-64172164D01*
X135269000Y-64554889D01*
X134305506Y-64554889D01*
X134474936Y-64385459D01*
X134464425Y-64192237D01*
X134294397Y-64121438D01*
X134113824Y-64085172D01*
X133929645Y-64084829D01*
X133748939Y-64120426D01*
X133578649Y-64190592D01*
X133575575Y-64192237D01*
X133565064Y-64385459D01*
X122974936Y-64385459D01*
X122964425Y-64192237D01*
X122794397Y-64121438D01*
X122613824Y-64085172D01*
X122429645Y-64084829D01*
X122248939Y-64120426D01*
X122078649Y-64190592D01*
X122075575Y-64192237D01*
X122065064Y-64385459D01*
X121197299Y-64385459D01*
X121154871Y-64172164D01*
X121005539Y-63811645D01*
X120788743Y-63487186D01*
X120512814Y-63211257D01*
X120188355Y-62994461D01*
X119827836Y-62845129D01*
X119445111Y-62769000D01*
X119054889Y-62769000D01*
X118672164Y-62845129D01*
X118311645Y-62994461D01*
X117987186Y-63211257D01*
X117711257Y-63487186D01*
X117494461Y-63811645D01*
X117345129Y-64172164D01*
X117269000Y-64554889D01*
X109162329Y-64554889D01*
X109133693Y-64410931D01*
X109040898Y-64186903D01*
X108906180Y-63985283D01*
X108734717Y-63813820D01*
X108533097Y-63679102D01*
X108309069Y-63586307D01*
X108071243Y-63539000D01*
X107828757Y-63539000D01*
X107590931Y-63586307D01*
X107366903Y-63679102D01*
X107165283Y-63813820D01*
X106993820Y-63985283D01*
X106859102Y-64186903D01*
X106766307Y-64410931D01*
X106719000Y-64648757D01*
X105964130Y-64648757D01*
X105964911Y-62108757D01*
X106719000Y-62108757D01*
X106719000Y-62351243D01*
X106766307Y-62589069D01*
X106859102Y-62813097D01*
X106993820Y-63014717D01*
X107165283Y-63186180D01*
X107366903Y-63320898D01*
X107590931Y-63413693D01*
X107828757Y-63461000D01*
X108071243Y-63461000D01*
X108309069Y-63413693D01*
X108533097Y-63320898D01*
X108734717Y-63186180D01*
X108906180Y-63014717D01*
X109040898Y-62813097D01*
X109133693Y-62589069D01*
X109181000Y-62351243D01*
X109181000Y-62287650D01*
X148092424Y-62287650D01*
X148137634Y-62631380D01*
X148249034Y-62959685D01*
X148358286Y-63164079D01*
X148635469Y-63274926D01*
X149680395Y-62230000D01*
X150039605Y-62230000D01*
X151084531Y-63274926D01*
X151361714Y-63164079D01*
X151515089Y-62853160D01*
X151604860Y-62518295D01*
X151620004Y-62287650D01*
X153172424Y-62287650D01*
X153217634Y-62631380D01*
X153329034Y-62959685D01*
X153438286Y-63164079D01*
X153715469Y-63274926D01*
X154760395Y-62230000D01*
X153715469Y-61185074D01*
X153438286Y-61295921D01*
X153284911Y-61606840D01*
X153195140Y-61941705D01*
X153172424Y-62287650D01*
X151620004Y-62287650D01*
X151627576Y-62172350D01*
X151582366Y-61828620D01*
X151470966Y-61500315D01*
X151361714Y-61295921D01*
X151084531Y-61185074D01*
X150039605Y-62230000D01*
X149680395Y-62230000D01*
X148635469Y-61185074D01*
X148358286Y-61295921D01*
X148204911Y-61606840D01*
X148115140Y-61941705D01*
X148092424Y-62287650D01*
X109181000Y-62287650D01*
X109181000Y-62108757D01*
X109133693Y-61870931D01*
X109040898Y-61646903D01*
X108906180Y-61445283D01*
X108734717Y-61273820D01*
X108533097Y-61139102D01*
X108309069Y-61046307D01*
X108103765Y-61005469D01*
X148815074Y-61005469D01*
X149860000Y-62050395D01*
X150904926Y-61005469D01*
X150794079Y-60728286D01*
X150483160Y-60574911D01*
X150148295Y-60485140D01*
X149802350Y-60462424D01*
X149458620Y-60507634D01*
X149130315Y-60619034D01*
X148925921Y-60728286D01*
X148815074Y-61005469D01*
X108103765Y-61005469D01*
X108071243Y-60999000D01*
X107828757Y-60999000D01*
X107590931Y-61046307D01*
X107366903Y-61139102D01*
X107165283Y-61273820D01*
X106993820Y-61445283D01*
X106859102Y-61646903D01*
X106766307Y-61870931D01*
X106719000Y-62108757D01*
X105964911Y-62108757D01*
X105965917Y-58840000D01*
X106717157Y-58840000D01*
X106717157Y-60540000D01*
X106724513Y-60614689D01*
X106746299Y-60686508D01*
X106781678Y-60752696D01*
X106829289Y-60810711D01*
X106887304Y-60858322D01*
X106953492Y-60893701D01*
X107025311Y-60915487D01*
X107100000Y-60922843D01*
X108800000Y-60922843D01*
X108874689Y-60915487D01*
X108946508Y-60893701D01*
X109012696Y-60858322D01*
X109070711Y-60810711D01*
X109118322Y-60752696D01*
X109153701Y-60686508D01*
X109175487Y-60614689D01*
X109182843Y-60540000D01*
X109182843Y-59541672D01*
X150894000Y-59541672D01*
X150894000Y-59838328D01*
X150951875Y-60129284D01*
X151065400Y-60403359D01*
X151230213Y-60650019D01*
X151439981Y-60859787D01*
X151686641Y-61024600D01*
X151960716Y-61138125D01*
X152251672Y-61196000D01*
X152548328Y-61196000D01*
X152839284Y-61138125D01*
X153113359Y-61024600D01*
X153141990Y-61005469D01*
X153895074Y-61005469D01*
X154940000Y-62050395D01*
X155984926Y-61005469D01*
X155874079Y-60728286D01*
X155563160Y-60574911D01*
X155228295Y-60485140D01*
X154882350Y-60462424D01*
X154538620Y-60507634D01*
X154210315Y-60619034D01*
X154005921Y-60728286D01*
X153895074Y-61005469D01*
X153141990Y-61005469D01*
X153360019Y-60859787D01*
X153569787Y-60650019D01*
X153734600Y-60403359D01*
X153848125Y-60129284D01*
X153906000Y-59838328D01*
X153906000Y-59541672D01*
X153848125Y-59250716D01*
X153734600Y-58976641D01*
X153569787Y-58729981D01*
X153360019Y-58520213D01*
X153141991Y-58374531D01*
X153895074Y-58374531D01*
X154005921Y-58651714D01*
X154316840Y-58805089D01*
X154651705Y-58894860D01*
X154997650Y-58917576D01*
X155341380Y-58872366D01*
X155669685Y-58760966D01*
X155874079Y-58651714D01*
X155984926Y-58374531D01*
X154940000Y-57329605D01*
X153895074Y-58374531D01*
X153141991Y-58374531D01*
X153113359Y-58355400D01*
X152839284Y-58241875D01*
X152548328Y-58184000D01*
X152251672Y-58184000D01*
X151960716Y-58241875D01*
X151686641Y-58355400D01*
X151439981Y-58520213D01*
X151230213Y-58729981D01*
X151065400Y-58976641D01*
X150951875Y-59250716D01*
X150894000Y-59541672D01*
X109182843Y-59541672D01*
X109182843Y-58840000D01*
X109175487Y-58765311D01*
X109153701Y-58693492D01*
X109118322Y-58627304D01*
X109070711Y-58569289D01*
X109012696Y-58521678D01*
X108946508Y-58486299D01*
X108874689Y-58464513D01*
X108800000Y-58457157D01*
X107100000Y-58457157D01*
X107025311Y-58464513D01*
X106953492Y-58486299D01*
X106887304Y-58521678D01*
X106829289Y-58569289D01*
X106781678Y-58627304D01*
X106746299Y-58693492D01*
X106724513Y-58765311D01*
X106717157Y-58840000D01*
X105965917Y-58840000D01*
X105966059Y-58374531D01*
X148815074Y-58374531D01*
X148925921Y-58651714D01*
X149236840Y-58805089D01*
X149571705Y-58894860D01*
X149917650Y-58917576D01*
X150261380Y-58872366D01*
X150589685Y-58760966D01*
X150794079Y-58651714D01*
X150904926Y-58374531D01*
X149860000Y-57329605D01*
X148815074Y-58374531D01*
X105966059Y-58374531D01*
X105966418Y-57207650D01*
X148092424Y-57207650D01*
X148137634Y-57551380D01*
X148249034Y-57879685D01*
X148358286Y-58084079D01*
X148635469Y-58194926D01*
X149680395Y-57150000D01*
X150039605Y-57150000D01*
X151084531Y-58194926D01*
X151361714Y-58084079D01*
X151515089Y-57773160D01*
X151604860Y-57438295D01*
X151620004Y-57207650D01*
X153172424Y-57207650D01*
X153217634Y-57551380D01*
X153329034Y-57879685D01*
X153438286Y-58084079D01*
X153715469Y-58194926D01*
X154760395Y-57150000D01*
X153715469Y-56105074D01*
X153438286Y-56215921D01*
X153284911Y-56526840D01*
X153195140Y-56861705D01*
X153172424Y-57207650D01*
X151620004Y-57207650D01*
X151627576Y-57092350D01*
X151582366Y-56748620D01*
X151470966Y-56420315D01*
X151361714Y-56215921D01*
X151084531Y-56105074D01*
X150039605Y-57150000D01*
X149680395Y-57150000D01*
X148635469Y-56105074D01*
X148358286Y-56215921D01*
X148204911Y-56526840D01*
X148115140Y-56861705D01*
X148092424Y-57207650D01*
X105966418Y-57207650D01*
X105967479Y-53760000D01*
X129704157Y-53760000D01*
X129704157Y-55460000D01*
X129711513Y-55534689D01*
X129733299Y-55606508D01*
X129768678Y-55672696D01*
X129816289Y-55730711D01*
X129874304Y-55778322D01*
X129940492Y-55813701D01*
X130012311Y-55835487D01*
X130087000Y-55842843D01*
X131787000Y-55842843D01*
X131861689Y-55835487D01*
X131933508Y-55813701D01*
X131999696Y-55778322D01*
X132057711Y-55730711D01*
X132105322Y-55672696D01*
X132140701Y-55606508D01*
X132162487Y-55534689D01*
X132169843Y-55460000D01*
X132169843Y-54488757D01*
X132246000Y-54488757D01*
X132246000Y-54731243D01*
X132293307Y-54969069D01*
X132386102Y-55193097D01*
X132520820Y-55394717D01*
X132692283Y-55566180D01*
X132893903Y-55700898D01*
X133117931Y-55793693D01*
X133355757Y-55841000D01*
X133598243Y-55841000D01*
X133836069Y-55793693D01*
X134060097Y-55700898D01*
X134261717Y-55566180D01*
X134433180Y-55394717D01*
X134567898Y-55193097D01*
X134660693Y-54969069D01*
X134708000Y-54731243D01*
X134708000Y-54488757D01*
X134786000Y-54488757D01*
X134786000Y-54731243D01*
X134833307Y-54969069D01*
X134926102Y-55193097D01*
X135060820Y-55394717D01*
X135232283Y-55566180D01*
X135433903Y-55700898D01*
X135657931Y-55793693D01*
X135895757Y-55841000D01*
X136138243Y-55841000D01*
X136376069Y-55793693D01*
X136600097Y-55700898D01*
X136801717Y-55566180D01*
X136973180Y-55394717D01*
X137107898Y-55193097D01*
X137200693Y-54969069D01*
X137248000Y-54731243D01*
X137248000Y-54488757D01*
X137326000Y-54488757D01*
X137326000Y-54731243D01*
X137373307Y-54969069D01*
X137466102Y-55193097D01*
X137600820Y-55394717D01*
X137772283Y-55566180D01*
X137973903Y-55700898D01*
X138197931Y-55793693D01*
X138435757Y-55841000D01*
X138678243Y-55841000D01*
X138916069Y-55793693D01*
X139140097Y-55700898D01*
X139341717Y-55566180D01*
X139513180Y-55394717D01*
X139647898Y-55193097D01*
X139740693Y-54969069D01*
X139788000Y-54731243D01*
X139788000Y-54488757D01*
X139866000Y-54488757D01*
X139866000Y-54731243D01*
X139913307Y-54969069D01*
X140006102Y-55193097D01*
X140140820Y-55394717D01*
X140312283Y-55566180D01*
X140513903Y-55700898D01*
X140737931Y-55793693D01*
X140975757Y-55841000D01*
X141218243Y-55841000D01*
X141456069Y-55793693D01*
X141680097Y-55700898D01*
X141881717Y-55566180D01*
X142053180Y-55394717D01*
X142187898Y-55193097D01*
X142235228Y-55078832D01*
X142292843Y-55241252D01*
X142441822Y-55491355D01*
X142636731Y-55707588D01*
X142870080Y-55881641D01*
X143132901Y-56006825D01*
X143280110Y-56051476D01*
X143510000Y-55930155D01*
X143510000Y-54737000D01*
X143764000Y-54737000D01*
X143764000Y-55930155D01*
X143993890Y-56051476D01*
X144141099Y-56006825D01*
X144311904Y-55925469D01*
X148815074Y-55925469D01*
X149860000Y-56970395D01*
X150904926Y-55925469D01*
X153895074Y-55925469D01*
X154940000Y-56970395D01*
X155984926Y-55925469D01*
X155874079Y-55648286D01*
X155563160Y-55494911D01*
X155228295Y-55405140D01*
X154882350Y-55382424D01*
X154538620Y-55427634D01*
X154210315Y-55539034D01*
X154005921Y-55648286D01*
X153895074Y-55925469D01*
X150904926Y-55925469D01*
X150794079Y-55648286D01*
X150483160Y-55494911D01*
X150148295Y-55405140D01*
X149802350Y-55382424D01*
X149458620Y-55427634D01*
X149130315Y-55539034D01*
X148925921Y-55648286D01*
X148815074Y-55925469D01*
X144311904Y-55925469D01*
X144403920Y-55881641D01*
X144637269Y-55707588D01*
X144832178Y-55491355D01*
X144981157Y-55241252D01*
X145078481Y-54966891D01*
X144957814Y-54737000D01*
X143764000Y-54737000D01*
X143510000Y-54737000D01*
X143490000Y-54737000D01*
X143490000Y-54483000D01*
X143510000Y-54483000D01*
X143510000Y-53289845D01*
X143764000Y-53289845D01*
X143764000Y-54483000D01*
X144957814Y-54483000D01*
X145078481Y-54253109D01*
X144981157Y-53978748D01*
X144832178Y-53728645D01*
X144637269Y-53512412D01*
X144403920Y-53338359D01*
X144141099Y-53213175D01*
X143993890Y-53168524D01*
X143764000Y-53289845D01*
X143510000Y-53289845D01*
X143280110Y-53168524D01*
X143132901Y-53213175D01*
X142870080Y-53338359D01*
X142636731Y-53512412D01*
X142441822Y-53728645D01*
X142292843Y-53978748D01*
X142235228Y-54141168D01*
X142187898Y-54026903D01*
X142053180Y-53825283D01*
X141881717Y-53653820D01*
X141680097Y-53519102D01*
X141456069Y-53426307D01*
X141218243Y-53379000D01*
X140975757Y-53379000D01*
X140737931Y-53426307D01*
X140513903Y-53519102D01*
X140312283Y-53653820D01*
X140140820Y-53825283D01*
X140006102Y-54026903D01*
X139913307Y-54250931D01*
X139866000Y-54488757D01*
X139788000Y-54488757D01*
X139740693Y-54250931D01*
X139647898Y-54026903D01*
X139513180Y-53825283D01*
X139341717Y-53653820D01*
X139140097Y-53519102D01*
X138916069Y-53426307D01*
X138678243Y-53379000D01*
X138435757Y-53379000D01*
X138197931Y-53426307D01*
X137973903Y-53519102D01*
X137772283Y-53653820D01*
X137600820Y-53825283D01*
X137466102Y-54026903D01*
X137373307Y-54250931D01*
X137326000Y-54488757D01*
X137248000Y-54488757D01*
X137200693Y-54250931D01*
X137107898Y-54026903D01*
X136973180Y-53825283D01*
X136801717Y-53653820D01*
X136600097Y-53519102D01*
X136376069Y-53426307D01*
X136138243Y-53379000D01*
X135895757Y-53379000D01*
X135657931Y-53426307D01*
X135433903Y-53519102D01*
X135232283Y-53653820D01*
X135060820Y-53825283D01*
X134926102Y-54026903D01*
X134833307Y-54250931D01*
X134786000Y-54488757D01*
X134708000Y-54488757D01*
X134660693Y-54250931D01*
X134567898Y-54026903D01*
X134433180Y-53825283D01*
X134261717Y-53653820D01*
X134060097Y-53519102D01*
X133836069Y-53426307D01*
X133598243Y-53379000D01*
X133355757Y-53379000D01*
X133117931Y-53426307D01*
X132893903Y-53519102D01*
X132692283Y-53653820D01*
X132520820Y-53825283D01*
X132386102Y-54026903D01*
X132293307Y-54250931D01*
X132246000Y-54488757D01*
X132169843Y-54488757D01*
X132169843Y-53760000D01*
X132162487Y-53685311D01*
X132140701Y-53613492D01*
X132105322Y-53547304D01*
X132057711Y-53489289D01*
X131999696Y-53441678D01*
X131933508Y-53406299D01*
X131861689Y-53384513D01*
X131787000Y-53377157D01*
X130087000Y-53377157D01*
X130012311Y-53384513D01*
X129940492Y-53406299D01*
X129874304Y-53441678D01*
X129816289Y-53489289D01*
X129768678Y-53547304D01*
X129733299Y-53613492D01*
X129711513Y-53685311D01*
X129704157Y-53760000D01*
X105967479Y-53760000D01*
X105967867Y-52501000D01*
X156413798Y-52501000D01*
X156412051Y-56204059D01*
%TA.AperFunction,Conductor*%
D16*
G36*
X156412051Y-56204059D02*
G01*
X156164531Y-56105074D01*
X155119605Y-57150000D01*
X156164531Y-58194926D01*
X156411159Y-58096298D01*
X156409656Y-61283101D01*
X156164531Y-61185074D01*
X155119605Y-62230000D01*
X156164531Y-63274926D01*
X156408763Y-63177256D01*
X156405105Y-70933281D01*
X156164531Y-70837074D01*
X155119605Y-71882000D01*
X156164531Y-72926926D01*
X156404210Y-72831077D01*
X156402710Y-76012323D01*
X156164531Y-75917074D01*
X155119605Y-76962000D01*
X156164531Y-78006926D01*
X156401814Y-77912035D01*
X156398279Y-85408551D01*
X156164531Y-85315074D01*
X155119605Y-86360000D01*
X156164531Y-87404926D01*
X156397381Y-87311808D01*
X156395883Y-90487593D01*
X156164531Y-90395074D01*
X155119605Y-91440000D01*
X156164531Y-92484926D01*
X156394985Y-92392766D01*
X156391011Y-100819722D01*
X156391000Y-100819833D01*
X156391000Y-100842556D01*
X156390991Y-100861964D01*
X156391000Y-100862056D01*
X156391001Y-108562473D01*
X156143475Y-108810000D01*
X119300526Y-108810000D01*
X119053000Y-108562475D01*
X119053000Y-102937314D01*
X129543600Y-102937314D01*
X129543600Y-103056686D01*
X129566888Y-103173764D01*
X129612570Y-103284049D01*
X129678889Y-103383302D01*
X129763298Y-103467711D01*
X129862551Y-103534030D01*
X129972836Y-103579712D01*
X130089914Y-103603000D01*
X130209286Y-103603000D01*
X130326364Y-103579712D01*
X130436649Y-103534030D01*
X130535902Y-103467711D01*
X130620311Y-103383302D01*
X130686630Y-103284049D01*
X130732312Y-103173764D01*
X130755600Y-103056686D01*
X130755600Y-102937314D01*
X130732312Y-102820236D01*
X130686630Y-102709951D01*
X130620311Y-102610698D01*
X130535902Y-102526289D01*
X130436649Y-102459970D01*
X130326364Y-102414288D01*
X130209286Y-102391000D01*
X130089914Y-102391000D01*
X129972836Y-102414288D01*
X129862551Y-102459970D01*
X129763298Y-102526289D01*
X129678889Y-102610698D01*
X129612570Y-102709951D01*
X129566888Y-102820236D01*
X129543600Y-102937314D01*
X119053000Y-102937314D01*
X119053000Y-101769832D01*
X119050850Y-101748003D01*
X119050850Y-101735678D01*
X119050221Y-101729693D01*
X119029554Y-101545441D01*
X119021429Y-101507216D01*
X119013845Y-101468914D01*
X119012066Y-101463165D01*
X119012066Y-101463163D01*
X119012064Y-101463157D01*
X118956005Y-101286435D01*
X118940624Y-101250549D01*
X118925730Y-101214413D01*
X118922867Y-101209119D01*
X118833546Y-101046645D01*
X118811483Y-101014423D01*
X118789858Y-100981875D01*
X118786022Y-100977238D01*
X118666844Y-100835209D01*
X118638934Y-100807877D01*
X118611410Y-100780160D01*
X118606752Y-100776361D01*
X118606746Y-100776355D01*
X118606739Y-100776351D01*
X118462251Y-100660179D01*
X118429565Y-100638790D01*
X118397180Y-100616946D01*
X118391874Y-100614125D01*
X118391866Y-100614120D01*
X118391858Y-100614117D01*
X118227557Y-100528222D01*
X118191355Y-100513595D01*
X118155326Y-100498450D01*
X118149564Y-100496710D01*
X117971701Y-100444363D01*
X117933324Y-100437042D01*
X117895064Y-100429188D01*
X117889084Y-100428602D01*
X117889074Y-100428600D01*
X117889065Y-100428600D01*
X117704431Y-100411797D01*
X117665401Y-100412069D01*
X117626304Y-100411797D01*
X117620315Y-100412384D01*
X117435923Y-100431765D01*
X117397660Y-100439619D01*
X117359289Y-100446939D01*
X117353533Y-100448677D01*
X117353524Y-100448679D01*
X117353516Y-100448683D01*
X117176411Y-100503505D01*
X117140431Y-100518629D01*
X117104180Y-100533276D01*
X117098866Y-100536101D01*
X116935773Y-100624285D01*
X116903353Y-100646152D01*
X116870700Y-100667520D01*
X116866045Y-100671316D01*
X116866037Y-100671322D01*
X116866030Y-100671329D01*
X116723177Y-100789508D01*
X116695656Y-100817222D01*
X116667743Y-100844556D01*
X116663907Y-100849193D01*
X116546724Y-100992873D01*
X116525109Y-101025406D01*
X116503038Y-101057641D01*
X116500175Y-101062934D01*
X116413131Y-101226640D01*
X116398244Y-101262757D01*
X116382855Y-101298663D01*
X116381080Y-101304400D01*
X116381076Y-101304409D01*
X116381074Y-101304418D01*
X116327488Y-101481906D01*
X116319904Y-101520208D01*
X116311779Y-101558433D01*
X116311150Y-101564418D01*
X116293057Y-101748941D01*
X116293057Y-101748949D01*
X116291000Y-101769833D01*
X116291001Y-108562473D01*
X116043475Y-108810000D01*
X106200526Y-108810000D01*
X105953000Y-108562475D01*
X105953000Y-104056096D01*
X106048511Y-104095658D01*
X106213115Y-104128400D01*
X106380945Y-104128400D01*
X106545549Y-104095658D01*
X106700603Y-104031432D01*
X106840148Y-103938191D01*
X106958821Y-103819518D01*
X107052062Y-103679973D01*
X107116288Y-103524919D01*
X107149030Y-103360315D01*
X107149030Y-103192485D01*
X107116288Y-103027881D01*
X107052062Y-102872827D01*
X106958821Y-102733282D01*
X106840148Y-102614609D01*
X106700603Y-102521368D01*
X106545549Y-102457142D01*
X106380945Y-102424400D01*
X106213115Y-102424400D01*
X106048511Y-102457142D01*
X105953000Y-102496704D01*
X105953000Y-100839540D01*
X105953974Y-97668757D01*
X113678600Y-97668757D01*
X113678600Y-97911243D01*
X113725907Y-98149069D01*
X113818702Y-98373097D01*
X113953420Y-98574717D01*
X114124883Y-98746180D01*
X114326503Y-98880898D01*
X114550531Y-98973693D01*
X114788357Y-99021000D01*
X115030843Y-99021000D01*
X115268669Y-98973693D01*
X115492697Y-98880898D01*
X115694317Y-98746180D01*
X115865780Y-98574717D01*
X116000498Y-98373097D01*
X116093293Y-98149069D01*
X116140600Y-97911243D01*
X116140600Y-97668757D01*
X116093293Y-97430931D01*
X116000498Y-97206903D01*
X115865780Y-97005283D01*
X115694317Y-96833820D01*
X115648961Y-96803514D01*
X120945404Y-96803514D01*
X120945404Y-96922886D01*
X120968692Y-97039964D01*
X121014374Y-97150249D01*
X121080693Y-97249502D01*
X121165102Y-97333911D01*
X121264355Y-97400230D01*
X121374640Y-97445912D01*
X121491718Y-97469200D01*
X121611090Y-97469200D01*
X121728168Y-97445912D01*
X121838453Y-97400230D01*
X121849582Y-97392794D01*
X121946436Y-97432912D01*
X122063514Y-97456200D01*
X122182886Y-97456200D01*
X122299964Y-97432912D01*
X122410249Y-97387230D01*
X122509502Y-97320911D01*
X122593911Y-97236502D01*
X122660230Y-97137249D01*
X122705912Y-97026964D01*
X122729200Y-96909886D01*
X122729200Y-96790514D01*
X122705912Y-96673436D01*
X122660230Y-96563151D01*
X122593911Y-96463898D01*
X122509502Y-96379489D01*
X122410249Y-96313170D01*
X122299964Y-96267488D01*
X122182886Y-96244200D01*
X122063514Y-96244200D01*
X121946436Y-96267488D01*
X121836151Y-96313170D01*
X121825022Y-96320606D01*
X121728168Y-96280488D01*
X121611090Y-96257200D01*
X121491718Y-96257200D01*
X121374640Y-96280488D01*
X121264355Y-96326170D01*
X121165102Y-96392489D01*
X121080693Y-96476898D01*
X121014374Y-96576151D01*
X120968692Y-96686436D01*
X120945404Y-96803514D01*
X115648961Y-96803514D01*
X115492697Y-96699102D01*
X115268669Y-96606307D01*
X115030843Y-96559000D01*
X114788357Y-96559000D01*
X114550531Y-96606307D01*
X114326503Y-96699102D01*
X114124883Y-96833820D01*
X113953420Y-97005283D01*
X113818702Y-97206903D01*
X113725907Y-97430931D01*
X113678600Y-97668757D01*
X105953974Y-97668757D01*
X105954754Y-95128757D01*
X113678600Y-95128757D01*
X113678600Y-95371243D01*
X113725907Y-95609069D01*
X113818702Y-95833097D01*
X113953420Y-96034717D01*
X114124883Y-96206180D01*
X114326503Y-96340898D01*
X114550531Y-96433693D01*
X114788357Y-96481000D01*
X115030843Y-96481000D01*
X115268669Y-96433693D01*
X115492697Y-96340898D01*
X115694317Y-96206180D01*
X115865780Y-96034717D01*
X116000498Y-95833097D01*
X116093293Y-95609069D01*
X116140600Y-95371243D01*
X116140600Y-95128757D01*
X116093293Y-94890931D01*
X116000498Y-94666903D01*
X115865780Y-94465283D01*
X115694317Y-94293820D01*
X115492697Y-94159102D01*
X115268669Y-94066307D01*
X115030843Y-94019000D01*
X114788357Y-94019000D01*
X114550531Y-94066307D01*
X114326503Y-94159102D01*
X114124883Y-94293820D01*
X113953420Y-94465283D01*
X113818702Y-94666903D01*
X113725907Y-94890931D01*
X113678600Y-95128757D01*
X105954754Y-95128757D01*
X105955760Y-91860000D01*
X113676757Y-91860000D01*
X113676757Y-93560000D01*
X113684113Y-93634689D01*
X113705899Y-93706508D01*
X113741278Y-93772696D01*
X113788889Y-93830711D01*
X113846904Y-93878322D01*
X113913092Y-93913701D01*
X113984911Y-93935487D01*
X114059600Y-93942843D01*
X115759600Y-93942843D01*
X115834289Y-93935487D01*
X115906108Y-93913701D01*
X115972296Y-93878322D01*
X116030311Y-93830711D01*
X116077922Y-93772696D01*
X116113301Y-93706508D01*
X116135087Y-93634689D01*
X116139477Y-93590112D01*
X128680000Y-93590112D01*
X128680000Y-93709484D01*
X128703288Y-93826562D01*
X128748970Y-93936847D01*
X128815289Y-94036100D01*
X128899698Y-94120509D01*
X128998951Y-94186828D01*
X129109236Y-94232510D01*
X129226314Y-94255798D01*
X129345686Y-94255798D01*
X129462764Y-94232510D01*
X129573049Y-94186828D01*
X129672302Y-94120509D01*
X129756711Y-94036100D01*
X129823030Y-93936847D01*
X129868712Y-93826562D01*
X129892000Y-93709484D01*
X129892000Y-93590112D01*
X129868712Y-93473034D01*
X129823030Y-93362749D01*
X129756711Y-93263496D01*
X129672302Y-93179087D01*
X129573049Y-93112768D01*
X129462764Y-93067086D01*
X129345686Y-93043798D01*
X129226314Y-93043798D01*
X129109236Y-93067086D01*
X128998951Y-93112768D01*
X128899698Y-93179087D01*
X128815289Y-93263496D01*
X128748970Y-93362749D01*
X128703288Y-93473034D01*
X128680000Y-93590112D01*
X116139477Y-93590112D01*
X116142443Y-93560000D01*
X116142443Y-92664531D01*
X148815074Y-92664531D01*
X148925921Y-92941714D01*
X149236840Y-93095089D01*
X149571705Y-93184860D01*
X149917650Y-93207576D01*
X150261380Y-93162366D01*
X150589685Y-93050966D01*
X150794079Y-92941714D01*
X150904926Y-92664531D01*
X153895074Y-92664531D01*
X154005921Y-92941714D01*
X154316840Y-93095089D01*
X154651705Y-93184860D01*
X154997650Y-93207576D01*
X155341380Y-93162366D01*
X155669685Y-93050966D01*
X155874079Y-92941714D01*
X155984926Y-92664531D01*
X154940000Y-91619605D01*
X153895074Y-92664531D01*
X150904926Y-92664531D01*
X149860000Y-91619605D01*
X148815074Y-92664531D01*
X116142443Y-92664531D01*
X116142443Y-91860000D01*
X116135087Y-91785311D01*
X116113301Y-91713492D01*
X116077922Y-91647304D01*
X116030311Y-91589289D01*
X115972296Y-91541678D01*
X115906108Y-91506299D01*
X115834289Y-91484513D01*
X115759600Y-91477157D01*
X114059600Y-91477157D01*
X113984911Y-91484513D01*
X113913092Y-91506299D01*
X113846904Y-91541678D01*
X113788889Y-91589289D01*
X113741278Y-91647304D01*
X113705899Y-91713492D01*
X113684113Y-91785311D01*
X113676757Y-91860000D01*
X105955760Y-91860000D01*
X105956072Y-90848085D01*
X108495000Y-90848085D01*
X108495000Y-91015915D01*
X108527742Y-91180519D01*
X108591968Y-91335573D01*
X108685209Y-91475118D01*
X108803882Y-91593791D01*
X108943427Y-91687032D01*
X109098481Y-91751258D01*
X109263085Y-91784000D01*
X109430915Y-91784000D01*
X109595519Y-91751258D01*
X109750573Y-91687032D01*
X109890118Y-91593791D01*
X110008791Y-91475118D01*
X110102032Y-91335573D01*
X110152011Y-91214914D01*
X120996198Y-91214914D01*
X120996198Y-91334286D01*
X121019486Y-91451364D01*
X121065168Y-91561649D01*
X121131487Y-91660902D01*
X121215896Y-91745311D01*
X121315149Y-91811630D01*
X121425434Y-91857312D01*
X121542512Y-91880600D01*
X121661884Y-91880600D01*
X121778962Y-91857312D01*
X121875825Y-91817189D01*
X121886961Y-91824630D01*
X121997246Y-91870312D01*
X122114324Y-91893600D01*
X122233696Y-91893600D01*
X122350774Y-91870312D01*
X122461059Y-91824630D01*
X122560312Y-91758311D01*
X122644721Y-91673902D01*
X122711040Y-91574649D01*
X122742934Y-91497650D01*
X148092424Y-91497650D01*
X148137634Y-91841380D01*
X148249034Y-92169685D01*
X148358286Y-92374079D01*
X148635469Y-92484926D01*
X149680395Y-91440000D01*
X150039605Y-91440000D01*
X151084531Y-92484926D01*
X151361714Y-92374079D01*
X151515089Y-92063160D01*
X151604860Y-91728295D01*
X151620004Y-91497650D01*
X153172424Y-91497650D01*
X153217634Y-91841380D01*
X153329034Y-92169685D01*
X153438286Y-92374079D01*
X153715469Y-92484926D01*
X154760395Y-91440000D01*
X153715469Y-90395074D01*
X153438286Y-90505921D01*
X153284911Y-90816840D01*
X153195140Y-91151705D01*
X153172424Y-91497650D01*
X151620004Y-91497650D01*
X151627576Y-91382350D01*
X151582366Y-91038620D01*
X151470966Y-90710315D01*
X151361714Y-90505921D01*
X151084531Y-90395074D01*
X150039605Y-91440000D01*
X149680395Y-91440000D01*
X148635469Y-90395074D01*
X148358286Y-90505921D01*
X148204911Y-90816840D01*
X148115140Y-91151705D01*
X148092424Y-91497650D01*
X122742934Y-91497650D01*
X122756722Y-91464364D01*
X122780010Y-91347286D01*
X122780010Y-91227914D01*
X122756722Y-91110836D01*
X122711040Y-91000551D01*
X122644721Y-90901298D01*
X122560312Y-90816889D01*
X122461059Y-90750570D01*
X122350774Y-90704888D01*
X122298650Y-90694520D01*
X129442000Y-90694520D01*
X129442000Y-90813892D01*
X129465288Y-90930970D01*
X129510970Y-91041255D01*
X129577289Y-91140508D01*
X129661698Y-91224917D01*
X129760951Y-91291236D01*
X129871236Y-91336918D01*
X129988314Y-91360206D01*
X130107686Y-91360206D01*
X130224764Y-91336918D01*
X130335049Y-91291236D01*
X130434302Y-91224917D01*
X130518711Y-91140508D01*
X130585030Y-91041255D01*
X130630712Y-90930970D01*
X130654000Y-90813892D01*
X130654000Y-90694520D01*
X130630712Y-90577442D01*
X130585030Y-90467157D01*
X130518711Y-90367904D01*
X130434302Y-90283495D01*
X130335049Y-90217176D01*
X130330928Y-90215469D01*
X148815074Y-90215469D01*
X149860000Y-91260395D01*
X150904926Y-90215469D01*
X150794079Y-89938286D01*
X150483160Y-89784911D01*
X150148295Y-89695140D01*
X149802350Y-89672424D01*
X149458620Y-89717634D01*
X149130315Y-89829034D01*
X148925921Y-89938286D01*
X148815074Y-90215469D01*
X130330928Y-90215469D01*
X130224764Y-90171494D01*
X130107686Y-90148206D01*
X129988314Y-90148206D01*
X129871236Y-90171494D01*
X129760951Y-90217176D01*
X129661698Y-90283495D01*
X129577289Y-90367904D01*
X129510970Y-90467157D01*
X129465288Y-90577442D01*
X129442000Y-90694520D01*
X122298650Y-90694520D01*
X122233696Y-90681600D01*
X122114324Y-90681600D01*
X121997246Y-90704888D01*
X121900383Y-90745011D01*
X121889247Y-90737570D01*
X121778962Y-90691888D01*
X121661884Y-90668600D01*
X121542512Y-90668600D01*
X121425434Y-90691888D01*
X121315149Y-90737570D01*
X121215896Y-90803889D01*
X121131487Y-90888298D01*
X121065168Y-90987551D01*
X121019486Y-91097836D01*
X120996198Y-91214914D01*
X110152011Y-91214914D01*
X110166258Y-91180519D01*
X110199000Y-91015915D01*
X110199000Y-90848085D01*
X110166258Y-90683481D01*
X110102032Y-90528427D01*
X110008791Y-90388882D01*
X109890118Y-90270209D01*
X109750573Y-90176968D01*
X109595519Y-90112742D01*
X109430915Y-90080000D01*
X109263085Y-90080000D01*
X109098481Y-90112742D01*
X108943427Y-90176968D01*
X108803882Y-90270209D01*
X108685209Y-90388882D01*
X108591968Y-90528427D01*
X108527742Y-90683481D01*
X108495000Y-90848085D01*
X105956072Y-90848085D01*
X105956716Y-88751672D01*
X150894000Y-88751672D01*
X150894000Y-89048328D01*
X150951875Y-89339284D01*
X151065400Y-89613359D01*
X151230213Y-89860019D01*
X151439981Y-90069787D01*
X151686641Y-90234600D01*
X151960716Y-90348125D01*
X152251672Y-90406000D01*
X152548328Y-90406000D01*
X152839284Y-90348125D01*
X153113359Y-90234600D01*
X153141990Y-90215469D01*
X153895074Y-90215469D01*
X154940000Y-91260395D01*
X155984926Y-90215469D01*
X155874079Y-89938286D01*
X155563160Y-89784911D01*
X155228295Y-89695140D01*
X154882350Y-89672424D01*
X154538620Y-89717634D01*
X154210315Y-89829034D01*
X154005921Y-89938286D01*
X153895074Y-90215469D01*
X153141990Y-90215469D01*
X153360019Y-90069787D01*
X153569787Y-89860019D01*
X153734600Y-89613359D01*
X153848125Y-89339284D01*
X153906000Y-89048328D01*
X153906000Y-88751672D01*
X153848125Y-88460716D01*
X153734600Y-88186641D01*
X153569787Y-87939981D01*
X153360019Y-87730213D01*
X153141991Y-87584531D01*
X153895074Y-87584531D01*
X154005921Y-87861714D01*
X154316840Y-88015089D01*
X154651705Y-88104860D01*
X154997650Y-88127576D01*
X155341380Y-88082366D01*
X155669685Y-87970966D01*
X155874079Y-87861714D01*
X155984926Y-87584531D01*
X154940000Y-86539605D01*
X153895074Y-87584531D01*
X153141991Y-87584531D01*
X153113359Y-87565400D01*
X152839284Y-87451875D01*
X152548328Y-87394000D01*
X152251672Y-87394000D01*
X151960716Y-87451875D01*
X151686641Y-87565400D01*
X151439981Y-87730213D01*
X151230213Y-87939981D01*
X151065400Y-88186641D01*
X150951875Y-88460716D01*
X150894000Y-88751672D01*
X105956716Y-88751672D01*
X105957075Y-87584531D01*
X148815074Y-87584531D01*
X148925921Y-87861714D01*
X149236840Y-88015089D01*
X149571705Y-88104860D01*
X149917650Y-88127576D01*
X150261380Y-88082366D01*
X150589685Y-87970966D01*
X150794079Y-87861714D01*
X150904926Y-87584531D01*
X149860000Y-86539605D01*
X148815074Y-87584531D01*
X105957075Y-87584531D01*
X105957434Y-86417650D01*
X148092424Y-86417650D01*
X148137634Y-86761380D01*
X148249034Y-87089685D01*
X148358286Y-87294079D01*
X148635469Y-87404926D01*
X149680395Y-86360000D01*
X150039605Y-86360000D01*
X151084531Y-87404926D01*
X151361714Y-87294079D01*
X151515089Y-86983160D01*
X151604860Y-86648295D01*
X151620004Y-86417650D01*
X153172424Y-86417650D01*
X153217634Y-86761380D01*
X153329034Y-87089685D01*
X153438286Y-87294079D01*
X153715469Y-87404926D01*
X154760395Y-86360000D01*
X153715469Y-85315074D01*
X153438286Y-85425921D01*
X153284911Y-85736840D01*
X153195140Y-86071705D01*
X153172424Y-86417650D01*
X151620004Y-86417650D01*
X151627576Y-86302350D01*
X151582366Y-85958620D01*
X151470966Y-85630315D01*
X151361714Y-85425921D01*
X151084531Y-85315074D01*
X150039605Y-86360000D01*
X149680395Y-86360000D01*
X148635469Y-85315074D01*
X148358286Y-85425921D01*
X148204911Y-85736840D01*
X148115140Y-86071705D01*
X148092424Y-86417650D01*
X105957434Y-86417650D01*
X105957986Y-84625085D01*
X113422600Y-84625085D01*
X113422600Y-84792915D01*
X113455342Y-84957519D01*
X113519568Y-85112573D01*
X113612809Y-85252118D01*
X113731482Y-85370791D01*
X113871027Y-85464032D01*
X114026081Y-85528258D01*
X114190685Y-85561000D01*
X114358515Y-85561000D01*
X114523119Y-85528258D01*
X114678173Y-85464032D01*
X114817718Y-85370791D01*
X114936391Y-85252118D01*
X115029632Y-85112573D01*
X115093858Y-84957519D01*
X115126600Y-84792915D01*
X115126600Y-84625085D01*
X115093858Y-84460481D01*
X115029632Y-84305427D01*
X114973820Y-84221897D01*
X126159067Y-84221897D01*
X126159067Y-84341269D01*
X126182355Y-84458347D01*
X126228037Y-84568632D01*
X126294356Y-84667885D01*
X126378765Y-84752294D01*
X126478018Y-84818613D01*
X126588303Y-84864295D01*
X126705381Y-84887583D01*
X126824753Y-84887583D01*
X126941831Y-84864295D01*
X127052116Y-84818613D01*
X127151369Y-84752294D01*
X127235778Y-84667885D01*
X127302097Y-84568632D01*
X127321279Y-84522322D01*
X127763479Y-84522322D01*
X127763479Y-84641694D01*
X127786767Y-84758772D01*
X127832449Y-84869057D01*
X127898768Y-84968310D01*
X127983177Y-85052719D01*
X128082430Y-85119038D01*
X128192715Y-85164720D01*
X128309793Y-85188008D01*
X128429165Y-85188008D01*
X128546243Y-85164720D01*
X128616860Y-85135469D01*
X148815074Y-85135469D01*
X149860000Y-86180395D01*
X150904926Y-85135469D01*
X153895074Y-85135469D01*
X154940000Y-86180395D01*
X155984926Y-85135469D01*
X155874079Y-84858286D01*
X155563160Y-84704911D01*
X155228295Y-84615140D01*
X154882350Y-84592424D01*
X154538620Y-84637634D01*
X154210315Y-84749034D01*
X154005921Y-84858286D01*
X153895074Y-85135469D01*
X150904926Y-85135469D01*
X150794079Y-84858286D01*
X150483160Y-84704911D01*
X150148295Y-84615140D01*
X149802350Y-84592424D01*
X149458620Y-84637634D01*
X149130315Y-84749034D01*
X148925921Y-84858286D01*
X148815074Y-85135469D01*
X128616860Y-85135469D01*
X128656528Y-85119038D01*
X128755781Y-85052719D01*
X128840190Y-84968310D01*
X128906509Y-84869057D01*
X128952191Y-84758772D01*
X128975479Y-84641694D01*
X128975479Y-84522322D01*
X128952191Y-84405244D01*
X128906509Y-84294959D01*
X128840190Y-84195706D01*
X128755781Y-84111297D01*
X128656528Y-84044978D01*
X128546243Y-83999296D01*
X128429165Y-83976008D01*
X128309793Y-83976008D01*
X128192715Y-83999296D01*
X128082430Y-84044978D01*
X127983177Y-84111297D01*
X127898768Y-84195706D01*
X127832449Y-84294959D01*
X127786767Y-84405244D01*
X127763479Y-84522322D01*
X127321279Y-84522322D01*
X127347779Y-84458347D01*
X127371067Y-84341269D01*
X127371067Y-84221897D01*
X127347779Y-84104819D01*
X127302097Y-83994534D01*
X127235778Y-83895281D01*
X127227811Y-83887314D01*
X144809000Y-83887314D01*
X144809000Y-84006686D01*
X144832288Y-84123764D01*
X144877970Y-84234049D01*
X144944289Y-84333302D01*
X145028698Y-84417711D01*
X145127951Y-84484030D01*
X145238236Y-84529712D01*
X145355314Y-84553000D01*
X145474686Y-84553000D01*
X145591764Y-84529712D01*
X145702049Y-84484030D01*
X145801302Y-84417711D01*
X145885711Y-84333302D01*
X145952030Y-84234049D01*
X145997712Y-84123764D01*
X146021000Y-84006686D01*
X146021000Y-83887314D01*
X145997712Y-83770236D01*
X145952030Y-83659951D01*
X145885711Y-83560698D01*
X145801302Y-83476289D01*
X145702049Y-83409970D01*
X145591764Y-83364288D01*
X145474686Y-83341000D01*
X145355314Y-83341000D01*
X145238236Y-83364288D01*
X145127951Y-83409970D01*
X145028698Y-83476289D01*
X144944289Y-83560698D01*
X144877970Y-83659951D01*
X144832288Y-83770236D01*
X144809000Y-83887314D01*
X127227811Y-83887314D01*
X127151369Y-83810872D01*
X127052116Y-83744553D01*
X126941831Y-83698871D01*
X126824753Y-83675583D01*
X126705381Y-83675583D01*
X126588303Y-83698871D01*
X126478018Y-83744553D01*
X126378765Y-83810872D01*
X126294356Y-83895281D01*
X126228037Y-83994534D01*
X126182355Y-84104819D01*
X126159067Y-84221897D01*
X114973820Y-84221897D01*
X114936391Y-84165882D01*
X114817718Y-84047209D01*
X114678173Y-83953968D01*
X114523119Y-83889742D01*
X114358515Y-83857000D01*
X114190685Y-83857000D01*
X114026081Y-83889742D01*
X113871027Y-83953968D01*
X113731482Y-84047209D01*
X113612809Y-84165882D01*
X113519568Y-84305427D01*
X113455342Y-84460481D01*
X113422600Y-84625085D01*
X105957986Y-84625085D01*
X105958639Y-82504531D01*
X106270074Y-82504531D01*
X106380921Y-82781714D01*
X106691840Y-82935089D01*
X107026705Y-83024860D01*
X107372650Y-83047576D01*
X107716380Y-83002366D01*
X108044685Y-82890966D01*
X108249079Y-82781714D01*
X108359926Y-82504531D01*
X111350074Y-82504531D01*
X111460921Y-82781714D01*
X111771840Y-82935089D01*
X112106705Y-83024860D01*
X112452650Y-83047576D01*
X112796380Y-83002366D01*
X113124685Y-82890966D01*
X113329079Y-82781714D01*
X113439926Y-82504531D01*
X112395000Y-81459605D01*
X111350074Y-82504531D01*
X108359926Y-82504531D01*
X107315000Y-81459605D01*
X106270074Y-82504531D01*
X105958639Y-82504531D01*
X105958711Y-82272235D01*
X106090469Y-82324926D01*
X107135395Y-81280000D01*
X107494605Y-81280000D01*
X108539531Y-82324926D01*
X108816714Y-82214079D01*
X108970089Y-81903160D01*
X109059860Y-81568295D01*
X109075004Y-81337650D01*
X110627424Y-81337650D01*
X110672634Y-81681380D01*
X110784034Y-82009685D01*
X110893286Y-82214079D01*
X111170469Y-82324926D01*
X112215395Y-81280000D01*
X112574605Y-81280000D01*
X113619531Y-82324926D01*
X113896714Y-82214079D01*
X113910804Y-82185514D01*
X118240600Y-82185514D01*
X118240600Y-82304886D01*
X118263888Y-82421964D01*
X118309570Y-82532249D01*
X118375889Y-82631502D01*
X118460298Y-82715911D01*
X118559551Y-82782230D01*
X118669836Y-82827912D01*
X118786914Y-82851200D01*
X118906286Y-82851200D01*
X119023364Y-82827912D01*
X119133649Y-82782230D01*
X119232902Y-82715911D01*
X119317311Y-82631502D01*
X119383630Y-82532249D01*
X119429312Y-82421964D01*
X119452600Y-82304886D01*
X119452600Y-82210920D01*
X123015800Y-82210920D01*
X123015800Y-82330292D01*
X123039088Y-82447370D01*
X123084770Y-82557655D01*
X123151089Y-82656908D01*
X123235498Y-82741317D01*
X123334751Y-82807636D01*
X123445036Y-82853318D01*
X123562114Y-82876606D01*
X123681486Y-82876606D01*
X123798564Y-82853318D01*
X123908849Y-82807636D01*
X124008102Y-82741317D01*
X124092511Y-82656908D01*
X124158830Y-82557655D01*
X124204512Y-82447370D01*
X124227800Y-82330292D01*
X124227800Y-82261714D01*
X131550200Y-82261714D01*
X131550200Y-82381086D01*
X131573488Y-82498164D01*
X131619170Y-82608449D01*
X131685489Y-82707702D01*
X131769898Y-82792111D01*
X131869151Y-82858430D01*
X131979436Y-82904112D01*
X132096514Y-82927400D01*
X132215886Y-82927400D01*
X132332964Y-82904112D01*
X132443249Y-82858430D01*
X132542502Y-82792111D01*
X132626911Y-82707702D01*
X132693230Y-82608449D01*
X132738912Y-82498164D01*
X132762200Y-82381086D01*
X132762200Y-82261714D01*
X132738912Y-82144636D01*
X132693230Y-82034351D01*
X132626911Y-81935098D01*
X132542502Y-81850689D01*
X132443249Y-81784370D01*
X132332964Y-81738688D01*
X132215886Y-81715400D01*
X132096514Y-81715400D01*
X131979436Y-81738688D01*
X131869151Y-81784370D01*
X131769898Y-81850689D01*
X131685489Y-81935098D01*
X131619170Y-82034351D01*
X131573488Y-82144636D01*
X131550200Y-82261714D01*
X124227800Y-82261714D01*
X124227800Y-82210920D01*
X124204512Y-82093842D01*
X124158830Y-81983557D01*
X124092511Y-81884304D01*
X124008102Y-81799895D01*
X123908849Y-81733576D01*
X123798564Y-81687894D01*
X123681486Y-81664606D01*
X123562114Y-81664606D01*
X123445036Y-81687894D01*
X123334751Y-81733576D01*
X123235498Y-81799895D01*
X123151089Y-81884304D01*
X123084770Y-81983557D01*
X123039088Y-82093842D01*
X123015800Y-82210920D01*
X119452600Y-82210920D01*
X119452600Y-82185514D01*
X119429312Y-82068436D01*
X119383630Y-81958151D01*
X119317311Y-81858898D01*
X119232902Y-81774489D01*
X119133649Y-81708170D01*
X119023364Y-81662488D01*
X118906286Y-81639200D01*
X118786914Y-81639200D01*
X118669836Y-81662488D01*
X118559551Y-81708170D01*
X118460298Y-81774489D01*
X118375889Y-81858898D01*
X118309570Y-81958151D01*
X118263888Y-82068436D01*
X118240600Y-82185514D01*
X113910804Y-82185514D01*
X114050089Y-81903160D01*
X114139860Y-81568295D01*
X114162576Y-81222350D01*
X114117366Y-80878620D01*
X114005966Y-80550315D01*
X113896714Y-80345921D01*
X113619531Y-80235074D01*
X112574605Y-81280000D01*
X112215395Y-81280000D01*
X111170469Y-80235074D01*
X110893286Y-80345921D01*
X110739911Y-80656840D01*
X110650140Y-80991705D01*
X110627424Y-81337650D01*
X109075004Y-81337650D01*
X109082576Y-81222350D01*
X109037366Y-80878620D01*
X108925966Y-80550315D01*
X108816714Y-80345921D01*
X108539531Y-80235074D01*
X107494605Y-81280000D01*
X107135395Y-81280000D01*
X106090469Y-80235074D01*
X105959321Y-80287521D01*
X105959392Y-80055469D01*
X106270074Y-80055469D01*
X107315000Y-81100395D01*
X108359926Y-80055469D01*
X108249079Y-79778286D01*
X107938160Y-79624911D01*
X107603295Y-79535140D01*
X107257350Y-79512424D01*
X106913620Y-79557634D01*
X106585315Y-79669034D01*
X106380921Y-79778286D01*
X106270074Y-80055469D01*
X105959392Y-80055469D01*
X105959849Y-78567443D01*
X108103000Y-78567443D01*
X108103000Y-78912557D01*
X108170329Y-79251039D01*
X108302398Y-79569883D01*
X108494133Y-79856835D01*
X108738165Y-80100867D01*
X109025117Y-80292602D01*
X109343961Y-80424671D01*
X109682443Y-80492000D01*
X110027557Y-80492000D01*
X110366039Y-80424671D01*
X110684883Y-80292602D01*
X110971835Y-80100867D01*
X111017233Y-80055469D01*
X111350074Y-80055469D01*
X112395000Y-81100395D01*
X113439926Y-80055469D01*
X113397874Y-79950314D01*
X124489000Y-79950314D01*
X124489000Y-80069686D01*
X124512288Y-80186764D01*
X124557970Y-80297049D01*
X124624289Y-80396302D01*
X124708698Y-80480711D01*
X124807951Y-80547030D01*
X124918236Y-80592712D01*
X125035314Y-80616000D01*
X125154686Y-80616000D01*
X125271764Y-80592712D01*
X125382049Y-80547030D01*
X125481302Y-80480711D01*
X125565711Y-80396302D01*
X125632030Y-80297049D01*
X125677712Y-80186764D01*
X125694029Y-80104734D01*
X125747751Y-80140630D01*
X125858036Y-80186312D01*
X125975114Y-80209600D01*
X126094486Y-80209600D01*
X126211564Y-80186312D01*
X126321849Y-80140630D01*
X126421102Y-80074311D01*
X126505511Y-79989902D01*
X126571830Y-79890649D01*
X126617512Y-79780364D01*
X126640800Y-79663286D01*
X126640800Y-79543914D01*
X126625644Y-79467714D01*
X128222798Y-79467714D01*
X128222798Y-79587086D01*
X128246086Y-79704164D01*
X128291768Y-79814449D01*
X128358087Y-79913702D01*
X128442496Y-79998111D01*
X128541749Y-80064430D01*
X128652034Y-80110112D01*
X128769112Y-80133400D01*
X128888484Y-80133400D01*
X129005562Y-80110112D01*
X129115847Y-80064430D01*
X129196799Y-80010339D01*
X130832370Y-80010339D01*
X130832370Y-80129711D01*
X130855658Y-80246789D01*
X130901340Y-80357074D01*
X130967659Y-80456327D01*
X131052068Y-80540736D01*
X131151321Y-80607055D01*
X131261606Y-80652737D01*
X131378684Y-80676025D01*
X131498056Y-80676025D01*
X131615134Y-80652737D01*
X131725419Y-80607055D01*
X131824672Y-80540736D01*
X131909081Y-80456327D01*
X131975400Y-80357074D01*
X131990590Y-80320403D01*
X131998498Y-80328311D01*
X132097751Y-80394630D01*
X132208036Y-80440312D01*
X132325114Y-80463600D01*
X132444486Y-80463600D01*
X132561564Y-80440312D01*
X132671849Y-80394630D01*
X132771102Y-80328311D01*
X132855511Y-80243902D01*
X132921830Y-80144649D01*
X132967512Y-80034364D01*
X132990800Y-79917286D01*
X132990800Y-79797914D01*
X132967512Y-79680836D01*
X132921830Y-79570551D01*
X132855511Y-79471298D01*
X132771102Y-79386889D01*
X132671849Y-79320570D01*
X132561564Y-79274888D01*
X132444486Y-79251600D01*
X132325114Y-79251600D01*
X132208036Y-79274888D01*
X132097751Y-79320570D01*
X131998498Y-79386889D01*
X131914089Y-79471298D01*
X131847770Y-79570551D01*
X131832580Y-79607222D01*
X131824672Y-79599314D01*
X131725419Y-79532995D01*
X131615134Y-79487313D01*
X131498056Y-79464025D01*
X131378684Y-79464025D01*
X131261606Y-79487313D01*
X131151321Y-79532995D01*
X131052068Y-79599314D01*
X130967659Y-79683723D01*
X130901340Y-79782976D01*
X130855658Y-79893261D01*
X130832370Y-80010339D01*
X129196799Y-80010339D01*
X129215100Y-79998111D01*
X129299509Y-79913702D01*
X129365828Y-79814449D01*
X129411510Y-79704164D01*
X129434798Y-79587086D01*
X129434798Y-79467714D01*
X129411510Y-79350636D01*
X129365828Y-79240351D01*
X129299509Y-79141098D01*
X129215100Y-79056689D01*
X129115847Y-78990370D01*
X129005562Y-78944688D01*
X128888484Y-78921400D01*
X128769112Y-78921400D01*
X128652034Y-78944688D01*
X128541749Y-78990370D01*
X128442496Y-79056689D01*
X128358087Y-79141098D01*
X128291768Y-79240351D01*
X128246086Y-79350636D01*
X128222798Y-79467714D01*
X126625644Y-79467714D01*
X126617512Y-79426836D01*
X126571830Y-79316551D01*
X126505511Y-79217298D01*
X126421102Y-79132889D01*
X126321849Y-79066570D01*
X126211564Y-79020888D01*
X126094486Y-78997600D01*
X125975114Y-78997600D01*
X125858036Y-79020888D01*
X125747751Y-79066570D01*
X125648498Y-79132889D01*
X125564089Y-79217298D01*
X125497770Y-79316551D01*
X125452088Y-79426836D01*
X125435771Y-79508866D01*
X125382049Y-79472970D01*
X125271764Y-79427288D01*
X125154686Y-79404000D01*
X125035314Y-79404000D01*
X124918236Y-79427288D01*
X124807951Y-79472970D01*
X124708698Y-79539289D01*
X124624289Y-79623698D01*
X124557970Y-79722951D01*
X124512288Y-79833236D01*
X124489000Y-79950314D01*
X113397874Y-79950314D01*
X113329079Y-79778286D01*
X113018160Y-79624911D01*
X112683295Y-79535140D01*
X112337350Y-79512424D01*
X111993620Y-79557634D01*
X111665315Y-79669034D01*
X111460921Y-79778286D01*
X111350074Y-80055469D01*
X111017233Y-80055469D01*
X111215867Y-79856835D01*
X111407602Y-79569883D01*
X111539671Y-79251039D01*
X111607000Y-78912557D01*
X111607000Y-78567443D01*
X111539671Y-78228961D01*
X111407602Y-77910117D01*
X111215867Y-77623165D01*
X111017233Y-77424531D01*
X111350074Y-77424531D01*
X111460921Y-77701714D01*
X111771840Y-77855089D01*
X112106705Y-77944860D01*
X112452650Y-77967576D01*
X112796380Y-77922366D01*
X112996265Y-77854541D01*
X122065064Y-77854541D01*
X122075575Y-78047763D01*
X122245603Y-78118562D01*
X122426176Y-78154828D01*
X122610355Y-78155171D01*
X122724710Y-78132644D01*
X122751742Y-78268541D01*
X122815968Y-78423595D01*
X122909209Y-78563140D01*
X123027882Y-78681813D01*
X123167427Y-78775054D01*
X123322481Y-78839280D01*
X123487085Y-78872022D01*
X123654915Y-78872022D01*
X123819519Y-78839280D01*
X123974573Y-78775054D01*
X124045999Y-78727328D01*
X129905716Y-78727328D01*
X129905716Y-78846700D01*
X129929004Y-78963778D01*
X129974686Y-79074063D01*
X130041005Y-79173316D01*
X130125414Y-79257725D01*
X130224667Y-79324044D01*
X130334952Y-79369726D01*
X130452030Y-79393014D01*
X130571402Y-79393014D01*
X130688480Y-79369726D01*
X130798765Y-79324044D01*
X130898018Y-79257725D01*
X130982427Y-79173316D01*
X131048746Y-79074063D01*
X131094428Y-78963778D01*
X131117716Y-78846700D01*
X131117716Y-78727328D01*
X131094428Y-78610250D01*
X131048746Y-78499965D01*
X130982427Y-78400712D01*
X130898018Y-78316303D01*
X130836332Y-78275085D01*
X132866300Y-78275085D01*
X132866300Y-78442915D01*
X132899042Y-78607519D01*
X132963268Y-78762573D01*
X133056509Y-78902118D01*
X133175182Y-79020791D01*
X133314727Y-79114032D01*
X133469781Y-79178258D01*
X133634385Y-79211000D01*
X133802215Y-79211000D01*
X133966819Y-79178258D01*
X134121873Y-79114032D01*
X134261418Y-79020791D01*
X134380091Y-78902118D01*
X134473332Y-78762573D01*
X134537558Y-78607519D01*
X134570300Y-78442915D01*
X134570300Y-78275085D01*
X134552686Y-78186531D01*
X148815074Y-78186531D01*
X148925921Y-78463714D01*
X149236840Y-78617089D01*
X149571705Y-78706860D01*
X149917650Y-78729576D01*
X150261380Y-78684366D01*
X150589685Y-78572966D01*
X150794079Y-78463714D01*
X150904926Y-78186531D01*
X153895074Y-78186531D01*
X154005921Y-78463714D01*
X154316840Y-78617089D01*
X154651705Y-78706860D01*
X154997650Y-78729576D01*
X155341380Y-78684366D01*
X155669685Y-78572966D01*
X155874079Y-78463714D01*
X155984926Y-78186531D01*
X154940000Y-77141605D01*
X153895074Y-78186531D01*
X150904926Y-78186531D01*
X149860000Y-77141605D01*
X148815074Y-78186531D01*
X134552686Y-78186531D01*
X134537558Y-78110481D01*
X134473332Y-77955427D01*
X134469740Y-77950052D01*
X134474936Y-77854541D01*
X134020000Y-77399605D01*
X134005858Y-77413748D01*
X133826253Y-77234143D01*
X133840395Y-77220000D01*
X134199605Y-77220000D01*
X134654541Y-77674936D01*
X134847763Y-77664425D01*
X134918562Y-77494397D01*
X134954828Y-77313824D01*
X134955171Y-77129645D01*
X134919574Y-76948939D01*
X134879432Y-76851514D01*
X146663200Y-76851514D01*
X146663200Y-76970886D01*
X146686488Y-77087964D01*
X146732170Y-77198249D01*
X146798489Y-77297502D01*
X146882898Y-77381911D01*
X146982151Y-77448230D01*
X147092436Y-77493912D01*
X147209514Y-77517200D01*
X147328886Y-77517200D01*
X147445964Y-77493912D01*
X147556249Y-77448230D01*
X147655502Y-77381911D01*
X147739911Y-77297502D01*
X147806230Y-77198249D01*
X147851912Y-77087964D01*
X147865500Y-77019650D01*
X148092424Y-77019650D01*
X148137634Y-77363380D01*
X148249034Y-77691685D01*
X148358286Y-77896079D01*
X148635469Y-78006926D01*
X149680395Y-76962000D01*
X150039605Y-76962000D01*
X151084531Y-78006926D01*
X151361714Y-77896079D01*
X151515089Y-77585160D01*
X151604860Y-77250295D01*
X151620004Y-77019650D01*
X153172424Y-77019650D01*
X153217634Y-77363380D01*
X153329034Y-77691685D01*
X153438286Y-77896079D01*
X153715469Y-78006926D01*
X154760395Y-76962000D01*
X153715469Y-75917074D01*
X153438286Y-76027921D01*
X153284911Y-76338840D01*
X153195140Y-76673705D01*
X153172424Y-77019650D01*
X151620004Y-77019650D01*
X151627576Y-76904350D01*
X151582366Y-76560620D01*
X151470966Y-76232315D01*
X151361714Y-76027921D01*
X151084531Y-75917074D01*
X150039605Y-76962000D01*
X149680395Y-76962000D01*
X148635469Y-75917074D01*
X148358286Y-76027921D01*
X148204911Y-76338840D01*
X148115140Y-76673705D01*
X148092424Y-77019650D01*
X147865500Y-77019650D01*
X147875200Y-76970886D01*
X147875200Y-76851514D01*
X147851912Y-76734436D01*
X147806230Y-76624151D01*
X147739911Y-76524898D01*
X147655502Y-76440489D01*
X147556249Y-76374170D01*
X147445964Y-76328488D01*
X147328886Y-76305200D01*
X147209514Y-76305200D01*
X147092436Y-76328488D01*
X146982151Y-76374170D01*
X146882898Y-76440489D01*
X146798489Y-76524898D01*
X146732170Y-76624151D01*
X146686488Y-76734436D01*
X146663200Y-76851514D01*
X134879432Y-76851514D01*
X134849408Y-76778649D01*
X134847763Y-76775575D01*
X134654541Y-76765064D01*
X134199605Y-77220000D01*
X133840395Y-77220000D01*
X133385459Y-76765064D01*
X133192237Y-76775575D01*
X133121438Y-76945603D01*
X133085172Y-77126176D01*
X133084829Y-77310355D01*
X133120426Y-77491061D01*
X133190592Y-77661351D01*
X133192237Y-77664425D01*
X133221837Y-77666035D01*
X133175182Y-77697209D01*
X133056509Y-77815882D01*
X132963268Y-77955427D01*
X132899042Y-78110481D01*
X132866300Y-78275085D01*
X130836332Y-78275085D01*
X130798765Y-78249984D01*
X130688480Y-78204302D01*
X130571402Y-78181014D01*
X130452030Y-78181014D01*
X130334952Y-78204302D01*
X130224667Y-78249984D01*
X130125414Y-78316303D01*
X130041005Y-78400712D01*
X129974686Y-78499965D01*
X129929004Y-78610250D01*
X129905716Y-78727328D01*
X124045999Y-78727328D01*
X124114118Y-78681813D01*
X124232791Y-78563140D01*
X124326032Y-78423595D01*
X124390258Y-78268541D01*
X124423000Y-78103937D01*
X124423000Y-77936107D01*
X124390258Y-77771503D01*
X124326032Y-77616449D01*
X124305229Y-77585314D01*
X126317800Y-77585314D01*
X126317800Y-77704686D01*
X126341088Y-77821764D01*
X126386770Y-77932049D01*
X126453089Y-78031302D01*
X126537498Y-78115711D01*
X126636751Y-78182030D01*
X126747036Y-78227712D01*
X126864114Y-78251000D01*
X126983486Y-78251000D01*
X127100564Y-78227712D01*
X127210849Y-78182030D01*
X127310102Y-78115711D01*
X127394511Y-78031302D01*
X127460830Y-77932049D01*
X127506512Y-77821764D01*
X127529800Y-77704686D01*
X127529800Y-77588114D01*
X128070400Y-77588114D01*
X128070400Y-77707486D01*
X128093688Y-77824564D01*
X128139370Y-77934849D01*
X128205689Y-78034102D01*
X128290098Y-78118511D01*
X128389351Y-78184830D01*
X128499636Y-78230512D01*
X128616714Y-78253800D01*
X128736086Y-78253800D01*
X128853164Y-78230512D01*
X128963449Y-78184830D01*
X128989869Y-78167177D01*
X129036725Y-78237302D01*
X129121134Y-78321711D01*
X129220387Y-78388030D01*
X129330672Y-78433712D01*
X129447750Y-78457000D01*
X129567122Y-78457000D01*
X129684200Y-78433712D01*
X129794485Y-78388030D01*
X129893738Y-78321711D01*
X129978147Y-78237302D01*
X130044466Y-78138049D01*
X130090148Y-78027764D01*
X130113436Y-77910686D01*
X130113436Y-77791314D01*
X130090148Y-77674236D01*
X130044466Y-77563951D01*
X129978147Y-77464698D01*
X129893738Y-77380289D01*
X129794485Y-77313970D01*
X129684200Y-77268288D01*
X129567122Y-77245000D01*
X129447750Y-77245000D01*
X129330672Y-77268288D01*
X129220387Y-77313970D01*
X129193967Y-77331623D01*
X129147111Y-77261498D01*
X129062702Y-77177089D01*
X128963449Y-77110770D01*
X128853164Y-77065088D01*
X128736086Y-77041800D01*
X128616714Y-77041800D01*
X128499636Y-77065088D01*
X128389351Y-77110770D01*
X128290098Y-77177089D01*
X128205689Y-77261498D01*
X128139370Y-77360751D01*
X128093688Y-77471036D01*
X128070400Y-77588114D01*
X127529800Y-77588114D01*
X127529800Y-77585314D01*
X127506512Y-77468236D01*
X127460830Y-77357951D01*
X127394511Y-77258698D01*
X127310102Y-77174289D01*
X127210849Y-77107970D01*
X127100564Y-77062288D01*
X126983486Y-77039000D01*
X126864114Y-77039000D01*
X126747036Y-77062288D01*
X126636751Y-77107970D01*
X126537498Y-77174289D01*
X126453089Y-77258698D01*
X126386770Y-77357951D01*
X126341088Y-77468236D01*
X126317800Y-77585314D01*
X124305229Y-77585314D01*
X124232791Y-77476904D01*
X124114118Y-77358231D01*
X123974573Y-77264990D01*
X123819519Y-77200764D01*
X123654915Y-77168022D01*
X123487085Y-77168022D01*
X123455088Y-77174387D01*
X123455171Y-77129645D01*
X123419574Y-76948939D01*
X123349408Y-76778649D01*
X123347763Y-76775575D01*
X123154541Y-76765064D01*
X122699605Y-77220000D01*
X122713748Y-77234143D01*
X122534143Y-77413748D01*
X122520000Y-77399605D01*
X122065064Y-77854541D01*
X112996265Y-77854541D01*
X113124685Y-77810966D01*
X113329079Y-77701714D01*
X113439926Y-77424531D01*
X113325750Y-77310355D01*
X121584829Y-77310355D01*
X121620426Y-77491061D01*
X121690592Y-77661351D01*
X121692237Y-77664425D01*
X121885459Y-77674936D01*
X122340395Y-77220000D01*
X121885459Y-76765064D01*
X121692237Y-76775575D01*
X121621438Y-76945603D01*
X121585172Y-77126176D01*
X121584829Y-77310355D01*
X113325750Y-77310355D01*
X112395000Y-76379605D01*
X111350074Y-77424531D01*
X111017233Y-77424531D01*
X110971835Y-77379133D01*
X110684883Y-77187398D01*
X110366039Y-77055329D01*
X110027557Y-76988000D01*
X109682443Y-76988000D01*
X109343961Y-77055329D01*
X109025117Y-77187398D01*
X108738165Y-77379133D01*
X108494133Y-77623165D01*
X108302398Y-77910117D01*
X108170329Y-78228961D01*
X108103000Y-78567443D01*
X105959849Y-78567443D01*
X105960201Y-77424531D01*
X106270074Y-77424531D01*
X106380921Y-77701714D01*
X106691840Y-77855089D01*
X107026705Y-77944860D01*
X107372650Y-77967576D01*
X107716380Y-77922366D01*
X108044685Y-77810966D01*
X108249079Y-77701714D01*
X108359926Y-77424531D01*
X107315000Y-76379605D01*
X106270074Y-77424531D01*
X105960201Y-77424531D01*
X105960273Y-77192860D01*
X106090469Y-77244926D01*
X107135395Y-76200000D01*
X107494605Y-76200000D01*
X108539531Y-77244926D01*
X108816714Y-77134079D01*
X108970089Y-76823160D01*
X109059860Y-76488295D01*
X109075004Y-76257650D01*
X110627424Y-76257650D01*
X110672634Y-76601380D01*
X110784034Y-76929685D01*
X110893286Y-77134079D01*
X111170469Y-77244926D01*
X112215395Y-76200000D01*
X112574605Y-76200000D01*
X113619531Y-77244926D01*
X113896714Y-77134079D01*
X114050089Y-76823160D01*
X114113812Y-76585459D01*
X122065064Y-76585459D01*
X122520000Y-77040395D01*
X122974936Y-76585459D01*
X133565064Y-76585459D01*
X134020000Y-77040395D01*
X134474936Y-76585459D01*
X134464425Y-76392237D01*
X134294397Y-76321438D01*
X134113824Y-76285172D01*
X133929645Y-76284829D01*
X133748939Y-76320426D01*
X133578649Y-76390592D01*
X133575575Y-76392237D01*
X133565064Y-76585459D01*
X122974936Y-76585459D01*
X122964425Y-76392237D01*
X122794397Y-76321438D01*
X122613824Y-76285172D01*
X122429645Y-76284829D01*
X122248939Y-76320426D01*
X122078649Y-76390592D01*
X122075575Y-76392237D01*
X122065064Y-76585459D01*
X114113812Y-76585459D01*
X114139860Y-76488295D01*
X114162576Y-76142350D01*
X114117366Y-75798620D01*
X114096617Y-75737469D01*
X148815074Y-75737469D01*
X149860000Y-76782395D01*
X150904926Y-75737469D01*
X150794079Y-75460286D01*
X150483160Y-75306911D01*
X150148295Y-75217140D01*
X149802350Y-75194424D01*
X149458620Y-75239634D01*
X149130315Y-75351034D01*
X148925921Y-75460286D01*
X148815074Y-75737469D01*
X114096617Y-75737469D01*
X114005966Y-75470315D01*
X113896714Y-75265921D01*
X113619531Y-75155074D01*
X112574605Y-76200000D01*
X112215395Y-76200000D01*
X111170469Y-75155074D01*
X110893286Y-75265921D01*
X110739911Y-75576840D01*
X110650140Y-75911705D01*
X110627424Y-76257650D01*
X109075004Y-76257650D01*
X109082576Y-76142350D01*
X109037366Y-75798620D01*
X108925966Y-75470315D01*
X108816714Y-75265921D01*
X108539531Y-75155074D01*
X107494605Y-76200000D01*
X107135395Y-76200000D01*
X106090469Y-75155074D01*
X105960884Y-75206896D01*
X105960955Y-74975469D01*
X106270074Y-74975469D01*
X107315000Y-76020395D01*
X108359926Y-74975469D01*
X111350074Y-74975469D01*
X112395000Y-76020395D01*
X113439926Y-74975469D01*
X113329079Y-74698286D01*
X113162899Y-74616310D01*
X118012000Y-74616310D01*
X118012000Y-74735682D01*
X118035288Y-74852760D01*
X118080970Y-74963045D01*
X118147289Y-75062298D01*
X118231698Y-75146707D01*
X118330951Y-75213026D01*
X118441236Y-75258708D01*
X118558314Y-75281996D01*
X118677686Y-75281996D01*
X118794764Y-75258708D01*
X118905049Y-75213026D01*
X119004302Y-75146707D01*
X119088711Y-75062298D01*
X119155030Y-74963045D01*
X119200712Y-74852760D01*
X119224000Y-74735682D01*
X119224000Y-74616314D01*
X120806000Y-74616314D01*
X120806000Y-74735686D01*
X120829288Y-74852764D01*
X120874970Y-74963049D01*
X120941289Y-75062302D01*
X121025698Y-75146711D01*
X121124951Y-75213030D01*
X121235236Y-75258712D01*
X121352314Y-75282000D01*
X121471686Y-75282000D01*
X121588764Y-75258712D01*
X121699049Y-75213030D01*
X121798302Y-75146711D01*
X121882711Y-75062302D01*
X121949030Y-74963049D01*
X121994712Y-74852764D01*
X122018000Y-74735686D01*
X122018000Y-74616314D01*
X121994712Y-74499236D01*
X121949030Y-74388951D01*
X121882711Y-74289698D01*
X121798302Y-74205289D01*
X121699049Y-74138970D01*
X121588764Y-74093288D01*
X121471686Y-74070000D01*
X121352314Y-74070000D01*
X121235236Y-74093288D01*
X121124951Y-74138970D01*
X121025698Y-74205289D01*
X120941289Y-74289698D01*
X120874970Y-74388951D01*
X120829288Y-74499236D01*
X120806000Y-74616314D01*
X119224000Y-74616314D01*
X119224000Y-74616310D01*
X119200712Y-74499232D01*
X119155030Y-74388947D01*
X119088711Y-74289694D01*
X119004302Y-74205285D01*
X118905049Y-74138966D01*
X118794764Y-74093284D01*
X118677686Y-74069996D01*
X118558314Y-74069996D01*
X118441236Y-74093284D01*
X118330951Y-74138966D01*
X118231698Y-74205285D01*
X118147289Y-74289694D01*
X118080970Y-74388947D01*
X118035288Y-74499232D01*
X118012000Y-74616310D01*
X113162899Y-74616310D01*
X113018160Y-74544911D01*
X112683295Y-74455140D01*
X112337350Y-74432424D01*
X111993620Y-74477634D01*
X111665315Y-74589034D01*
X111460921Y-74698286D01*
X111350074Y-74975469D01*
X108359926Y-74975469D01*
X108249079Y-74698286D01*
X107938160Y-74544911D01*
X107603295Y-74455140D01*
X107257350Y-74432424D01*
X106913620Y-74477634D01*
X106585315Y-74589034D01*
X106380921Y-74698286D01*
X106270074Y-74975469D01*
X105960955Y-74975469D01*
X105961275Y-73931685D01*
X124243000Y-73931685D01*
X124243000Y-74099515D01*
X124275742Y-74264119D01*
X124339968Y-74419173D01*
X124433209Y-74558718D01*
X124551882Y-74677391D01*
X124691427Y-74770632D01*
X124846481Y-74834858D01*
X125011085Y-74867600D01*
X125178915Y-74867600D01*
X125343519Y-74834858D01*
X125498573Y-74770632D01*
X125638118Y-74677391D01*
X125756791Y-74558718D01*
X125850032Y-74419173D01*
X125914258Y-74264119D01*
X125947000Y-74099515D01*
X125947000Y-73931685D01*
X127418000Y-73931685D01*
X127418000Y-74099515D01*
X127450742Y-74264119D01*
X127514968Y-74419173D01*
X127608209Y-74558718D01*
X127726882Y-74677391D01*
X127866427Y-74770632D01*
X128021481Y-74834858D01*
X128186085Y-74867600D01*
X128353915Y-74867600D01*
X128518519Y-74834858D01*
X128673573Y-74770632D01*
X128813118Y-74677391D01*
X128931791Y-74558718D01*
X129025032Y-74419173D01*
X129089258Y-74264119D01*
X129122000Y-74099515D01*
X129122000Y-73931685D01*
X130593000Y-73931685D01*
X130593000Y-74099515D01*
X130625742Y-74264119D01*
X130689968Y-74419173D01*
X130783209Y-74558718D01*
X130901882Y-74677391D01*
X131041427Y-74770632D01*
X131196481Y-74834858D01*
X131361085Y-74867600D01*
X131528915Y-74867600D01*
X131693519Y-74834858D01*
X131848573Y-74770632D01*
X131988118Y-74677391D01*
X132075605Y-74589904D01*
X134649000Y-74589904D01*
X134649000Y-74709276D01*
X134672288Y-74826354D01*
X134717970Y-74936639D01*
X134784289Y-75035892D01*
X134868698Y-75120301D01*
X134967951Y-75186620D01*
X135078236Y-75232302D01*
X135195314Y-75255590D01*
X135314686Y-75255590D01*
X135431764Y-75232302D01*
X135542049Y-75186620D01*
X135641302Y-75120301D01*
X135673594Y-75088009D01*
X135683698Y-75098113D01*
X135782951Y-75164432D01*
X135893236Y-75210114D01*
X136010314Y-75233402D01*
X136129686Y-75233402D01*
X136246764Y-75210114D01*
X136357049Y-75164432D01*
X136456302Y-75098113D01*
X136524505Y-75029910D01*
X136570441Y-75060604D01*
X136680726Y-75106286D01*
X136797804Y-75129574D01*
X136917176Y-75129574D01*
X137034254Y-75106286D01*
X137144539Y-75060604D01*
X137243792Y-74994285D01*
X137328201Y-74909876D01*
X137394520Y-74810623D01*
X137440202Y-74700338D01*
X137463490Y-74583260D01*
X137463490Y-74463888D01*
X137440202Y-74346810D01*
X137409907Y-74273672D01*
X150894000Y-74273672D01*
X150894000Y-74570328D01*
X150951875Y-74861284D01*
X151065400Y-75135359D01*
X151230213Y-75382019D01*
X151439981Y-75591787D01*
X151686641Y-75756600D01*
X151960716Y-75870125D01*
X152251672Y-75928000D01*
X152548328Y-75928000D01*
X152839284Y-75870125D01*
X153113359Y-75756600D01*
X153141990Y-75737469D01*
X153895074Y-75737469D01*
X154940000Y-76782395D01*
X155984926Y-75737469D01*
X155874079Y-75460286D01*
X155563160Y-75306911D01*
X155228295Y-75217140D01*
X154882350Y-75194424D01*
X154538620Y-75239634D01*
X154210315Y-75351034D01*
X154005921Y-75460286D01*
X153895074Y-75737469D01*
X153141990Y-75737469D01*
X153360019Y-75591787D01*
X153569787Y-75382019D01*
X153734600Y-75135359D01*
X153848125Y-74861284D01*
X153906000Y-74570328D01*
X153906000Y-74273672D01*
X153848125Y-73982716D01*
X153734600Y-73708641D01*
X153569787Y-73461981D01*
X153360019Y-73252213D01*
X153141991Y-73106531D01*
X153895074Y-73106531D01*
X154005921Y-73383714D01*
X154316840Y-73537089D01*
X154651705Y-73626860D01*
X154997650Y-73649576D01*
X155341380Y-73604366D01*
X155669685Y-73492966D01*
X155874079Y-73383714D01*
X155984926Y-73106531D01*
X154940000Y-72061605D01*
X153895074Y-73106531D01*
X153141991Y-73106531D01*
X153113359Y-73087400D01*
X152839284Y-72973875D01*
X152548328Y-72916000D01*
X152251672Y-72916000D01*
X151960716Y-72973875D01*
X151686641Y-73087400D01*
X151439981Y-73252213D01*
X151230213Y-73461981D01*
X151065400Y-73708641D01*
X150951875Y-73982716D01*
X150894000Y-74273672D01*
X137409907Y-74273672D01*
X137394520Y-74236525D01*
X137328201Y-74137272D01*
X137243792Y-74052863D01*
X137144539Y-73986544D01*
X137034254Y-73940862D01*
X136917176Y-73917574D01*
X136797804Y-73917574D01*
X136680726Y-73940862D01*
X136570441Y-73986544D01*
X136471188Y-74052863D01*
X136402985Y-74121066D01*
X136357049Y-74090372D01*
X136246764Y-74044690D01*
X136129686Y-74021402D01*
X136010314Y-74021402D01*
X135893236Y-74044690D01*
X135782951Y-74090372D01*
X135683698Y-74156691D01*
X135651406Y-74188983D01*
X135641302Y-74178879D01*
X135542049Y-74112560D01*
X135431764Y-74066878D01*
X135314686Y-74043590D01*
X135195314Y-74043590D01*
X135078236Y-74066878D01*
X134967951Y-74112560D01*
X134868698Y-74178879D01*
X134784289Y-74263288D01*
X134717970Y-74362541D01*
X134672288Y-74472826D01*
X134649000Y-74589904D01*
X132075605Y-74589904D01*
X132106791Y-74558718D01*
X132200032Y-74419173D01*
X132264258Y-74264119D01*
X132297000Y-74099515D01*
X132297000Y-73931685D01*
X132264258Y-73767081D01*
X132200032Y-73612027D01*
X132106791Y-73472482D01*
X131988118Y-73353809D01*
X131848573Y-73260568D01*
X131693519Y-73196342D01*
X131528915Y-73163600D01*
X131361085Y-73163600D01*
X131196481Y-73196342D01*
X131041427Y-73260568D01*
X130901882Y-73353809D01*
X130783209Y-73472482D01*
X130689968Y-73612027D01*
X130625742Y-73767081D01*
X130593000Y-73931685D01*
X129122000Y-73931685D01*
X129089258Y-73767081D01*
X129025032Y-73612027D01*
X128931791Y-73472482D01*
X128813118Y-73353809D01*
X128673573Y-73260568D01*
X128518519Y-73196342D01*
X128353915Y-73163600D01*
X128186085Y-73163600D01*
X128021481Y-73196342D01*
X127866427Y-73260568D01*
X127726882Y-73353809D01*
X127608209Y-73472482D01*
X127514968Y-73612027D01*
X127450742Y-73767081D01*
X127418000Y-73931685D01*
X125947000Y-73931685D01*
X125914258Y-73767081D01*
X125850032Y-73612027D01*
X125756791Y-73472482D01*
X125638118Y-73353809D01*
X125498573Y-73260568D01*
X125343519Y-73196342D01*
X125178915Y-73163600D01*
X125011085Y-73163600D01*
X124846481Y-73196342D01*
X124691427Y-73260568D01*
X124551882Y-73353809D01*
X124433209Y-73472482D01*
X124339968Y-73612027D01*
X124275742Y-73767081D01*
X124243000Y-73931685D01*
X105961275Y-73931685D01*
X105961640Y-72746890D01*
X106508524Y-72746890D01*
X106553175Y-72894099D01*
X106678359Y-73156920D01*
X106852412Y-73390269D01*
X107068645Y-73585178D01*
X107318748Y-73734157D01*
X107593109Y-73831481D01*
X107823000Y-73710814D01*
X107823000Y-72517000D01*
X108077000Y-72517000D01*
X108077000Y-73710814D01*
X108306891Y-73831481D01*
X108581252Y-73734157D01*
X108831355Y-73585178D01*
X109047588Y-73390269D01*
X109221641Y-73156920D01*
X109245641Y-73106531D01*
X148815074Y-73106531D01*
X148925921Y-73383714D01*
X149236840Y-73537089D01*
X149571705Y-73626860D01*
X149917650Y-73649576D01*
X150261380Y-73604366D01*
X150589685Y-73492966D01*
X150794079Y-73383714D01*
X150904926Y-73106531D01*
X149860000Y-72061605D01*
X148815074Y-73106531D01*
X109245641Y-73106531D01*
X109346825Y-72894099D01*
X109391476Y-72746890D01*
X109270155Y-72517000D01*
X108077000Y-72517000D01*
X107823000Y-72517000D01*
X106629845Y-72517000D01*
X106508524Y-72746890D01*
X105961640Y-72746890D01*
X105961859Y-72033110D01*
X106508524Y-72033110D01*
X106629845Y-72263000D01*
X107823000Y-72263000D01*
X107823000Y-72243000D01*
X108077000Y-72243000D01*
X108077000Y-72263000D01*
X109270155Y-72263000D01*
X109391476Y-72033110D01*
X109366064Y-71949328D01*
X117504000Y-71949328D01*
X117504000Y-72068700D01*
X117527288Y-72185778D01*
X117572970Y-72296063D01*
X117639289Y-72395316D01*
X117723698Y-72479725D01*
X117822951Y-72546044D01*
X117933236Y-72591726D01*
X118050314Y-72615014D01*
X118169686Y-72615014D01*
X118286764Y-72591726D01*
X118397049Y-72546044D01*
X118496302Y-72479725D01*
X118580711Y-72395316D01*
X118647030Y-72296063D01*
X118692712Y-72185778D01*
X118716000Y-72068700D01*
X118716000Y-71949328D01*
X118692712Y-71832250D01*
X118688597Y-71822314D01*
X118774000Y-71822314D01*
X118774000Y-71941686D01*
X118797288Y-72058764D01*
X118842970Y-72169049D01*
X118909289Y-72268302D01*
X118993698Y-72352711D01*
X119092951Y-72419030D01*
X119203236Y-72464712D01*
X119320314Y-72488000D01*
X119439686Y-72488000D01*
X119556764Y-72464712D01*
X119667049Y-72419030D01*
X119766302Y-72352711D01*
X119850711Y-72268302D01*
X119887999Y-72212496D01*
X119925289Y-72268304D01*
X120009698Y-72352713D01*
X120108951Y-72419032D01*
X120219236Y-72464714D01*
X120336314Y-72488002D01*
X120455686Y-72488002D01*
X120572764Y-72464714D01*
X120683049Y-72419032D01*
X120782302Y-72352713D01*
X120866711Y-72268304D01*
X120933030Y-72169051D01*
X120978712Y-72058766D01*
X121002000Y-71941688D01*
X121002000Y-71822316D01*
X120978712Y-71705238D01*
X120933030Y-71594953D01*
X120866711Y-71495700D01*
X120782302Y-71411291D01*
X120683049Y-71344972D01*
X120572764Y-71299290D01*
X120455686Y-71276002D01*
X120336314Y-71276002D01*
X120219236Y-71299290D01*
X120108951Y-71344972D01*
X120009698Y-71411291D01*
X119925289Y-71495700D01*
X119888001Y-71551506D01*
X119850711Y-71495698D01*
X119766302Y-71411289D01*
X119667049Y-71344970D01*
X119556764Y-71299288D01*
X119439686Y-71276000D01*
X119320314Y-71276000D01*
X119203236Y-71299288D01*
X119092951Y-71344970D01*
X118993698Y-71411289D01*
X118909289Y-71495698D01*
X118842970Y-71594951D01*
X118797288Y-71705236D01*
X118774000Y-71822314D01*
X118688597Y-71822314D01*
X118647030Y-71721965D01*
X118580711Y-71622712D01*
X118496302Y-71538303D01*
X118397049Y-71471984D01*
X118286764Y-71426302D01*
X118169686Y-71403014D01*
X118050314Y-71403014D01*
X117933236Y-71426302D01*
X117822951Y-71471984D01*
X117723698Y-71538303D01*
X117639289Y-71622712D01*
X117572970Y-71721965D01*
X117527288Y-71832250D01*
X117504000Y-71949328D01*
X109366064Y-71949328D01*
X109346825Y-71885901D01*
X109221641Y-71623080D01*
X109047588Y-71389731D01*
X108831355Y-71194822D01*
X108581252Y-71045843D01*
X108553744Y-71036085D01*
X124243000Y-71036085D01*
X124243000Y-71203915D01*
X124275742Y-71368519D01*
X124339968Y-71523573D01*
X124433209Y-71663118D01*
X124551882Y-71781791D01*
X124691427Y-71875032D01*
X124846481Y-71939258D01*
X125011085Y-71972000D01*
X125178915Y-71972000D01*
X125343519Y-71939258D01*
X125498573Y-71875032D01*
X125638118Y-71781791D01*
X125756791Y-71663118D01*
X125850032Y-71523573D01*
X125914258Y-71368519D01*
X125947000Y-71203915D01*
X125947000Y-71036085D01*
X127418000Y-71036085D01*
X127418000Y-71203915D01*
X127450742Y-71368519D01*
X127514968Y-71523573D01*
X127608209Y-71663118D01*
X127726882Y-71781791D01*
X127866427Y-71875032D01*
X128021481Y-71939258D01*
X128186085Y-71972000D01*
X128353915Y-71972000D01*
X128518519Y-71939258D01*
X128673573Y-71875032D01*
X128813118Y-71781791D01*
X128931791Y-71663118D01*
X129025032Y-71523573D01*
X129089258Y-71368519D01*
X129122000Y-71203915D01*
X129122000Y-71036085D01*
X130593000Y-71036085D01*
X130593000Y-71203915D01*
X130625742Y-71368519D01*
X130689968Y-71523573D01*
X130783209Y-71663118D01*
X130901882Y-71781791D01*
X131041427Y-71875032D01*
X131196481Y-71939258D01*
X131361085Y-71972000D01*
X131528915Y-71972000D01*
X131693519Y-71939258D01*
X131848573Y-71875032D01*
X131988118Y-71781791D01*
X132106791Y-71663118D01*
X132170137Y-71568314D01*
X134903000Y-71568314D01*
X134903000Y-71687686D01*
X134926288Y-71804764D01*
X134971970Y-71915049D01*
X135038289Y-72014302D01*
X135122698Y-72098711D01*
X135221951Y-72165030D01*
X135332236Y-72210712D01*
X135449314Y-72234000D01*
X135568686Y-72234000D01*
X135685764Y-72210712D01*
X135796049Y-72165030D01*
X135895302Y-72098711D01*
X135979711Y-72014302D01*
X136046030Y-71915049D01*
X136091712Y-71804764D01*
X136113482Y-71695314D01*
X137189000Y-71695314D01*
X137189000Y-71814686D01*
X137212288Y-71931764D01*
X137257970Y-72042049D01*
X137324289Y-72141302D01*
X137408698Y-72225711D01*
X137507951Y-72292030D01*
X137618236Y-72337712D01*
X137735314Y-72361000D01*
X137854686Y-72361000D01*
X137971764Y-72337712D01*
X138082049Y-72292030D01*
X138181302Y-72225711D01*
X138265711Y-72141302D01*
X138332030Y-72042049D01*
X138374445Y-71939650D01*
X148092424Y-71939650D01*
X148137634Y-72283380D01*
X148249034Y-72611685D01*
X148358286Y-72816079D01*
X148635469Y-72926926D01*
X149680395Y-71882000D01*
X150039605Y-71882000D01*
X151084531Y-72926926D01*
X151361714Y-72816079D01*
X151515089Y-72505160D01*
X151604860Y-72170295D01*
X151620004Y-71939650D01*
X153172424Y-71939650D01*
X153217634Y-72283380D01*
X153329034Y-72611685D01*
X153438286Y-72816079D01*
X153715469Y-72926926D01*
X154760395Y-71882000D01*
X153715469Y-70837074D01*
X153438286Y-70947921D01*
X153284911Y-71258840D01*
X153195140Y-71593705D01*
X153172424Y-71939650D01*
X151620004Y-71939650D01*
X151627576Y-71824350D01*
X151582366Y-71480620D01*
X151470966Y-71152315D01*
X151361714Y-70947921D01*
X151084531Y-70837074D01*
X150039605Y-71882000D01*
X149680395Y-71882000D01*
X148635469Y-70837074D01*
X148358286Y-70947921D01*
X148204911Y-71258840D01*
X148115140Y-71593705D01*
X148092424Y-71939650D01*
X138374445Y-71939650D01*
X138377712Y-71931764D01*
X138401000Y-71814686D01*
X138401000Y-71695314D01*
X138377712Y-71578236D01*
X138332030Y-71467951D01*
X138265711Y-71368698D01*
X138181302Y-71284289D01*
X138082049Y-71217970D01*
X137971764Y-71172288D01*
X137854686Y-71149000D01*
X137735314Y-71149000D01*
X137618236Y-71172288D01*
X137507951Y-71217970D01*
X137408698Y-71284289D01*
X137324289Y-71368698D01*
X137257970Y-71467951D01*
X137212288Y-71578236D01*
X137189000Y-71695314D01*
X136113482Y-71695314D01*
X136115000Y-71687686D01*
X136115000Y-71568314D01*
X136091712Y-71451236D01*
X136046030Y-71340951D01*
X135979711Y-71241698D01*
X135895302Y-71157289D01*
X135796049Y-71090970D01*
X135685764Y-71045288D01*
X135568686Y-71022000D01*
X135449314Y-71022000D01*
X135332236Y-71045288D01*
X135221951Y-71090970D01*
X135122698Y-71157289D01*
X135038289Y-71241698D01*
X134971970Y-71340951D01*
X134926288Y-71451236D01*
X134903000Y-71568314D01*
X132170137Y-71568314D01*
X132200032Y-71523573D01*
X132264258Y-71368519D01*
X132297000Y-71203915D01*
X132297000Y-71036085D01*
X132264258Y-70871481D01*
X132200032Y-70716427D01*
X132160638Y-70657469D01*
X148815074Y-70657469D01*
X149860000Y-71702395D01*
X150904926Y-70657469D01*
X153895074Y-70657469D01*
X154940000Y-71702395D01*
X155984926Y-70657469D01*
X155874079Y-70380286D01*
X155563160Y-70226911D01*
X155228295Y-70137140D01*
X154882350Y-70114424D01*
X154538620Y-70159634D01*
X154210315Y-70271034D01*
X154005921Y-70380286D01*
X153895074Y-70657469D01*
X150904926Y-70657469D01*
X150794079Y-70380286D01*
X150483160Y-70226911D01*
X150148295Y-70137140D01*
X149802350Y-70114424D01*
X149458620Y-70159634D01*
X149130315Y-70271034D01*
X148925921Y-70380286D01*
X148815074Y-70657469D01*
X132160638Y-70657469D01*
X132106791Y-70576882D01*
X131988118Y-70458209D01*
X131848573Y-70364968D01*
X131693519Y-70300742D01*
X131528915Y-70268000D01*
X131361085Y-70268000D01*
X131196481Y-70300742D01*
X131041427Y-70364968D01*
X130901882Y-70458209D01*
X130783209Y-70576882D01*
X130689968Y-70716427D01*
X130625742Y-70871481D01*
X130593000Y-71036085D01*
X129122000Y-71036085D01*
X129089258Y-70871481D01*
X129025032Y-70716427D01*
X128931791Y-70576882D01*
X128813118Y-70458209D01*
X128673573Y-70364968D01*
X128518519Y-70300742D01*
X128353915Y-70268000D01*
X128186085Y-70268000D01*
X128021481Y-70300742D01*
X127866427Y-70364968D01*
X127726882Y-70458209D01*
X127608209Y-70576882D01*
X127514968Y-70716427D01*
X127450742Y-70871481D01*
X127418000Y-71036085D01*
X125947000Y-71036085D01*
X125914258Y-70871481D01*
X125850032Y-70716427D01*
X125756791Y-70576882D01*
X125638118Y-70458209D01*
X125498573Y-70364968D01*
X125343519Y-70300742D01*
X125178915Y-70268000D01*
X125011085Y-70268000D01*
X124846481Y-70300742D01*
X124691427Y-70364968D01*
X124551882Y-70458209D01*
X124433209Y-70576882D01*
X124339968Y-70716427D01*
X124275742Y-70871481D01*
X124243000Y-71036085D01*
X108553744Y-71036085D01*
X108418832Y-70988228D01*
X108533097Y-70940898D01*
X108734717Y-70806180D01*
X108906180Y-70634717D01*
X109040898Y-70433097D01*
X109133693Y-70209069D01*
X109181000Y-69971243D01*
X109181000Y-69728757D01*
X109133693Y-69490931D01*
X109040898Y-69266903D01*
X108906180Y-69065283D01*
X108734717Y-68893820D01*
X108533097Y-68759102D01*
X108309069Y-68666307D01*
X108071243Y-68619000D01*
X107828757Y-68619000D01*
X107590931Y-68666307D01*
X107366903Y-68759102D01*
X107165283Y-68893820D01*
X106993820Y-69065283D01*
X106859102Y-69266903D01*
X106766307Y-69490931D01*
X106719000Y-69728757D01*
X106719000Y-69971243D01*
X106766307Y-70209069D01*
X106859102Y-70433097D01*
X106993820Y-70634717D01*
X107165283Y-70806180D01*
X107366903Y-70940898D01*
X107481168Y-70988228D01*
X107318748Y-71045843D01*
X107068645Y-71194822D01*
X106852412Y-71389731D01*
X106678359Y-71623080D01*
X106553175Y-71885901D01*
X106508524Y-72033110D01*
X105961859Y-72033110D01*
X105963349Y-67188757D01*
X106719000Y-67188757D01*
X106719000Y-67431243D01*
X106766307Y-67669069D01*
X106859102Y-67893097D01*
X106993820Y-68094717D01*
X107165283Y-68266180D01*
X107366903Y-68400898D01*
X107590931Y-68493693D01*
X107828757Y-68541000D01*
X108071243Y-68541000D01*
X108309069Y-68493693D01*
X108533097Y-68400898D01*
X108734717Y-68266180D01*
X108906180Y-68094717D01*
X109040898Y-67893097D01*
X109054157Y-67861085D01*
X124243000Y-67861085D01*
X124243000Y-68028915D01*
X124275742Y-68193519D01*
X124339968Y-68348573D01*
X124433209Y-68488118D01*
X124551882Y-68606791D01*
X124691427Y-68700032D01*
X124846481Y-68764258D01*
X125011085Y-68797000D01*
X125178915Y-68797000D01*
X125343519Y-68764258D01*
X125498573Y-68700032D01*
X125638118Y-68606791D01*
X125756791Y-68488118D01*
X125850032Y-68348573D01*
X125914258Y-68193519D01*
X125947000Y-68028915D01*
X125947000Y-67861085D01*
X127418000Y-67861085D01*
X127418000Y-68028915D01*
X127450742Y-68193519D01*
X127514968Y-68348573D01*
X127608209Y-68488118D01*
X127726882Y-68606791D01*
X127866427Y-68700032D01*
X128021481Y-68764258D01*
X128186085Y-68797000D01*
X128353915Y-68797000D01*
X128518519Y-68764258D01*
X128673573Y-68700032D01*
X128813118Y-68606791D01*
X128931791Y-68488118D01*
X129025032Y-68348573D01*
X129089258Y-68193519D01*
X129122000Y-68028915D01*
X129122000Y-67861085D01*
X130593000Y-67861085D01*
X130593000Y-68028915D01*
X130625742Y-68193519D01*
X130689968Y-68348573D01*
X130783209Y-68488118D01*
X130901882Y-68606791D01*
X131041427Y-68700032D01*
X131196481Y-68764258D01*
X131361085Y-68797000D01*
X131528915Y-68797000D01*
X131693519Y-68764258D01*
X131848573Y-68700032D01*
X131988118Y-68606791D01*
X132106791Y-68488118D01*
X132200032Y-68348573D01*
X132264258Y-68193519D01*
X132297000Y-68028915D01*
X132297000Y-67861085D01*
X132264258Y-67696481D01*
X132200032Y-67541427D01*
X132106791Y-67401882D01*
X131988118Y-67283209D01*
X131848573Y-67189968D01*
X131693519Y-67125742D01*
X131528915Y-67093000D01*
X131361085Y-67093000D01*
X131196481Y-67125742D01*
X131041427Y-67189968D01*
X130901882Y-67283209D01*
X130783209Y-67401882D01*
X130689968Y-67541427D01*
X130625742Y-67696481D01*
X130593000Y-67861085D01*
X129122000Y-67861085D01*
X129089258Y-67696481D01*
X129025032Y-67541427D01*
X128931791Y-67401882D01*
X128813118Y-67283209D01*
X128673573Y-67189968D01*
X128518519Y-67125742D01*
X128353915Y-67093000D01*
X128186085Y-67093000D01*
X128021481Y-67125742D01*
X127866427Y-67189968D01*
X127726882Y-67283209D01*
X127608209Y-67401882D01*
X127514968Y-67541427D01*
X127450742Y-67696481D01*
X127418000Y-67861085D01*
X125947000Y-67861085D01*
X125914258Y-67696481D01*
X125850032Y-67541427D01*
X125756791Y-67401882D01*
X125638118Y-67283209D01*
X125498573Y-67189968D01*
X125343519Y-67125742D01*
X125178915Y-67093000D01*
X125011085Y-67093000D01*
X124846481Y-67125742D01*
X124691427Y-67189968D01*
X124551882Y-67283209D01*
X124433209Y-67401882D01*
X124339968Y-67541427D01*
X124275742Y-67696481D01*
X124243000Y-67861085D01*
X109054157Y-67861085D01*
X109133693Y-67669069D01*
X109181000Y-67431243D01*
X109181000Y-67188757D01*
X109133693Y-66950931D01*
X109040898Y-66726903D01*
X108906180Y-66525283D01*
X108734717Y-66353820D01*
X108533097Y-66219102D01*
X108309069Y-66126307D01*
X108071243Y-66079000D01*
X107828757Y-66079000D01*
X107590931Y-66126307D01*
X107366903Y-66219102D01*
X107165283Y-66353820D01*
X106993820Y-66525283D01*
X106859102Y-66726903D01*
X106766307Y-66950931D01*
X106719000Y-67188757D01*
X105963349Y-67188757D01*
X105964130Y-64648757D01*
X106719000Y-64648757D01*
X106719000Y-64891243D01*
X106766307Y-65129069D01*
X106859102Y-65353097D01*
X106993820Y-65554717D01*
X107165283Y-65726180D01*
X107366903Y-65860898D01*
X107590931Y-65953693D01*
X107828757Y-66001000D01*
X108071243Y-66001000D01*
X108309069Y-65953693D01*
X108533097Y-65860898D01*
X108734717Y-65726180D01*
X108906180Y-65554717D01*
X109040898Y-65353097D01*
X109133693Y-65129069D01*
X109181000Y-64891243D01*
X109181000Y-64648757D01*
X109162329Y-64554889D01*
X117269000Y-64554889D01*
X117269000Y-64945111D01*
X117345129Y-65327836D01*
X117494461Y-65688355D01*
X117711257Y-66012814D01*
X117987186Y-66288743D01*
X118311645Y-66505539D01*
X118672164Y-66654871D01*
X119054889Y-66731000D01*
X119445111Y-66731000D01*
X119827836Y-66654871D01*
X120188355Y-66505539D01*
X120512814Y-66288743D01*
X120788743Y-66012814D01*
X121005539Y-65688355D01*
X121019545Y-65654541D01*
X122065064Y-65654541D01*
X122075575Y-65847763D01*
X122245603Y-65918562D01*
X122426176Y-65954828D01*
X122610355Y-65955171D01*
X122791061Y-65919574D01*
X122961351Y-65849408D01*
X122964425Y-65847763D01*
X122974936Y-65654541D01*
X133565064Y-65654541D01*
X133575575Y-65847763D01*
X133745603Y-65918562D01*
X133926176Y-65954828D01*
X134110355Y-65955171D01*
X134291061Y-65919574D01*
X134461351Y-65849408D01*
X134464425Y-65847763D01*
X134474936Y-65654541D01*
X134020000Y-65199605D01*
X133565064Y-65654541D01*
X122974936Y-65654541D01*
X122520000Y-65199605D01*
X122065064Y-65654541D01*
X121019545Y-65654541D01*
X121154871Y-65327836D01*
X121198130Y-65110355D01*
X121584829Y-65110355D01*
X121620426Y-65291061D01*
X121690592Y-65461351D01*
X121692237Y-65464425D01*
X121885459Y-65474936D01*
X122340395Y-65020000D01*
X122699605Y-65020000D01*
X123154541Y-65474936D01*
X123347763Y-65464425D01*
X123418562Y-65294397D01*
X123454828Y-65113824D01*
X123454834Y-65110355D01*
X133084829Y-65110355D01*
X133120426Y-65291061D01*
X133190592Y-65461351D01*
X133192237Y-65464425D01*
X133385459Y-65474936D01*
X133840395Y-65020000D01*
X134199605Y-65020000D01*
X134654541Y-65474936D01*
X134847763Y-65464425D01*
X134918562Y-65294397D01*
X134954828Y-65113824D01*
X134955171Y-64929645D01*
X134919574Y-64748939D01*
X134849408Y-64578649D01*
X134847763Y-64575575D01*
X134654541Y-64565064D01*
X134199605Y-65020000D01*
X133840395Y-65020000D01*
X133385459Y-64565064D01*
X133192237Y-64575575D01*
X133121438Y-64745603D01*
X133085172Y-64926176D01*
X133084829Y-65110355D01*
X123454834Y-65110355D01*
X123455171Y-64929645D01*
X123419574Y-64748939D01*
X123349408Y-64578649D01*
X123347763Y-64575575D01*
X123154541Y-64565064D01*
X122699605Y-65020000D01*
X122340395Y-65020000D01*
X121885459Y-64565064D01*
X121692237Y-64575575D01*
X121621438Y-64745603D01*
X121585172Y-64926176D01*
X121584829Y-65110355D01*
X121198130Y-65110355D01*
X121231000Y-64945111D01*
X121231000Y-64554889D01*
X121197299Y-64385459D01*
X122065064Y-64385459D01*
X122520000Y-64840395D01*
X122974936Y-64385459D01*
X133565064Y-64385459D01*
X134020000Y-64840395D01*
X134305506Y-64554889D01*
X135269000Y-64554889D01*
X135269000Y-64945111D01*
X135345129Y-65327836D01*
X135494461Y-65688355D01*
X135711257Y-66012814D01*
X135987186Y-66288743D01*
X136311645Y-66505539D01*
X136672164Y-66654871D01*
X137054889Y-66731000D01*
X137445111Y-66731000D01*
X137827836Y-66654871D01*
X138188355Y-66505539D01*
X138512814Y-66288743D01*
X138788743Y-66012814D01*
X139005539Y-65688355D01*
X139154871Y-65327836D01*
X139231000Y-64945111D01*
X139231000Y-64554889D01*
X139154871Y-64172164D01*
X139005539Y-63811645D01*
X138788743Y-63487186D01*
X138756088Y-63454531D01*
X148815074Y-63454531D01*
X148925921Y-63731714D01*
X149236840Y-63885089D01*
X149571705Y-63974860D01*
X149917650Y-63997576D01*
X150261380Y-63952366D01*
X150589685Y-63840966D01*
X150794079Y-63731714D01*
X150904926Y-63454531D01*
X153895074Y-63454531D01*
X154005921Y-63731714D01*
X154316840Y-63885089D01*
X154651705Y-63974860D01*
X154997650Y-63997576D01*
X155341380Y-63952366D01*
X155669685Y-63840966D01*
X155874079Y-63731714D01*
X155984926Y-63454531D01*
X154940000Y-62409605D01*
X153895074Y-63454531D01*
X150904926Y-63454531D01*
X149860000Y-62409605D01*
X148815074Y-63454531D01*
X138756088Y-63454531D01*
X138512814Y-63211257D01*
X138188355Y-62994461D01*
X137827836Y-62845129D01*
X137445111Y-62769000D01*
X137054889Y-62769000D01*
X136672164Y-62845129D01*
X136311645Y-62994461D01*
X135987186Y-63211257D01*
X135711257Y-63487186D01*
X135494461Y-63811645D01*
X135345129Y-64172164D01*
X135269000Y-64554889D01*
X134305506Y-64554889D01*
X134474936Y-64385459D01*
X134464425Y-64192237D01*
X134294397Y-64121438D01*
X134113824Y-64085172D01*
X133929645Y-64084829D01*
X133748939Y-64120426D01*
X133578649Y-64190592D01*
X133575575Y-64192237D01*
X133565064Y-64385459D01*
X122974936Y-64385459D01*
X122964425Y-64192237D01*
X122794397Y-64121438D01*
X122613824Y-64085172D01*
X122429645Y-64084829D01*
X122248939Y-64120426D01*
X122078649Y-64190592D01*
X122075575Y-64192237D01*
X122065064Y-64385459D01*
X121197299Y-64385459D01*
X121154871Y-64172164D01*
X121005539Y-63811645D01*
X120788743Y-63487186D01*
X120512814Y-63211257D01*
X120188355Y-62994461D01*
X119827836Y-62845129D01*
X119445111Y-62769000D01*
X119054889Y-62769000D01*
X118672164Y-62845129D01*
X118311645Y-62994461D01*
X117987186Y-63211257D01*
X117711257Y-63487186D01*
X117494461Y-63811645D01*
X117345129Y-64172164D01*
X117269000Y-64554889D01*
X109162329Y-64554889D01*
X109133693Y-64410931D01*
X109040898Y-64186903D01*
X108906180Y-63985283D01*
X108734717Y-63813820D01*
X108533097Y-63679102D01*
X108309069Y-63586307D01*
X108071243Y-63539000D01*
X107828757Y-63539000D01*
X107590931Y-63586307D01*
X107366903Y-63679102D01*
X107165283Y-63813820D01*
X106993820Y-63985283D01*
X106859102Y-64186903D01*
X106766307Y-64410931D01*
X106719000Y-64648757D01*
X105964130Y-64648757D01*
X105964911Y-62108757D01*
X106719000Y-62108757D01*
X106719000Y-62351243D01*
X106766307Y-62589069D01*
X106859102Y-62813097D01*
X106993820Y-63014717D01*
X107165283Y-63186180D01*
X107366903Y-63320898D01*
X107590931Y-63413693D01*
X107828757Y-63461000D01*
X108071243Y-63461000D01*
X108309069Y-63413693D01*
X108533097Y-63320898D01*
X108734717Y-63186180D01*
X108906180Y-63014717D01*
X109040898Y-62813097D01*
X109133693Y-62589069D01*
X109181000Y-62351243D01*
X109181000Y-62287650D01*
X148092424Y-62287650D01*
X148137634Y-62631380D01*
X148249034Y-62959685D01*
X148358286Y-63164079D01*
X148635469Y-63274926D01*
X149680395Y-62230000D01*
X150039605Y-62230000D01*
X151084531Y-63274926D01*
X151361714Y-63164079D01*
X151515089Y-62853160D01*
X151604860Y-62518295D01*
X151620004Y-62287650D01*
X153172424Y-62287650D01*
X153217634Y-62631380D01*
X153329034Y-62959685D01*
X153438286Y-63164079D01*
X153715469Y-63274926D01*
X154760395Y-62230000D01*
X153715469Y-61185074D01*
X153438286Y-61295921D01*
X153284911Y-61606840D01*
X153195140Y-61941705D01*
X153172424Y-62287650D01*
X151620004Y-62287650D01*
X151627576Y-62172350D01*
X151582366Y-61828620D01*
X151470966Y-61500315D01*
X151361714Y-61295921D01*
X151084531Y-61185074D01*
X150039605Y-62230000D01*
X149680395Y-62230000D01*
X148635469Y-61185074D01*
X148358286Y-61295921D01*
X148204911Y-61606840D01*
X148115140Y-61941705D01*
X148092424Y-62287650D01*
X109181000Y-62287650D01*
X109181000Y-62108757D01*
X109133693Y-61870931D01*
X109040898Y-61646903D01*
X108906180Y-61445283D01*
X108734717Y-61273820D01*
X108533097Y-61139102D01*
X108309069Y-61046307D01*
X108103765Y-61005469D01*
X148815074Y-61005469D01*
X149860000Y-62050395D01*
X150904926Y-61005469D01*
X150794079Y-60728286D01*
X150483160Y-60574911D01*
X150148295Y-60485140D01*
X149802350Y-60462424D01*
X149458620Y-60507634D01*
X149130315Y-60619034D01*
X148925921Y-60728286D01*
X148815074Y-61005469D01*
X108103765Y-61005469D01*
X108071243Y-60999000D01*
X107828757Y-60999000D01*
X107590931Y-61046307D01*
X107366903Y-61139102D01*
X107165283Y-61273820D01*
X106993820Y-61445283D01*
X106859102Y-61646903D01*
X106766307Y-61870931D01*
X106719000Y-62108757D01*
X105964911Y-62108757D01*
X105965917Y-58840000D01*
X106717157Y-58840000D01*
X106717157Y-60540000D01*
X106724513Y-60614689D01*
X106746299Y-60686508D01*
X106781678Y-60752696D01*
X106829289Y-60810711D01*
X106887304Y-60858322D01*
X106953492Y-60893701D01*
X107025311Y-60915487D01*
X107100000Y-60922843D01*
X108800000Y-60922843D01*
X108874689Y-60915487D01*
X108946508Y-60893701D01*
X109012696Y-60858322D01*
X109070711Y-60810711D01*
X109118322Y-60752696D01*
X109153701Y-60686508D01*
X109175487Y-60614689D01*
X109182843Y-60540000D01*
X109182843Y-59541672D01*
X150894000Y-59541672D01*
X150894000Y-59838328D01*
X150951875Y-60129284D01*
X151065400Y-60403359D01*
X151230213Y-60650019D01*
X151439981Y-60859787D01*
X151686641Y-61024600D01*
X151960716Y-61138125D01*
X152251672Y-61196000D01*
X152548328Y-61196000D01*
X152839284Y-61138125D01*
X153113359Y-61024600D01*
X153141990Y-61005469D01*
X153895074Y-61005469D01*
X154940000Y-62050395D01*
X155984926Y-61005469D01*
X155874079Y-60728286D01*
X155563160Y-60574911D01*
X155228295Y-60485140D01*
X154882350Y-60462424D01*
X154538620Y-60507634D01*
X154210315Y-60619034D01*
X154005921Y-60728286D01*
X153895074Y-61005469D01*
X153141990Y-61005469D01*
X153360019Y-60859787D01*
X153569787Y-60650019D01*
X153734600Y-60403359D01*
X153848125Y-60129284D01*
X153906000Y-59838328D01*
X153906000Y-59541672D01*
X153848125Y-59250716D01*
X153734600Y-58976641D01*
X153569787Y-58729981D01*
X153360019Y-58520213D01*
X153141991Y-58374531D01*
X153895074Y-58374531D01*
X154005921Y-58651714D01*
X154316840Y-58805089D01*
X154651705Y-58894860D01*
X154997650Y-58917576D01*
X155341380Y-58872366D01*
X155669685Y-58760966D01*
X155874079Y-58651714D01*
X155984926Y-58374531D01*
X154940000Y-57329605D01*
X153895074Y-58374531D01*
X153141991Y-58374531D01*
X153113359Y-58355400D01*
X152839284Y-58241875D01*
X152548328Y-58184000D01*
X152251672Y-58184000D01*
X151960716Y-58241875D01*
X151686641Y-58355400D01*
X151439981Y-58520213D01*
X151230213Y-58729981D01*
X151065400Y-58976641D01*
X150951875Y-59250716D01*
X150894000Y-59541672D01*
X109182843Y-59541672D01*
X109182843Y-58840000D01*
X109175487Y-58765311D01*
X109153701Y-58693492D01*
X109118322Y-58627304D01*
X109070711Y-58569289D01*
X109012696Y-58521678D01*
X108946508Y-58486299D01*
X108874689Y-58464513D01*
X108800000Y-58457157D01*
X107100000Y-58457157D01*
X107025311Y-58464513D01*
X106953492Y-58486299D01*
X106887304Y-58521678D01*
X106829289Y-58569289D01*
X106781678Y-58627304D01*
X106746299Y-58693492D01*
X106724513Y-58765311D01*
X106717157Y-58840000D01*
X105965917Y-58840000D01*
X105966059Y-58374531D01*
X148815074Y-58374531D01*
X148925921Y-58651714D01*
X149236840Y-58805089D01*
X149571705Y-58894860D01*
X149917650Y-58917576D01*
X150261380Y-58872366D01*
X150589685Y-58760966D01*
X150794079Y-58651714D01*
X150904926Y-58374531D01*
X149860000Y-57329605D01*
X148815074Y-58374531D01*
X105966059Y-58374531D01*
X105966418Y-57207650D01*
X148092424Y-57207650D01*
X148137634Y-57551380D01*
X148249034Y-57879685D01*
X148358286Y-58084079D01*
X148635469Y-58194926D01*
X149680395Y-57150000D01*
X150039605Y-57150000D01*
X151084531Y-58194926D01*
X151361714Y-58084079D01*
X151515089Y-57773160D01*
X151604860Y-57438295D01*
X151620004Y-57207650D01*
X153172424Y-57207650D01*
X153217634Y-57551380D01*
X153329034Y-57879685D01*
X153438286Y-58084079D01*
X153715469Y-58194926D01*
X154760395Y-57150000D01*
X153715469Y-56105074D01*
X153438286Y-56215921D01*
X153284911Y-56526840D01*
X153195140Y-56861705D01*
X153172424Y-57207650D01*
X151620004Y-57207650D01*
X151627576Y-57092350D01*
X151582366Y-56748620D01*
X151470966Y-56420315D01*
X151361714Y-56215921D01*
X151084531Y-56105074D01*
X150039605Y-57150000D01*
X149680395Y-57150000D01*
X148635469Y-56105074D01*
X148358286Y-56215921D01*
X148204911Y-56526840D01*
X148115140Y-56861705D01*
X148092424Y-57207650D01*
X105966418Y-57207650D01*
X105967479Y-53760000D01*
X129704157Y-53760000D01*
X129704157Y-55460000D01*
X129711513Y-55534689D01*
X129733299Y-55606508D01*
X129768678Y-55672696D01*
X129816289Y-55730711D01*
X129874304Y-55778322D01*
X129940492Y-55813701D01*
X130012311Y-55835487D01*
X130087000Y-55842843D01*
X131787000Y-55842843D01*
X131861689Y-55835487D01*
X131933508Y-55813701D01*
X131999696Y-55778322D01*
X132057711Y-55730711D01*
X132105322Y-55672696D01*
X132140701Y-55606508D01*
X132162487Y-55534689D01*
X132169843Y-55460000D01*
X132169843Y-54488757D01*
X132246000Y-54488757D01*
X132246000Y-54731243D01*
X132293307Y-54969069D01*
X132386102Y-55193097D01*
X132520820Y-55394717D01*
X132692283Y-55566180D01*
X132893903Y-55700898D01*
X133117931Y-55793693D01*
X133355757Y-55841000D01*
X133598243Y-55841000D01*
X133836069Y-55793693D01*
X134060097Y-55700898D01*
X134261717Y-55566180D01*
X134433180Y-55394717D01*
X134567898Y-55193097D01*
X134660693Y-54969069D01*
X134708000Y-54731243D01*
X134708000Y-54488757D01*
X134786000Y-54488757D01*
X134786000Y-54731243D01*
X134833307Y-54969069D01*
X134926102Y-55193097D01*
X135060820Y-55394717D01*
X135232283Y-55566180D01*
X135433903Y-55700898D01*
X135657931Y-55793693D01*
X135895757Y-55841000D01*
X136138243Y-55841000D01*
X136376069Y-55793693D01*
X136600097Y-55700898D01*
X136801717Y-55566180D01*
X136973180Y-55394717D01*
X137107898Y-55193097D01*
X137200693Y-54969069D01*
X137248000Y-54731243D01*
X137248000Y-54488757D01*
X137326000Y-54488757D01*
X137326000Y-54731243D01*
X137373307Y-54969069D01*
X137466102Y-55193097D01*
X137600820Y-55394717D01*
X137772283Y-55566180D01*
X137973903Y-55700898D01*
X138197931Y-55793693D01*
X138435757Y-55841000D01*
X138678243Y-55841000D01*
X138916069Y-55793693D01*
X139140097Y-55700898D01*
X139341717Y-55566180D01*
X139513180Y-55394717D01*
X139647898Y-55193097D01*
X139740693Y-54969069D01*
X139788000Y-54731243D01*
X139788000Y-54488757D01*
X139866000Y-54488757D01*
X139866000Y-54731243D01*
X139913307Y-54969069D01*
X140006102Y-55193097D01*
X140140820Y-55394717D01*
X140312283Y-55566180D01*
X140513903Y-55700898D01*
X140737931Y-55793693D01*
X140975757Y-55841000D01*
X141218243Y-55841000D01*
X141456069Y-55793693D01*
X141680097Y-55700898D01*
X141881717Y-55566180D01*
X142053180Y-55394717D01*
X142187898Y-55193097D01*
X142235228Y-55078832D01*
X142292843Y-55241252D01*
X142441822Y-55491355D01*
X142636731Y-55707588D01*
X142870080Y-55881641D01*
X143132901Y-56006825D01*
X143280110Y-56051476D01*
X143510000Y-55930155D01*
X143510000Y-54737000D01*
X143764000Y-54737000D01*
X143764000Y-55930155D01*
X143993890Y-56051476D01*
X144141099Y-56006825D01*
X144311904Y-55925469D01*
X148815074Y-55925469D01*
X149860000Y-56970395D01*
X150904926Y-55925469D01*
X153895074Y-55925469D01*
X154940000Y-56970395D01*
X155984926Y-55925469D01*
X155874079Y-55648286D01*
X155563160Y-55494911D01*
X155228295Y-55405140D01*
X154882350Y-55382424D01*
X154538620Y-55427634D01*
X154210315Y-55539034D01*
X154005921Y-55648286D01*
X153895074Y-55925469D01*
X150904926Y-55925469D01*
X150794079Y-55648286D01*
X150483160Y-55494911D01*
X150148295Y-55405140D01*
X149802350Y-55382424D01*
X149458620Y-55427634D01*
X149130315Y-55539034D01*
X148925921Y-55648286D01*
X148815074Y-55925469D01*
X144311904Y-55925469D01*
X144403920Y-55881641D01*
X144637269Y-55707588D01*
X144832178Y-55491355D01*
X144981157Y-55241252D01*
X145078481Y-54966891D01*
X144957814Y-54737000D01*
X143764000Y-54737000D01*
X143510000Y-54737000D01*
X143490000Y-54737000D01*
X143490000Y-54483000D01*
X143510000Y-54483000D01*
X143510000Y-53289845D01*
X143764000Y-53289845D01*
X143764000Y-54483000D01*
X144957814Y-54483000D01*
X145078481Y-54253109D01*
X144981157Y-53978748D01*
X144832178Y-53728645D01*
X144637269Y-53512412D01*
X144403920Y-53338359D01*
X144141099Y-53213175D01*
X143993890Y-53168524D01*
X143764000Y-53289845D01*
X143510000Y-53289845D01*
X143280110Y-53168524D01*
X143132901Y-53213175D01*
X142870080Y-53338359D01*
X142636731Y-53512412D01*
X142441822Y-53728645D01*
X142292843Y-53978748D01*
X142235228Y-54141168D01*
X142187898Y-54026903D01*
X142053180Y-53825283D01*
X141881717Y-53653820D01*
X141680097Y-53519102D01*
X141456069Y-53426307D01*
X141218243Y-53379000D01*
X140975757Y-53379000D01*
X140737931Y-53426307D01*
X140513903Y-53519102D01*
X140312283Y-53653820D01*
X140140820Y-53825283D01*
X140006102Y-54026903D01*
X139913307Y-54250931D01*
X139866000Y-54488757D01*
X139788000Y-54488757D01*
X139740693Y-54250931D01*
X139647898Y-54026903D01*
X139513180Y-53825283D01*
X139341717Y-53653820D01*
X139140097Y-53519102D01*
X138916069Y-53426307D01*
X138678243Y-53379000D01*
X138435757Y-53379000D01*
X138197931Y-53426307D01*
X137973903Y-53519102D01*
X137772283Y-53653820D01*
X137600820Y-53825283D01*
X137466102Y-54026903D01*
X137373307Y-54250931D01*
X137326000Y-54488757D01*
X137248000Y-54488757D01*
X137200693Y-54250931D01*
X137107898Y-54026903D01*
X136973180Y-53825283D01*
X136801717Y-53653820D01*
X136600097Y-53519102D01*
X136376069Y-53426307D01*
X136138243Y-53379000D01*
X135895757Y-53379000D01*
X135657931Y-53426307D01*
X135433903Y-53519102D01*
X135232283Y-53653820D01*
X135060820Y-53825283D01*
X134926102Y-54026903D01*
X134833307Y-54250931D01*
X134786000Y-54488757D01*
X134708000Y-54488757D01*
X134660693Y-54250931D01*
X134567898Y-54026903D01*
X134433180Y-53825283D01*
X134261717Y-53653820D01*
X134060097Y-53519102D01*
X133836069Y-53426307D01*
X133598243Y-53379000D01*
X133355757Y-53379000D01*
X133117931Y-53426307D01*
X132893903Y-53519102D01*
X132692283Y-53653820D01*
X132520820Y-53825283D01*
X132386102Y-54026903D01*
X132293307Y-54250931D01*
X132246000Y-54488757D01*
X132169843Y-54488757D01*
X132169843Y-53760000D01*
X132162487Y-53685311D01*
X132140701Y-53613492D01*
X132105322Y-53547304D01*
X132057711Y-53489289D01*
X131999696Y-53441678D01*
X131933508Y-53406299D01*
X131861689Y-53384513D01*
X131787000Y-53377157D01*
X130087000Y-53377157D01*
X130012311Y-53384513D01*
X129940492Y-53406299D01*
X129874304Y-53441678D01*
X129816289Y-53489289D01*
X129768678Y-53547304D01*
X129733299Y-53613492D01*
X129711513Y-53685311D01*
X129704157Y-53760000D01*
X105967479Y-53760000D01*
X105967867Y-52501000D01*
X156413798Y-52501000D01*
X156412051Y-56204059D01*
G37*
%TD.AperFunction*%
%TD*%
M02*
