%TF.GenerationSoftware,KiCad,Pcbnew,(5.1.10)-1*%
%TF.CreationDate,2021-07-12T12:28:39+02:00*%
%TF.ProjectId,astropix_v2,61737472-6f70-4697-985f-76322e6b6963,1.0*%
%TF.SameCoordinates,Original*%
%TF.FileFunction,Copper,L4,Bot*%
%TF.FilePolarity,Positive*%
%FSLAX46Y46*%
G04 Gerber Fmt 4.6, Leading zero omitted, Abs format (unit mm)*
G04 Created by KiCad (PCBNEW (5.1.10)-1) date 2021-07-12 12:28:39*
%MOMM*%
%LPD*%
G01*
G04 APERTURE LIST*
%TA.AperFunction,ConnectorPad*%
%ADD10R,0.700000X4.300000*%
%TD*%
%TA.AperFunction,ConnectorPad*%
%ADD11R,0.700000X3.200000*%
%TD*%
%TA.AperFunction,ComponentPad*%
%ADD12C,0.600000*%
%TD*%
%TA.AperFunction,ComponentPad*%
%ADD13O,1.700000X1.700000*%
%TD*%
%TA.AperFunction,ComponentPad*%
%ADD14R,1.700000X1.700000*%
%TD*%
%TA.AperFunction,ComponentPad*%
%ADD15C,2.250000*%
%TD*%
%TA.AperFunction,ViaPad*%
%ADD16C,0.450000*%
%TD*%
%TA.AperFunction,Conductor*%
%ADD17C,0.125000*%
%TD*%
%TA.AperFunction,Conductor*%
%ADD18C,0.500000*%
%TD*%
%TA.AperFunction,Conductor*%
%ADD19C,0.254000*%
%TD*%
%TA.AperFunction,Conductor*%
%ADD20C,0.100000*%
%TD*%
%TA.AperFunction,Conductor*%
%ADD21C,0.025400*%
%TD*%
G04 APERTURE END LIST*
D10*
%TO.P,J1,A42*%
%TO.N,/spi_right_csn*%
X149172000Y-105791000D03*
%TO.P,J1,A46*%
%TO.N,N/C*%
X153172000Y-105791000D03*
%TO.P,J1,A10*%
X115172000Y-105791000D03*
%TO.P,J1,A7*%
X112172000Y-105791000D03*
%TO.P,J1,A6*%
X111172000Y-105791000D03*
%TO.P,J1,A5*%
X110172000Y-105791000D03*
%TO.P,J1,A45*%
X152172000Y-105791000D03*
%TO.P,J1,A11*%
%TO.N,GND*%
X116172000Y-105791000D03*
%TO.P,J1,A9*%
%TO.N,N/C*%
X114172000Y-105791000D03*
%TO.P,J1,A18*%
%TO.N,/spi_left_miso1*%
X125172000Y-105791000D03*
%TO.P,J1,A49*%
%TO.N,N/C*%
X156172000Y-105791000D03*
%TO.P,J1,A43*%
%TO.N,/spi_right_mosi*%
X150172000Y-105791000D03*
%TO.P,J1,A16*%
%TO.N,/spi_left_csn*%
X123172000Y-105791000D03*
%TO.P,J1,A14*%
%TO.N,N/C*%
X121172000Y-105791000D03*
%TO.P,J1,A15*%
X122172000Y-105791000D03*
%TO.P,J1,A44*%
X151172000Y-105791000D03*
%TO.P,J1,A13*%
X120172000Y-105791000D03*
%TO.P,J1,A12*%
X119172000Y-105791000D03*
%TO.P,J1,A48*%
X155172000Y-105791000D03*
%TO.P,J1,A47*%
X154172000Y-105791000D03*
%TO.P,J1,A8*%
X113172000Y-105791000D03*
%TO.P,J1,A17*%
%TO.N,/spi_left_clk*%
X124172000Y-105791000D03*
%TO.P,J1,A27*%
%TO.N,N/C*%
X134172000Y-105791000D03*
%TO.P,J1,A21*%
X128172000Y-105791000D03*
%TO.P,J1,A20*%
%TO.N,/spi_left_mosi*%
X127172000Y-105791000D03*
%TO.P,J1,A24*%
%TO.N,/sr_ck1*%
X131172000Y-105791000D03*
%TO.P,J1,A29*%
%TO.N,N/C*%
X136172000Y-105791000D03*
%TO.P,J1,A30*%
X137172000Y-105791000D03*
%TO.P,J1,A23*%
X130172000Y-105791000D03*
%TO.P,J1,A28*%
%TO.N,/Inj*%
X135172000Y-105791000D03*
%TO.P,J1,A31*%
%TO.N,N/C*%
X138172000Y-105791000D03*
%TO.P,J1,A25*%
%TO.N,/sr_ck2*%
X132172000Y-105791000D03*
%TO.P,J1,A32*%
%TO.N,N/C*%
X139172000Y-105791000D03*
%TO.P,J1,A4*%
X109172000Y-105791000D03*
%TO.P,J1,A22*%
X129172000Y-105791000D03*
%TO.P,J1,A3*%
X108172000Y-105791000D03*
D11*
%TO.P,J1,A1*%
%TO.N,-HV*%
X106172000Y-105241000D03*
D10*
%TO.P,J1,A26*%
%TO.N,N/C*%
X133172000Y-105791000D03*
%TO.P,J1,A19*%
%TO.N,/spi_left_miso0*%
X126172000Y-105791000D03*
%TO.P,J1,A34*%
%TO.N,N/C*%
X141172000Y-105791000D03*
%TO.P,J1,A37*%
X144172000Y-105791000D03*
%TO.P,J1,A39*%
X146172000Y-105791000D03*
%TO.P,J1,A38*%
X145172000Y-105791000D03*
%TO.P,J1,A36*%
X143172000Y-105791000D03*
%TO.P,J1,A40*%
%TO.N,/spi_right_miso1*%
X147172000Y-105791000D03*
%TO.P,J1,A33*%
%TO.N,N/C*%
X140172000Y-105791000D03*
%TO.P,J1,A35*%
X142172000Y-105791000D03*
%TO.P,J1,A41*%
%TO.N,/spi_right_miso0*%
X148172000Y-105791000D03*
%TD*%
D12*
%TO.P,U4,Ring1*%
%TO.N,GND*%
X134020000Y-65020000D03*
X122520000Y-65020000D03*
X134020000Y-77220000D03*
X122520000Y-77220000D03*
%TD*%
D13*
%TO.P,JP1,3*%
%TO.N,/POW4_in*%
X114909600Y-97790000D03*
%TO.P,JP1,2*%
%TO.N,VDD*%
X114909600Y-95250000D03*
D14*
%TO.P,JP1,1*%
%TO.N,/VDD18_in*%
X114909600Y-92710000D03*
%TD*%
D13*
%TO.P,J10,6*%
%TO.N,GND*%
X143637000Y-54610000D03*
%TO.P,J10,5*%
%TO.N,/spi_right_mosi*%
X141097000Y-54610000D03*
%TO.P,J10,4*%
%TO.N,/spi_right_csn*%
X138557000Y-54610000D03*
%TO.P,J10,3*%
%TO.N,/spi_right_miso0*%
X136017000Y-54610000D03*
%TO.P,J10,2*%
%TO.N,/spi_right_miso1*%
X133477000Y-54610000D03*
D14*
%TO.P,J10,1*%
%TO.N,/spi_right_clk*%
X130937000Y-54610000D03*
%TD*%
D13*
%TO.P,J9,6*%
%TO.N,GND*%
X107950000Y-72390000D03*
%TO.P,J9,5*%
%TO.N,/spi_left_csn*%
X107950000Y-69850000D03*
%TO.P,J9,4*%
%TO.N,/spi_left_clk*%
X107950000Y-67310000D03*
%TO.P,J9,3*%
%TO.N,/spi_left_miso1*%
X107950000Y-64770000D03*
%TO.P,J9,2*%
%TO.N,/spi_left_miso0*%
X107950000Y-62230000D03*
D14*
%TO.P,J9,1*%
%TO.N,/spi_left_mosi*%
X107950000Y-59690000D03*
%TD*%
D15*
%TO.P,J6,2*%
%TO.N,GND*%
X112395000Y-81280000D03*
X107315000Y-81280000D03*
X107315000Y-76200000D03*
X112395000Y-76200000D03*
%TO.P,J6,1*%
%TO.N,/HV_in_ext*%
X109855000Y-78740000D03*
%TD*%
%TO.P,J5,2*%
%TO.N,GND*%
X149860000Y-57150000D03*
X154940000Y-57150000D03*
X154940000Y-62230000D03*
X149860000Y-62230000D03*
%TO.P,J5,1*%
%TO.N,/sc_out*%
X152400000Y-59690000D03*
%TD*%
%TO.P,J4,2*%
%TO.N,GND*%
X149860000Y-71882000D03*
X154940000Y-71882000D03*
X154940000Y-76962000D03*
X149860000Y-76962000D03*
%TO.P,J4,1*%
%TO.N,Net-(J4-Pad1)*%
X152400000Y-74422000D03*
%TD*%
%TO.P,J3,2*%
%TO.N,GND*%
X149860000Y-86360000D03*
X154940000Y-86360000D03*
X154940000Y-91440000D03*
X149860000Y-91440000D03*
%TO.P,J3,1*%
%TO.N,Net-(J3-Pad1)*%
X152400000Y-88900000D03*
%TD*%
D16*
%TO.N,VDD*%
X128676400Y-77647800D03*
X126923800Y-77645000D03*
X129286000Y-93649798D03*
X118846600Y-82245200D03*
X123621800Y-82270606D03*
X121602198Y-91274600D03*
X122174010Y-91287600D03*
%TO.N,VDDA*%
X131438370Y-80070025D03*
X130511716Y-78787014D03*
X145923000Y-75565000D03*
X145415000Y-83947000D03*
X125095000Y-80010000D03*
X122123200Y-96850200D03*
X121551404Y-96863200D03*
%TO.N,suba*%
X131445000Y-74015600D03*
X125095000Y-74015600D03*
X128270000Y-74015600D03*
X131445000Y-71120000D03*
X128270000Y-71120000D03*
X125095000Y-71120000D03*
X131445000Y-67945000D03*
X128270000Y-67945000D03*
X125095000Y-67945000D03*
X114274600Y-84709000D03*
X133718300Y-78359000D03*
%TO.N,/res_n*%
X130048000Y-90754206D03*
X126034800Y-79603600D03*
%TO.N,/Inj*%
X129507436Y-77851000D03*
%TO.N,/DAC_vminuspix*%
X132156200Y-82321400D03*
X132384800Y-79857600D03*
%TO.N,/sr_ck2*%
X128369479Y-84582008D03*
%TO.N,/sr_ck1*%
X128828798Y-79527400D03*
%TO.N,/hold*%
X130149600Y-102997000D03*
X126765067Y-84281583D03*
%TO.N,GND*%
X143002000Y-75565000D03*
X142494000Y-78486000D03*
X142367000Y-86741000D03*
X142621000Y-83947000D03*
X147320000Y-85344000D03*
X113030000Y-92837000D03*
X120777000Y-94742000D03*
X117500400Y-93421200D03*
X119176800Y-93421200D03*
X120751600Y-93421200D03*
X121488200Y-81534000D03*
X115214400Y-102108000D03*
X115214400Y-102743000D03*
X115824000Y-102108000D03*
X115824000Y-102717600D03*
X117500388Y-94691200D03*
X113944400Y-89814398D03*
X110642400Y-89814400D03*
X120395996Y-84201000D03*
X123596400Y-85090006D03*
X123875800Y-80010004D03*
X129717788Y-78917800D03*
X130310139Y-81684664D03*
X128379823Y-81686400D03*
X127304800Y-81686398D03*
X131785620Y-77645014D03*
X131157489Y-81730881D03*
X118846600Y-85115400D03*
X119151402Y-94691200D03*
X112937990Y-96164400D03*
%TO.N,-HV*%
X106297030Y-103276400D03*
%TO.N,/spi_left_csn*%
X117983000Y-74295000D03*
%TO.N,/spi_left_clk*%
X118618000Y-74295000D03*
%TO.N,/spi_left_mosi*%
X120649982Y-74295000D03*
%TO.N,/spi_left_miso0*%
X120014992Y-74295000D03*
%TO.N,/spi_left_miso1*%
X119380000Y-74295000D03*
%TO.N,/spi_right_csn*%
X137033006Y-74625200D03*
%TO.N,/spi_right_mosi*%
X137871200Y-74625200D03*
%TO.N,/spi_right_miso0*%
X136070000Y-74627402D03*
%TO.N,/spi_right_miso1*%
X135255000Y-74649590D03*
%TO.N,subd*%
X109347000Y-90932000D03*
X123571000Y-78020022D03*
%TD*%
D17*
%TO.N,/res_n*%
X130048000Y-90754206D02*
X126034800Y-86741006D01*
X126034800Y-86741006D02*
X126034800Y-79603600D01*
%TO.N,/Inj*%
X129282437Y-78075999D02*
X129507436Y-77851000D01*
X135172000Y-105791000D02*
X135172000Y-87900568D01*
X135172000Y-87900568D02*
X129282437Y-82011005D01*
X129282437Y-82011005D02*
X129282437Y-78075999D01*
%TO.N,/DAC_vminuspix*%
X132156200Y-82321400D02*
X132156200Y-80086200D01*
X132156200Y-80086200D02*
X132384800Y-79857600D01*
%TO.N,/sr_ck2*%
X132172000Y-88384529D02*
X128369479Y-84582008D01*
X132172000Y-105791000D02*
X132172000Y-88384529D01*
%TO.N,/sr_ck1*%
X127892670Y-80463528D02*
X128828798Y-79527400D01*
X127892670Y-85069172D02*
X127892670Y-80463528D01*
X131172000Y-88348502D02*
X127892670Y-85069172D01*
X131172000Y-105791000D02*
X131172000Y-88348502D01*
%TO.N,/hold*%
X126765067Y-84599781D02*
X126765067Y-84281583D01*
X130556000Y-88390714D02*
X126765067Y-84599781D01*
X130556000Y-102590600D02*
X130556000Y-88390714D01*
X130149600Y-102997000D02*
X130556000Y-102590600D01*
D18*
%TO.N,GND*%
X116172000Y-102456000D02*
X115824000Y-102108000D01*
X116172000Y-105791000D02*
X116172000Y-102456000D01*
D17*
%TO.N,-HV*%
X106172000Y-105241000D02*
X106172000Y-103632000D01*
X106297030Y-103506970D02*
X106297030Y-103276400D01*
X106172000Y-103632000D02*
X106297030Y-103506970D01*
%TO.N,/spi_left_csn*%
X123172000Y-105791000D02*
X123172000Y-90481070D01*
X123172000Y-90481070D02*
X117983000Y-85292070D01*
X117983000Y-85292070D02*
X117983000Y-74295000D01*
%TO.N,/spi_left_clk*%
X118618000Y-74295000D02*
X118281699Y-74631301D01*
X118281699Y-85237201D02*
X124172000Y-91127502D01*
X124172000Y-91127502D02*
X124172000Y-105791000D01*
X118281699Y-74631301D02*
X118281699Y-85237201D01*
%TO.N,/spi_left_mosi*%
X120874981Y-74519999D02*
X120649982Y-74295000D01*
X120874981Y-84552981D02*
X120874981Y-74519999D01*
X127127000Y-90805000D02*
X120874981Y-84552981D01*
X127127000Y-103946000D02*
X127127000Y-90805000D01*
X127172000Y-103991000D02*
X127127000Y-103946000D01*
X127172000Y-105791000D02*
X127172000Y-103991000D01*
%TO.N,/spi_left_miso0*%
X119761000Y-74548992D02*
X120014992Y-74295000D01*
X119761000Y-84328000D02*
X119761000Y-74548992D01*
X126172000Y-90739000D02*
X119761000Y-84328000D01*
X126172000Y-105791000D02*
X126172000Y-90739000D01*
%TO.N,/spi_left_miso1*%
X125172000Y-105791000D02*
X125172000Y-90421638D01*
X125172000Y-90421638D02*
X119380000Y-84629638D01*
X119380000Y-84629638D02*
X119380000Y-74295000D01*
%TO.N,/spi_right_csn*%
X144479189Y-98823189D02*
X144479189Y-94667757D01*
X137033006Y-87221574D02*
X137033006Y-74625200D01*
X144479189Y-94667757D02*
X137033006Y-87221574D01*
X149172000Y-103516000D02*
X144479189Y-98823189D01*
X149172000Y-105791000D02*
X149172000Y-103516000D01*
%TO.N,/spi_right_mosi*%
X150172000Y-103516000D02*
X150172000Y-105791000D01*
X144729200Y-94564200D02*
X144729200Y-98073200D01*
X137871200Y-87706200D02*
X144729200Y-94564200D01*
X144729200Y-98073200D02*
X150172000Y-103516000D01*
X137871200Y-74625200D02*
X137871200Y-87706200D01*
%TO.N,/spi_right_miso0*%
X136070000Y-86612136D02*
X144229178Y-94771314D01*
X144229178Y-94771314D02*
X144229178Y-99573178D01*
X136070000Y-74627402D02*
X136070000Y-86612136D01*
X144229178Y-99573178D02*
X148172000Y-103516000D01*
X148172000Y-103516000D02*
X148172000Y-105791000D01*
%TO.N,/spi_right_miso1*%
X143979167Y-94874871D02*
X135255000Y-86150704D01*
X147172000Y-105791000D02*
X147172000Y-103516000D01*
X147172000Y-103516000D02*
X143979167Y-100323167D01*
X143979167Y-100323167D02*
X143979167Y-94874871D01*
X135255000Y-86150704D02*
X135255000Y-74649590D01*
%TD*%
D19*
%TO.N,GND*%
X116037000Y-102946200D02*
X114985800Y-102946200D01*
X114985800Y-101930200D01*
X116037000Y-101930200D01*
X116037000Y-102946200D01*
%TA.AperFunction,Conductor*%
D20*
G36*
X116037000Y-102946200D02*
G01*
X114985800Y-102946200D01*
X114985800Y-101930200D01*
X116037000Y-101930200D01*
X116037000Y-102946200D01*
G37*
%TD.AperFunction*%
%TD*%
D21*
%TO.N,/res_n*%
X129826067Y-90460492D02*
X129826767Y-90461098D01*
X129847407Y-90477707D01*
X129848190Y-90478289D01*
X129869532Y-90492914D01*
X129870394Y-90493456D01*
X129892438Y-90506095D01*
X129893368Y-90506578D01*
X129916113Y-90517231D01*
X129917096Y-90517642D01*
X129940542Y-90526310D01*
X129941559Y-90526638D01*
X129965708Y-90533321D01*
X129966736Y-90533560D01*
X129991586Y-90538258D01*
X129992605Y-90538408D01*
X130018156Y-90541120D01*
X130019144Y-90541186D01*
X130035940Y-90541651D01*
X130109570Y-90815776D01*
X129835445Y-90742146D01*
X129834980Y-90725350D01*
X129834914Y-90724362D01*
X129832202Y-90698811D01*
X129832052Y-90697792D01*
X129827354Y-90672942D01*
X129827115Y-90671914D01*
X129820432Y-90647765D01*
X129820104Y-90646748D01*
X129811436Y-90623302D01*
X129811025Y-90622319D01*
X129800372Y-90599574D01*
X129799889Y-90598644D01*
X129787250Y-90576600D01*
X129786708Y-90575738D01*
X129772083Y-90554396D01*
X129771501Y-90553613D01*
X129754892Y-90532973D01*
X129754286Y-90532273D01*
X129744056Y-90521304D01*
X129815098Y-90450262D01*
X129826067Y-90460492D01*
%TA.AperFunction,Conductor*%
D20*
G36*
X129826067Y-90460492D02*
G01*
X129826767Y-90461098D01*
X129847407Y-90477707D01*
X129848190Y-90478289D01*
X129869532Y-90492914D01*
X129870394Y-90493456D01*
X129892438Y-90506095D01*
X129893368Y-90506578D01*
X129916113Y-90517231D01*
X129917096Y-90517642D01*
X129940542Y-90526310D01*
X129941559Y-90526638D01*
X129965708Y-90533321D01*
X129966736Y-90533560D01*
X129991586Y-90538258D01*
X129992605Y-90538408D01*
X130018156Y-90541120D01*
X130019144Y-90541186D01*
X130035940Y-90541651D01*
X130109570Y-90815776D01*
X129835445Y-90742146D01*
X129834980Y-90725350D01*
X129834914Y-90724362D01*
X129832202Y-90698811D01*
X129832052Y-90697792D01*
X129827354Y-90672942D01*
X129827115Y-90671914D01*
X129820432Y-90647765D01*
X129820104Y-90646748D01*
X129811436Y-90623302D01*
X129811025Y-90622319D01*
X129800372Y-90599574D01*
X129799889Y-90598644D01*
X129787250Y-90576600D01*
X129786708Y-90575738D01*
X129772083Y-90554396D01*
X129771501Y-90553613D01*
X129754892Y-90532973D01*
X129754286Y-90532273D01*
X129744056Y-90521304D01*
X129815098Y-90450262D01*
X129826067Y-90460492D01*
G37*
%TD.AperFunction*%
%TD*%
D21*
%TO.N,/res_n*%
X126176571Y-79762427D02*
X126165025Y-79774630D01*
X126164372Y-79775377D01*
X126148222Y-79795362D01*
X126147608Y-79796188D01*
X126133358Y-79817081D01*
X126132800Y-79817977D01*
X126120450Y-79839778D01*
X126119963Y-79840729D01*
X126109513Y-79863438D01*
X126109109Y-79864424D01*
X126100559Y-79888040D01*
X126100243Y-79889039D01*
X126093593Y-79913563D01*
X126093366Y-79914555D01*
X126088616Y-79939987D01*
X126088474Y-79940953D01*
X126085624Y-79967293D01*
X126085558Y-79968216D01*
X126085035Y-79983207D01*
X125984565Y-79983207D01*
X125984042Y-79968216D01*
X125983976Y-79967293D01*
X125981126Y-79940953D01*
X125980984Y-79939987D01*
X125976234Y-79914555D01*
X125976007Y-79913563D01*
X125969357Y-79889039D01*
X125969041Y-79888040D01*
X125960491Y-79864424D01*
X125960087Y-79863438D01*
X125949637Y-79840729D01*
X125949150Y-79839778D01*
X125936800Y-79817977D01*
X125936242Y-79817081D01*
X125921992Y-79796188D01*
X125921378Y-79795362D01*
X125905228Y-79775377D01*
X125904575Y-79774630D01*
X125893029Y-79762427D01*
X126034800Y-79516526D01*
X126176571Y-79762427D01*
%TA.AperFunction,Conductor*%
D20*
G36*
X126176571Y-79762427D02*
G01*
X126165025Y-79774630D01*
X126164372Y-79775377D01*
X126148222Y-79795362D01*
X126147608Y-79796188D01*
X126133358Y-79817081D01*
X126132800Y-79817977D01*
X126120450Y-79839778D01*
X126119963Y-79840729D01*
X126109513Y-79863438D01*
X126109109Y-79864424D01*
X126100559Y-79888040D01*
X126100243Y-79889039D01*
X126093593Y-79913563D01*
X126093366Y-79914555D01*
X126088616Y-79939987D01*
X126088474Y-79940953D01*
X126085624Y-79967293D01*
X126085558Y-79968216D01*
X126085035Y-79983207D01*
X125984565Y-79983207D01*
X125984042Y-79968216D01*
X125983976Y-79967293D01*
X125981126Y-79940953D01*
X125980984Y-79939987D01*
X125976234Y-79914555D01*
X125976007Y-79913563D01*
X125969357Y-79889039D01*
X125969041Y-79888040D01*
X125960491Y-79864424D01*
X125960087Y-79863438D01*
X125949637Y-79840729D01*
X125949150Y-79839778D01*
X125936800Y-79817977D01*
X125936242Y-79817081D01*
X125921992Y-79796188D01*
X125921378Y-79795362D01*
X125905228Y-79775377D01*
X125904575Y-79774630D01*
X125893029Y-79762427D01*
X126034800Y-79516526D01*
X126176571Y-79762427D01*
G37*
%TD.AperFunction*%
%TD*%
D21*
%TO.N,/Inj*%
X129495427Y-78063364D02*
X129479356Y-78063490D01*
X129478853Y-78063504D01*
X129454874Y-78064644D01*
X129454296Y-78064685D01*
X129432066Y-78066762D01*
X129431397Y-78066842D01*
X129410917Y-78069857D01*
X129410145Y-78069996D01*
X129391415Y-78073948D01*
X129390523Y-78074170D01*
X129373542Y-78079059D01*
X129372518Y-78079401D01*
X129357288Y-78085227D01*
X129356131Y-78085738D01*
X129342650Y-78092502D01*
X129341376Y-78093236D01*
X129329644Y-78100937D01*
X129328302Y-78101951D01*
X129327256Y-78102857D01*
X129255578Y-78031179D01*
X129256484Y-78030132D01*
X129257498Y-78028791D01*
X129265199Y-78017059D01*
X129265933Y-78015785D01*
X129272697Y-78002304D01*
X129273208Y-78001147D01*
X129279034Y-77985917D01*
X129279376Y-77984893D01*
X129284265Y-77967912D01*
X129284487Y-77967020D01*
X129288439Y-77948290D01*
X129288578Y-77947518D01*
X129291593Y-77927038D01*
X129291673Y-77926369D01*
X129293750Y-77904139D01*
X129293791Y-77903561D01*
X129294931Y-77879582D01*
X129294945Y-77879079D01*
X129295072Y-77863009D01*
X129569006Y-77789430D01*
X129495427Y-78063364D01*
%TA.AperFunction,Conductor*%
D20*
G36*
X129495427Y-78063364D02*
G01*
X129479356Y-78063490D01*
X129478853Y-78063504D01*
X129454874Y-78064644D01*
X129454296Y-78064685D01*
X129432066Y-78066762D01*
X129431397Y-78066842D01*
X129410917Y-78069857D01*
X129410145Y-78069996D01*
X129391415Y-78073948D01*
X129390523Y-78074170D01*
X129373542Y-78079059D01*
X129372518Y-78079401D01*
X129357288Y-78085227D01*
X129356131Y-78085738D01*
X129342650Y-78092502D01*
X129341376Y-78093236D01*
X129329644Y-78100937D01*
X129328302Y-78101951D01*
X129327256Y-78102857D01*
X129255578Y-78031179D01*
X129256484Y-78030132D01*
X129257498Y-78028791D01*
X129265199Y-78017059D01*
X129265933Y-78015785D01*
X129272697Y-78002304D01*
X129273208Y-78001147D01*
X129279034Y-77985917D01*
X129279376Y-77984893D01*
X129284265Y-77967912D01*
X129284487Y-77967020D01*
X129288439Y-77948290D01*
X129288578Y-77947518D01*
X129291593Y-77927038D01*
X129291673Y-77926369D01*
X129293750Y-77904139D01*
X129293791Y-77903561D01*
X129294931Y-77879582D01*
X129294945Y-77879079D01*
X129295072Y-77863009D01*
X129569006Y-77789430D01*
X129495427Y-78063364D01*
G37*
%TD.AperFunction*%
%TD*%
D21*
%TO.N,/DAC_vminuspix*%
X132206958Y-81956783D02*
X132207024Y-81957706D01*
X132209874Y-81984046D01*
X132210016Y-81985012D01*
X132214766Y-82010444D01*
X132214993Y-82011436D01*
X132221643Y-82035960D01*
X132221959Y-82036959D01*
X132230509Y-82060575D01*
X132230913Y-82061561D01*
X132241363Y-82084270D01*
X132241850Y-82085221D01*
X132254200Y-82107022D01*
X132254758Y-82107918D01*
X132269008Y-82128811D01*
X132269622Y-82129637D01*
X132285772Y-82149622D01*
X132286425Y-82150368D01*
X132297972Y-82162572D01*
X132156200Y-82408474D01*
X132014428Y-82162572D01*
X132025975Y-82150368D01*
X132026628Y-82149622D01*
X132042778Y-82129637D01*
X132043392Y-82128811D01*
X132057642Y-82107918D01*
X132058200Y-82107022D01*
X132070550Y-82085221D01*
X132071037Y-82084270D01*
X132081487Y-82061561D01*
X132081891Y-82060575D01*
X132090441Y-82036959D01*
X132090757Y-82035960D01*
X132097407Y-82011436D01*
X132097634Y-82010444D01*
X132102384Y-81985012D01*
X132102526Y-81984046D01*
X132105376Y-81957706D01*
X132105442Y-81956783D01*
X132105965Y-81941793D01*
X132206435Y-81941793D01*
X132206958Y-81956783D01*
%TA.AperFunction,Conductor*%
D20*
G36*
X132206958Y-81956783D02*
G01*
X132207024Y-81957706D01*
X132209874Y-81984046D01*
X132210016Y-81985012D01*
X132214766Y-82010444D01*
X132214993Y-82011436D01*
X132221643Y-82035960D01*
X132221959Y-82036959D01*
X132230509Y-82060575D01*
X132230913Y-82061561D01*
X132241363Y-82084270D01*
X132241850Y-82085221D01*
X132254200Y-82107022D01*
X132254758Y-82107918D01*
X132269008Y-82128811D01*
X132269622Y-82129637D01*
X132285772Y-82149622D01*
X132286425Y-82150368D01*
X132297972Y-82162572D01*
X132156200Y-82408474D01*
X132014428Y-82162572D01*
X132025975Y-82150368D01*
X132026628Y-82149622D01*
X132042778Y-82129637D01*
X132043392Y-82128811D01*
X132057642Y-82107918D01*
X132058200Y-82107022D01*
X132070550Y-82085221D01*
X132071037Y-82084270D01*
X132081487Y-82061561D01*
X132081891Y-82060575D01*
X132090441Y-82036959D01*
X132090757Y-82035960D01*
X132097407Y-82011436D01*
X132097634Y-82010444D01*
X132102384Y-81985012D01*
X132102526Y-81984046D01*
X132105376Y-81957706D01*
X132105442Y-81956783D01*
X132105965Y-81941793D01*
X132206435Y-81941793D01*
X132206958Y-81956783D01*
G37*
%TD.AperFunction*%
%TD*%
D21*
%TO.N,/DAC_vminuspix*%
X132372787Y-80069978D02*
X132356667Y-80070127D01*
X132356127Y-80070143D01*
X132332040Y-80071391D01*
X132331424Y-80071438D01*
X132309014Y-80073695D01*
X132308310Y-80073786D01*
X132287578Y-80077053D01*
X132286774Y-80077206D01*
X132267720Y-80081482D01*
X132266806Y-80081724D01*
X132249429Y-80087009D01*
X132248397Y-80087371D01*
X132232698Y-80093666D01*
X132231558Y-80094191D01*
X132217537Y-80101495D01*
X132216310Y-80102224D01*
X132203966Y-80110537D01*
X132202701Y-80111509D01*
X132200977Y-80113016D01*
X132129383Y-80041422D01*
X132130890Y-80039697D01*
X132131862Y-80038433D01*
X132140175Y-80026089D01*
X132140904Y-80024862D01*
X132148208Y-80010841D01*
X132148733Y-80009701D01*
X132155028Y-79994002D01*
X132155390Y-79992970D01*
X132160675Y-79975593D01*
X132160917Y-79974679D01*
X132165193Y-79955625D01*
X132165346Y-79954821D01*
X132168613Y-79934089D01*
X132168704Y-79933385D01*
X132170961Y-79910975D01*
X132171008Y-79910359D01*
X132172256Y-79886272D01*
X132172272Y-79885733D01*
X132172422Y-79869613D01*
X132446370Y-79796030D01*
X132372787Y-80069978D01*
%TA.AperFunction,Conductor*%
D20*
G36*
X132372787Y-80069978D02*
G01*
X132356667Y-80070127D01*
X132356127Y-80070143D01*
X132332040Y-80071391D01*
X132331424Y-80071438D01*
X132309014Y-80073695D01*
X132308310Y-80073786D01*
X132287578Y-80077053D01*
X132286774Y-80077206D01*
X132267720Y-80081482D01*
X132266806Y-80081724D01*
X132249429Y-80087009D01*
X132248397Y-80087371D01*
X132232698Y-80093666D01*
X132231558Y-80094191D01*
X132217537Y-80101495D01*
X132216310Y-80102224D01*
X132203966Y-80110537D01*
X132202701Y-80111509D01*
X132200977Y-80113016D01*
X132129383Y-80041422D01*
X132130890Y-80039697D01*
X132131862Y-80038433D01*
X132140175Y-80026089D01*
X132140904Y-80024862D01*
X132148208Y-80010841D01*
X132148733Y-80009701D01*
X132155028Y-79994002D01*
X132155390Y-79992970D01*
X132160675Y-79975593D01*
X132160917Y-79974679D01*
X132165193Y-79955625D01*
X132165346Y-79954821D01*
X132168613Y-79934089D01*
X132168704Y-79933385D01*
X132170961Y-79910975D01*
X132171008Y-79910359D01*
X132172256Y-79886272D01*
X132172272Y-79885733D01*
X132172422Y-79869613D01*
X132446370Y-79796030D01*
X132372787Y-80069978D01*
G37*
%TD.AperFunction*%
%TD*%
D21*
%TO.N,/sr_ck2*%
X128582034Y-84594068D02*
X128582498Y-84610862D01*
X128582564Y-84611851D01*
X128585276Y-84637402D01*
X128585426Y-84638421D01*
X128590124Y-84663271D01*
X128590363Y-84664299D01*
X128597046Y-84688448D01*
X128597374Y-84689465D01*
X128606042Y-84712911D01*
X128606453Y-84713894D01*
X128617106Y-84736639D01*
X128617589Y-84737569D01*
X128630228Y-84759613D01*
X128630770Y-84760475D01*
X128645395Y-84781817D01*
X128645977Y-84782600D01*
X128662586Y-84803240D01*
X128663192Y-84803940D01*
X128673423Y-84814910D01*
X128602381Y-84885952D01*
X128591411Y-84875721D01*
X128590711Y-84875115D01*
X128570071Y-84858506D01*
X128569288Y-84857924D01*
X128547946Y-84843299D01*
X128547084Y-84842757D01*
X128525040Y-84830118D01*
X128524110Y-84829635D01*
X128501365Y-84818982D01*
X128500382Y-84818571D01*
X128476936Y-84809903D01*
X128475919Y-84809575D01*
X128451770Y-84802892D01*
X128450742Y-84802653D01*
X128425892Y-84797955D01*
X128424873Y-84797805D01*
X128399322Y-84795093D01*
X128398333Y-84795027D01*
X128381539Y-84794563D01*
X128307909Y-84520438D01*
X128582034Y-84594068D01*
%TA.AperFunction,Conductor*%
D20*
G36*
X128582034Y-84594068D02*
G01*
X128582498Y-84610862D01*
X128582564Y-84611851D01*
X128585276Y-84637402D01*
X128585426Y-84638421D01*
X128590124Y-84663271D01*
X128590363Y-84664299D01*
X128597046Y-84688448D01*
X128597374Y-84689465D01*
X128606042Y-84712911D01*
X128606453Y-84713894D01*
X128617106Y-84736639D01*
X128617589Y-84737569D01*
X128630228Y-84759613D01*
X128630770Y-84760475D01*
X128645395Y-84781817D01*
X128645977Y-84782600D01*
X128662586Y-84803240D01*
X128663192Y-84803940D01*
X128673423Y-84814910D01*
X128602381Y-84885952D01*
X128591411Y-84875721D01*
X128590711Y-84875115D01*
X128570071Y-84858506D01*
X128569288Y-84857924D01*
X128547946Y-84843299D01*
X128547084Y-84842757D01*
X128525040Y-84830118D01*
X128524110Y-84829635D01*
X128501365Y-84818982D01*
X128500382Y-84818571D01*
X128476936Y-84809903D01*
X128475919Y-84809575D01*
X128451770Y-84802892D01*
X128450742Y-84802653D01*
X128425892Y-84797955D01*
X128424873Y-84797805D01*
X128399322Y-84795093D01*
X128398333Y-84795027D01*
X128381539Y-84794563D01*
X128307909Y-84520438D01*
X128582034Y-84594068D01*
G37*
%TD.AperFunction*%
%TD*%
D21*
%TO.N,/sr_ck1*%
X128816738Y-79739955D02*
X128799943Y-79740419D01*
X128798954Y-79740485D01*
X128773403Y-79743197D01*
X128772384Y-79743347D01*
X128747534Y-79748045D01*
X128746506Y-79748284D01*
X128722357Y-79754967D01*
X128721340Y-79755295D01*
X128697894Y-79763963D01*
X128696911Y-79764374D01*
X128674166Y-79775027D01*
X128673236Y-79775510D01*
X128651192Y-79788149D01*
X128650330Y-79788691D01*
X128628988Y-79803316D01*
X128628205Y-79803898D01*
X128607565Y-79820507D01*
X128606865Y-79821114D01*
X128595896Y-79831344D01*
X128524854Y-79760302D01*
X128535084Y-79749332D01*
X128535690Y-79748632D01*
X128552299Y-79727992D01*
X128552881Y-79727209D01*
X128567506Y-79705867D01*
X128568048Y-79705005D01*
X128580687Y-79682961D01*
X128581170Y-79682031D01*
X128591823Y-79659286D01*
X128592234Y-79658303D01*
X128600902Y-79634857D01*
X128601230Y-79633840D01*
X128607913Y-79609691D01*
X128608152Y-79608663D01*
X128612850Y-79583813D01*
X128613000Y-79582794D01*
X128615712Y-79557243D01*
X128615778Y-79556255D01*
X128616243Y-79539460D01*
X128890368Y-79465830D01*
X128816738Y-79739955D01*
%TA.AperFunction,Conductor*%
D20*
G36*
X128816738Y-79739955D02*
G01*
X128799943Y-79740419D01*
X128798954Y-79740485D01*
X128773403Y-79743197D01*
X128772384Y-79743347D01*
X128747534Y-79748045D01*
X128746506Y-79748284D01*
X128722357Y-79754967D01*
X128721340Y-79755295D01*
X128697894Y-79763963D01*
X128696911Y-79764374D01*
X128674166Y-79775027D01*
X128673236Y-79775510D01*
X128651192Y-79788149D01*
X128650330Y-79788691D01*
X128628988Y-79803316D01*
X128628205Y-79803898D01*
X128607565Y-79820507D01*
X128606865Y-79821114D01*
X128595896Y-79831344D01*
X128524854Y-79760302D01*
X128535084Y-79749332D01*
X128535690Y-79748632D01*
X128552299Y-79727992D01*
X128552881Y-79727209D01*
X128567506Y-79705867D01*
X128568048Y-79705005D01*
X128580687Y-79682961D01*
X128581170Y-79682031D01*
X128591823Y-79659286D01*
X128592234Y-79658303D01*
X128600902Y-79634857D01*
X128601230Y-79633840D01*
X128607913Y-79609691D01*
X128608152Y-79608663D01*
X128612850Y-79583813D01*
X128613000Y-79582794D01*
X128615712Y-79557243D01*
X128615778Y-79556255D01*
X128616243Y-79539460D01*
X128890368Y-79465830D01*
X128816738Y-79739955D01*
G37*
%TD.AperFunction*%
%TD*%
D21*
%TO.N,/hold*%
X126906740Y-84440239D02*
X126895466Y-84451692D01*
X126895120Y-84452057D01*
X126878970Y-84469819D01*
X126878590Y-84470257D01*
X126864340Y-84487445D01*
X126863925Y-84487974D01*
X126851575Y-84504587D01*
X126851126Y-84505231D01*
X126840676Y-84521270D01*
X126840203Y-84522058D01*
X126831653Y-84537522D01*
X126831171Y-84538488D01*
X126824521Y-84553378D01*
X126824063Y-84554558D01*
X126819313Y-84568874D01*
X126818932Y-84570294D01*
X126816082Y-84584035D01*
X126815850Y-84585700D01*
X126815750Y-84587081D01*
X126714384Y-84587081D01*
X126714284Y-84585700D01*
X126714052Y-84584035D01*
X126711202Y-84570294D01*
X126710821Y-84568874D01*
X126706071Y-84554558D01*
X126705613Y-84553378D01*
X126698963Y-84538488D01*
X126698481Y-84537522D01*
X126689931Y-84522058D01*
X126689458Y-84521270D01*
X126679008Y-84505231D01*
X126678559Y-84504587D01*
X126666209Y-84487974D01*
X126665794Y-84487445D01*
X126651544Y-84470257D01*
X126651164Y-84469819D01*
X126635014Y-84452057D01*
X126634668Y-84451692D01*
X126623394Y-84440239D01*
X126765067Y-84194509D01*
X126906740Y-84440239D01*
%TA.AperFunction,Conductor*%
D20*
G36*
X126906740Y-84440239D02*
G01*
X126895466Y-84451692D01*
X126895120Y-84452057D01*
X126878970Y-84469819D01*
X126878590Y-84470257D01*
X126864340Y-84487445D01*
X126863925Y-84487974D01*
X126851575Y-84504587D01*
X126851126Y-84505231D01*
X126840676Y-84521270D01*
X126840203Y-84522058D01*
X126831653Y-84537522D01*
X126831171Y-84538488D01*
X126824521Y-84553378D01*
X126824063Y-84554558D01*
X126819313Y-84568874D01*
X126818932Y-84570294D01*
X126816082Y-84584035D01*
X126815850Y-84585700D01*
X126815750Y-84587081D01*
X126714384Y-84587081D01*
X126714284Y-84585700D01*
X126714052Y-84584035D01*
X126711202Y-84570294D01*
X126710821Y-84568874D01*
X126706071Y-84554558D01*
X126705613Y-84553378D01*
X126698963Y-84538488D01*
X126698481Y-84537522D01*
X126689931Y-84522058D01*
X126689458Y-84521270D01*
X126679008Y-84505231D01*
X126678559Y-84504587D01*
X126666209Y-84487974D01*
X126665794Y-84487445D01*
X126651544Y-84470257D01*
X126651164Y-84469819D01*
X126635014Y-84452057D01*
X126634668Y-84451692D01*
X126623394Y-84440239D01*
X126765067Y-84194509D01*
X126906740Y-84440239D01*
G37*
%TD.AperFunction*%
%TD*%
D21*
%TO.N,/hold*%
X130453544Y-102764098D02*
X130443314Y-102775067D01*
X130442707Y-102775767D01*
X130426098Y-102796407D01*
X130425516Y-102797190D01*
X130410891Y-102818532D01*
X130410349Y-102819394D01*
X130397710Y-102841438D01*
X130397227Y-102842368D01*
X130386574Y-102865113D01*
X130386163Y-102866096D01*
X130377495Y-102889542D01*
X130377167Y-102890559D01*
X130370484Y-102914708D01*
X130370245Y-102915736D01*
X130365547Y-102940586D01*
X130365397Y-102941605D01*
X130362685Y-102967156D01*
X130362619Y-102968145D01*
X130362155Y-102984940D01*
X130088030Y-103058570D01*
X130161660Y-102784445D01*
X130178455Y-102783980D01*
X130179443Y-102783914D01*
X130204994Y-102781202D01*
X130206013Y-102781052D01*
X130230863Y-102776354D01*
X130231891Y-102776115D01*
X130256040Y-102769432D01*
X130257057Y-102769104D01*
X130280503Y-102760436D01*
X130281486Y-102760025D01*
X130304231Y-102749372D01*
X130305161Y-102748889D01*
X130327205Y-102736250D01*
X130328067Y-102735708D01*
X130349409Y-102721083D01*
X130350192Y-102720501D01*
X130370832Y-102703892D01*
X130371532Y-102703286D01*
X130382502Y-102693056D01*
X130453544Y-102764098D01*
%TA.AperFunction,Conductor*%
D20*
G36*
X130453544Y-102764098D02*
G01*
X130443314Y-102775067D01*
X130442707Y-102775767D01*
X130426098Y-102796407D01*
X130425516Y-102797190D01*
X130410891Y-102818532D01*
X130410349Y-102819394D01*
X130397710Y-102841438D01*
X130397227Y-102842368D01*
X130386574Y-102865113D01*
X130386163Y-102866096D01*
X130377495Y-102889542D01*
X130377167Y-102890559D01*
X130370484Y-102914708D01*
X130370245Y-102915736D01*
X130365547Y-102940586D01*
X130365397Y-102941605D01*
X130362685Y-102967156D01*
X130362619Y-102968145D01*
X130362155Y-102984940D01*
X130088030Y-103058570D01*
X130161660Y-102784445D01*
X130178455Y-102783980D01*
X130179443Y-102783914D01*
X130204994Y-102781202D01*
X130206013Y-102781052D01*
X130230863Y-102776354D01*
X130231891Y-102776115D01*
X130256040Y-102769432D01*
X130257057Y-102769104D01*
X130280503Y-102760436D01*
X130281486Y-102760025D01*
X130304231Y-102749372D01*
X130305161Y-102748889D01*
X130327205Y-102736250D01*
X130328067Y-102735708D01*
X130349409Y-102721083D01*
X130350192Y-102720501D01*
X130370832Y-102703892D01*
X130371532Y-102703286D01*
X130382502Y-102693056D01*
X130453544Y-102764098D01*
G37*
%TD.AperFunction*%
%TD*%
D21*
%TO.N,/spi_left_csn*%
X118124771Y-74453827D02*
X118113225Y-74466030D01*
X118112572Y-74466777D01*
X118096422Y-74486762D01*
X118095808Y-74487588D01*
X118081558Y-74508481D01*
X118081000Y-74509377D01*
X118068650Y-74531178D01*
X118068163Y-74532129D01*
X118057713Y-74554838D01*
X118057309Y-74555824D01*
X118048759Y-74579440D01*
X118048443Y-74580439D01*
X118041793Y-74604963D01*
X118041566Y-74605955D01*
X118036816Y-74631387D01*
X118036674Y-74632353D01*
X118033824Y-74658693D01*
X118033758Y-74659616D01*
X118033235Y-74674607D01*
X117932765Y-74674607D01*
X117932242Y-74659616D01*
X117932176Y-74658693D01*
X117929326Y-74632353D01*
X117929184Y-74631387D01*
X117924434Y-74605955D01*
X117924207Y-74604963D01*
X117917557Y-74580439D01*
X117917241Y-74579440D01*
X117908691Y-74555824D01*
X117908287Y-74554838D01*
X117897837Y-74532129D01*
X117897350Y-74531178D01*
X117885000Y-74509377D01*
X117884442Y-74508481D01*
X117870192Y-74487588D01*
X117869578Y-74486762D01*
X117853428Y-74466777D01*
X117852775Y-74466030D01*
X117841229Y-74453827D01*
X117983000Y-74207926D01*
X118124771Y-74453827D01*
%TA.AperFunction,Conductor*%
D20*
G36*
X118124771Y-74453827D02*
G01*
X118113225Y-74466030D01*
X118112572Y-74466777D01*
X118096422Y-74486762D01*
X118095808Y-74487588D01*
X118081558Y-74508481D01*
X118081000Y-74509377D01*
X118068650Y-74531178D01*
X118068163Y-74532129D01*
X118057713Y-74554838D01*
X118057309Y-74555824D01*
X118048759Y-74579440D01*
X118048443Y-74580439D01*
X118041793Y-74604963D01*
X118041566Y-74605955D01*
X118036816Y-74631387D01*
X118036674Y-74632353D01*
X118033824Y-74658693D01*
X118033758Y-74659616D01*
X118033235Y-74674607D01*
X117932765Y-74674607D01*
X117932242Y-74659616D01*
X117932176Y-74658693D01*
X117929326Y-74632353D01*
X117929184Y-74631387D01*
X117924434Y-74605955D01*
X117924207Y-74604963D01*
X117917557Y-74580439D01*
X117917241Y-74579440D01*
X117908691Y-74555824D01*
X117908287Y-74554838D01*
X117897837Y-74532129D01*
X117897350Y-74531178D01*
X117885000Y-74509377D01*
X117884442Y-74508481D01*
X117870192Y-74487588D01*
X117869578Y-74486762D01*
X117853428Y-74466777D01*
X117852775Y-74466030D01*
X117841229Y-74453827D01*
X117983000Y-74207926D01*
X118124771Y-74453827D01*
G37*
%TD.AperFunction*%
%TD*%
D21*
%TO.N,/spi_left_clk*%
X118605940Y-74507555D02*
X118589145Y-74508019D01*
X118588156Y-74508085D01*
X118562605Y-74510797D01*
X118561586Y-74510947D01*
X118536736Y-74515645D01*
X118535708Y-74515884D01*
X118511559Y-74522567D01*
X118510542Y-74522895D01*
X118487096Y-74531563D01*
X118486113Y-74531974D01*
X118463368Y-74542627D01*
X118462438Y-74543110D01*
X118440394Y-74555749D01*
X118439532Y-74556291D01*
X118418190Y-74570916D01*
X118417407Y-74571498D01*
X118396767Y-74588107D01*
X118396067Y-74588714D01*
X118385098Y-74598944D01*
X118314056Y-74527902D01*
X118324286Y-74516932D01*
X118324892Y-74516232D01*
X118341501Y-74495592D01*
X118342083Y-74494809D01*
X118356708Y-74473467D01*
X118357250Y-74472605D01*
X118369889Y-74450561D01*
X118370372Y-74449631D01*
X118381025Y-74426886D01*
X118381436Y-74425903D01*
X118390104Y-74402457D01*
X118390432Y-74401440D01*
X118397115Y-74377291D01*
X118397354Y-74376263D01*
X118402052Y-74351413D01*
X118402202Y-74350394D01*
X118404914Y-74324843D01*
X118404980Y-74323855D01*
X118405445Y-74307060D01*
X118679570Y-74233430D01*
X118605940Y-74507555D01*
%TA.AperFunction,Conductor*%
D20*
G36*
X118605940Y-74507555D02*
G01*
X118589145Y-74508019D01*
X118588156Y-74508085D01*
X118562605Y-74510797D01*
X118561586Y-74510947D01*
X118536736Y-74515645D01*
X118535708Y-74515884D01*
X118511559Y-74522567D01*
X118510542Y-74522895D01*
X118487096Y-74531563D01*
X118486113Y-74531974D01*
X118463368Y-74542627D01*
X118462438Y-74543110D01*
X118440394Y-74555749D01*
X118439532Y-74556291D01*
X118418190Y-74570916D01*
X118417407Y-74571498D01*
X118396767Y-74588107D01*
X118396067Y-74588714D01*
X118385098Y-74598944D01*
X118314056Y-74527902D01*
X118324286Y-74516932D01*
X118324892Y-74516232D01*
X118341501Y-74495592D01*
X118342083Y-74494809D01*
X118356708Y-74473467D01*
X118357250Y-74472605D01*
X118369889Y-74450561D01*
X118370372Y-74449631D01*
X118381025Y-74426886D01*
X118381436Y-74425903D01*
X118390104Y-74402457D01*
X118390432Y-74401440D01*
X118397115Y-74377291D01*
X118397354Y-74376263D01*
X118402052Y-74351413D01*
X118402202Y-74350394D01*
X118404914Y-74324843D01*
X118404980Y-74323855D01*
X118405445Y-74307060D01*
X118679570Y-74233430D01*
X118605940Y-74507555D01*
G37*
%TD.AperFunction*%
%TD*%
D21*
%TO.N,/spi_left_mosi*%
X120862346Y-74307009D02*
X120862472Y-74323079D01*
X120862486Y-74323582D01*
X120863626Y-74347561D01*
X120863667Y-74348139D01*
X120865744Y-74370369D01*
X120865824Y-74371038D01*
X120868839Y-74391518D01*
X120868978Y-74392290D01*
X120872930Y-74411020D01*
X120873152Y-74411912D01*
X120878041Y-74428893D01*
X120878383Y-74429917D01*
X120884209Y-74445147D01*
X120884720Y-74446304D01*
X120891484Y-74459785D01*
X120892218Y-74461059D01*
X120899919Y-74472791D01*
X120900933Y-74474133D01*
X120901839Y-74475180D01*
X120830162Y-74546857D01*
X120829115Y-74545951D01*
X120827773Y-74544937D01*
X120816041Y-74537236D01*
X120814767Y-74536502D01*
X120801286Y-74529738D01*
X120800129Y-74529227D01*
X120784899Y-74523401D01*
X120783875Y-74523059D01*
X120766894Y-74518170D01*
X120766002Y-74517948D01*
X120747272Y-74513996D01*
X120746500Y-74513857D01*
X120726020Y-74510842D01*
X120725351Y-74510762D01*
X120703121Y-74508685D01*
X120702543Y-74508644D01*
X120678564Y-74507504D01*
X120678061Y-74507490D01*
X120661991Y-74507364D01*
X120588412Y-74233430D01*
X120862346Y-74307009D01*
%TA.AperFunction,Conductor*%
D20*
G36*
X120862346Y-74307009D02*
G01*
X120862472Y-74323079D01*
X120862486Y-74323582D01*
X120863626Y-74347561D01*
X120863667Y-74348139D01*
X120865744Y-74370369D01*
X120865824Y-74371038D01*
X120868839Y-74391518D01*
X120868978Y-74392290D01*
X120872930Y-74411020D01*
X120873152Y-74411912D01*
X120878041Y-74428893D01*
X120878383Y-74429917D01*
X120884209Y-74445147D01*
X120884720Y-74446304D01*
X120891484Y-74459785D01*
X120892218Y-74461059D01*
X120899919Y-74472791D01*
X120900933Y-74474133D01*
X120901839Y-74475180D01*
X120830162Y-74546857D01*
X120829115Y-74545951D01*
X120827773Y-74544937D01*
X120816041Y-74537236D01*
X120814767Y-74536502D01*
X120801286Y-74529738D01*
X120800129Y-74529227D01*
X120784899Y-74523401D01*
X120783875Y-74523059D01*
X120766894Y-74518170D01*
X120766002Y-74517948D01*
X120747272Y-74513996D01*
X120746500Y-74513857D01*
X120726020Y-74510842D01*
X120725351Y-74510762D01*
X120703121Y-74508685D01*
X120702543Y-74508644D01*
X120678564Y-74507504D01*
X120678061Y-74507490D01*
X120661991Y-74507364D01*
X120588412Y-74233430D01*
X120862346Y-74307009D01*
G37*
%TD.AperFunction*%
%TD*%
D21*
%TO.N,/spi_left_miso0*%
X120002954Y-74507471D02*
X119986482Y-74507782D01*
X119985698Y-74507821D01*
X119960849Y-74509831D01*
X119960002Y-74509929D01*
X119936323Y-74513456D01*
X119935417Y-74513624D01*
X119912907Y-74518668D01*
X119911952Y-74518922D01*
X119890613Y-74525483D01*
X119889623Y-74525832D01*
X119869453Y-74533910D01*
X119868450Y-74534364D01*
X119849450Y-74543960D01*
X119848457Y-74544518D01*
X119830627Y-74555631D01*
X119829673Y-74556288D01*
X119813013Y-74568917D01*
X119812120Y-74569661D01*
X119805592Y-74575623D01*
X119734368Y-74504399D01*
X119740331Y-74497870D01*
X119741074Y-74496978D01*
X119753703Y-74480318D01*
X119754360Y-74479364D01*
X119765473Y-74461534D01*
X119766031Y-74460541D01*
X119775627Y-74441541D01*
X119776081Y-74440538D01*
X119784159Y-74420368D01*
X119784508Y-74419378D01*
X119791069Y-74398039D01*
X119791323Y-74397084D01*
X119796367Y-74374574D01*
X119796535Y-74373668D01*
X119800062Y-74349989D01*
X119800160Y-74349142D01*
X119802170Y-74324293D01*
X119802209Y-74323510D01*
X119802521Y-74307038D01*
X120076562Y-74233430D01*
X120002954Y-74507471D01*
%TA.AperFunction,Conductor*%
D20*
G36*
X120002954Y-74507471D02*
G01*
X119986482Y-74507782D01*
X119985698Y-74507821D01*
X119960849Y-74509831D01*
X119960002Y-74509929D01*
X119936323Y-74513456D01*
X119935417Y-74513624D01*
X119912907Y-74518668D01*
X119911952Y-74518922D01*
X119890613Y-74525483D01*
X119889623Y-74525832D01*
X119869453Y-74533910D01*
X119868450Y-74534364D01*
X119849450Y-74543960D01*
X119848457Y-74544518D01*
X119830627Y-74555631D01*
X119829673Y-74556288D01*
X119813013Y-74568917D01*
X119812120Y-74569661D01*
X119805592Y-74575623D01*
X119734368Y-74504399D01*
X119740331Y-74497870D01*
X119741074Y-74496978D01*
X119753703Y-74480318D01*
X119754360Y-74479364D01*
X119765473Y-74461534D01*
X119766031Y-74460541D01*
X119775627Y-74441541D01*
X119776081Y-74440538D01*
X119784159Y-74420368D01*
X119784508Y-74419378D01*
X119791069Y-74398039D01*
X119791323Y-74397084D01*
X119796367Y-74374574D01*
X119796535Y-74373668D01*
X119800062Y-74349989D01*
X119800160Y-74349142D01*
X119802170Y-74324293D01*
X119802209Y-74323510D01*
X119802521Y-74307038D01*
X120076562Y-74233430D01*
X120002954Y-74507471D01*
G37*
%TD.AperFunction*%
%TD*%
D21*
%TO.N,/spi_left_miso1*%
X119521771Y-74453827D02*
X119510225Y-74466030D01*
X119509572Y-74466777D01*
X119493422Y-74486762D01*
X119492808Y-74487588D01*
X119478558Y-74508481D01*
X119478000Y-74509377D01*
X119465650Y-74531178D01*
X119465163Y-74532129D01*
X119454713Y-74554838D01*
X119454309Y-74555824D01*
X119445759Y-74579440D01*
X119445443Y-74580439D01*
X119438793Y-74604963D01*
X119438566Y-74605955D01*
X119433816Y-74631387D01*
X119433674Y-74632353D01*
X119430824Y-74658693D01*
X119430758Y-74659616D01*
X119430235Y-74674607D01*
X119329765Y-74674607D01*
X119329242Y-74659616D01*
X119329176Y-74658693D01*
X119326326Y-74632353D01*
X119326184Y-74631387D01*
X119321434Y-74605955D01*
X119321207Y-74604963D01*
X119314557Y-74580439D01*
X119314241Y-74579440D01*
X119305691Y-74555824D01*
X119305287Y-74554838D01*
X119294837Y-74532129D01*
X119294350Y-74531178D01*
X119282000Y-74509377D01*
X119281442Y-74508481D01*
X119267192Y-74487588D01*
X119266578Y-74486762D01*
X119250428Y-74466777D01*
X119249775Y-74466030D01*
X119238229Y-74453827D01*
X119380000Y-74207926D01*
X119521771Y-74453827D01*
%TA.AperFunction,Conductor*%
D20*
G36*
X119521771Y-74453827D02*
G01*
X119510225Y-74466030D01*
X119509572Y-74466777D01*
X119493422Y-74486762D01*
X119492808Y-74487588D01*
X119478558Y-74508481D01*
X119478000Y-74509377D01*
X119465650Y-74531178D01*
X119465163Y-74532129D01*
X119454713Y-74554838D01*
X119454309Y-74555824D01*
X119445759Y-74579440D01*
X119445443Y-74580439D01*
X119438793Y-74604963D01*
X119438566Y-74605955D01*
X119433816Y-74631387D01*
X119433674Y-74632353D01*
X119430824Y-74658693D01*
X119430758Y-74659616D01*
X119430235Y-74674607D01*
X119329765Y-74674607D01*
X119329242Y-74659616D01*
X119329176Y-74658693D01*
X119326326Y-74632353D01*
X119326184Y-74631387D01*
X119321434Y-74605955D01*
X119321207Y-74604963D01*
X119314557Y-74580439D01*
X119314241Y-74579440D01*
X119305691Y-74555824D01*
X119305287Y-74554838D01*
X119294837Y-74532129D01*
X119294350Y-74531178D01*
X119282000Y-74509377D01*
X119281442Y-74508481D01*
X119267192Y-74487588D01*
X119266578Y-74486762D01*
X119250428Y-74466777D01*
X119249775Y-74466030D01*
X119238229Y-74453827D01*
X119380000Y-74207926D01*
X119521771Y-74453827D01*
G37*
%TD.AperFunction*%
%TD*%
D21*
%TO.N,/spi_right_csn*%
X137174777Y-74784027D02*
X137163231Y-74796230D01*
X137162578Y-74796977D01*
X137146428Y-74816962D01*
X137145814Y-74817788D01*
X137131564Y-74838681D01*
X137131006Y-74839577D01*
X137118656Y-74861378D01*
X137118169Y-74862329D01*
X137107719Y-74885038D01*
X137107315Y-74886024D01*
X137098765Y-74909640D01*
X137098449Y-74910639D01*
X137091799Y-74935163D01*
X137091572Y-74936155D01*
X137086822Y-74961587D01*
X137086680Y-74962553D01*
X137083830Y-74988893D01*
X137083764Y-74989816D01*
X137083241Y-75004807D01*
X136982771Y-75004807D01*
X136982248Y-74989816D01*
X136982182Y-74988893D01*
X136979332Y-74962553D01*
X136979190Y-74961587D01*
X136974440Y-74936155D01*
X136974213Y-74935163D01*
X136967563Y-74910639D01*
X136967247Y-74909640D01*
X136958697Y-74886024D01*
X136958293Y-74885038D01*
X136947843Y-74862329D01*
X136947356Y-74861378D01*
X136935005Y-74839577D01*
X136934447Y-74838681D01*
X136920198Y-74817788D01*
X136919584Y-74816962D01*
X136903434Y-74796977D01*
X136902781Y-74796230D01*
X136891235Y-74784027D01*
X137033006Y-74538126D01*
X137174777Y-74784027D01*
%TA.AperFunction,Conductor*%
D20*
G36*
X137174777Y-74784027D02*
G01*
X137163231Y-74796230D01*
X137162578Y-74796977D01*
X137146428Y-74816962D01*
X137145814Y-74817788D01*
X137131564Y-74838681D01*
X137131006Y-74839577D01*
X137118656Y-74861378D01*
X137118169Y-74862329D01*
X137107719Y-74885038D01*
X137107315Y-74886024D01*
X137098765Y-74909640D01*
X137098449Y-74910639D01*
X137091799Y-74935163D01*
X137091572Y-74936155D01*
X137086822Y-74961587D01*
X137086680Y-74962553D01*
X137083830Y-74988893D01*
X137083764Y-74989816D01*
X137083241Y-75004807D01*
X136982771Y-75004807D01*
X136982248Y-74989816D01*
X136982182Y-74988893D01*
X136979332Y-74962553D01*
X136979190Y-74961587D01*
X136974440Y-74936155D01*
X136974213Y-74935163D01*
X136967563Y-74910639D01*
X136967247Y-74909640D01*
X136958697Y-74886024D01*
X136958293Y-74885038D01*
X136947843Y-74862329D01*
X136947356Y-74861378D01*
X136935005Y-74839577D01*
X136934447Y-74838681D01*
X136920198Y-74817788D01*
X136919584Y-74816962D01*
X136903434Y-74796977D01*
X136902781Y-74796230D01*
X136891235Y-74784027D01*
X137033006Y-74538126D01*
X137174777Y-74784027D01*
G37*
%TD.AperFunction*%
%TD*%
D21*
%TO.N,/spi_right_mosi*%
X138012971Y-74784027D02*
X138001425Y-74796230D01*
X138000772Y-74796977D01*
X137984622Y-74816962D01*
X137984008Y-74817788D01*
X137969758Y-74838681D01*
X137969200Y-74839577D01*
X137956850Y-74861378D01*
X137956363Y-74862329D01*
X137945913Y-74885038D01*
X137945509Y-74886024D01*
X137936959Y-74909640D01*
X137936643Y-74910639D01*
X137929993Y-74935163D01*
X137929766Y-74936155D01*
X137925016Y-74961587D01*
X137924874Y-74962553D01*
X137922024Y-74988893D01*
X137921958Y-74989816D01*
X137921435Y-75004807D01*
X137820965Y-75004807D01*
X137820442Y-74989816D01*
X137820376Y-74988893D01*
X137817526Y-74962553D01*
X137817384Y-74961587D01*
X137812634Y-74936155D01*
X137812407Y-74935163D01*
X137805757Y-74910639D01*
X137805441Y-74909640D01*
X137796891Y-74886024D01*
X137796487Y-74885038D01*
X137786037Y-74862329D01*
X137785550Y-74861378D01*
X137773200Y-74839577D01*
X137772642Y-74838681D01*
X137758392Y-74817788D01*
X137757778Y-74816962D01*
X137741628Y-74796977D01*
X137740975Y-74796230D01*
X137729429Y-74784027D01*
X137871200Y-74538126D01*
X138012971Y-74784027D01*
%TA.AperFunction,Conductor*%
D20*
G36*
X138012971Y-74784027D02*
G01*
X138001425Y-74796230D01*
X138000772Y-74796977D01*
X137984622Y-74816962D01*
X137984008Y-74817788D01*
X137969758Y-74838681D01*
X137969200Y-74839577D01*
X137956850Y-74861378D01*
X137956363Y-74862329D01*
X137945913Y-74885038D01*
X137945509Y-74886024D01*
X137936959Y-74909640D01*
X137936643Y-74910639D01*
X137929993Y-74935163D01*
X137929766Y-74936155D01*
X137925016Y-74961587D01*
X137924874Y-74962553D01*
X137922024Y-74988893D01*
X137921958Y-74989816D01*
X137921435Y-75004807D01*
X137820965Y-75004807D01*
X137820442Y-74989816D01*
X137820376Y-74988893D01*
X137817526Y-74962553D01*
X137817384Y-74961587D01*
X137812634Y-74936155D01*
X137812407Y-74935163D01*
X137805757Y-74910639D01*
X137805441Y-74909640D01*
X137796891Y-74886024D01*
X137796487Y-74885038D01*
X137786037Y-74862329D01*
X137785550Y-74861378D01*
X137773200Y-74839577D01*
X137772642Y-74838681D01*
X137758392Y-74817788D01*
X137757778Y-74816962D01*
X137741628Y-74796977D01*
X137740975Y-74796230D01*
X137729429Y-74784027D01*
X137871200Y-74538126D01*
X138012971Y-74784027D01*
G37*
%TD.AperFunction*%
%TD*%
D21*
%TO.N,/spi_right_miso0*%
X136211771Y-74786229D02*
X136200225Y-74798432D01*
X136199572Y-74799179D01*
X136183422Y-74819164D01*
X136182808Y-74819990D01*
X136168558Y-74840883D01*
X136168000Y-74841779D01*
X136155650Y-74863580D01*
X136155163Y-74864531D01*
X136144713Y-74887240D01*
X136144309Y-74888226D01*
X136135759Y-74911842D01*
X136135443Y-74912841D01*
X136128793Y-74937365D01*
X136128566Y-74938357D01*
X136123816Y-74963789D01*
X136123674Y-74964755D01*
X136120824Y-74991095D01*
X136120758Y-74992018D01*
X136120235Y-75007009D01*
X136019765Y-75007009D01*
X136019242Y-74992018D01*
X136019176Y-74991095D01*
X136016326Y-74964755D01*
X136016184Y-74963789D01*
X136011434Y-74938357D01*
X136011207Y-74937365D01*
X136004557Y-74912841D01*
X136004241Y-74911842D01*
X135995691Y-74888226D01*
X135995287Y-74887240D01*
X135984837Y-74864531D01*
X135984350Y-74863580D01*
X135972000Y-74841779D01*
X135971442Y-74840883D01*
X135957192Y-74819990D01*
X135956578Y-74819164D01*
X135940428Y-74799179D01*
X135939775Y-74798432D01*
X135928229Y-74786229D01*
X136070000Y-74540328D01*
X136211771Y-74786229D01*
%TA.AperFunction,Conductor*%
D20*
G36*
X136211771Y-74786229D02*
G01*
X136200225Y-74798432D01*
X136199572Y-74799179D01*
X136183422Y-74819164D01*
X136182808Y-74819990D01*
X136168558Y-74840883D01*
X136168000Y-74841779D01*
X136155650Y-74863580D01*
X136155163Y-74864531D01*
X136144713Y-74887240D01*
X136144309Y-74888226D01*
X136135759Y-74911842D01*
X136135443Y-74912841D01*
X136128793Y-74937365D01*
X136128566Y-74938357D01*
X136123816Y-74963789D01*
X136123674Y-74964755D01*
X136120824Y-74991095D01*
X136120758Y-74992018D01*
X136120235Y-75007009D01*
X136019765Y-75007009D01*
X136019242Y-74992018D01*
X136019176Y-74991095D01*
X136016326Y-74964755D01*
X136016184Y-74963789D01*
X136011434Y-74938357D01*
X136011207Y-74937365D01*
X136004557Y-74912841D01*
X136004241Y-74911842D01*
X135995691Y-74888226D01*
X135995287Y-74887240D01*
X135984837Y-74864531D01*
X135984350Y-74863580D01*
X135972000Y-74841779D01*
X135971442Y-74840883D01*
X135957192Y-74819990D01*
X135956578Y-74819164D01*
X135940428Y-74799179D01*
X135939775Y-74798432D01*
X135928229Y-74786229D01*
X136070000Y-74540328D01*
X136211771Y-74786229D01*
G37*
%TD.AperFunction*%
%TD*%
D21*
%TO.N,/spi_right_miso1*%
X135396771Y-74808417D02*
X135385225Y-74820620D01*
X135384572Y-74821367D01*
X135368422Y-74841352D01*
X135367808Y-74842178D01*
X135353558Y-74863071D01*
X135353000Y-74863967D01*
X135340650Y-74885768D01*
X135340163Y-74886719D01*
X135329713Y-74909428D01*
X135329309Y-74910414D01*
X135320759Y-74934030D01*
X135320443Y-74935029D01*
X135313793Y-74959553D01*
X135313566Y-74960545D01*
X135308816Y-74985977D01*
X135308674Y-74986943D01*
X135305824Y-75013283D01*
X135305758Y-75014206D01*
X135305235Y-75029197D01*
X135204765Y-75029197D01*
X135204242Y-75014206D01*
X135204176Y-75013283D01*
X135201326Y-74986943D01*
X135201184Y-74985977D01*
X135196434Y-74960545D01*
X135196207Y-74959553D01*
X135189557Y-74935029D01*
X135189241Y-74934030D01*
X135180691Y-74910414D01*
X135180287Y-74909428D01*
X135169837Y-74886719D01*
X135169350Y-74885768D01*
X135157000Y-74863967D01*
X135156442Y-74863071D01*
X135142192Y-74842178D01*
X135141578Y-74841352D01*
X135125428Y-74821367D01*
X135124775Y-74820620D01*
X135113229Y-74808417D01*
X135255000Y-74562516D01*
X135396771Y-74808417D01*
%TA.AperFunction,Conductor*%
D20*
G36*
X135396771Y-74808417D02*
G01*
X135385225Y-74820620D01*
X135384572Y-74821367D01*
X135368422Y-74841352D01*
X135367808Y-74842178D01*
X135353558Y-74863071D01*
X135353000Y-74863967D01*
X135340650Y-74885768D01*
X135340163Y-74886719D01*
X135329713Y-74909428D01*
X135329309Y-74910414D01*
X135320759Y-74934030D01*
X135320443Y-74935029D01*
X135313793Y-74959553D01*
X135313566Y-74960545D01*
X135308816Y-74985977D01*
X135308674Y-74986943D01*
X135305824Y-75013283D01*
X135305758Y-75014206D01*
X135305235Y-75029197D01*
X135204765Y-75029197D01*
X135204242Y-75014206D01*
X135204176Y-75013283D01*
X135201326Y-74986943D01*
X135201184Y-74985977D01*
X135196434Y-74960545D01*
X135196207Y-74959553D01*
X135189557Y-74935029D01*
X135189241Y-74934030D01*
X135180691Y-74910414D01*
X135180287Y-74909428D01*
X135169837Y-74886719D01*
X135169350Y-74885768D01*
X135157000Y-74863967D01*
X135156442Y-74863071D01*
X135142192Y-74842178D01*
X135141578Y-74841352D01*
X135125428Y-74821367D01*
X135124775Y-74820620D01*
X135113229Y-74808417D01*
X135255000Y-74562516D01*
X135396771Y-74808417D01*
G37*
%TD.AperFunction*%
%TD*%
M02*
