%TF.GenerationSoftware,KiCad,Pcbnew,(5.1.10)-1*%
%TF.CreationDate,2021-07-12T12:28:39+02:00*%
%TF.ProjectId,astropix_v2,61737472-6f70-4697-985f-76322e6b6963,1.0*%
%TF.SameCoordinates,Original*%
%TF.FileFunction,Soldermask,Bot*%
%TF.FilePolarity,Negative*%
%FSLAX46Y46*%
G04 Gerber Fmt 4.6, Leading zero omitted, Abs format (unit mm)*
G04 Created by KiCad (PCBNEW (5.1.10)-1) date 2021-07-12 12:28:39*
%MOMM*%
%LPD*%
G01*
G04 APERTURE LIST*
%ADD10R,0.700000X4.300000*%
%ADD11R,0.700000X3.200000*%
%ADD12C,0.600000*%
%ADD13O,1.700000X1.700000*%
%ADD14R,1.700000X1.700000*%
%ADD15C,2.250000*%
%ADD16C,3.200000*%
%ADD17C,0.450000*%
G04 APERTURE END LIST*
D10*
%TO.C,J1*%
X149172000Y-105791000D03*
X153172000Y-105791000D03*
X115172000Y-105791000D03*
X112172000Y-105791000D03*
X111172000Y-105791000D03*
X110172000Y-105791000D03*
X152172000Y-105791000D03*
X116172000Y-105791000D03*
X114172000Y-105791000D03*
X125172000Y-105791000D03*
X156172000Y-105791000D03*
X150172000Y-105791000D03*
X123172000Y-105791000D03*
X121172000Y-105791000D03*
X122172000Y-105791000D03*
X151172000Y-105791000D03*
X120172000Y-105791000D03*
X119172000Y-105791000D03*
X155172000Y-105791000D03*
X154172000Y-105791000D03*
X113172000Y-105791000D03*
X124172000Y-105791000D03*
X134172000Y-105791000D03*
X128172000Y-105791000D03*
X127172000Y-105791000D03*
X131172000Y-105791000D03*
X136172000Y-105791000D03*
X137172000Y-105791000D03*
X130172000Y-105791000D03*
X135172000Y-105791000D03*
X138172000Y-105791000D03*
X132172000Y-105791000D03*
X139172000Y-105791000D03*
X109172000Y-105791000D03*
X129172000Y-105791000D03*
X108172000Y-105791000D03*
D11*
X106172000Y-105241000D03*
D10*
X133172000Y-105791000D03*
X126172000Y-105791000D03*
X141172000Y-105791000D03*
X144172000Y-105791000D03*
X146172000Y-105791000D03*
X145172000Y-105791000D03*
X143172000Y-105791000D03*
X147172000Y-105791000D03*
X140172000Y-105791000D03*
X142172000Y-105791000D03*
X148172000Y-105791000D03*
%TD*%
D12*
%TO.C,U4*%
X134020000Y-65020000D03*
X122520000Y-65020000D03*
X134020000Y-77220000D03*
X122520000Y-77220000D03*
%TD*%
D13*
%TO.C,JP1*%
X114909600Y-97790000D03*
X114909600Y-95250000D03*
D14*
X114909600Y-92710000D03*
%TD*%
D13*
%TO.C,J10*%
X143637000Y-54610000D03*
X141097000Y-54610000D03*
X138557000Y-54610000D03*
X136017000Y-54610000D03*
X133477000Y-54610000D03*
D14*
X130937000Y-54610000D03*
%TD*%
D13*
%TO.C,J9*%
X107950000Y-72390000D03*
X107950000Y-69850000D03*
X107950000Y-67310000D03*
X107950000Y-64770000D03*
X107950000Y-62230000D03*
D14*
X107950000Y-59690000D03*
%TD*%
D15*
%TO.C,J6*%
X112395000Y-81280000D03*
X107315000Y-81280000D03*
X107315000Y-76200000D03*
X112395000Y-76200000D03*
X109855000Y-78740000D03*
%TD*%
%TO.C,J5*%
X149860000Y-57150000D03*
X154940000Y-57150000D03*
X154940000Y-62230000D03*
X149860000Y-62230000D03*
X152400000Y-59690000D03*
%TD*%
%TO.C,J4*%
X149860000Y-71882000D03*
X154940000Y-71882000D03*
X154940000Y-76962000D03*
X149860000Y-76962000D03*
X152400000Y-74422000D03*
%TD*%
%TO.C,J3*%
X149860000Y-86360000D03*
X154940000Y-86360000D03*
X154940000Y-91440000D03*
X149860000Y-91440000D03*
X152400000Y-88900000D03*
%TD*%
D16*
%TO.C,H2*%
X137210800Y-64744600D03*
%TD*%
%TO.C,H1*%
X119253000Y-64922400D03*
%TD*%
D17*
X128676400Y-77647800D03*
X126923800Y-77645000D03*
X129286000Y-93649798D03*
X118846600Y-82245200D03*
X123621800Y-82270606D03*
X121602198Y-91274600D03*
X122174010Y-91287600D03*
X131438370Y-80070025D03*
X130511716Y-78787014D03*
X145923000Y-75565000D03*
X145415000Y-83947000D03*
X125095000Y-80010000D03*
X122123200Y-96850200D03*
X121551404Y-96863200D03*
X131445000Y-74015600D03*
X125095000Y-74015600D03*
X128270000Y-74015600D03*
X131445000Y-71120000D03*
X128270000Y-71120000D03*
X125095000Y-71120000D03*
X131445000Y-67945000D03*
X128270000Y-67945000D03*
X125095000Y-67945000D03*
X114274600Y-84709000D03*
X133718300Y-78359000D03*
X130048000Y-90754206D03*
X126034800Y-79603600D03*
X129507436Y-77851000D03*
X132156200Y-82321400D03*
X132384800Y-79857600D03*
X128369479Y-84582008D03*
X128828798Y-79527400D03*
X130149600Y-102997000D03*
X126765067Y-84281583D03*
X143002000Y-75565000D03*
X142494000Y-78486000D03*
X142367000Y-86741000D03*
X142621000Y-83947000D03*
X147320000Y-85344000D03*
X113030000Y-92837000D03*
X120777000Y-94742000D03*
X117500400Y-93421200D03*
X119176800Y-93421200D03*
X120751600Y-93421200D03*
X121488200Y-81534000D03*
X115214400Y-102108000D03*
X115214400Y-102743000D03*
X115824000Y-102108000D03*
X115824000Y-102717600D03*
X117500388Y-94691200D03*
X113944400Y-89814398D03*
X110642400Y-89814400D03*
X120395996Y-84201000D03*
X123596400Y-85090006D03*
X123875800Y-80010004D03*
X129717788Y-78917800D03*
X130310139Y-81684664D03*
X128379823Y-81686400D03*
X127304800Y-81686398D03*
X131785620Y-77645014D03*
X131157489Y-81730881D03*
X118846600Y-85115400D03*
X119151402Y-94691200D03*
X112937990Y-96164400D03*
X106297030Y-103276400D03*
X117983000Y-74295000D03*
X118618000Y-74295000D03*
X120649982Y-74295000D03*
X120014992Y-74295000D03*
X119380000Y-74295000D03*
X137033006Y-74625200D03*
X137871200Y-74625200D03*
X136070000Y-74627402D03*
X135255000Y-74649590D03*
X109347000Y-90932000D03*
X123571000Y-78020022D03*
M02*
