%TF.GenerationSoftware,KiCad,Pcbnew,(5.1.10)-1*%
%TF.CreationDate,2021-08-04T12:31:07+02:00*%
%TF.ProjectId,astropix_v2,61737472-6f70-4697-985f-76322e6b6963,1.0*%
%TF.SameCoordinates,Original*%
%TF.FileFunction,Copper,L1,Top*%
%TF.FilePolarity,Positive*%
%FSLAX46Y46*%
G04 Gerber Fmt 4.6, Leading zero omitted, Abs format (unit mm)*
G04 Created by KiCad (PCBNEW (5.1.10)-1) date 2021-08-04 12:31:07*
%MOMM*%
%LPD*%
G01*
G04 APERTURE LIST*
%TA.AperFunction,EtchedComponent*%
%ADD10C,0.100000*%
%TD*%
%TA.AperFunction,EtchedComponent*%
%ADD11C,0.150000*%
%TD*%
%TA.AperFunction,ConnectorPad*%
%ADD12R,0.700000X4.300000*%
%TD*%
%TA.AperFunction,ConnectorPad*%
%ADD13R,0.700000X3.200000*%
%TD*%
%TA.AperFunction,SMDPad,CuDef*%
%ADD14R,0.125000X0.500000*%
%TD*%
%TA.AperFunction,SMDPad,CuDef*%
%ADD15R,0.125000X0.600000*%
%TD*%
%TA.AperFunction,SMDPad,CuDef*%
%ADD16R,9.800000X10.500000*%
%TD*%
%TA.AperFunction,SMDPad,CuDef*%
%ADD17R,0.600000X0.125000*%
%TD*%
%TA.AperFunction,ComponentPad*%
%ADD18C,0.600000*%
%TD*%
%TA.AperFunction,ComponentPad*%
%ADD19O,1.700000X1.700000*%
%TD*%
%TA.AperFunction,ComponentPad*%
%ADD20R,1.700000X1.700000*%
%TD*%
%TA.AperFunction,SMDPad,CuDef*%
%ADD21R,0.299999X0.579999*%
%TD*%
%TA.AperFunction,SMDPad,CuDef*%
%ADD22R,0.629999X0.349999*%
%TD*%
%TA.AperFunction,SMDPad,CuDef*%
%ADD23R,1.060000X0.650000*%
%TD*%
%TA.AperFunction,SMDPad,CuDef*%
%ADD24C,1.000000*%
%TD*%
%TA.AperFunction,ComponentPad*%
%ADD25C,2.250000*%
%TD*%
%TA.AperFunction,ViaPad*%
%ADD26C,0.450000*%
%TD*%
%TA.AperFunction,Conductor*%
%ADD27C,0.125000*%
%TD*%
%TA.AperFunction,Conductor*%
%ADD28C,0.250000*%
%TD*%
%TA.AperFunction,Conductor*%
%ADD29C,0.500000*%
%TD*%
%TA.AperFunction,Conductor*%
%ADD30C,0.200000*%
%TD*%
%TA.AperFunction,Conductor*%
%ADD31C,0.220000*%
%TD*%
%TA.AperFunction,Conductor*%
%ADD32C,0.150000*%
%TD*%
%TA.AperFunction,Conductor*%
%ADD33C,0.254000*%
%TD*%
%TA.AperFunction,Conductor*%
%ADD34C,0.100000*%
%TD*%
G04 APERTURE END LIST*
D10*
%TO.C,U4*%
G36*
X124670000Y-78320000D02*
G01*
X124070000Y-78320000D01*
X124070000Y-77920000D01*
X124670000Y-77920000D01*
X124670000Y-78320000D01*
G37*
X124670000Y-78320000D02*
X124070000Y-78320000D01*
X124070000Y-77920000D01*
X124670000Y-77920000D01*
X124670000Y-78320000D01*
D11*
X122520000Y-65020000D02*
X122520000Y-77220000D01*
X134020000Y-65020000D02*
X122520000Y-65020000D01*
X134020000Y-77220000D02*
X134020000Y-65020000D01*
X122520000Y-77220000D02*
X134020000Y-77220000D01*
D10*
G36*
X133370000Y-78320000D02*
G01*
X132520000Y-78320000D01*
X132520000Y-77920000D01*
X133370000Y-77920000D01*
X133370000Y-78320000D01*
G37*
X133370000Y-78320000D02*
X132520000Y-78320000D01*
X132520000Y-77920000D01*
X133370000Y-77920000D01*
X133370000Y-78320000D01*
%TD*%
%TO.P,R8,2*%
%TO.N,Net-(R8-Pad2)*%
%TA.AperFunction,SMDPad,CuDef*%
G36*
G01*
X139388000Y-73265000D02*
X139758000Y-73265000D01*
G75*
G02*
X139893000Y-73400000I0J-135000D01*
G01*
X139893000Y-73670000D01*
G75*
G02*
X139758000Y-73805000I-135000J0D01*
G01*
X139388000Y-73805000D01*
G75*
G02*
X139253000Y-73670000I0J135000D01*
G01*
X139253000Y-73400000D01*
G75*
G02*
X139388000Y-73265000I135000J0D01*
G01*
G37*
%TD.AperFunction*%
%TO.P,R8,1*%
%TO.N,/sc_out*%
%TA.AperFunction,SMDPad,CuDef*%
G36*
G01*
X139388000Y-72245000D02*
X139758000Y-72245000D01*
G75*
G02*
X139893000Y-72380000I0J-135000D01*
G01*
X139893000Y-72650000D01*
G75*
G02*
X139758000Y-72785000I-135000J0D01*
G01*
X139388000Y-72785000D01*
G75*
G02*
X139253000Y-72650000I0J135000D01*
G01*
X139253000Y-72380000D01*
G75*
G02*
X139388000Y-72245000I135000J0D01*
G01*
G37*
%TD.AperFunction*%
%TD*%
%TO.P,R18,2*%
%TO.N,Net-(R18-Pad2)*%
%TA.AperFunction,SMDPad,CuDef*%
G36*
G01*
X135324000Y-73265000D02*
X135694000Y-73265000D01*
G75*
G02*
X135829000Y-73400000I0J-135000D01*
G01*
X135829000Y-73670000D01*
G75*
G02*
X135694000Y-73805000I-135000J0D01*
G01*
X135324000Y-73805000D01*
G75*
G02*
X135189000Y-73670000I0J135000D01*
G01*
X135189000Y-73400000D01*
G75*
G02*
X135324000Y-73265000I135000J0D01*
G01*
G37*
%TD.AperFunction*%
%TO.P,R18,1*%
%TO.N,/spi_right_clk*%
%TA.AperFunction,SMDPad,CuDef*%
G36*
G01*
X135324000Y-72245000D02*
X135694000Y-72245000D01*
G75*
G02*
X135829000Y-72380000I0J-135000D01*
G01*
X135829000Y-72650000D01*
G75*
G02*
X135694000Y-72785000I-135000J0D01*
G01*
X135324000Y-72785000D01*
G75*
G02*
X135189000Y-72650000I0J135000D01*
G01*
X135189000Y-72380000D01*
G75*
G02*
X135324000Y-72245000I135000J0D01*
G01*
G37*
%TD.AperFunction*%
%TD*%
%TO.P,R17,2*%
%TO.N,Net-(R17-Pad2)*%
%TA.AperFunction,SMDPad,CuDef*%
G36*
G01*
X137483000Y-73265000D02*
X137853000Y-73265000D01*
G75*
G02*
X137988000Y-73400000I0J-135000D01*
G01*
X137988000Y-73670000D01*
G75*
G02*
X137853000Y-73805000I-135000J0D01*
G01*
X137483000Y-73805000D01*
G75*
G02*
X137348000Y-73670000I0J135000D01*
G01*
X137348000Y-73400000D01*
G75*
G02*
X137483000Y-73265000I135000J0D01*
G01*
G37*
%TD.AperFunction*%
%TO.P,R17,1*%
%TO.N,/spi_right_mosi*%
%TA.AperFunction,SMDPad,CuDef*%
G36*
G01*
X137483000Y-72245000D02*
X137853000Y-72245000D01*
G75*
G02*
X137988000Y-72380000I0J-135000D01*
G01*
X137988000Y-72650000D01*
G75*
G02*
X137853000Y-72785000I-135000J0D01*
G01*
X137483000Y-72785000D01*
G75*
G02*
X137348000Y-72650000I0J135000D01*
G01*
X137348000Y-72380000D01*
G75*
G02*
X137483000Y-72245000I135000J0D01*
G01*
G37*
%TD.AperFunction*%
%TD*%
%TO.P,R14,2*%
%TO.N,/spi_left_csn*%
%TA.AperFunction,SMDPad,CuDef*%
G36*
G01*
X118676000Y-73039000D02*
X118306000Y-73039000D01*
G75*
G02*
X118171000Y-72904000I0J135000D01*
G01*
X118171000Y-72634000D01*
G75*
G02*
X118306000Y-72499000I135000J0D01*
G01*
X118676000Y-72499000D01*
G75*
G02*
X118811000Y-72634000I0J-135000D01*
G01*
X118811000Y-72904000D01*
G75*
G02*
X118676000Y-73039000I-135000J0D01*
G01*
G37*
%TD.AperFunction*%
%TO.P,R14,1*%
%TO.N,Net-(R14-Pad1)*%
%TA.AperFunction,SMDPad,CuDef*%
G36*
G01*
X118676000Y-74059000D02*
X118306000Y-74059000D01*
G75*
G02*
X118171000Y-73924000I0J135000D01*
G01*
X118171000Y-73654000D01*
G75*
G02*
X118306000Y-73519000I135000J0D01*
G01*
X118676000Y-73519000D01*
G75*
G02*
X118811000Y-73654000I0J-135000D01*
G01*
X118811000Y-73924000D01*
G75*
G02*
X118676000Y-74059000I-135000J0D01*
G01*
G37*
%TD.AperFunction*%
%TD*%
%TO.P,R13,2*%
%TO.N,/spi_left_miso0*%
%TA.AperFunction,SMDPad,CuDef*%
G36*
G01*
X120962000Y-73041000D02*
X120592000Y-73041000D01*
G75*
G02*
X120457000Y-72906000I0J135000D01*
G01*
X120457000Y-72636000D01*
G75*
G02*
X120592000Y-72501000I135000J0D01*
G01*
X120962000Y-72501000D01*
G75*
G02*
X121097000Y-72636000I0J-135000D01*
G01*
X121097000Y-72906000D01*
G75*
G02*
X120962000Y-73041000I-135000J0D01*
G01*
G37*
%TD.AperFunction*%
%TO.P,R13,1*%
%TO.N,Net-(R13-Pad1)*%
%TA.AperFunction,SMDPad,CuDef*%
G36*
G01*
X120962000Y-74061000D02*
X120592000Y-74061000D01*
G75*
G02*
X120457000Y-73926000I0J135000D01*
G01*
X120457000Y-73656000D01*
G75*
G02*
X120592000Y-73521000I135000J0D01*
G01*
X120962000Y-73521000D01*
G75*
G02*
X121097000Y-73656000I0J-135000D01*
G01*
X121097000Y-73926000D01*
G75*
G02*
X120962000Y-74061000I-135000J0D01*
G01*
G37*
%TD.AperFunction*%
%TD*%
%TO.P,R10,2*%
%TO.N,/spi_left_miso1*%
%TA.AperFunction,SMDPad,CuDef*%
G36*
G01*
X119946000Y-73039000D02*
X119576000Y-73039000D01*
G75*
G02*
X119441000Y-72904000I0J135000D01*
G01*
X119441000Y-72634000D01*
G75*
G02*
X119576000Y-72499000I135000J0D01*
G01*
X119946000Y-72499000D01*
G75*
G02*
X120081000Y-72634000I0J-135000D01*
G01*
X120081000Y-72904000D01*
G75*
G02*
X119946000Y-73039000I-135000J0D01*
G01*
G37*
%TD.AperFunction*%
%TO.P,R10,1*%
%TO.N,Net-(R10-Pad1)*%
%TA.AperFunction,SMDPad,CuDef*%
G36*
G01*
X119946000Y-74059000D02*
X119576000Y-74059000D01*
G75*
G02*
X119441000Y-73924000I0J135000D01*
G01*
X119441000Y-73654000D01*
G75*
G02*
X119576000Y-73519000I135000J0D01*
G01*
X119946000Y-73519000D01*
G75*
G02*
X120081000Y-73654000I0J-135000D01*
G01*
X120081000Y-73924000D01*
G75*
G02*
X119946000Y-74059000I-135000J0D01*
G01*
G37*
%TD.AperFunction*%
%TD*%
%TO.P,C14,1*%
%TO.N,VDDA*%
%TA.AperFunction,SMDPad,CuDef*%
G36*
G01*
X117826600Y-97313200D02*
X117326600Y-97313200D01*
G75*
G02*
X117101600Y-97088200I0J225000D01*
G01*
X117101600Y-96638200D01*
G75*
G02*
X117326600Y-96413200I225000J0D01*
G01*
X117826600Y-96413200D01*
G75*
G02*
X118051600Y-96638200I0J-225000D01*
G01*
X118051600Y-97088200D01*
G75*
G02*
X117826600Y-97313200I-225000J0D01*
G01*
G37*
%TD.AperFunction*%
%TO.P,C14,2*%
%TO.N,GND*%
%TA.AperFunction,SMDPad,CuDef*%
G36*
G01*
X117826600Y-95763200D02*
X117326600Y-95763200D01*
G75*
G02*
X117101600Y-95538200I0J225000D01*
G01*
X117101600Y-95088200D01*
G75*
G02*
X117326600Y-94863200I225000J0D01*
G01*
X117826600Y-94863200D01*
G75*
G02*
X118051600Y-95088200I0J-225000D01*
G01*
X118051600Y-95538200D01*
G75*
G02*
X117826600Y-95763200I-225000J0D01*
G01*
G37*
%TD.AperFunction*%
%TD*%
D12*
%TO.P,J1,B49*%
%TO.N,N/C*%
X156172000Y-105791000D03*
D13*
%TO.P,J1,B48*%
X155172000Y-105241000D03*
D12*
%TO.P,J1,B47*%
X154172000Y-105791000D03*
%TO.P,J1,B17*%
%TO.N,/sample_clock_se_N*%
X124172000Y-105791000D03*
%TO.P,J1,B35*%
%TO.N,/DAC_vminuspix*%
X142172000Y-105791000D03*
%TO.P,J1,B18*%
%TO.N,/sample_clock_P*%
X125172000Y-105791000D03*
%TO.P,J1,B42*%
%TO.N,N/C*%
X149172000Y-105791000D03*
%TO.P,J1,B37*%
X144172000Y-105791000D03*
%TO.P,J1,B10*%
X115172000Y-105791000D03*
%TO.P,J1,B24*%
%TO.N,/sr_ld*%
X131172000Y-105791000D03*
%TO.P,J1,B34*%
%TO.N,/DAC_ThPix*%
X141172000Y-105791000D03*
%TO.P,J1,B3*%
%TO.N,/VDD18_in*%
X108172000Y-105791000D03*
%TO.P,J1,B15*%
%TO.N,N/C*%
X122172000Y-105791000D03*
%TO.P,J1,B46*%
X153172000Y-105791000D03*
%TO.P,J1,B44*%
X151172000Y-105791000D03*
%TO.P,J1,B12*%
X119172000Y-105791000D03*
%TO.P,J1,B13*%
X120172000Y-105791000D03*
%TO.P,J1,B26*%
X133172000Y-105791000D03*
%TO.P,J1,B5*%
%TO.N,/POW4_in*%
X110172000Y-105791000D03*
%TO.P,J1,B43*%
%TO.N,N/C*%
X150172000Y-105791000D03*
%TO.P,J1,B25*%
%TO.N,/sr_sin*%
X132172000Y-105791000D03*
%TO.P,J1,B7*%
%TO.N,VDDA*%
X112172000Y-105791000D03*
%TO.P,J1,B21*%
%TO.N,/timestamp_clk*%
X128172000Y-105791000D03*
%TO.P,J1,B11*%
%TO.N,GND*%
X116172000Y-105791000D03*
%TO.P,J1,B38*%
%TO.N,N/C*%
X145172000Y-105791000D03*
%TO.P,J1,B36*%
X143172000Y-105791000D03*
%TO.P,J1,B32*%
%TO.N,/DAC_blpix*%
X139172000Y-105791000D03*
%TO.P,J1,B20*%
%TO.N,/hold*%
X127172000Y-105791000D03*
%TO.P,J1,B4*%
%TO.N,/VDD18_in*%
X109172000Y-105791000D03*
%TO.P,J1,B23*%
%TO.N,/res_n*%
X130172000Y-105791000D03*
%TO.P,J1,B39*%
%TO.N,N/C*%
X146172000Y-105791000D03*
%TO.P,J1,B31*%
X138172000Y-105791000D03*
%TO.P,J1,B29*%
X136172000Y-105791000D03*
%TO.P,J1,B27*%
X134172000Y-105791000D03*
%TO.P,J1,B19*%
%TO.N,/sample_clock_N*%
X126172000Y-105791000D03*
%TO.P,J1,B45*%
%TO.N,N/C*%
X152172000Y-105791000D03*
%TO.P,J1,B40*%
X147172000Y-105791000D03*
%TO.P,J1,B33*%
%TO.N,/DAC_VCasc2!*%
X140172000Y-105791000D03*
%TO.P,J1,B30*%
%TO.N,N/C*%
X137172000Y-105791000D03*
%TO.P,J1,B41*%
X148172000Y-105791000D03*
%TO.P,J1,B6*%
%TO.N,/POW4_in*%
X111172000Y-105791000D03*
%TO.P,J1,B9*%
%TO.N,N/C*%
X114172000Y-105791000D03*
%TO.P,J1,B22*%
%TO.N,/interrupt*%
X129172000Y-105791000D03*
%TO.P,J1,B28*%
%TO.N,N/C*%
X135172000Y-105791000D03*
%TO.P,J1,B14*%
X121172000Y-105791000D03*
%TO.P,J1,B1*%
%TO.N,-HV*%
X106172000Y-105791000D03*
%TO.P,J1,B16*%
%TO.N,/sample_clock_se_P*%
X123172000Y-105791000D03*
%TO.P,J1,B8*%
%TO.N,VDDA*%
X113172000Y-105791000D03*
%TD*%
D14*
%TO.P,U4,B1*%
%TO.N,subd*%
X124220000Y-78120000D03*
%TO.P,U4,B2*%
X124320000Y-78120000D03*
D15*
%TO.P,U4,B3*%
%TO.N,GND*%
X124520000Y-79520000D03*
%TO.P,U4,B4*%
%TO.N,VDDA*%
X124620000Y-80970000D03*
%TO.P,U4,B5*%
%TO.N,/sample_clock_P*%
X126820000Y-79520000D03*
%TO.P,U4,B6*%
%TO.N,/sample_clock_N*%
X127120000Y-79520000D03*
%TO.P,U4,B7*%
%TO.N,VDD*%
X127220000Y-78120000D03*
%TO.P,U4,B8*%
%TO.N,GND*%
X127320000Y-80970000D03*
%TO.P,U4,B9*%
%TO.N,/hold*%
X127420000Y-79520000D03*
%TO.P,U4,B10*%
%TO.N,/res_n*%
X127520000Y-78120000D03*
%TO.P,U4,B11*%
%TO.N,/timestamp_clk*%
X127620000Y-80970000D03*
%TO.P,U4,B12*%
%TO.N,/interrupt*%
X127720000Y-79520000D03*
%TO.P,U4,B13*%
%TO.N,/sr_ck1*%
X127820000Y-78120000D03*
%TO.P,U4,B14*%
%TO.N,/sr_ck2*%
X127920000Y-80970000D03*
%TO.P,U4,B15*%
%TO.N,/sr_ld*%
X128020000Y-79520000D03*
%TO.P,U4,B16*%
%TO.N,/sr_sin*%
X128120000Y-78120000D03*
%TO.P,U4,B17*%
%TO.N,/sr_rb*%
X128220000Y-80970000D03*
%TO.P,U4,B18*%
%TO.N,/sr_out*%
X128320000Y-79520000D03*
%TO.P,U4,B19*%
%TO.N,VDD*%
X128420000Y-78120000D03*
D16*
%TO.P,U4,B0*%
%TO.N,suba*%
X128270000Y-71120000D03*
D15*
%TO.P,U4,B20*%
%TO.N,GND*%
X128520000Y-80970000D03*
%TO.P,U4,B21*%
%TO.N,VDDA*%
X129920000Y-78120000D03*
%TO.P,U4,B22*%
%TO.N,GND*%
X130020000Y-80970000D03*
%TO.P,U4,B23*%
X130120000Y-79520000D03*
%TO.P,U4,B24*%
%TO.N,N/C*%
X130220000Y-78120000D03*
%TO.P,U4,B25*%
X130320000Y-80970000D03*
%TO.P,U4,B26*%
%TO.N,/DAC_blpix*%
X130420000Y-79520000D03*
%TO.P,U4,B27*%
%TO.N,N/C*%
X130520000Y-78120000D03*
D14*
%TO.P,U4,B41*%
%TO.N,suba*%
X132720000Y-78120000D03*
%TO.P,U4,B42*%
X132870000Y-78120000D03*
%TO.P,U4,B40*%
X132570000Y-78120000D03*
D15*
%TO.P,U4,B38*%
%TO.N,GND*%
X131720000Y-78120000D03*
%TO.P,U4,B39*%
%TO.N,/Vtemp1*%
X131820000Y-80970000D03*
%TO.P,U4,B37*%
%TO.N,VDDA*%
X131620000Y-79520000D03*
%TO.P,U4,B32*%
%TO.N,/DAC_ThPix*%
X131020000Y-79520000D03*
%TO.P,U4,B33*%
%TO.N,/DAC_vminuspix*%
X131120000Y-78120000D03*
%TO.P,U4,B34*%
%TO.N,GND*%
X131220000Y-80970000D03*
%TO.P,U4,B31*%
%TO.N,/DAC_VCasc2!*%
X130920000Y-80970000D03*
%TO.P,U4,B35*%
%TO.N,VDDA*%
X131320000Y-79520000D03*
%TO.P,U4,B36*%
%TO.N,/SFOut*%
X131420000Y-78120000D03*
%TO.P,U4,B28*%
%TO.N,GND*%
X130620000Y-80970000D03*
%TO.P,U4,B30*%
%TO.N,/Inj*%
X130820000Y-78120000D03*
%TO.P,U4,B29*%
%TO.N,VDDA*%
X130720000Y-79520000D03*
D14*
%TO.P,U4,B45*%
%TO.N,suba*%
X133320000Y-78120000D03*
%TO.P,U4,B43*%
X133020000Y-78120000D03*
%TO.P,U4,B44*%
X133170000Y-78120000D03*
D17*
%TO.P,U4,L1*%
%TO.N,Net-(R10-Pad1)*%
X119120000Y-75470000D03*
%TO.P,U4,L2*%
%TO.N,Net-(R13-Pad1)*%
X120320000Y-75570000D03*
%TO.P,U4,L3*%
%TO.N,/spi_left_mosi*%
X121470000Y-75670000D03*
%TO.P,U4,L6*%
%TO.N,/sample_clock_se_in*%
X121470000Y-75970000D03*
%TO.P,U4,L5*%
%TO.N,Net-(R14-Pad1)*%
X120320000Y-75870000D03*
%TO.P,U4,L4*%
%TO.N,/spi_left_clk*%
X119120000Y-75770000D03*
%TO.P,U4,R3*%
%TO.N,Net-(R18-Pad2)*%
X134920000Y-75770000D03*
%TO.P,U4,R2*%
%TO.N,/spi_right_csn*%
X136070000Y-75870000D03*
%TO.P,U4,R5*%
%TO.N,/spi_right_miso0*%
X136070000Y-75570000D03*
%TO.P,U4,R6*%
%TO.N,/spi_right_miso1*%
X134920000Y-75470000D03*
%TO.P,U4,R4*%
%TO.N,Net-(R17-Pad2)*%
X137270000Y-75670000D03*
%TO.P,U4,R1*%
%TO.N,Net-(R8-Pad2)*%
X137270000Y-75970000D03*
D18*
%TO.P,U4,Ring1*%
%TO.N,GND*%
X122520000Y-77220000D03*
X134020000Y-77220000D03*
X122520000Y-65020000D03*
X134020000Y-65020000D03*
%TD*%
D19*
%TO.P,JP1,3*%
%TO.N,/POW4_in*%
X114909600Y-97790000D03*
%TO.P,JP1,2*%
%TO.N,VDD*%
X114909600Y-95250000D03*
D20*
%TO.P,JP1,1*%
%TO.N,/VDD18_in*%
X114909600Y-92710000D03*
%TD*%
%TO.P,R4,2*%
%TO.N,/sample_clock_N*%
%TA.AperFunction,SMDPad,CuDef*%
G36*
G01*
X125919200Y-82735000D02*
X125919200Y-82365000D01*
G75*
G02*
X126054200Y-82230000I135000J0D01*
G01*
X126324200Y-82230000D01*
G75*
G02*
X126459200Y-82365000I0J-135000D01*
G01*
X126459200Y-82735000D01*
G75*
G02*
X126324200Y-82870000I-135000J0D01*
G01*
X126054200Y-82870000D01*
G75*
G02*
X125919200Y-82735000I0J135000D01*
G01*
G37*
%TD.AperFunction*%
%TO.P,R4,1*%
%TO.N,/sample_clock_P*%
%TA.AperFunction,SMDPad,CuDef*%
G36*
G01*
X124899200Y-82735000D02*
X124899200Y-82365000D01*
G75*
G02*
X125034200Y-82230000I135000J0D01*
G01*
X125304200Y-82230000D01*
G75*
G02*
X125439200Y-82365000I0J-135000D01*
G01*
X125439200Y-82735000D01*
G75*
G02*
X125304200Y-82870000I-135000J0D01*
G01*
X125034200Y-82870000D01*
G75*
G02*
X124899200Y-82735000I0J135000D01*
G01*
G37*
%TD.AperFunction*%
%TD*%
D21*
%TO.P,U2,1*%
%TO.N,GND*%
X120458799Y-83520199D03*
%TO.P,U2,2*%
%TO.N,/sample_clock_se_P*%
X120958801Y-83520199D03*
%TO.P,U2,3*%
%TO.N,/sample_clock_se_N*%
X121458799Y-83520199D03*
%TO.P,U2,4*%
%TO.N,N/C*%
X121958799Y-83520199D03*
D22*
%TO.P,U2,5*%
%TO.N,VDD*%
X122068801Y-82880196D03*
D21*
%TO.P,U2,6*%
%TO.N,N/C*%
X121958799Y-82240199D03*
%TO.P,U2,7*%
%TO.N,GND*%
X121458799Y-82240199D03*
%TO.P,U2,8*%
%TO.N,/sample_clock_se_in*%
X120958801Y-82240199D03*
%TO.P,U2,9*%
%TO.N,N/C*%
X120458799Y-82240199D03*
D22*
%TO.P,U2,10*%
%TO.N,VDD*%
X120348799Y-82880196D03*
%TD*%
%TO.P,C3,2*%
%TO.N,subd*%
%TA.AperFunction,SMDPad,CuDef*%
G36*
G01*
X109844000Y-95064399D02*
X109844000Y-97264401D01*
G75*
G02*
X109594001Y-97514400I-249999J0D01*
G01*
X108943999Y-97514400D01*
G75*
G02*
X108694000Y-97264401I0J249999D01*
G01*
X108694000Y-95064399D01*
G75*
G02*
X108943999Y-94814400I249999J0D01*
G01*
X109594001Y-94814400D01*
G75*
G02*
X109844000Y-95064399I0J-249999D01*
G01*
G37*
%TD.AperFunction*%
%TO.P,C3,1*%
%TO.N,GND*%
%TA.AperFunction,SMDPad,CuDef*%
G36*
G01*
X112794000Y-95064399D02*
X112794000Y-97264401D01*
G75*
G02*
X112544001Y-97514400I-249999J0D01*
G01*
X111893999Y-97514400D01*
G75*
G02*
X111644000Y-97264401I0J249999D01*
G01*
X111644000Y-95064399D01*
G75*
G02*
X111893999Y-94814400I249999J0D01*
G01*
X112544001Y-94814400D01*
G75*
G02*
X112794000Y-95064399I0J-249999D01*
G01*
G37*
%TD.AperFunction*%
%TD*%
%TO.P,R3,2*%
%TO.N,/sample_clock_se_N*%
%TA.AperFunction,SMDPad,CuDef*%
G36*
G01*
X121448800Y-85148000D02*
X121448800Y-84778000D01*
G75*
G02*
X121583800Y-84643000I135000J0D01*
G01*
X121853800Y-84643000D01*
G75*
G02*
X121988800Y-84778000I0J-135000D01*
G01*
X121988800Y-85148000D01*
G75*
G02*
X121853800Y-85283000I-135000J0D01*
G01*
X121583800Y-85283000D01*
G75*
G02*
X121448800Y-85148000I0J135000D01*
G01*
G37*
%TD.AperFunction*%
%TO.P,R3,1*%
%TO.N,/sample_clock_se_P*%
%TA.AperFunction,SMDPad,CuDef*%
G36*
G01*
X120428800Y-85148000D02*
X120428800Y-84778000D01*
G75*
G02*
X120563800Y-84643000I135000J0D01*
G01*
X120833800Y-84643000D01*
G75*
G02*
X120968800Y-84778000I0J-135000D01*
G01*
X120968800Y-85148000D01*
G75*
G02*
X120833800Y-85283000I-135000J0D01*
G01*
X120563800Y-85283000D01*
G75*
G02*
X120428800Y-85148000I0J135000D01*
G01*
G37*
%TD.AperFunction*%
%TD*%
%TO.P,R6,2*%
%TO.N,Net-(R6-Pad2)*%
%TA.AperFunction,SMDPad,CuDef*%
G36*
G01*
X144228500Y-75569400D02*
X144228500Y-76119400D01*
G75*
G02*
X144028500Y-76319400I-200000J0D01*
G01*
X143628500Y-76319400D01*
G75*
G02*
X143428500Y-76119400I0J200000D01*
G01*
X143428500Y-75569400D01*
G75*
G02*
X143628500Y-75369400I200000J0D01*
G01*
X144028500Y-75369400D01*
G75*
G02*
X144228500Y-75569400I0J-200000D01*
G01*
G37*
%TD.AperFunction*%
%TO.P,R6,1*%
%TO.N,Net-(J4-Pad1)*%
%TA.AperFunction,SMDPad,CuDef*%
G36*
G01*
X145878500Y-75569400D02*
X145878500Y-76119400D01*
G75*
G02*
X145678500Y-76319400I-200000J0D01*
G01*
X145278500Y-76319400D01*
G75*
G02*
X145078500Y-76119400I0J200000D01*
G01*
X145078500Y-75569400D01*
G75*
G02*
X145278500Y-75369400I200000J0D01*
G01*
X145678500Y-75369400D01*
G75*
G02*
X145878500Y-75569400I0J-200000D01*
G01*
G37*
%TD.AperFunction*%
%TD*%
%TO.P,C7,2*%
%TO.N,GND*%
%TA.AperFunction,SMDPad,CuDef*%
G36*
G01*
X118596600Y-84018000D02*
X119096600Y-84018000D01*
G75*
G02*
X119321600Y-84243000I0J-225000D01*
G01*
X119321600Y-84693000D01*
G75*
G02*
X119096600Y-84918000I-225000J0D01*
G01*
X118596600Y-84918000D01*
G75*
G02*
X118371600Y-84693000I0J225000D01*
G01*
X118371600Y-84243000D01*
G75*
G02*
X118596600Y-84018000I225000J0D01*
G01*
G37*
%TD.AperFunction*%
%TO.P,C7,1*%
%TO.N,VDD*%
%TA.AperFunction,SMDPad,CuDef*%
G36*
G01*
X118596600Y-82468000D02*
X119096600Y-82468000D01*
G75*
G02*
X119321600Y-82693000I0J-225000D01*
G01*
X119321600Y-83143000D01*
G75*
G02*
X119096600Y-83368000I-225000J0D01*
G01*
X118596600Y-83368000D01*
G75*
G02*
X118371600Y-83143000I0J225000D01*
G01*
X118371600Y-82693000D01*
G75*
G02*
X118596600Y-82468000I225000J0D01*
G01*
G37*
%TD.AperFunction*%
%TD*%
%TO.P,R5,2*%
%TO.N,/res_n*%
%TA.AperFunction,SMDPad,CuDef*%
G36*
G01*
X130323000Y-91904000D02*
X129773000Y-91904000D01*
G75*
G02*
X129573000Y-91704000I0J200000D01*
G01*
X129573000Y-91304000D01*
G75*
G02*
X129773000Y-91104000I200000J0D01*
G01*
X130323000Y-91104000D01*
G75*
G02*
X130523000Y-91304000I0J-200000D01*
G01*
X130523000Y-91704000D01*
G75*
G02*
X130323000Y-91904000I-200000J0D01*
G01*
G37*
%TD.AperFunction*%
%TO.P,R5,1*%
%TO.N,VDD*%
%TA.AperFunction,SMDPad,CuDef*%
G36*
G01*
X130323000Y-93554000D02*
X129773000Y-93554000D01*
G75*
G02*
X129573000Y-93354000I0J200000D01*
G01*
X129573000Y-92954000D01*
G75*
G02*
X129773000Y-92754000I200000J0D01*
G01*
X130323000Y-92754000D01*
G75*
G02*
X130523000Y-92954000I0J-200000D01*
G01*
X130523000Y-93354000D01*
G75*
G02*
X130323000Y-93554000I-200000J0D01*
G01*
G37*
%TD.AperFunction*%
%TD*%
%TO.P,R16,2*%
%TO.N,Net-(R16-Pad2)*%
%TA.AperFunction,SMDPad,CuDef*%
G36*
G01*
X144101000Y-89082200D02*
X144101000Y-89632200D01*
G75*
G02*
X143901000Y-89832200I-200000J0D01*
G01*
X143501000Y-89832200D01*
G75*
G02*
X143301000Y-89632200I0J200000D01*
G01*
X143301000Y-89082200D01*
G75*
G02*
X143501000Y-88882200I200000J0D01*
G01*
X143901000Y-88882200D01*
G75*
G02*
X144101000Y-89082200I0J-200000D01*
G01*
G37*
%TD.AperFunction*%
%TO.P,R16,1*%
%TO.N,Net-(R15-Pad1)*%
%TA.AperFunction,SMDPad,CuDef*%
G36*
G01*
X145751000Y-89082200D02*
X145751000Y-89632200D01*
G75*
G02*
X145551000Y-89832200I-200000J0D01*
G01*
X145151000Y-89832200D01*
G75*
G02*
X144951000Y-89632200I0J200000D01*
G01*
X144951000Y-89082200D01*
G75*
G02*
X145151000Y-88882200I200000J0D01*
G01*
X145551000Y-88882200D01*
G75*
G02*
X145751000Y-89082200I0J-200000D01*
G01*
G37*
%TD.AperFunction*%
%TD*%
%TO.P,R15,2*%
%TO.N,GND*%
%TA.AperFunction,SMDPad,CuDef*%
G36*
G01*
X147595000Y-86316000D02*
X147045000Y-86316000D01*
G75*
G02*
X146845000Y-86116000I0J200000D01*
G01*
X146845000Y-85716000D01*
G75*
G02*
X147045000Y-85516000I200000J0D01*
G01*
X147595000Y-85516000D01*
G75*
G02*
X147795000Y-85716000I0J-200000D01*
G01*
X147795000Y-86116000D01*
G75*
G02*
X147595000Y-86316000I-200000J0D01*
G01*
G37*
%TD.AperFunction*%
%TO.P,R15,1*%
%TO.N,Net-(R15-Pad1)*%
%TA.AperFunction,SMDPad,CuDef*%
G36*
G01*
X147595000Y-87966000D02*
X147045000Y-87966000D01*
G75*
G02*
X146845000Y-87766000I0J200000D01*
G01*
X146845000Y-87366000D01*
G75*
G02*
X147045000Y-87166000I200000J0D01*
G01*
X147595000Y-87166000D01*
G75*
G02*
X147795000Y-87366000I0J-200000D01*
G01*
X147795000Y-87766000D01*
G75*
G02*
X147595000Y-87966000I-200000J0D01*
G01*
G37*
%TD.AperFunction*%
%TD*%
%TO.P,R9,2*%
%TO.N,/Vtemp1*%
%TA.AperFunction,SMDPad,CuDef*%
G36*
G01*
X140037000Y-87482000D02*
X140037000Y-88032000D01*
G75*
G02*
X139837000Y-88232000I-200000J0D01*
G01*
X139437000Y-88232000D01*
G75*
G02*
X139237000Y-88032000I0J200000D01*
G01*
X139237000Y-87482000D01*
G75*
G02*
X139437000Y-87282000I200000J0D01*
G01*
X139837000Y-87282000D01*
G75*
G02*
X140037000Y-87482000I0J-200000D01*
G01*
G37*
%TD.AperFunction*%
%TO.P,R9,1*%
%TO.N,Net-(R9-Pad1)*%
%TA.AperFunction,SMDPad,CuDef*%
G36*
G01*
X141687000Y-87482000D02*
X141687000Y-88032000D01*
G75*
G02*
X141487000Y-88232000I-200000J0D01*
G01*
X141087000Y-88232000D01*
G75*
G02*
X140887000Y-88032000I0J200000D01*
G01*
X140887000Y-87482000D01*
G75*
G02*
X141087000Y-87282000I200000J0D01*
G01*
X141487000Y-87282000D01*
G75*
G02*
X141687000Y-87482000I0J-200000D01*
G01*
G37*
%TD.AperFunction*%
%TD*%
%TO.P,R1,2*%
%TO.N,-HV*%
%TA.AperFunction,SMDPad,CuDef*%
G36*
G01*
X106562997Y-98842400D02*
X107813003Y-98842400D01*
G75*
G02*
X108063000Y-99092397I0J-249997D01*
G01*
X108063000Y-99717403D01*
G75*
G02*
X107813003Y-99967400I-249997J0D01*
G01*
X106562997Y-99967400D01*
G75*
G02*
X106313000Y-99717403I0J249997D01*
G01*
X106313000Y-99092397D01*
G75*
G02*
X106562997Y-98842400I249997J0D01*
G01*
G37*
%TD.AperFunction*%
%TO.P,R1,1*%
%TO.N,/HV_in_ext*%
%TA.AperFunction,SMDPad,CuDef*%
G36*
G01*
X106562997Y-95917400D02*
X107813003Y-95917400D01*
G75*
G02*
X108063000Y-96167397I0J-249997D01*
G01*
X108063000Y-96792403D01*
G75*
G02*
X107813003Y-97042400I-249997J0D01*
G01*
X106562997Y-97042400D01*
G75*
G02*
X106313000Y-96792403I0J249997D01*
G01*
X106313000Y-96167397D01*
G75*
G02*
X106562997Y-95917400I249997J0D01*
G01*
G37*
%TD.AperFunction*%
%TD*%
D23*
%TO.P,U1,5*%
%TO.N,VDDA*%
X145245000Y-86741000D03*
%TO.P,U1,6*%
X145245000Y-85791000D03*
%TO.P,U1,4*%
%TO.N,Net-(R15-Pad1)*%
X145245000Y-87691000D03*
%TO.P,U1,3*%
%TO.N,Net-(R9-Pad1)*%
X143045000Y-87691000D03*
%TO.P,U1,2*%
%TO.N,GND*%
X143045000Y-86741000D03*
%TO.P,U1,1*%
%TO.N,Net-(R16-Pad2)*%
X143045000Y-85791000D03*
%TD*%
%TO.P,U3,5*%
%TO.N,VDDA*%
X145372000Y-78486000D03*
%TO.P,U3,6*%
X145372000Y-77536000D03*
%TO.P,U3,4*%
%TO.N,Net-(R6-Pad2)*%
X145372000Y-79436000D03*
%TO.P,U3,3*%
%TO.N,/SFOut*%
X143172000Y-79436000D03*
%TO.P,U3,2*%
%TO.N,GND*%
X143172000Y-78486000D03*
%TO.P,U3,1*%
%TO.N,Net-(R6-Pad2)*%
X143172000Y-77536000D03*
%TD*%
D24*
%TO.P,FID2,*%
%TO.N,*%
X154305000Y-100330000D03*
%TD*%
%TO.P,FID1,*%
%TO.N,*%
X110744000Y-57150000D03*
%TD*%
%TO.P,R12,2*%
%TO.N,suba*%
%TA.AperFunction,SMDPad,CuDef*%
G36*
G01*
X107590000Y-88475000D02*
X107040000Y-88475000D01*
G75*
G02*
X106840000Y-88275000I0J200000D01*
G01*
X106840000Y-87875000D01*
G75*
G02*
X107040000Y-87675000I200000J0D01*
G01*
X107590000Y-87675000D01*
G75*
G02*
X107790000Y-87875000I0J-200000D01*
G01*
X107790000Y-88275000D01*
G75*
G02*
X107590000Y-88475000I-200000J0D01*
G01*
G37*
%TD.AperFunction*%
%TO.P,R12,1*%
%TO.N,/HV_in_ext*%
%TA.AperFunction,SMDPad,CuDef*%
G36*
G01*
X107590000Y-90125000D02*
X107040000Y-90125000D01*
G75*
G02*
X106840000Y-89925000I0J200000D01*
G01*
X106840000Y-89525000D01*
G75*
G02*
X107040000Y-89325000I200000J0D01*
G01*
X107590000Y-89325000D01*
G75*
G02*
X107790000Y-89525000I0J-200000D01*
G01*
X107790000Y-89925000D01*
G75*
G02*
X107590000Y-90125000I-200000J0D01*
G01*
G37*
%TD.AperFunction*%
%TD*%
%TO.P,R11,2*%
%TO.N,subd*%
%TA.AperFunction,SMDPad,CuDef*%
G36*
G01*
X107040000Y-92500000D02*
X107590000Y-92500000D01*
G75*
G02*
X107790000Y-92700000I0J-200000D01*
G01*
X107790000Y-93100000D01*
G75*
G02*
X107590000Y-93300000I-200000J0D01*
G01*
X107040000Y-93300000D01*
G75*
G02*
X106840000Y-93100000I0J200000D01*
G01*
X106840000Y-92700000D01*
G75*
G02*
X107040000Y-92500000I200000J0D01*
G01*
G37*
%TD.AperFunction*%
%TO.P,R11,1*%
%TO.N,/HV_in_ext*%
%TA.AperFunction,SMDPad,CuDef*%
G36*
G01*
X107040000Y-90850000D02*
X107590000Y-90850000D01*
G75*
G02*
X107790000Y-91050000I0J-200000D01*
G01*
X107790000Y-91450000D01*
G75*
G02*
X107590000Y-91650000I-200000J0D01*
G01*
X107040000Y-91650000D01*
G75*
G02*
X106840000Y-91450000I0J200000D01*
G01*
X106840000Y-91050000D01*
G75*
G02*
X107040000Y-90850000I200000J0D01*
G01*
G37*
%TD.AperFunction*%
%TD*%
%TO.P,C6,2*%
%TO.N,suba*%
%TA.AperFunction,SMDPad,CuDef*%
G36*
G01*
X111793201Y-86603000D02*
X109593199Y-86603000D01*
G75*
G02*
X109343200Y-86353001I0J249999D01*
G01*
X109343200Y-85702999D01*
G75*
G02*
X109593199Y-85453000I249999J0D01*
G01*
X111793201Y-85453000D01*
G75*
G02*
X112043200Y-85702999I0J-249999D01*
G01*
X112043200Y-86353001D01*
G75*
G02*
X111793201Y-86603000I-249999J0D01*
G01*
G37*
%TD.AperFunction*%
%TO.P,C6,1*%
%TO.N,GND*%
%TA.AperFunction,SMDPad,CuDef*%
G36*
G01*
X111793201Y-89553000D02*
X109593199Y-89553000D01*
G75*
G02*
X109343200Y-89303001I0J249999D01*
G01*
X109343200Y-88652999D01*
G75*
G02*
X109593199Y-88403000I249999J0D01*
G01*
X111793201Y-88403000D01*
G75*
G02*
X112043200Y-88652999I0J-249999D01*
G01*
X112043200Y-89303001D01*
G75*
G02*
X111793201Y-89553000I-249999J0D01*
G01*
G37*
%TD.AperFunction*%
%TD*%
%TO.P,C5,2*%
%TO.N,subd*%
%TA.AperFunction,SMDPad,CuDef*%
G36*
G01*
X109844000Y-91736999D02*
X109844000Y-93937001D01*
G75*
G02*
X109594001Y-94187000I-249999J0D01*
G01*
X108943999Y-94187000D01*
G75*
G02*
X108694000Y-93937001I0J249999D01*
G01*
X108694000Y-91736999D01*
G75*
G02*
X108943999Y-91487000I249999J0D01*
G01*
X109594001Y-91487000D01*
G75*
G02*
X109844000Y-91736999I0J-249999D01*
G01*
G37*
%TD.AperFunction*%
%TO.P,C5,1*%
%TO.N,GND*%
%TA.AperFunction,SMDPad,CuDef*%
G36*
G01*
X112794000Y-91736999D02*
X112794000Y-93937001D01*
G75*
G02*
X112544001Y-94187000I-249999J0D01*
G01*
X111893999Y-94187000D01*
G75*
G02*
X111644000Y-93937001I0J249999D01*
G01*
X111644000Y-91736999D01*
G75*
G02*
X111893999Y-91487000I249999J0D01*
G01*
X112544001Y-91487000D01*
G75*
G02*
X112794000Y-91736999I0J-249999D01*
G01*
G37*
%TD.AperFunction*%
%TD*%
%TO.P,C4,2*%
%TO.N,suba*%
%TA.AperFunction,SMDPad,CuDef*%
G36*
G01*
X115095201Y-86603000D02*
X112895199Y-86603000D01*
G75*
G02*
X112645200Y-86353001I0J249999D01*
G01*
X112645200Y-85702999D01*
G75*
G02*
X112895199Y-85453000I249999J0D01*
G01*
X115095201Y-85453000D01*
G75*
G02*
X115345200Y-85702999I0J-249999D01*
G01*
X115345200Y-86353001D01*
G75*
G02*
X115095201Y-86603000I-249999J0D01*
G01*
G37*
%TD.AperFunction*%
%TO.P,C4,1*%
%TO.N,GND*%
%TA.AperFunction,SMDPad,CuDef*%
G36*
G01*
X115095201Y-89553000D02*
X112895199Y-89553000D01*
G75*
G02*
X112645200Y-89303001I0J249999D01*
G01*
X112645200Y-88652999D01*
G75*
G02*
X112895199Y-88403000I249999J0D01*
G01*
X115095201Y-88403000D01*
G75*
G02*
X115345200Y-88652999I0J-249999D01*
G01*
X115345200Y-89303001D01*
G75*
G02*
X115095201Y-89553000I-249999J0D01*
G01*
G37*
%TD.AperFunction*%
%TD*%
%TO.P,R7,2*%
%TO.N,/interrupt*%
%TA.AperFunction,SMDPad,CuDef*%
G36*
G01*
X128799000Y-91904000D02*
X128249000Y-91904000D01*
G75*
G02*
X128049000Y-91704000I0J200000D01*
G01*
X128049000Y-91304000D01*
G75*
G02*
X128249000Y-91104000I200000J0D01*
G01*
X128799000Y-91104000D01*
G75*
G02*
X128999000Y-91304000I0J-200000D01*
G01*
X128999000Y-91704000D01*
G75*
G02*
X128799000Y-91904000I-200000J0D01*
G01*
G37*
%TD.AperFunction*%
%TO.P,R7,1*%
%TO.N,VDD*%
%TA.AperFunction,SMDPad,CuDef*%
G36*
G01*
X128799000Y-93554000D02*
X128249000Y-93554000D01*
G75*
G02*
X128049000Y-93354000I0J200000D01*
G01*
X128049000Y-92954000D01*
G75*
G02*
X128249000Y-92754000I200000J0D01*
G01*
X128799000Y-92754000D01*
G75*
G02*
X128999000Y-92954000I0J-200000D01*
G01*
X128999000Y-93354000D01*
G75*
G02*
X128799000Y-93554000I-200000J0D01*
G01*
G37*
%TD.AperFunction*%
%TD*%
%TO.P,R2,2*%
%TO.N,Net-(R16-Pad2)*%
%TA.AperFunction,SMDPad,CuDef*%
G36*
G01*
X144101000Y-90707800D02*
X144101000Y-91257800D01*
G75*
G02*
X143901000Y-91457800I-200000J0D01*
G01*
X143501000Y-91457800D01*
G75*
G02*
X143301000Y-91257800I0J200000D01*
G01*
X143301000Y-90707800D01*
G75*
G02*
X143501000Y-90507800I200000J0D01*
G01*
X143901000Y-90507800D01*
G75*
G02*
X144101000Y-90707800I0J-200000D01*
G01*
G37*
%TD.AperFunction*%
%TO.P,R2,1*%
%TO.N,Net-(J3-Pad1)*%
%TA.AperFunction,SMDPad,CuDef*%
G36*
G01*
X145751000Y-90707800D02*
X145751000Y-91257800D01*
G75*
G02*
X145551000Y-91457800I-200000J0D01*
G01*
X145151000Y-91457800D01*
G75*
G02*
X144951000Y-91257800I0J200000D01*
G01*
X144951000Y-90707800D01*
G75*
G02*
X145151000Y-90507800I200000J0D01*
G01*
X145551000Y-90507800D01*
G75*
G02*
X145751000Y-90707800I0J-200000D01*
G01*
G37*
%TD.AperFunction*%
%TD*%
D19*
%TO.P,J10,6*%
%TO.N,GND*%
X143637000Y-54610000D03*
%TO.P,J10,5*%
%TO.N,/spi_right_mosi*%
X141097000Y-54610000D03*
%TO.P,J10,4*%
%TO.N,/spi_right_csn*%
X138557000Y-54610000D03*
%TO.P,J10,3*%
%TO.N,/spi_right_miso0*%
X136017000Y-54610000D03*
%TO.P,J10,2*%
%TO.N,/spi_right_miso1*%
X133477000Y-54610000D03*
D20*
%TO.P,J10,1*%
%TO.N,/spi_right_clk*%
X130937000Y-54610000D03*
%TD*%
D19*
%TO.P,J9,6*%
%TO.N,GND*%
X113792000Y-54610000D03*
%TO.P,J9,5*%
%TO.N,/spi_left_csn*%
X116332000Y-54610000D03*
%TO.P,J9,4*%
%TO.N,/spi_left_clk*%
X118872000Y-54610000D03*
%TO.P,J9,3*%
%TO.N,/spi_left_miso1*%
X121412000Y-54610000D03*
%TO.P,J9,2*%
%TO.N,/spi_left_miso0*%
X123952000Y-54610000D03*
D20*
%TO.P,J9,1*%
%TO.N,/spi_left_mosi*%
X126492000Y-54610000D03*
%TD*%
D25*
%TO.P,J6,2*%
%TO.N,GND*%
X112395000Y-76327000D03*
X107315000Y-76327000D03*
X107315000Y-71247000D03*
X112395000Y-71247000D03*
%TO.P,J6,1*%
%TO.N,/HV_in_ext*%
X109855000Y-73787000D03*
%TD*%
%TO.P,J5,2*%
%TO.N,GND*%
X149860000Y-58420000D03*
X154940000Y-58420000D03*
X154940000Y-63500000D03*
X149860000Y-63500000D03*
%TO.P,J5,1*%
%TO.N,/sc_out*%
X152400000Y-60960000D03*
%TD*%
%TO.P,J4,2*%
%TO.N,GND*%
X149860000Y-71882000D03*
X154940000Y-71882000D03*
X154940000Y-76962000D03*
X149860000Y-76962000D03*
%TO.P,J4,1*%
%TO.N,Net-(J4-Pad1)*%
X152400000Y-74422000D03*
%TD*%
%TO.P,J3,2*%
%TO.N,GND*%
X149860000Y-86360000D03*
X154940000Y-86360000D03*
X154940000Y-91440000D03*
X149860000Y-91440000D03*
%TO.P,J3,1*%
%TO.N,Net-(J3-Pad1)*%
X152400000Y-88900000D03*
%TD*%
%TO.P,C10,2*%
%TO.N,GND*%
%TA.AperFunction,SMDPad,CuDef*%
G36*
G01*
X117301200Y-92374600D02*
X117801200Y-92374600D01*
G75*
G02*
X118026200Y-92599600I0J-225000D01*
G01*
X118026200Y-93049600D01*
G75*
G02*
X117801200Y-93274600I-225000J0D01*
G01*
X117301200Y-93274600D01*
G75*
G02*
X117076200Y-93049600I0J225000D01*
G01*
X117076200Y-92599600D01*
G75*
G02*
X117301200Y-92374600I225000J0D01*
G01*
G37*
%TD.AperFunction*%
%TO.P,C10,1*%
%TO.N,VDD*%
%TA.AperFunction,SMDPad,CuDef*%
G36*
G01*
X117301200Y-90824600D02*
X117801200Y-90824600D01*
G75*
G02*
X118026200Y-91049600I0J-225000D01*
G01*
X118026200Y-91499600D01*
G75*
G02*
X117801200Y-91724600I-225000J0D01*
G01*
X117301200Y-91724600D01*
G75*
G02*
X117076200Y-91499600I0J225000D01*
G01*
X117076200Y-91049600D01*
G75*
G02*
X117301200Y-90824600I225000J0D01*
G01*
G37*
%TD.AperFunction*%
%TD*%
%TO.P,C12,2*%
%TO.N,GND*%
%TA.AperFunction,SMDPad,CuDef*%
G36*
G01*
X123371800Y-84018000D02*
X123871800Y-84018000D01*
G75*
G02*
X124096800Y-84243000I0J-225000D01*
G01*
X124096800Y-84693000D01*
G75*
G02*
X123871800Y-84918000I-225000J0D01*
G01*
X123371800Y-84918000D01*
G75*
G02*
X123146800Y-84693000I0J225000D01*
G01*
X123146800Y-84243000D01*
G75*
G02*
X123371800Y-84018000I225000J0D01*
G01*
G37*
%TD.AperFunction*%
%TO.P,C12,1*%
%TO.N,VDD*%
%TA.AperFunction,SMDPad,CuDef*%
G36*
G01*
X123371800Y-82468000D02*
X123871800Y-82468000D01*
G75*
G02*
X124096800Y-82693000I0J-225000D01*
G01*
X124096800Y-83143000D01*
G75*
G02*
X123871800Y-83368000I-225000J0D01*
G01*
X123371800Y-83368000D01*
G75*
G02*
X123146800Y-83143000I0J225000D01*
G01*
X123146800Y-82693000D01*
G75*
G02*
X123371800Y-82468000I225000J0D01*
G01*
G37*
%TD.AperFunction*%
%TD*%
%TO.P,C13,2*%
%TO.N,GND*%
%TA.AperFunction,SMDPad,CuDef*%
G36*
G01*
X119401400Y-95763200D02*
X118901400Y-95763200D01*
G75*
G02*
X118676400Y-95538200I0J225000D01*
G01*
X118676400Y-95088200D01*
G75*
G02*
X118901400Y-94863200I225000J0D01*
G01*
X119401400Y-94863200D01*
G75*
G02*
X119626400Y-95088200I0J-225000D01*
G01*
X119626400Y-95538200D01*
G75*
G02*
X119401400Y-95763200I-225000J0D01*
G01*
G37*
%TD.AperFunction*%
%TO.P,C13,1*%
%TO.N,VDDA*%
%TA.AperFunction,SMDPad,CuDef*%
G36*
G01*
X119401400Y-97313200D02*
X118901400Y-97313200D01*
G75*
G02*
X118676400Y-97088200I0J225000D01*
G01*
X118676400Y-96638200D01*
G75*
G02*
X118901400Y-96413200I225000J0D01*
G01*
X119401400Y-96413200D01*
G75*
G02*
X119626400Y-96638200I0J-225000D01*
G01*
X119626400Y-97088200D01*
G75*
G02*
X119401400Y-97313200I-225000J0D01*
G01*
G37*
%TD.AperFunction*%
%TD*%
%TO.P,C11,2*%
%TO.N,GND*%
%TA.AperFunction,SMDPad,CuDef*%
G36*
G01*
X121001600Y-95763200D02*
X120501600Y-95763200D01*
G75*
G02*
X120276600Y-95538200I0J225000D01*
G01*
X120276600Y-95088200D01*
G75*
G02*
X120501600Y-94863200I225000J0D01*
G01*
X121001600Y-94863200D01*
G75*
G02*
X121226600Y-95088200I0J-225000D01*
G01*
X121226600Y-95538200D01*
G75*
G02*
X121001600Y-95763200I-225000J0D01*
G01*
G37*
%TD.AperFunction*%
%TO.P,C11,1*%
%TO.N,VDDA*%
%TA.AperFunction,SMDPad,CuDef*%
G36*
G01*
X121001600Y-97313200D02*
X120501600Y-97313200D01*
G75*
G02*
X120276600Y-97088200I0J225000D01*
G01*
X120276600Y-96638200D01*
G75*
G02*
X120501600Y-96413200I225000J0D01*
G01*
X121001600Y-96413200D01*
G75*
G02*
X121226600Y-96638200I0J-225000D01*
G01*
X121226600Y-97088200D01*
G75*
G02*
X121001600Y-97313200I-225000J0D01*
G01*
G37*
%TD.AperFunction*%
%TD*%
%TO.P,C9,2*%
%TO.N,GND*%
%TA.AperFunction,SMDPad,CuDef*%
G36*
G01*
X118926800Y-92374600D02*
X119426800Y-92374600D01*
G75*
G02*
X119651800Y-92599600I0J-225000D01*
G01*
X119651800Y-93049600D01*
G75*
G02*
X119426800Y-93274600I-225000J0D01*
G01*
X118926800Y-93274600D01*
G75*
G02*
X118701800Y-93049600I0J225000D01*
G01*
X118701800Y-92599600D01*
G75*
G02*
X118926800Y-92374600I225000J0D01*
G01*
G37*
%TD.AperFunction*%
%TO.P,C9,1*%
%TO.N,VDD*%
%TA.AperFunction,SMDPad,CuDef*%
G36*
G01*
X118926800Y-90824600D02*
X119426800Y-90824600D01*
G75*
G02*
X119651800Y-91049600I0J-225000D01*
G01*
X119651800Y-91499600D01*
G75*
G02*
X119426800Y-91724600I-225000J0D01*
G01*
X118926800Y-91724600D01*
G75*
G02*
X118701800Y-91499600I0J225000D01*
G01*
X118701800Y-91049600D01*
G75*
G02*
X118926800Y-90824600I225000J0D01*
G01*
G37*
%TD.AperFunction*%
%TD*%
%TO.P,C8,2*%
%TO.N,GND*%
%TA.AperFunction,SMDPad,CuDef*%
G36*
G01*
X120501600Y-92374600D02*
X121001600Y-92374600D01*
G75*
G02*
X121226600Y-92599600I0J-225000D01*
G01*
X121226600Y-93049600D01*
G75*
G02*
X121001600Y-93274600I-225000J0D01*
G01*
X120501600Y-93274600D01*
G75*
G02*
X120276600Y-93049600I0J225000D01*
G01*
X120276600Y-92599600D01*
G75*
G02*
X120501600Y-92374600I225000J0D01*
G01*
G37*
%TD.AperFunction*%
%TO.P,C8,1*%
%TO.N,VDD*%
%TA.AperFunction,SMDPad,CuDef*%
G36*
G01*
X120501600Y-90824600D02*
X121001600Y-90824600D01*
G75*
G02*
X121226600Y-91049600I0J-225000D01*
G01*
X121226600Y-91499600D01*
G75*
G02*
X121001600Y-91724600I-225000J0D01*
G01*
X120501600Y-91724600D01*
G75*
G02*
X120276600Y-91499600I0J225000D01*
G01*
X120276600Y-91049600D01*
G75*
G02*
X120501600Y-90824600I225000J0D01*
G01*
G37*
%TD.AperFunction*%
%TD*%
%TO.P,C2,2*%
%TO.N,GND*%
%TA.AperFunction,SMDPad,CuDef*%
G36*
G01*
X143693000Y-83697000D02*
X143693000Y-84197000D01*
G75*
G02*
X143468000Y-84422000I-225000J0D01*
G01*
X143018000Y-84422000D01*
G75*
G02*
X142793000Y-84197000I0J225000D01*
G01*
X142793000Y-83697000D01*
G75*
G02*
X143018000Y-83472000I225000J0D01*
G01*
X143468000Y-83472000D01*
G75*
G02*
X143693000Y-83697000I0J-225000D01*
G01*
G37*
%TD.AperFunction*%
%TO.P,C2,1*%
%TO.N,VDDA*%
%TA.AperFunction,SMDPad,CuDef*%
G36*
G01*
X145243000Y-83697000D02*
X145243000Y-84197000D01*
G75*
G02*
X145018000Y-84422000I-225000J0D01*
G01*
X144568000Y-84422000D01*
G75*
G02*
X144343000Y-84197000I0J225000D01*
G01*
X144343000Y-83697000D01*
G75*
G02*
X144568000Y-83472000I225000J0D01*
G01*
X145018000Y-83472000D01*
G75*
G02*
X145243000Y-83697000I0J-225000D01*
G01*
G37*
%TD.AperFunction*%
%TD*%
%TO.P,C1,2*%
%TO.N,GND*%
%TA.AperFunction,SMDPad,CuDef*%
G36*
G01*
X147019200Y-78760200D02*
X147519200Y-78760200D01*
G75*
G02*
X147744200Y-78985200I0J-225000D01*
G01*
X147744200Y-79435200D01*
G75*
G02*
X147519200Y-79660200I-225000J0D01*
G01*
X147019200Y-79660200D01*
G75*
G02*
X146794200Y-79435200I0J225000D01*
G01*
X146794200Y-78985200D01*
G75*
G02*
X147019200Y-78760200I225000J0D01*
G01*
G37*
%TD.AperFunction*%
%TO.P,C1,1*%
%TO.N,VDDA*%
%TA.AperFunction,SMDPad,CuDef*%
G36*
G01*
X147019200Y-77210200D02*
X147519200Y-77210200D01*
G75*
G02*
X147744200Y-77435200I0J-225000D01*
G01*
X147744200Y-77885200D01*
G75*
G02*
X147519200Y-78110200I-225000J0D01*
G01*
X147019200Y-78110200D01*
G75*
G02*
X146794200Y-77885200I0J225000D01*
G01*
X146794200Y-77435200D01*
G75*
G02*
X147019200Y-77210200I225000J0D01*
G01*
G37*
%TD.AperFunction*%
%TD*%
D26*
%TO.N,VDD*%
X128676400Y-77647800D03*
X126923800Y-77645000D03*
X118846600Y-82245200D03*
X123621800Y-82270606D03*
X121602198Y-91274600D03*
X122174010Y-91287600D03*
X129286000Y-93649798D03*
%TO.N,VDDA*%
X131438370Y-80070025D03*
X130511716Y-78787014D03*
X147269200Y-76911200D03*
X145415000Y-83947000D03*
X125095000Y-80010000D03*
X122123200Y-96850200D03*
X121551404Y-96863200D03*
%TO.N,suba*%
X131445000Y-74015600D03*
X125095000Y-74015600D03*
X128270000Y-74015600D03*
X131445000Y-71120000D03*
X128270000Y-71120000D03*
X125095000Y-71120000D03*
X131445000Y-67945000D03*
X128270000Y-67945000D03*
X125095000Y-67945000D03*
X114274600Y-84709000D03*
X133718300Y-78359000D03*
%TO.N,/res_n*%
X129381490Y-90754206D03*
X126187200Y-79349600D03*
%TO.N,/Inj*%
X129507436Y-77851000D03*
%TO.N,/DAC_vminuspix*%
X132156200Y-82321400D03*
X132384800Y-79857600D03*
%TO.N,/sr_ck1*%
X129050524Y-79221109D03*
%TO.N,GND*%
X147269200Y-79832200D03*
X142367000Y-86741000D03*
X142621000Y-83947000D03*
X147320000Y-85344000D03*
X113030000Y-92837000D03*
X120777000Y-94742000D03*
X117500400Y-93421200D03*
X119176800Y-93421200D03*
X120751600Y-93421200D03*
X121488200Y-81534000D03*
X115214400Y-102108000D03*
X115214400Y-102743000D03*
X115824000Y-102108000D03*
X115824000Y-102717600D03*
X117500388Y-94691200D03*
X113944400Y-89814398D03*
X110642400Y-89814400D03*
X120395996Y-84201000D03*
X123596400Y-85090006D03*
X123875800Y-80010004D03*
X131785620Y-77645014D03*
X118846600Y-85115400D03*
X119151402Y-94691200D03*
X112937990Y-96164400D03*
X142367000Y-78498694D03*
X131157489Y-81730881D03*
X130310139Y-81684664D03*
X127192846Y-81686398D03*
X129874775Y-78998077D03*
X128607447Y-81801912D03*
%TO.N,/sr_ck2*%
X128301510Y-84582000D03*
%TO.N,-HV*%
X106297030Y-103276400D03*
%TO.N,/spi_left_csn*%
X118491000Y-71882000D03*
%TO.N,/spi_left_clk*%
X118618000Y-74675996D03*
%TO.N,/spi_left_mosi*%
X121412000Y-74676000D03*
%TO.N,/spi_left_miso0*%
X120739311Y-71919689D03*
%TO.N,/spi_left_miso1*%
X119761000Y-71882000D03*
%TO.N,/spi_right_csn*%
X136857490Y-74523574D03*
%TO.N,/spi_right_clk*%
X135509000Y-71628000D03*
%TO.N,/spi_right_mosi*%
X137795000Y-71755000D03*
%TO.N,/spi_right_miso0*%
X136070000Y-74627402D03*
%TO.N,/spi_right_miso1*%
X135255000Y-74649590D03*
%TO.N,subd*%
X109347000Y-90932000D03*
X123571000Y-78020022D03*
%TO.N,/sr_rb*%
X128332510Y-82524600D03*
%TO.N,/sr_out*%
X128828800Y-79806800D03*
%TD*%
D27*
%TO.N,VDD*%
X122144997Y-82804000D02*
X122068801Y-82880196D01*
X127048000Y-77645000D02*
X126923800Y-77645000D01*
X127220000Y-77817000D02*
X127048000Y-77645000D01*
X127220000Y-78120000D02*
X127220000Y-77817000D01*
X128549400Y-77774800D02*
X128676400Y-77647800D01*
X128447800Y-77774800D02*
X128549400Y-77774800D01*
X128420000Y-77802600D02*
X128447800Y-77774800D01*
X128420000Y-78120000D02*
X128420000Y-77802600D01*
X122068801Y-82880196D02*
X123354804Y-82880196D01*
D28*
X114808000Y-95250000D02*
X114909600Y-95250000D01*
X123583996Y-82880196D02*
X123621800Y-82918000D01*
X122068801Y-82880196D02*
X123583996Y-82880196D01*
X118884404Y-82880196D02*
X118846600Y-82918000D01*
X120348799Y-82880196D02*
X118884404Y-82880196D01*
X118846600Y-82918000D02*
X118846600Y-82245200D01*
X123621800Y-82918000D02*
X123621800Y-82270606D01*
X117297200Y-91274600D02*
X121602198Y-91274600D01*
X121602198Y-91274600D02*
X122161010Y-91274600D01*
D29*
X116332000Y-92493800D02*
X117551200Y-91274600D01*
X116332000Y-93827600D02*
X116332000Y-92493800D01*
X114909600Y-95250000D02*
X116332000Y-93827600D01*
X122161010Y-91274600D02*
X122174010Y-91287600D01*
X117551200Y-91274600D02*
X122161010Y-91274600D01*
D28*
X129019798Y-93649798D02*
X129286000Y-93649798D01*
X128524000Y-93154000D02*
X129019798Y-93649798D01*
X129552202Y-93649798D02*
X129286000Y-93649798D01*
X130048000Y-93154000D02*
X129552202Y-93649798D01*
D27*
%TO.N,VDDA*%
X131620000Y-79372200D02*
X131620000Y-79403202D01*
X131620000Y-79888395D02*
X131438370Y-80070025D01*
X131620000Y-79520000D02*
X131620000Y-79888395D01*
X131320000Y-79520000D02*
X131320000Y-79951655D01*
X131320000Y-79951655D02*
X131438370Y-80070025D01*
X130720000Y-78995298D02*
X130511716Y-78787014D01*
X130720000Y-79520000D02*
X130720000Y-78995298D01*
D28*
X147467200Y-77462200D02*
X147269200Y-77660200D01*
X145372000Y-78486000D02*
X146304000Y-78486000D01*
X146304000Y-78486000D02*
X146304000Y-77597000D01*
X145433000Y-77597000D02*
X145372000Y-77536000D01*
X146304000Y-77597000D02*
X145433000Y-77597000D01*
X147269200Y-77660200D02*
X147269200Y-76911200D01*
X145245000Y-84399000D02*
X144793000Y-83947000D01*
X145245000Y-85791000D02*
X145245000Y-84399000D01*
X144793000Y-83947000D02*
X145415000Y-83947000D01*
X146177000Y-86741000D02*
X145245000Y-86741000D01*
X146177000Y-85852000D02*
X146177000Y-86741000D01*
X146116000Y-85791000D02*
X146177000Y-85852000D01*
X145245000Y-85791000D02*
X146116000Y-85791000D01*
D27*
X124620000Y-80485000D02*
X125095000Y-80010000D01*
X124620000Y-80970000D02*
X124620000Y-80485000D01*
D28*
X122123200Y-96850200D02*
X121564404Y-96850200D01*
X121564404Y-96850200D02*
X121551404Y-96863200D01*
X120751600Y-96863200D02*
X121551404Y-96863200D01*
D29*
X112172000Y-105791000D02*
X113172000Y-105791000D01*
X117551200Y-96961402D02*
X117551200Y-96863200D01*
X113172000Y-101340602D02*
X117551200Y-96961402D01*
X113172000Y-105791000D02*
X113172000Y-101340602D01*
X117551200Y-96863200D02*
X120751600Y-96863200D01*
X122110200Y-96863200D02*
X122123200Y-96850200D01*
X120751600Y-96863200D02*
X122110200Y-96863200D01*
D28*
X145496200Y-77660200D02*
X145372000Y-77536000D01*
X147269200Y-77660200D02*
X145496200Y-77660200D01*
D27*
X130255549Y-78787014D02*
X130511716Y-78787014D01*
X129920000Y-78451465D02*
X130255549Y-78787014D01*
X129920000Y-78120000D02*
X129920000Y-78451465D01*
D30*
%TO.N,/sample_clock_se_P*%
X123172000Y-105791000D02*
X123190000Y-105773000D01*
D31*
X123497000Y-102240999D02*
X123497000Y-89327488D01*
X123172000Y-102565999D02*
X123497000Y-102240999D01*
X123172000Y-105791000D02*
X123172000Y-102565999D01*
X121033800Y-85298000D02*
X120698800Y-84963000D01*
X121033800Y-86864288D02*
X121033800Y-85298000D01*
X123497000Y-89327488D02*
X121033800Y-86864288D01*
X120958801Y-83955199D02*
X120958801Y-83520199D01*
X121033800Y-84628000D02*
X121033800Y-84030198D01*
X121033800Y-84030198D02*
X120958801Y-83955199D01*
X120698800Y-84963000D02*
X121033800Y-84628000D01*
%TO.N,/sample_clock_se_N*%
X124172000Y-102565999D02*
X123847000Y-102240999D01*
X124172000Y-105791000D02*
X124172000Y-102565999D01*
X123847000Y-102240999D02*
X123847000Y-89182512D01*
X121383800Y-85298000D02*
X121718800Y-84963000D01*
X121383800Y-86719312D02*
X121383800Y-85298000D01*
X123847000Y-89182512D02*
X121383800Y-86719312D01*
X121458799Y-83955199D02*
X121458799Y-83520199D01*
X121383800Y-84030198D02*
X121458799Y-83955199D01*
X121383800Y-84628000D02*
X121383800Y-84030198D01*
X121718800Y-84963000D02*
X121383800Y-84628000D01*
D27*
%TO.N,suba*%
X133320000Y-78120000D02*
X132570000Y-78120000D01*
D32*
X108536000Y-86028000D02*
X110693200Y-86028000D01*
X107315000Y-87249000D02*
X108536000Y-86028000D01*
X107315000Y-88075000D02*
X107315000Y-87249000D01*
X110693200Y-86028000D02*
X113995200Y-86028000D01*
X113995200Y-86028000D02*
X113995200Y-84988400D01*
X113995200Y-84988400D02*
X114274600Y-84709000D01*
D27*
X133479300Y-78120000D02*
X133718300Y-78359000D01*
X133320000Y-78120000D02*
X133479300Y-78120000D01*
D28*
%TO.N,Net-(J3-Pad1)*%
X148183600Y-88900000D02*
X152400000Y-88900000D01*
X146100800Y-90982800D02*
X148183600Y-88900000D01*
X145351000Y-90982800D02*
X146100800Y-90982800D01*
D31*
%TO.N,/sample_clock_N*%
X126189200Y-82550000D02*
X125854200Y-82885000D01*
X125854200Y-82885000D02*
X125854200Y-102158800D01*
X126172000Y-102476600D02*
X125854200Y-102158800D01*
X126172000Y-105791000D02*
X126172000Y-102476600D01*
X125854200Y-81231505D02*
X126752648Y-80333057D01*
X125854200Y-82215000D02*
X125854200Y-81231505D01*
X126189200Y-82550000D02*
X125854200Y-82215000D01*
D27*
X127120000Y-79965705D02*
X127120000Y-79520000D01*
X126752648Y-80333057D02*
X127120000Y-79965705D01*
D31*
%TO.N,/sample_clock_P*%
X125169200Y-82550000D02*
X125504200Y-82885000D01*
X125504200Y-82885000D02*
X125504200Y-102158800D01*
X125172000Y-102491000D02*
X125504200Y-102158800D01*
X125172000Y-105791000D02*
X125172000Y-102491000D01*
X125504200Y-82215000D02*
X125504200Y-81086529D01*
X125504200Y-81086529D02*
X126505160Y-80085569D01*
X125169200Y-82550000D02*
X125504200Y-82215000D01*
D27*
X126820000Y-79783600D02*
X126820000Y-79520000D01*
X126518031Y-80085569D02*
X126820000Y-79783600D01*
X126505160Y-80085569D02*
X126518031Y-80085569D01*
%TO.N,/res_n*%
X130048000Y-91420716D02*
X129381490Y-90754206D01*
X130048000Y-91504000D02*
X130048000Y-91420716D01*
X126695200Y-78841600D02*
X126187200Y-79349600D01*
X127223400Y-78841600D02*
X126695200Y-78841600D01*
X127520000Y-78545000D02*
X127223400Y-78841600D01*
X127520000Y-78120000D02*
X127520000Y-78545000D01*
X130172000Y-94364000D02*
X130172000Y-105791000D01*
X130710510Y-93825490D02*
X130172000Y-94364000D01*
X130710510Y-92102510D02*
X130710510Y-93825490D01*
X130112000Y-91504000D02*
X130710510Y-92102510D01*
X130048000Y-91504000D02*
X130112000Y-91504000D01*
%TO.N,Net-(J4-Pad1)*%
X149098000Y-74422000D02*
X152400000Y-74422000D01*
D28*
X148272500Y-74422000D02*
X152400000Y-74422000D01*
X146850100Y-75844400D02*
X148272500Y-74422000D01*
X145478500Y-75844400D02*
X146850100Y-75844400D01*
%TO.N,Net-(R6-Pad2)*%
X143172000Y-76500900D02*
X143828500Y-75844400D01*
X143172000Y-77536000D02*
X143172000Y-76500900D01*
D32*
X144156000Y-77840000D02*
X144156000Y-78900000D01*
X144692000Y-79436000D02*
X145372000Y-79436000D01*
X143852000Y-77536000D02*
X144156000Y-77840000D01*
X144156000Y-78900000D02*
X144692000Y-79436000D01*
X143172000Y-77536000D02*
X143852000Y-77536000D01*
D27*
%TO.N,/DAC_blpix*%
X129769990Y-82779990D02*
X129769990Y-80570012D01*
X129769990Y-80570012D02*
X130420000Y-79920002D01*
X130420000Y-79920002D02*
X130420000Y-79419998D01*
X139172000Y-92182000D02*
X129769990Y-82779990D01*
X139172000Y-105791000D02*
X139172000Y-92182000D01*
%TO.N,/Inj*%
X129732435Y-77626001D02*
X129507436Y-77851000D01*
X130820000Y-78120000D02*
X130820000Y-77695000D01*
X130820000Y-77695000D02*
X130751001Y-77626001D01*
X130751001Y-77626001D02*
X129732435Y-77626001D01*
%TO.N,/DAC_VCasc2!*%
X130744987Y-81532879D02*
X130744987Y-83119987D01*
X130744987Y-83119987D02*
X140172000Y-92547000D01*
X130920000Y-81357866D02*
X130744987Y-81532879D01*
X130920000Y-80970000D02*
X130920000Y-81357866D01*
X140172000Y-92547000D02*
X140172000Y-105791000D01*
%TO.N,/DAC_vminuspix*%
X142172000Y-93099200D02*
X132156200Y-83083400D01*
X132156200Y-83083400D02*
X132156200Y-82321400D01*
X142172000Y-105791000D02*
X142172000Y-93099200D01*
X131120000Y-78120000D02*
X131120000Y-78717770D01*
X131120000Y-78717770D02*
X131370830Y-78968600D01*
X131370830Y-78968600D02*
X131788598Y-78968600D01*
X132384800Y-79564802D02*
X132384800Y-79857600D01*
X131788598Y-78968600D02*
X132384800Y-79564802D01*
%TO.N,/DAC_ThPix*%
X131179995Y-80482499D02*
X131020000Y-80322504D01*
X141172000Y-92912000D02*
X131569999Y-83309999D01*
X141172000Y-105791000D02*
X141172000Y-92912000D01*
X131569999Y-83309999D02*
X131569999Y-80619997D01*
X131569999Y-80619997D02*
X131432501Y-80482499D01*
X131432501Y-80482499D02*
X131179995Y-80482499D01*
X131020000Y-80322504D02*
X131020000Y-79635800D01*
%TO.N,/sr_ck1*%
X127820000Y-78120000D02*
X127820000Y-78573570D01*
X128825525Y-78996110D02*
X129050524Y-79221109D01*
X128242540Y-78996110D02*
X128825525Y-78996110D01*
X127820000Y-78573570D02*
X128242540Y-78996110D01*
%TO.N,/sr_ld*%
X131172000Y-90810498D02*
X129269968Y-88908466D01*
X128020000Y-79863632D02*
X128020000Y-79520000D01*
X129269968Y-88908466D02*
X129269968Y-80666398D01*
X129269968Y-80666398D02*
X128836058Y-80232488D01*
X128836058Y-80232488D02*
X128388856Y-80232488D01*
X131172000Y-105791000D02*
X131172000Y-90810498D01*
X128388856Y-80232488D02*
X128020000Y-79863632D01*
%TO.N,/sr_sin*%
X128267787Y-78667789D02*
X129107706Y-78667789D01*
X128120000Y-78120000D02*
X128120000Y-78520002D01*
X129519979Y-88804909D02*
X132172000Y-91456930D01*
X128120000Y-78520002D02*
X128267787Y-78667789D01*
X129463025Y-79208665D02*
X129519979Y-79265619D01*
X129107706Y-78667789D02*
X129463025Y-79023108D01*
X132172000Y-91456930D02*
X132172000Y-105791000D01*
X129463025Y-79023108D02*
X129463025Y-79208665D01*
X129519979Y-79265619D02*
X129519979Y-88804909D01*
%TO.N,GND*%
X147269200Y-79210200D02*
X147269200Y-79832200D01*
X143045000Y-86741000D02*
X142367000Y-86741000D01*
X143243000Y-83947000D02*
X142621000Y-83947000D01*
X147320000Y-85916000D02*
X147320000Y-85344000D01*
X113030000Y-92837000D02*
X112219000Y-92837000D01*
X120751600Y-94767400D02*
X120777000Y-94742000D01*
X120751600Y-95313200D02*
X120751600Y-94767400D01*
X119202200Y-93294200D02*
X119253000Y-93345000D01*
X119202200Y-92824600D02*
X119202200Y-93294200D01*
X121458799Y-81563401D02*
X121488200Y-81534000D01*
X121458799Y-82240199D02*
X121458799Y-81563401D01*
D29*
X116172000Y-105791000D02*
X116172000Y-103014814D01*
X116172000Y-103014814D02*
X115823931Y-102666745D01*
D27*
X120751600Y-93421200D02*
X120751600Y-92824600D01*
X119176800Y-93421200D02*
X119176800Y-92824600D01*
X117500400Y-92875400D02*
X117551200Y-92824600D01*
X117500400Y-93421200D02*
X117500400Y-92875400D01*
X117551200Y-94742012D02*
X117500388Y-94691200D01*
X117551200Y-95313200D02*
X117551200Y-94742012D01*
X113944400Y-88978000D02*
X113944400Y-89814398D01*
X113284000Y-88978000D02*
X113944400Y-88978000D01*
X110642400Y-88978000D02*
X110642400Y-89814400D01*
X109982000Y-88978000D02*
X110642400Y-88978000D01*
X120458799Y-84138197D02*
X120395996Y-84201000D01*
X120458799Y-83520199D02*
X120458799Y-84138197D01*
X123621800Y-84163200D02*
X123621800Y-85064606D01*
X123621800Y-85064606D02*
X123596400Y-85090006D01*
X124383796Y-80010004D02*
X123875800Y-80010004D01*
X124520000Y-79873800D02*
X124383796Y-80010004D01*
X124520000Y-79520000D02*
X124520000Y-79873800D01*
X131720000Y-78120000D02*
X131720000Y-77710634D01*
X131720000Y-77710634D02*
X131785620Y-77645014D01*
X118846600Y-84468000D02*
X118846600Y-85115400D01*
X118846600Y-84760622D02*
X118846600Y-84468000D01*
X119151400Y-95313200D02*
X119151400Y-94691202D01*
X119151400Y-94691202D02*
X119151402Y-94691200D01*
D28*
X112219000Y-96164400D02*
X112937990Y-96164400D01*
D27*
X143172000Y-78486000D02*
X142379694Y-78486000D01*
X142379694Y-78486000D02*
X142367000Y-78498694D01*
X130620000Y-80970000D02*
X130620000Y-81304298D01*
X131220000Y-81668370D02*
X131157489Y-81730881D01*
X131220000Y-80970000D02*
X131220000Y-81668370D01*
X130310139Y-81684664D02*
X130020000Y-81394525D01*
X130620000Y-81304298D02*
X130310139Y-81614159D01*
X130310139Y-81614159D02*
X130310139Y-81684664D01*
X130020000Y-81394525D02*
X130020000Y-80970000D01*
X127320000Y-81559244D02*
X127192846Y-81686398D01*
X127320000Y-80970000D02*
X127320000Y-81559244D01*
X128520000Y-81714465D02*
X128607447Y-81801912D01*
X128520000Y-80970000D02*
X128520000Y-81714465D01*
%TO.N,/interrupt*%
X128968988Y-82075138D02*
X128968988Y-91059012D01*
X128968988Y-91059012D02*
X127861490Y-92166510D01*
X129019957Y-82024169D02*
X128968988Y-82075138D01*
X129019957Y-80769955D02*
X129019957Y-82024169D01*
X128732501Y-80482499D02*
X129019957Y-80769955D01*
X127720000Y-79520000D02*
X127720000Y-79945000D01*
X128257499Y-80482499D02*
X128732501Y-80482499D01*
X127720000Y-79945000D02*
X128257499Y-80482499D01*
%TO.N,/timestamp_clk*%
X127861490Y-105480490D02*
X128172000Y-105791000D01*
X128172000Y-95152000D02*
X128172000Y-105791000D01*
X127611479Y-94591479D02*
X128172000Y-95152000D01*
X127611479Y-81119089D02*
X127611479Y-94591479D01*
X127620000Y-81110568D02*
X127611479Y-81119089D01*
%TO.N,/sr_ck2*%
X127920000Y-84200490D02*
X128301510Y-84582000D01*
X127920000Y-81057000D02*
X127920000Y-84200490D01*
%TO.N,/hold*%
X127420000Y-80223170D02*
X127420000Y-79520000D01*
X126780344Y-80862826D02*
X127420000Y-80223170D01*
X126780344Y-83977054D02*
X126780344Y-80862826D01*
X127172000Y-84368710D02*
X126780344Y-83977054D01*
X127172000Y-105791000D02*
X127172000Y-84368710D01*
%TO.N,GND*%
X129997698Y-79121000D02*
X129874775Y-78998077D01*
X130048000Y-79121000D02*
X129997698Y-79121000D01*
X130120000Y-79193000D02*
X130048000Y-79121000D01*
X130120000Y-79520000D02*
X130120000Y-79193000D01*
%TO.N,/interrupt*%
X128524000Y-91504000D02*
X127861490Y-92166510D01*
X129172000Y-95136000D02*
X129172000Y-105791000D01*
X127861490Y-93825490D02*
X129172000Y-95136000D01*
X127861490Y-92166510D02*
X127861490Y-93825490D01*
%TO.N,/Vtemp1*%
X131820000Y-80970000D02*
X131820000Y-81274000D01*
X131820000Y-81274000D02*
X136868400Y-86322400D01*
X138303000Y-87757000D02*
X136868400Y-86322400D01*
X139637000Y-87757000D02*
X138303000Y-87757000D01*
%TO.N,/SFOut*%
X141412000Y-79436000D02*
X143172000Y-79436000D01*
X131852706Y-78664202D02*
X132624504Y-79436000D01*
X132624504Y-79436000D02*
X141412000Y-79436000D01*
X131539202Y-78664202D02*
X131852706Y-78664202D01*
X131420000Y-78545000D02*
X131539202Y-78664202D01*
X131420000Y-78120000D02*
X131420000Y-78545000D01*
D29*
%TO.N,/VDD18_in*%
X108172000Y-105791000D02*
X109172000Y-105791000D01*
X113538000Y-94081600D02*
X114909600Y-92710000D01*
X113538000Y-97154300D02*
X113538000Y-94081600D01*
X109172000Y-105791000D02*
X109172000Y-101520300D01*
X109172000Y-101520300D02*
X113538000Y-97154300D01*
D27*
%TO.N,-HV*%
X106297030Y-105665970D02*
X106297030Y-103276400D01*
X106172000Y-105791000D02*
X106297030Y-105665970D01*
D32*
X106297030Y-100295870D02*
X107188000Y-99404900D01*
X106297030Y-103276400D02*
X106297030Y-100295870D01*
D29*
%TO.N,/POW4_in*%
X110172000Y-105791000D02*
X111172000Y-105791000D01*
X111172000Y-101527600D02*
X114909600Y-97790000D01*
X111172000Y-105791000D02*
X111172000Y-101527600D01*
D27*
%TO.N,/spi_left_csn*%
X118491000Y-72769000D02*
X118491000Y-71882000D01*
X118491000Y-71501000D02*
X118491000Y-71882000D01*
X115077956Y-68087956D02*
X118491000Y-71501000D01*
X115077956Y-55864044D02*
X115077956Y-68087956D01*
X116332000Y-54610000D02*
X115077956Y-55864044D01*
%TO.N,/spi_left_clk*%
X118618000Y-75693000D02*
X118618000Y-74675996D01*
X118695000Y-75770000D02*
X118618000Y-75693000D01*
X119120000Y-75770000D02*
X118695000Y-75770000D01*
X118618000Y-74675996D02*
X118998510Y-74295486D01*
X118998510Y-74295486D02*
X118998510Y-71654942D01*
X118998510Y-71654942D02*
X115327967Y-67984399D01*
X115327967Y-67984399D02*
X115327967Y-58154033D01*
X115327967Y-58154033D02*
X118872000Y-54610000D01*
%TO.N,/spi_left_mosi*%
X121470000Y-75670000D02*
X121470000Y-74734000D01*
X121470000Y-74734000D02*
X121412000Y-74676000D01*
X116205000Y-64897000D02*
X126492000Y-54610000D01*
X116205000Y-66802000D02*
X116205000Y-64897000D01*
X121412000Y-72009000D02*
X116205000Y-66802000D01*
X121412000Y-74676000D02*
X121412000Y-72009000D01*
%TO.N,/spi_left_miso0*%
X120777000Y-72771000D02*
X120777000Y-71957378D01*
X123952000Y-54610000D02*
X115827989Y-62734011D01*
X120777000Y-71957378D02*
X120739311Y-71919689D01*
X115827989Y-67008367D02*
X120739311Y-71919689D01*
X115827989Y-62734011D02*
X115827989Y-67008367D01*
%TO.N,/spi_left_miso1*%
X119761000Y-72769000D02*
X119761000Y-71882000D01*
X115577978Y-60444022D02*
X115577978Y-67698978D01*
X115577978Y-67698978D02*
X119761000Y-71882000D01*
X121412000Y-54610000D02*
X115577978Y-60444022D01*
%TO.N,/spi_right_csn*%
X136782499Y-74598565D02*
X136857490Y-74523574D01*
X136495000Y-75870000D02*
X136782499Y-75582501D01*
X136070000Y-75870000D02*
X136495000Y-75870000D01*
X136782499Y-75582501D02*
X136782499Y-74598565D01*
X138557000Y-54610000D02*
X141567633Y-57620633D01*
X141567633Y-57620633D02*
X141567633Y-67138812D01*
X141567633Y-67138812D02*
X136857490Y-71848955D01*
X136857490Y-71848955D02*
X136857490Y-74523574D01*
%TO.N,/spi_right_clk*%
X140817600Y-64490600D02*
X130937000Y-54610000D01*
X140817600Y-66319400D02*
X140817600Y-64490600D01*
X135509000Y-71628000D02*
X140817600Y-66319400D01*
X135509000Y-72515000D02*
X135509000Y-71628000D01*
%TO.N,/spi_right_mosi*%
X137922000Y-72515000D02*
X137668000Y-72515000D01*
X141946999Y-67603001D02*
X137795000Y-71755000D01*
X137668000Y-72515000D02*
X137668000Y-71882000D01*
X137668000Y-71882000D02*
X137795000Y-71755000D01*
X141097000Y-54610000D02*
X141946999Y-55459999D01*
X141946999Y-55459999D02*
X141946999Y-67603001D01*
%TO.N,/spi_right_miso0*%
X136525000Y-74172402D02*
X136070000Y-74627402D01*
X136525000Y-71755000D02*
X136525000Y-74172402D01*
X141317622Y-66962378D02*
X136525000Y-71755000D01*
X141317622Y-59910622D02*
X141317622Y-66962378D01*
X136017000Y-54610000D02*
X141317622Y-59910622D01*
X136070000Y-75570000D02*
X136070000Y-74627402D01*
%TO.N,/spi_right_miso1*%
X135281410Y-74649590D02*
X135255000Y-74649590D01*
X136144000Y-73787000D02*
X135281410Y-74649590D01*
X136144000Y-71628000D02*
X136144000Y-73787000D01*
X141067611Y-66704389D02*
X136144000Y-71628000D01*
X141067611Y-62200611D02*
X141067611Y-66704389D01*
X133477000Y-54610000D02*
X141067611Y-62200611D01*
X134920000Y-75470000D02*
X134920000Y-74984590D01*
X134920000Y-74984590D02*
X135255000Y-74649590D01*
%TO.N,/sample_clock_se_in*%
X121159400Y-75970000D02*
X121470000Y-75970000D01*
X120958801Y-76170599D02*
X121159400Y-75970000D01*
X120958801Y-82240199D02*
X120958801Y-76170599D01*
%TO.N,/sc_out*%
X147574000Y-60960000D02*
X152400000Y-60960000D01*
X144653000Y-63881000D02*
X147574000Y-60960000D01*
X144653000Y-67056000D02*
X144653000Y-63881000D01*
X139573000Y-72136000D02*
X144653000Y-67056000D01*
X139573000Y-72515000D02*
X139573000Y-72136000D01*
%TO.N,subd*%
X109269000Y-96647000D02*
X109269000Y-92837000D01*
X109537000Y-92569000D02*
X109269000Y-92837000D01*
X124220000Y-78120000D02*
X124320000Y-78120000D01*
X109269000Y-91010000D02*
X109347000Y-90932000D01*
X109269000Y-92837000D02*
X109269000Y-91010000D01*
D32*
X107315000Y-94210400D02*
X109269000Y-96164400D01*
X107315000Y-92900000D02*
X107315000Y-94210400D01*
X109269000Y-96164400D02*
X109269000Y-92837000D01*
D27*
X124220000Y-78120000D02*
X123670978Y-78120000D01*
X123670978Y-78120000D02*
X123571000Y-78020022D01*
D28*
%TO.N,Net-(R16-Pad2)*%
X143701000Y-90982800D02*
X143701000Y-89357200D01*
X143400002Y-85791000D02*
X143045000Y-85791000D01*
X143825001Y-86215999D02*
X143400002Y-85791000D01*
X143825001Y-89233199D02*
X143825001Y-86215999D01*
X143701000Y-89357200D02*
X143825001Y-89233199D01*
D27*
%TO.N,Net-(R9-Pad1)*%
X143017600Y-87718400D02*
X143045000Y-87691000D01*
X142979000Y-87757000D02*
X143045000Y-87691000D01*
X141287000Y-87757000D02*
X142979000Y-87757000D01*
%TO.N,Net-(R15-Pad1)*%
X147195000Y-87691000D02*
X147320000Y-87566000D01*
X145245000Y-87691000D02*
X147195000Y-87691000D01*
X145245000Y-89048000D02*
X145351000Y-89154000D01*
X145245000Y-87691000D02*
X145245000Y-89048000D01*
D32*
%TO.N,/HV_in_ext*%
X106264990Y-92300010D02*
X107315000Y-91250000D01*
X106264990Y-95556890D02*
X106264990Y-92300010D01*
X107188000Y-96479900D02*
X106264990Y-95556890D01*
X107315000Y-91250000D02*
X107315000Y-89725000D01*
X109982000Y-73914000D02*
X109855000Y-73787000D01*
X109982000Y-76454000D02*
X109982000Y-73914000D01*
X110671001Y-77143001D02*
X109982000Y-76454000D01*
X110694999Y-77143001D02*
X110671001Y-77143001D01*
X106264990Y-87283010D02*
X111252000Y-82296000D01*
X106264990Y-88674990D02*
X106264990Y-87283010D01*
X111252000Y-77700002D02*
X110694999Y-77143001D01*
X111252000Y-82296000D02*
X111252000Y-77700002D01*
X107315000Y-89725000D02*
X106264990Y-88674990D01*
D27*
%TO.N,Net-(R8-Pad2)*%
X139573000Y-74092000D02*
X139573000Y-73535000D01*
X137695000Y-75970000D02*
X139573000Y-74092000D01*
X137270000Y-75970000D02*
X137695000Y-75970000D01*
%TO.N,Net-(R10-Pad1)*%
X119634000Y-73916000D02*
X119761000Y-73789000D01*
X119634000Y-75311000D02*
X119634000Y-73916000D01*
X119475000Y-75470000D02*
X119634000Y-75311000D01*
X119120000Y-75470000D02*
X119475000Y-75470000D01*
%TO.N,Net-(R13-Pad1)*%
X119913400Y-74654600D02*
X120777000Y-73791000D01*
X119913400Y-75463400D02*
X119913400Y-74654600D01*
X120020000Y-75570000D02*
X119913400Y-75463400D01*
X120320000Y-75570000D02*
X120020000Y-75570000D01*
%TO.N,Net-(R14-Pad1)*%
X117983000Y-74297000D02*
X118491000Y-73789000D01*
X117983000Y-75586002D02*
X117983000Y-74297000D01*
X118416999Y-76020001D02*
X117983000Y-75586002D01*
X119801499Y-76020001D02*
X118416999Y-76020001D01*
X119951500Y-75870000D02*
X119801499Y-76020001D01*
X120320000Y-75870000D02*
X119951500Y-75870000D01*
%TO.N,Net-(R17-Pad2)*%
X137668000Y-74910500D02*
X137668000Y-73535000D01*
X137270000Y-75308500D02*
X137668000Y-74910500D01*
X137270000Y-75670000D02*
X137270000Y-75308500D01*
%TO.N,Net-(R18-Pad2)*%
X135508000Y-73535000D02*
X135509000Y-73535000D01*
X134432499Y-74610501D02*
X135508000Y-73535000D01*
X134495000Y-75770000D02*
X134432499Y-75707499D01*
X134432499Y-75707499D02*
X134432499Y-74610501D01*
X134920000Y-75770000D02*
X134495000Y-75770000D01*
%TO.N,/sr_rb*%
X128220000Y-80970000D02*
X128194945Y-80995055D01*
X128194945Y-80995055D02*
X128194945Y-82387035D01*
X128194945Y-82387035D02*
X128332510Y-82524600D01*
%TO.N,/sr_out*%
X128542000Y-79520000D02*
X128828800Y-79806800D01*
X128320000Y-79520000D02*
X128542000Y-79520000D01*
%TD*%
D33*
%TO.N,GND*%
X116037000Y-102946200D02*
X114985800Y-102946200D01*
X114985800Y-101930200D01*
X116037000Y-101930200D01*
X116037000Y-102946200D01*
%TA.AperFunction,Conductor*%
D34*
G36*
X116037000Y-102946200D02*
G01*
X114985800Y-102946200D01*
X114985800Y-101930200D01*
X116037000Y-101930200D01*
X116037000Y-102946200D01*
G37*
%TD.AperFunction*%
%TD*%
M02*
