%TF.GenerationSoftware,KiCad,Pcbnew,(5.1.10)-1*%
%TF.CreationDate,2021-08-12T10:07:32+02:00*%
%TF.ProjectId,astropix_v2,61737472-6f70-4697-985f-76322e6b6963,1.0*%
%TF.SameCoordinates,Original*%
%TF.FileFunction,Copper,L2,Inr*%
%TF.FilePolarity,Positive*%
%FSLAX46Y46*%
G04 Gerber Fmt 4.6, Leading zero omitted, Abs format (unit mm)*
G04 Created by KiCad (PCBNEW (5.1.10)-1) date 2021-08-12 10:07:32*
%MOMM*%
%LPD*%
G01*
G04 APERTURE LIST*
%TA.AperFunction,ComponentPad*%
%ADD10C,0.600000*%
%TD*%
%TA.AperFunction,ComponentPad*%
%ADD11O,1.700000X1.700000*%
%TD*%
%TA.AperFunction,ComponentPad*%
%ADD12R,1.700000X1.700000*%
%TD*%
%TA.AperFunction,ComponentPad*%
%ADD13C,2.250000*%
%TD*%
%TA.AperFunction,ViaPad*%
%ADD14C,0.450000*%
%TD*%
%TA.AperFunction,Conductor*%
%ADD15C,0.254000*%
%TD*%
%TA.AperFunction,Conductor*%
%ADD16C,0.100000*%
%TD*%
G04 APERTURE END LIST*
D10*
%TO.N,GND*%
%TO.C,U4*%
X134020000Y-65020000D03*
X122520000Y-65020000D03*
X134020000Y-77220000D03*
X122520000Y-77220000D03*
%TD*%
D11*
%TO.N,/POW4_in*%
%TO.C,JP1*%
X114909600Y-97790000D03*
%TO.N,VDD*%
X114909600Y-95250000D03*
D12*
%TO.N,/VDD18_in*%
X114909600Y-92710000D03*
%TD*%
D11*
%TO.N,GND*%
%TO.C,J10*%
X143637000Y-54610000D03*
%TO.N,/spi_right_mosi*%
X141097000Y-54610000D03*
%TO.N,/spi_right_csn*%
X138557000Y-54610000D03*
%TO.N,/spi_right_miso0*%
X136017000Y-54610000D03*
%TO.N,/spi_right_miso1*%
X133477000Y-54610000D03*
D12*
%TO.N,/spi_right_clk*%
X130937000Y-54610000D03*
%TD*%
D11*
%TO.N,GND*%
%TO.C,J9*%
X113792000Y-54610000D03*
%TO.N,/spi_left_csn*%
X116332000Y-54610000D03*
%TO.N,/spi_left_clk*%
X118872000Y-54610000D03*
%TO.N,/spi_left_miso1*%
X121412000Y-54610000D03*
%TO.N,/spi_left_miso0*%
X123952000Y-54610000D03*
D12*
%TO.N,/spi_left_mosi*%
X126492000Y-54610000D03*
%TD*%
D13*
%TO.N,GND*%
%TO.C,J6*%
X112395000Y-76327000D03*
X107315000Y-76327000D03*
X107315000Y-71247000D03*
X112395000Y-71247000D03*
%TO.N,/HV_in_ext*%
X109855000Y-73787000D03*
%TD*%
%TO.N,GND*%
%TO.C,J5*%
X149860000Y-58420000D03*
X154940000Y-58420000D03*
X154940000Y-63500000D03*
X149860000Y-63500000D03*
%TO.N,/sc_out*%
X152400000Y-60960000D03*
%TD*%
%TO.N,GND*%
%TO.C,J4*%
X149860000Y-71882000D03*
X154940000Y-71882000D03*
X154940000Y-76962000D03*
X149860000Y-76962000D03*
%TO.N,Net-(J4-Pad1)*%
X152400000Y-74422000D03*
%TD*%
%TO.N,GND*%
%TO.C,J3*%
X149860000Y-86360000D03*
X154940000Y-86360000D03*
X154940000Y-91440000D03*
X149860000Y-91440000D03*
%TO.N,Net-(J3-Pad1)*%
X152400000Y-88900000D03*
%TD*%
D14*
%TO.N,VDD*%
X128676400Y-77647800D03*
X126923800Y-77645000D03*
X118846600Y-82245200D03*
X123621800Y-82270606D03*
X121602198Y-91274600D03*
X122174010Y-91287600D03*
X129286000Y-93649798D03*
%TO.N,VDDA*%
X131438370Y-80070025D03*
X130511716Y-78787014D03*
X147269200Y-76911200D03*
X145415000Y-83947000D03*
X125095000Y-80010000D03*
X122123200Y-96850200D03*
X121551404Y-96863200D03*
%TO.N,suba*%
X131445000Y-74015600D03*
X125095000Y-74015600D03*
X128270000Y-74015600D03*
X131445000Y-71120000D03*
X128270000Y-71120000D03*
X125095000Y-71120000D03*
X131445000Y-67945000D03*
X128270000Y-67945000D03*
X125095000Y-67945000D03*
X114274600Y-84709000D03*
X133718300Y-78359000D03*
%TO.N,/res_n*%
X129381490Y-90754206D03*
X126187200Y-79349600D03*
%TO.N,/Inj*%
X129507436Y-77851000D03*
%TO.N,/DAC_vminuspix*%
X132156200Y-82321400D03*
X132384800Y-79857600D03*
%TO.N,/sr_ck2*%
X128301510Y-84582000D03*
%TO.N,/sr_ck1*%
X129050524Y-79221109D03*
%TO.N,GND*%
X147269200Y-79832200D03*
X142367000Y-86741000D03*
X142621000Y-83947000D03*
X147320000Y-85344000D03*
X113030000Y-92837000D03*
X120777000Y-94742000D03*
X117500400Y-93421200D03*
X119176800Y-93421200D03*
X120751600Y-93421200D03*
X121488200Y-81534000D03*
X115214400Y-102108000D03*
X115214400Y-102743000D03*
X115824000Y-102108000D03*
X115824000Y-102717600D03*
X117500388Y-94691200D03*
X113944400Y-89814398D03*
X110642400Y-89814400D03*
X120395996Y-84201000D03*
X123596400Y-85090006D03*
X123875800Y-80010004D03*
X131785620Y-77645014D03*
X118846600Y-85115400D03*
X119151402Y-94691200D03*
X112937990Y-96164400D03*
X142367000Y-78498694D03*
X131157489Y-81730881D03*
X130310139Y-81684664D03*
X127192846Y-81686398D03*
X129874775Y-78998077D03*
X128607447Y-81801912D03*
%TO.N,-HV*%
X106297030Y-103276400D03*
%TO.N,/spi_left_csn*%
X118491000Y-71882000D03*
%TO.N,/spi_left_clk*%
X118618000Y-74675996D03*
%TO.N,/spi_left_mosi*%
X121412000Y-74676000D03*
%TO.N,/spi_left_miso0*%
X120739311Y-71919689D03*
%TO.N,/spi_left_miso1*%
X119761000Y-71882000D03*
%TO.N,/spi_right_csn*%
X136857490Y-74523574D03*
%TO.N,/spi_right_clk*%
X135509000Y-71628000D03*
%TO.N,/spi_right_mosi*%
X137795000Y-71755000D03*
%TO.N,/spi_right_miso0*%
X136070000Y-74627402D03*
%TO.N,/spi_right_miso1*%
X135255000Y-74649590D03*
%TO.N,subd*%
X109347000Y-90932000D03*
X123571000Y-78020022D03*
%TO.N,/sr_rb*%
X128332510Y-82524600D03*
%TO.N,/sr_out*%
X128828800Y-79806800D03*
%TD*%
D15*
%TO.N,GND*%
X156411399Y-57473798D02*
X156164531Y-57375074D01*
X155119605Y-58420000D01*
X156164531Y-59464926D01*
X156410509Y-59366558D01*
X156409010Y-62552843D01*
X156164531Y-62455074D01*
X155119605Y-63500000D01*
X156164531Y-64544926D01*
X156408119Y-64447514D01*
X156405069Y-70933266D01*
X156164531Y-70837074D01*
X155119605Y-71882000D01*
X156164531Y-72926926D01*
X156404176Y-72831091D01*
X156402679Y-76012311D01*
X156164531Y-75917074D01*
X155119605Y-76962000D01*
X156164531Y-78006926D01*
X156401786Y-77912046D01*
X156398260Y-85408543D01*
X156164531Y-85315074D01*
X155119605Y-86360000D01*
X156164531Y-87404926D01*
X156397365Y-87311815D01*
X156395871Y-90487588D01*
X156164531Y-90395074D01*
X155119605Y-91440000D01*
X156164531Y-92484926D01*
X156394975Y-92392770D01*
X156391011Y-100819723D01*
X156391000Y-100819833D01*
X156391000Y-100842556D01*
X156390991Y-100861965D01*
X156391000Y-100862057D01*
X156391001Y-108562473D01*
X156143475Y-108810000D01*
X119300526Y-108810000D01*
X119053000Y-108562475D01*
X119053000Y-101769832D01*
X119050850Y-101748003D01*
X119050850Y-101735678D01*
X119050221Y-101729693D01*
X119029554Y-101545441D01*
X119021429Y-101507216D01*
X119013845Y-101468914D01*
X119012066Y-101463165D01*
X119012066Y-101463163D01*
X119012064Y-101463157D01*
X118956005Y-101286435D01*
X118940624Y-101250549D01*
X118925730Y-101214413D01*
X118922867Y-101209119D01*
X118833546Y-101046645D01*
X118811483Y-101014423D01*
X118789858Y-100981875D01*
X118786022Y-100977238D01*
X118666844Y-100835209D01*
X118638934Y-100807877D01*
X118611410Y-100780160D01*
X118606752Y-100776361D01*
X118606746Y-100776355D01*
X118606739Y-100776351D01*
X118462251Y-100660179D01*
X118429565Y-100638790D01*
X118397180Y-100616946D01*
X118391874Y-100614125D01*
X118391866Y-100614120D01*
X118391858Y-100614117D01*
X118227557Y-100528222D01*
X118191355Y-100513595D01*
X118155326Y-100498450D01*
X118149564Y-100496710D01*
X117971701Y-100444363D01*
X117933324Y-100437042D01*
X117895064Y-100429188D01*
X117889084Y-100428602D01*
X117889074Y-100428600D01*
X117889065Y-100428600D01*
X117704431Y-100411797D01*
X117665401Y-100412069D01*
X117626304Y-100411797D01*
X117620315Y-100412384D01*
X117435923Y-100431765D01*
X117397660Y-100439619D01*
X117359289Y-100446939D01*
X117353533Y-100448677D01*
X117353524Y-100448679D01*
X117353516Y-100448683D01*
X117176411Y-100503505D01*
X117140431Y-100518629D01*
X117104180Y-100533276D01*
X117098866Y-100536101D01*
X116935773Y-100624285D01*
X116903353Y-100646152D01*
X116870700Y-100667520D01*
X116866045Y-100671316D01*
X116866037Y-100671322D01*
X116866030Y-100671329D01*
X116723177Y-100789508D01*
X116695656Y-100817222D01*
X116667743Y-100844556D01*
X116663907Y-100849193D01*
X116546724Y-100992873D01*
X116525109Y-101025406D01*
X116503038Y-101057641D01*
X116500175Y-101062934D01*
X116413131Y-101226640D01*
X116398244Y-101262757D01*
X116382855Y-101298663D01*
X116381080Y-101304400D01*
X116381076Y-101304409D01*
X116381074Y-101304418D01*
X116327488Y-101481906D01*
X116319904Y-101520208D01*
X116311779Y-101558433D01*
X116311150Y-101564418D01*
X116293057Y-101748941D01*
X116293057Y-101748949D01*
X116291000Y-101769833D01*
X116291001Y-108562473D01*
X116043475Y-108810000D01*
X106200526Y-108810000D01*
X105953000Y-108562475D01*
X105953000Y-104056096D01*
X106048511Y-104095658D01*
X106213115Y-104128400D01*
X106380945Y-104128400D01*
X106545549Y-104095658D01*
X106700603Y-104031432D01*
X106840148Y-103938191D01*
X106958821Y-103819518D01*
X107052062Y-103679973D01*
X107116288Y-103524919D01*
X107149030Y-103360315D01*
X107149030Y-103192485D01*
X107116288Y-103027881D01*
X107052062Y-102872827D01*
X106958821Y-102733282D01*
X106840148Y-102614609D01*
X106700603Y-102521368D01*
X106545549Y-102457142D01*
X106380945Y-102424400D01*
X106213115Y-102424400D01*
X106048511Y-102457142D01*
X105953000Y-102496704D01*
X105953000Y-100839481D01*
X105953972Y-97668757D01*
X113678600Y-97668757D01*
X113678600Y-97911243D01*
X113725907Y-98149069D01*
X113818702Y-98373097D01*
X113953420Y-98574717D01*
X114124883Y-98746180D01*
X114326503Y-98880898D01*
X114550531Y-98973693D01*
X114788357Y-99021000D01*
X115030843Y-99021000D01*
X115268669Y-98973693D01*
X115492697Y-98880898D01*
X115694317Y-98746180D01*
X115865780Y-98574717D01*
X116000498Y-98373097D01*
X116093293Y-98149069D01*
X116140600Y-97911243D01*
X116140600Y-97668757D01*
X116093293Y-97430931D01*
X116000498Y-97206903D01*
X115865780Y-97005283D01*
X115694317Y-96833820D01*
X115648961Y-96803514D01*
X120945404Y-96803514D01*
X120945404Y-96922886D01*
X120968692Y-97039964D01*
X121014374Y-97150249D01*
X121080693Y-97249502D01*
X121165102Y-97333911D01*
X121264355Y-97400230D01*
X121374640Y-97445912D01*
X121491718Y-97469200D01*
X121611090Y-97469200D01*
X121728168Y-97445912D01*
X121838453Y-97400230D01*
X121849582Y-97392794D01*
X121946436Y-97432912D01*
X122063514Y-97456200D01*
X122182886Y-97456200D01*
X122299964Y-97432912D01*
X122410249Y-97387230D01*
X122509502Y-97320911D01*
X122593911Y-97236502D01*
X122660230Y-97137249D01*
X122705912Y-97026964D01*
X122729200Y-96909886D01*
X122729200Y-96790514D01*
X122705912Y-96673436D01*
X122660230Y-96563151D01*
X122593911Y-96463898D01*
X122509502Y-96379489D01*
X122410249Y-96313170D01*
X122299964Y-96267488D01*
X122182886Y-96244200D01*
X122063514Y-96244200D01*
X121946436Y-96267488D01*
X121836151Y-96313170D01*
X121825022Y-96320606D01*
X121728168Y-96280488D01*
X121611090Y-96257200D01*
X121491718Y-96257200D01*
X121374640Y-96280488D01*
X121264355Y-96326170D01*
X121165102Y-96392489D01*
X121080693Y-96476898D01*
X121014374Y-96576151D01*
X120968692Y-96686436D01*
X120945404Y-96803514D01*
X115648961Y-96803514D01*
X115492697Y-96699102D01*
X115268669Y-96606307D01*
X115030843Y-96559000D01*
X114788357Y-96559000D01*
X114550531Y-96606307D01*
X114326503Y-96699102D01*
X114124883Y-96833820D01*
X113953420Y-97005283D01*
X113818702Y-97206903D01*
X113725907Y-97430931D01*
X113678600Y-97668757D01*
X105953972Y-97668757D01*
X105954750Y-95128757D01*
X113678600Y-95128757D01*
X113678600Y-95371243D01*
X113725907Y-95609069D01*
X113818702Y-95833097D01*
X113953420Y-96034717D01*
X114124883Y-96206180D01*
X114326503Y-96340898D01*
X114550531Y-96433693D01*
X114788357Y-96481000D01*
X115030843Y-96481000D01*
X115268669Y-96433693D01*
X115492697Y-96340898D01*
X115694317Y-96206180D01*
X115865780Y-96034717D01*
X116000498Y-95833097D01*
X116093293Y-95609069D01*
X116140600Y-95371243D01*
X116140600Y-95128757D01*
X116093293Y-94890931D01*
X116000498Y-94666903D01*
X115865780Y-94465283D01*
X115694317Y-94293820D01*
X115492697Y-94159102D01*
X115268669Y-94066307D01*
X115030843Y-94019000D01*
X114788357Y-94019000D01*
X114550531Y-94066307D01*
X114326503Y-94159102D01*
X114124883Y-94293820D01*
X113953420Y-94465283D01*
X113818702Y-94666903D01*
X113725907Y-94890931D01*
X113678600Y-95128757D01*
X105954750Y-95128757D01*
X105955753Y-91860000D01*
X113676757Y-91860000D01*
X113676757Y-93560000D01*
X113684113Y-93634689D01*
X113705899Y-93706508D01*
X113741278Y-93772696D01*
X113788889Y-93830711D01*
X113846904Y-93878322D01*
X113913092Y-93913701D01*
X113984911Y-93935487D01*
X114059600Y-93942843D01*
X115759600Y-93942843D01*
X115834289Y-93935487D01*
X115906108Y-93913701D01*
X115972296Y-93878322D01*
X116030311Y-93830711D01*
X116077922Y-93772696D01*
X116113301Y-93706508D01*
X116135087Y-93634689D01*
X116139477Y-93590112D01*
X128680000Y-93590112D01*
X128680000Y-93709484D01*
X128703288Y-93826562D01*
X128748970Y-93936847D01*
X128815289Y-94036100D01*
X128899698Y-94120509D01*
X128998951Y-94186828D01*
X129109236Y-94232510D01*
X129226314Y-94255798D01*
X129345686Y-94255798D01*
X129462764Y-94232510D01*
X129573049Y-94186828D01*
X129672302Y-94120509D01*
X129756711Y-94036100D01*
X129823030Y-93936847D01*
X129868712Y-93826562D01*
X129892000Y-93709484D01*
X129892000Y-93590112D01*
X129868712Y-93473034D01*
X129823030Y-93362749D01*
X129756711Y-93263496D01*
X129672302Y-93179087D01*
X129573049Y-93112768D01*
X129462764Y-93067086D01*
X129345686Y-93043798D01*
X129226314Y-93043798D01*
X129109236Y-93067086D01*
X128998951Y-93112768D01*
X128899698Y-93179087D01*
X128815289Y-93263496D01*
X128748970Y-93362749D01*
X128703288Y-93473034D01*
X128680000Y-93590112D01*
X116139477Y-93590112D01*
X116142443Y-93560000D01*
X116142443Y-92664531D01*
X148815074Y-92664531D01*
X148925921Y-92941714D01*
X149236840Y-93095089D01*
X149571705Y-93184860D01*
X149917650Y-93207576D01*
X150261380Y-93162366D01*
X150589685Y-93050966D01*
X150794079Y-92941714D01*
X150904926Y-92664531D01*
X153895074Y-92664531D01*
X154005921Y-92941714D01*
X154316840Y-93095089D01*
X154651705Y-93184860D01*
X154997650Y-93207576D01*
X155341380Y-93162366D01*
X155669685Y-93050966D01*
X155874079Y-92941714D01*
X155984926Y-92664531D01*
X154940000Y-91619605D01*
X153895074Y-92664531D01*
X150904926Y-92664531D01*
X149860000Y-91619605D01*
X148815074Y-92664531D01*
X116142443Y-92664531D01*
X116142443Y-91860000D01*
X116135087Y-91785311D01*
X116113301Y-91713492D01*
X116077922Y-91647304D01*
X116030311Y-91589289D01*
X115972296Y-91541678D01*
X115906108Y-91506299D01*
X115834289Y-91484513D01*
X115759600Y-91477157D01*
X114059600Y-91477157D01*
X113984911Y-91484513D01*
X113913092Y-91506299D01*
X113846904Y-91541678D01*
X113788889Y-91589289D01*
X113741278Y-91647304D01*
X113705899Y-91713492D01*
X113684113Y-91785311D01*
X113676757Y-91860000D01*
X105955753Y-91860000D01*
X105956064Y-90848085D01*
X108495000Y-90848085D01*
X108495000Y-91015915D01*
X108527742Y-91180519D01*
X108591968Y-91335573D01*
X108685209Y-91475118D01*
X108803882Y-91593791D01*
X108943427Y-91687032D01*
X109098481Y-91751258D01*
X109263085Y-91784000D01*
X109430915Y-91784000D01*
X109595519Y-91751258D01*
X109750573Y-91687032D01*
X109890118Y-91593791D01*
X110008791Y-91475118D01*
X110102032Y-91335573D01*
X110152011Y-91214914D01*
X120996198Y-91214914D01*
X120996198Y-91334286D01*
X121019486Y-91451364D01*
X121065168Y-91561649D01*
X121131487Y-91660902D01*
X121215896Y-91745311D01*
X121315149Y-91811630D01*
X121425434Y-91857312D01*
X121542512Y-91880600D01*
X121661884Y-91880600D01*
X121778962Y-91857312D01*
X121875825Y-91817189D01*
X121886961Y-91824630D01*
X121997246Y-91870312D01*
X122114324Y-91893600D01*
X122233696Y-91893600D01*
X122350774Y-91870312D01*
X122461059Y-91824630D01*
X122560312Y-91758311D01*
X122644721Y-91673902D01*
X122711040Y-91574649D01*
X122742934Y-91497650D01*
X148092424Y-91497650D01*
X148137634Y-91841380D01*
X148249034Y-92169685D01*
X148358286Y-92374079D01*
X148635469Y-92484926D01*
X149680395Y-91440000D01*
X150039605Y-91440000D01*
X151084531Y-92484926D01*
X151361714Y-92374079D01*
X151515089Y-92063160D01*
X151604860Y-91728295D01*
X151620004Y-91497650D01*
X153172424Y-91497650D01*
X153217634Y-91841380D01*
X153329034Y-92169685D01*
X153438286Y-92374079D01*
X153715469Y-92484926D01*
X154760395Y-91440000D01*
X153715469Y-90395074D01*
X153438286Y-90505921D01*
X153284911Y-90816840D01*
X153195140Y-91151705D01*
X153172424Y-91497650D01*
X151620004Y-91497650D01*
X151627576Y-91382350D01*
X151582366Y-91038620D01*
X151470966Y-90710315D01*
X151361714Y-90505921D01*
X151084531Y-90395074D01*
X150039605Y-91440000D01*
X149680395Y-91440000D01*
X148635469Y-90395074D01*
X148358286Y-90505921D01*
X148204911Y-90816840D01*
X148115140Y-91151705D01*
X148092424Y-91497650D01*
X122742934Y-91497650D01*
X122756722Y-91464364D01*
X122780010Y-91347286D01*
X122780010Y-91227914D01*
X122756722Y-91110836D01*
X122711040Y-91000551D01*
X122644721Y-90901298D01*
X122560312Y-90816889D01*
X122461059Y-90750570D01*
X122350774Y-90704888D01*
X122298650Y-90694520D01*
X128775490Y-90694520D01*
X128775490Y-90813892D01*
X128798778Y-90930970D01*
X128844460Y-91041255D01*
X128910779Y-91140508D01*
X128995188Y-91224917D01*
X129094441Y-91291236D01*
X129204726Y-91336918D01*
X129321804Y-91360206D01*
X129441176Y-91360206D01*
X129558254Y-91336918D01*
X129668539Y-91291236D01*
X129767792Y-91224917D01*
X129852201Y-91140508D01*
X129918520Y-91041255D01*
X129964202Y-90930970D01*
X129987490Y-90813892D01*
X129987490Y-90694520D01*
X129964202Y-90577442D01*
X129918520Y-90467157D01*
X129852201Y-90367904D01*
X129767792Y-90283495D01*
X129668539Y-90217176D01*
X129664418Y-90215469D01*
X148815074Y-90215469D01*
X149860000Y-91260395D01*
X150904926Y-90215469D01*
X150794079Y-89938286D01*
X150483160Y-89784911D01*
X150148295Y-89695140D01*
X149802350Y-89672424D01*
X149458620Y-89717634D01*
X149130315Y-89829034D01*
X148925921Y-89938286D01*
X148815074Y-90215469D01*
X129664418Y-90215469D01*
X129558254Y-90171494D01*
X129441176Y-90148206D01*
X129321804Y-90148206D01*
X129204726Y-90171494D01*
X129094441Y-90217176D01*
X128995188Y-90283495D01*
X128910779Y-90367904D01*
X128844460Y-90467157D01*
X128798778Y-90577442D01*
X128775490Y-90694520D01*
X122298650Y-90694520D01*
X122233696Y-90681600D01*
X122114324Y-90681600D01*
X121997246Y-90704888D01*
X121900383Y-90745011D01*
X121889247Y-90737570D01*
X121778962Y-90691888D01*
X121661884Y-90668600D01*
X121542512Y-90668600D01*
X121425434Y-90691888D01*
X121315149Y-90737570D01*
X121215896Y-90803889D01*
X121131487Y-90888298D01*
X121065168Y-90987551D01*
X121019486Y-91097836D01*
X120996198Y-91214914D01*
X110152011Y-91214914D01*
X110166258Y-91180519D01*
X110199000Y-91015915D01*
X110199000Y-90848085D01*
X110166258Y-90683481D01*
X110102032Y-90528427D01*
X110008791Y-90388882D01*
X109890118Y-90270209D01*
X109750573Y-90176968D01*
X109595519Y-90112742D01*
X109430915Y-90080000D01*
X109263085Y-90080000D01*
X109098481Y-90112742D01*
X108943427Y-90176968D01*
X108803882Y-90270209D01*
X108685209Y-90388882D01*
X108591968Y-90528427D01*
X108527742Y-90683481D01*
X108495000Y-90848085D01*
X105956064Y-90848085D01*
X105956706Y-88751672D01*
X150894000Y-88751672D01*
X150894000Y-89048328D01*
X150951875Y-89339284D01*
X151065400Y-89613359D01*
X151230213Y-89860019D01*
X151439981Y-90069787D01*
X151686641Y-90234600D01*
X151960716Y-90348125D01*
X152251672Y-90406000D01*
X152548328Y-90406000D01*
X152839284Y-90348125D01*
X153113359Y-90234600D01*
X153141990Y-90215469D01*
X153895074Y-90215469D01*
X154940000Y-91260395D01*
X155984926Y-90215469D01*
X155874079Y-89938286D01*
X155563160Y-89784911D01*
X155228295Y-89695140D01*
X154882350Y-89672424D01*
X154538620Y-89717634D01*
X154210315Y-89829034D01*
X154005921Y-89938286D01*
X153895074Y-90215469D01*
X153141990Y-90215469D01*
X153360019Y-90069787D01*
X153569787Y-89860019D01*
X153734600Y-89613359D01*
X153848125Y-89339284D01*
X153906000Y-89048328D01*
X153906000Y-88751672D01*
X153848125Y-88460716D01*
X153734600Y-88186641D01*
X153569787Y-87939981D01*
X153360019Y-87730213D01*
X153141991Y-87584531D01*
X153895074Y-87584531D01*
X154005921Y-87861714D01*
X154316840Y-88015089D01*
X154651705Y-88104860D01*
X154997650Y-88127576D01*
X155341380Y-88082366D01*
X155669685Y-87970966D01*
X155874079Y-87861714D01*
X155984926Y-87584531D01*
X154940000Y-86539605D01*
X153895074Y-87584531D01*
X153141991Y-87584531D01*
X153113359Y-87565400D01*
X152839284Y-87451875D01*
X152548328Y-87394000D01*
X152251672Y-87394000D01*
X151960716Y-87451875D01*
X151686641Y-87565400D01*
X151439981Y-87730213D01*
X151230213Y-87939981D01*
X151065400Y-88186641D01*
X150951875Y-88460716D01*
X150894000Y-88751672D01*
X105956706Y-88751672D01*
X105957064Y-87584531D01*
X148815074Y-87584531D01*
X148925921Y-87861714D01*
X149236840Y-88015089D01*
X149571705Y-88104860D01*
X149917650Y-88127576D01*
X150261380Y-88082366D01*
X150589685Y-87970966D01*
X150794079Y-87861714D01*
X150904926Y-87584531D01*
X149860000Y-86539605D01*
X148815074Y-87584531D01*
X105957064Y-87584531D01*
X105957422Y-86417650D01*
X148092424Y-86417650D01*
X148137634Y-86761380D01*
X148249034Y-87089685D01*
X148358286Y-87294079D01*
X148635469Y-87404926D01*
X149680395Y-86360000D01*
X150039605Y-86360000D01*
X151084531Y-87404926D01*
X151361714Y-87294079D01*
X151515089Y-86983160D01*
X151604860Y-86648295D01*
X151620004Y-86417650D01*
X153172424Y-86417650D01*
X153217634Y-86761380D01*
X153329034Y-87089685D01*
X153438286Y-87294079D01*
X153715469Y-87404926D01*
X154760395Y-86360000D01*
X153715469Y-85315074D01*
X153438286Y-85425921D01*
X153284911Y-85736840D01*
X153195140Y-86071705D01*
X153172424Y-86417650D01*
X151620004Y-86417650D01*
X151627576Y-86302350D01*
X151582366Y-85958620D01*
X151470966Y-85630315D01*
X151361714Y-85425921D01*
X151084531Y-85315074D01*
X150039605Y-86360000D01*
X149680395Y-86360000D01*
X148635469Y-85315074D01*
X148358286Y-85425921D01*
X148204911Y-85736840D01*
X148115140Y-86071705D01*
X148092424Y-86417650D01*
X105957422Y-86417650D01*
X105957972Y-84625085D01*
X113422600Y-84625085D01*
X113422600Y-84792915D01*
X113455342Y-84957519D01*
X113519568Y-85112573D01*
X113612809Y-85252118D01*
X113731482Y-85370791D01*
X113871027Y-85464032D01*
X114026081Y-85528258D01*
X114190685Y-85561000D01*
X114358515Y-85561000D01*
X114523119Y-85528258D01*
X114678173Y-85464032D01*
X114817718Y-85370791D01*
X114936391Y-85252118D01*
X115029632Y-85112573D01*
X115093858Y-84957519D01*
X115126600Y-84792915D01*
X115126600Y-84625085D01*
X115106158Y-84522314D01*
X127695510Y-84522314D01*
X127695510Y-84641686D01*
X127718798Y-84758764D01*
X127764480Y-84869049D01*
X127830799Y-84968302D01*
X127915208Y-85052711D01*
X128014461Y-85119030D01*
X128124746Y-85164712D01*
X128241824Y-85188000D01*
X128361196Y-85188000D01*
X128478274Y-85164712D01*
X128548872Y-85135469D01*
X148815074Y-85135469D01*
X149860000Y-86180395D01*
X150904926Y-85135469D01*
X153895074Y-85135469D01*
X154940000Y-86180395D01*
X155984926Y-85135469D01*
X155874079Y-84858286D01*
X155563160Y-84704911D01*
X155228295Y-84615140D01*
X154882350Y-84592424D01*
X154538620Y-84637634D01*
X154210315Y-84749034D01*
X154005921Y-84858286D01*
X153895074Y-85135469D01*
X150904926Y-85135469D01*
X150794079Y-84858286D01*
X150483160Y-84704911D01*
X150148295Y-84615140D01*
X149802350Y-84592424D01*
X149458620Y-84637634D01*
X149130315Y-84749034D01*
X148925921Y-84858286D01*
X148815074Y-85135469D01*
X128548872Y-85135469D01*
X128588559Y-85119030D01*
X128687812Y-85052711D01*
X128772221Y-84968302D01*
X128838540Y-84869049D01*
X128884222Y-84758764D01*
X128907510Y-84641686D01*
X128907510Y-84522314D01*
X128884222Y-84405236D01*
X128838540Y-84294951D01*
X128772221Y-84195698D01*
X128687812Y-84111289D01*
X128588559Y-84044970D01*
X128478274Y-83999288D01*
X128361196Y-83976000D01*
X128241824Y-83976000D01*
X128124746Y-83999288D01*
X128014461Y-84044970D01*
X127915208Y-84111289D01*
X127830799Y-84195698D01*
X127764480Y-84294951D01*
X127718798Y-84405236D01*
X127695510Y-84522314D01*
X115106158Y-84522314D01*
X115093858Y-84460481D01*
X115029632Y-84305427D01*
X114936391Y-84165882D01*
X114817718Y-84047209D01*
X114678173Y-83953968D01*
X114523119Y-83889742D01*
X114510913Y-83887314D01*
X144809000Y-83887314D01*
X144809000Y-84006686D01*
X144832288Y-84123764D01*
X144877970Y-84234049D01*
X144944289Y-84333302D01*
X145028698Y-84417711D01*
X145127951Y-84484030D01*
X145238236Y-84529712D01*
X145355314Y-84553000D01*
X145474686Y-84553000D01*
X145591764Y-84529712D01*
X145702049Y-84484030D01*
X145801302Y-84417711D01*
X145885711Y-84333302D01*
X145952030Y-84234049D01*
X145997712Y-84123764D01*
X146021000Y-84006686D01*
X146021000Y-83887314D01*
X145997712Y-83770236D01*
X145952030Y-83659951D01*
X145885711Y-83560698D01*
X145801302Y-83476289D01*
X145702049Y-83409970D01*
X145591764Y-83364288D01*
X145474686Y-83341000D01*
X145355314Y-83341000D01*
X145238236Y-83364288D01*
X145127951Y-83409970D01*
X145028698Y-83476289D01*
X144944289Y-83560698D01*
X144877970Y-83659951D01*
X144832288Y-83770236D01*
X144809000Y-83887314D01*
X114510913Y-83887314D01*
X114358515Y-83857000D01*
X114190685Y-83857000D01*
X114026081Y-83889742D01*
X113871027Y-83953968D01*
X113731482Y-84047209D01*
X113612809Y-84165882D01*
X113519568Y-84305427D01*
X113455342Y-84460481D01*
X113422600Y-84625085D01*
X105957972Y-84625085D01*
X105958965Y-81389813D01*
X106641000Y-81389813D01*
X106641000Y-81770187D01*
X106715208Y-82143252D01*
X106860770Y-82494671D01*
X107072095Y-82810941D01*
X107341059Y-83079905D01*
X107657329Y-83291230D01*
X108008748Y-83436792D01*
X108381813Y-83511000D01*
X108762187Y-83511000D01*
X109135252Y-83436792D01*
X109486671Y-83291230D01*
X109802941Y-83079905D01*
X110071905Y-82810941D01*
X110283230Y-82494671D01*
X110411286Y-82185514D01*
X118240600Y-82185514D01*
X118240600Y-82304886D01*
X118263888Y-82421964D01*
X118309570Y-82532249D01*
X118375889Y-82631502D01*
X118460298Y-82715911D01*
X118559551Y-82782230D01*
X118669836Y-82827912D01*
X118786914Y-82851200D01*
X118906286Y-82851200D01*
X119023364Y-82827912D01*
X119133649Y-82782230D01*
X119232902Y-82715911D01*
X119317311Y-82631502D01*
X119383630Y-82532249D01*
X119429312Y-82421964D01*
X119452600Y-82304886D01*
X119452600Y-82210920D01*
X123015800Y-82210920D01*
X123015800Y-82330292D01*
X123039088Y-82447370D01*
X123084770Y-82557655D01*
X123151089Y-82656908D01*
X123235498Y-82741317D01*
X123334751Y-82807636D01*
X123445036Y-82853318D01*
X123562114Y-82876606D01*
X123681486Y-82876606D01*
X123798564Y-82853318D01*
X123908849Y-82807636D01*
X124008102Y-82741317D01*
X124092511Y-82656908D01*
X124158830Y-82557655D01*
X124197244Y-82464914D01*
X127726510Y-82464914D01*
X127726510Y-82584286D01*
X127749798Y-82701364D01*
X127795480Y-82811649D01*
X127861799Y-82910902D01*
X127946208Y-82995311D01*
X128045461Y-83061630D01*
X128155746Y-83107312D01*
X128272824Y-83130600D01*
X128392196Y-83130600D01*
X128509274Y-83107312D01*
X128619559Y-83061630D01*
X128718812Y-82995311D01*
X128803221Y-82910902D01*
X128869540Y-82811649D01*
X128915222Y-82701364D01*
X128938510Y-82584286D01*
X128938510Y-82464914D01*
X128915222Y-82347836D01*
X128879549Y-82261714D01*
X131550200Y-82261714D01*
X131550200Y-82381086D01*
X131573488Y-82498164D01*
X131619170Y-82608449D01*
X131685489Y-82707702D01*
X131769898Y-82792111D01*
X131869151Y-82858430D01*
X131979436Y-82904112D01*
X132096514Y-82927400D01*
X132215886Y-82927400D01*
X132332964Y-82904112D01*
X132443249Y-82858430D01*
X132542502Y-82792111D01*
X132626911Y-82707702D01*
X132693230Y-82608449D01*
X132738912Y-82498164D01*
X132762200Y-82381086D01*
X132762200Y-82261714D01*
X132738912Y-82144636D01*
X132693230Y-82034351D01*
X132626911Y-81935098D01*
X132542502Y-81850689D01*
X132443249Y-81784370D01*
X132332964Y-81738688D01*
X132215886Y-81715400D01*
X132096514Y-81715400D01*
X131979436Y-81738688D01*
X131869151Y-81784370D01*
X131769898Y-81850689D01*
X131685489Y-81935098D01*
X131619170Y-82034351D01*
X131573488Y-82144636D01*
X131550200Y-82261714D01*
X128879549Y-82261714D01*
X128869540Y-82237551D01*
X128803221Y-82138298D01*
X128718812Y-82053889D01*
X128619559Y-81987570D01*
X128509274Y-81941888D01*
X128392196Y-81918600D01*
X128272824Y-81918600D01*
X128155746Y-81941888D01*
X128045461Y-81987570D01*
X127946208Y-82053889D01*
X127861799Y-82138298D01*
X127795480Y-82237551D01*
X127749798Y-82347836D01*
X127726510Y-82464914D01*
X124197244Y-82464914D01*
X124204512Y-82447370D01*
X124227800Y-82330292D01*
X124227800Y-82210920D01*
X124204512Y-82093842D01*
X124158830Y-81983557D01*
X124092511Y-81884304D01*
X124008102Y-81799895D01*
X123908849Y-81733576D01*
X123798564Y-81687894D01*
X123681486Y-81664606D01*
X123562114Y-81664606D01*
X123445036Y-81687894D01*
X123334751Y-81733576D01*
X123235498Y-81799895D01*
X123151089Y-81884304D01*
X123084770Y-81983557D01*
X123039088Y-82093842D01*
X123015800Y-82210920D01*
X119452600Y-82210920D01*
X119452600Y-82185514D01*
X119429312Y-82068436D01*
X119383630Y-81958151D01*
X119317311Y-81858898D01*
X119232902Y-81774489D01*
X119133649Y-81708170D01*
X119023364Y-81662488D01*
X118906286Y-81639200D01*
X118786914Y-81639200D01*
X118669836Y-81662488D01*
X118559551Y-81708170D01*
X118460298Y-81774489D01*
X118375889Y-81858898D01*
X118309570Y-81958151D01*
X118263888Y-82068436D01*
X118240600Y-82185514D01*
X110411286Y-82185514D01*
X110428792Y-82143252D01*
X110503000Y-81770187D01*
X110503000Y-81389813D01*
X151641000Y-81389813D01*
X151641000Y-81770187D01*
X151715208Y-82143252D01*
X151860770Y-82494671D01*
X152072095Y-82810941D01*
X152341059Y-83079905D01*
X152657329Y-83291230D01*
X153008748Y-83436792D01*
X153381813Y-83511000D01*
X153762187Y-83511000D01*
X154135252Y-83436792D01*
X154486671Y-83291230D01*
X154802941Y-83079905D01*
X155071905Y-82810941D01*
X155283230Y-82494671D01*
X155428792Y-82143252D01*
X155503000Y-81770187D01*
X155503000Y-81389813D01*
X155428792Y-81016748D01*
X155283230Y-80665329D01*
X155071905Y-80349059D01*
X154802941Y-80080095D01*
X154486671Y-79868770D01*
X154135252Y-79723208D01*
X153762187Y-79649000D01*
X153381813Y-79649000D01*
X153008748Y-79723208D01*
X152657329Y-79868770D01*
X152341059Y-80080095D01*
X152072095Y-80349059D01*
X151860770Y-80665329D01*
X151715208Y-81016748D01*
X151641000Y-81389813D01*
X110503000Y-81389813D01*
X110428792Y-81016748D01*
X110283230Y-80665329D01*
X110071905Y-80349059D01*
X109802941Y-80080095D01*
X109608711Y-79950314D01*
X124489000Y-79950314D01*
X124489000Y-80069686D01*
X124512288Y-80186764D01*
X124557970Y-80297049D01*
X124624289Y-80396302D01*
X124708698Y-80480711D01*
X124807951Y-80547030D01*
X124918236Y-80592712D01*
X125035314Y-80616000D01*
X125154686Y-80616000D01*
X125271764Y-80592712D01*
X125382049Y-80547030D01*
X125481302Y-80480711D01*
X125565711Y-80396302D01*
X125632030Y-80297049D01*
X125677712Y-80186764D01*
X125701000Y-80069686D01*
X125701000Y-79950314D01*
X125677712Y-79833236D01*
X125632030Y-79722951D01*
X125565711Y-79623698D01*
X125481302Y-79539289D01*
X125382049Y-79472970D01*
X125271764Y-79427288D01*
X125154686Y-79404000D01*
X125035314Y-79404000D01*
X124918236Y-79427288D01*
X124807951Y-79472970D01*
X124708698Y-79539289D01*
X124624289Y-79623698D01*
X124557970Y-79722951D01*
X124512288Y-79833236D01*
X124489000Y-79950314D01*
X109608711Y-79950314D01*
X109486671Y-79868770D01*
X109135252Y-79723208D01*
X108762187Y-79649000D01*
X108381813Y-79649000D01*
X108008748Y-79723208D01*
X107657329Y-79868770D01*
X107341059Y-80080095D01*
X107072095Y-80349059D01*
X106860770Y-80665329D01*
X106715208Y-81016748D01*
X106641000Y-81389813D01*
X105958965Y-81389813D01*
X105959609Y-79289914D01*
X125581200Y-79289914D01*
X125581200Y-79409286D01*
X125604488Y-79526364D01*
X125650170Y-79636649D01*
X125716489Y-79735902D01*
X125800898Y-79820311D01*
X125900151Y-79886630D01*
X126010436Y-79932312D01*
X126127514Y-79955600D01*
X126246886Y-79955600D01*
X126363964Y-79932312D01*
X126474249Y-79886630D01*
X126573502Y-79820311D01*
X126646699Y-79747114D01*
X128222800Y-79747114D01*
X128222800Y-79866486D01*
X128246088Y-79983564D01*
X128291770Y-80093849D01*
X128358089Y-80193102D01*
X128442498Y-80277511D01*
X128541751Y-80343830D01*
X128652036Y-80389512D01*
X128769114Y-80412800D01*
X128888486Y-80412800D01*
X129005564Y-80389512D01*
X129115849Y-80343830D01*
X129215102Y-80277511D01*
X129299511Y-80193102D01*
X129365830Y-80093849D01*
X129400421Y-80010339D01*
X130832370Y-80010339D01*
X130832370Y-80129711D01*
X130855658Y-80246789D01*
X130901340Y-80357074D01*
X130967659Y-80456327D01*
X131052068Y-80540736D01*
X131151321Y-80607055D01*
X131261606Y-80652737D01*
X131378684Y-80676025D01*
X131498056Y-80676025D01*
X131615134Y-80652737D01*
X131725419Y-80607055D01*
X131824672Y-80540736D01*
X131909081Y-80456327D01*
X131975400Y-80357074D01*
X131990590Y-80320403D01*
X131998498Y-80328311D01*
X132097751Y-80394630D01*
X132208036Y-80440312D01*
X132325114Y-80463600D01*
X132444486Y-80463600D01*
X132561564Y-80440312D01*
X132671849Y-80394630D01*
X132771102Y-80328311D01*
X132855511Y-80243902D01*
X132921830Y-80144649D01*
X132967512Y-80034364D01*
X132990800Y-79917286D01*
X132990800Y-79797914D01*
X132967512Y-79680836D01*
X132921830Y-79570551D01*
X132855511Y-79471298D01*
X132771102Y-79386889D01*
X132671849Y-79320570D01*
X132561564Y-79274888D01*
X132444486Y-79251600D01*
X132325114Y-79251600D01*
X132208036Y-79274888D01*
X132097751Y-79320570D01*
X131998498Y-79386889D01*
X131914089Y-79471298D01*
X131847770Y-79570551D01*
X131832580Y-79607222D01*
X131824672Y-79599314D01*
X131725419Y-79532995D01*
X131615134Y-79487313D01*
X131498056Y-79464025D01*
X131378684Y-79464025D01*
X131261606Y-79487313D01*
X131151321Y-79532995D01*
X131052068Y-79599314D01*
X130967659Y-79683723D01*
X130901340Y-79782976D01*
X130855658Y-79893261D01*
X130832370Y-80010339D01*
X129400421Y-80010339D01*
X129411512Y-79983564D01*
X129434800Y-79866486D01*
X129434800Y-79747114D01*
X129425329Y-79699502D01*
X129436826Y-79691820D01*
X129521235Y-79607411D01*
X129587554Y-79508158D01*
X129633236Y-79397873D01*
X129656524Y-79280795D01*
X129656524Y-79161423D01*
X129633236Y-79044345D01*
X129587554Y-78934060D01*
X129521235Y-78834807D01*
X129436826Y-78750398D01*
X129402300Y-78727328D01*
X129905716Y-78727328D01*
X129905716Y-78846700D01*
X129929004Y-78963778D01*
X129974686Y-79074063D01*
X130041005Y-79173316D01*
X130125414Y-79257725D01*
X130224667Y-79324044D01*
X130334952Y-79369726D01*
X130452030Y-79393014D01*
X130571402Y-79393014D01*
X130688480Y-79369726D01*
X130798765Y-79324044D01*
X130898018Y-79257725D01*
X130982427Y-79173316D01*
X131048746Y-79074063D01*
X131094428Y-78963778D01*
X131117716Y-78846700D01*
X131117716Y-78727328D01*
X131094428Y-78610250D01*
X131048746Y-78499965D01*
X130982427Y-78400712D01*
X130898018Y-78316303D01*
X130836332Y-78275085D01*
X132866300Y-78275085D01*
X132866300Y-78442915D01*
X132899042Y-78607519D01*
X132963268Y-78762573D01*
X133056509Y-78902118D01*
X133175182Y-79020791D01*
X133314727Y-79114032D01*
X133469781Y-79178258D01*
X133634385Y-79211000D01*
X133802215Y-79211000D01*
X133966819Y-79178258D01*
X134121873Y-79114032D01*
X134261418Y-79020791D01*
X134380091Y-78902118D01*
X134473332Y-78762573D01*
X134537558Y-78607519D01*
X134570300Y-78442915D01*
X134570300Y-78275085D01*
X134552686Y-78186531D01*
X148815074Y-78186531D01*
X148925921Y-78463714D01*
X149236840Y-78617089D01*
X149571705Y-78706860D01*
X149917650Y-78729576D01*
X150261380Y-78684366D01*
X150589685Y-78572966D01*
X150794079Y-78463714D01*
X150904926Y-78186531D01*
X153895074Y-78186531D01*
X154005921Y-78463714D01*
X154316840Y-78617089D01*
X154651705Y-78706860D01*
X154997650Y-78729576D01*
X155341380Y-78684366D01*
X155669685Y-78572966D01*
X155874079Y-78463714D01*
X155984926Y-78186531D01*
X154940000Y-77141605D01*
X153895074Y-78186531D01*
X150904926Y-78186531D01*
X149860000Y-77141605D01*
X148815074Y-78186531D01*
X134552686Y-78186531D01*
X134537558Y-78110481D01*
X134473332Y-77955427D01*
X134469740Y-77950052D01*
X134474936Y-77854541D01*
X134020000Y-77399605D01*
X134005858Y-77413748D01*
X133826253Y-77234143D01*
X133840395Y-77220000D01*
X134199605Y-77220000D01*
X134654541Y-77674936D01*
X134847763Y-77664425D01*
X134918562Y-77494397D01*
X134954828Y-77313824D01*
X134955171Y-77129645D01*
X134919574Y-76948939D01*
X134879432Y-76851514D01*
X146663200Y-76851514D01*
X146663200Y-76970886D01*
X146686488Y-77087964D01*
X146732170Y-77198249D01*
X146798489Y-77297502D01*
X146882898Y-77381911D01*
X146982151Y-77448230D01*
X147092436Y-77493912D01*
X147209514Y-77517200D01*
X147328886Y-77517200D01*
X147445964Y-77493912D01*
X147556249Y-77448230D01*
X147655502Y-77381911D01*
X147739911Y-77297502D01*
X147806230Y-77198249D01*
X147851912Y-77087964D01*
X147865500Y-77019650D01*
X148092424Y-77019650D01*
X148137634Y-77363380D01*
X148249034Y-77691685D01*
X148358286Y-77896079D01*
X148635469Y-78006926D01*
X149680395Y-76962000D01*
X150039605Y-76962000D01*
X151084531Y-78006926D01*
X151361714Y-77896079D01*
X151515089Y-77585160D01*
X151604860Y-77250295D01*
X151620004Y-77019650D01*
X153172424Y-77019650D01*
X153217634Y-77363380D01*
X153329034Y-77691685D01*
X153438286Y-77896079D01*
X153715469Y-78006926D01*
X154760395Y-76962000D01*
X153715469Y-75917074D01*
X153438286Y-76027921D01*
X153284911Y-76338840D01*
X153195140Y-76673705D01*
X153172424Y-77019650D01*
X151620004Y-77019650D01*
X151627576Y-76904350D01*
X151582366Y-76560620D01*
X151470966Y-76232315D01*
X151361714Y-76027921D01*
X151084531Y-75917074D01*
X150039605Y-76962000D01*
X149680395Y-76962000D01*
X148635469Y-75917074D01*
X148358286Y-76027921D01*
X148204911Y-76338840D01*
X148115140Y-76673705D01*
X148092424Y-77019650D01*
X147865500Y-77019650D01*
X147875200Y-76970886D01*
X147875200Y-76851514D01*
X147851912Y-76734436D01*
X147806230Y-76624151D01*
X147739911Y-76524898D01*
X147655502Y-76440489D01*
X147556249Y-76374170D01*
X147445964Y-76328488D01*
X147328886Y-76305200D01*
X147209514Y-76305200D01*
X147092436Y-76328488D01*
X146982151Y-76374170D01*
X146882898Y-76440489D01*
X146798489Y-76524898D01*
X146732170Y-76624151D01*
X146686488Y-76734436D01*
X146663200Y-76851514D01*
X134879432Y-76851514D01*
X134849408Y-76778649D01*
X134847763Y-76775575D01*
X134654541Y-76765064D01*
X134199605Y-77220000D01*
X133840395Y-77220000D01*
X133385459Y-76765064D01*
X133192237Y-76775575D01*
X133121438Y-76945603D01*
X133085172Y-77126176D01*
X133084829Y-77310355D01*
X133120426Y-77491061D01*
X133190592Y-77661351D01*
X133192237Y-77664425D01*
X133221837Y-77666035D01*
X133175182Y-77697209D01*
X133056509Y-77815882D01*
X132963268Y-77955427D01*
X132899042Y-78110481D01*
X132866300Y-78275085D01*
X130836332Y-78275085D01*
X130798765Y-78249984D01*
X130688480Y-78204302D01*
X130571402Y-78181014D01*
X130452030Y-78181014D01*
X130334952Y-78204302D01*
X130224667Y-78249984D01*
X130125414Y-78316303D01*
X130041005Y-78400712D01*
X129974686Y-78499965D01*
X129929004Y-78610250D01*
X129905716Y-78727328D01*
X129402300Y-78727328D01*
X129337573Y-78684079D01*
X129227288Y-78638397D01*
X129110210Y-78615109D01*
X128990838Y-78615109D01*
X128873760Y-78638397D01*
X128763475Y-78684079D01*
X128664222Y-78750398D01*
X128579813Y-78834807D01*
X128513494Y-78934060D01*
X128467812Y-79044345D01*
X128444524Y-79161423D01*
X128444524Y-79280795D01*
X128453995Y-79328407D01*
X128442498Y-79336089D01*
X128358089Y-79420498D01*
X128291770Y-79519751D01*
X128246088Y-79630036D01*
X128222800Y-79747114D01*
X126646699Y-79747114D01*
X126657911Y-79735902D01*
X126724230Y-79636649D01*
X126769912Y-79526364D01*
X126793200Y-79409286D01*
X126793200Y-79289914D01*
X126769912Y-79172836D01*
X126724230Y-79062551D01*
X126657911Y-78963298D01*
X126573502Y-78878889D01*
X126474249Y-78812570D01*
X126363964Y-78766888D01*
X126246886Y-78743600D01*
X126127514Y-78743600D01*
X126010436Y-78766888D01*
X125900151Y-78812570D01*
X125800898Y-78878889D01*
X125716489Y-78963298D01*
X125650170Y-79062551D01*
X125604488Y-79172836D01*
X125581200Y-79289914D01*
X105959609Y-79289914D01*
X105960143Y-77551531D01*
X106270074Y-77551531D01*
X106380921Y-77828714D01*
X106691840Y-77982089D01*
X107026705Y-78071860D01*
X107372650Y-78094576D01*
X107716380Y-78049366D01*
X108044685Y-77937966D01*
X108249079Y-77828714D01*
X108359926Y-77551531D01*
X111350074Y-77551531D01*
X111460921Y-77828714D01*
X111771840Y-77982089D01*
X112106705Y-78071860D01*
X112452650Y-78094576D01*
X112796380Y-78049366D01*
X113124685Y-77937966D01*
X113280760Y-77854541D01*
X122065064Y-77854541D01*
X122075575Y-78047763D01*
X122245603Y-78118562D01*
X122426176Y-78154828D01*
X122610355Y-78155171D01*
X122724710Y-78132644D01*
X122751742Y-78268541D01*
X122815968Y-78423595D01*
X122909209Y-78563140D01*
X123027882Y-78681813D01*
X123167427Y-78775054D01*
X123322481Y-78839280D01*
X123487085Y-78872022D01*
X123654915Y-78872022D01*
X123819519Y-78839280D01*
X123974573Y-78775054D01*
X124114118Y-78681813D01*
X124232791Y-78563140D01*
X124326032Y-78423595D01*
X124390258Y-78268541D01*
X124423000Y-78103937D01*
X124423000Y-77936107D01*
X124390258Y-77771503D01*
X124326032Y-77616449D01*
X124305229Y-77585314D01*
X126317800Y-77585314D01*
X126317800Y-77704686D01*
X126341088Y-77821764D01*
X126386770Y-77932049D01*
X126453089Y-78031302D01*
X126537498Y-78115711D01*
X126636751Y-78182030D01*
X126747036Y-78227712D01*
X126864114Y-78251000D01*
X126983486Y-78251000D01*
X127100564Y-78227712D01*
X127210849Y-78182030D01*
X127310102Y-78115711D01*
X127394511Y-78031302D01*
X127460830Y-77932049D01*
X127506512Y-77821764D01*
X127529800Y-77704686D01*
X127529800Y-77588114D01*
X128070400Y-77588114D01*
X128070400Y-77707486D01*
X128093688Y-77824564D01*
X128139370Y-77934849D01*
X128205689Y-78034102D01*
X128290098Y-78118511D01*
X128389351Y-78184830D01*
X128499636Y-78230512D01*
X128616714Y-78253800D01*
X128736086Y-78253800D01*
X128853164Y-78230512D01*
X128963449Y-78184830D01*
X128989869Y-78167177D01*
X129036725Y-78237302D01*
X129121134Y-78321711D01*
X129220387Y-78388030D01*
X129330672Y-78433712D01*
X129447750Y-78457000D01*
X129567122Y-78457000D01*
X129684200Y-78433712D01*
X129794485Y-78388030D01*
X129893738Y-78321711D01*
X129978147Y-78237302D01*
X130044466Y-78138049D01*
X130090148Y-78027764D01*
X130113436Y-77910686D01*
X130113436Y-77791314D01*
X130090148Y-77674236D01*
X130044466Y-77563951D01*
X129978147Y-77464698D01*
X129893738Y-77380289D01*
X129794485Y-77313970D01*
X129684200Y-77268288D01*
X129567122Y-77245000D01*
X129447750Y-77245000D01*
X129330672Y-77268288D01*
X129220387Y-77313970D01*
X129193967Y-77331623D01*
X129147111Y-77261498D01*
X129062702Y-77177089D01*
X128963449Y-77110770D01*
X128853164Y-77065088D01*
X128736086Y-77041800D01*
X128616714Y-77041800D01*
X128499636Y-77065088D01*
X128389351Y-77110770D01*
X128290098Y-77177089D01*
X128205689Y-77261498D01*
X128139370Y-77360751D01*
X128093688Y-77471036D01*
X128070400Y-77588114D01*
X127529800Y-77588114D01*
X127529800Y-77585314D01*
X127506512Y-77468236D01*
X127460830Y-77357951D01*
X127394511Y-77258698D01*
X127310102Y-77174289D01*
X127210849Y-77107970D01*
X127100564Y-77062288D01*
X126983486Y-77039000D01*
X126864114Y-77039000D01*
X126747036Y-77062288D01*
X126636751Y-77107970D01*
X126537498Y-77174289D01*
X126453089Y-77258698D01*
X126386770Y-77357951D01*
X126341088Y-77468236D01*
X126317800Y-77585314D01*
X124305229Y-77585314D01*
X124232791Y-77476904D01*
X124114118Y-77358231D01*
X123974573Y-77264990D01*
X123819519Y-77200764D01*
X123654915Y-77168022D01*
X123487085Y-77168022D01*
X123455088Y-77174387D01*
X123455171Y-77129645D01*
X123419574Y-76948939D01*
X123349408Y-76778649D01*
X123347763Y-76775575D01*
X123154541Y-76765064D01*
X122699605Y-77220000D01*
X122713748Y-77234143D01*
X122534143Y-77413748D01*
X122520000Y-77399605D01*
X122065064Y-77854541D01*
X113280760Y-77854541D01*
X113329079Y-77828714D01*
X113439926Y-77551531D01*
X112395000Y-76506605D01*
X111350074Y-77551531D01*
X108359926Y-77551531D01*
X107315000Y-76506605D01*
X106270074Y-77551531D01*
X105960143Y-77551531D01*
X105960215Y-77319837D01*
X106090469Y-77371926D01*
X107135395Y-76327000D01*
X107494605Y-76327000D01*
X108539531Y-77371926D01*
X108816714Y-77261079D01*
X108970089Y-76950160D01*
X109059860Y-76615295D01*
X109075004Y-76384650D01*
X110627424Y-76384650D01*
X110672634Y-76728380D01*
X110784034Y-77056685D01*
X110893286Y-77261079D01*
X111170469Y-77371926D01*
X112215395Y-76327000D01*
X112574605Y-76327000D01*
X113619531Y-77371926D01*
X113773494Y-77310355D01*
X121584829Y-77310355D01*
X121620426Y-77491061D01*
X121690592Y-77661351D01*
X121692237Y-77664425D01*
X121885459Y-77674936D01*
X122340395Y-77220000D01*
X121885459Y-76765064D01*
X121692237Y-76775575D01*
X121621438Y-76945603D01*
X121585172Y-77126176D01*
X121584829Y-77310355D01*
X113773494Y-77310355D01*
X113896714Y-77261079D01*
X114050089Y-76950160D01*
X114139860Y-76615295D01*
X114141819Y-76585459D01*
X122065064Y-76585459D01*
X122520000Y-77040395D01*
X122974936Y-76585459D01*
X133565064Y-76585459D01*
X134020000Y-77040395D01*
X134474936Y-76585459D01*
X134464425Y-76392237D01*
X134294397Y-76321438D01*
X134113824Y-76285172D01*
X133929645Y-76284829D01*
X133748939Y-76320426D01*
X133578649Y-76390592D01*
X133575575Y-76392237D01*
X133565064Y-76585459D01*
X122974936Y-76585459D01*
X122964425Y-76392237D01*
X122794397Y-76321438D01*
X122613824Y-76285172D01*
X122429645Y-76284829D01*
X122248939Y-76320426D01*
X122078649Y-76390592D01*
X122075575Y-76392237D01*
X122065064Y-76585459D01*
X114141819Y-76585459D01*
X114162576Y-76269350D01*
X114117366Y-75925620D01*
X114053523Y-75737469D01*
X148815074Y-75737469D01*
X149860000Y-76782395D01*
X150904926Y-75737469D01*
X150794079Y-75460286D01*
X150483160Y-75306911D01*
X150148295Y-75217140D01*
X149802350Y-75194424D01*
X149458620Y-75239634D01*
X149130315Y-75351034D01*
X148925921Y-75460286D01*
X148815074Y-75737469D01*
X114053523Y-75737469D01*
X114005966Y-75597315D01*
X113896714Y-75392921D01*
X113619531Y-75282074D01*
X112574605Y-76327000D01*
X112215395Y-76327000D01*
X111170469Y-75282074D01*
X110893286Y-75392921D01*
X110739911Y-75703840D01*
X110650140Y-76038705D01*
X110627424Y-76384650D01*
X109075004Y-76384650D01*
X109082576Y-76269350D01*
X109037366Y-75925620D01*
X108925966Y-75597315D01*
X108816714Y-75392921D01*
X108539531Y-75282074D01*
X107494605Y-76327000D01*
X107135395Y-76327000D01*
X106090469Y-75282074D01*
X105960824Y-75333920D01*
X105960895Y-75102469D01*
X106270074Y-75102469D01*
X107315000Y-76147395D01*
X108359926Y-75102469D01*
X108249079Y-74825286D01*
X107938160Y-74671911D01*
X107603295Y-74582140D01*
X107257350Y-74559424D01*
X106913620Y-74604634D01*
X106585315Y-74716034D01*
X106380921Y-74825286D01*
X106270074Y-75102469D01*
X105960895Y-75102469D01*
X105961351Y-73614443D01*
X108103000Y-73614443D01*
X108103000Y-73959557D01*
X108170329Y-74298039D01*
X108302398Y-74616883D01*
X108494133Y-74903835D01*
X108738165Y-75147867D01*
X109025117Y-75339602D01*
X109343961Y-75471671D01*
X109682443Y-75539000D01*
X110027557Y-75539000D01*
X110366039Y-75471671D01*
X110684883Y-75339602D01*
X110971835Y-75147867D01*
X111017233Y-75102469D01*
X111350074Y-75102469D01*
X112395000Y-76147395D01*
X113439926Y-75102469D01*
X113329079Y-74825286D01*
X113018160Y-74671911D01*
X112810757Y-74616310D01*
X118012000Y-74616310D01*
X118012000Y-74735682D01*
X118035288Y-74852760D01*
X118080970Y-74963045D01*
X118147289Y-75062298D01*
X118231698Y-75146707D01*
X118330951Y-75213026D01*
X118441236Y-75258708D01*
X118558314Y-75281996D01*
X118677686Y-75281996D01*
X118794764Y-75258708D01*
X118905049Y-75213026D01*
X119004302Y-75146707D01*
X119088711Y-75062298D01*
X119155030Y-74963045D01*
X119200712Y-74852760D01*
X119224000Y-74735682D01*
X119224000Y-74616314D01*
X120806000Y-74616314D01*
X120806000Y-74735686D01*
X120829288Y-74852764D01*
X120874970Y-74963049D01*
X120941289Y-75062302D01*
X121025698Y-75146711D01*
X121124951Y-75213030D01*
X121235236Y-75258712D01*
X121352314Y-75282000D01*
X121471686Y-75282000D01*
X121588764Y-75258712D01*
X121699049Y-75213030D01*
X121798302Y-75146711D01*
X121882711Y-75062302D01*
X121949030Y-74963049D01*
X121994712Y-74852764D01*
X122018000Y-74735686D01*
X122018000Y-74616314D01*
X121994712Y-74499236D01*
X121949030Y-74388951D01*
X121882711Y-74289698D01*
X121798302Y-74205289D01*
X121699049Y-74138970D01*
X121588764Y-74093288D01*
X121471686Y-74070000D01*
X121352314Y-74070000D01*
X121235236Y-74093288D01*
X121124951Y-74138970D01*
X121025698Y-74205289D01*
X120941289Y-74289698D01*
X120874970Y-74388951D01*
X120829288Y-74499236D01*
X120806000Y-74616314D01*
X119224000Y-74616314D01*
X119224000Y-74616310D01*
X119200712Y-74499232D01*
X119155030Y-74388947D01*
X119088711Y-74289694D01*
X119004302Y-74205285D01*
X118905049Y-74138966D01*
X118794764Y-74093284D01*
X118677686Y-74069996D01*
X118558314Y-74069996D01*
X118441236Y-74093284D01*
X118330951Y-74138966D01*
X118231698Y-74205285D01*
X118147289Y-74289694D01*
X118080970Y-74388947D01*
X118035288Y-74499232D01*
X118012000Y-74616310D01*
X112810757Y-74616310D01*
X112683295Y-74582140D01*
X112337350Y-74559424D01*
X111993620Y-74604634D01*
X111665315Y-74716034D01*
X111460921Y-74825286D01*
X111350074Y-75102469D01*
X111017233Y-75102469D01*
X111215867Y-74903835D01*
X111407602Y-74616883D01*
X111539671Y-74298039D01*
X111607000Y-73959557D01*
X111607000Y-73931685D01*
X124243000Y-73931685D01*
X124243000Y-74099515D01*
X124275742Y-74264119D01*
X124339968Y-74419173D01*
X124433209Y-74558718D01*
X124551882Y-74677391D01*
X124691427Y-74770632D01*
X124846481Y-74834858D01*
X125011085Y-74867600D01*
X125178915Y-74867600D01*
X125343519Y-74834858D01*
X125498573Y-74770632D01*
X125638118Y-74677391D01*
X125756791Y-74558718D01*
X125850032Y-74419173D01*
X125914258Y-74264119D01*
X125947000Y-74099515D01*
X125947000Y-73931685D01*
X127418000Y-73931685D01*
X127418000Y-74099515D01*
X127450742Y-74264119D01*
X127514968Y-74419173D01*
X127608209Y-74558718D01*
X127726882Y-74677391D01*
X127866427Y-74770632D01*
X128021481Y-74834858D01*
X128186085Y-74867600D01*
X128353915Y-74867600D01*
X128518519Y-74834858D01*
X128673573Y-74770632D01*
X128813118Y-74677391D01*
X128931791Y-74558718D01*
X129025032Y-74419173D01*
X129089258Y-74264119D01*
X129122000Y-74099515D01*
X129122000Y-73931685D01*
X130593000Y-73931685D01*
X130593000Y-74099515D01*
X130625742Y-74264119D01*
X130689968Y-74419173D01*
X130783209Y-74558718D01*
X130901882Y-74677391D01*
X131041427Y-74770632D01*
X131196481Y-74834858D01*
X131361085Y-74867600D01*
X131528915Y-74867600D01*
X131693519Y-74834858D01*
X131848573Y-74770632D01*
X131988118Y-74677391D01*
X132075605Y-74589904D01*
X134649000Y-74589904D01*
X134649000Y-74709276D01*
X134672288Y-74826354D01*
X134717970Y-74936639D01*
X134784289Y-75035892D01*
X134868698Y-75120301D01*
X134967951Y-75186620D01*
X135078236Y-75232302D01*
X135195314Y-75255590D01*
X135314686Y-75255590D01*
X135431764Y-75232302D01*
X135542049Y-75186620D01*
X135641302Y-75120301D01*
X135673594Y-75088009D01*
X135683698Y-75098113D01*
X135782951Y-75164432D01*
X135893236Y-75210114D01*
X136010314Y-75233402D01*
X136129686Y-75233402D01*
X136246764Y-75210114D01*
X136357049Y-75164432D01*
X136456302Y-75098113D01*
X136524505Y-75029910D01*
X136570441Y-75060604D01*
X136680726Y-75106286D01*
X136797804Y-75129574D01*
X136917176Y-75129574D01*
X137034254Y-75106286D01*
X137144539Y-75060604D01*
X137243792Y-74994285D01*
X137328201Y-74909876D01*
X137394520Y-74810623D01*
X137440202Y-74700338D01*
X137463490Y-74583260D01*
X137463490Y-74463888D01*
X137440202Y-74346810D01*
X137409907Y-74273672D01*
X150894000Y-74273672D01*
X150894000Y-74570328D01*
X150951875Y-74861284D01*
X151065400Y-75135359D01*
X151230213Y-75382019D01*
X151439981Y-75591787D01*
X151686641Y-75756600D01*
X151960716Y-75870125D01*
X152251672Y-75928000D01*
X152548328Y-75928000D01*
X152839284Y-75870125D01*
X153113359Y-75756600D01*
X153141990Y-75737469D01*
X153895074Y-75737469D01*
X154940000Y-76782395D01*
X155984926Y-75737469D01*
X155874079Y-75460286D01*
X155563160Y-75306911D01*
X155228295Y-75217140D01*
X154882350Y-75194424D01*
X154538620Y-75239634D01*
X154210315Y-75351034D01*
X154005921Y-75460286D01*
X153895074Y-75737469D01*
X153141990Y-75737469D01*
X153360019Y-75591787D01*
X153569787Y-75382019D01*
X153734600Y-75135359D01*
X153848125Y-74861284D01*
X153906000Y-74570328D01*
X153906000Y-74273672D01*
X153848125Y-73982716D01*
X153734600Y-73708641D01*
X153569787Y-73461981D01*
X153360019Y-73252213D01*
X153141991Y-73106531D01*
X153895074Y-73106531D01*
X154005921Y-73383714D01*
X154316840Y-73537089D01*
X154651705Y-73626860D01*
X154997650Y-73649576D01*
X155341380Y-73604366D01*
X155669685Y-73492966D01*
X155874079Y-73383714D01*
X155984926Y-73106531D01*
X154940000Y-72061605D01*
X153895074Y-73106531D01*
X153141991Y-73106531D01*
X153113359Y-73087400D01*
X152839284Y-72973875D01*
X152548328Y-72916000D01*
X152251672Y-72916000D01*
X151960716Y-72973875D01*
X151686641Y-73087400D01*
X151439981Y-73252213D01*
X151230213Y-73461981D01*
X151065400Y-73708641D01*
X150951875Y-73982716D01*
X150894000Y-74273672D01*
X137409907Y-74273672D01*
X137394520Y-74236525D01*
X137328201Y-74137272D01*
X137243792Y-74052863D01*
X137144539Y-73986544D01*
X137034254Y-73940862D01*
X136917176Y-73917574D01*
X136797804Y-73917574D01*
X136680726Y-73940862D01*
X136570441Y-73986544D01*
X136471188Y-74052863D01*
X136402985Y-74121066D01*
X136357049Y-74090372D01*
X136246764Y-74044690D01*
X136129686Y-74021402D01*
X136010314Y-74021402D01*
X135893236Y-74044690D01*
X135782951Y-74090372D01*
X135683698Y-74156691D01*
X135651406Y-74188983D01*
X135641302Y-74178879D01*
X135542049Y-74112560D01*
X135431764Y-74066878D01*
X135314686Y-74043590D01*
X135195314Y-74043590D01*
X135078236Y-74066878D01*
X134967951Y-74112560D01*
X134868698Y-74178879D01*
X134784289Y-74263288D01*
X134717970Y-74362541D01*
X134672288Y-74472826D01*
X134649000Y-74589904D01*
X132075605Y-74589904D01*
X132106791Y-74558718D01*
X132200032Y-74419173D01*
X132264258Y-74264119D01*
X132297000Y-74099515D01*
X132297000Y-73931685D01*
X132264258Y-73767081D01*
X132200032Y-73612027D01*
X132106791Y-73472482D01*
X131988118Y-73353809D01*
X131848573Y-73260568D01*
X131693519Y-73196342D01*
X131528915Y-73163600D01*
X131361085Y-73163600D01*
X131196481Y-73196342D01*
X131041427Y-73260568D01*
X130901882Y-73353809D01*
X130783209Y-73472482D01*
X130689968Y-73612027D01*
X130625742Y-73767081D01*
X130593000Y-73931685D01*
X129122000Y-73931685D01*
X129089258Y-73767081D01*
X129025032Y-73612027D01*
X128931791Y-73472482D01*
X128813118Y-73353809D01*
X128673573Y-73260568D01*
X128518519Y-73196342D01*
X128353915Y-73163600D01*
X128186085Y-73163600D01*
X128021481Y-73196342D01*
X127866427Y-73260568D01*
X127726882Y-73353809D01*
X127608209Y-73472482D01*
X127514968Y-73612027D01*
X127450742Y-73767081D01*
X127418000Y-73931685D01*
X125947000Y-73931685D01*
X125914258Y-73767081D01*
X125850032Y-73612027D01*
X125756791Y-73472482D01*
X125638118Y-73353809D01*
X125498573Y-73260568D01*
X125343519Y-73196342D01*
X125178915Y-73163600D01*
X125011085Y-73163600D01*
X124846481Y-73196342D01*
X124691427Y-73260568D01*
X124551882Y-73353809D01*
X124433209Y-73472482D01*
X124339968Y-73612027D01*
X124275742Y-73767081D01*
X124243000Y-73931685D01*
X111607000Y-73931685D01*
X111607000Y-73614443D01*
X111539671Y-73275961D01*
X111469492Y-73106531D01*
X148815074Y-73106531D01*
X148925921Y-73383714D01*
X149236840Y-73537089D01*
X149571705Y-73626860D01*
X149917650Y-73649576D01*
X150261380Y-73604366D01*
X150589685Y-73492966D01*
X150794079Y-73383714D01*
X150904926Y-73106531D01*
X149860000Y-72061605D01*
X148815074Y-73106531D01*
X111469492Y-73106531D01*
X111407602Y-72957117D01*
X111215867Y-72670165D01*
X111017233Y-72471531D01*
X111350074Y-72471531D01*
X111460921Y-72748714D01*
X111771840Y-72902089D01*
X112106705Y-72991860D01*
X112452650Y-73014576D01*
X112796380Y-72969366D01*
X113124685Y-72857966D01*
X113329079Y-72748714D01*
X113439926Y-72471531D01*
X112395000Y-71426605D01*
X111350074Y-72471531D01*
X111017233Y-72471531D01*
X110971835Y-72426133D01*
X110684883Y-72234398D01*
X110366039Y-72102329D01*
X110027557Y-72035000D01*
X109682443Y-72035000D01*
X109343961Y-72102329D01*
X109025117Y-72234398D01*
X108738165Y-72426133D01*
X108494133Y-72670165D01*
X108302398Y-72957117D01*
X108170329Y-73275961D01*
X108103000Y-73614443D01*
X105961351Y-73614443D01*
X105961702Y-72471531D01*
X106270074Y-72471531D01*
X106380921Y-72748714D01*
X106691840Y-72902089D01*
X107026705Y-72991860D01*
X107372650Y-73014576D01*
X107716380Y-72969366D01*
X108044685Y-72857966D01*
X108249079Y-72748714D01*
X108359926Y-72471531D01*
X107315000Y-71426605D01*
X106270074Y-72471531D01*
X105961702Y-72471531D01*
X105961773Y-72240460D01*
X106090469Y-72291926D01*
X107135395Y-71247000D01*
X107494605Y-71247000D01*
X108539531Y-72291926D01*
X108816714Y-72181079D01*
X108970089Y-71870160D01*
X109059860Y-71535295D01*
X109075004Y-71304650D01*
X110627424Y-71304650D01*
X110672634Y-71648380D01*
X110784034Y-71976685D01*
X110893286Y-72181079D01*
X111170469Y-72291926D01*
X112215395Y-71247000D01*
X112574605Y-71247000D01*
X113619531Y-72291926D01*
X113896714Y-72181079D01*
X114050089Y-71870160D01*
X114062915Y-71822314D01*
X117885000Y-71822314D01*
X117885000Y-71941686D01*
X117908288Y-72058764D01*
X117953970Y-72169049D01*
X118020289Y-72268302D01*
X118104698Y-72352711D01*
X118203951Y-72419030D01*
X118314236Y-72464712D01*
X118431314Y-72488000D01*
X118550686Y-72488000D01*
X118667764Y-72464712D01*
X118778049Y-72419030D01*
X118877302Y-72352711D01*
X118961711Y-72268302D01*
X119028030Y-72169049D01*
X119073712Y-72058764D01*
X119097000Y-71941686D01*
X119097000Y-71822314D01*
X119155000Y-71822314D01*
X119155000Y-71941686D01*
X119178288Y-72058764D01*
X119223970Y-72169049D01*
X119290289Y-72268302D01*
X119374698Y-72352711D01*
X119473951Y-72419030D01*
X119584236Y-72464712D01*
X119701314Y-72488000D01*
X119820686Y-72488000D01*
X119937764Y-72464712D01*
X120048049Y-72419030D01*
X120147302Y-72352711D01*
X120231711Y-72268302D01*
X120237564Y-72259542D01*
X120268600Y-72305991D01*
X120353009Y-72390400D01*
X120452262Y-72456719D01*
X120562547Y-72502401D01*
X120679625Y-72525689D01*
X120798997Y-72525689D01*
X120916075Y-72502401D01*
X121026360Y-72456719D01*
X121125613Y-72390400D01*
X121210022Y-72305991D01*
X121276341Y-72206738D01*
X121322023Y-72096453D01*
X121345311Y-71979375D01*
X121345311Y-71860003D01*
X121322023Y-71742925D01*
X121276341Y-71632640D01*
X121210022Y-71533387D01*
X121125613Y-71448978D01*
X121026360Y-71382659D01*
X120916075Y-71336977D01*
X120798997Y-71313689D01*
X120679625Y-71313689D01*
X120562547Y-71336977D01*
X120452262Y-71382659D01*
X120353009Y-71448978D01*
X120268600Y-71533387D01*
X120262747Y-71542147D01*
X120231711Y-71495698D01*
X120147302Y-71411289D01*
X120048049Y-71344970D01*
X119937764Y-71299288D01*
X119820686Y-71276000D01*
X119701314Y-71276000D01*
X119584236Y-71299288D01*
X119473951Y-71344970D01*
X119374698Y-71411289D01*
X119290289Y-71495698D01*
X119223970Y-71594951D01*
X119178288Y-71705236D01*
X119155000Y-71822314D01*
X119097000Y-71822314D01*
X119073712Y-71705236D01*
X119028030Y-71594951D01*
X118961711Y-71495698D01*
X118877302Y-71411289D01*
X118778049Y-71344970D01*
X118667764Y-71299288D01*
X118550686Y-71276000D01*
X118431314Y-71276000D01*
X118314236Y-71299288D01*
X118203951Y-71344970D01*
X118104698Y-71411289D01*
X118020289Y-71495698D01*
X117953970Y-71594951D01*
X117908288Y-71705236D01*
X117885000Y-71822314D01*
X114062915Y-71822314D01*
X114139860Y-71535295D01*
X114162576Y-71189350D01*
X114142418Y-71036085D01*
X124243000Y-71036085D01*
X124243000Y-71203915D01*
X124275742Y-71368519D01*
X124339968Y-71523573D01*
X124433209Y-71663118D01*
X124551882Y-71781791D01*
X124691427Y-71875032D01*
X124846481Y-71939258D01*
X125011085Y-71972000D01*
X125178915Y-71972000D01*
X125343519Y-71939258D01*
X125498573Y-71875032D01*
X125638118Y-71781791D01*
X125756791Y-71663118D01*
X125850032Y-71523573D01*
X125914258Y-71368519D01*
X125947000Y-71203915D01*
X125947000Y-71036085D01*
X127418000Y-71036085D01*
X127418000Y-71203915D01*
X127450742Y-71368519D01*
X127514968Y-71523573D01*
X127608209Y-71663118D01*
X127726882Y-71781791D01*
X127866427Y-71875032D01*
X128021481Y-71939258D01*
X128186085Y-71972000D01*
X128353915Y-71972000D01*
X128518519Y-71939258D01*
X128673573Y-71875032D01*
X128813118Y-71781791D01*
X128931791Y-71663118D01*
X129025032Y-71523573D01*
X129089258Y-71368519D01*
X129122000Y-71203915D01*
X129122000Y-71036085D01*
X130593000Y-71036085D01*
X130593000Y-71203915D01*
X130625742Y-71368519D01*
X130689968Y-71523573D01*
X130783209Y-71663118D01*
X130901882Y-71781791D01*
X131041427Y-71875032D01*
X131196481Y-71939258D01*
X131361085Y-71972000D01*
X131528915Y-71972000D01*
X131693519Y-71939258D01*
X131848573Y-71875032D01*
X131988118Y-71781791D01*
X132106791Y-71663118D01*
X132170137Y-71568314D01*
X134903000Y-71568314D01*
X134903000Y-71687686D01*
X134926288Y-71804764D01*
X134971970Y-71915049D01*
X135038289Y-72014302D01*
X135122698Y-72098711D01*
X135221951Y-72165030D01*
X135332236Y-72210712D01*
X135449314Y-72234000D01*
X135568686Y-72234000D01*
X135685764Y-72210712D01*
X135796049Y-72165030D01*
X135895302Y-72098711D01*
X135979711Y-72014302D01*
X136046030Y-71915049D01*
X136091712Y-71804764D01*
X136113482Y-71695314D01*
X137189000Y-71695314D01*
X137189000Y-71814686D01*
X137212288Y-71931764D01*
X137257970Y-72042049D01*
X137324289Y-72141302D01*
X137408698Y-72225711D01*
X137507951Y-72292030D01*
X137618236Y-72337712D01*
X137735314Y-72361000D01*
X137854686Y-72361000D01*
X137971764Y-72337712D01*
X138082049Y-72292030D01*
X138181302Y-72225711D01*
X138265711Y-72141302D01*
X138332030Y-72042049D01*
X138374445Y-71939650D01*
X148092424Y-71939650D01*
X148137634Y-72283380D01*
X148249034Y-72611685D01*
X148358286Y-72816079D01*
X148635469Y-72926926D01*
X149680395Y-71882000D01*
X150039605Y-71882000D01*
X151084531Y-72926926D01*
X151361714Y-72816079D01*
X151515089Y-72505160D01*
X151604860Y-72170295D01*
X151620004Y-71939650D01*
X153172424Y-71939650D01*
X153217634Y-72283380D01*
X153329034Y-72611685D01*
X153438286Y-72816079D01*
X153715469Y-72926926D01*
X154760395Y-71882000D01*
X153715469Y-70837074D01*
X153438286Y-70947921D01*
X153284911Y-71258840D01*
X153195140Y-71593705D01*
X153172424Y-71939650D01*
X151620004Y-71939650D01*
X151627576Y-71824350D01*
X151582366Y-71480620D01*
X151470966Y-71152315D01*
X151361714Y-70947921D01*
X151084531Y-70837074D01*
X150039605Y-71882000D01*
X149680395Y-71882000D01*
X148635469Y-70837074D01*
X148358286Y-70947921D01*
X148204911Y-71258840D01*
X148115140Y-71593705D01*
X148092424Y-71939650D01*
X138374445Y-71939650D01*
X138377712Y-71931764D01*
X138401000Y-71814686D01*
X138401000Y-71695314D01*
X138377712Y-71578236D01*
X138332030Y-71467951D01*
X138265711Y-71368698D01*
X138181302Y-71284289D01*
X138082049Y-71217970D01*
X137971764Y-71172288D01*
X137854686Y-71149000D01*
X137735314Y-71149000D01*
X137618236Y-71172288D01*
X137507951Y-71217970D01*
X137408698Y-71284289D01*
X137324289Y-71368698D01*
X137257970Y-71467951D01*
X137212288Y-71578236D01*
X137189000Y-71695314D01*
X136113482Y-71695314D01*
X136115000Y-71687686D01*
X136115000Y-71568314D01*
X136091712Y-71451236D01*
X136046030Y-71340951D01*
X135979711Y-71241698D01*
X135895302Y-71157289D01*
X135796049Y-71090970D01*
X135685764Y-71045288D01*
X135568686Y-71022000D01*
X135449314Y-71022000D01*
X135332236Y-71045288D01*
X135221951Y-71090970D01*
X135122698Y-71157289D01*
X135038289Y-71241698D01*
X134971970Y-71340951D01*
X134926288Y-71451236D01*
X134903000Y-71568314D01*
X132170137Y-71568314D01*
X132200032Y-71523573D01*
X132264258Y-71368519D01*
X132297000Y-71203915D01*
X132297000Y-71036085D01*
X132264258Y-70871481D01*
X132200032Y-70716427D01*
X132160638Y-70657469D01*
X148815074Y-70657469D01*
X149860000Y-71702395D01*
X150904926Y-70657469D01*
X153895074Y-70657469D01*
X154940000Y-71702395D01*
X155984926Y-70657469D01*
X155874079Y-70380286D01*
X155563160Y-70226911D01*
X155228295Y-70137140D01*
X154882350Y-70114424D01*
X154538620Y-70159634D01*
X154210315Y-70271034D01*
X154005921Y-70380286D01*
X153895074Y-70657469D01*
X150904926Y-70657469D01*
X150794079Y-70380286D01*
X150483160Y-70226911D01*
X150148295Y-70137140D01*
X149802350Y-70114424D01*
X149458620Y-70159634D01*
X149130315Y-70271034D01*
X148925921Y-70380286D01*
X148815074Y-70657469D01*
X132160638Y-70657469D01*
X132106791Y-70576882D01*
X131988118Y-70458209D01*
X131848573Y-70364968D01*
X131693519Y-70300742D01*
X131528915Y-70268000D01*
X131361085Y-70268000D01*
X131196481Y-70300742D01*
X131041427Y-70364968D01*
X130901882Y-70458209D01*
X130783209Y-70576882D01*
X130689968Y-70716427D01*
X130625742Y-70871481D01*
X130593000Y-71036085D01*
X129122000Y-71036085D01*
X129089258Y-70871481D01*
X129025032Y-70716427D01*
X128931791Y-70576882D01*
X128813118Y-70458209D01*
X128673573Y-70364968D01*
X128518519Y-70300742D01*
X128353915Y-70268000D01*
X128186085Y-70268000D01*
X128021481Y-70300742D01*
X127866427Y-70364968D01*
X127726882Y-70458209D01*
X127608209Y-70576882D01*
X127514968Y-70716427D01*
X127450742Y-70871481D01*
X127418000Y-71036085D01*
X125947000Y-71036085D01*
X125914258Y-70871481D01*
X125850032Y-70716427D01*
X125756791Y-70576882D01*
X125638118Y-70458209D01*
X125498573Y-70364968D01*
X125343519Y-70300742D01*
X125178915Y-70268000D01*
X125011085Y-70268000D01*
X124846481Y-70300742D01*
X124691427Y-70364968D01*
X124551882Y-70458209D01*
X124433209Y-70576882D01*
X124339968Y-70716427D01*
X124275742Y-70871481D01*
X124243000Y-71036085D01*
X114142418Y-71036085D01*
X114117366Y-70845620D01*
X114005966Y-70517315D01*
X113896714Y-70312921D01*
X113619531Y-70202074D01*
X112574605Y-71247000D01*
X112215395Y-71247000D01*
X111170469Y-70202074D01*
X110893286Y-70312921D01*
X110739911Y-70623840D01*
X110650140Y-70958705D01*
X110627424Y-71304650D01*
X109075004Y-71304650D01*
X109082576Y-71189350D01*
X109037366Y-70845620D01*
X108925966Y-70517315D01*
X108816714Y-70312921D01*
X108539531Y-70202074D01*
X107494605Y-71247000D01*
X107135395Y-71247000D01*
X106090469Y-70202074D01*
X105962383Y-70253296D01*
X105962453Y-70022469D01*
X106270074Y-70022469D01*
X107315000Y-71067395D01*
X108359926Y-70022469D01*
X111350074Y-70022469D01*
X112395000Y-71067395D01*
X113439926Y-70022469D01*
X113329079Y-69745286D01*
X113018160Y-69591911D01*
X112683295Y-69502140D01*
X112337350Y-69479424D01*
X111993620Y-69524634D01*
X111665315Y-69636034D01*
X111460921Y-69745286D01*
X111350074Y-70022469D01*
X108359926Y-70022469D01*
X108249079Y-69745286D01*
X107938160Y-69591911D01*
X107603295Y-69502140D01*
X107257350Y-69479424D01*
X106913620Y-69524634D01*
X106585315Y-69636034D01*
X106380921Y-69745286D01*
X106270074Y-70022469D01*
X105962453Y-70022469D01*
X105963115Y-67861085D01*
X124243000Y-67861085D01*
X124243000Y-68028915D01*
X124275742Y-68193519D01*
X124339968Y-68348573D01*
X124433209Y-68488118D01*
X124551882Y-68606791D01*
X124691427Y-68700032D01*
X124846481Y-68764258D01*
X125011085Y-68797000D01*
X125178915Y-68797000D01*
X125343519Y-68764258D01*
X125498573Y-68700032D01*
X125638118Y-68606791D01*
X125756791Y-68488118D01*
X125850032Y-68348573D01*
X125914258Y-68193519D01*
X125947000Y-68028915D01*
X125947000Y-67861085D01*
X127418000Y-67861085D01*
X127418000Y-68028915D01*
X127450742Y-68193519D01*
X127514968Y-68348573D01*
X127608209Y-68488118D01*
X127726882Y-68606791D01*
X127866427Y-68700032D01*
X128021481Y-68764258D01*
X128186085Y-68797000D01*
X128353915Y-68797000D01*
X128518519Y-68764258D01*
X128673573Y-68700032D01*
X128813118Y-68606791D01*
X128931791Y-68488118D01*
X129025032Y-68348573D01*
X129089258Y-68193519D01*
X129122000Y-68028915D01*
X129122000Y-67861085D01*
X130593000Y-67861085D01*
X130593000Y-68028915D01*
X130625742Y-68193519D01*
X130689968Y-68348573D01*
X130783209Y-68488118D01*
X130901882Y-68606791D01*
X131041427Y-68700032D01*
X131196481Y-68764258D01*
X131361085Y-68797000D01*
X131528915Y-68797000D01*
X131693519Y-68764258D01*
X131848573Y-68700032D01*
X131988118Y-68606791D01*
X132106791Y-68488118D01*
X132200032Y-68348573D01*
X132264258Y-68193519D01*
X132297000Y-68028915D01*
X132297000Y-67861085D01*
X132264258Y-67696481D01*
X132200032Y-67541427D01*
X132106791Y-67401882D01*
X131988118Y-67283209D01*
X131848573Y-67189968D01*
X131693519Y-67125742D01*
X131528915Y-67093000D01*
X131361085Y-67093000D01*
X131196481Y-67125742D01*
X131041427Y-67189968D01*
X130901882Y-67283209D01*
X130783209Y-67401882D01*
X130689968Y-67541427D01*
X130625742Y-67696481D01*
X130593000Y-67861085D01*
X129122000Y-67861085D01*
X129089258Y-67696481D01*
X129025032Y-67541427D01*
X128931791Y-67401882D01*
X128813118Y-67283209D01*
X128673573Y-67189968D01*
X128518519Y-67125742D01*
X128353915Y-67093000D01*
X128186085Y-67093000D01*
X128021481Y-67125742D01*
X127866427Y-67189968D01*
X127726882Y-67283209D01*
X127608209Y-67401882D01*
X127514968Y-67541427D01*
X127450742Y-67696481D01*
X127418000Y-67861085D01*
X125947000Y-67861085D01*
X125914258Y-67696481D01*
X125850032Y-67541427D01*
X125756791Y-67401882D01*
X125638118Y-67283209D01*
X125498573Y-67189968D01*
X125343519Y-67125742D01*
X125178915Y-67093000D01*
X125011085Y-67093000D01*
X124846481Y-67125742D01*
X124691427Y-67189968D01*
X124551882Y-67283209D01*
X124433209Y-67401882D01*
X124339968Y-67541427D01*
X124275742Y-67696481D01*
X124243000Y-67861085D01*
X105963115Y-67861085D01*
X105963831Y-65527389D01*
X117462500Y-65527389D01*
X117462500Y-65917611D01*
X117538629Y-66300336D01*
X117687961Y-66660855D01*
X117904757Y-66985314D01*
X118180686Y-67261243D01*
X118505145Y-67478039D01*
X118865664Y-67627371D01*
X119248389Y-67703500D01*
X119638611Y-67703500D01*
X120021336Y-67627371D01*
X120381855Y-67478039D01*
X120706314Y-67261243D01*
X120982243Y-66985314D01*
X121199039Y-66660855D01*
X121348371Y-66300336D01*
X121424500Y-65917611D01*
X121424500Y-65654541D01*
X122065064Y-65654541D01*
X122075575Y-65847763D01*
X122245603Y-65918562D01*
X122426176Y-65954828D01*
X122610355Y-65955171D01*
X122791061Y-65919574D01*
X122961351Y-65849408D01*
X122964425Y-65847763D01*
X122974936Y-65654541D01*
X133565064Y-65654541D01*
X133575575Y-65847763D01*
X133745603Y-65918562D01*
X133926176Y-65954828D01*
X134110355Y-65955171D01*
X134291061Y-65919574D01*
X134461351Y-65849408D01*
X134464425Y-65847763D01*
X134474936Y-65654541D01*
X134347784Y-65527389D01*
X135179000Y-65527389D01*
X135179000Y-65917611D01*
X135255129Y-66300336D01*
X135404461Y-66660855D01*
X135621257Y-66985314D01*
X135897186Y-67261243D01*
X136221645Y-67478039D01*
X136582164Y-67627371D01*
X136964889Y-67703500D01*
X137355111Y-67703500D01*
X137737836Y-67627371D01*
X138098355Y-67478039D01*
X138422814Y-67261243D01*
X138698743Y-66985314D01*
X138915539Y-66660855D01*
X139064871Y-66300336D01*
X139141000Y-65917611D01*
X139141000Y-65527389D01*
X139064871Y-65144664D01*
X138915539Y-64784145D01*
X138875707Y-64724531D01*
X148815074Y-64724531D01*
X148925921Y-65001714D01*
X149236840Y-65155089D01*
X149571705Y-65244860D01*
X149917650Y-65267576D01*
X150261380Y-65222366D01*
X150589685Y-65110966D01*
X150794079Y-65001714D01*
X150904926Y-64724531D01*
X153895074Y-64724531D01*
X154005921Y-65001714D01*
X154316840Y-65155089D01*
X154651705Y-65244860D01*
X154997650Y-65267576D01*
X155341380Y-65222366D01*
X155669685Y-65110966D01*
X155874079Y-65001714D01*
X155984926Y-64724531D01*
X154940000Y-63679605D01*
X153895074Y-64724531D01*
X150904926Y-64724531D01*
X149860000Y-63679605D01*
X148815074Y-64724531D01*
X138875707Y-64724531D01*
X138698743Y-64459686D01*
X138422814Y-64183757D01*
X138098355Y-63966961D01*
X137737836Y-63817629D01*
X137355111Y-63741500D01*
X136964889Y-63741500D01*
X136582164Y-63817629D01*
X136221645Y-63966961D01*
X135897186Y-64183757D01*
X135621257Y-64459686D01*
X135404461Y-64784145D01*
X135255129Y-65144664D01*
X135179000Y-65527389D01*
X134347784Y-65527389D01*
X134020000Y-65199605D01*
X133565064Y-65654541D01*
X122974936Y-65654541D01*
X122520000Y-65199605D01*
X122065064Y-65654541D01*
X121424500Y-65654541D01*
X121424500Y-65527389D01*
X121348371Y-65144664D01*
X121334160Y-65110355D01*
X121584829Y-65110355D01*
X121620426Y-65291061D01*
X121690592Y-65461351D01*
X121692237Y-65464425D01*
X121885459Y-65474936D01*
X122340395Y-65020000D01*
X122699605Y-65020000D01*
X123154541Y-65474936D01*
X123347763Y-65464425D01*
X123418562Y-65294397D01*
X123454828Y-65113824D01*
X123454834Y-65110355D01*
X133084829Y-65110355D01*
X133120426Y-65291061D01*
X133190592Y-65461351D01*
X133192237Y-65464425D01*
X133385459Y-65474936D01*
X133840395Y-65020000D01*
X134199605Y-65020000D01*
X134654541Y-65474936D01*
X134847763Y-65464425D01*
X134918562Y-65294397D01*
X134954828Y-65113824D01*
X134955171Y-64929645D01*
X134919574Y-64748939D01*
X134849408Y-64578649D01*
X134847763Y-64575575D01*
X134654541Y-64565064D01*
X134199605Y-65020000D01*
X133840395Y-65020000D01*
X133385459Y-64565064D01*
X133192237Y-64575575D01*
X133121438Y-64745603D01*
X133085172Y-64926176D01*
X133084829Y-65110355D01*
X123454834Y-65110355D01*
X123455171Y-64929645D01*
X123419574Y-64748939D01*
X123349408Y-64578649D01*
X123347763Y-64575575D01*
X123154541Y-64565064D01*
X122699605Y-65020000D01*
X122340395Y-65020000D01*
X121885459Y-64565064D01*
X121692237Y-64575575D01*
X121621438Y-64745603D01*
X121585172Y-64926176D01*
X121584829Y-65110355D01*
X121334160Y-65110355D01*
X121199039Y-64784145D01*
X120982243Y-64459686D01*
X120908016Y-64385459D01*
X122065064Y-64385459D01*
X122520000Y-64840395D01*
X122974936Y-64385459D01*
X133565064Y-64385459D01*
X134020000Y-64840395D01*
X134474936Y-64385459D01*
X134464425Y-64192237D01*
X134294397Y-64121438D01*
X134113824Y-64085172D01*
X133929645Y-64084829D01*
X133748939Y-64120426D01*
X133578649Y-64190592D01*
X133575575Y-64192237D01*
X133565064Y-64385459D01*
X122974936Y-64385459D01*
X122964425Y-64192237D01*
X122794397Y-64121438D01*
X122613824Y-64085172D01*
X122429645Y-64084829D01*
X122248939Y-64120426D01*
X122078649Y-64190592D01*
X122075575Y-64192237D01*
X122065064Y-64385459D01*
X120908016Y-64385459D01*
X120706314Y-64183757D01*
X120381855Y-63966961D01*
X120021336Y-63817629D01*
X119638611Y-63741500D01*
X119248389Y-63741500D01*
X118865664Y-63817629D01*
X118505145Y-63966961D01*
X118180686Y-64183757D01*
X117904757Y-64459686D01*
X117687961Y-64784145D01*
X117538629Y-65144664D01*
X117462500Y-65527389D01*
X105963831Y-65527389D01*
X105964435Y-63557650D01*
X148092424Y-63557650D01*
X148137634Y-63901380D01*
X148249034Y-64229685D01*
X148358286Y-64434079D01*
X148635469Y-64544926D01*
X149680395Y-63500000D01*
X150039605Y-63500000D01*
X151084531Y-64544926D01*
X151361714Y-64434079D01*
X151515089Y-64123160D01*
X151604860Y-63788295D01*
X151620004Y-63557650D01*
X153172424Y-63557650D01*
X153217634Y-63901380D01*
X153329034Y-64229685D01*
X153438286Y-64434079D01*
X153715469Y-64544926D01*
X154760395Y-63500000D01*
X153715469Y-62455074D01*
X153438286Y-62565921D01*
X153284911Y-62876840D01*
X153195140Y-63211705D01*
X153172424Y-63557650D01*
X151620004Y-63557650D01*
X151627576Y-63442350D01*
X151582366Y-63098620D01*
X151470966Y-62770315D01*
X151361714Y-62565921D01*
X151084531Y-62455074D01*
X150039605Y-63500000D01*
X149680395Y-63500000D01*
X148635469Y-62455074D01*
X148358286Y-62565921D01*
X148204911Y-62876840D01*
X148115140Y-63211705D01*
X148092424Y-63557650D01*
X105964435Y-63557650D01*
X105964828Y-62275469D01*
X148815074Y-62275469D01*
X149860000Y-63320395D01*
X150904926Y-62275469D01*
X150794079Y-61998286D01*
X150483160Y-61844911D01*
X150148295Y-61755140D01*
X149802350Y-61732424D01*
X149458620Y-61777634D01*
X149130315Y-61889034D01*
X148925921Y-61998286D01*
X148815074Y-62275469D01*
X105964828Y-62275469D01*
X105965276Y-60811672D01*
X150894000Y-60811672D01*
X150894000Y-61108328D01*
X150951875Y-61399284D01*
X151065400Y-61673359D01*
X151230213Y-61920019D01*
X151439981Y-62129787D01*
X151686641Y-62294600D01*
X151960716Y-62408125D01*
X152251672Y-62466000D01*
X152548328Y-62466000D01*
X152839284Y-62408125D01*
X153113359Y-62294600D01*
X153141990Y-62275469D01*
X153895074Y-62275469D01*
X154940000Y-63320395D01*
X155984926Y-62275469D01*
X155874079Y-61998286D01*
X155563160Y-61844911D01*
X155228295Y-61755140D01*
X154882350Y-61732424D01*
X154538620Y-61777634D01*
X154210315Y-61889034D01*
X154005921Y-61998286D01*
X153895074Y-62275469D01*
X153141990Y-62275469D01*
X153360019Y-62129787D01*
X153569787Y-61920019D01*
X153734600Y-61673359D01*
X153848125Y-61399284D01*
X153906000Y-61108328D01*
X153906000Y-60811672D01*
X153848125Y-60520716D01*
X153734600Y-60246641D01*
X153569787Y-59999981D01*
X153360019Y-59790213D01*
X153141991Y-59644531D01*
X153895074Y-59644531D01*
X154005921Y-59921714D01*
X154316840Y-60075089D01*
X154651705Y-60164860D01*
X154997650Y-60187576D01*
X155341380Y-60142366D01*
X155669685Y-60030966D01*
X155874079Y-59921714D01*
X155984926Y-59644531D01*
X154940000Y-58599605D01*
X153895074Y-59644531D01*
X153141991Y-59644531D01*
X153113359Y-59625400D01*
X152839284Y-59511875D01*
X152548328Y-59454000D01*
X152251672Y-59454000D01*
X151960716Y-59511875D01*
X151686641Y-59625400D01*
X151439981Y-59790213D01*
X151230213Y-59999981D01*
X151065400Y-60246641D01*
X150951875Y-60520716D01*
X150894000Y-60811672D01*
X105965276Y-60811672D01*
X105965635Y-59644531D01*
X148815074Y-59644531D01*
X148925921Y-59921714D01*
X149236840Y-60075089D01*
X149571705Y-60164860D01*
X149917650Y-60187576D01*
X150261380Y-60142366D01*
X150589685Y-60030966D01*
X150794079Y-59921714D01*
X150904926Y-59644531D01*
X149860000Y-58599605D01*
X148815074Y-59644531D01*
X105965635Y-59644531D01*
X105965993Y-58477650D01*
X148092424Y-58477650D01*
X148137634Y-58821380D01*
X148249034Y-59149685D01*
X148358286Y-59354079D01*
X148635469Y-59464926D01*
X149680395Y-58420000D01*
X150039605Y-58420000D01*
X151084531Y-59464926D01*
X151361714Y-59354079D01*
X151515089Y-59043160D01*
X151604860Y-58708295D01*
X151620004Y-58477650D01*
X153172424Y-58477650D01*
X153217634Y-58821380D01*
X153329034Y-59149685D01*
X153438286Y-59354079D01*
X153715469Y-59464926D01*
X154760395Y-58420000D01*
X153715469Y-57375074D01*
X153438286Y-57485921D01*
X153284911Y-57796840D01*
X153195140Y-58131705D01*
X153172424Y-58477650D01*
X151620004Y-58477650D01*
X151627576Y-58362350D01*
X151582366Y-58018620D01*
X151470966Y-57690315D01*
X151361714Y-57485921D01*
X151084531Y-57375074D01*
X150039605Y-58420000D01*
X149680395Y-58420000D01*
X148635469Y-57375074D01*
X148358286Y-57485921D01*
X148204911Y-57796840D01*
X148115140Y-58131705D01*
X148092424Y-58477650D01*
X105965993Y-58477650D01*
X105966386Y-57195469D01*
X148815074Y-57195469D01*
X149860000Y-58240395D01*
X150904926Y-57195469D01*
X153895074Y-57195469D01*
X154940000Y-58240395D01*
X155984926Y-57195469D01*
X155874079Y-56918286D01*
X155563160Y-56764911D01*
X155228295Y-56675140D01*
X154882350Y-56652424D01*
X154538620Y-56697634D01*
X154210315Y-56809034D01*
X154005921Y-56918286D01*
X153895074Y-57195469D01*
X150904926Y-57195469D01*
X150794079Y-56918286D01*
X150483160Y-56764911D01*
X150148295Y-56675140D01*
X149802350Y-56652424D01*
X149458620Y-56697634D01*
X149130315Y-56809034D01*
X148925921Y-56918286D01*
X148815074Y-57195469D01*
X105966386Y-57195469D01*
X105967248Y-54389813D01*
X106641000Y-54389813D01*
X106641000Y-54770187D01*
X106715208Y-55143252D01*
X106860770Y-55494671D01*
X107072095Y-55810941D01*
X107341059Y-56079905D01*
X107657329Y-56291230D01*
X108008748Y-56436792D01*
X108381813Y-56511000D01*
X108762187Y-56511000D01*
X109135252Y-56436792D01*
X109486671Y-56291230D01*
X109802941Y-56079905D01*
X110071905Y-55810941D01*
X110283230Y-55494671D01*
X110428792Y-55143252D01*
X110463872Y-54966891D01*
X112350519Y-54966891D01*
X112447843Y-55241252D01*
X112596822Y-55491355D01*
X112791731Y-55707588D01*
X113025080Y-55881641D01*
X113287901Y-56006825D01*
X113435110Y-56051476D01*
X113665000Y-55930155D01*
X113665000Y-54737000D01*
X112471186Y-54737000D01*
X112350519Y-54966891D01*
X110463872Y-54966891D01*
X110503000Y-54770187D01*
X110503000Y-54389813D01*
X110475808Y-54253109D01*
X112350519Y-54253109D01*
X112471186Y-54483000D01*
X113665000Y-54483000D01*
X113665000Y-53289845D01*
X113919000Y-53289845D01*
X113919000Y-54483000D01*
X113939000Y-54483000D01*
X113939000Y-54737000D01*
X113919000Y-54737000D01*
X113919000Y-55930155D01*
X114148890Y-56051476D01*
X114296099Y-56006825D01*
X114558920Y-55881641D01*
X114792269Y-55707588D01*
X114987178Y-55491355D01*
X115136157Y-55241252D01*
X115193772Y-55078832D01*
X115241102Y-55193097D01*
X115375820Y-55394717D01*
X115547283Y-55566180D01*
X115748903Y-55700898D01*
X115972931Y-55793693D01*
X116210757Y-55841000D01*
X116453243Y-55841000D01*
X116691069Y-55793693D01*
X116915097Y-55700898D01*
X117116717Y-55566180D01*
X117288180Y-55394717D01*
X117422898Y-55193097D01*
X117515693Y-54969069D01*
X117563000Y-54731243D01*
X117563000Y-54488757D01*
X117641000Y-54488757D01*
X117641000Y-54731243D01*
X117688307Y-54969069D01*
X117781102Y-55193097D01*
X117915820Y-55394717D01*
X118087283Y-55566180D01*
X118288903Y-55700898D01*
X118512931Y-55793693D01*
X118750757Y-55841000D01*
X118993243Y-55841000D01*
X119231069Y-55793693D01*
X119455097Y-55700898D01*
X119656717Y-55566180D01*
X119828180Y-55394717D01*
X119962898Y-55193097D01*
X120055693Y-54969069D01*
X120103000Y-54731243D01*
X120103000Y-54488757D01*
X120181000Y-54488757D01*
X120181000Y-54731243D01*
X120228307Y-54969069D01*
X120321102Y-55193097D01*
X120455820Y-55394717D01*
X120627283Y-55566180D01*
X120828903Y-55700898D01*
X121052931Y-55793693D01*
X121290757Y-55841000D01*
X121533243Y-55841000D01*
X121771069Y-55793693D01*
X121995097Y-55700898D01*
X122196717Y-55566180D01*
X122368180Y-55394717D01*
X122502898Y-55193097D01*
X122595693Y-54969069D01*
X122643000Y-54731243D01*
X122643000Y-54488757D01*
X122721000Y-54488757D01*
X122721000Y-54731243D01*
X122768307Y-54969069D01*
X122861102Y-55193097D01*
X122995820Y-55394717D01*
X123167283Y-55566180D01*
X123368903Y-55700898D01*
X123592931Y-55793693D01*
X123830757Y-55841000D01*
X124073243Y-55841000D01*
X124311069Y-55793693D01*
X124535097Y-55700898D01*
X124736717Y-55566180D01*
X124908180Y-55394717D01*
X125042898Y-55193097D01*
X125135693Y-54969069D01*
X125183000Y-54731243D01*
X125183000Y-54488757D01*
X125135693Y-54250931D01*
X125042898Y-54026903D01*
X124908180Y-53825283D01*
X124842897Y-53760000D01*
X125259157Y-53760000D01*
X125259157Y-55460000D01*
X125266513Y-55534689D01*
X125288299Y-55606508D01*
X125323678Y-55672696D01*
X125371289Y-55730711D01*
X125429304Y-55778322D01*
X125495492Y-55813701D01*
X125567311Y-55835487D01*
X125642000Y-55842843D01*
X127342000Y-55842843D01*
X127416689Y-55835487D01*
X127488508Y-55813701D01*
X127554696Y-55778322D01*
X127612711Y-55730711D01*
X127660322Y-55672696D01*
X127695701Y-55606508D01*
X127717487Y-55534689D01*
X127724843Y-55460000D01*
X127724843Y-53760000D01*
X129704157Y-53760000D01*
X129704157Y-55460000D01*
X129711513Y-55534689D01*
X129733299Y-55606508D01*
X129768678Y-55672696D01*
X129816289Y-55730711D01*
X129874304Y-55778322D01*
X129940492Y-55813701D01*
X130012311Y-55835487D01*
X130087000Y-55842843D01*
X131787000Y-55842843D01*
X131861689Y-55835487D01*
X131933508Y-55813701D01*
X131999696Y-55778322D01*
X132057711Y-55730711D01*
X132105322Y-55672696D01*
X132140701Y-55606508D01*
X132162487Y-55534689D01*
X132169843Y-55460000D01*
X132169843Y-54488757D01*
X132246000Y-54488757D01*
X132246000Y-54731243D01*
X132293307Y-54969069D01*
X132386102Y-55193097D01*
X132520820Y-55394717D01*
X132692283Y-55566180D01*
X132893903Y-55700898D01*
X133117931Y-55793693D01*
X133355757Y-55841000D01*
X133598243Y-55841000D01*
X133836069Y-55793693D01*
X134060097Y-55700898D01*
X134261717Y-55566180D01*
X134433180Y-55394717D01*
X134567898Y-55193097D01*
X134660693Y-54969069D01*
X134708000Y-54731243D01*
X134708000Y-54488757D01*
X134786000Y-54488757D01*
X134786000Y-54731243D01*
X134833307Y-54969069D01*
X134926102Y-55193097D01*
X135060820Y-55394717D01*
X135232283Y-55566180D01*
X135433903Y-55700898D01*
X135657931Y-55793693D01*
X135895757Y-55841000D01*
X136138243Y-55841000D01*
X136376069Y-55793693D01*
X136600097Y-55700898D01*
X136801717Y-55566180D01*
X136973180Y-55394717D01*
X137107898Y-55193097D01*
X137200693Y-54969069D01*
X137248000Y-54731243D01*
X137248000Y-54488757D01*
X137326000Y-54488757D01*
X137326000Y-54731243D01*
X137373307Y-54969069D01*
X137466102Y-55193097D01*
X137600820Y-55394717D01*
X137772283Y-55566180D01*
X137973903Y-55700898D01*
X138197931Y-55793693D01*
X138435757Y-55841000D01*
X138678243Y-55841000D01*
X138916069Y-55793693D01*
X139140097Y-55700898D01*
X139341717Y-55566180D01*
X139513180Y-55394717D01*
X139647898Y-55193097D01*
X139740693Y-54969069D01*
X139788000Y-54731243D01*
X139788000Y-54488757D01*
X139866000Y-54488757D01*
X139866000Y-54731243D01*
X139913307Y-54969069D01*
X140006102Y-55193097D01*
X140140820Y-55394717D01*
X140312283Y-55566180D01*
X140513903Y-55700898D01*
X140737931Y-55793693D01*
X140975757Y-55841000D01*
X141218243Y-55841000D01*
X141456069Y-55793693D01*
X141680097Y-55700898D01*
X141881717Y-55566180D01*
X142053180Y-55394717D01*
X142187898Y-55193097D01*
X142235228Y-55078832D01*
X142292843Y-55241252D01*
X142441822Y-55491355D01*
X142636731Y-55707588D01*
X142870080Y-55881641D01*
X143132901Y-56006825D01*
X143280110Y-56051476D01*
X143510000Y-55930155D01*
X143510000Y-54737000D01*
X143764000Y-54737000D01*
X143764000Y-55930155D01*
X143993890Y-56051476D01*
X144141099Y-56006825D01*
X144403920Y-55881641D01*
X144637269Y-55707588D01*
X144832178Y-55491355D01*
X144981157Y-55241252D01*
X145078481Y-54966891D01*
X144957814Y-54737000D01*
X143764000Y-54737000D01*
X143510000Y-54737000D01*
X143490000Y-54737000D01*
X143490000Y-54483000D01*
X143510000Y-54483000D01*
X143510000Y-53289845D01*
X143764000Y-53289845D01*
X143764000Y-54483000D01*
X144957814Y-54483000D01*
X145006726Y-54389813D01*
X151641000Y-54389813D01*
X151641000Y-54770187D01*
X151715208Y-55143252D01*
X151860770Y-55494671D01*
X152072095Y-55810941D01*
X152341059Y-56079905D01*
X152657329Y-56291230D01*
X153008748Y-56436792D01*
X153381813Y-56511000D01*
X153762187Y-56511000D01*
X154135252Y-56436792D01*
X154486671Y-56291230D01*
X154802941Y-56079905D01*
X155071905Y-55810941D01*
X155283230Y-55494671D01*
X155428792Y-55143252D01*
X155503000Y-54770187D01*
X155503000Y-54389813D01*
X155428792Y-54016748D01*
X155283230Y-53665329D01*
X155071905Y-53349059D01*
X154802941Y-53080095D01*
X154486671Y-52868770D01*
X154135252Y-52723208D01*
X153762187Y-52649000D01*
X153381813Y-52649000D01*
X153008748Y-52723208D01*
X152657329Y-52868770D01*
X152341059Y-53080095D01*
X152072095Y-53349059D01*
X151860770Y-53665329D01*
X151715208Y-54016748D01*
X151641000Y-54389813D01*
X145006726Y-54389813D01*
X145078481Y-54253109D01*
X144981157Y-53978748D01*
X144832178Y-53728645D01*
X144637269Y-53512412D01*
X144403920Y-53338359D01*
X144141099Y-53213175D01*
X143993890Y-53168524D01*
X143764000Y-53289845D01*
X143510000Y-53289845D01*
X143280110Y-53168524D01*
X143132901Y-53213175D01*
X142870080Y-53338359D01*
X142636731Y-53512412D01*
X142441822Y-53728645D01*
X142292843Y-53978748D01*
X142235228Y-54141168D01*
X142187898Y-54026903D01*
X142053180Y-53825283D01*
X141881717Y-53653820D01*
X141680097Y-53519102D01*
X141456069Y-53426307D01*
X141218243Y-53379000D01*
X140975757Y-53379000D01*
X140737931Y-53426307D01*
X140513903Y-53519102D01*
X140312283Y-53653820D01*
X140140820Y-53825283D01*
X140006102Y-54026903D01*
X139913307Y-54250931D01*
X139866000Y-54488757D01*
X139788000Y-54488757D01*
X139740693Y-54250931D01*
X139647898Y-54026903D01*
X139513180Y-53825283D01*
X139341717Y-53653820D01*
X139140097Y-53519102D01*
X138916069Y-53426307D01*
X138678243Y-53379000D01*
X138435757Y-53379000D01*
X138197931Y-53426307D01*
X137973903Y-53519102D01*
X137772283Y-53653820D01*
X137600820Y-53825283D01*
X137466102Y-54026903D01*
X137373307Y-54250931D01*
X137326000Y-54488757D01*
X137248000Y-54488757D01*
X137200693Y-54250931D01*
X137107898Y-54026903D01*
X136973180Y-53825283D01*
X136801717Y-53653820D01*
X136600097Y-53519102D01*
X136376069Y-53426307D01*
X136138243Y-53379000D01*
X135895757Y-53379000D01*
X135657931Y-53426307D01*
X135433903Y-53519102D01*
X135232283Y-53653820D01*
X135060820Y-53825283D01*
X134926102Y-54026903D01*
X134833307Y-54250931D01*
X134786000Y-54488757D01*
X134708000Y-54488757D01*
X134660693Y-54250931D01*
X134567898Y-54026903D01*
X134433180Y-53825283D01*
X134261717Y-53653820D01*
X134060097Y-53519102D01*
X133836069Y-53426307D01*
X133598243Y-53379000D01*
X133355757Y-53379000D01*
X133117931Y-53426307D01*
X132893903Y-53519102D01*
X132692283Y-53653820D01*
X132520820Y-53825283D01*
X132386102Y-54026903D01*
X132293307Y-54250931D01*
X132246000Y-54488757D01*
X132169843Y-54488757D01*
X132169843Y-53760000D01*
X132162487Y-53685311D01*
X132140701Y-53613492D01*
X132105322Y-53547304D01*
X132057711Y-53489289D01*
X131999696Y-53441678D01*
X131933508Y-53406299D01*
X131861689Y-53384513D01*
X131787000Y-53377157D01*
X130087000Y-53377157D01*
X130012311Y-53384513D01*
X129940492Y-53406299D01*
X129874304Y-53441678D01*
X129816289Y-53489289D01*
X129768678Y-53547304D01*
X129733299Y-53613492D01*
X129711513Y-53685311D01*
X129704157Y-53760000D01*
X127724843Y-53760000D01*
X127717487Y-53685311D01*
X127695701Y-53613492D01*
X127660322Y-53547304D01*
X127612711Y-53489289D01*
X127554696Y-53441678D01*
X127488508Y-53406299D01*
X127416689Y-53384513D01*
X127342000Y-53377157D01*
X125642000Y-53377157D01*
X125567311Y-53384513D01*
X125495492Y-53406299D01*
X125429304Y-53441678D01*
X125371289Y-53489289D01*
X125323678Y-53547304D01*
X125288299Y-53613492D01*
X125266513Y-53685311D01*
X125259157Y-53760000D01*
X124842897Y-53760000D01*
X124736717Y-53653820D01*
X124535097Y-53519102D01*
X124311069Y-53426307D01*
X124073243Y-53379000D01*
X123830757Y-53379000D01*
X123592931Y-53426307D01*
X123368903Y-53519102D01*
X123167283Y-53653820D01*
X122995820Y-53825283D01*
X122861102Y-54026903D01*
X122768307Y-54250931D01*
X122721000Y-54488757D01*
X122643000Y-54488757D01*
X122595693Y-54250931D01*
X122502898Y-54026903D01*
X122368180Y-53825283D01*
X122196717Y-53653820D01*
X121995097Y-53519102D01*
X121771069Y-53426307D01*
X121533243Y-53379000D01*
X121290757Y-53379000D01*
X121052931Y-53426307D01*
X120828903Y-53519102D01*
X120627283Y-53653820D01*
X120455820Y-53825283D01*
X120321102Y-54026903D01*
X120228307Y-54250931D01*
X120181000Y-54488757D01*
X120103000Y-54488757D01*
X120055693Y-54250931D01*
X119962898Y-54026903D01*
X119828180Y-53825283D01*
X119656717Y-53653820D01*
X119455097Y-53519102D01*
X119231069Y-53426307D01*
X118993243Y-53379000D01*
X118750757Y-53379000D01*
X118512931Y-53426307D01*
X118288903Y-53519102D01*
X118087283Y-53653820D01*
X117915820Y-53825283D01*
X117781102Y-54026903D01*
X117688307Y-54250931D01*
X117641000Y-54488757D01*
X117563000Y-54488757D01*
X117515693Y-54250931D01*
X117422898Y-54026903D01*
X117288180Y-53825283D01*
X117116717Y-53653820D01*
X116915097Y-53519102D01*
X116691069Y-53426307D01*
X116453243Y-53379000D01*
X116210757Y-53379000D01*
X115972931Y-53426307D01*
X115748903Y-53519102D01*
X115547283Y-53653820D01*
X115375820Y-53825283D01*
X115241102Y-54026903D01*
X115193772Y-54141168D01*
X115136157Y-53978748D01*
X114987178Y-53728645D01*
X114792269Y-53512412D01*
X114558920Y-53338359D01*
X114296099Y-53213175D01*
X114148890Y-53168524D01*
X113919000Y-53289845D01*
X113665000Y-53289845D01*
X113435110Y-53168524D01*
X113287901Y-53213175D01*
X113025080Y-53338359D01*
X112791731Y-53512412D01*
X112596822Y-53728645D01*
X112447843Y-53978748D01*
X112350519Y-54253109D01*
X110475808Y-54253109D01*
X110428792Y-54016748D01*
X110283230Y-53665329D01*
X110071905Y-53349059D01*
X109802941Y-53080095D01*
X109486671Y-52868770D01*
X109135252Y-52723208D01*
X108762187Y-52649000D01*
X108381813Y-52649000D01*
X108008748Y-52723208D01*
X107657329Y-52868770D01*
X107341059Y-53080095D01*
X107072095Y-53349059D01*
X106860770Y-53665329D01*
X106715208Y-54016748D01*
X106641000Y-54389813D01*
X105967248Y-54389813D01*
X105967867Y-52374000D01*
X156413798Y-52374000D01*
X156411399Y-57473798D01*
%TA.AperFunction,Conductor*%
D16*
G36*
X156411399Y-57473798D02*
G01*
X156164531Y-57375074D01*
X155119605Y-58420000D01*
X156164531Y-59464926D01*
X156410509Y-59366558D01*
X156409010Y-62552843D01*
X156164531Y-62455074D01*
X155119605Y-63500000D01*
X156164531Y-64544926D01*
X156408119Y-64447514D01*
X156405069Y-70933266D01*
X156164531Y-70837074D01*
X155119605Y-71882000D01*
X156164531Y-72926926D01*
X156404176Y-72831091D01*
X156402679Y-76012311D01*
X156164531Y-75917074D01*
X155119605Y-76962000D01*
X156164531Y-78006926D01*
X156401786Y-77912046D01*
X156398260Y-85408543D01*
X156164531Y-85315074D01*
X155119605Y-86360000D01*
X156164531Y-87404926D01*
X156397365Y-87311815D01*
X156395871Y-90487588D01*
X156164531Y-90395074D01*
X155119605Y-91440000D01*
X156164531Y-92484926D01*
X156394975Y-92392770D01*
X156391011Y-100819723D01*
X156391000Y-100819833D01*
X156391000Y-100842556D01*
X156390991Y-100861965D01*
X156391000Y-100862057D01*
X156391001Y-108562473D01*
X156143475Y-108810000D01*
X119300526Y-108810000D01*
X119053000Y-108562475D01*
X119053000Y-101769832D01*
X119050850Y-101748003D01*
X119050850Y-101735678D01*
X119050221Y-101729693D01*
X119029554Y-101545441D01*
X119021429Y-101507216D01*
X119013845Y-101468914D01*
X119012066Y-101463165D01*
X119012066Y-101463163D01*
X119012064Y-101463157D01*
X118956005Y-101286435D01*
X118940624Y-101250549D01*
X118925730Y-101214413D01*
X118922867Y-101209119D01*
X118833546Y-101046645D01*
X118811483Y-101014423D01*
X118789858Y-100981875D01*
X118786022Y-100977238D01*
X118666844Y-100835209D01*
X118638934Y-100807877D01*
X118611410Y-100780160D01*
X118606752Y-100776361D01*
X118606746Y-100776355D01*
X118606739Y-100776351D01*
X118462251Y-100660179D01*
X118429565Y-100638790D01*
X118397180Y-100616946D01*
X118391874Y-100614125D01*
X118391866Y-100614120D01*
X118391858Y-100614117D01*
X118227557Y-100528222D01*
X118191355Y-100513595D01*
X118155326Y-100498450D01*
X118149564Y-100496710D01*
X117971701Y-100444363D01*
X117933324Y-100437042D01*
X117895064Y-100429188D01*
X117889084Y-100428602D01*
X117889074Y-100428600D01*
X117889065Y-100428600D01*
X117704431Y-100411797D01*
X117665401Y-100412069D01*
X117626304Y-100411797D01*
X117620315Y-100412384D01*
X117435923Y-100431765D01*
X117397660Y-100439619D01*
X117359289Y-100446939D01*
X117353533Y-100448677D01*
X117353524Y-100448679D01*
X117353516Y-100448683D01*
X117176411Y-100503505D01*
X117140431Y-100518629D01*
X117104180Y-100533276D01*
X117098866Y-100536101D01*
X116935773Y-100624285D01*
X116903353Y-100646152D01*
X116870700Y-100667520D01*
X116866045Y-100671316D01*
X116866037Y-100671322D01*
X116866030Y-100671329D01*
X116723177Y-100789508D01*
X116695656Y-100817222D01*
X116667743Y-100844556D01*
X116663907Y-100849193D01*
X116546724Y-100992873D01*
X116525109Y-101025406D01*
X116503038Y-101057641D01*
X116500175Y-101062934D01*
X116413131Y-101226640D01*
X116398244Y-101262757D01*
X116382855Y-101298663D01*
X116381080Y-101304400D01*
X116381076Y-101304409D01*
X116381074Y-101304418D01*
X116327488Y-101481906D01*
X116319904Y-101520208D01*
X116311779Y-101558433D01*
X116311150Y-101564418D01*
X116293057Y-101748941D01*
X116293057Y-101748949D01*
X116291000Y-101769833D01*
X116291001Y-108562473D01*
X116043475Y-108810000D01*
X106200526Y-108810000D01*
X105953000Y-108562475D01*
X105953000Y-104056096D01*
X106048511Y-104095658D01*
X106213115Y-104128400D01*
X106380945Y-104128400D01*
X106545549Y-104095658D01*
X106700603Y-104031432D01*
X106840148Y-103938191D01*
X106958821Y-103819518D01*
X107052062Y-103679973D01*
X107116288Y-103524919D01*
X107149030Y-103360315D01*
X107149030Y-103192485D01*
X107116288Y-103027881D01*
X107052062Y-102872827D01*
X106958821Y-102733282D01*
X106840148Y-102614609D01*
X106700603Y-102521368D01*
X106545549Y-102457142D01*
X106380945Y-102424400D01*
X106213115Y-102424400D01*
X106048511Y-102457142D01*
X105953000Y-102496704D01*
X105953000Y-100839481D01*
X105953972Y-97668757D01*
X113678600Y-97668757D01*
X113678600Y-97911243D01*
X113725907Y-98149069D01*
X113818702Y-98373097D01*
X113953420Y-98574717D01*
X114124883Y-98746180D01*
X114326503Y-98880898D01*
X114550531Y-98973693D01*
X114788357Y-99021000D01*
X115030843Y-99021000D01*
X115268669Y-98973693D01*
X115492697Y-98880898D01*
X115694317Y-98746180D01*
X115865780Y-98574717D01*
X116000498Y-98373097D01*
X116093293Y-98149069D01*
X116140600Y-97911243D01*
X116140600Y-97668757D01*
X116093293Y-97430931D01*
X116000498Y-97206903D01*
X115865780Y-97005283D01*
X115694317Y-96833820D01*
X115648961Y-96803514D01*
X120945404Y-96803514D01*
X120945404Y-96922886D01*
X120968692Y-97039964D01*
X121014374Y-97150249D01*
X121080693Y-97249502D01*
X121165102Y-97333911D01*
X121264355Y-97400230D01*
X121374640Y-97445912D01*
X121491718Y-97469200D01*
X121611090Y-97469200D01*
X121728168Y-97445912D01*
X121838453Y-97400230D01*
X121849582Y-97392794D01*
X121946436Y-97432912D01*
X122063514Y-97456200D01*
X122182886Y-97456200D01*
X122299964Y-97432912D01*
X122410249Y-97387230D01*
X122509502Y-97320911D01*
X122593911Y-97236502D01*
X122660230Y-97137249D01*
X122705912Y-97026964D01*
X122729200Y-96909886D01*
X122729200Y-96790514D01*
X122705912Y-96673436D01*
X122660230Y-96563151D01*
X122593911Y-96463898D01*
X122509502Y-96379489D01*
X122410249Y-96313170D01*
X122299964Y-96267488D01*
X122182886Y-96244200D01*
X122063514Y-96244200D01*
X121946436Y-96267488D01*
X121836151Y-96313170D01*
X121825022Y-96320606D01*
X121728168Y-96280488D01*
X121611090Y-96257200D01*
X121491718Y-96257200D01*
X121374640Y-96280488D01*
X121264355Y-96326170D01*
X121165102Y-96392489D01*
X121080693Y-96476898D01*
X121014374Y-96576151D01*
X120968692Y-96686436D01*
X120945404Y-96803514D01*
X115648961Y-96803514D01*
X115492697Y-96699102D01*
X115268669Y-96606307D01*
X115030843Y-96559000D01*
X114788357Y-96559000D01*
X114550531Y-96606307D01*
X114326503Y-96699102D01*
X114124883Y-96833820D01*
X113953420Y-97005283D01*
X113818702Y-97206903D01*
X113725907Y-97430931D01*
X113678600Y-97668757D01*
X105953972Y-97668757D01*
X105954750Y-95128757D01*
X113678600Y-95128757D01*
X113678600Y-95371243D01*
X113725907Y-95609069D01*
X113818702Y-95833097D01*
X113953420Y-96034717D01*
X114124883Y-96206180D01*
X114326503Y-96340898D01*
X114550531Y-96433693D01*
X114788357Y-96481000D01*
X115030843Y-96481000D01*
X115268669Y-96433693D01*
X115492697Y-96340898D01*
X115694317Y-96206180D01*
X115865780Y-96034717D01*
X116000498Y-95833097D01*
X116093293Y-95609069D01*
X116140600Y-95371243D01*
X116140600Y-95128757D01*
X116093293Y-94890931D01*
X116000498Y-94666903D01*
X115865780Y-94465283D01*
X115694317Y-94293820D01*
X115492697Y-94159102D01*
X115268669Y-94066307D01*
X115030843Y-94019000D01*
X114788357Y-94019000D01*
X114550531Y-94066307D01*
X114326503Y-94159102D01*
X114124883Y-94293820D01*
X113953420Y-94465283D01*
X113818702Y-94666903D01*
X113725907Y-94890931D01*
X113678600Y-95128757D01*
X105954750Y-95128757D01*
X105955753Y-91860000D01*
X113676757Y-91860000D01*
X113676757Y-93560000D01*
X113684113Y-93634689D01*
X113705899Y-93706508D01*
X113741278Y-93772696D01*
X113788889Y-93830711D01*
X113846904Y-93878322D01*
X113913092Y-93913701D01*
X113984911Y-93935487D01*
X114059600Y-93942843D01*
X115759600Y-93942843D01*
X115834289Y-93935487D01*
X115906108Y-93913701D01*
X115972296Y-93878322D01*
X116030311Y-93830711D01*
X116077922Y-93772696D01*
X116113301Y-93706508D01*
X116135087Y-93634689D01*
X116139477Y-93590112D01*
X128680000Y-93590112D01*
X128680000Y-93709484D01*
X128703288Y-93826562D01*
X128748970Y-93936847D01*
X128815289Y-94036100D01*
X128899698Y-94120509D01*
X128998951Y-94186828D01*
X129109236Y-94232510D01*
X129226314Y-94255798D01*
X129345686Y-94255798D01*
X129462764Y-94232510D01*
X129573049Y-94186828D01*
X129672302Y-94120509D01*
X129756711Y-94036100D01*
X129823030Y-93936847D01*
X129868712Y-93826562D01*
X129892000Y-93709484D01*
X129892000Y-93590112D01*
X129868712Y-93473034D01*
X129823030Y-93362749D01*
X129756711Y-93263496D01*
X129672302Y-93179087D01*
X129573049Y-93112768D01*
X129462764Y-93067086D01*
X129345686Y-93043798D01*
X129226314Y-93043798D01*
X129109236Y-93067086D01*
X128998951Y-93112768D01*
X128899698Y-93179087D01*
X128815289Y-93263496D01*
X128748970Y-93362749D01*
X128703288Y-93473034D01*
X128680000Y-93590112D01*
X116139477Y-93590112D01*
X116142443Y-93560000D01*
X116142443Y-92664531D01*
X148815074Y-92664531D01*
X148925921Y-92941714D01*
X149236840Y-93095089D01*
X149571705Y-93184860D01*
X149917650Y-93207576D01*
X150261380Y-93162366D01*
X150589685Y-93050966D01*
X150794079Y-92941714D01*
X150904926Y-92664531D01*
X153895074Y-92664531D01*
X154005921Y-92941714D01*
X154316840Y-93095089D01*
X154651705Y-93184860D01*
X154997650Y-93207576D01*
X155341380Y-93162366D01*
X155669685Y-93050966D01*
X155874079Y-92941714D01*
X155984926Y-92664531D01*
X154940000Y-91619605D01*
X153895074Y-92664531D01*
X150904926Y-92664531D01*
X149860000Y-91619605D01*
X148815074Y-92664531D01*
X116142443Y-92664531D01*
X116142443Y-91860000D01*
X116135087Y-91785311D01*
X116113301Y-91713492D01*
X116077922Y-91647304D01*
X116030311Y-91589289D01*
X115972296Y-91541678D01*
X115906108Y-91506299D01*
X115834289Y-91484513D01*
X115759600Y-91477157D01*
X114059600Y-91477157D01*
X113984911Y-91484513D01*
X113913092Y-91506299D01*
X113846904Y-91541678D01*
X113788889Y-91589289D01*
X113741278Y-91647304D01*
X113705899Y-91713492D01*
X113684113Y-91785311D01*
X113676757Y-91860000D01*
X105955753Y-91860000D01*
X105956064Y-90848085D01*
X108495000Y-90848085D01*
X108495000Y-91015915D01*
X108527742Y-91180519D01*
X108591968Y-91335573D01*
X108685209Y-91475118D01*
X108803882Y-91593791D01*
X108943427Y-91687032D01*
X109098481Y-91751258D01*
X109263085Y-91784000D01*
X109430915Y-91784000D01*
X109595519Y-91751258D01*
X109750573Y-91687032D01*
X109890118Y-91593791D01*
X110008791Y-91475118D01*
X110102032Y-91335573D01*
X110152011Y-91214914D01*
X120996198Y-91214914D01*
X120996198Y-91334286D01*
X121019486Y-91451364D01*
X121065168Y-91561649D01*
X121131487Y-91660902D01*
X121215896Y-91745311D01*
X121315149Y-91811630D01*
X121425434Y-91857312D01*
X121542512Y-91880600D01*
X121661884Y-91880600D01*
X121778962Y-91857312D01*
X121875825Y-91817189D01*
X121886961Y-91824630D01*
X121997246Y-91870312D01*
X122114324Y-91893600D01*
X122233696Y-91893600D01*
X122350774Y-91870312D01*
X122461059Y-91824630D01*
X122560312Y-91758311D01*
X122644721Y-91673902D01*
X122711040Y-91574649D01*
X122742934Y-91497650D01*
X148092424Y-91497650D01*
X148137634Y-91841380D01*
X148249034Y-92169685D01*
X148358286Y-92374079D01*
X148635469Y-92484926D01*
X149680395Y-91440000D01*
X150039605Y-91440000D01*
X151084531Y-92484926D01*
X151361714Y-92374079D01*
X151515089Y-92063160D01*
X151604860Y-91728295D01*
X151620004Y-91497650D01*
X153172424Y-91497650D01*
X153217634Y-91841380D01*
X153329034Y-92169685D01*
X153438286Y-92374079D01*
X153715469Y-92484926D01*
X154760395Y-91440000D01*
X153715469Y-90395074D01*
X153438286Y-90505921D01*
X153284911Y-90816840D01*
X153195140Y-91151705D01*
X153172424Y-91497650D01*
X151620004Y-91497650D01*
X151627576Y-91382350D01*
X151582366Y-91038620D01*
X151470966Y-90710315D01*
X151361714Y-90505921D01*
X151084531Y-90395074D01*
X150039605Y-91440000D01*
X149680395Y-91440000D01*
X148635469Y-90395074D01*
X148358286Y-90505921D01*
X148204911Y-90816840D01*
X148115140Y-91151705D01*
X148092424Y-91497650D01*
X122742934Y-91497650D01*
X122756722Y-91464364D01*
X122780010Y-91347286D01*
X122780010Y-91227914D01*
X122756722Y-91110836D01*
X122711040Y-91000551D01*
X122644721Y-90901298D01*
X122560312Y-90816889D01*
X122461059Y-90750570D01*
X122350774Y-90704888D01*
X122298650Y-90694520D01*
X128775490Y-90694520D01*
X128775490Y-90813892D01*
X128798778Y-90930970D01*
X128844460Y-91041255D01*
X128910779Y-91140508D01*
X128995188Y-91224917D01*
X129094441Y-91291236D01*
X129204726Y-91336918D01*
X129321804Y-91360206D01*
X129441176Y-91360206D01*
X129558254Y-91336918D01*
X129668539Y-91291236D01*
X129767792Y-91224917D01*
X129852201Y-91140508D01*
X129918520Y-91041255D01*
X129964202Y-90930970D01*
X129987490Y-90813892D01*
X129987490Y-90694520D01*
X129964202Y-90577442D01*
X129918520Y-90467157D01*
X129852201Y-90367904D01*
X129767792Y-90283495D01*
X129668539Y-90217176D01*
X129664418Y-90215469D01*
X148815074Y-90215469D01*
X149860000Y-91260395D01*
X150904926Y-90215469D01*
X150794079Y-89938286D01*
X150483160Y-89784911D01*
X150148295Y-89695140D01*
X149802350Y-89672424D01*
X149458620Y-89717634D01*
X149130315Y-89829034D01*
X148925921Y-89938286D01*
X148815074Y-90215469D01*
X129664418Y-90215469D01*
X129558254Y-90171494D01*
X129441176Y-90148206D01*
X129321804Y-90148206D01*
X129204726Y-90171494D01*
X129094441Y-90217176D01*
X128995188Y-90283495D01*
X128910779Y-90367904D01*
X128844460Y-90467157D01*
X128798778Y-90577442D01*
X128775490Y-90694520D01*
X122298650Y-90694520D01*
X122233696Y-90681600D01*
X122114324Y-90681600D01*
X121997246Y-90704888D01*
X121900383Y-90745011D01*
X121889247Y-90737570D01*
X121778962Y-90691888D01*
X121661884Y-90668600D01*
X121542512Y-90668600D01*
X121425434Y-90691888D01*
X121315149Y-90737570D01*
X121215896Y-90803889D01*
X121131487Y-90888298D01*
X121065168Y-90987551D01*
X121019486Y-91097836D01*
X120996198Y-91214914D01*
X110152011Y-91214914D01*
X110166258Y-91180519D01*
X110199000Y-91015915D01*
X110199000Y-90848085D01*
X110166258Y-90683481D01*
X110102032Y-90528427D01*
X110008791Y-90388882D01*
X109890118Y-90270209D01*
X109750573Y-90176968D01*
X109595519Y-90112742D01*
X109430915Y-90080000D01*
X109263085Y-90080000D01*
X109098481Y-90112742D01*
X108943427Y-90176968D01*
X108803882Y-90270209D01*
X108685209Y-90388882D01*
X108591968Y-90528427D01*
X108527742Y-90683481D01*
X108495000Y-90848085D01*
X105956064Y-90848085D01*
X105956706Y-88751672D01*
X150894000Y-88751672D01*
X150894000Y-89048328D01*
X150951875Y-89339284D01*
X151065400Y-89613359D01*
X151230213Y-89860019D01*
X151439981Y-90069787D01*
X151686641Y-90234600D01*
X151960716Y-90348125D01*
X152251672Y-90406000D01*
X152548328Y-90406000D01*
X152839284Y-90348125D01*
X153113359Y-90234600D01*
X153141990Y-90215469D01*
X153895074Y-90215469D01*
X154940000Y-91260395D01*
X155984926Y-90215469D01*
X155874079Y-89938286D01*
X155563160Y-89784911D01*
X155228295Y-89695140D01*
X154882350Y-89672424D01*
X154538620Y-89717634D01*
X154210315Y-89829034D01*
X154005921Y-89938286D01*
X153895074Y-90215469D01*
X153141990Y-90215469D01*
X153360019Y-90069787D01*
X153569787Y-89860019D01*
X153734600Y-89613359D01*
X153848125Y-89339284D01*
X153906000Y-89048328D01*
X153906000Y-88751672D01*
X153848125Y-88460716D01*
X153734600Y-88186641D01*
X153569787Y-87939981D01*
X153360019Y-87730213D01*
X153141991Y-87584531D01*
X153895074Y-87584531D01*
X154005921Y-87861714D01*
X154316840Y-88015089D01*
X154651705Y-88104860D01*
X154997650Y-88127576D01*
X155341380Y-88082366D01*
X155669685Y-87970966D01*
X155874079Y-87861714D01*
X155984926Y-87584531D01*
X154940000Y-86539605D01*
X153895074Y-87584531D01*
X153141991Y-87584531D01*
X153113359Y-87565400D01*
X152839284Y-87451875D01*
X152548328Y-87394000D01*
X152251672Y-87394000D01*
X151960716Y-87451875D01*
X151686641Y-87565400D01*
X151439981Y-87730213D01*
X151230213Y-87939981D01*
X151065400Y-88186641D01*
X150951875Y-88460716D01*
X150894000Y-88751672D01*
X105956706Y-88751672D01*
X105957064Y-87584531D01*
X148815074Y-87584531D01*
X148925921Y-87861714D01*
X149236840Y-88015089D01*
X149571705Y-88104860D01*
X149917650Y-88127576D01*
X150261380Y-88082366D01*
X150589685Y-87970966D01*
X150794079Y-87861714D01*
X150904926Y-87584531D01*
X149860000Y-86539605D01*
X148815074Y-87584531D01*
X105957064Y-87584531D01*
X105957422Y-86417650D01*
X148092424Y-86417650D01*
X148137634Y-86761380D01*
X148249034Y-87089685D01*
X148358286Y-87294079D01*
X148635469Y-87404926D01*
X149680395Y-86360000D01*
X150039605Y-86360000D01*
X151084531Y-87404926D01*
X151361714Y-87294079D01*
X151515089Y-86983160D01*
X151604860Y-86648295D01*
X151620004Y-86417650D01*
X153172424Y-86417650D01*
X153217634Y-86761380D01*
X153329034Y-87089685D01*
X153438286Y-87294079D01*
X153715469Y-87404926D01*
X154760395Y-86360000D01*
X153715469Y-85315074D01*
X153438286Y-85425921D01*
X153284911Y-85736840D01*
X153195140Y-86071705D01*
X153172424Y-86417650D01*
X151620004Y-86417650D01*
X151627576Y-86302350D01*
X151582366Y-85958620D01*
X151470966Y-85630315D01*
X151361714Y-85425921D01*
X151084531Y-85315074D01*
X150039605Y-86360000D01*
X149680395Y-86360000D01*
X148635469Y-85315074D01*
X148358286Y-85425921D01*
X148204911Y-85736840D01*
X148115140Y-86071705D01*
X148092424Y-86417650D01*
X105957422Y-86417650D01*
X105957972Y-84625085D01*
X113422600Y-84625085D01*
X113422600Y-84792915D01*
X113455342Y-84957519D01*
X113519568Y-85112573D01*
X113612809Y-85252118D01*
X113731482Y-85370791D01*
X113871027Y-85464032D01*
X114026081Y-85528258D01*
X114190685Y-85561000D01*
X114358515Y-85561000D01*
X114523119Y-85528258D01*
X114678173Y-85464032D01*
X114817718Y-85370791D01*
X114936391Y-85252118D01*
X115029632Y-85112573D01*
X115093858Y-84957519D01*
X115126600Y-84792915D01*
X115126600Y-84625085D01*
X115106158Y-84522314D01*
X127695510Y-84522314D01*
X127695510Y-84641686D01*
X127718798Y-84758764D01*
X127764480Y-84869049D01*
X127830799Y-84968302D01*
X127915208Y-85052711D01*
X128014461Y-85119030D01*
X128124746Y-85164712D01*
X128241824Y-85188000D01*
X128361196Y-85188000D01*
X128478274Y-85164712D01*
X128548872Y-85135469D01*
X148815074Y-85135469D01*
X149860000Y-86180395D01*
X150904926Y-85135469D01*
X153895074Y-85135469D01*
X154940000Y-86180395D01*
X155984926Y-85135469D01*
X155874079Y-84858286D01*
X155563160Y-84704911D01*
X155228295Y-84615140D01*
X154882350Y-84592424D01*
X154538620Y-84637634D01*
X154210315Y-84749034D01*
X154005921Y-84858286D01*
X153895074Y-85135469D01*
X150904926Y-85135469D01*
X150794079Y-84858286D01*
X150483160Y-84704911D01*
X150148295Y-84615140D01*
X149802350Y-84592424D01*
X149458620Y-84637634D01*
X149130315Y-84749034D01*
X148925921Y-84858286D01*
X148815074Y-85135469D01*
X128548872Y-85135469D01*
X128588559Y-85119030D01*
X128687812Y-85052711D01*
X128772221Y-84968302D01*
X128838540Y-84869049D01*
X128884222Y-84758764D01*
X128907510Y-84641686D01*
X128907510Y-84522314D01*
X128884222Y-84405236D01*
X128838540Y-84294951D01*
X128772221Y-84195698D01*
X128687812Y-84111289D01*
X128588559Y-84044970D01*
X128478274Y-83999288D01*
X128361196Y-83976000D01*
X128241824Y-83976000D01*
X128124746Y-83999288D01*
X128014461Y-84044970D01*
X127915208Y-84111289D01*
X127830799Y-84195698D01*
X127764480Y-84294951D01*
X127718798Y-84405236D01*
X127695510Y-84522314D01*
X115106158Y-84522314D01*
X115093858Y-84460481D01*
X115029632Y-84305427D01*
X114936391Y-84165882D01*
X114817718Y-84047209D01*
X114678173Y-83953968D01*
X114523119Y-83889742D01*
X114510913Y-83887314D01*
X144809000Y-83887314D01*
X144809000Y-84006686D01*
X144832288Y-84123764D01*
X144877970Y-84234049D01*
X144944289Y-84333302D01*
X145028698Y-84417711D01*
X145127951Y-84484030D01*
X145238236Y-84529712D01*
X145355314Y-84553000D01*
X145474686Y-84553000D01*
X145591764Y-84529712D01*
X145702049Y-84484030D01*
X145801302Y-84417711D01*
X145885711Y-84333302D01*
X145952030Y-84234049D01*
X145997712Y-84123764D01*
X146021000Y-84006686D01*
X146021000Y-83887314D01*
X145997712Y-83770236D01*
X145952030Y-83659951D01*
X145885711Y-83560698D01*
X145801302Y-83476289D01*
X145702049Y-83409970D01*
X145591764Y-83364288D01*
X145474686Y-83341000D01*
X145355314Y-83341000D01*
X145238236Y-83364288D01*
X145127951Y-83409970D01*
X145028698Y-83476289D01*
X144944289Y-83560698D01*
X144877970Y-83659951D01*
X144832288Y-83770236D01*
X144809000Y-83887314D01*
X114510913Y-83887314D01*
X114358515Y-83857000D01*
X114190685Y-83857000D01*
X114026081Y-83889742D01*
X113871027Y-83953968D01*
X113731482Y-84047209D01*
X113612809Y-84165882D01*
X113519568Y-84305427D01*
X113455342Y-84460481D01*
X113422600Y-84625085D01*
X105957972Y-84625085D01*
X105958965Y-81389813D01*
X106641000Y-81389813D01*
X106641000Y-81770187D01*
X106715208Y-82143252D01*
X106860770Y-82494671D01*
X107072095Y-82810941D01*
X107341059Y-83079905D01*
X107657329Y-83291230D01*
X108008748Y-83436792D01*
X108381813Y-83511000D01*
X108762187Y-83511000D01*
X109135252Y-83436792D01*
X109486671Y-83291230D01*
X109802941Y-83079905D01*
X110071905Y-82810941D01*
X110283230Y-82494671D01*
X110411286Y-82185514D01*
X118240600Y-82185514D01*
X118240600Y-82304886D01*
X118263888Y-82421964D01*
X118309570Y-82532249D01*
X118375889Y-82631502D01*
X118460298Y-82715911D01*
X118559551Y-82782230D01*
X118669836Y-82827912D01*
X118786914Y-82851200D01*
X118906286Y-82851200D01*
X119023364Y-82827912D01*
X119133649Y-82782230D01*
X119232902Y-82715911D01*
X119317311Y-82631502D01*
X119383630Y-82532249D01*
X119429312Y-82421964D01*
X119452600Y-82304886D01*
X119452600Y-82210920D01*
X123015800Y-82210920D01*
X123015800Y-82330292D01*
X123039088Y-82447370D01*
X123084770Y-82557655D01*
X123151089Y-82656908D01*
X123235498Y-82741317D01*
X123334751Y-82807636D01*
X123445036Y-82853318D01*
X123562114Y-82876606D01*
X123681486Y-82876606D01*
X123798564Y-82853318D01*
X123908849Y-82807636D01*
X124008102Y-82741317D01*
X124092511Y-82656908D01*
X124158830Y-82557655D01*
X124197244Y-82464914D01*
X127726510Y-82464914D01*
X127726510Y-82584286D01*
X127749798Y-82701364D01*
X127795480Y-82811649D01*
X127861799Y-82910902D01*
X127946208Y-82995311D01*
X128045461Y-83061630D01*
X128155746Y-83107312D01*
X128272824Y-83130600D01*
X128392196Y-83130600D01*
X128509274Y-83107312D01*
X128619559Y-83061630D01*
X128718812Y-82995311D01*
X128803221Y-82910902D01*
X128869540Y-82811649D01*
X128915222Y-82701364D01*
X128938510Y-82584286D01*
X128938510Y-82464914D01*
X128915222Y-82347836D01*
X128879549Y-82261714D01*
X131550200Y-82261714D01*
X131550200Y-82381086D01*
X131573488Y-82498164D01*
X131619170Y-82608449D01*
X131685489Y-82707702D01*
X131769898Y-82792111D01*
X131869151Y-82858430D01*
X131979436Y-82904112D01*
X132096514Y-82927400D01*
X132215886Y-82927400D01*
X132332964Y-82904112D01*
X132443249Y-82858430D01*
X132542502Y-82792111D01*
X132626911Y-82707702D01*
X132693230Y-82608449D01*
X132738912Y-82498164D01*
X132762200Y-82381086D01*
X132762200Y-82261714D01*
X132738912Y-82144636D01*
X132693230Y-82034351D01*
X132626911Y-81935098D01*
X132542502Y-81850689D01*
X132443249Y-81784370D01*
X132332964Y-81738688D01*
X132215886Y-81715400D01*
X132096514Y-81715400D01*
X131979436Y-81738688D01*
X131869151Y-81784370D01*
X131769898Y-81850689D01*
X131685489Y-81935098D01*
X131619170Y-82034351D01*
X131573488Y-82144636D01*
X131550200Y-82261714D01*
X128879549Y-82261714D01*
X128869540Y-82237551D01*
X128803221Y-82138298D01*
X128718812Y-82053889D01*
X128619559Y-81987570D01*
X128509274Y-81941888D01*
X128392196Y-81918600D01*
X128272824Y-81918600D01*
X128155746Y-81941888D01*
X128045461Y-81987570D01*
X127946208Y-82053889D01*
X127861799Y-82138298D01*
X127795480Y-82237551D01*
X127749798Y-82347836D01*
X127726510Y-82464914D01*
X124197244Y-82464914D01*
X124204512Y-82447370D01*
X124227800Y-82330292D01*
X124227800Y-82210920D01*
X124204512Y-82093842D01*
X124158830Y-81983557D01*
X124092511Y-81884304D01*
X124008102Y-81799895D01*
X123908849Y-81733576D01*
X123798564Y-81687894D01*
X123681486Y-81664606D01*
X123562114Y-81664606D01*
X123445036Y-81687894D01*
X123334751Y-81733576D01*
X123235498Y-81799895D01*
X123151089Y-81884304D01*
X123084770Y-81983557D01*
X123039088Y-82093842D01*
X123015800Y-82210920D01*
X119452600Y-82210920D01*
X119452600Y-82185514D01*
X119429312Y-82068436D01*
X119383630Y-81958151D01*
X119317311Y-81858898D01*
X119232902Y-81774489D01*
X119133649Y-81708170D01*
X119023364Y-81662488D01*
X118906286Y-81639200D01*
X118786914Y-81639200D01*
X118669836Y-81662488D01*
X118559551Y-81708170D01*
X118460298Y-81774489D01*
X118375889Y-81858898D01*
X118309570Y-81958151D01*
X118263888Y-82068436D01*
X118240600Y-82185514D01*
X110411286Y-82185514D01*
X110428792Y-82143252D01*
X110503000Y-81770187D01*
X110503000Y-81389813D01*
X151641000Y-81389813D01*
X151641000Y-81770187D01*
X151715208Y-82143252D01*
X151860770Y-82494671D01*
X152072095Y-82810941D01*
X152341059Y-83079905D01*
X152657329Y-83291230D01*
X153008748Y-83436792D01*
X153381813Y-83511000D01*
X153762187Y-83511000D01*
X154135252Y-83436792D01*
X154486671Y-83291230D01*
X154802941Y-83079905D01*
X155071905Y-82810941D01*
X155283230Y-82494671D01*
X155428792Y-82143252D01*
X155503000Y-81770187D01*
X155503000Y-81389813D01*
X155428792Y-81016748D01*
X155283230Y-80665329D01*
X155071905Y-80349059D01*
X154802941Y-80080095D01*
X154486671Y-79868770D01*
X154135252Y-79723208D01*
X153762187Y-79649000D01*
X153381813Y-79649000D01*
X153008748Y-79723208D01*
X152657329Y-79868770D01*
X152341059Y-80080095D01*
X152072095Y-80349059D01*
X151860770Y-80665329D01*
X151715208Y-81016748D01*
X151641000Y-81389813D01*
X110503000Y-81389813D01*
X110428792Y-81016748D01*
X110283230Y-80665329D01*
X110071905Y-80349059D01*
X109802941Y-80080095D01*
X109608711Y-79950314D01*
X124489000Y-79950314D01*
X124489000Y-80069686D01*
X124512288Y-80186764D01*
X124557970Y-80297049D01*
X124624289Y-80396302D01*
X124708698Y-80480711D01*
X124807951Y-80547030D01*
X124918236Y-80592712D01*
X125035314Y-80616000D01*
X125154686Y-80616000D01*
X125271764Y-80592712D01*
X125382049Y-80547030D01*
X125481302Y-80480711D01*
X125565711Y-80396302D01*
X125632030Y-80297049D01*
X125677712Y-80186764D01*
X125701000Y-80069686D01*
X125701000Y-79950314D01*
X125677712Y-79833236D01*
X125632030Y-79722951D01*
X125565711Y-79623698D01*
X125481302Y-79539289D01*
X125382049Y-79472970D01*
X125271764Y-79427288D01*
X125154686Y-79404000D01*
X125035314Y-79404000D01*
X124918236Y-79427288D01*
X124807951Y-79472970D01*
X124708698Y-79539289D01*
X124624289Y-79623698D01*
X124557970Y-79722951D01*
X124512288Y-79833236D01*
X124489000Y-79950314D01*
X109608711Y-79950314D01*
X109486671Y-79868770D01*
X109135252Y-79723208D01*
X108762187Y-79649000D01*
X108381813Y-79649000D01*
X108008748Y-79723208D01*
X107657329Y-79868770D01*
X107341059Y-80080095D01*
X107072095Y-80349059D01*
X106860770Y-80665329D01*
X106715208Y-81016748D01*
X106641000Y-81389813D01*
X105958965Y-81389813D01*
X105959609Y-79289914D01*
X125581200Y-79289914D01*
X125581200Y-79409286D01*
X125604488Y-79526364D01*
X125650170Y-79636649D01*
X125716489Y-79735902D01*
X125800898Y-79820311D01*
X125900151Y-79886630D01*
X126010436Y-79932312D01*
X126127514Y-79955600D01*
X126246886Y-79955600D01*
X126363964Y-79932312D01*
X126474249Y-79886630D01*
X126573502Y-79820311D01*
X126646699Y-79747114D01*
X128222800Y-79747114D01*
X128222800Y-79866486D01*
X128246088Y-79983564D01*
X128291770Y-80093849D01*
X128358089Y-80193102D01*
X128442498Y-80277511D01*
X128541751Y-80343830D01*
X128652036Y-80389512D01*
X128769114Y-80412800D01*
X128888486Y-80412800D01*
X129005564Y-80389512D01*
X129115849Y-80343830D01*
X129215102Y-80277511D01*
X129299511Y-80193102D01*
X129365830Y-80093849D01*
X129400421Y-80010339D01*
X130832370Y-80010339D01*
X130832370Y-80129711D01*
X130855658Y-80246789D01*
X130901340Y-80357074D01*
X130967659Y-80456327D01*
X131052068Y-80540736D01*
X131151321Y-80607055D01*
X131261606Y-80652737D01*
X131378684Y-80676025D01*
X131498056Y-80676025D01*
X131615134Y-80652737D01*
X131725419Y-80607055D01*
X131824672Y-80540736D01*
X131909081Y-80456327D01*
X131975400Y-80357074D01*
X131990590Y-80320403D01*
X131998498Y-80328311D01*
X132097751Y-80394630D01*
X132208036Y-80440312D01*
X132325114Y-80463600D01*
X132444486Y-80463600D01*
X132561564Y-80440312D01*
X132671849Y-80394630D01*
X132771102Y-80328311D01*
X132855511Y-80243902D01*
X132921830Y-80144649D01*
X132967512Y-80034364D01*
X132990800Y-79917286D01*
X132990800Y-79797914D01*
X132967512Y-79680836D01*
X132921830Y-79570551D01*
X132855511Y-79471298D01*
X132771102Y-79386889D01*
X132671849Y-79320570D01*
X132561564Y-79274888D01*
X132444486Y-79251600D01*
X132325114Y-79251600D01*
X132208036Y-79274888D01*
X132097751Y-79320570D01*
X131998498Y-79386889D01*
X131914089Y-79471298D01*
X131847770Y-79570551D01*
X131832580Y-79607222D01*
X131824672Y-79599314D01*
X131725419Y-79532995D01*
X131615134Y-79487313D01*
X131498056Y-79464025D01*
X131378684Y-79464025D01*
X131261606Y-79487313D01*
X131151321Y-79532995D01*
X131052068Y-79599314D01*
X130967659Y-79683723D01*
X130901340Y-79782976D01*
X130855658Y-79893261D01*
X130832370Y-80010339D01*
X129400421Y-80010339D01*
X129411512Y-79983564D01*
X129434800Y-79866486D01*
X129434800Y-79747114D01*
X129425329Y-79699502D01*
X129436826Y-79691820D01*
X129521235Y-79607411D01*
X129587554Y-79508158D01*
X129633236Y-79397873D01*
X129656524Y-79280795D01*
X129656524Y-79161423D01*
X129633236Y-79044345D01*
X129587554Y-78934060D01*
X129521235Y-78834807D01*
X129436826Y-78750398D01*
X129402300Y-78727328D01*
X129905716Y-78727328D01*
X129905716Y-78846700D01*
X129929004Y-78963778D01*
X129974686Y-79074063D01*
X130041005Y-79173316D01*
X130125414Y-79257725D01*
X130224667Y-79324044D01*
X130334952Y-79369726D01*
X130452030Y-79393014D01*
X130571402Y-79393014D01*
X130688480Y-79369726D01*
X130798765Y-79324044D01*
X130898018Y-79257725D01*
X130982427Y-79173316D01*
X131048746Y-79074063D01*
X131094428Y-78963778D01*
X131117716Y-78846700D01*
X131117716Y-78727328D01*
X131094428Y-78610250D01*
X131048746Y-78499965D01*
X130982427Y-78400712D01*
X130898018Y-78316303D01*
X130836332Y-78275085D01*
X132866300Y-78275085D01*
X132866300Y-78442915D01*
X132899042Y-78607519D01*
X132963268Y-78762573D01*
X133056509Y-78902118D01*
X133175182Y-79020791D01*
X133314727Y-79114032D01*
X133469781Y-79178258D01*
X133634385Y-79211000D01*
X133802215Y-79211000D01*
X133966819Y-79178258D01*
X134121873Y-79114032D01*
X134261418Y-79020791D01*
X134380091Y-78902118D01*
X134473332Y-78762573D01*
X134537558Y-78607519D01*
X134570300Y-78442915D01*
X134570300Y-78275085D01*
X134552686Y-78186531D01*
X148815074Y-78186531D01*
X148925921Y-78463714D01*
X149236840Y-78617089D01*
X149571705Y-78706860D01*
X149917650Y-78729576D01*
X150261380Y-78684366D01*
X150589685Y-78572966D01*
X150794079Y-78463714D01*
X150904926Y-78186531D01*
X153895074Y-78186531D01*
X154005921Y-78463714D01*
X154316840Y-78617089D01*
X154651705Y-78706860D01*
X154997650Y-78729576D01*
X155341380Y-78684366D01*
X155669685Y-78572966D01*
X155874079Y-78463714D01*
X155984926Y-78186531D01*
X154940000Y-77141605D01*
X153895074Y-78186531D01*
X150904926Y-78186531D01*
X149860000Y-77141605D01*
X148815074Y-78186531D01*
X134552686Y-78186531D01*
X134537558Y-78110481D01*
X134473332Y-77955427D01*
X134469740Y-77950052D01*
X134474936Y-77854541D01*
X134020000Y-77399605D01*
X134005858Y-77413748D01*
X133826253Y-77234143D01*
X133840395Y-77220000D01*
X134199605Y-77220000D01*
X134654541Y-77674936D01*
X134847763Y-77664425D01*
X134918562Y-77494397D01*
X134954828Y-77313824D01*
X134955171Y-77129645D01*
X134919574Y-76948939D01*
X134879432Y-76851514D01*
X146663200Y-76851514D01*
X146663200Y-76970886D01*
X146686488Y-77087964D01*
X146732170Y-77198249D01*
X146798489Y-77297502D01*
X146882898Y-77381911D01*
X146982151Y-77448230D01*
X147092436Y-77493912D01*
X147209514Y-77517200D01*
X147328886Y-77517200D01*
X147445964Y-77493912D01*
X147556249Y-77448230D01*
X147655502Y-77381911D01*
X147739911Y-77297502D01*
X147806230Y-77198249D01*
X147851912Y-77087964D01*
X147865500Y-77019650D01*
X148092424Y-77019650D01*
X148137634Y-77363380D01*
X148249034Y-77691685D01*
X148358286Y-77896079D01*
X148635469Y-78006926D01*
X149680395Y-76962000D01*
X150039605Y-76962000D01*
X151084531Y-78006926D01*
X151361714Y-77896079D01*
X151515089Y-77585160D01*
X151604860Y-77250295D01*
X151620004Y-77019650D01*
X153172424Y-77019650D01*
X153217634Y-77363380D01*
X153329034Y-77691685D01*
X153438286Y-77896079D01*
X153715469Y-78006926D01*
X154760395Y-76962000D01*
X153715469Y-75917074D01*
X153438286Y-76027921D01*
X153284911Y-76338840D01*
X153195140Y-76673705D01*
X153172424Y-77019650D01*
X151620004Y-77019650D01*
X151627576Y-76904350D01*
X151582366Y-76560620D01*
X151470966Y-76232315D01*
X151361714Y-76027921D01*
X151084531Y-75917074D01*
X150039605Y-76962000D01*
X149680395Y-76962000D01*
X148635469Y-75917074D01*
X148358286Y-76027921D01*
X148204911Y-76338840D01*
X148115140Y-76673705D01*
X148092424Y-77019650D01*
X147865500Y-77019650D01*
X147875200Y-76970886D01*
X147875200Y-76851514D01*
X147851912Y-76734436D01*
X147806230Y-76624151D01*
X147739911Y-76524898D01*
X147655502Y-76440489D01*
X147556249Y-76374170D01*
X147445964Y-76328488D01*
X147328886Y-76305200D01*
X147209514Y-76305200D01*
X147092436Y-76328488D01*
X146982151Y-76374170D01*
X146882898Y-76440489D01*
X146798489Y-76524898D01*
X146732170Y-76624151D01*
X146686488Y-76734436D01*
X146663200Y-76851514D01*
X134879432Y-76851514D01*
X134849408Y-76778649D01*
X134847763Y-76775575D01*
X134654541Y-76765064D01*
X134199605Y-77220000D01*
X133840395Y-77220000D01*
X133385459Y-76765064D01*
X133192237Y-76775575D01*
X133121438Y-76945603D01*
X133085172Y-77126176D01*
X133084829Y-77310355D01*
X133120426Y-77491061D01*
X133190592Y-77661351D01*
X133192237Y-77664425D01*
X133221837Y-77666035D01*
X133175182Y-77697209D01*
X133056509Y-77815882D01*
X132963268Y-77955427D01*
X132899042Y-78110481D01*
X132866300Y-78275085D01*
X130836332Y-78275085D01*
X130798765Y-78249984D01*
X130688480Y-78204302D01*
X130571402Y-78181014D01*
X130452030Y-78181014D01*
X130334952Y-78204302D01*
X130224667Y-78249984D01*
X130125414Y-78316303D01*
X130041005Y-78400712D01*
X129974686Y-78499965D01*
X129929004Y-78610250D01*
X129905716Y-78727328D01*
X129402300Y-78727328D01*
X129337573Y-78684079D01*
X129227288Y-78638397D01*
X129110210Y-78615109D01*
X128990838Y-78615109D01*
X128873760Y-78638397D01*
X128763475Y-78684079D01*
X128664222Y-78750398D01*
X128579813Y-78834807D01*
X128513494Y-78934060D01*
X128467812Y-79044345D01*
X128444524Y-79161423D01*
X128444524Y-79280795D01*
X128453995Y-79328407D01*
X128442498Y-79336089D01*
X128358089Y-79420498D01*
X128291770Y-79519751D01*
X128246088Y-79630036D01*
X128222800Y-79747114D01*
X126646699Y-79747114D01*
X126657911Y-79735902D01*
X126724230Y-79636649D01*
X126769912Y-79526364D01*
X126793200Y-79409286D01*
X126793200Y-79289914D01*
X126769912Y-79172836D01*
X126724230Y-79062551D01*
X126657911Y-78963298D01*
X126573502Y-78878889D01*
X126474249Y-78812570D01*
X126363964Y-78766888D01*
X126246886Y-78743600D01*
X126127514Y-78743600D01*
X126010436Y-78766888D01*
X125900151Y-78812570D01*
X125800898Y-78878889D01*
X125716489Y-78963298D01*
X125650170Y-79062551D01*
X125604488Y-79172836D01*
X125581200Y-79289914D01*
X105959609Y-79289914D01*
X105960143Y-77551531D01*
X106270074Y-77551531D01*
X106380921Y-77828714D01*
X106691840Y-77982089D01*
X107026705Y-78071860D01*
X107372650Y-78094576D01*
X107716380Y-78049366D01*
X108044685Y-77937966D01*
X108249079Y-77828714D01*
X108359926Y-77551531D01*
X111350074Y-77551531D01*
X111460921Y-77828714D01*
X111771840Y-77982089D01*
X112106705Y-78071860D01*
X112452650Y-78094576D01*
X112796380Y-78049366D01*
X113124685Y-77937966D01*
X113280760Y-77854541D01*
X122065064Y-77854541D01*
X122075575Y-78047763D01*
X122245603Y-78118562D01*
X122426176Y-78154828D01*
X122610355Y-78155171D01*
X122724710Y-78132644D01*
X122751742Y-78268541D01*
X122815968Y-78423595D01*
X122909209Y-78563140D01*
X123027882Y-78681813D01*
X123167427Y-78775054D01*
X123322481Y-78839280D01*
X123487085Y-78872022D01*
X123654915Y-78872022D01*
X123819519Y-78839280D01*
X123974573Y-78775054D01*
X124114118Y-78681813D01*
X124232791Y-78563140D01*
X124326032Y-78423595D01*
X124390258Y-78268541D01*
X124423000Y-78103937D01*
X124423000Y-77936107D01*
X124390258Y-77771503D01*
X124326032Y-77616449D01*
X124305229Y-77585314D01*
X126317800Y-77585314D01*
X126317800Y-77704686D01*
X126341088Y-77821764D01*
X126386770Y-77932049D01*
X126453089Y-78031302D01*
X126537498Y-78115711D01*
X126636751Y-78182030D01*
X126747036Y-78227712D01*
X126864114Y-78251000D01*
X126983486Y-78251000D01*
X127100564Y-78227712D01*
X127210849Y-78182030D01*
X127310102Y-78115711D01*
X127394511Y-78031302D01*
X127460830Y-77932049D01*
X127506512Y-77821764D01*
X127529800Y-77704686D01*
X127529800Y-77588114D01*
X128070400Y-77588114D01*
X128070400Y-77707486D01*
X128093688Y-77824564D01*
X128139370Y-77934849D01*
X128205689Y-78034102D01*
X128290098Y-78118511D01*
X128389351Y-78184830D01*
X128499636Y-78230512D01*
X128616714Y-78253800D01*
X128736086Y-78253800D01*
X128853164Y-78230512D01*
X128963449Y-78184830D01*
X128989869Y-78167177D01*
X129036725Y-78237302D01*
X129121134Y-78321711D01*
X129220387Y-78388030D01*
X129330672Y-78433712D01*
X129447750Y-78457000D01*
X129567122Y-78457000D01*
X129684200Y-78433712D01*
X129794485Y-78388030D01*
X129893738Y-78321711D01*
X129978147Y-78237302D01*
X130044466Y-78138049D01*
X130090148Y-78027764D01*
X130113436Y-77910686D01*
X130113436Y-77791314D01*
X130090148Y-77674236D01*
X130044466Y-77563951D01*
X129978147Y-77464698D01*
X129893738Y-77380289D01*
X129794485Y-77313970D01*
X129684200Y-77268288D01*
X129567122Y-77245000D01*
X129447750Y-77245000D01*
X129330672Y-77268288D01*
X129220387Y-77313970D01*
X129193967Y-77331623D01*
X129147111Y-77261498D01*
X129062702Y-77177089D01*
X128963449Y-77110770D01*
X128853164Y-77065088D01*
X128736086Y-77041800D01*
X128616714Y-77041800D01*
X128499636Y-77065088D01*
X128389351Y-77110770D01*
X128290098Y-77177089D01*
X128205689Y-77261498D01*
X128139370Y-77360751D01*
X128093688Y-77471036D01*
X128070400Y-77588114D01*
X127529800Y-77588114D01*
X127529800Y-77585314D01*
X127506512Y-77468236D01*
X127460830Y-77357951D01*
X127394511Y-77258698D01*
X127310102Y-77174289D01*
X127210849Y-77107970D01*
X127100564Y-77062288D01*
X126983486Y-77039000D01*
X126864114Y-77039000D01*
X126747036Y-77062288D01*
X126636751Y-77107970D01*
X126537498Y-77174289D01*
X126453089Y-77258698D01*
X126386770Y-77357951D01*
X126341088Y-77468236D01*
X126317800Y-77585314D01*
X124305229Y-77585314D01*
X124232791Y-77476904D01*
X124114118Y-77358231D01*
X123974573Y-77264990D01*
X123819519Y-77200764D01*
X123654915Y-77168022D01*
X123487085Y-77168022D01*
X123455088Y-77174387D01*
X123455171Y-77129645D01*
X123419574Y-76948939D01*
X123349408Y-76778649D01*
X123347763Y-76775575D01*
X123154541Y-76765064D01*
X122699605Y-77220000D01*
X122713748Y-77234143D01*
X122534143Y-77413748D01*
X122520000Y-77399605D01*
X122065064Y-77854541D01*
X113280760Y-77854541D01*
X113329079Y-77828714D01*
X113439926Y-77551531D01*
X112395000Y-76506605D01*
X111350074Y-77551531D01*
X108359926Y-77551531D01*
X107315000Y-76506605D01*
X106270074Y-77551531D01*
X105960143Y-77551531D01*
X105960215Y-77319837D01*
X106090469Y-77371926D01*
X107135395Y-76327000D01*
X107494605Y-76327000D01*
X108539531Y-77371926D01*
X108816714Y-77261079D01*
X108970089Y-76950160D01*
X109059860Y-76615295D01*
X109075004Y-76384650D01*
X110627424Y-76384650D01*
X110672634Y-76728380D01*
X110784034Y-77056685D01*
X110893286Y-77261079D01*
X111170469Y-77371926D01*
X112215395Y-76327000D01*
X112574605Y-76327000D01*
X113619531Y-77371926D01*
X113773494Y-77310355D01*
X121584829Y-77310355D01*
X121620426Y-77491061D01*
X121690592Y-77661351D01*
X121692237Y-77664425D01*
X121885459Y-77674936D01*
X122340395Y-77220000D01*
X121885459Y-76765064D01*
X121692237Y-76775575D01*
X121621438Y-76945603D01*
X121585172Y-77126176D01*
X121584829Y-77310355D01*
X113773494Y-77310355D01*
X113896714Y-77261079D01*
X114050089Y-76950160D01*
X114139860Y-76615295D01*
X114141819Y-76585459D01*
X122065064Y-76585459D01*
X122520000Y-77040395D01*
X122974936Y-76585459D01*
X133565064Y-76585459D01*
X134020000Y-77040395D01*
X134474936Y-76585459D01*
X134464425Y-76392237D01*
X134294397Y-76321438D01*
X134113824Y-76285172D01*
X133929645Y-76284829D01*
X133748939Y-76320426D01*
X133578649Y-76390592D01*
X133575575Y-76392237D01*
X133565064Y-76585459D01*
X122974936Y-76585459D01*
X122964425Y-76392237D01*
X122794397Y-76321438D01*
X122613824Y-76285172D01*
X122429645Y-76284829D01*
X122248939Y-76320426D01*
X122078649Y-76390592D01*
X122075575Y-76392237D01*
X122065064Y-76585459D01*
X114141819Y-76585459D01*
X114162576Y-76269350D01*
X114117366Y-75925620D01*
X114053523Y-75737469D01*
X148815074Y-75737469D01*
X149860000Y-76782395D01*
X150904926Y-75737469D01*
X150794079Y-75460286D01*
X150483160Y-75306911D01*
X150148295Y-75217140D01*
X149802350Y-75194424D01*
X149458620Y-75239634D01*
X149130315Y-75351034D01*
X148925921Y-75460286D01*
X148815074Y-75737469D01*
X114053523Y-75737469D01*
X114005966Y-75597315D01*
X113896714Y-75392921D01*
X113619531Y-75282074D01*
X112574605Y-76327000D01*
X112215395Y-76327000D01*
X111170469Y-75282074D01*
X110893286Y-75392921D01*
X110739911Y-75703840D01*
X110650140Y-76038705D01*
X110627424Y-76384650D01*
X109075004Y-76384650D01*
X109082576Y-76269350D01*
X109037366Y-75925620D01*
X108925966Y-75597315D01*
X108816714Y-75392921D01*
X108539531Y-75282074D01*
X107494605Y-76327000D01*
X107135395Y-76327000D01*
X106090469Y-75282074D01*
X105960824Y-75333920D01*
X105960895Y-75102469D01*
X106270074Y-75102469D01*
X107315000Y-76147395D01*
X108359926Y-75102469D01*
X108249079Y-74825286D01*
X107938160Y-74671911D01*
X107603295Y-74582140D01*
X107257350Y-74559424D01*
X106913620Y-74604634D01*
X106585315Y-74716034D01*
X106380921Y-74825286D01*
X106270074Y-75102469D01*
X105960895Y-75102469D01*
X105961351Y-73614443D01*
X108103000Y-73614443D01*
X108103000Y-73959557D01*
X108170329Y-74298039D01*
X108302398Y-74616883D01*
X108494133Y-74903835D01*
X108738165Y-75147867D01*
X109025117Y-75339602D01*
X109343961Y-75471671D01*
X109682443Y-75539000D01*
X110027557Y-75539000D01*
X110366039Y-75471671D01*
X110684883Y-75339602D01*
X110971835Y-75147867D01*
X111017233Y-75102469D01*
X111350074Y-75102469D01*
X112395000Y-76147395D01*
X113439926Y-75102469D01*
X113329079Y-74825286D01*
X113018160Y-74671911D01*
X112810757Y-74616310D01*
X118012000Y-74616310D01*
X118012000Y-74735682D01*
X118035288Y-74852760D01*
X118080970Y-74963045D01*
X118147289Y-75062298D01*
X118231698Y-75146707D01*
X118330951Y-75213026D01*
X118441236Y-75258708D01*
X118558314Y-75281996D01*
X118677686Y-75281996D01*
X118794764Y-75258708D01*
X118905049Y-75213026D01*
X119004302Y-75146707D01*
X119088711Y-75062298D01*
X119155030Y-74963045D01*
X119200712Y-74852760D01*
X119224000Y-74735682D01*
X119224000Y-74616314D01*
X120806000Y-74616314D01*
X120806000Y-74735686D01*
X120829288Y-74852764D01*
X120874970Y-74963049D01*
X120941289Y-75062302D01*
X121025698Y-75146711D01*
X121124951Y-75213030D01*
X121235236Y-75258712D01*
X121352314Y-75282000D01*
X121471686Y-75282000D01*
X121588764Y-75258712D01*
X121699049Y-75213030D01*
X121798302Y-75146711D01*
X121882711Y-75062302D01*
X121949030Y-74963049D01*
X121994712Y-74852764D01*
X122018000Y-74735686D01*
X122018000Y-74616314D01*
X121994712Y-74499236D01*
X121949030Y-74388951D01*
X121882711Y-74289698D01*
X121798302Y-74205289D01*
X121699049Y-74138970D01*
X121588764Y-74093288D01*
X121471686Y-74070000D01*
X121352314Y-74070000D01*
X121235236Y-74093288D01*
X121124951Y-74138970D01*
X121025698Y-74205289D01*
X120941289Y-74289698D01*
X120874970Y-74388951D01*
X120829288Y-74499236D01*
X120806000Y-74616314D01*
X119224000Y-74616314D01*
X119224000Y-74616310D01*
X119200712Y-74499232D01*
X119155030Y-74388947D01*
X119088711Y-74289694D01*
X119004302Y-74205285D01*
X118905049Y-74138966D01*
X118794764Y-74093284D01*
X118677686Y-74069996D01*
X118558314Y-74069996D01*
X118441236Y-74093284D01*
X118330951Y-74138966D01*
X118231698Y-74205285D01*
X118147289Y-74289694D01*
X118080970Y-74388947D01*
X118035288Y-74499232D01*
X118012000Y-74616310D01*
X112810757Y-74616310D01*
X112683295Y-74582140D01*
X112337350Y-74559424D01*
X111993620Y-74604634D01*
X111665315Y-74716034D01*
X111460921Y-74825286D01*
X111350074Y-75102469D01*
X111017233Y-75102469D01*
X111215867Y-74903835D01*
X111407602Y-74616883D01*
X111539671Y-74298039D01*
X111607000Y-73959557D01*
X111607000Y-73931685D01*
X124243000Y-73931685D01*
X124243000Y-74099515D01*
X124275742Y-74264119D01*
X124339968Y-74419173D01*
X124433209Y-74558718D01*
X124551882Y-74677391D01*
X124691427Y-74770632D01*
X124846481Y-74834858D01*
X125011085Y-74867600D01*
X125178915Y-74867600D01*
X125343519Y-74834858D01*
X125498573Y-74770632D01*
X125638118Y-74677391D01*
X125756791Y-74558718D01*
X125850032Y-74419173D01*
X125914258Y-74264119D01*
X125947000Y-74099515D01*
X125947000Y-73931685D01*
X127418000Y-73931685D01*
X127418000Y-74099515D01*
X127450742Y-74264119D01*
X127514968Y-74419173D01*
X127608209Y-74558718D01*
X127726882Y-74677391D01*
X127866427Y-74770632D01*
X128021481Y-74834858D01*
X128186085Y-74867600D01*
X128353915Y-74867600D01*
X128518519Y-74834858D01*
X128673573Y-74770632D01*
X128813118Y-74677391D01*
X128931791Y-74558718D01*
X129025032Y-74419173D01*
X129089258Y-74264119D01*
X129122000Y-74099515D01*
X129122000Y-73931685D01*
X130593000Y-73931685D01*
X130593000Y-74099515D01*
X130625742Y-74264119D01*
X130689968Y-74419173D01*
X130783209Y-74558718D01*
X130901882Y-74677391D01*
X131041427Y-74770632D01*
X131196481Y-74834858D01*
X131361085Y-74867600D01*
X131528915Y-74867600D01*
X131693519Y-74834858D01*
X131848573Y-74770632D01*
X131988118Y-74677391D01*
X132075605Y-74589904D01*
X134649000Y-74589904D01*
X134649000Y-74709276D01*
X134672288Y-74826354D01*
X134717970Y-74936639D01*
X134784289Y-75035892D01*
X134868698Y-75120301D01*
X134967951Y-75186620D01*
X135078236Y-75232302D01*
X135195314Y-75255590D01*
X135314686Y-75255590D01*
X135431764Y-75232302D01*
X135542049Y-75186620D01*
X135641302Y-75120301D01*
X135673594Y-75088009D01*
X135683698Y-75098113D01*
X135782951Y-75164432D01*
X135893236Y-75210114D01*
X136010314Y-75233402D01*
X136129686Y-75233402D01*
X136246764Y-75210114D01*
X136357049Y-75164432D01*
X136456302Y-75098113D01*
X136524505Y-75029910D01*
X136570441Y-75060604D01*
X136680726Y-75106286D01*
X136797804Y-75129574D01*
X136917176Y-75129574D01*
X137034254Y-75106286D01*
X137144539Y-75060604D01*
X137243792Y-74994285D01*
X137328201Y-74909876D01*
X137394520Y-74810623D01*
X137440202Y-74700338D01*
X137463490Y-74583260D01*
X137463490Y-74463888D01*
X137440202Y-74346810D01*
X137409907Y-74273672D01*
X150894000Y-74273672D01*
X150894000Y-74570328D01*
X150951875Y-74861284D01*
X151065400Y-75135359D01*
X151230213Y-75382019D01*
X151439981Y-75591787D01*
X151686641Y-75756600D01*
X151960716Y-75870125D01*
X152251672Y-75928000D01*
X152548328Y-75928000D01*
X152839284Y-75870125D01*
X153113359Y-75756600D01*
X153141990Y-75737469D01*
X153895074Y-75737469D01*
X154940000Y-76782395D01*
X155984926Y-75737469D01*
X155874079Y-75460286D01*
X155563160Y-75306911D01*
X155228295Y-75217140D01*
X154882350Y-75194424D01*
X154538620Y-75239634D01*
X154210315Y-75351034D01*
X154005921Y-75460286D01*
X153895074Y-75737469D01*
X153141990Y-75737469D01*
X153360019Y-75591787D01*
X153569787Y-75382019D01*
X153734600Y-75135359D01*
X153848125Y-74861284D01*
X153906000Y-74570328D01*
X153906000Y-74273672D01*
X153848125Y-73982716D01*
X153734600Y-73708641D01*
X153569787Y-73461981D01*
X153360019Y-73252213D01*
X153141991Y-73106531D01*
X153895074Y-73106531D01*
X154005921Y-73383714D01*
X154316840Y-73537089D01*
X154651705Y-73626860D01*
X154997650Y-73649576D01*
X155341380Y-73604366D01*
X155669685Y-73492966D01*
X155874079Y-73383714D01*
X155984926Y-73106531D01*
X154940000Y-72061605D01*
X153895074Y-73106531D01*
X153141991Y-73106531D01*
X153113359Y-73087400D01*
X152839284Y-72973875D01*
X152548328Y-72916000D01*
X152251672Y-72916000D01*
X151960716Y-72973875D01*
X151686641Y-73087400D01*
X151439981Y-73252213D01*
X151230213Y-73461981D01*
X151065400Y-73708641D01*
X150951875Y-73982716D01*
X150894000Y-74273672D01*
X137409907Y-74273672D01*
X137394520Y-74236525D01*
X137328201Y-74137272D01*
X137243792Y-74052863D01*
X137144539Y-73986544D01*
X137034254Y-73940862D01*
X136917176Y-73917574D01*
X136797804Y-73917574D01*
X136680726Y-73940862D01*
X136570441Y-73986544D01*
X136471188Y-74052863D01*
X136402985Y-74121066D01*
X136357049Y-74090372D01*
X136246764Y-74044690D01*
X136129686Y-74021402D01*
X136010314Y-74021402D01*
X135893236Y-74044690D01*
X135782951Y-74090372D01*
X135683698Y-74156691D01*
X135651406Y-74188983D01*
X135641302Y-74178879D01*
X135542049Y-74112560D01*
X135431764Y-74066878D01*
X135314686Y-74043590D01*
X135195314Y-74043590D01*
X135078236Y-74066878D01*
X134967951Y-74112560D01*
X134868698Y-74178879D01*
X134784289Y-74263288D01*
X134717970Y-74362541D01*
X134672288Y-74472826D01*
X134649000Y-74589904D01*
X132075605Y-74589904D01*
X132106791Y-74558718D01*
X132200032Y-74419173D01*
X132264258Y-74264119D01*
X132297000Y-74099515D01*
X132297000Y-73931685D01*
X132264258Y-73767081D01*
X132200032Y-73612027D01*
X132106791Y-73472482D01*
X131988118Y-73353809D01*
X131848573Y-73260568D01*
X131693519Y-73196342D01*
X131528915Y-73163600D01*
X131361085Y-73163600D01*
X131196481Y-73196342D01*
X131041427Y-73260568D01*
X130901882Y-73353809D01*
X130783209Y-73472482D01*
X130689968Y-73612027D01*
X130625742Y-73767081D01*
X130593000Y-73931685D01*
X129122000Y-73931685D01*
X129089258Y-73767081D01*
X129025032Y-73612027D01*
X128931791Y-73472482D01*
X128813118Y-73353809D01*
X128673573Y-73260568D01*
X128518519Y-73196342D01*
X128353915Y-73163600D01*
X128186085Y-73163600D01*
X128021481Y-73196342D01*
X127866427Y-73260568D01*
X127726882Y-73353809D01*
X127608209Y-73472482D01*
X127514968Y-73612027D01*
X127450742Y-73767081D01*
X127418000Y-73931685D01*
X125947000Y-73931685D01*
X125914258Y-73767081D01*
X125850032Y-73612027D01*
X125756791Y-73472482D01*
X125638118Y-73353809D01*
X125498573Y-73260568D01*
X125343519Y-73196342D01*
X125178915Y-73163600D01*
X125011085Y-73163600D01*
X124846481Y-73196342D01*
X124691427Y-73260568D01*
X124551882Y-73353809D01*
X124433209Y-73472482D01*
X124339968Y-73612027D01*
X124275742Y-73767081D01*
X124243000Y-73931685D01*
X111607000Y-73931685D01*
X111607000Y-73614443D01*
X111539671Y-73275961D01*
X111469492Y-73106531D01*
X148815074Y-73106531D01*
X148925921Y-73383714D01*
X149236840Y-73537089D01*
X149571705Y-73626860D01*
X149917650Y-73649576D01*
X150261380Y-73604366D01*
X150589685Y-73492966D01*
X150794079Y-73383714D01*
X150904926Y-73106531D01*
X149860000Y-72061605D01*
X148815074Y-73106531D01*
X111469492Y-73106531D01*
X111407602Y-72957117D01*
X111215867Y-72670165D01*
X111017233Y-72471531D01*
X111350074Y-72471531D01*
X111460921Y-72748714D01*
X111771840Y-72902089D01*
X112106705Y-72991860D01*
X112452650Y-73014576D01*
X112796380Y-72969366D01*
X113124685Y-72857966D01*
X113329079Y-72748714D01*
X113439926Y-72471531D01*
X112395000Y-71426605D01*
X111350074Y-72471531D01*
X111017233Y-72471531D01*
X110971835Y-72426133D01*
X110684883Y-72234398D01*
X110366039Y-72102329D01*
X110027557Y-72035000D01*
X109682443Y-72035000D01*
X109343961Y-72102329D01*
X109025117Y-72234398D01*
X108738165Y-72426133D01*
X108494133Y-72670165D01*
X108302398Y-72957117D01*
X108170329Y-73275961D01*
X108103000Y-73614443D01*
X105961351Y-73614443D01*
X105961702Y-72471531D01*
X106270074Y-72471531D01*
X106380921Y-72748714D01*
X106691840Y-72902089D01*
X107026705Y-72991860D01*
X107372650Y-73014576D01*
X107716380Y-72969366D01*
X108044685Y-72857966D01*
X108249079Y-72748714D01*
X108359926Y-72471531D01*
X107315000Y-71426605D01*
X106270074Y-72471531D01*
X105961702Y-72471531D01*
X105961773Y-72240460D01*
X106090469Y-72291926D01*
X107135395Y-71247000D01*
X107494605Y-71247000D01*
X108539531Y-72291926D01*
X108816714Y-72181079D01*
X108970089Y-71870160D01*
X109059860Y-71535295D01*
X109075004Y-71304650D01*
X110627424Y-71304650D01*
X110672634Y-71648380D01*
X110784034Y-71976685D01*
X110893286Y-72181079D01*
X111170469Y-72291926D01*
X112215395Y-71247000D01*
X112574605Y-71247000D01*
X113619531Y-72291926D01*
X113896714Y-72181079D01*
X114050089Y-71870160D01*
X114062915Y-71822314D01*
X117885000Y-71822314D01*
X117885000Y-71941686D01*
X117908288Y-72058764D01*
X117953970Y-72169049D01*
X118020289Y-72268302D01*
X118104698Y-72352711D01*
X118203951Y-72419030D01*
X118314236Y-72464712D01*
X118431314Y-72488000D01*
X118550686Y-72488000D01*
X118667764Y-72464712D01*
X118778049Y-72419030D01*
X118877302Y-72352711D01*
X118961711Y-72268302D01*
X119028030Y-72169049D01*
X119073712Y-72058764D01*
X119097000Y-71941686D01*
X119097000Y-71822314D01*
X119155000Y-71822314D01*
X119155000Y-71941686D01*
X119178288Y-72058764D01*
X119223970Y-72169049D01*
X119290289Y-72268302D01*
X119374698Y-72352711D01*
X119473951Y-72419030D01*
X119584236Y-72464712D01*
X119701314Y-72488000D01*
X119820686Y-72488000D01*
X119937764Y-72464712D01*
X120048049Y-72419030D01*
X120147302Y-72352711D01*
X120231711Y-72268302D01*
X120237564Y-72259542D01*
X120268600Y-72305991D01*
X120353009Y-72390400D01*
X120452262Y-72456719D01*
X120562547Y-72502401D01*
X120679625Y-72525689D01*
X120798997Y-72525689D01*
X120916075Y-72502401D01*
X121026360Y-72456719D01*
X121125613Y-72390400D01*
X121210022Y-72305991D01*
X121276341Y-72206738D01*
X121322023Y-72096453D01*
X121345311Y-71979375D01*
X121345311Y-71860003D01*
X121322023Y-71742925D01*
X121276341Y-71632640D01*
X121210022Y-71533387D01*
X121125613Y-71448978D01*
X121026360Y-71382659D01*
X120916075Y-71336977D01*
X120798997Y-71313689D01*
X120679625Y-71313689D01*
X120562547Y-71336977D01*
X120452262Y-71382659D01*
X120353009Y-71448978D01*
X120268600Y-71533387D01*
X120262747Y-71542147D01*
X120231711Y-71495698D01*
X120147302Y-71411289D01*
X120048049Y-71344970D01*
X119937764Y-71299288D01*
X119820686Y-71276000D01*
X119701314Y-71276000D01*
X119584236Y-71299288D01*
X119473951Y-71344970D01*
X119374698Y-71411289D01*
X119290289Y-71495698D01*
X119223970Y-71594951D01*
X119178288Y-71705236D01*
X119155000Y-71822314D01*
X119097000Y-71822314D01*
X119073712Y-71705236D01*
X119028030Y-71594951D01*
X118961711Y-71495698D01*
X118877302Y-71411289D01*
X118778049Y-71344970D01*
X118667764Y-71299288D01*
X118550686Y-71276000D01*
X118431314Y-71276000D01*
X118314236Y-71299288D01*
X118203951Y-71344970D01*
X118104698Y-71411289D01*
X118020289Y-71495698D01*
X117953970Y-71594951D01*
X117908288Y-71705236D01*
X117885000Y-71822314D01*
X114062915Y-71822314D01*
X114139860Y-71535295D01*
X114162576Y-71189350D01*
X114142418Y-71036085D01*
X124243000Y-71036085D01*
X124243000Y-71203915D01*
X124275742Y-71368519D01*
X124339968Y-71523573D01*
X124433209Y-71663118D01*
X124551882Y-71781791D01*
X124691427Y-71875032D01*
X124846481Y-71939258D01*
X125011085Y-71972000D01*
X125178915Y-71972000D01*
X125343519Y-71939258D01*
X125498573Y-71875032D01*
X125638118Y-71781791D01*
X125756791Y-71663118D01*
X125850032Y-71523573D01*
X125914258Y-71368519D01*
X125947000Y-71203915D01*
X125947000Y-71036085D01*
X127418000Y-71036085D01*
X127418000Y-71203915D01*
X127450742Y-71368519D01*
X127514968Y-71523573D01*
X127608209Y-71663118D01*
X127726882Y-71781791D01*
X127866427Y-71875032D01*
X128021481Y-71939258D01*
X128186085Y-71972000D01*
X128353915Y-71972000D01*
X128518519Y-71939258D01*
X128673573Y-71875032D01*
X128813118Y-71781791D01*
X128931791Y-71663118D01*
X129025032Y-71523573D01*
X129089258Y-71368519D01*
X129122000Y-71203915D01*
X129122000Y-71036085D01*
X130593000Y-71036085D01*
X130593000Y-71203915D01*
X130625742Y-71368519D01*
X130689968Y-71523573D01*
X130783209Y-71663118D01*
X130901882Y-71781791D01*
X131041427Y-71875032D01*
X131196481Y-71939258D01*
X131361085Y-71972000D01*
X131528915Y-71972000D01*
X131693519Y-71939258D01*
X131848573Y-71875032D01*
X131988118Y-71781791D01*
X132106791Y-71663118D01*
X132170137Y-71568314D01*
X134903000Y-71568314D01*
X134903000Y-71687686D01*
X134926288Y-71804764D01*
X134971970Y-71915049D01*
X135038289Y-72014302D01*
X135122698Y-72098711D01*
X135221951Y-72165030D01*
X135332236Y-72210712D01*
X135449314Y-72234000D01*
X135568686Y-72234000D01*
X135685764Y-72210712D01*
X135796049Y-72165030D01*
X135895302Y-72098711D01*
X135979711Y-72014302D01*
X136046030Y-71915049D01*
X136091712Y-71804764D01*
X136113482Y-71695314D01*
X137189000Y-71695314D01*
X137189000Y-71814686D01*
X137212288Y-71931764D01*
X137257970Y-72042049D01*
X137324289Y-72141302D01*
X137408698Y-72225711D01*
X137507951Y-72292030D01*
X137618236Y-72337712D01*
X137735314Y-72361000D01*
X137854686Y-72361000D01*
X137971764Y-72337712D01*
X138082049Y-72292030D01*
X138181302Y-72225711D01*
X138265711Y-72141302D01*
X138332030Y-72042049D01*
X138374445Y-71939650D01*
X148092424Y-71939650D01*
X148137634Y-72283380D01*
X148249034Y-72611685D01*
X148358286Y-72816079D01*
X148635469Y-72926926D01*
X149680395Y-71882000D01*
X150039605Y-71882000D01*
X151084531Y-72926926D01*
X151361714Y-72816079D01*
X151515089Y-72505160D01*
X151604860Y-72170295D01*
X151620004Y-71939650D01*
X153172424Y-71939650D01*
X153217634Y-72283380D01*
X153329034Y-72611685D01*
X153438286Y-72816079D01*
X153715469Y-72926926D01*
X154760395Y-71882000D01*
X153715469Y-70837074D01*
X153438286Y-70947921D01*
X153284911Y-71258840D01*
X153195140Y-71593705D01*
X153172424Y-71939650D01*
X151620004Y-71939650D01*
X151627576Y-71824350D01*
X151582366Y-71480620D01*
X151470966Y-71152315D01*
X151361714Y-70947921D01*
X151084531Y-70837074D01*
X150039605Y-71882000D01*
X149680395Y-71882000D01*
X148635469Y-70837074D01*
X148358286Y-70947921D01*
X148204911Y-71258840D01*
X148115140Y-71593705D01*
X148092424Y-71939650D01*
X138374445Y-71939650D01*
X138377712Y-71931764D01*
X138401000Y-71814686D01*
X138401000Y-71695314D01*
X138377712Y-71578236D01*
X138332030Y-71467951D01*
X138265711Y-71368698D01*
X138181302Y-71284289D01*
X138082049Y-71217970D01*
X137971764Y-71172288D01*
X137854686Y-71149000D01*
X137735314Y-71149000D01*
X137618236Y-71172288D01*
X137507951Y-71217970D01*
X137408698Y-71284289D01*
X137324289Y-71368698D01*
X137257970Y-71467951D01*
X137212288Y-71578236D01*
X137189000Y-71695314D01*
X136113482Y-71695314D01*
X136115000Y-71687686D01*
X136115000Y-71568314D01*
X136091712Y-71451236D01*
X136046030Y-71340951D01*
X135979711Y-71241698D01*
X135895302Y-71157289D01*
X135796049Y-71090970D01*
X135685764Y-71045288D01*
X135568686Y-71022000D01*
X135449314Y-71022000D01*
X135332236Y-71045288D01*
X135221951Y-71090970D01*
X135122698Y-71157289D01*
X135038289Y-71241698D01*
X134971970Y-71340951D01*
X134926288Y-71451236D01*
X134903000Y-71568314D01*
X132170137Y-71568314D01*
X132200032Y-71523573D01*
X132264258Y-71368519D01*
X132297000Y-71203915D01*
X132297000Y-71036085D01*
X132264258Y-70871481D01*
X132200032Y-70716427D01*
X132160638Y-70657469D01*
X148815074Y-70657469D01*
X149860000Y-71702395D01*
X150904926Y-70657469D01*
X153895074Y-70657469D01*
X154940000Y-71702395D01*
X155984926Y-70657469D01*
X155874079Y-70380286D01*
X155563160Y-70226911D01*
X155228295Y-70137140D01*
X154882350Y-70114424D01*
X154538620Y-70159634D01*
X154210315Y-70271034D01*
X154005921Y-70380286D01*
X153895074Y-70657469D01*
X150904926Y-70657469D01*
X150794079Y-70380286D01*
X150483160Y-70226911D01*
X150148295Y-70137140D01*
X149802350Y-70114424D01*
X149458620Y-70159634D01*
X149130315Y-70271034D01*
X148925921Y-70380286D01*
X148815074Y-70657469D01*
X132160638Y-70657469D01*
X132106791Y-70576882D01*
X131988118Y-70458209D01*
X131848573Y-70364968D01*
X131693519Y-70300742D01*
X131528915Y-70268000D01*
X131361085Y-70268000D01*
X131196481Y-70300742D01*
X131041427Y-70364968D01*
X130901882Y-70458209D01*
X130783209Y-70576882D01*
X130689968Y-70716427D01*
X130625742Y-70871481D01*
X130593000Y-71036085D01*
X129122000Y-71036085D01*
X129089258Y-70871481D01*
X129025032Y-70716427D01*
X128931791Y-70576882D01*
X128813118Y-70458209D01*
X128673573Y-70364968D01*
X128518519Y-70300742D01*
X128353915Y-70268000D01*
X128186085Y-70268000D01*
X128021481Y-70300742D01*
X127866427Y-70364968D01*
X127726882Y-70458209D01*
X127608209Y-70576882D01*
X127514968Y-70716427D01*
X127450742Y-70871481D01*
X127418000Y-71036085D01*
X125947000Y-71036085D01*
X125914258Y-70871481D01*
X125850032Y-70716427D01*
X125756791Y-70576882D01*
X125638118Y-70458209D01*
X125498573Y-70364968D01*
X125343519Y-70300742D01*
X125178915Y-70268000D01*
X125011085Y-70268000D01*
X124846481Y-70300742D01*
X124691427Y-70364968D01*
X124551882Y-70458209D01*
X124433209Y-70576882D01*
X124339968Y-70716427D01*
X124275742Y-70871481D01*
X124243000Y-71036085D01*
X114142418Y-71036085D01*
X114117366Y-70845620D01*
X114005966Y-70517315D01*
X113896714Y-70312921D01*
X113619531Y-70202074D01*
X112574605Y-71247000D01*
X112215395Y-71247000D01*
X111170469Y-70202074D01*
X110893286Y-70312921D01*
X110739911Y-70623840D01*
X110650140Y-70958705D01*
X110627424Y-71304650D01*
X109075004Y-71304650D01*
X109082576Y-71189350D01*
X109037366Y-70845620D01*
X108925966Y-70517315D01*
X108816714Y-70312921D01*
X108539531Y-70202074D01*
X107494605Y-71247000D01*
X107135395Y-71247000D01*
X106090469Y-70202074D01*
X105962383Y-70253296D01*
X105962453Y-70022469D01*
X106270074Y-70022469D01*
X107315000Y-71067395D01*
X108359926Y-70022469D01*
X111350074Y-70022469D01*
X112395000Y-71067395D01*
X113439926Y-70022469D01*
X113329079Y-69745286D01*
X113018160Y-69591911D01*
X112683295Y-69502140D01*
X112337350Y-69479424D01*
X111993620Y-69524634D01*
X111665315Y-69636034D01*
X111460921Y-69745286D01*
X111350074Y-70022469D01*
X108359926Y-70022469D01*
X108249079Y-69745286D01*
X107938160Y-69591911D01*
X107603295Y-69502140D01*
X107257350Y-69479424D01*
X106913620Y-69524634D01*
X106585315Y-69636034D01*
X106380921Y-69745286D01*
X106270074Y-70022469D01*
X105962453Y-70022469D01*
X105963115Y-67861085D01*
X124243000Y-67861085D01*
X124243000Y-68028915D01*
X124275742Y-68193519D01*
X124339968Y-68348573D01*
X124433209Y-68488118D01*
X124551882Y-68606791D01*
X124691427Y-68700032D01*
X124846481Y-68764258D01*
X125011085Y-68797000D01*
X125178915Y-68797000D01*
X125343519Y-68764258D01*
X125498573Y-68700032D01*
X125638118Y-68606791D01*
X125756791Y-68488118D01*
X125850032Y-68348573D01*
X125914258Y-68193519D01*
X125947000Y-68028915D01*
X125947000Y-67861085D01*
X127418000Y-67861085D01*
X127418000Y-68028915D01*
X127450742Y-68193519D01*
X127514968Y-68348573D01*
X127608209Y-68488118D01*
X127726882Y-68606791D01*
X127866427Y-68700032D01*
X128021481Y-68764258D01*
X128186085Y-68797000D01*
X128353915Y-68797000D01*
X128518519Y-68764258D01*
X128673573Y-68700032D01*
X128813118Y-68606791D01*
X128931791Y-68488118D01*
X129025032Y-68348573D01*
X129089258Y-68193519D01*
X129122000Y-68028915D01*
X129122000Y-67861085D01*
X130593000Y-67861085D01*
X130593000Y-68028915D01*
X130625742Y-68193519D01*
X130689968Y-68348573D01*
X130783209Y-68488118D01*
X130901882Y-68606791D01*
X131041427Y-68700032D01*
X131196481Y-68764258D01*
X131361085Y-68797000D01*
X131528915Y-68797000D01*
X131693519Y-68764258D01*
X131848573Y-68700032D01*
X131988118Y-68606791D01*
X132106791Y-68488118D01*
X132200032Y-68348573D01*
X132264258Y-68193519D01*
X132297000Y-68028915D01*
X132297000Y-67861085D01*
X132264258Y-67696481D01*
X132200032Y-67541427D01*
X132106791Y-67401882D01*
X131988118Y-67283209D01*
X131848573Y-67189968D01*
X131693519Y-67125742D01*
X131528915Y-67093000D01*
X131361085Y-67093000D01*
X131196481Y-67125742D01*
X131041427Y-67189968D01*
X130901882Y-67283209D01*
X130783209Y-67401882D01*
X130689968Y-67541427D01*
X130625742Y-67696481D01*
X130593000Y-67861085D01*
X129122000Y-67861085D01*
X129089258Y-67696481D01*
X129025032Y-67541427D01*
X128931791Y-67401882D01*
X128813118Y-67283209D01*
X128673573Y-67189968D01*
X128518519Y-67125742D01*
X128353915Y-67093000D01*
X128186085Y-67093000D01*
X128021481Y-67125742D01*
X127866427Y-67189968D01*
X127726882Y-67283209D01*
X127608209Y-67401882D01*
X127514968Y-67541427D01*
X127450742Y-67696481D01*
X127418000Y-67861085D01*
X125947000Y-67861085D01*
X125914258Y-67696481D01*
X125850032Y-67541427D01*
X125756791Y-67401882D01*
X125638118Y-67283209D01*
X125498573Y-67189968D01*
X125343519Y-67125742D01*
X125178915Y-67093000D01*
X125011085Y-67093000D01*
X124846481Y-67125742D01*
X124691427Y-67189968D01*
X124551882Y-67283209D01*
X124433209Y-67401882D01*
X124339968Y-67541427D01*
X124275742Y-67696481D01*
X124243000Y-67861085D01*
X105963115Y-67861085D01*
X105963831Y-65527389D01*
X117462500Y-65527389D01*
X117462500Y-65917611D01*
X117538629Y-66300336D01*
X117687961Y-66660855D01*
X117904757Y-66985314D01*
X118180686Y-67261243D01*
X118505145Y-67478039D01*
X118865664Y-67627371D01*
X119248389Y-67703500D01*
X119638611Y-67703500D01*
X120021336Y-67627371D01*
X120381855Y-67478039D01*
X120706314Y-67261243D01*
X120982243Y-66985314D01*
X121199039Y-66660855D01*
X121348371Y-66300336D01*
X121424500Y-65917611D01*
X121424500Y-65654541D01*
X122065064Y-65654541D01*
X122075575Y-65847763D01*
X122245603Y-65918562D01*
X122426176Y-65954828D01*
X122610355Y-65955171D01*
X122791061Y-65919574D01*
X122961351Y-65849408D01*
X122964425Y-65847763D01*
X122974936Y-65654541D01*
X133565064Y-65654541D01*
X133575575Y-65847763D01*
X133745603Y-65918562D01*
X133926176Y-65954828D01*
X134110355Y-65955171D01*
X134291061Y-65919574D01*
X134461351Y-65849408D01*
X134464425Y-65847763D01*
X134474936Y-65654541D01*
X134347784Y-65527389D01*
X135179000Y-65527389D01*
X135179000Y-65917611D01*
X135255129Y-66300336D01*
X135404461Y-66660855D01*
X135621257Y-66985314D01*
X135897186Y-67261243D01*
X136221645Y-67478039D01*
X136582164Y-67627371D01*
X136964889Y-67703500D01*
X137355111Y-67703500D01*
X137737836Y-67627371D01*
X138098355Y-67478039D01*
X138422814Y-67261243D01*
X138698743Y-66985314D01*
X138915539Y-66660855D01*
X139064871Y-66300336D01*
X139141000Y-65917611D01*
X139141000Y-65527389D01*
X139064871Y-65144664D01*
X138915539Y-64784145D01*
X138875707Y-64724531D01*
X148815074Y-64724531D01*
X148925921Y-65001714D01*
X149236840Y-65155089D01*
X149571705Y-65244860D01*
X149917650Y-65267576D01*
X150261380Y-65222366D01*
X150589685Y-65110966D01*
X150794079Y-65001714D01*
X150904926Y-64724531D01*
X153895074Y-64724531D01*
X154005921Y-65001714D01*
X154316840Y-65155089D01*
X154651705Y-65244860D01*
X154997650Y-65267576D01*
X155341380Y-65222366D01*
X155669685Y-65110966D01*
X155874079Y-65001714D01*
X155984926Y-64724531D01*
X154940000Y-63679605D01*
X153895074Y-64724531D01*
X150904926Y-64724531D01*
X149860000Y-63679605D01*
X148815074Y-64724531D01*
X138875707Y-64724531D01*
X138698743Y-64459686D01*
X138422814Y-64183757D01*
X138098355Y-63966961D01*
X137737836Y-63817629D01*
X137355111Y-63741500D01*
X136964889Y-63741500D01*
X136582164Y-63817629D01*
X136221645Y-63966961D01*
X135897186Y-64183757D01*
X135621257Y-64459686D01*
X135404461Y-64784145D01*
X135255129Y-65144664D01*
X135179000Y-65527389D01*
X134347784Y-65527389D01*
X134020000Y-65199605D01*
X133565064Y-65654541D01*
X122974936Y-65654541D01*
X122520000Y-65199605D01*
X122065064Y-65654541D01*
X121424500Y-65654541D01*
X121424500Y-65527389D01*
X121348371Y-65144664D01*
X121334160Y-65110355D01*
X121584829Y-65110355D01*
X121620426Y-65291061D01*
X121690592Y-65461351D01*
X121692237Y-65464425D01*
X121885459Y-65474936D01*
X122340395Y-65020000D01*
X122699605Y-65020000D01*
X123154541Y-65474936D01*
X123347763Y-65464425D01*
X123418562Y-65294397D01*
X123454828Y-65113824D01*
X123454834Y-65110355D01*
X133084829Y-65110355D01*
X133120426Y-65291061D01*
X133190592Y-65461351D01*
X133192237Y-65464425D01*
X133385459Y-65474936D01*
X133840395Y-65020000D01*
X134199605Y-65020000D01*
X134654541Y-65474936D01*
X134847763Y-65464425D01*
X134918562Y-65294397D01*
X134954828Y-65113824D01*
X134955171Y-64929645D01*
X134919574Y-64748939D01*
X134849408Y-64578649D01*
X134847763Y-64575575D01*
X134654541Y-64565064D01*
X134199605Y-65020000D01*
X133840395Y-65020000D01*
X133385459Y-64565064D01*
X133192237Y-64575575D01*
X133121438Y-64745603D01*
X133085172Y-64926176D01*
X133084829Y-65110355D01*
X123454834Y-65110355D01*
X123455171Y-64929645D01*
X123419574Y-64748939D01*
X123349408Y-64578649D01*
X123347763Y-64575575D01*
X123154541Y-64565064D01*
X122699605Y-65020000D01*
X122340395Y-65020000D01*
X121885459Y-64565064D01*
X121692237Y-64575575D01*
X121621438Y-64745603D01*
X121585172Y-64926176D01*
X121584829Y-65110355D01*
X121334160Y-65110355D01*
X121199039Y-64784145D01*
X120982243Y-64459686D01*
X120908016Y-64385459D01*
X122065064Y-64385459D01*
X122520000Y-64840395D01*
X122974936Y-64385459D01*
X133565064Y-64385459D01*
X134020000Y-64840395D01*
X134474936Y-64385459D01*
X134464425Y-64192237D01*
X134294397Y-64121438D01*
X134113824Y-64085172D01*
X133929645Y-64084829D01*
X133748939Y-64120426D01*
X133578649Y-64190592D01*
X133575575Y-64192237D01*
X133565064Y-64385459D01*
X122974936Y-64385459D01*
X122964425Y-64192237D01*
X122794397Y-64121438D01*
X122613824Y-64085172D01*
X122429645Y-64084829D01*
X122248939Y-64120426D01*
X122078649Y-64190592D01*
X122075575Y-64192237D01*
X122065064Y-64385459D01*
X120908016Y-64385459D01*
X120706314Y-64183757D01*
X120381855Y-63966961D01*
X120021336Y-63817629D01*
X119638611Y-63741500D01*
X119248389Y-63741500D01*
X118865664Y-63817629D01*
X118505145Y-63966961D01*
X118180686Y-64183757D01*
X117904757Y-64459686D01*
X117687961Y-64784145D01*
X117538629Y-65144664D01*
X117462500Y-65527389D01*
X105963831Y-65527389D01*
X105964435Y-63557650D01*
X148092424Y-63557650D01*
X148137634Y-63901380D01*
X148249034Y-64229685D01*
X148358286Y-64434079D01*
X148635469Y-64544926D01*
X149680395Y-63500000D01*
X150039605Y-63500000D01*
X151084531Y-64544926D01*
X151361714Y-64434079D01*
X151515089Y-64123160D01*
X151604860Y-63788295D01*
X151620004Y-63557650D01*
X153172424Y-63557650D01*
X153217634Y-63901380D01*
X153329034Y-64229685D01*
X153438286Y-64434079D01*
X153715469Y-64544926D01*
X154760395Y-63500000D01*
X153715469Y-62455074D01*
X153438286Y-62565921D01*
X153284911Y-62876840D01*
X153195140Y-63211705D01*
X153172424Y-63557650D01*
X151620004Y-63557650D01*
X151627576Y-63442350D01*
X151582366Y-63098620D01*
X151470966Y-62770315D01*
X151361714Y-62565921D01*
X151084531Y-62455074D01*
X150039605Y-63500000D01*
X149680395Y-63500000D01*
X148635469Y-62455074D01*
X148358286Y-62565921D01*
X148204911Y-62876840D01*
X148115140Y-63211705D01*
X148092424Y-63557650D01*
X105964435Y-63557650D01*
X105964828Y-62275469D01*
X148815074Y-62275469D01*
X149860000Y-63320395D01*
X150904926Y-62275469D01*
X150794079Y-61998286D01*
X150483160Y-61844911D01*
X150148295Y-61755140D01*
X149802350Y-61732424D01*
X149458620Y-61777634D01*
X149130315Y-61889034D01*
X148925921Y-61998286D01*
X148815074Y-62275469D01*
X105964828Y-62275469D01*
X105965276Y-60811672D01*
X150894000Y-60811672D01*
X150894000Y-61108328D01*
X150951875Y-61399284D01*
X151065400Y-61673359D01*
X151230213Y-61920019D01*
X151439981Y-62129787D01*
X151686641Y-62294600D01*
X151960716Y-62408125D01*
X152251672Y-62466000D01*
X152548328Y-62466000D01*
X152839284Y-62408125D01*
X153113359Y-62294600D01*
X153141990Y-62275469D01*
X153895074Y-62275469D01*
X154940000Y-63320395D01*
X155984926Y-62275469D01*
X155874079Y-61998286D01*
X155563160Y-61844911D01*
X155228295Y-61755140D01*
X154882350Y-61732424D01*
X154538620Y-61777634D01*
X154210315Y-61889034D01*
X154005921Y-61998286D01*
X153895074Y-62275469D01*
X153141990Y-62275469D01*
X153360019Y-62129787D01*
X153569787Y-61920019D01*
X153734600Y-61673359D01*
X153848125Y-61399284D01*
X153906000Y-61108328D01*
X153906000Y-60811672D01*
X153848125Y-60520716D01*
X153734600Y-60246641D01*
X153569787Y-59999981D01*
X153360019Y-59790213D01*
X153141991Y-59644531D01*
X153895074Y-59644531D01*
X154005921Y-59921714D01*
X154316840Y-60075089D01*
X154651705Y-60164860D01*
X154997650Y-60187576D01*
X155341380Y-60142366D01*
X155669685Y-60030966D01*
X155874079Y-59921714D01*
X155984926Y-59644531D01*
X154940000Y-58599605D01*
X153895074Y-59644531D01*
X153141991Y-59644531D01*
X153113359Y-59625400D01*
X152839284Y-59511875D01*
X152548328Y-59454000D01*
X152251672Y-59454000D01*
X151960716Y-59511875D01*
X151686641Y-59625400D01*
X151439981Y-59790213D01*
X151230213Y-59999981D01*
X151065400Y-60246641D01*
X150951875Y-60520716D01*
X150894000Y-60811672D01*
X105965276Y-60811672D01*
X105965635Y-59644531D01*
X148815074Y-59644531D01*
X148925921Y-59921714D01*
X149236840Y-60075089D01*
X149571705Y-60164860D01*
X149917650Y-60187576D01*
X150261380Y-60142366D01*
X150589685Y-60030966D01*
X150794079Y-59921714D01*
X150904926Y-59644531D01*
X149860000Y-58599605D01*
X148815074Y-59644531D01*
X105965635Y-59644531D01*
X105965993Y-58477650D01*
X148092424Y-58477650D01*
X148137634Y-58821380D01*
X148249034Y-59149685D01*
X148358286Y-59354079D01*
X148635469Y-59464926D01*
X149680395Y-58420000D01*
X150039605Y-58420000D01*
X151084531Y-59464926D01*
X151361714Y-59354079D01*
X151515089Y-59043160D01*
X151604860Y-58708295D01*
X151620004Y-58477650D01*
X153172424Y-58477650D01*
X153217634Y-58821380D01*
X153329034Y-59149685D01*
X153438286Y-59354079D01*
X153715469Y-59464926D01*
X154760395Y-58420000D01*
X153715469Y-57375074D01*
X153438286Y-57485921D01*
X153284911Y-57796840D01*
X153195140Y-58131705D01*
X153172424Y-58477650D01*
X151620004Y-58477650D01*
X151627576Y-58362350D01*
X151582366Y-58018620D01*
X151470966Y-57690315D01*
X151361714Y-57485921D01*
X151084531Y-57375074D01*
X150039605Y-58420000D01*
X149680395Y-58420000D01*
X148635469Y-57375074D01*
X148358286Y-57485921D01*
X148204911Y-57796840D01*
X148115140Y-58131705D01*
X148092424Y-58477650D01*
X105965993Y-58477650D01*
X105966386Y-57195469D01*
X148815074Y-57195469D01*
X149860000Y-58240395D01*
X150904926Y-57195469D01*
X153895074Y-57195469D01*
X154940000Y-58240395D01*
X155984926Y-57195469D01*
X155874079Y-56918286D01*
X155563160Y-56764911D01*
X155228295Y-56675140D01*
X154882350Y-56652424D01*
X154538620Y-56697634D01*
X154210315Y-56809034D01*
X154005921Y-56918286D01*
X153895074Y-57195469D01*
X150904926Y-57195469D01*
X150794079Y-56918286D01*
X150483160Y-56764911D01*
X150148295Y-56675140D01*
X149802350Y-56652424D01*
X149458620Y-56697634D01*
X149130315Y-56809034D01*
X148925921Y-56918286D01*
X148815074Y-57195469D01*
X105966386Y-57195469D01*
X105967248Y-54389813D01*
X106641000Y-54389813D01*
X106641000Y-54770187D01*
X106715208Y-55143252D01*
X106860770Y-55494671D01*
X107072095Y-55810941D01*
X107341059Y-56079905D01*
X107657329Y-56291230D01*
X108008748Y-56436792D01*
X108381813Y-56511000D01*
X108762187Y-56511000D01*
X109135252Y-56436792D01*
X109486671Y-56291230D01*
X109802941Y-56079905D01*
X110071905Y-55810941D01*
X110283230Y-55494671D01*
X110428792Y-55143252D01*
X110463872Y-54966891D01*
X112350519Y-54966891D01*
X112447843Y-55241252D01*
X112596822Y-55491355D01*
X112791731Y-55707588D01*
X113025080Y-55881641D01*
X113287901Y-56006825D01*
X113435110Y-56051476D01*
X113665000Y-55930155D01*
X113665000Y-54737000D01*
X112471186Y-54737000D01*
X112350519Y-54966891D01*
X110463872Y-54966891D01*
X110503000Y-54770187D01*
X110503000Y-54389813D01*
X110475808Y-54253109D01*
X112350519Y-54253109D01*
X112471186Y-54483000D01*
X113665000Y-54483000D01*
X113665000Y-53289845D01*
X113919000Y-53289845D01*
X113919000Y-54483000D01*
X113939000Y-54483000D01*
X113939000Y-54737000D01*
X113919000Y-54737000D01*
X113919000Y-55930155D01*
X114148890Y-56051476D01*
X114296099Y-56006825D01*
X114558920Y-55881641D01*
X114792269Y-55707588D01*
X114987178Y-55491355D01*
X115136157Y-55241252D01*
X115193772Y-55078832D01*
X115241102Y-55193097D01*
X115375820Y-55394717D01*
X115547283Y-55566180D01*
X115748903Y-55700898D01*
X115972931Y-55793693D01*
X116210757Y-55841000D01*
X116453243Y-55841000D01*
X116691069Y-55793693D01*
X116915097Y-55700898D01*
X117116717Y-55566180D01*
X117288180Y-55394717D01*
X117422898Y-55193097D01*
X117515693Y-54969069D01*
X117563000Y-54731243D01*
X117563000Y-54488757D01*
X117641000Y-54488757D01*
X117641000Y-54731243D01*
X117688307Y-54969069D01*
X117781102Y-55193097D01*
X117915820Y-55394717D01*
X118087283Y-55566180D01*
X118288903Y-55700898D01*
X118512931Y-55793693D01*
X118750757Y-55841000D01*
X118993243Y-55841000D01*
X119231069Y-55793693D01*
X119455097Y-55700898D01*
X119656717Y-55566180D01*
X119828180Y-55394717D01*
X119962898Y-55193097D01*
X120055693Y-54969069D01*
X120103000Y-54731243D01*
X120103000Y-54488757D01*
X120181000Y-54488757D01*
X120181000Y-54731243D01*
X120228307Y-54969069D01*
X120321102Y-55193097D01*
X120455820Y-55394717D01*
X120627283Y-55566180D01*
X120828903Y-55700898D01*
X121052931Y-55793693D01*
X121290757Y-55841000D01*
X121533243Y-55841000D01*
X121771069Y-55793693D01*
X121995097Y-55700898D01*
X122196717Y-55566180D01*
X122368180Y-55394717D01*
X122502898Y-55193097D01*
X122595693Y-54969069D01*
X122643000Y-54731243D01*
X122643000Y-54488757D01*
X122721000Y-54488757D01*
X122721000Y-54731243D01*
X122768307Y-54969069D01*
X122861102Y-55193097D01*
X122995820Y-55394717D01*
X123167283Y-55566180D01*
X123368903Y-55700898D01*
X123592931Y-55793693D01*
X123830757Y-55841000D01*
X124073243Y-55841000D01*
X124311069Y-55793693D01*
X124535097Y-55700898D01*
X124736717Y-55566180D01*
X124908180Y-55394717D01*
X125042898Y-55193097D01*
X125135693Y-54969069D01*
X125183000Y-54731243D01*
X125183000Y-54488757D01*
X125135693Y-54250931D01*
X125042898Y-54026903D01*
X124908180Y-53825283D01*
X124842897Y-53760000D01*
X125259157Y-53760000D01*
X125259157Y-55460000D01*
X125266513Y-55534689D01*
X125288299Y-55606508D01*
X125323678Y-55672696D01*
X125371289Y-55730711D01*
X125429304Y-55778322D01*
X125495492Y-55813701D01*
X125567311Y-55835487D01*
X125642000Y-55842843D01*
X127342000Y-55842843D01*
X127416689Y-55835487D01*
X127488508Y-55813701D01*
X127554696Y-55778322D01*
X127612711Y-55730711D01*
X127660322Y-55672696D01*
X127695701Y-55606508D01*
X127717487Y-55534689D01*
X127724843Y-55460000D01*
X127724843Y-53760000D01*
X129704157Y-53760000D01*
X129704157Y-55460000D01*
X129711513Y-55534689D01*
X129733299Y-55606508D01*
X129768678Y-55672696D01*
X129816289Y-55730711D01*
X129874304Y-55778322D01*
X129940492Y-55813701D01*
X130012311Y-55835487D01*
X130087000Y-55842843D01*
X131787000Y-55842843D01*
X131861689Y-55835487D01*
X131933508Y-55813701D01*
X131999696Y-55778322D01*
X132057711Y-55730711D01*
X132105322Y-55672696D01*
X132140701Y-55606508D01*
X132162487Y-55534689D01*
X132169843Y-55460000D01*
X132169843Y-54488757D01*
X132246000Y-54488757D01*
X132246000Y-54731243D01*
X132293307Y-54969069D01*
X132386102Y-55193097D01*
X132520820Y-55394717D01*
X132692283Y-55566180D01*
X132893903Y-55700898D01*
X133117931Y-55793693D01*
X133355757Y-55841000D01*
X133598243Y-55841000D01*
X133836069Y-55793693D01*
X134060097Y-55700898D01*
X134261717Y-55566180D01*
X134433180Y-55394717D01*
X134567898Y-55193097D01*
X134660693Y-54969069D01*
X134708000Y-54731243D01*
X134708000Y-54488757D01*
X134786000Y-54488757D01*
X134786000Y-54731243D01*
X134833307Y-54969069D01*
X134926102Y-55193097D01*
X135060820Y-55394717D01*
X135232283Y-55566180D01*
X135433903Y-55700898D01*
X135657931Y-55793693D01*
X135895757Y-55841000D01*
X136138243Y-55841000D01*
X136376069Y-55793693D01*
X136600097Y-55700898D01*
X136801717Y-55566180D01*
X136973180Y-55394717D01*
X137107898Y-55193097D01*
X137200693Y-54969069D01*
X137248000Y-54731243D01*
X137248000Y-54488757D01*
X137326000Y-54488757D01*
X137326000Y-54731243D01*
X137373307Y-54969069D01*
X137466102Y-55193097D01*
X137600820Y-55394717D01*
X137772283Y-55566180D01*
X137973903Y-55700898D01*
X138197931Y-55793693D01*
X138435757Y-55841000D01*
X138678243Y-55841000D01*
X138916069Y-55793693D01*
X139140097Y-55700898D01*
X139341717Y-55566180D01*
X139513180Y-55394717D01*
X139647898Y-55193097D01*
X139740693Y-54969069D01*
X139788000Y-54731243D01*
X139788000Y-54488757D01*
X139866000Y-54488757D01*
X139866000Y-54731243D01*
X139913307Y-54969069D01*
X140006102Y-55193097D01*
X140140820Y-55394717D01*
X140312283Y-55566180D01*
X140513903Y-55700898D01*
X140737931Y-55793693D01*
X140975757Y-55841000D01*
X141218243Y-55841000D01*
X141456069Y-55793693D01*
X141680097Y-55700898D01*
X141881717Y-55566180D01*
X142053180Y-55394717D01*
X142187898Y-55193097D01*
X142235228Y-55078832D01*
X142292843Y-55241252D01*
X142441822Y-55491355D01*
X142636731Y-55707588D01*
X142870080Y-55881641D01*
X143132901Y-56006825D01*
X143280110Y-56051476D01*
X143510000Y-55930155D01*
X143510000Y-54737000D01*
X143764000Y-54737000D01*
X143764000Y-55930155D01*
X143993890Y-56051476D01*
X144141099Y-56006825D01*
X144403920Y-55881641D01*
X144637269Y-55707588D01*
X144832178Y-55491355D01*
X144981157Y-55241252D01*
X145078481Y-54966891D01*
X144957814Y-54737000D01*
X143764000Y-54737000D01*
X143510000Y-54737000D01*
X143490000Y-54737000D01*
X143490000Y-54483000D01*
X143510000Y-54483000D01*
X143510000Y-53289845D01*
X143764000Y-53289845D01*
X143764000Y-54483000D01*
X144957814Y-54483000D01*
X145006726Y-54389813D01*
X151641000Y-54389813D01*
X151641000Y-54770187D01*
X151715208Y-55143252D01*
X151860770Y-55494671D01*
X152072095Y-55810941D01*
X152341059Y-56079905D01*
X152657329Y-56291230D01*
X153008748Y-56436792D01*
X153381813Y-56511000D01*
X153762187Y-56511000D01*
X154135252Y-56436792D01*
X154486671Y-56291230D01*
X154802941Y-56079905D01*
X155071905Y-55810941D01*
X155283230Y-55494671D01*
X155428792Y-55143252D01*
X155503000Y-54770187D01*
X155503000Y-54389813D01*
X155428792Y-54016748D01*
X155283230Y-53665329D01*
X155071905Y-53349059D01*
X154802941Y-53080095D01*
X154486671Y-52868770D01*
X154135252Y-52723208D01*
X153762187Y-52649000D01*
X153381813Y-52649000D01*
X153008748Y-52723208D01*
X152657329Y-52868770D01*
X152341059Y-53080095D01*
X152072095Y-53349059D01*
X151860770Y-53665329D01*
X151715208Y-54016748D01*
X151641000Y-54389813D01*
X145006726Y-54389813D01*
X145078481Y-54253109D01*
X144981157Y-53978748D01*
X144832178Y-53728645D01*
X144637269Y-53512412D01*
X144403920Y-53338359D01*
X144141099Y-53213175D01*
X143993890Y-53168524D01*
X143764000Y-53289845D01*
X143510000Y-53289845D01*
X143280110Y-53168524D01*
X143132901Y-53213175D01*
X142870080Y-53338359D01*
X142636731Y-53512412D01*
X142441822Y-53728645D01*
X142292843Y-53978748D01*
X142235228Y-54141168D01*
X142187898Y-54026903D01*
X142053180Y-53825283D01*
X141881717Y-53653820D01*
X141680097Y-53519102D01*
X141456069Y-53426307D01*
X141218243Y-53379000D01*
X140975757Y-53379000D01*
X140737931Y-53426307D01*
X140513903Y-53519102D01*
X140312283Y-53653820D01*
X140140820Y-53825283D01*
X140006102Y-54026903D01*
X139913307Y-54250931D01*
X139866000Y-54488757D01*
X139788000Y-54488757D01*
X139740693Y-54250931D01*
X139647898Y-54026903D01*
X139513180Y-53825283D01*
X139341717Y-53653820D01*
X139140097Y-53519102D01*
X138916069Y-53426307D01*
X138678243Y-53379000D01*
X138435757Y-53379000D01*
X138197931Y-53426307D01*
X137973903Y-53519102D01*
X137772283Y-53653820D01*
X137600820Y-53825283D01*
X137466102Y-54026903D01*
X137373307Y-54250931D01*
X137326000Y-54488757D01*
X137248000Y-54488757D01*
X137200693Y-54250931D01*
X137107898Y-54026903D01*
X136973180Y-53825283D01*
X136801717Y-53653820D01*
X136600097Y-53519102D01*
X136376069Y-53426307D01*
X136138243Y-53379000D01*
X135895757Y-53379000D01*
X135657931Y-53426307D01*
X135433903Y-53519102D01*
X135232283Y-53653820D01*
X135060820Y-53825283D01*
X134926102Y-54026903D01*
X134833307Y-54250931D01*
X134786000Y-54488757D01*
X134708000Y-54488757D01*
X134660693Y-54250931D01*
X134567898Y-54026903D01*
X134433180Y-53825283D01*
X134261717Y-53653820D01*
X134060097Y-53519102D01*
X133836069Y-53426307D01*
X133598243Y-53379000D01*
X133355757Y-53379000D01*
X133117931Y-53426307D01*
X132893903Y-53519102D01*
X132692283Y-53653820D01*
X132520820Y-53825283D01*
X132386102Y-54026903D01*
X132293307Y-54250931D01*
X132246000Y-54488757D01*
X132169843Y-54488757D01*
X132169843Y-53760000D01*
X132162487Y-53685311D01*
X132140701Y-53613492D01*
X132105322Y-53547304D01*
X132057711Y-53489289D01*
X131999696Y-53441678D01*
X131933508Y-53406299D01*
X131861689Y-53384513D01*
X131787000Y-53377157D01*
X130087000Y-53377157D01*
X130012311Y-53384513D01*
X129940492Y-53406299D01*
X129874304Y-53441678D01*
X129816289Y-53489289D01*
X129768678Y-53547304D01*
X129733299Y-53613492D01*
X129711513Y-53685311D01*
X129704157Y-53760000D01*
X127724843Y-53760000D01*
X127717487Y-53685311D01*
X127695701Y-53613492D01*
X127660322Y-53547304D01*
X127612711Y-53489289D01*
X127554696Y-53441678D01*
X127488508Y-53406299D01*
X127416689Y-53384513D01*
X127342000Y-53377157D01*
X125642000Y-53377157D01*
X125567311Y-53384513D01*
X125495492Y-53406299D01*
X125429304Y-53441678D01*
X125371289Y-53489289D01*
X125323678Y-53547304D01*
X125288299Y-53613492D01*
X125266513Y-53685311D01*
X125259157Y-53760000D01*
X124842897Y-53760000D01*
X124736717Y-53653820D01*
X124535097Y-53519102D01*
X124311069Y-53426307D01*
X124073243Y-53379000D01*
X123830757Y-53379000D01*
X123592931Y-53426307D01*
X123368903Y-53519102D01*
X123167283Y-53653820D01*
X122995820Y-53825283D01*
X122861102Y-54026903D01*
X122768307Y-54250931D01*
X122721000Y-54488757D01*
X122643000Y-54488757D01*
X122595693Y-54250931D01*
X122502898Y-54026903D01*
X122368180Y-53825283D01*
X122196717Y-53653820D01*
X121995097Y-53519102D01*
X121771069Y-53426307D01*
X121533243Y-53379000D01*
X121290757Y-53379000D01*
X121052931Y-53426307D01*
X120828903Y-53519102D01*
X120627283Y-53653820D01*
X120455820Y-53825283D01*
X120321102Y-54026903D01*
X120228307Y-54250931D01*
X120181000Y-54488757D01*
X120103000Y-54488757D01*
X120055693Y-54250931D01*
X119962898Y-54026903D01*
X119828180Y-53825283D01*
X119656717Y-53653820D01*
X119455097Y-53519102D01*
X119231069Y-53426307D01*
X118993243Y-53379000D01*
X118750757Y-53379000D01*
X118512931Y-53426307D01*
X118288903Y-53519102D01*
X118087283Y-53653820D01*
X117915820Y-53825283D01*
X117781102Y-54026903D01*
X117688307Y-54250931D01*
X117641000Y-54488757D01*
X117563000Y-54488757D01*
X117515693Y-54250931D01*
X117422898Y-54026903D01*
X117288180Y-53825283D01*
X117116717Y-53653820D01*
X116915097Y-53519102D01*
X116691069Y-53426307D01*
X116453243Y-53379000D01*
X116210757Y-53379000D01*
X115972931Y-53426307D01*
X115748903Y-53519102D01*
X115547283Y-53653820D01*
X115375820Y-53825283D01*
X115241102Y-54026903D01*
X115193772Y-54141168D01*
X115136157Y-53978748D01*
X114987178Y-53728645D01*
X114792269Y-53512412D01*
X114558920Y-53338359D01*
X114296099Y-53213175D01*
X114148890Y-53168524D01*
X113919000Y-53289845D01*
X113665000Y-53289845D01*
X113435110Y-53168524D01*
X113287901Y-53213175D01*
X113025080Y-53338359D01*
X112791731Y-53512412D01*
X112596822Y-53728645D01*
X112447843Y-53978748D01*
X112350519Y-54253109D01*
X110475808Y-54253109D01*
X110428792Y-54016748D01*
X110283230Y-53665329D01*
X110071905Y-53349059D01*
X109802941Y-53080095D01*
X109486671Y-52868770D01*
X109135252Y-52723208D01*
X108762187Y-52649000D01*
X108381813Y-52649000D01*
X108008748Y-52723208D01*
X107657329Y-52868770D01*
X107341059Y-53080095D01*
X107072095Y-53349059D01*
X106860770Y-53665329D01*
X106715208Y-54016748D01*
X106641000Y-54389813D01*
X105967248Y-54389813D01*
X105967867Y-52374000D01*
X156413798Y-52374000D01*
X156411399Y-57473798D01*
G37*
%TD.AperFunction*%
%TD*%
M02*
