%TF.GenerationSoftware,KiCad,Pcbnew,(5.1.10)-1*%
%TF.CreationDate,2021-07-12T12:28:39+02:00*%
%TF.ProjectId,astropix_v2,61737472-6f70-4697-985f-76322e6b6963,1.0*%
%TF.SameCoordinates,Original*%
%TF.FileFunction,Soldermask,Top*%
%TF.FilePolarity,Negative*%
%FSLAX46Y46*%
G04 Gerber Fmt 4.6, Leading zero omitted, Abs format (unit mm)*
G04 Created by KiCad (PCBNEW (5.1.10)-1) date 2021-07-12 12:28:39*
%MOMM*%
%LPD*%
G01*
G04 APERTURE LIST*
%ADD10C,0.100000*%
%ADD11R,0.700000X4.300000*%
%ADD12R,0.700000X3.200000*%
%ADD13C,0.600000*%
%ADD14R,0.600000X0.125000*%
%ADD15R,0.125000X0.500000*%
%ADD16R,0.125000X0.600000*%
%ADD17R,9.800000X10.500000*%
%ADD18O,1.700000X1.700000*%
%ADD19R,1.700000X1.700000*%
%ADD20R,0.629999X0.349999*%
%ADD21R,0.299999X0.579999*%
%ADD22R,1.060000X0.650000*%
%ADD23C,2.000000*%
%ADD24C,2.250000*%
%ADD25C,3.200000*%
%ADD26C,0.450000*%
G04 APERTURE END LIST*
D10*
%TO.C,U4*%
G36*
X121870000Y-76170000D02*
G01*
X118670000Y-76170000D01*
X118670000Y-75320000D01*
X121870000Y-75320000D01*
X121870000Y-76170000D01*
G37*
X121870000Y-76170000D02*
X118670000Y-76170000D01*
X118670000Y-75320000D01*
X121870000Y-75320000D01*
X121870000Y-76170000D01*
G36*
X137720000Y-76170000D02*
G01*
X134520000Y-76170000D01*
X134520000Y-75320000D01*
X137720000Y-75320000D01*
X137720000Y-76170000D01*
G37*
X137720000Y-76170000D02*
X134520000Y-76170000D01*
X134520000Y-75320000D01*
X137720000Y-75320000D01*
X137720000Y-76170000D01*
G36*
X124820000Y-81370000D02*
G01*
X124420000Y-81370000D01*
X124420000Y-79120000D01*
X124820000Y-79120000D01*
X124820000Y-81370000D01*
G37*
X124820000Y-81370000D02*
X124420000Y-81370000D01*
X124420000Y-79120000D01*
X124820000Y-79120000D01*
X124820000Y-81370000D01*
G36*
X124820000Y-78520000D02*
G01*
X123920000Y-78520000D01*
X123920000Y-77720000D01*
X124820000Y-77720000D01*
X124820000Y-78520000D01*
G37*
X124820000Y-78520000D02*
X123920000Y-78520000D01*
X123920000Y-77720000D01*
X124820000Y-77720000D01*
X124820000Y-78520000D01*
G36*
X131820000Y-78520000D02*
G01*
X129820000Y-78520000D01*
X129820000Y-77720000D01*
X131820000Y-77720000D01*
X131820000Y-78520000D01*
G37*
X131820000Y-78520000D02*
X129820000Y-78520000D01*
X129820000Y-77720000D01*
X131820000Y-77720000D01*
X131820000Y-78520000D01*
G36*
X131770000Y-79920000D02*
G01*
X129970000Y-79920000D01*
X129970000Y-79120000D01*
X131770000Y-79120000D01*
X131770000Y-79920000D01*
G37*
X131770000Y-79920000D02*
X129970000Y-79920000D01*
X129970000Y-79120000D01*
X131770000Y-79120000D01*
X131770000Y-79920000D01*
G36*
X131970000Y-81370000D02*
G01*
X129870000Y-81370000D01*
X129870000Y-80570000D01*
X131970000Y-80570000D01*
X131970000Y-81370000D01*
G37*
X131970000Y-81370000D02*
X129870000Y-81370000D01*
X129870000Y-80570000D01*
X131970000Y-80570000D01*
X131970000Y-81370000D01*
G36*
X128670000Y-81370000D02*
G01*
X127170000Y-81370000D01*
X127170000Y-80570000D01*
X128670000Y-80570000D01*
X128670000Y-81370000D01*
G37*
X128670000Y-81370000D02*
X127170000Y-81370000D01*
X127170000Y-80570000D01*
X128670000Y-80570000D01*
X128670000Y-81370000D01*
G36*
X128470000Y-79920000D02*
G01*
X126670000Y-79920000D01*
X126670000Y-79120000D01*
X128470000Y-79120000D01*
X128470000Y-79920000D01*
G37*
X128470000Y-79920000D02*
X126670000Y-79920000D01*
X126670000Y-79120000D01*
X128470000Y-79120000D01*
X128470000Y-79920000D01*
G36*
X128570000Y-78520000D02*
G01*
X127070000Y-78520000D01*
X127070000Y-77720000D01*
X128570000Y-77720000D01*
X128570000Y-78520000D01*
G37*
X128570000Y-78520000D02*
X127070000Y-78520000D01*
X127070000Y-77720000D01*
X128570000Y-77720000D01*
X128570000Y-78520000D01*
G36*
X134020000Y-77220000D02*
G01*
X122520000Y-77220000D01*
X122520000Y-65020000D01*
X134020000Y-65020000D01*
X134020000Y-77220000D01*
G37*
X134020000Y-77220000D02*
X122520000Y-77220000D01*
X122520000Y-65020000D01*
X134020000Y-65020000D01*
X134020000Y-77220000D01*
G36*
X133520000Y-78520000D02*
G01*
X132370000Y-78520000D01*
X132370000Y-77720000D01*
X133520000Y-77720000D01*
X133520000Y-78520000D01*
G37*
X133520000Y-78520000D02*
X132370000Y-78520000D01*
X132370000Y-77720000D01*
X133520000Y-77720000D01*
X133520000Y-78520000D01*
%TD*%
%TO.C,C14*%
G36*
G01*
X117826600Y-97313200D02*
X117326600Y-97313200D01*
G75*
G02*
X117101600Y-97088200I0J225000D01*
G01*
X117101600Y-96638200D01*
G75*
G02*
X117326600Y-96413200I225000J0D01*
G01*
X117826600Y-96413200D01*
G75*
G02*
X118051600Y-96638200I0J-225000D01*
G01*
X118051600Y-97088200D01*
G75*
G02*
X117826600Y-97313200I-225000J0D01*
G01*
G37*
G36*
G01*
X117826600Y-95763200D02*
X117326600Y-95763200D01*
G75*
G02*
X117101600Y-95538200I0J225000D01*
G01*
X117101600Y-95088200D01*
G75*
G02*
X117326600Y-94863200I225000J0D01*
G01*
X117826600Y-94863200D01*
G75*
G02*
X118051600Y-95088200I0J-225000D01*
G01*
X118051600Y-95538200D01*
G75*
G02*
X117826600Y-95763200I-225000J0D01*
G01*
G37*
%TD*%
D11*
%TO.C,J1*%
X113172000Y-105791000D03*
X123172000Y-105791000D03*
X106172000Y-105791000D03*
X121172000Y-105791000D03*
X135172000Y-105791000D03*
X129172000Y-105791000D03*
X114172000Y-105791000D03*
X111172000Y-105791000D03*
X148172000Y-105791000D03*
X137172000Y-105791000D03*
X140172000Y-105791000D03*
X147172000Y-105791000D03*
X152172000Y-105791000D03*
X126172000Y-105791000D03*
X134172000Y-105791000D03*
X136172000Y-105791000D03*
X138172000Y-105791000D03*
X146172000Y-105791000D03*
X130172000Y-105791000D03*
X109172000Y-105791000D03*
X127172000Y-105791000D03*
X139172000Y-105791000D03*
X143172000Y-105791000D03*
X145172000Y-105791000D03*
X116172000Y-105791000D03*
X128172000Y-105791000D03*
X112172000Y-105791000D03*
X132172000Y-105791000D03*
X150172000Y-105791000D03*
X110172000Y-105791000D03*
X133172000Y-105791000D03*
X120172000Y-105791000D03*
X119172000Y-105791000D03*
X151172000Y-105791000D03*
X153172000Y-105791000D03*
X122172000Y-105791000D03*
X108172000Y-105791000D03*
X141172000Y-105791000D03*
X131172000Y-105791000D03*
X115172000Y-105791000D03*
X144172000Y-105791000D03*
X149172000Y-105791000D03*
X125172000Y-105791000D03*
X142172000Y-105791000D03*
X124172000Y-105791000D03*
X154172000Y-105791000D03*
D12*
X155172000Y-105241000D03*
D11*
X156172000Y-105791000D03*
%TD*%
D13*
%TO.C,U4*%
X134020000Y-65020000D03*
X122520000Y-65020000D03*
X134020000Y-77220000D03*
X122520000Y-77220000D03*
D14*
X137270000Y-75970000D03*
X137270000Y-75670000D03*
X134920000Y-75470000D03*
X136070000Y-75570000D03*
X136070000Y-75870000D03*
X134920000Y-75770000D03*
X119120000Y-75770000D03*
X120320000Y-75870000D03*
X121470000Y-75970000D03*
X121470000Y-75670000D03*
X120320000Y-75570000D03*
X119120000Y-75470000D03*
D15*
X133170000Y-78120000D03*
X133020000Y-78120000D03*
X133320000Y-78120000D03*
D16*
X130720000Y-79520000D03*
X130820000Y-78120000D03*
X130620000Y-80970000D03*
X131420000Y-78120000D03*
X131320000Y-79520000D03*
X130920000Y-80970000D03*
X131220000Y-80970000D03*
X131120000Y-78120000D03*
X131020000Y-79520000D03*
X131620000Y-79520000D03*
X131820000Y-80970000D03*
X131720000Y-78120000D03*
D15*
X132570000Y-78120000D03*
X132870000Y-78120000D03*
X132720000Y-78120000D03*
D16*
X130520000Y-78120000D03*
X130420000Y-79520000D03*
X130320000Y-80970000D03*
X130220000Y-78120000D03*
X130120000Y-79520000D03*
X130020000Y-80970000D03*
X129920000Y-78120000D03*
X128520000Y-80970000D03*
D17*
X128270000Y-71120000D03*
D16*
X128420000Y-78120000D03*
X128320000Y-79520000D03*
X128220000Y-80970000D03*
X128120000Y-78120000D03*
X128020000Y-79520000D03*
X127920000Y-80970000D03*
X127820000Y-78120000D03*
X127720000Y-79520000D03*
X127620000Y-80970000D03*
X127520000Y-78120000D03*
X127420000Y-79520000D03*
X127320000Y-80970000D03*
X127220000Y-78120000D03*
X127120000Y-79520000D03*
X126820000Y-79520000D03*
X124620000Y-80970000D03*
X124520000Y-79520000D03*
D15*
X124320000Y-78120000D03*
X124220000Y-78120000D03*
%TD*%
D18*
%TO.C,JP1*%
X114909600Y-97790000D03*
X114909600Y-95250000D03*
D19*
X114909600Y-92710000D03*
%TD*%
%TO.C,R4*%
G36*
G01*
X125919200Y-82735000D02*
X125919200Y-82365000D01*
G75*
G02*
X126054200Y-82230000I135000J0D01*
G01*
X126324200Y-82230000D01*
G75*
G02*
X126459200Y-82365000I0J-135000D01*
G01*
X126459200Y-82735000D01*
G75*
G02*
X126324200Y-82870000I-135000J0D01*
G01*
X126054200Y-82870000D01*
G75*
G02*
X125919200Y-82735000I0J135000D01*
G01*
G37*
G36*
G01*
X124899200Y-82735000D02*
X124899200Y-82365000D01*
G75*
G02*
X125034200Y-82230000I135000J0D01*
G01*
X125304200Y-82230000D01*
G75*
G02*
X125439200Y-82365000I0J-135000D01*
G01*
X125439200Y-82735000D01*
G75*
G02*
X125304200Y-82870000I-135000J0D01*
G01*
X125034200Y-82870000D01*
G75*
G02*
X124899200Y-82735000I0J135000D01*
G01*
G37*
%TD*%
D20*
%TO.C,U2*%
X120348799Y-82880196D03*
D21*
X120458799Y-82240199D03*
X120958801Y-82240199D03*
X121458799Y-82240199D03*
X121958799Y-82240199D03*
D20*
X122068801Y-82880196D03*
D21*
X121958799Y-83520199D03*
X121458799Y-83520199D03*
X120958801Y-83520199D03*
X120458799Y-83520199D03*
%TD*%
%TO.C,C3*%
G36*
G01*
X109844000Y-95064399D02*
X109844000Y-97264401D01*
G75*
G02*
X109594001Y-97514400I-249999J0D01*
G01*
X108943999Y-97514400D01*
G75*
G02*
X108694000Y-97264401I0J249999D01*
G01*
X108694000Y-95064399D01*
G75*
G02*
X108943999Y-94814400I249999J0D01*
G01*
X109594001Y-94814400D01*
G75*
G02*
X109844000Y-95064399I0J-249999D01*
G01*
G37*
G36*
G01*
X112794000Y-95064399D02*
X112794000Y-97264401D01*
G75*
G02*
X112544001Y-97514400I-249999J0D01*
G01*
X111893999Y-97514400D01*
G75*
G02*
X111644000Y-97264401I0J249999D01*
G01*
X111644000Y-95064399D01*
G75*
G02*
X111893999Y-94814400I249999J0D01*
G01*
X112544001Y-94814400D01*
G75*
G02*
X112794000Y-95064399I0J-249999D01*
G01*
G37*
%TD*%
%TO.C,R3*%
G36*
G01*
X121448800Y-85148000D02*
X121448800Y-84778000D01*
G75*
G02*
X121583800Y-84643000I135000J0D01*
G01*
X121853800Y-84643000D01*
G75*
G02*
X121988800Y-84778000I0J-135000D01*
G01*
X121988800Y-85148000D01*
G75*
G02*
X121853800Y-85283000I-135000J0D01*
G01*
X121583800Y-85283000D01*
G75*
G02*
X121448800Y-85148000I0J135000D01*
G01*
G37*
G36*
G01*
X120428800Y-85148000D02*
X120428800Y-84778000D01*
G75*
G02*
X120563800Y-84643000I135000J0D01*
G01*
X120833800Y-84643000D01*
G75*
G02*
X120968800Y-84778000I0J-135000D01*
G01*
X120968800Y-85148000D01*
G75*
G02*
X120833800Y-85283000I-135000J0D01*
G01*
X120563800Y-85283000D01*
G75*
G02*
X120428800Y-85148000I0J135000D01*
G01*
G37*
%TD*%
%TO.C,R6*%
G36*
G01*
X147045000Y-78276000D02*
X147595000Y-78276000D01*
G75*
G02*
X147795000Y-78476000I0J-200000D01*
G01*
X147795000Y-78876000D01*
G75*
G02*
X147595000Y-79076000I-200000J0D01*
G01*
X147045000Y-79076000D01*
G75*
G02*
X146845000Y-78876000I0J200000D01*
G01*
X146845000Y-78476000D01*
G75*
G02*
X147045000Y-78276000I200000J0D01*
G01*
G37*
G36*
G01*
X147045000Y-76626000D02*
X147595000Y-76626000D01*
G75*
G02*
X147795000Y-76826000I0J-200000D01*
G01*
X147795000Y-77226000D01*
G75*
G02*
X147595000Y-77426000I-200000J0D01*
G01*
X147045000Y-77426000D01*
G75*
G02*
X146845000Y-77226000I0J200000D01*
G01*
X146845000Y-76826000D01*
G75*
G02*
X147045000Y-76626000I200000J0D01*
G01*
G37*
%TD*%
%TO.C,C7*%
G36*
G01*
X118596600Y-84018000D02*
X119096600Y-84018000D01*
G75*
G02*
X119321600Y-84243000I0J-225000D01*
G01*
X119321600Y-84693000D01*
G75*
G02*
X119096600Y-84918000I-225000J0D01*
G01*
X118596600Y-84918000D01*
G75*
G02*
X118371600Y-84693000I0J225000D01*
G01*
X118371600Y-84243000D01*
G75*
G02*
X118596600Y-84018000I225000J0D01*
G01*
G37*
G36*
G01*
X118596600Y-82468000D02*
X119096600Y-82468000D01*
G75*
G02*
X119321600Y-82693000I0J-225000D01*
G01*
X119321600Y-83143000D01*
G75*
G02*
X119096600Y-83368000I-225000J0D01*
G01*
X118596600Y-83368000D01*
G75*
G02*
X118371600Y-83143000I0J225000D01*
G01*
X118371600Y-82693000D01*
G75*
G02*
X118596600Y-82468000I225000J0D01*
G01*
G37*
%TD*%
%TO.C,R5*%
G36*
G01*
X130323000Y-91904000D02*
X129773000Y-91904000D01*
G75*
G02*
X129573000Y-91704000I0J200000D01*
G01*
X129573000Y-91304000D01*
G75*
G02*
X129773000Y-91104000I200000J0D01*
G01*
X130323000Y-91104000D01*
G75*
G02*
X130523000Y-91304000I0J-200000D01*
G01*
X130523000Y-91704000D01*
G75*
G02*
X130323000Y-91904000I-200000J0D01*
G01*
G37*
G36*
G01*
X130323000Y-93554000D02*
X129773000Y-93554000D01*
G75*
G02*
X129573000Y-93354000I0J200000D01*
G01*
X129573000Y-92954000D01*
G75*
G02*
X129773000Y-92754000I200000J0D01*
G01*
X130323000Y-92754000D01*
G75*
G02*
X130523000Y-92954000I0J-200000D01*
G01*
X130523000Y-93354000D01*
G75*
G02*
X130323000Y-93554000I-200000J0D01*
G01*
G37*
%TD*%
%TO.C,R16*%
G36*
G01*
X144101000Y-89082200D02*
X144101000Y-89632200D01*
G75*
G02*
X143901000Y-89832200I-200000J0D01*
G01*
X143501000Y-89832200D01*
G75*
G02*
X143301000Y-89632200I0J200000D01*
G01*
X143301000Y-89082200D01*
G75*
G02*
X143501000Y-88882200I200000J0D01*
G01*
X143901000Y-88882200D01*
G75*
G02*
X144101000Y-89082200I0J-200000D01*
G01*
G37*
G36*
G01*
X145751000Y-89082200D02*
X145751000Y-89632200D01*
G75*
G02*
X145551000Y-89832200I-200000J0D01*
G01*
X145151000Y-89832200D01*
G75*
G02*
X144951000Y-89632200I0J200000D01*
G01*
X144951000Y-89082200D01*
G75*
G02*
X145151000Y-88882200I200000J0D01*
G01*
X145551000Y-88882200D01*
G75*
G02*
X145751000Y-89082200I0J-200000D01*
G01*
G37*
%TD*%
%TO.C,R15*%
G36*
G01*
X147595000Y-86316000D02*
X147045000Y-86316000D01*
G75*
G02*
X146845000Y-86116000I0J200000D01*
G01*
X146845000Y-85716000D01*
G75*
G02*
X147045000Y-85516000I200000J0D01*
G01*
X147595000Y-85516000D01*
G75*
G02*
X147795000Y-85716000I0J-200000D01*
G01*
X147795000Y-86116000D01*
G75*
G02*
X147595000Y-86316000I-200000J0D01*
G01*
G37*
G36*
G01*
X147595000Y-87966000D02*
X147045000Y-87966000D01*
G75*
G02*
X146845000Y-87766000I0J200000D01*
G01*
X146845000Y-87366000D01*
G75*
G02*
X147045000Y-87166000I200000J0D01*
G01*
X147595000Y-87166000D01*
G75*
G02*
X147795000Y-87366000I0J-200000D01*
G01*
X147795000Y-87766000D01*
G75*
G02*
X147595000Y-87966000I-200000J0D01*
G01*
G37*
%TD*%
%TO.C,R9*%
G36*
G01*
X140037000Y-87482000D02*
X140037000Y-88032000D01*
G75*
G02*
X139837000Y-88232000I-200000J0D01*
G01*
X139437000Y-88232000D01*
G75*
G02*
X139237000Y-88032000I0J200000D01*
G01*
X139237000Y-87482000D01*
G75*
G02*
X139437000Y-87282000I200000J0D01*
G01*
X139837000Y-87282000D01*
G75*
G02*
X140037000Y-87482000I0J-200000D01*
G01*
G37*
G36*
G01*
X141687000Y-87482000D02*
X141687000Y-88032000D01*
G75*
G02*
X141487000Y-88232000I-200000J0D01*
G01*
X141087000Y-88232000D01*
G75*
G02*
X140887000Y-88032000I0J200000D01*
G01*
X140887000Y-87482000D01*
G75*
G02*
X141087000Y-87282000I200000J0D01*
G01*
X141487000Y-87282000D01*
G75*
G02*
X141687000Y-87482000I0J-200000D01*
G01*
G37*
%TD*%
%TO.C,R1*%
G36*
G01*
X106562997Y-98842400D02*
X107813003Y-98842400D01*
G75*
G02*
X108063000Y-99092397I0J-249997D01*
G01*
X108063000Y-99717403D01*
G75*
G02*
X107813003Y-99967400I-249997J0D01*
G01*
X106562997Y-99967400D01*
G75*
G02*
X106313000Y-99717403I0J249997D01*
G01*
X106313000Y-99092397D01*
G75*
G02*
X106562997Y-98842400I249997J0D01*
G01*
G37*
G36*
G01*
X106562997Y-95917400D02*
X107813003Y-95917400D01*
G75*
G02*
X108063000Y-96167397I0J-249997D01*
G01*
X108063000Y-96792403D01*
G75*
G02*
X107813003Y-97042400I-249997J0D01*
G01*
X106562997Y-97042400D01*
G75*
G02*
X106313000Y-96792403I0J249997D01*
G01*
X106313000Y-96167397D01*
G75*
G02*
X106562997Y-95917400I249997J0D01*
G01*
G37*
%TD*%
D22*
%TO.C,U1*%
X145245000Y-86741000D03*
X145245000Y-85791000D03*
X145245000Y-87691000D03*
X143045000Y-87691000D03*
X143045000Y-86741000D03*
X143045000Y-85791000D03*
%TD*%
%TO.C,U3*%
X145372000Y-78486000D03*
X145372000Y-77536000D03*
X145372000Y-79436000D03*
X143172000Y-79436000D03*
X143172000Y-78486000D03*
X143172000Y-77536000D03*
%TD*%
D23*
%TO.C,FID2*%
X154305000Y-100330000D03*
%TD*%
%TO.C,FID1*%
X107950000Y-54610000D03*
%TD*%
%TO.C,R12*%
G36*
G01*
X107590000Y-88475000D02*
X107040000Y-88475000D01*
G75*
G02*
X106840000Y-88275000I0J200000D01*
G01*
X106840000Y-87875000D01*
G75*
G02*
X107040000Y-87675000I200000J0D01*
G01*
X107590000Y-87675000D01*
G75*
G02*
X107790000Y-87875000I0J-200000D01*
G01*
X107790000Y-88275000D01*
G75*
G02*
X107590000Y-88475000I-200000J0D01*
G01*
G37*
G36*
G01*
X107590000Y-90125000D02*
X107040000Y-90125000D01*
G75*
G02*
X106840000Y-89925000I0J200000D01*
G01*
X106840000Y-89525000D01*
G75*
G02*
X107040000Y-89325000I200000J0D01*
G01*
X107590000Y-89325000D01*
G75*
G02*
X107790000Y-89525000I0J-200000D01*
G01*
X107790000Y-89925000D01*
G75*
G02*
X107590000Y-90125000I-200000J0D01*
G01*
G37*
%TD*%
%TO.C,R11*%
G36*
G01*
X107040000Y-92500000D02*
X107590000Y-92500000D01*
G75*
G02*
X107790000Y-92700000I0J-200000D01*
G01*
X107790000Y-93100000D01*
G75*
G02*
X107590000Y-93300000I-200000J0D01*
G01*
X107040000Y-93300000D01*
G75*
G02*
X106840000Y-93100000I0J200000D01*
G01*
X106840000Y-92700000D01*
G75*
G02*
X107040000Y-92500000I200000J0D01*
G01*
G37*
G36*
G01*
X107040000Y-90850000D02*
X107590000Y-90850000D01*
G75*
G02*
X107790000Y-91050000I0J-200000D01*
G01*
X107790000Y-91450000D01*
G75*
G02*
X107590000Y-91650000I-200000J0D01*
G01*
X107040000Y-91650000D01*
G75*
G02*
X106840000Y-91450000I0J200000D01*
G01*
X106840000Y-91050000D01*
G75*
G02*
X107040000Y-90850000I200000J0D01*
G01*
G37*
%TD*%
%TO.C,C6*%
G36*
G01*
X111793201Y-86603000D02*
X109593199Y-86603000D01*
G75*
G02*
X109343200Y-86353001I0J249999D01*
G01*
X109343200Y-85702999D01*
G75*
G02*
X109593199Y-85453000I249999J0D01*
G01*
X111793201Y-85453000D01*
G75*
G02*
X112043200Y-85702999I0J-249999D01*
G01*
X112043200Y-86353001D01*
G75*
G02*
X111793201Y-86603000I-249999J0D01*
G01*
G37*
G36*
G01*
X111793201Y-89553000D02*
X109593199Y-89553000D01*
G75*
G02*
X109343200Y-89303001I0J249999D01*
G01*
X109343200Y-88652999D01*
G75*
G02*
X109593199Y-88403000I249999J0D01*
G01*
X111793201Y-88403000D01*
G75*
G02*
X112043200Y-88652999I0J-249999D01*
G01*
X112043200Y-89303001D01*
G75*
G02*
X111793201Y-89553000I-249999J0D01*
G01*
G37*
%TD*%
%TO.C,C5*%
G36*
G01*
X109844000Y-91736999D02*
X109844000Y-93937001D01*
G75*
G02*
X109594001Y-94187000I-249999J0D01*
G01*
X108943999Y-94187000D01*
G75*
G02*
X108694000Y-93937001I0J249999D01*
G01*
X108694000Y-91736999D01*
G75*
G02*
X108943999Y-91487000I249999J0D01*
G01*
X109594001Y-91487000D01*
G75*
G02*
X109844000Y-91736999I0J-249999D01*
G01*
G37*
G36*
G01*
X112794000Y-91736999D02*
X112794000Y-93937001D01*
G75*
G02*
X112544001Y-94187000I-249999J0D01*
G01*
X111893999Y-94187000D01*
G75*
G02*
X111644000Y-93937001I0J249999D01*
G01*
X111644000Y-91736999D01*
G75*
G02*
X111893999Y-91487000I249999J0D01*
G01*
X112544001Y-91487000D01*
G75*
G02*
X112794000Y-91736999I0J-249999D01*
G01*
G37*
%TD*%
%TO.C,C4*%
G36*
G01*
X115095201Y-86603000D02*
X112895199Y-86603000D01*
G75*
G02*
X112645200Y-86353001I0J249999D01*
G01*
X112645200Y-85702999D01*
G75*
G02*
X112895199Y-85453000I249999J0D01*
G01*
X115095201Y-85453000D01*
G75*
G02*
X115345200Y-85702999I0J-249999D01*
G01*
X115345200Y-86353001D01*
G75*
G02*
X115095201Y-86603000I-249999J0D01*
G01*
G37*
G36*
G01*
X115095201Y-89553000D02*
X112895199Y-89553000D01*
G75*
G02*
X112645200Y-89303001I0J249999D01*
G01*
X112645200Y-88652999D01*
G75*
G02*
X112895199Y-88403000I249999J0D01*
G01*
X115095201Y-88403000D01*
G75*
G02*
X115345200Y-88652999I0J-249999D01*
G01*
X115345200Y-89303001D01*
G75*
G02*
X115095201Y-89553000I-249999J0D01*
G01*
G37*
%TD*%
%TO.C,R7*%
G36*
G01*
X128799000Y-91904000D02*
X128249000Y-91904000D01*
G75*
G02*
X128049000Y-91704000I0J200000D01*
G01*
X128049000Y-91304000D01*
G75*
G02*
X128249000Y-91104000I200000J0D01*
G01*
X128799000Y-91104000D01*
G75*
G02*
X128999000Y-91304000I0J-200000D01*
G01*
X128999000Y-91704000D01*
G75*
G02*
X128799000Y-91904000I-200000J0D01*
G01*
G37*
G36*
G01*
X128799000Y-93554000D02*
X128249000Y-93554000D01*
G75*
G02*
X128049000Y-93354000I0J200000D01*
G01*
X128049000Y-92954000D01*
G75*
G02*
X128249000Y-92754000I200000J0D01*
G01*
X128799000Y-92754000D01*
G75*
G02*
X128999000Y-92954000I0J-200000D01*
G01*
X128999000Y-93354000D01*
G75*
G02*
X128799000Y-93554000I-200000J0D01*
G01*
G37*
%TD*%
%TO.C,R2*%
G36*
G01*
X144101000Y-90707800D02*
X144101000Y-91257800D01*
G75*
G02*
X143901000Y-91457800I-200000J0D01*
G01*
X143501000Y-91457800D01*
G75*
G02*
X143301000Y-91257800I0J200000D01*
G01*
X143301000Y-90707800D01*
G75*
G02*
X143501000Y-90507800I200000J0D01*
G01*
X143901000Y-90507800D01*
G75*
G02*
X144101000Y-90707800I0J-200000D01*
G01*
G37*
G36*
G01*
X145751000Y-90707800D02*
X145751000Y-91257800D01*
G75*
G02*
X145551000Y-91457800I-200000J0D01*
G01*
X145151000Y-91457800D01*
G75*
G02*
X144951000Y-91257800I0J200000D01*
G01*
X144951000Y-90707800D01*
G75*
G02*
X145151000Y-90507800I200000J0D01*
G01*
X145551000Y-90507800D01*
G75*
G02*
X145751000Y-90707800I0J-200000D01*
G01*
G37*
%TD*%
D18*
%TO.C,J10*%
X143637000Y-54610000D03*
X141097000Y-54610000D03*
X138557000Y-54610000D03*
X136017000Y-54610000D03*
X133477000Y-54610000D03*
D19*
X130937000Y-54610000D03*
%TD*%
D18*
%TO.C,J9*%
X107950000Y-72390000D03*
X107950000Y-69850000D03*
X107950000Y-67310000D03*
X107950000Y-64770000D03*
X107950000Y-62230000D03*
D19*
X107950000Y-59690000D03*
%TD*%
D24*
%TO.C,J6*%
X112395000Y-81280000D03*
X107315000Y-81280000D03*
X107315000Y-76200000D03*
X112395000Y-76200000D03*
X109855000Y-78740000D03*
%TD*%
%TO.C,J5*%
X149860000Y-57150000D03*
X154940000Y-57150000D03*
X154940000Y-62230000D03*
X149860000Y-62230000D03*
X152400000Y-59690000D03*
%TD*%
%TO.C,J4*%
X149860000Y-71882000D03*
X154940000Y-71882000D03*
X154940000Y-76962000D03*
X149860000Y-76962000D03*
X152400000Y-74422000D03*
%TD*%
%TO.C,J3*%
X149860000Y-86360000D03*
X154940000Y-86360000D03*
X154940000Y-91440000D03*
X149860000Y-91440000D03*
X152400000Y-88900000D03*
%TD*%
D25*
%TO.C,H2*%
X137210800Y-64744600D03*
%TD*%
%TO.C,H1*%
X119253000Y-64922400D03*
%TD*%
%TO.C,C10*%
G36*
G01*
X117301200Y-92374600D02*
X117801200Y-92374600D01*
G75*
G02*
X118026200Y-92599600I0J-225000D01*
G01*
X118026200Y-93049600D01*
G75*
G02*
X117801200Y-93274600I-225000J0D01*
G01*
X117301200Y-93274600D01*
G75*
G02*
X117076200Y-93049600I0J225000D01*
G01*
X117076200Y-92599600D01*
G75*
G02*
X117301200Y-92374600I225000J0D01*
G01*
G37*
G36*
G01*
X117301200Y-90824600D02*
X117801200Y-90824600D01*
G75*
G02*
X118026200Y-91049600I0J-225000D01*
G01*
X118026200Y-91499600D01*
G75*
G02*
X117801200Y-91724600I-225000J0D01*
G01*
X117301200Y-91724600D01*
G75*
G02*
X117076200Y-91499600I0J225000D01*
G01*
X117076200Y-91049600D01*
G75*
G02*
X117301200Y-90824600I225000J0D01*
G01*
G37*
%TD*%
%TO.C,C12*%
G36*
G01*
X123371800Y-84018000D02*
X123871800Y-84018000D01*
G75*
G02*
X124096800Y-84243000I0J-225000D01*
G01*
X124096800Y-84693000D01*
G75*
G02*
X123871800Y-84918000I-225000J0D01*
G01*
X123371800Y-84918000D01*
G75*
G02*
X123146800Y-84693000I0J225000D01*
G01*
X123146800Y-84243000D01*
G75*
G02*
X123371800Y-84018000I225000J0D01*
G01*
G37*
G36*
G01*
X123371800Y-82468000D02*
X123871800Y-82468000D01*
G75*
G02*
X124096800Y-82693000I0J-225000D01*
G01*
X124096800Y-83143000D01*
G75*
G02*
X123871800Y-83368000I-225000J0D01*
G01*
X123371800Y-83368000D01*
G75*
G02*
X123146800Y-83143000I0J225000D01*
G01*
X123146800Y-82693000D01*
G75*
G02*
X123371800Y-82468000I225000J0D01*
G01*
G37*
%TD*%
%TO.C,C13*%
G36*
G01*
X119401400Y-95763200D02*
X118901400Y-95763200D01*
G75*
G02*
X118676400Y-95538200I0J225000D01*
G01*
X118676400Y-95088200D01*
G75*
G02*
X118901400Y-94863200I225000J0D01*
G01*
X119401400Y-94863200D01*
G75*
G02*
X119626400Y-95088200I0J-225000D01*
G01*
X119626400Y-95538200D01*
G75*
G02*
X119401400Y-95763200I-225000J0D01*
G01*
G37*
G36*
G01*
X119401400Y-97313200D02*
X118901400Y-97313200D01*
G75*
G02*
X118676400Y-97088200I0J225000D01*
G01*
X118676400Y-96638200D01*
G75*
G02*
X118901400Y-96413200I225000J0D01*
G01*
X119401400Y-96413200D01*
G75*
G02*
X119626400Y-96638200I0J-225000D01*
G01*
X119626400Y-97088200D01*
G75*
G02*
X119401400Y-97313200I-225000J0D01*
G01*
G37*
%TD*%
%TO.C,C11*%
G36*
G01*
X121001600Y-95763200D02*
X120501600Y-95763200D01*
G75*
G02*
X120276600Y-95538200I0J225000D01*
G01*
X120276600Y-95088200D01*
G75*
G02*
X120501600Y-94863200I225000J0D01*
G01*
X121001600Y-94863200D01*
G75*
G02*
X121226600Y-95088200I0J-225000D01*
G01*
X121226600Y-95538200D01*
G75*
G02*
X121001600Y-95763200I-225000J0D01*
G01*
G37*
G36*
G01*
X121001600Y-97313200D02*
X120501600Y-97313200D01*
G75*
G02*
X120276600Y-97088200I0J225000D01*
G01*
X120276600Y-96638200D01*
G75*
G02*
X120501600Y-96413200I225000J0D01*
G01*
X121001600Y-96413200D01*
G75*
G02*
X121226600Y-96638200I0J-225000D01*
G01*
X121226600Y-97088200D01*
G75*
G02*
X121001600Y-97313200I-225000J0D01*
G01*
G37*
%TD*%
%TO.C,C9*%
G36*
G01*
X118926800Y-92374600D02*
X119426800Y-92374600D01*
G75*
G02*
X119651800Y-92599600I0J-225000D01*
G01*
X119651800Y-93049600D01*
G75*
G02*
X119426800Y-93274600I-225000J0D01*
G01*
X118926800Y-93274600D01*
G75*
G02*
X118701800Y-93049600I0J225000D01*
G01*
X118701800Y-92599600D01*
G75*
G02*
X118926800Y-92374600I225000J0D01*
G01*
G37*
G36*
G01*
X118926800Y-90824600D02*
X119426800Y-90824600D01*
G75*
G02*
X119651800Y-91049600I0J-225000D01*
G01*
X119651800Y-91499600D01*
G75*
G02*
X119426800Y-91724600I-225000J0D01*
G01*
X118926800Y-91724600D01*
G75*
G02*
X118701800Y-91499600I0J225000D01*
G01*
X118701800Y-91049600D01*
G75*
G02*
X118926800Y-90824600I225000J0D01*
G01*
G37*
%TD*%
%TO.C,C8*%
G36*
G01*
X120501600Y-92374600D02*
X121001600Y-92374600D01*
G75*
G02*
X121226600Y-92599600I0J-225000D01*
G01*
X121226600Y-93049600D01*
G75*
G02*
X121001600Y-93274600I-225000J0D01*
G01*
X120501600Y-93274600D01*
G75*
G02*
X120276600Y-93049600I0J225000D01*
G01*
X120276600Y-92599600D01*
G75*
G02*
X120501600Y-92374600I225000J0D01*
G01*
G37*
G36*
G01*
X120501600Y-90824600D02*
X121001600Y-90824600D01*
G75*
G02*
X121226600Y-91049600I0J-225000D01*
G01*
X121226600Y-91499600D01*
G75*
G02*
X121001600Y-91724600I-225000J0D01*
G01*
X120501600Y-91724600D01*
G75*
G02*
X120276600Y-91499600I0J225000D01*
G01*
X120276600Y-91049600D01*
G75*
G02*
X120501600Y-90824600I225000J0D01*
G01*
G37*
%TD*%
%TO.C,C2*%
G36*
G01*
X143693000Y-83697000D02*
X143693000Y-84197000D01*
G75*
G02*
X143468000Y-84422000I-225000J0D01*
G01*
X143018000Y-84422000D01*
G75*
G02*
X142793000Y-84197000I0J225000D01*
G01*
X142793000Y-83697000D01*
G75*
G02*
X143018000Y-83472000I225000J0D01*
G01*
X143468000Y-83472000D01*
G75*
G02*
X143693000Y-83697000I0J-225000D01*
G01*
G37*
G36*
G01*
X145243000Y-83697000D02*
X145243000Y-84197000D01*
G75*
G02*
X145018000Y-84422000I-225000J0D01*
G01*
X144568000Y-84422000D01*
G75*
G02*
X144343000Y-84197000I0J225000D01*
G01*
X144343000Y-83697000D01*
G75*
G02*
X144568000Y-83472000I225000J0D01*
G01*
X145018000Y-83472000D01*
G75*
G02*
X145243000Y-83697000I0J-225000D01*
G01*
G37*
%TD*%
%TO.C,C1*%
G36*
G01*
X144074000Y-75315000D02*
X144074000Y-75815000D01*
G75*
G02*
X143849000Y-76040000I-225000J0D01*
G01*
X143399000Y-76040000D01*
G75*
G02*
X143174000Y-75815000I0J225000D01*
G01*
X143174000Y-75315000D01*
G75*
G02*
X143399000Y-75090000I225000J0D01*
G01*
X143849000Y-75090000D01*
G75*
G02*
X144074000Y-75315000I0J-225000D01*
G01*
G37*
G36*
G01*
X145624000Y-75315000D02*
X145624000Y-75815000D01*
G75*
G02*
X145399000Y-76040000I-225000J0D01*
G01*
X144949000Y-76040000D01*
G75*
G02*
X144724000Y-75815000I0J225000D01*
G01*
X144724000Y-75315000D01*
G75*
G02*
X144949000Y-75090000I225000J0D01*
G01*
X145399000Y-75090000D01*
G75*
G02*
X145624000Y-75315000I0J-225000D01*
G01*
G37*
%TD*%
D26*
X128676400Y-77647800D03*
X126923800Y-77645000D03*
X129286000Y-93649798D03*
X118846600Y-82245200D03*
X123621800Y-82270606D03*
X121602198Y-91274600D03*
X122174010Y-91287600D03*
X131438370Y-80070025D03*
X130511716Y-78787014D03*
X145923000Y-75565000D03*
X145415000Y-83947000D03*
X125095000Y-80010000D03*
X122123200Y-96850200D03*
X121551404Y-96863200D03*
X131445000Y-74015600D03*
X125095000Y-74015600D03*
X128270000Y-74015600D03*
X131445000Y-71120000D03*
X128270000Y-71120000D03*
X125095000Y-71120000D03*
X131445000Y-67945000D03*
X128270000Y-67945000D03*
X125095000Y-67945000D03*
X114274600Y-84709000D03*
X133718300Y-78359000D03*
X130048000Y-90754206D03*
X126034800Y-79603600D03*
X129507436Y-77851000D03*
X132156200Y-82321400D03*
X132384800Y-79857600D03*
X128369479Y-84582008D03*
X128828798Y-79527400D03*
X130149600Y-102997000D03*
X126765067Y-84281583D03*
X143002000Y-75565000D03*
X142494000Y-78486000D03*
X142367000Y-86741000D03*
X142621000Y-83947000D03*
X147320000Y-85344000D03*
X113030000Y-92837000D03*
X120777000Y-94742000D03*
X117500400Y-93421200D03*
X119176800Y-93421200D03*
X120751600Y-93421200D03*
X121488200Y-81534000D03*
X115214400Y-102108000D03*
X115214400Y-102743000D03*
X115824000Y-102108000D03*
X115824000Y-102717600D03*
X117500388Y-94691200D03*
X113944400Y-89814398D03*
X110642400Y-89814400D03*
X120395996Y-84201000D03*
X123596400Y-85090006D03*
X123875800Y-80010004D03*
X129717788Y-78917800D03*
X130310139Y-81684664D03*
X128379823Y-81686400D03*
X127304800Y-81686398D03*
X131785620Y-77645014D03*
X131157489Y-81730881D03*
X118846600Y-85115400D03*
X119151402Y-94691200D03*
X112937990Y-96164400D03*
X106297030Y-103276400D03*
X117983000Y-74295000D03*
X118618000Y-74295000D03*
X120649982Y-74295000D03*
X120014992Y-74295000D03*
X119380000Y-74295000D03*
X137033006Y-74625200D03*
X137871200Y-74625200D03*
X136070000Y-74627402D03*
X135255000Y-74649590D03*
X109347000Y-90932000D03*
X123571000Y-78020022D03*
M02*
