M48
; DRILL file {KiCad (5.1.10)-1} date 07/12/21 12:28:42
; FORMAT={-:-/ absolute / inch / decimal}
; #@! TF.CreationDate,2021-07-12T12:28:42+02:00
; #@! TF.GenerationSoftware,Kicad,Pcbnew,(5.1.10)-1
; #@! TF.FileFunction,Plated,1,4,PTH
FMAT,2
INCH
T1C0.0059
T2C0.0118
T3C0.0394
T4C0.0591
%
G90
G05
T1
X4.1849Y-4.066
X4.305Y-3.58
X4.356Y-3.536
X4.4464Y-3.786
X4.45Y-3.655
X4.486Y-3.536
X4.499Y-3.335
X4.536Y-4.02
X4.536Y-4.045
X4.56Y-4.02
X4.56Y-4.044
X4.626Y-3.728
X4.626Y-3.678
X4.645Y-2.925
X4.67Y-2.925
X4.679Y-3.238
X4.679Y-3.351
X4.691Y-3.728
X4.692Y-3.678
X4.7Y-2.925
X4.725Y-2.925
X4.74Y-3.315
X4.75Y-2.925
X4.754Y-3.678
X4.755Y-3.73
X4.783Y-3.21
X4.7855Y-3.8135
X4.7875Y-3.5935
X4.808Y-3.813
X4.81Y-3.594
X4.865Y-3.0717
X4.866Y-3.35
X4.867Y-3.239
X4.877Y-3.15
X4.925Y-2.675
X4.925Y-2.8
X4.925Y-2.914
X4.925Y-3.15
X4.962Y-3.134
X4.9908Y-3.3182
X4.997Y-3.0569
X5.012Y-3.216
X5.05Y-2.675
X5.05Y-2.8
X5.05Y-2.914
X5.0539Y-3.33
X5.0543Y-3.216
X5.066Y-3.057
X5.072Y-3.131
X5.09Y-3.687
X5.0987Y-3.065
X5.107Y-3.107
X5.12Y-3.573
X5.124Y-4.055
X5.1303Y-3.2159
X5.1383Y-3.1019
X5.1637Y-3.2178
X5.1747Y-3.1524
X5.175Y-2.675
X5.175Y-2.8
X5.175Y-2.914
X5.1884Y-3.0569
X5.203Y-3.241
X5.212Y-3.144
X5.2645Y-3.085
X5.325Y-2.939
X5.3571Y-2.9381
X5.395Y-2.938
X5.428Y-2.938
X5.605Y-3.415
X5.61Y-3.09
X5.615Y-3.305
X5.63Y-2.975
X5.725Y-3.305
X5.745Y-2.975
X5.8Y-3.36
T2
X4.8236Y-2.5598
X4.8236Y-3.0402
X5.2764Y-2.5598
X5.2764Y-3.0402
T3
X4.25Y-2.35
X4.25Y-2.45
X4.25Y-2.55
X4.25Y-2.65
X4.25Y-2.75
X4.25Y-2.85
X4.524Y-3.65
X4.524Y-3.75
X4.524Y-3.85
X5.155Y-2.15
X5.255Y-2.15
X5.355Y-2.15
X5.455Y-2.15
X5.555Y-2.15
X5.655Y-2.15
T4
X4.225Y-3.0
X4.225Y-3.2
X4.325Y-3.1
X4.425Y-3.0
X4.425Y-3.2
X5.9Y-2.25
X5.9Y-2.45
X5.9Y-2.83
X5.9Y-3.03
X5.9Y-3.4
X5.9Y-3.6
X6.0Y-2.35
X6.0Y-2.93
X6.0Y-3.5
X6.1Y-2.25
X6.1Y-2.45
X6.1Y-2.83
X6.1Y-3.03
X6.1Y-3.4
X6.1Y-3.6
T0
M30
