G04 #@! TF.GenerationSoftware,KiCad,Pcbnew,(6.0.10)*
G04 #@! TF.CreationDate,2023-02-10T19:23:53+01:00*
G04 #@! TF.ProjectId,astropix_v3,61737472-6f70-4697-985f-76332e6b6963,1.0*
G04 #@! TF.SameCoordinates,Original*
G04 #@! TF.FileFunction,Copper,L4,Bot*
G04 #@! TF.FilePolarity,Positive*
%FSLAX46Y46*%
G04 Gerber Fmt 4.6, Leading zero omitted, Abs format (unit mm)*
G04 Created by KiCad (PCBNEW (6.0.10)) date 2023-02-10 19:23:53*
%MOMM*%
%LPD*%
G01*
G04 APERTURE LIST*
G04 #@! TA.AperFunction,ComponentPad*
%ADD10C,2.250000*%
G04 #@! TD*
G04 #@! TA.AperFunction,ComponentPad*
%ADD11R,1.700000X1.700000*%
G04 #@! TD*
G04 #@! TA.AperFunction,ComponentPad*
%ADD12O,1.700000X1.700000*%
G04 #@! TD*
G04 #@! TA.AperFunction,ConnectorPad*
%ADD13R,0.700000X3.200000*%
G04 #@! TD*
G04 #@! TA.AperFunction,ConnectorPad*
%ADD14R,0.700000X4.300000*%
G04 #@! TD*
G04 #@! TA.AperFunction,ComponentPad*
%ADD15C,0.600000*%
G04 #@! TD*
G04 #@! TA.AperFunction,ViaPad*
%ADD16C,0.450000*%
G04 #@! TD*
G04 #@! TA.AperFunction,Conductor*
%ADD17C,0.150000*%
G04 #@! TD*
G04 #@! TA.AperFunction,Conductor*
%ADD18C,0.500000*%
G04 #@! TD*
G04 #@! TA.AperFunction,Conductor*
%ADD19C,0.250000*%
G04 #@! TD*
G04 #@! TA.AperFunction,Conductor*
%ADD20C,0.125000*%
G04 #@! TD*
G04 #@! TA.AperFunction,Conductor*
%ADD21C,0.200000*%
G04 #@! TD*
G04 APERTURE END LIST*
D10*
G04 #@! TO.P,J6,1,In*
G04 #@! TO.N,/HV_in_ext*
X109520000Y-75000000D03*
G04 #@! TO.P,J6,2,Ext*
G04 #@! TO.N,GND*
X106980000Y-72460000D03*
X112060000Y-77540000D03*
X106980000Y-77540000D03*
X112060000Y-72460000D03*
G04 #@! TD*
D11*
G04 #@! TO.P,J9,1,Pin_1*
G04 #@! TO.N,/spi_left_mosi*
X126492000Y-54610000D03*
D12*
G04 #@! TO.P,J9,2,Pin_2*
G04 #@! TO.N,/spi_left_miso0*
X123952000Y-54610000D03*
G04 #@! TO.P,J9,3,Pin_3*
G04 #@! TO.N,/spi_left_miso1*
X121412000Y-54610000D03*
G04 #@! TO.P,J9,4,Pin_4*
G04 #@! TO.N,/spi_left_clk*
X118872000Y-54610000D03*
G04 #@! TO.P,J9,5,Pin_5*
G04 #@! TO.N,/spi_left_csn*
X116332000Y-54610000D03*
G04 #@! TO.P,J9,6,Pin_6*
G04 #@! TO.N,GND*
X113792000Y-54610000D03*
G04 #@! TD*
D11*
G04 #@! TO.P,J10,1,Pin_1*
G04 #@! TO.N,/spi_right_clk*
X130937000Y-54610000D03*
D12*
G04 #@! TO.P,J10,2,Pin_2*
G04 #@! TO.N,/spi_right_miso1*
X133477000Y-54610000D03*
G04 #@! TO.P,J10,3,Pin_3*
G04 #@! TO.N,/spi_right_miso0*
X136017000Y-54610000D03*
G04 #@! TO.P,J10,4,Pin_4*
G04 #@! TO.N,/spi_right_csn*
X138557000Y-54610000D03*
G04 #@! TO.P,J10,5,Pin_5*
G04 #@! TO.N,/spi_right_mosi*
X141097000Y-54610000D03*
G04 #@! TO.P,J10,6,Pin_6*
G04 #@! TO.N,GND*
X143637000Y-54610000D03*
G04 #@! TD*
D13*
G04 #@! TO.P,J1,A1,HV*
G04 #@! TO.N,unconnected-(J1-PadA1)*
X106172000Y-105241000D03*
D14*
G04 #@! TO.P,J1,A3,VDD33*
G04 #@! TO.N,unconnected-(J1-PadA3)*
X108172000Y-105791000D03*
G04 #@! TO.P,J1,A4,VDD33*
G04 #@! TO.N,unconnected-(J1-PadA4)*
X109172000Y-105791000D03*
G04 #@! TO.P,J1,A5,VSSA*
G04 #@! TO.N,VSSA*
X110172000Y-105791000D03*
G04 #@! TO.P,J1,A6,VSSA*
X111172000Y-105791000D03*
G04 #@! TO.P,J1,A7,POW5*
G04 #@! TO.N,unconnected-(J1-PadA7)*
X112172000Y-105791000D03*
G04 #@! TO.P,J1,A8,POW5*
G04 #@! TO.N,unconnected-(J1-PadA8)*
X113172000Y-105791000D03*
G04 #@! TO.P,J1,A9,POW7*
G04 #@! TO.N,unconnected-(J1-PadA9)*
X114172000Y-105791000D03*
G04 #@! TO.P,J1,A10,POW7*
G04 #@! TO.N,unconnected-(J1-PadA10)*
X115172000Y-105791000D03*
G04 #@! TO.P,J1,A11,GND*
G04 #@! TO.N,GND*
X116172000Y-105791000D03*
G04 #@! TO.P,J1,A12,C1_1*
G04 #@! TO.N,unconnected-(J1-PadA12)*
X119172000Y-105791000D03*
G04 #@! TO.P,J1,A13,C1_2*
G04 #@! TO.N,unconnected-(J1-PadA13)*
X120172000Y-105791000D03*
G04 #@! TO.P,J1,A14,C1_5*
G04 #@! TO.N,unconnected-(J1-PadA14)*
X121172000Y-105791000D03*
G04 #@! TO.P,J1,A15,C1_6*
G04 #@! TO.N,unconnected-(J1-PadA15)*
X122172000Y-105791000D03*
G04 #@! TO.P,J1,A16,FMC_LA23_P*
G04 #@! TO.N,/spi_left_csn*
X123172000Y-105791000D03*
G04 #@! TO.P,J1,A17,FMC_LA23_N*
G04 #@! TO.N,/spi_left_clk*
X124172000Y-105791000D03*
G04 #@! TO.P,J1,A18,FMC_LA21_P*
G04 #@! TO.N,/spi_left_miso1*
X125172000Y-105791000D03*
G04 #@! TO.P,J1,A19,FMC_LA21_N*
G04 #@! TO.N,/spi_left_miso0*
X126172000Y-105791000D03*
G04 #@! TO.P,J1,A20,FMC_LA19_P*
G04 #@! TO.N,/spi_left_mosi*
X127172000Y-105791000D03*
G04 #@! TO.P,J1,A21,FMC_LA19_N*
G04 #@! TO.N,unconnected-(J1-PadA21)*
X128172000Y-105791000D03*
G04 #@! TO.P,J1,A22,FMC_LA17_CC_P*
G04 #@! TO.N,/sr_out*
X129172000Y-105791000D03*
G04 #@! TO.P,J1,A23,FMC_LA17_CC_N*
G04 #@! TO.N,/sr_rb*
X130172000Y-105791000D03*
G04 #@! TO.P,J1,A24,C2_1*
G04 #@! TO.N,/sr_ck1*
X131172000Y-105791000D03*
G04 #@! TO.P,J1,A25,C2_2*
G04 #@! TO.N,/sr_ck2*
X132172000Y-105791000D03*
G04 #@! TO.P,J1,A26,C2_5*
G04 #@! TO.N,unconnected-(J1-PadA26)*
X133172000Y-105791000D03*
G04 #@! TO.P,J1,A27,C2_6*
G04 #@! TO.N,unconnected-(J1-PadA27)*
X134172000Y-105791000D03*
G04 #@! TO.P,J1,A28,C3_1*
G04 #@! TO.N,/Inj*
X135172000Y-105791000D03*
G04 #@! TO.P,J1,A29,C3_2*
G04 #@! TO.N,unconnected-(J1-PadA29)*
X136172000Y-105791000D03*
G04 #@! TO.P,J1,A30,C3_5*
G04 #@! TO.N,unconnected-(J1-PadA30)*
X137172000Y-105791000D03*
G04 #@! TO.P,J1,A31,C3_6*
G04 #@! TO.N,unconnected-(J1-PadA31)*
X138172000Y-105791000D03*
G04 #@! TO.P,J1,A32,C4_1*
G04 #@! TO.N,/DAC_ThPMOS*
X139172000Y-105791000D03*
G04 #@! TO.P,J1,A33,C4_2*
G04 #@! TO.N,unconnected-(J1-PadA33)*
X140172000Y-105791000D03*
G04 #@! TO.P,J1,A34,C4_5*
G04 #@! TO.N,unconnected-(J1-PadA34)*
X141172000Y-105791000D03*
G04 #@! TO.P,J1,A35,C4_6*
G04 #@! TO.N,unconnected-(J1-PadA35)*
X142172000Y-105791000D03*
G04 #@! TO.P,J1,A36,C5_1*
G04 #@! TO.N,unconnected-(J1-PadA36)*
X143172000Y-105791000D03*
G04 #@! TO.P,J1,A37,C5_2*
G04 #@! TO.N,unconnected-(J1-PadA37)*
X144172000Y-105791000D03*
G04 #@! TO.P,J1,A38,C5_5*
G04 #@! TO.N,unconnected-(J1-PadA38)*
X145172000Y-105791000D03*
G04 #@! TO.P,J1,A39,C5_6*
G04 #@! TO.N,unconnected-(J1-PadA39)*
X146172000Y-105791000D03*
G04 #@! TO.P,J1,A40,FMC_LA15_P*
G04 #@! TO.N,/spi_right_clk*
X147172000Y-105791000D03*
G04 #@! TO.P,J1,A41,FMC_LA15_N*
G04 #@! TO.N,/spi_right_miso1*
X148172000Y-105791000D03*
G04 #@! TO.P,J1,A42,FMC_LA13_P*
G04 #@! TO.N,/spi_right_miso0*
X149172000Y-105791000D03*
G04 #@! TO.P,J1,A43,FMC_LA13_N*
G04 #@! TO.N,/spi_right_csn*
X150172000Y-105791000D03*
G04 #@! TO.P,J1,A44,FMC_LA11_P*
G04 #@! TO.N,/spi_right_mosi*
X151172000Y-105791000D03*
G04 #@! TO.P,J1,A45,FMC_LA11_N*
G04 #@! TO.N,unconnected-(J1-PadA45)*
X152172000Y-105791000D03*
G04 #@! TO.P,J1,A46,FMC_LA09_P*
G04 #@! TO.N,unconnected-(J1-PadA46)*
X153172000Y-105791000D03*
G04 #@! TO.P,J1,A47,FMC_LA09_N*
G04 #@! TO.N,unconnected-(J1-PadA47)*
X154172000Y-105791000D03*
G04 #@! TO.P,J1,A48,FMC_LA07_P*
G04 #@! TO.N,unconnected-(J1-PadA48)*
X155172000Y-105791000D03*
G04 #@! TO.P,J1,A49,FMC_LA07_N*
G04 #@! TO.N,unconnected-(J1-PadA49)*
X156172000Y-105791000D03*
G04 #@! TD*
D11*
G04 #@! TO.P,JP1,1,A*
G04 #@! TO.N,/VDD18_in*
X114909600Y-92710000D03*
D12*
G04 #@! TO.P,JP1,2,C*
G04 #@! TO.N,VDD*
X114909600Y-95250000D03*
G04 #@! TO.P,JP1,3,B*
G04 #@! TO.N,/POW4_in*
X114909600Y-97790000D03*
G04 #@! TD*
D10*
G04 #@! TO.P,J5,1,In*
G04 #@! TO.N,/sc_out*
X152800000Y-64800000D03*
G04 #@! TO.P,J5,2,Ext*
G04 #@! TO.N,GND*
X155340000Y-67340000D03*
X155340000Y-62260000D03*
X150260000Y-62260000D03*
X150260000Y-67340000D03*
G04 #@! TD*
G04 #@! TO.P,J4,1,In*
G04 #@! TO.N,Net-(J4-Pad1)*
X152800000Y-76000000D03*
G04 #@! TO.P,J4,2,Ext*
G04 #@! TO.N,GND*
X150260000Y-78540000D03*
X155340000Y-73460000D03*
X150260000Y-73460000D03*
X155340000Y-78540000D03*
G04 #@! TD*
D15*
G04 #@! TO.P,U5,VSSA_Ring,VSSA_Ring*
G04 #@! TO.N,VSSA*
X121800000Y-82700000D03*
G04 #@! TO.P,U5,VDDD_Ring,VDDD_Ring*
G04 #@! TO.N,VDD*
X121100000Y-82100000D03*
G04 #@! TO.P,U5,VDDA_Ring,VDDA_Ring*
G04 #@! TO.N,VDDA*
X120400000Y-81400000D03*
G04 #@! TD*
D11*
G04 #@! TO.P,J2,1,Pin_1*
G04 #@! TO.N,/ring1*
X114700000Y-68400000D03*
D12*
G04 #@! TO.P,J2,2,Pin_2*
G04 #@! TO.N,/ring2*
X112160000Y-68400000D03*
G04 #@! TO.P,J2,3,Pin_3*
G04 #@! TO.N,/ring3*
X109620000Y-68400000D03*
G04 #@! TO.P,J2,4,Pin_4*
G04 #@! TO.N,/ring4*
X107080000Y-68400000D03*
G04 #@! TD*
D11*
G04 #@! TO.P,J7,1,Pin_1*
G04 #@! TO.N,Net-(J7-Pad1)*
X112700000Y-64100000D03*
D12*
G04 #@! TO.P,J7,2,Pin_2*
G04 #@! TO.N,GND*
X110160000Y-64100000D03*
G04 #@! TO.P,J7,3,Pin_3*
G04 #@! TO.N,Net-(J7-Pad3)*
X107620000Y-64100000D03*
G04 #@! TD*
D11*
G04 #@! TO.P,J3,1,Pin_1*
G04 #@! TO.N,Net-(J3-Pad1)*
X154600000Y-85960000D03*
D12*
G04 #@! TO.P,J3,2,Pin_2*
G04 #@! TO.N,Net-(J3-Pad2)*
X154600000Y-88500000D03*
G04 #@! TO.P,J3,3,Pin_3*
G04 #@! TO.N,Net-(J3-Pad3)*
X154600000Y-91040000D03*
G04 #@! TO.P,J3,4,Pin_4*
G04 #@! TO.N,Net-(J3-Pad4)*
X154600000Y-93580000D03*
G04 #@! TO.P,J3,5,Pin_5*
G04 #@! TO.N,GND*
X154600000Y-96120000D03*
G04 #@! TD*
D16*
G04 #@! TO.N,suba*
X123400000Y-70600000D03*
G04 #@! TO.N,VDD*
X122025400Y-91274600D03*
X121523700Y-91274600D03*
G04 #@! TO.N,VDDA*
X121551404Y-96863200D03*
X122123200Y-96850200D03*
G04 #@! TO.N,suba*
X118600000Y-84100000D03*
X142200000Y-84300000D03*
X120525279Y-84289388D03*
X115400000Y-83100000D03*
G04 #@! TO.N,Net-(J3-Pad1)*
X136800000Y-88200000D03*
X141900000Y-88200000D03*
G04 #@! TO.N,/res_n*
X129901386Y-101901386D03*
X128750000Y-94800000D03*
G04 #@! TO.N,Net-(J4-Pad1)*
X143000000Y-85600000D03*
X136085000Y-83635000D03*
G04 #@! TO.N,/Inj*
X135200000Y-102800000D03*
G04 #@! TO.N,/DAC_vminuspix*
X134508715Y-87608886D03*
X141312479Y-91777953D03*
G04 #@! TO.N,/DAC_ThPix*
X140561501Y-91609631D03*
X138175249Y-90216461D03*
G04 #@! TO.N,/timestamp_clk*
X128800000Y-88600000D03*
X128300000Y-102850000D03*
G04 #@! TO.N,/sr_ck2*
X129338489Y-92700000D03*
G04 #@! TO.N,/sr_ck1*
X129500000Y-94700000D03*
G04 #@! TO.N,GND*
X128547601Y-92809810D03*
X139088000Y-86200000D03*
X120777000Y-94742000D03*
X125347197Y-91920804D03*
X136657557Y-83538000D03*
X149411002Y-83757228D03*
X125385000Y-83585000D03*
X117500400Y-93421200D03*
X129338000Y-86300000D03*
X119150000Y-89450000D03*
X115824000Y-102717600D03*
X119176800Y-93421200D03*
X134611520Y-84750000D03*
X129700000Y-83300000D03*
X115214400Y-102743000D03*
X120800000Y-89450000D03*
X131750000Y-83000000D03*
X120751600Y-93421200D03*
X117550000Y-89450000D03*
X115824000Y-102108000D03*
X138350000Y-84900000D03*
X110642400Y-89814400D03*
X117500388Y-94691200D03*
X123797801Y-92835204D03*
X133350000Y-83250000D03*
X119151402Y-94691200D03*
X127600000Y-83600000D03*
X126439401Y-89253804D03*
X115214400Y-102108000D03*
X127400000Y-86300000D03*
X135412000Y-86100000D03*
X137550000Y-82850000D03*
X113944400Y-89814398D03*
G04 #@! TO.N,/interrupt*
X129150000Y-102600000D03*
X127942344Y-101075000D03*
G04 #@! TO.N,/spi_left_csn*
X117900000Y-76000000D03*
G04 #@! TO.N,/spi_left_clk*
X118807298Y-76007298D03*
G04 #@! TO.N,/spi_left_mosi*
X121991250Y-78991250D03*
G04 #@! TO.N,/spi_left_miso0*
X121500000Y-76000000D03*
G04 #@! TO.N,/spi_left_miso1*
X120552861Y-75952861D03*
G04 #@! TO.N,/spi_right_csn*
X146100000Y-72800000D03*
G04 #@! TO.N,/spi_right_clk*
X144500000Y-73900000D03*
G04 #@! TO.N,/spi_right_mosi*
X146800000Y-72900000D03*
G04 #@! TO.N,/spi_right_miso0*
X145500000Y-72200000D03*
G04 #@! TO.N,/spi_right_miso1*
X144997500Y-73300000D03*
G04 #@! TO.N,/sr_rb*
X132981510Y-99685838D03*
G04 #@! TO.N,/sr_out*
X131600000Y-99900000D03*
G04 #@! TO.N,/DigInj*
X139900000Y-99100000D03*
X144900000Y-100900000D03*
G04 #@! TO.N,/ring1*
X141200000Y-84000000D03*
X116694142Y-66014314D03*
G04 #@! TO.N,/ring2*
X140500000Y-84000000D03*
X117325000Y-68875000D03*
G04 #@! TO.N,/ring3*
X117193164Y-71138907D03*
X139808672Y-83891328D03*
G04 #@! TO.N,/ring4*
X139208672Y-83291328D03*
X117605164Y-73544836D03*
G04 #@! TO.N,Net-(J3-Pad2)*
X137600000Y-88800000D03*
X142400000Y-90300000D03*
G04 #@! TO.N,Net-(J3-Pad3)*
X138212281Y-89200000D03*
X142899244Y-91901275D03*
G04 #@! TO.N,Net-(J3-Pad4)*
X138788000Y-89673383D03*
X141932656Y-91517344D03*
G04 #@! TO.N,VSSA*
X116550000Y-88650000D03*
X122400000Y-87300000D03*
X116550000Y-87400000D03*
X116550000Y-88000000D03*
X121800000Y-87300000D03*
G04 #@! TO.N,/DAC_ThPMOS*
X139950000Y-102150000D03*
G04 #@! TO.N,Net-(R11-Pad2)*
X125100000Y-85300000D03*
X118600000Y-80800000D03*
G04 #@! TD*
D17*
G04 #@! TO.N,suba*
X122700000Y-70600000D02*
X123400000Y-70600000D01*
X140800000Y-80000000D02*
X140150000Y-80650000D01*
X140800000Y-61400000D02*
X140800000Y-80000000D01*
X140500000Y-61100000D02*
X140800000Y-61400000D01*
X124000000Y-61100000D02*
X140500000Y-61100000D01*
X118625000Y-74675000D02*
X122700000Y-70600000D01*
X115300000Y-83000000D02*
X115300000Y-74823223D01*
X115300000Y-74823223D02*
X115448223Y-74675000D01*
X115448223Y-74675000D02*
X118625000Y-74675000D01*
X122700000Y-62400000D02*
X124000000Y-61100000D01*
X115400000Y-83100000D02*
X115300000Y-83000000D01*
X122700000Y-70600000D02*
X122700000Y-62400000D01*
D18*
G04 #@! TO.N,VDD*
X122025400Y-91274600D02*
X121523700Y-91274600D01*
X121100000Y-82100000D02*
X121174511Y-82025489D01*
X121174511Y-82025489D02*
X122079393Y-82025489D01*
X122200000Y-91100000D02*
X122025400Y-91274600D01*
X123200000Y-83146096D02*
X123200000Y-88800000D01*
X123200000Y-88800000D02*
X122200000Y-89800000D01*
X122200000Y-89800000D02*
X122200000Y-91100000D01*
X122079393Y-82025489D02*
X123200000Y-83146096D01*
G04 #@! TO.N,VDDA*
X123000000Y-89883192D02*
X123000000Y-95973400D01*
X123924999Y-82824999D02*
X123924999Y-88958193D01*
X122500000Y-81400000D02*
X123924999Y-82824999D01*
X120400000Y-81400000D02*
X122500000Y-81400000D01*
X122123200Y-96850200D02*
X121564404Y-96850200D01*
X123000000Y-95973400D02*
X122123200Y-96850200D01*
X123924999Y-88958193D02*
X123000000Y-89883192D01*
D19*
X121564404Y-96850200D02*
X121551404Y-96863200D01*
D17*
G04 #@! TO.N,suba*
X139500000Y-84800000D02*
X138400000Y-83700000D01*
X118789388Y-84289388D02*
X118600000Y-84100000D01*
X141600000Y-84800000D02*
X140200000Y-84800000D01*
X140200000Y-84800000D02*
X139500000Y-84800000D01*
X120525279Y-84289388D02*
X118789388Y-84289388D01*
X142200000Y-84300000D02*
X141700000Y-84800000D01*
X138400000Y-82400000D02*
X140150000Y-80650000D01*
X141700000Y-84800000D02*
X141600000Y-84800000D01*
X138400000Y-83700000D02*
X138400000Y-82400000D01*
D20*
G04 #@! TO.N,Net-(J3-Pad1)*
X136800000Y-88200000D02*
X141900000Y-88200000D01*
G04 #@! TO.N,/res_n*
X128750000Y-94800000D02*
X128750000Y-100750000D01*
X128750000Y-100750000D02*
X129901386Y-101901386D01*
D21*
G04 #@! TO.N,Net-(J4-Pad1)*
X136085000Y-83635000D02*
X138050000Y-85600000D01*
X138050000Y-85600000D02*
X143000000Y-85600000D01*
D20*
G04 #@! TO.N,/Inj*
X135200000Y-102800000D02*
X135172000Y-102828000D01*
X135172000Y-102828000D02*
X135172000Y-105791000D01*
G04 #@! TO.N,/DAC_vminuspix*
X141312479Y-91777953D02*
X141068801Y-92021631D01*
X141068801Y-92021631D02*
X138921459Y-92021631D01*
X138921459Y-92021631D02*
X134508715Y-87608886D01*
G04 #@! TO.N,/DAC_ThPix*
X138175249Y-90275249D02*
X139509631Y-91609631D01*
X138175249Y-90216461D02*
X138175249Y-90275249D01*
X139509631Y-91609631D02*
X140561501Y-91609631D01*
G04 #@! TO.N,/timestamp_clk*
X127500000Y-89900000D02*
X128800000Y-88600000D01*
X128300000Y-102850000D02*
X127500000Y-102050000D01*
X127500000Y-102050000D02*
X127500000Y-89900000D01*
G04 #@! TO.N,/sr_ck2*
X132172000Y-103991000D02*
X134600000Y-101563000D01*
X129338489Y-93038489D02*
X129338489Y-92700000D01*
X134600000Y-101563000D02*
X134600000Y-98300000D01*
X132172000Y-105791000D02*
X132172000Y-103991000D01*
X134600000Y-98300000D02*
X129338489Y-93038489D01*
G04 #@! TO.N,/sr_ck1*
X131172000Y-102078006D02*
X133393511Y-99856495D01*
X133393511Y-98593511D02*
X129500000Y-94700000D01*
X133393511Y-99856495D02*
X133393511Y-98593511D01*
X131172000Y-104250000D02*
X131172000Y-102078006D01*
D18*
G04 #@! TO.N,GND*
X116172000Y-105791000D02*
X116172000Y-102456000D01*
X116172000Y-102456000D02*
X115824000Y-102108000D01*
D20*
G04 #@! TO.N,/interrupt*
X127942344Y-101392344D02*
X127942344Y-101075000D01*
X129150000Y-102600000D02*
X127942344Y-101392344D01*
G04 #@! TO.N,/spi_left_csn*
X117900000Y-88782673D02*
X120300000Y-91182673D01*
X120300000Y-91182673D02*
X120300000Y-100965011D01*
X117900000Y-76000000D02*
X117900000Y-88782673D01*
X120300000Y-100965011D02*
X123172000Y-103837011D01*
X123172000Y-103837011D02*
X123172000Y-105791000D01*
G04 #@! TO.N,/spi_left_clk*
X126100000Y-81700000D02*
X126100000Y-88100000D01*
X126100000Y-88100000D02*
X124362019Y-89837981D01*
X124400000Y-80000000D02*
X126100000Y-81700000D01*
X124362019Y-89837981D02*
X124362019Y-105600981D01*
X124362019Y-105600981D02*
X124172000Y-105791000D01*
X118807298Y-77907298D02*
X120900000Y-80000000D01*
X120900000Y-80000000D02*
X124400000Y-80000000D01*
X118807298Y-76007298D02*
X118807298Y-77907298D01*
G04 #@! TO.N,/spi_left_mosi*
X126900000Y-81241414D02*
X126900000Y-105519000D01*
X121991250Y-78991250D02*
X124649836Y-78991250D01*
X126900000Y-105519000D02*
X127172000Y-105791000D01*
X124649836Y-78991250D02*
X126900000Y-81241414D01*
G04 #@! TO.N,/spi_left_miso0*
X126599022Y-88306700D02*
X126599021Y-81293296D01*
X126172000Y-105791000D02*
X126027390Y-105646390D01*
X121200000Y-79400000D02*
X121200000Y-76300000D01*
X124806703Y-79500978D02*
X121300978Y-79500978D01*
X121200000Y-76300000D02*
X121500000Y-76000000D01*
X121300978Y-79500978D02*
X121200000Y-79400000D01*
X126027390Y-88878332D02*
X126599022Y-88306700D01*
X126027390Y-105646390D02*
X126027390Y-88878332D01*
X126599021Y-81293296D02*
X124806703Y-79500978D01*
G04 #@! TO.N,/spi_left_miso1*
X125172000Y-103991000D02*
X124643720Y-103462720D01*
X121197615Y-79750489D02*
X120552861Y-79105735D01*
X125172000Y-105791000D02*
X125172000Y-103991000D01*
X120552861Y-79105735D02*
X120552861Y-75952861D01*
X124503350Y-79750489D02*
X121197615Y-79750489D01*
X124643720Y-103462720D02*
X124643720Y-89909142D01*
X124643720Y-89909142D02*
X126349511Y-88203350D01*
X126349510Y-81596648D02*
X124503350Y-79750489D01*
X126349511Y-88203350D02*
X126349510Y-81596648D01*
G04 #@! TO.N,/spi_right_csn*
X150172000Y-105791000D02*
X150172000Y-82372000D01*
X150172000Y-82372000D02*
X146100000Y-78300000D01*
X146100000Y-78300000D02*
X146100000Y-72800000D01*
G04 #@! TO.N,/spi_right_clk*
X147172000Y-105791000D02*
X147172000Y-103991000D01*
X148100000Y-85000000D02*
X144500000Y-81400000D01*
X144500000Y-81400000D02*
X144500000Y-73900000D01*
X148100000Y-103063000D02*
X148100000Y-85000000D01*
X147172000Y-103991000D02*
X148100000Y-103063000D01*
G04 #@! TO.N,/spi_right_mosi*
X151172000Y-105791000D02*
X151172000Y-82372000D01*
X151172000Y-82372000D02*
X146800000Y-78000000D01*
X146800000Y-78000000D02*
X146800000Y-72900000D01*
G04 #@! TO.N,/spi_right_miso0*
X148999002Y-83693306D02*
X148999002Y-103343002D01*
X148999002Y-103343002D02*
X149172000Y-103516000D01*
X145500000Y-72200000D02*
X145500000Y-80194304D01*
X149172000Y-103516000D02*
X149172000Y-105791000D01*
X145500000Y-80194304D02*
X148999002Y-83693306D01*
G04 #@! TO.N,/spi_right_miso1*
X144997500Y-73300000D02*
X144997500Y-80697500D01*
X144997500Y-80697500D02*
X148500000Y-84200000D01*
X148500000Y-84200000D02*
X148500000Y-103663000D01*
X148172000Y-103991000D02*
X148172000Y-105791000D01*
X148500000Y-103663000D02*
X148172000Y-103991000D01*
G04 #@! TO.N,/sr_rb*
X132981510Y-99915628D02*
X132981510Y-99685838D01*
X130172000Y-102725138D02*
X132981510Y-99915628D01*
X130172000Y-105791000D02*
X130172000Y-102725138D01*
G04 #@! TO.N,/sr_out*
X129172000Y-103213428D02*
X131600000Y-100785428D01*
X129172000Y-105791000D02*
X129172000Y-103213428D01*
X131600000Y-100785428D02*
X131600000Y-99900000D01*
G04 #@! TO.N,/DigInj*
X143100000Y-99100000D02*
X144900000Y-100900000D01*
X139900000Y-99100000D02*
X143100000Y-99100000D01*
G04 #@! TO.N,/ring1*
X116694142Y-64905858D02*
X116694142Y-66014314D01*
X114700000Y-68008456D02*
X116694142Y-66014314D01*
X143600000Y-60500000D02*
X141700000Y-58600000D01*
X141700000Y-58600000D02*
X123000000Y-58600000D01*
X141200000Y-84000000D02*
X143600000Y-81600000D01*
X143600000Y-81600000D02*
X143600000Y-60500000D01*
X114700000Y-68400000D02*
X114700000Y-68008456D01*
X123000000Y-58600000D02*
X116694142Y-64905858D01*
G04 #@! TO.N,/ring2*
X114060000Y-70300000D02*
X115900000Y-70300000D01*
X115900000Y-70300000D02*
X117325000Y-68875000D01*
X123300000Y-59100000D02*
X118600000Y-63800000D01*
X143000000Y-60800000D02*
X141300000Y-59100000D01*
X141300000Y-59100000D02*
X123300000Y-59100000D01*
X118600000Y-63800000D02*
X118600000Y-67600000D01*
X112160000Y-68400000D02*
X114060000Y-70300000D01*
X118600000Y-67600000D02*
X117325000Y-68875000D01*
X143000000Y-81500000D02*
X143000000Y-60800000D01*
X140500000Y-84000000D02*
X143000000Y-81500000D01*
G04 #@! TO.N,/ring3*
X120000000Y-68332071D02*
X117193164Y-71138907D01*
X142400000Y-81300000D02*
X142400000Y-60800000D01*
X111420000Y-70200000D02*
X113200000Y-70200000D01*
X114138907Y-71138907D02*
X117193164Y-71138907D01*
X123596648Y-59550490D02*
X120000000Y-63147138D01*
X120000000Y-63147138D02*
X120000000Y-68332071D01*
X142400000Y-60800000D02*
X141150490Y-59550490D01*
X113200000Y-70200000D02*
X114138907Y-71138907D01*
X139808672Y-83891328D02*
X142400000Y-81300000D01*
X141150490Y-59550490D02*
X123596648Y-59550490D01*
X109620000Y-68400000D02*
X111420000Y-70200000D01*
G04 #@! TO.N,/ring4*
X122062999Y-62136145D02*
X123999144Y-60200000D01*
X117605164Y-73544836D02*
X115544836Y-73544836D01*
X122062999Y-69087001D02*
X122062999Y-62136145D01*
X140900000Y-60200000D02*
X141600000Y-60900000D01*
X123999144Y-60200000D02*
X140900000Y-60200000D01*
X141600000Y-80900000D02*
X139208672Y-83291328D01*
X141600000Y-60900000D02*
X141600000Y-80900000D01*
X112800000Y-70800000D02*
X109480000Y-70800000D01*
X117605164Y-73544836D02*
X122062999Y-69087001D01*
X115544836Y-73544836D02*
X112800000Y-70800000D01*
X109480000Y-70800000D02*
X107080000Y-68400000D01*
G04 #@! TO.N,Net-(J3-Pad2)*
X137612001Y-88787999D02*
X140387999Y-88787999D01*
X137600000Y-88800000D02*
X137612001Y-88787999D01*
X140387999Y-88787999D02*
X141900000Y-90300000D01*
X141900000Y-90300000D02*
X142400000Y-90300000D01*
G04 #@! TO.N,Net-(J3-Pad3)*
X138212281Y-89200000D02*
X140197970Y-89200000D01*
X140197970Y-89200000D02*
X142899244Y-91901275D01*
G04 #@! TO.N,Net-(J3-Pad4)*
X138915772Y-89673383D02*
X138788000Y-89673383D01*
X141932656Y-91517344D02*
X141411985Y-90996671D01*
X140239060Y-90996671D02*
X138915772Y-89673383D01*
X141411985Y-90996671D02*
X140239060Y-90996671D01*
D18*
G04 #@! TO.N,VSSA*
X116550000Y-88000000D02*
X116550000Y-87400000D01*
X122400000Y-87300000D02*
X121800000Y-87300000D01*
X111172000Y-105791000D02*
X111172000Y-102128000D01*
X116550000Y-88650000D02*
X116550000Y-88000000D01*
X121800000Y-84900000D02*
X121800000Y-82700000D01*
X115400000Y-99500000D02*
X116550000Y-98350000D01*
X111172000Y-102128000D02*
X113800000Y-99500000D01*
X110172000Y-105791000D02*
X111172000Y-105791000D01*
X122400000Y-85500000D02*
X121800000Y-84900000D01*
X122400000Y-87300000D02*
X122400000Y-85500000D01*
X113800000Y-99500000D02*
X115400000Y-99500000D01*
X116550000Y-98350000D02*
X116550000Y-88650000D01*
D20*
G04 #@! TO.N,/DAC_ThPMOS*
X139950000Y-102150000D02*
X139172000Y-102928000D01*
X139172000Y-102928000D02*
X139172000Y-105791000D01*
G04 #@! TO.N,Net-(R11-Pad2)*
X125100000Y-85300000D02*
X124700000Y-84900000D01*
X124700000Y-82000000D02*
X123500000Y-80800000D01*
X124700000Y-84900000D02*
X124700000Y-82000000D01*
X123500000Y-80800000D02*
X118600000Y-80800000D01*
G04 #@! TD*
G04 #@! TA.AperFunction,Conductor*
G04 #@! TO.N,GND*
G36*
X116121721Y-101823202D02*
G01*
X116168214Y-101876858D01*
X116179600Y-101929200D01*
X116179600Y-102947200D01*
X116159598Y-103015321D01*
X116105942Y-103061814D01*
X116053600Y-103073200D01*
X114984800Y-103073200D01*
X114916679Y-103053198D01*
X114870186Y-102999542D01*
X114858800Y-102947200D01*
X114858800Y-101929200D01*
X114878802Y-101861079D01*
X114932458Y-101814586D01*
X114984800Y-101803200D01*
X116053600Y-101803200D01*
X116121721Y-101823202D01*
G37*
G04 #@! TD.AperFunction*
G04 #@! TD*
M02*
