G04 #@! TF.GenerationSoftware,KiCad,Pcbnew,7.0.7-7.0.7~ubuntu22.04.1*
G04 #@! TF.CreationDate,2023-09-29T12:00:57+02:00*
G04 #@! TF.ProjectId,astropix_v4,61737472-6f70-4697-985f-76342e6b6963,1.0*
G04 #@! TF.SameCoordinates,Original*
G04 #@! TF.FileFunction,Other,Comment*
%FSLAX46Y46*%
G04 Gerber Fmt 4.6, Leading zero omitted, Abs format (unit mm)*
G04 Created by KiCad (PCBNEW 7.0.7-7.0.7~ubuntu22.04.1) date 2023-09-29 12:00:57*
%MOMM*%
%LPD*%
G01*
G04 APERTURE LIST*
%ADD10C,0.100000*%
%ADD11C,0.150000*%
G04 APERTURE END LIST*
D10*
X106672001Y-108817109D02*
X106672001Y-108317109D01*
X106672001Y-108317109D02*
X106862477Y-108317109D01*
X106862477Y-108317109D02*
X106910096Y-108340919D01*
X106910096Y-108340919D02*
X106933906Y-108364728D01*
X106933906Y-108364728D02*
X106957715Y-108412347D01*
X106957715Y-108412347D02*
X106957715Y-108483776D01*
X106957715Y-108483776D02*
X106933906Y-108531395D01*
X106933906Y-108531395D02*
X106910096Y-108555204D01*
X106910096Y-108555204D02*
X106862477Y-108579014D01*
X106862477Y-108579014D02*
X106672001Y-108579014D01*
X107457715Y-108769490D02*
X107433906Y-108793300D01*
X107433906Y-108793300D02*
X107362477Y-108817109D01*
X107362477Y-108817109D02*
X107314858Y-108817109D01*
X107314858Y-108817109D02*
X107243430Y-108793300D01*
X107243430Y-108793300D02*
X107195811Y-108745680D01*
X107195811Y-108745680D02*
X107172001Y-108698061D01*
X107172001Y-108698061D02*
X107148192Y-108602823D01*
X107148192Y-108602823D02*
X107148192Y-108531395D01*
X107148192Y-108531395D02*
X107172001Y-108436157D01*
X107172001Y-108436157D02*
X107195811Y-108388538D01*
X107195811Y-108388538D02*
X107243430Y-108340919D01*
X107243430Y-108340919D02*
X107314858Y-108317109D01*
X107314858Y-108317109D02*
X107362477Y-108317109D01*
X107362477Y-108317109D02*
X107433906Y-108340919D01*
X107433906Y-108340919D02*
X107457715Y-108364728D01*
X107838668Y-108555204D02*
X107910096Y-108579014D01*
X107910096Y-108579014D02*
X107933906Y-108602823D01*
X107933906Y-108602823D02*
X107957715Y-108650442D01*
X107957715Y-108650442D02*
X107957715Y-108721871D01*
X107957715Y-108721871D02*
X107933906Y-108769490D01*
X107933906Y-108769490D02*
X107910096Y-108793300D01*
X107910096Y-108793300D02*
X107862477Y-108817109D01*
X107862477Y-108817109D02*
X107672001Y-108817109D01*
X107672001Y-108817109D02*
X107672001Y-108317109D01*
X107672001Y-108317109D02*
X107838668Y-108317109D01*
X107838668Y-108317109D02*
X107886287Y-108340919D01*
X107886287Y-108340919D02*
X107910096Y-108364728D01*
X107910096Y-108364728D02*
X107933906Y-108412347D01*
X107933906Y-108412347D02*
X107933906Y-108459966D01*
X107933906Y-108459966D02*
X107910096Y-108507585D01*
X107910096Y-108507585D02*
X107886287Y-108531395D01*
X107886287Y-108531395D02*
X107838668Y-108555204D01*
X107838668Y-108555204D02*
X107672001Y-108555204D01*
X108481525Y-108317109D02*
X108767239Y-108317109D01*
X108624382Y-108817109D02*
X108624382Y-108317109D01*
X108933905Y-108817109D02*
X108933905Y-108317109D01*
X109148191Y-108817109D02*
X109148191Y-108555204D01*
X109148191Y-108555204D02*
X109124381Y-108507585D01*
X109124381Y-108507585D02*
X109076762Y-108483776D01*
X109076762Y-108483776D02*
X109005334Y-108483776D01*
X109005334Y-108483776D02*
X108957715Y-108507585D01*
X108957715Y-108507585D02*
X108933905Y-108531395D01*
X109386286Y-108817109D02*
X109386286Y-108483776D01*
X109386286Y-108317109D02*
X109362477Y-108340919D01*
X109362477Y-108340919D02*
X109386286Y-108364728D01*
X109386286Y-108364728D02*
X109410096Y-108340919D01*
X109410096Y-108340919D02*
X109386286Y-108317109D01*
X109386286Y-108317109D02*
X109386286Y-108364728D01*
X109838667Y-108793300D02*
X109791048Y-108817109D01*
X109791048Y-108817109D02*
X109695810Y-108817109D01*
X109695810Y-108817109D02*
X109648191Y-108793300D01*
X109648191Y-108793300D02*
X109624381Y-108769490D01*
X109624381Y-108769490D02*
X109600572Y-108721871D01*
X109600572Y-108721871D02*
X109600572Y-108579014D01*
X109600572Y-108579014D02*
X109624381Y-108531395D01*
X109624381Y-108531395D02*
X109648191Y-108507585D01*
X109648191Y-108507585D02*
X109695810Y-108483776D01*
X109695810Y-108483776D02*
X109791048Y-108483776D01*
X109791048Y-108483776D02*
X109838667Y-108507585D01*
X110052952Y-108817109D02*
X110052952Y-108317109D01*
X110100571Y-108626633D02*
X110243428Y-108817109D01*
X110243428Y-108483776D02*
X110052952Y-108674252D01*
X110457714Y-108483776D02*
X110457714Y-108817109D01*
X110457714Y-108531395D02*
X110481524Y-108507585D01*
X110481524Y-108507585D02*
X110529143Y-108483776D01*
X110529143Y-108483776D02*
X110600571Y-108483776D01*
X110600571Y-108483776D02*
X110648190Y-108507585D01*
X110648190Y-108507585D02*
X110672000Y-108555204D01*
X110672000Y-108555204D02*
X110672000Y-108817109D01*
X111100571Y-108793300D02*
X111052952Y-108817109D01*
X111052952Y-108817109D02*
X110957714Y-108817109D01*
X110957714Y-108817109D02*
X110910095Y-108793300D01*
X110910095Y-108793300D02*
X110886286Y-108745680D01*
X110886286Y-108745680D02*
X110886286Y-108555204D01*
X110886286Y-108555204D02*
X110910095Y-108507585D01*
X110910095Y-108507585D02*
X110957714Y-108483776D01*
X110957714Y-108483776D02*
X111052952Y-108483776D01*
X111052952Y-108483776D02*
X111100571Y-108507585D01*
X111100571Y-108507585D02*
X111124381Y-108555204D01*
X111124381Y-108555204D02*
X111124381Y-108602823D01*
X111124381Y-108602823D02*
X110886286Y-108650442D01*
X111314857Y-108793300D02*
X111362476Y-108817109D01*
X111362476Y-108817109D02*
X111457714Y-108817109D01*
X111457714Y-108817109D02*
X111505333Y-108793300D01*
X111505333Y-108793300D02*
X111529142Y-108745680D01*
X111529142Y-108745680D02*
X111529142Y-108721871D01*
X111529142Y-108721871D02*
X111505333Y-108674252D01*
X111505333Y-108674252D02*
X111457714Y-108650442D01*
X111457714Y-108650442D02*
X111386285Y-108650442D01*
X111386285Y-108650442D02*
X111338666Y-108626633D01*
X111338666Y-108626633D02*
X111314857Y-108579014D01*
X111314857Y-108579014D02*
X111314857Y-108555204D01*
X111314857Y-108555204D02*
X111338666Y-108507585D01*
X111338666Y-108507585D02*
X111386285Y-108483776D01*
X111386285Y-108483776D02*
X111457714Y-108483776D01*
X111457714Y-108483776D02*
X111505333Y-108507585D01*
X111719619Y-108793300D02*
X111767238Y-108817109D01*
X111767238Y-108817109D02*
X111862476Y-108817109D01*
X111862476Y-108817109D02*
X111910095Y-108793300D01*
X111910095Y-108793300D02*
X111933904Y-108745680D01*
X111933904Y-108745680D02*
X111933904Y-108721871D01*
X111933904Y-108721871D02*
X111910095Y-108674252D01*
X111910095Y-108674252D02*
X111862476Y-108650442D01*
X111862476Y-108650442D02*
X111791047Y-108650442D01*
X111791047Y-108650442D02*
X111743428Y-108626633D01*
X111743428Y-108626633D02*
X111719619Y-108579014D01*
X111719619Y-108579014D02*
X111719619Y-108555204D01*
X111719619Y-108555204D02*
X111743428Y-108507585D01*
X111743428Y-108507585D02*
X111791047Y-108483776D01*
X111791047Y-108483776D02*
X111862476Y-108483776D01*
X111862476Y-108483776D02*
X111910095Y-108507585D01*
X112791047Y-108817109D02*
X112505333Y-108817109D01*
X112648190Y-108817109D02*
X112648190Y-108317109D01*
X112648190Y-108317109D02*
X112600571Y-108388538D01*
X112600571Y-108388538D02*
X112552952Y-108436157D01*
X112552952Y-108436157D02*
X112505333Y-108459966D01*
X113005332Y-108769490D02*
X113029142Y-108793300D01*
X113029142Y-108793300D02*
X113005332Y-108817109D01*
X113005332Y-108817109D02*
X112981523Y-108793300D01*
X112981523Y-108793300D02*
X113005332Y-108769490D01*
X113005332Y-108769490D02*
X113005332Y-108817109D01*
X113481522Y-108317109D02*
X113243427Y-108317109D01*
X113243427Y-108317109D02*
X113219618Y-108555204D01*
X113219618Y-108555204D02*
X113243427Y-108531395D01*
X113243427Y-108531395D02*
X113291046Y-108507585D01*
X113291046Y-108507585D02*
X113410094Y-108507585D01*
X113410094Y-108507585D02*
X113457713Y-108531395D01*
X113457713Y-108531395D02*
X113481522Y-108555204D01*
X113481522Y-108555204D02*
X113505332Y-108602823D01*
X113505332Y-108602823D02*
X113505332Y-108721871D01*
X113505332Y-108721871D02*
X113481522Y-108769490D01*
X113481522Y-108769490D02*
X113457713Y-108793300D01*
X113457713Y-108793300D02*
X113410094Y-108817109D01*
X113410094Y-108817109D02*
X113291046Y-108817109D01*
X113291046Y-108817109D02*
X113243427Y-108793300D01*
X113243427Y-108793300D02*
X113219618Y-108769490D01*
X113671998Y-108317109D02*
X114005331Y-108317109D01*
X114005331Y-108317109D02*
X113791046Y-108817109D01*
X114576759Y-108817109D02*
X114576759Y-108483776D01*
X114576759Y-108531395D02*
X114600569Y-108507585D01*
X114600569Y-108507585D02*
X114648188Y-108483776D01*
X114648188Y-108483776D02*
X114719616Y-108483776D01*
X114719616Y-108483776D02*
X114767235Y-108507585D01*
X114767235Y-108507585D02*
X114791045Y-108555204D01*
X114791045Y-108555204D02*
X114791045Y-108817109D01*
X114791045Y-108555204D02*
X114814854Y-108507585D01*
X114814854Y-108507585D02*
X114862473Y-108483776D01*
X114862473Y-108483776D02*
X114933902Y-108483776D01*
X114933902Y-108483776D02*
X114981521Y-108507585D01*
X114981521Y-108507585D02*
X115005331Y-108555204D01*
X115005331Y-108555204D02*
X115005331Y-108817109D01*
X115243426Y-108817109D02*
X115243426Y-108483776D01*
X115243426Y-108531395D02*
X115267236Y-108507585D01*
X115267236Y-108507585D02*
X115314855Y-108483776D01*
X115314855Y-108483776D02*
X115386283Y-108483776D01*
X115386283Y-108483776D02*
X115433902Y-108507585D01*
X115433902Y-108507585D02*
X115457712Y-108555204D01*
X115457712Y-108555204D02*
X115457712Y-108817109D01*
X115457712Y-108555204D02*
X115481521Y-108507585D01*
X115481521Y-108507585D02*
X115529140Y-108483776D01*
X115529140Y-108483776D02*
X115600569Y-108483776D01*
X115600569Y-108483776D02*
X115648188Y-108507585D01*
X115648188Y-108507585D02*
X115671998Y-108555204D01*
X115671998Y-108555204D02*
X115671998Y-108817109D01*
D11*
G04 #@! TO.C,H1*
X122050000Y-59950000D02*
G75*
G03*
X122050000Y-59950000I-3200000J0D01*
G01*
G04 #@! TO.C,H2*
X148600000Y-87100000D02*
G75*
G03*
X148600000Y-87100000I-3200000J0D01*
G01*
G04 #@! TD*
M02*
