G04 #@! TF.GenerationSoftware,KiCad,Pcbnew,7.0.7-7.0.7~ubuntu22.04.1*
G04 #@! TF.CreationDate,2023-09-29T12:00:57+02:00*
G04 #@! TF.ProjectId,astropix_v4,61737472-6f70-4697-985f-76342e6b6963,1.0*
G04 #@! TF.SameCoordinates,Original*
G04 #@! TF.FileFunction,Profile,NP*
%FSLAX46Y46*%
G04 Gerber Fmt 4.6, Leading zero omitted, Abs format (unit mm)*
G04 Created by KiCad (PCBNEW 7.0.7-7.0.7~ubuntu22.04.1) date 2023-09-29 12:00:57*
%MOMM*%
%LPD*%
G01*
G04 APERTURE LIST*
G04 #@! TA.AperFunction,Profile*
%ADD10C,0.100000*%
G04 #@! TD*
G04 #@! TA.AperFunction,Profile*
%ADD11C,0.050000*%
G04 #@! TD*
G04 #@! TA.AperFunction,Profile*
%ADD12C,0.120000*%
G04 #@! TD*
G04 APERTURE END LIST*
D10*
X105522000Y-100841000D02*
X105537000Y-51943000D01*
X105537000Y-51943000D02*
X156845000Y-51943000D01*
X156845000Y-51943000D02*
X156822000Y-100841000D01*
D11*
X155971666Y-100330000D02*
G75*
G03*
X155971666Y-100330000I-1666666J0D01*
G01*
X151805000Y-100330000D02*
X156805000Y-100330000D01*
X154305000Y-97830000D02*
X154305000Y-102830000D01*
D12*
G04 #@! TO.C,U1*
X126672500Y-70995000D02*
X134672500Y-70995000D01*
X126672500Y-77995000D02*
X126672500Y-70995000D01*
X134672500Y-70995000D02*
X134672500Y-77995000D01*
X134672500Y-77995000D02*
X126672500Y-77995000D01*
D10*
G04 #@! TO.C,J1*
X105522000Y-100841000D02*
X105522000Y-108741000D01*
X105522000Y-108741000D02*
X106022000Y-109241000D01*
X106022000Y-109241000D02*
X116222000Y-109241000D01*
X116722000Y-101791000D02*
X116722000Y-108741000D01*
X116722000Y-108741000D02*
X116222000Y-109241000D01*
X118622000Y-101791000D02*
X118622000Y-108741000D01*
X118622000Y-108741000D02*
X119122000Y-109241000D01*
X119122000Y-109241000D02*
X156322000Y-109241000D01*
X156822000Y-100841000D02*
X156822000Y-108741000D01*
X156822000Y-108741000D02*
X156322000Y-109241000D01*
X118622000Y-101791000D02*
G75*
G03*
X116722000Y-101791000I-950000J0D01*
G01*
G04 #@! TD*
M02*
