M48
; DRILL file {KiCad 7.0.7-7.0.7~ubuntu22.04.1} date Fr 29 Sep 2023 12:01:05 CEST
; FORMAT={-:-/ absolute / metric / decimal}
; #@! TF.CreationDate,2023-09-29T12:01:05+02:00
; #@! TF.GenerationSoftware,Kicad,Pcbnew,7.0.7-7.0.7~ubuntu22.04.1
; #@! TF.FileFunction,Plated,1,4,PTH
FMAT,2
METRIC
; #@! TA.AperFunction,Plated,PTH,ViaDrill
T1C0.150
; #@! TA.AperFunction,Plated,PTH,ViaDrill
T2C0.300
; #@! TA.AperFunction,Plated,PTH,ComponentDrill
T3C1.000
; #@! TA.AperFunction,Plated,PTH,ComponentDrill
T4C1.500
%
G90
G05
T1
X110.642Y-89.814
X113.9Y-83.125
X113.944Y-89.814
X115.214Y-102.108
X115.214Y-102.743
X115.824Y-102.108
X115.824Y-102.718
X116.55Y-87.4
X116.55Y-88.0
X116.55Y-88.65
X117.488Y-76.5
X117.5Y-94.691
X117.5Y-93.421
X117.55Y-89.45
X118.988Y-72.559
X119.15Y-89.45
X119.151Y-94.691
X119.177Y-93.421
X119.4Y-73.0
X120.0Y-77.68
X120.62Y-81.64
X120.7Y-73.0
X120.752Y-93.421
X120.777Y-94.742
X120.8Y-89.45
X120.9Y-72.4
X121.524Y-91.275
X121.551Y-96.863
X121.8Y-87.3
X122.0Y-72.4
X122.025Y-91.275
X122.123Y-96.85
X122.4Y-87.3
X122.56Y-102.92
X122.6Y-77.7
X123.0Y-72.9
X124.23Y-77.87
X127.2Y-82.6
X127.2Y-84.5
X127.3Y-85.3
X127.64Y-103.09
X127.7Y-88.5
X128.266Y-82.235
X128.3Y-84.5
X128.5Y-87.6
X128.62Y-101.04
X128.86Y-89.83
X128.941Y-82.188
X129.027Y-83.42
X129.287Y-86.5
X129.4Y-89.25
X129.584Y-100.4
X129.899Y-102.5
X129.9Y-84.1
X129.9Y-101.5
X130.088Y-87.885
X130.1Y-82.8
X130.184Y-82.203
X130.389Y-83.423
X130.724Y-102.9
X130.9Y-82.2
X131.17Y-83.395
X131.3Y-85.7
X131.412Y-102.309
X131.588Y-94.56
X131.6Y-82.2
X131.655Y-86.746
X131.69Y-101.37
X132.238Y-89.6
X132.412Y-101.0
X132.8Y-82.8
X132.9Y-103.04
X133.03Y-100.2
X133.12Y-89.8
X133.16Y-88.56
X133.2Y-84.1
X133.39Y-82.22
X133.522Y-85.819
X134.35Y-83.3
X135.1Y-103.0
X136.18Y-88.7
X137.47Y-87.77
X137.7Y-79.8
X137.7Y-80.5
X137.7Y-81.2
X138.15Y-85.85
X138.8Y-85.6
X138.85Y-86.7
X139.2Y-83.49
X139.3Y-86.1
X139.95Y-86.55
X140.12Y-83.89
X140.7Y-86.9
X141.2Y-72.7
X141.3Y-77.7
X141.8Y-73.1
X142.6Y-76.2
X143.1Y-76.9
X143.8Y-77.4
X144.4Y-73.1
X144.9Y-76.6
X145.0Y-72.6
X146.19Y-100.04
X146.2Y-101.3
X146.8Y-65.0
X146.85Y-102.2
X146.92Y-100.7
X147.39Y-102.92
X147.66Y-101.787
X149.411Y-83.77
T2
X122.7Y-81.0
X123.3Y-81.8
X124.1Y-82.3
T3
X113.792Y-54.61
X114.91Y-92.71
X114.91Y-95.25
X114.91Y-97.79
X115.6Y-68.86
X115.6Y-71.4
X115.6Y-73.94
X115.6Y-76.48
X115.6Y-79.02
X116.332Y-54.61
X118.872Y-54.61
X121.412Y-54.61
X123.952Y-54.61
X126.492Y-54.61
X130.937Y-54.61
X133.477Y-54.61
X136.017Y-54.61
X136.6Y-90.82
X136.6Y-93.36
X136.6Y-95.9
X136.6Y-98.44
X138.557Y-54.61
X139.14Y-90.82
X139.14Y-93.36
X139.14Y-95.9
X139.14Y-98.44
X141.097Y-54.61
X143.637Y-54.61
T4
X106.98Y-72.46
X106.98Y-77.54
X109.52Y-75.0
X112.06Y-72.46
X112.06Y-77.54
X150.26Y-59.36
X150.26Y-64.44
X150.26Y-73.46
X150.26Y-78.54
X152.8Y-61.9
X152.8Y-76.0
X155.34Y-59.36
X155.34Y-64.44
X155.34Y-73.46
X155.34Y-78.54
T0
M30
