G04 #@! TF.GenerationSoftware,KiCad,Pcbnew,7.0.7-7.0.7~ubuntu22.04.1*
G04 #@! TF.CreationDate,2023-09-29T12:00:57+02:00*
G04 #@! TF.ProjectId,astropix_v4,61737472-6f70-4697-985f-76342e6b6963,1.0*
G04 #@! TF.SameCoordinates,Original*
G04 #@! TF.FileFunction,Copper,L2,Inr*
G04 #@! TF.FilePolarity,Positive*
%FSLAX46Y46*%
G04 Gerber Fmt 4.6, Leading zero omitted, Abs format (unit mm)*
G04 Created by KiCad (PCBNEW 7.0.7-7.0.7~ubuntu22.04.1) date 2023-09-29 12:00:57*
%MOMM*%
%LPD*%
G01*
G04 APERTURE LIST*
G04 #@! TA.AperFunction,ComponentPad*
%ADD10C,2.250000*%
G04 #@! TD*
G04 #@! TA.AperFunction,ComponentPad*
%ADD11R,1.700000X1.700000*%
G04 #@! TD*
G04 #@! TA.AperFunction,ComponentPad*
%ADD12O,1.700000X1.700000*%
G04 #@! TD*
G04 #@! TA.AperFunction,ViaPad*
%ADD13C,0.450000*%
G04 #@! TD*
G04 APERTURE END LIST*
D10*
G04 #@! TO.N,/HV_in_ext*
G04 #@! TO.C,J6*
X109520000Y-75000000D03*
G04 #@! TO.N,GND*
X106980000Y-77540000D03*
X112060000Y-77540000D03*
X106980000Y-72460000D03*
X112060000Y-72460000D03*
G04 #@! TD*
D11*
G04 #@! TO.N,/spi_left_mosi*
G04 #@! TO.C,J9*
X126492000Y-54610000D03*
D12*
G04 #@! TO.N,/spi_left_miso0*
X123952000Y-54610000D03*
G04 #@! TO.N,/spi_left_miso1*
X121412000Y-54610000D03*
G04 #@! TO.N,/spi_left_clk*
X118872000Y-54610000D03*
G04 #@! TO.N,/spi_left_csn*
X116332000Y-54610000D03*
G04 #@! TO.N,GND*
X113792000Y-54610000D03*
G04 #@! TD*
D11*
G04 #@! TO.N,/spi_right_clk*
G04 #@! TO.C,J10*
X130937000Y-54610000D03*
D12*
G04 #@! TO.N,/spi_right_miso1*
X133477000Y-54610000D03*
G04 #@! TO.N,/spi_right_miso0*
X136017000Y-54610000D03*
G04 #@! TO.N,/spi_right_csn*
X138557000Y-54610000D03*
G04 #@! TO.N,/spi_right_mosi*
X141097000Y-54610000D03*
G04 #@! TO.N,GND*
X143637000Y-54610000D03*
G04 #@! TD*
D11*
G04 #@! TO.N,/VDD18_in*
G04 #@! TO.C,JP1*
X114909600Y-92710000D03*
D12*
G04 #@! TO.N,VDD*
X114909600Y-95250000D03*
G04 #@! TO.N,/POW4_in*
X114909600Y-97790000D03*
G04 #@! TD*
D10*
G04 #@! TO.N,Net-(J4-In)*
G04 #@! TO.C,J4*
X152800000Y-76000000D03*
G04 #@! TO.N,GND*
X155340000Y-73460000D03*
X150260000Y-73460000D03*
X155340000Y-78540000D03*
X150260000Y-78540000D03*
G04 #@! TD*
D11*
G04 #@! TO.N,Net-(J11-Pin_1)*
G04 #@! TO.C,J11*
X115600000Y-68860000D03*
D12*
G04 #@! TO.N,unconnected-(J11-Pin_2-Pad2)*
X115600000Y-71400000D03*
G04 #@! TO.N,Net-(J11-Pin_3)*
X115600000Y-73940000D03*
G04 #@! TO.N,VDDA*
X115600000Y-76480000D03*
G04 #@! TO.N,Net-(J11-Pin_5)*
X115600000Y-79020000D03*
G04 #@! TD*
D11*
G04 #@! TO.N,/Vtemp1*
G04 #@! TO.C,J2*
X136600000Y-90820000D03*
D12*
G04 #@! TO.N,/pload*
X139140000Y-90820000D03*
G04 #@! TO.N,/Vtemp2*
X136600000Y-93360000D03*
G04 #@! TO.N,/VPBias*
X139140000Y-93360000D03*
G04 #@! TO.N,/vdac_test*
X136600000Y-95900000D03*
G04 #@! TO.N,/pamp*
X139140000Y-95900000D03*
G04 #@! TO.N,GND*
X136600000Y-98440000D03*
G04 #@! TO.N,/cascpix*
X139140000Y-98440000D03*
G04 #@! TD*
D10*
G04 #@! TO.N,Net-(J8-In)*
G04 #@! TO.C,J8*
X152800000Y-61900000D03*
G04 #@! TO.N,GND*
X155340000Y-59360000D03*
X150260000Y-59360000D03*
X155340000Y-64440000D03*
X150260000Y-64440000D03*
G04 #@! TD*
D13*
G04 #@! TO.N,GND*
X145000000Y-72600000D03*
X122560000Y-102920000D03*
X128860000Y-89830000D03*
X137700000Y-81200000D03*
X137700000Y-79800000D03*
X120777000Y-94742000D03*
X131300000Y-85700000D03*
X149411002Y-83769945D03*
X129900000Y-84100000D03*
X117500400Y-93421200D03*
X141200000Y-72700000D03*
X119150000Y-89450000D03*
X115824000Y-102717600D03*
X140700000Y-86900000D03*
X128300000Y-84500000D03*
X134350000Y-83300000D03*
X119176800Y-93421200D03*
X124230000Y-77870000D03*
X132800000Y-82800000D03*
X133120000Y-89800000D03*
X138800000Y-85600000D03*
X120900000Y-72400000D03*
X115214400Y-102743000D03*
X120800000Y-89450000D03*
X140120000Y-83890000D03*
X120751600Y-93421200D03*
X117550000Y-89450000D03*
X115824000Y-102108000D03*
X118988000Y-72558655D03*
X146800000Y-65000000D03*
X110642400Y-89814400D03*
X127640000Y-103090000D03*
X117500388Y-94691200D03*
X132900000Y-103040000D03*
X127300000Y-85300000D03*
X130100000Y-82800000D03*
X119151402Y-94691200D03*
X127700000Y-88500000D03*
X147390000Y-102920000D03*
X128620000Y-101040000D03*
X115214400Y-102108000D03*
X123000000Y-72900000D03*
X146190000Y-100040000D03*
X133521904Y-85818767D03*
X141300000Y-77700000D03*
X144900000Y-76600000D03*
X133030000Y-100200000D03*
X113944400Y-89814398D03*
X137470000Y-87770000D03*
X127200000Y-84500000D03*
G04 #@! TD*
G04 #@! TA.AperFunction,Conductor*
G04 #@! TO.N,GND*
G36*
X156753621Y-52012407D02*
G01*
X156789585Y-52061907D01*
X156794430Y-52092547D01*
X156791510Y-58297567D01*
X156772575Y-58355748D01*
X156723058Y-58391689D01*
X156688611Y-58396443D01*
X156663746Y-58395462D01*
X156110289Y-58948918D01*
X156055773Y-58976695D01*
X155995341Y-58967124D01*
X155960876Y-58938033D01*
X155889244Y-58841815D01*
X155889242Y-58841813D01*
X155759800Y-58733197D01*
X155727377Y-58681309D01*
X155731645Y-58620272D01*
X155753432Y-58587355D01*
X156304535Y-58036252D01*
X156302824Y-58034791D01*
X156302819Y-58034787D01*
X156083668Y-57900491D01*
X156083656Y-57900485D01*
X155846186Y-57802122D01*
X155846187Y-57802122D01*
X155596245Y-57742116D01*
X155340000Y-57721950D01*
X155083754Y-57742116D01*
X154833813Y-57802122D01*
X154596343Y-57900485D01*
X154596331Y-57900491D01*
X154377184Y-58034785D01*
X154377176Y-58034791D01*
X154375463Y-58036252D01*
X154929237Y-58590027D01*
X154957014Y-58644544D01*
X154947443Y-58704976D01*
X154913635Y-58742744D01*
X154854629Y-58781553D01*
X154854627Y-58781555D01*
X154734313Y-58909080D01*
X154734308Y-58909087D01*
X154723991Y-58926957D01*
X154678521Y-58967898D01*
X154617671Y-58974294D01*
X154568251Y-58947461D01*
X154016252Y-58395463D01*
X154014791Y-58397176D01*
X154014785Y-58397184D01*
X153880491Y-58616331D01*
X153880485Y-58616343D01*
X153782122Y-58853813D01*
X153722116Y-59103754D01*
X153701950Y-59360000D01*
X153722116Y-59616245D01*
X153782122Y-59866186D01*
X153880485Y-60103656D01*
X153880491Y-60103668D01*
X154014787Y-60322819D01*
X154014791Y-60322824D01*
X154016252Y-60324535D01*
X154569708Y-59771080D01*
X154624225Y-59743303D01*
X154684657Y-59752874D01*
X154719122Y-59781965D01*
X154790754Y-59878183D01*
X154920198Y-59986801D01*
X154952620Y-60038689D01*
X154948352Y-60099726D01*
X154926565Y-60132642D01*
X154375463Y-60683745D01*
X154375463Y-60683746D01*
X154377179Y-60685211D01*
X154596331Y-60819508D01*
X154596343Y-60819514D01*
X154833813Y-60917877D01*
X154833812Y-60917877D01*
X155083754Y-60977883D01*
X155340000Y-60998049D01*
X155596245Y-60977883D01*
X155846186Y-60917877D01*
X156083656Y-60819514D01*
X156083668Y-60819508D01*
X156302818Y-60685213D01*
X156304535Y-60683746D01*
X155750762Y-60129972D01*
X155722985Y-60075455D01*
X155732556Y-60015023D01*
X155766366Y-59977254D01*
X155825373Y-59938445D01*
X155945688Y-59810918D01*
X155956007Y-59793043D01*
X156001473Y-59752103D01*
X156062323Y-59745704D01*
X156111748Y-59772538D01*
X156663746Y-60324535D01*
X156687625Y-60323597D01*
X156746513Y-60340206D01*
X156784392Y-60388256D01*
X156790511Y-60422568D01*
X156789121Y-63377473D01*
X156770186Y-63435654D01*
X156720669Y-63471595D01*
X156686221Y-63476349D01*
X156663745Y-63475463D01*
X156110289Y-64028918D01*
X156055773Y-64056695D01*
X155995341Y-64047124D01*
X155960876Y-64018033D01*
X155889244Y-63921815D01*
X155889242Y-63921813D01*
X155759800Y-63813197D01*
X155727377Y-63761309D01*
X155731645Y-63700272D01*
X155753432Y-63667355D01*
X156304535Y-63116252D01*
X156302824Y-63114791D01*
X156302819Y-63114787D01*
X156083668Y-62980491D01*
X156083656Y-62980485D01*
X155846186Y-62882122D01*
X155846187Y-62882122D01*
X155596245Y-62822116D01*
X155340000Y-62801950D01*
X155083754Y-62822116D01*
X154833813Y-62882122D01*
X154596343Y-62980485D01*
X154596331Y-62980491D01*
X154377184Y-63114785D01*
X154377176Y-63114791D01*
X154375463Y-63116252D01*
X154929237Y-63670027D01*
X154957014Y-63724544D01*
X154947443Y-63784976D01*
X154913635Y-63822744D01*
X154854629Y-63861553D01*
X154854627Y-63861555D01*
X154734313Y-63989080D01*
X154734308Y-63989087D01*
X154723991Y-64006957D01*
X154678521Y-64047898D01*
X154617671Y-64054294D01*
X154568251Y-64027461D01*
X154016252Y-63475463D01*
X154014791Y-63477176D01*
X154014785Y-63477184D01*
X153880491Y-63696331D01*
X153880485Y-63696343D01*
X153782122Y-63933813D01*
X153722116Y-64183754D01*
X153701950Y-64439999D01*
X153722116Y-64696245D01*
X153782122Y-64946186D01*
X153880485Y-65183656D01*
X153880491Y-65183668D01*
X154014787Y-65402819D01*
X154014791Y-65402824D01*
X154016252Y-65404535D01*
X154569708Y-64851080D01*
X154624225Y-64823303D01*
X154684657Y-64832874D01*
X154719122Y-64861965D01*
X154790754Y-64958183D01*
X154920198Y-65066801D01*
X154952620Y-65118689D01*
X154948352Y-65179726D01*
X154926565Y-65212642D01*
X154375463Y-65763745D01*
X154375463Y-65763746D01*
X154377179Y-65765211D01*
X154596331Y-65899508D01*
X154596343Y-65899514D01*
X154833813Y-65997877D01*
X154833812Y-65997877D01*
X155083754Y-66057883D01*
X155340000Y-66078049D01*
X155596245Y-66057883D01*
X155846186Y-65997877D01*
X156083656Y-65899514D01*
X156083668Y-65899508D01*
X156302818Y-65765213D01*
X156304535Y-65763746D01*
X155750762Y-65209972D01*
X155722985Y-65155455D01*
X155732556Y-65095023D01*
X155766366Y-65057254D01*
X155825373Y-65018445D01*
X155945688Y-64890918D01*
X155956007Y-64873043D01*
X156001473Y-64832103D01*
X156062323Y-64825704D01*
X156111748Y-64852538D01*
X156663746Y-65404535D01*
X156685235Y-65403691D01*
X156744123Y-65420300D01*
X156782002Y-65468350D01*
X156788121Y-65502662D01*
X156784878Y-72397305D01*
X156765943Y-72455486D01*
X156716426Y-72491427D01*
X156681980Y-72496181D01*
X156663746Y-72495462D01*
X156110289Y-73048918D01*
X156055773Y-73076695D01*
X155995341Y-73067124D01*
X155960876Y-73038033D01*
X155889244Y-72941815D01*
X155889242Y-72941813D01*
X155759800Y-72833197D01*
X155727377Y-72781309D01*
X155731645Y-72720272D01*
X155753432Y-72687355D01*
X156304535Y-72136252D01*
X156302824Y-72134791D01*
X156302819Y-72134787D01*
X156083668Y-72000491D01*
X156083656Y-72000485D01*
X155846186Y-71902122D01*
X155846187Y-71902122D01*
X155596245Y-71842116D01*
X155340000Y-71821950D01*
X155083754Y-71842116D01*
X154833813Y-71902122D01*
X154596343Y-72000485D01*
X154596331Y-72000491D01*
X154377184Y-72134785D01*
X154377176Y-72134791D01*
X154375463Y-72136252D01*
X154929237Y-72690027D01*
X154957014Y-72744544D01*
X154947443Y-72804976D01*
X154913635Y-72842744D01*
X154854629Y-72881553D01*
X154854627Y-72881555D01*
X154734313Y-73009080D01*
X154734308Y-73009087D01*
X154723991Y-73026957D01*
X154678521Y-73067898D01*
X154617671Y-73074294D01*
X154568251Y-73047461D01*
X154016252Y-72495463D01*
X154014791Y-72497176D01*
X154014785Y-72497184D01*
X153880491Y-72716331D01*
X153880485Y-72716343D01*
X153782122Y-72953813D01*
X153722116Y-73203754D01*
X153701950Y-73459999D01*
X153722116Y-73716245D01*
X153782122Y-73966186D01*
X153880485Y-74203656D01*
X153880491Y-74203668D01*
X154014787Y-74422819D01*
X154014791Y-74422824D01*
X154016252Y-74424535D01*
X154569708Y-73871080D01*
X154624225Y-73843303D01*
X154684657Y-73852874D01*
X154719122Y-73881965D01*
X154790754Y-73978183D01*
X154920198Y-74086801D01*
X154952620Y-74138689D01*
X154948352Y-74199726D01*
X154926565Y-74232642D01*
X154375463Y-74783745D01*
X154375463Y-74783746D01*
X154377179Y-74785211D01*
X154596331Y-74919508D01*
X154596343Y-74919514D01*
X154833813Y-75017877D01*
X154833812Y-75017877D01*
X155083754Y-75077883D01*
X155340000Y-75098049D01*
X155596245Y-75077883D01*
X155846186Y-75017877D01*
X156083656Y-74919514D01*
X156083668Y-74919508D01*
X156302818Y-74785213D01*
X156304535Y-74783746D01*
X155750762Y-74229972D01*
X155722985Y-74175455D01*
X155732556Y-74115023D01*
X155766366Y-74077254D01*
X155825373Y-74038445D01*
X155945688Y-73910918D01*
X155956007Y-73893043D01*
X156001473Y-73852103D01*
X156062323Y-73845704D01*
X156111748Y-73872538D01*
X156663746Y-74424535D01*
X156680992Y-74423858D01*
X156739880Y-74440467D01*
X156777759Y-74488517D01*
X156783878Y-74522829D01*
X156782488Y-77477211D01*
X156763553Y-77535392D01*
X156714036Y-77571333D01*
X156679589Y-77576087D01*
X156663746Y-77575462D01*
X156110289Y-78128918D01*
X156055773Y-78156695D01*
X155995341Y-78147124D01*
X155960876Y-78118033D01*
X155889244Y-78021815D01*
X155889242Y-78021813D01*
X155759800Y-77913197D01*
X155727377Y-77861309D01*
X155731645Y-77800272D01*
X155753432Y-77767355D01*
X156304535Y-77216252D01*
X156302824Y-77214791D01*
X156302819Y-77214787D01*
X156083668Y-77080491D01*
X156083656Y-77080485D01*
X155846186Y-76982122D01*
X155846187Y-76982122D01*
X155596245Y-76922116D01*
X155340000Y-76901950D01*
X155083754Y-76922116D01*
X154833813Y-76982122D01*
X154596343Y-77080485D01*
X154596331Y-77080491D01*
X154377184Y-77214785D01*
X154377176Y-77214791D01*
X154375463Y-77216252D01*
X154929237Y-77770027D01*
X154957014Y-77824544D01*
X154947443Y-77884976D01*
X154913635Y-77922744D01*
X154854629Y-77961553D01*
X154854627Y-77961555D01*
X154734313Y-78089080D01*
X154734308Y-78089087D01*
X154723991Y-78106957D01*
X154678521Y-78147898D01*
X154617671Y-78154294D01*
X154568251Y-78127461D01*
X154016252Y-77575463D01*
X154014791Y-77577176D01*
X154014785Y-77577184D01*
X153880491Y-77796331D01*
X153880485Y-77796343D01*
X153782122Y-78033813D01*
X153722116Y-78283754D01*
X153701950Y-78540000D01*
X153722116Y-78796245D01*
X153782122Y-79046186D01*
X153880485Y-79283656D01*
X153880491Y-79283668D01*
X154014787Y-79502819D01*
X154014791Y-79502824D01*
X154016252Y-79504535D01*
X154569708Y-78951080D01*
X154624225Y-78923303D01*
X154684657Y-78932874D01*
X154719122Y-78961965D01*
X154790754Y-79058183D01*
X154920198Y-79166801D01*
X154952620Y-79218689D01*
X154948352Y-79279726D01*
X154926565Y-79312642D01*
X154375463Y-79863745D01*
X154375463Y-79863746D01*
X154377179Y-79865211D01*
X154596331Y-79999508D01*
X154596343Y-79999514D01*
X154833813Y-80097877D01*
X154833812Y-80097877D01*
X155083754Y-80157883D01*
X155340000Y-80178049D01*
X155596245Y-80157883D01*
X155846186Y-80097877D01*
X156083656Y-79999514D01*
X156083668Y-79999508D01*
X156302818Y-79865213D01*
X156304535Y-79863746D01*
X155750762Y-79309972D01*
X155722985Y-79255455D01*
X155732556Y-79195023D01*
X155766366Y-79157254D01*
X155825373Y-79118445D01*
X155945688Y-78990918D01*
X155956007Y-78973043D01*
X156001473Y-78932103D01*
X156062323Y-78925704D01*
X156111748Y-78952538D01*
X156663745Y-79504534D01*
X156678602Y-79503951D01*
X156737490Y-79520559D01*
X156775370Y-79568609D01*
X156781489Y-79602922D01*
X156775432Y-92482315D01*
X156771815Y-100172734D01*
X156771811Y-100180547D01*
X156752876Y-100238728D01*
X156703359Y-100274669D01*
X156672811Y-100279500D01*
X156115055Y-100279500D01*
X156056864Y-100260593D01*
X156020900Y-100211093D01*
X156016332Y-100187898D01*
X156015196Y-100172734D01*
X156007748Y-100073352D01*
X155950478Y-99822437D01*
X155856451Y-99582860D01*
X155856446Y-99582851D01*
X155856444Y-99582847D01*
X155759670Y-99415231D01*
X155727767Y-99359974D01*
X155694043Y-99317685D01*
X155567305Y-99158759D01*
X155567299Y-99158753D01*
X155378644Y-98983706D01*
X155378640Y-98983703D01*
X155378638Y-98983701D01*
X155165991Y-98838721D01*
X155165983Y-98838717D01*
X154934112Y-98727053D01*
X154688181Y-98651194D01*
X154688178Y-98651193D01*
X154688177Y-98651193D01*
X154688172Y-98651192D01*
X154688171Y-98651192D01*
X154439745Y-98613747D01*
X154385022Y-98586378D01*
X154356837Y-98532071D01*
X154355500Y-98515853D01*
X154355500Y-97819955D01*
X154343651Y-97791350D01*
X154343651Y-97791349D01*
X154340394Y-97790000D01*
X154305000Y-97775339D01*
X154266350Y-97791348D01*
X154266348Y-97791350D01*
X154254500Y-97819955D01*
X154254500Y-98515853D01*
X154235593Y-98574044D01*
X154186093Y-98610008D01*
X154170255Y-98613747D01*
X153921828Y-98651192D01*
X153921818Y-98651194D01*
X153675887Y-98727053D01*
X153444013Y-98838718D01*
X153231358Y-98983703D01*
X153042700Y-99158753D01*
X153042694Y-99158759D01*
X152882239Y-99359965D01*
X152882229Y-99359980D01*
X152753555Y-99582847D01*
X152753546Y-99582866D01*
X152659522Y-99822434D01*
X152602253Y-100073347D01*
X152602251Y-100073357D01*
X152593668Y-100187898D01*
X152570465Y-100244513D01*
X152518416Y-100276678D01*
X152494945Y-100279500D01*
X151794955Y-100279500D01*
X151766350Y-100291348D01*
X151766348Y-100291350D01*
X151765870Y-100292505D01*
X151750339Y-100330000D01*
X151766349Y-100368651D01*
X151794955Y-100380500D01*
X152494945Y-100380500D01*
X152553136Y-100399407D01*
X152589100Y-100448907D01*
X152593668Y-100472102D01*
X152602251Y-100586642D01*
X152602251Y-100586646D01*
X152602252Y-100586648D01*
X152604986Y-100598626D01*
X152659522Y-100837565D01*
X152753546Y-101077133D01*
X152753555Y-101077152D01*
X152860570Y-101262505D01*
X152882233Y-101300026D01*
X152882237Y-101300031D01*
X152882239Y-101300034D01*
X153042694Y-101501240D01*
X153042700Y-101501246D01*
X153231358Y-101676296D01*
X153231360Y-101676297D01*
X153231362Y-101676299D01*
X153384779Y-101780896D01*
X153444013Y-101821281D01*
X153675887Y-101932946D01*
X153675889Y-101932946D01*
X153675890Y-101932947D01*
X153921823Y-102008807D01*
X154170256Y-102046252D01*
X154224978Y-102073621D01*
X154253163Y-102127928D01*
X154254500Y-102144146D01*
X154254500Y-102840045D01*
X154266349Y-102868651D01*
X154305000Y-102884661D01*
X154343651Y-102868651D01*
X154355500Y-102840045D01*
X154355500Y-102144146D01*
X154374407Y-102085955D01*
X154423907Y-102049991D01*
X154439739Y-102046253D01*
X154688177Y-102008807D01*
X154934110Y-101932947D01*
X155165991Y-101821279D01*
X155378638Y-101676299D01*
X155567301Y-101501245D01*
X155727767Y-101300026D01*
X155856451Y-101077140D01*
X155950478Y-100837563D01*
X156007748Y-100586648D01*
X156016332Y-100472101D01*
X156039535Y-100415487D01*
X156091584Y-100383322D01*
X156115055Y-100380500D01*
X156672669Y-100380500D01*
X156730860Y-100399407D01*
X156766824Y-100448907D01*
X156771669Y-100479547D01*
X156771508Y-100822302D01*
X156771500Y-100822394D01*
X156771500Y-100840392D01*
X156771490Y-100860738D01*
X156771500Y-100860839D01*
X156771500Y-108679074D01*
X156752593Y-108737265D01*
X156742504Y-108749077D01*
X156330079Y-109161503D01*
X156275562Y-109189281D01*
X156260075Y-109190500D01*
X119183926Y-109190500D01*
X119125735Y-109171593D01*
X119113922Y-109161504D01*
X118701496Y-108749078D01*
X118673719Y-108694561D01*
X118672500Y-108679074D01*
X118672500Y-102900000D01*
X130443103Y-102900000D01*
X130464485Y-103007495D01*
X130464486Y-103007498D01*
X130525373Y-103098620D01*
X130525376Y-103098624D01*
X130525379Y-103098626D01*
X130616501Y-103159513D01*
X130616503Y-103159513D01*
X130616505Y-103159515D01*
X130724000Y-103180897D01*
X130831495Y-103159515D01*
X130922624Y-103098624D01*
X130983515Y-103007495D01*
X130985006Y-103000000D01*
X134819103Y-103000000D01*
X134840485Y-103107495D01*
X134840486Y-103107498D01*
X134889530Y-103180896D01*
X134901376Y-103198624D01*
X134901379Y-103198626D01*
X134992501Y-103259513D01*
X134992503Y-103259513D01*
X134992505Y-103259515D01*
X135100000Y-103280897D01*
X135207495Y-103259515D01*
X135298624Y-103198624D01*
X135359515Y-103107495D01*
X135380897Y-103000000D01*
X135359515Y-102892505D01*
X135359513Y-102892503D01*
X135359513Y-102892501D01*
X135298626Y-102801379D01*
X135298624Y-102801376D01*
X135285348Y-102792505D01*
X135207498Y-102740486D01*
X135207495Y-102740485D01*
X135100000Y-102719103D01*
X134992504Y-102740485D01*
X134992501Y-102740486D01*
X134901379Y-102801373D01*
X134901373Y-102801379D01*
X134840486Y-102892501D01*
X134840485Y-102892504D01*
X134819103Y-103000000D01*
X130985006Y-103000000D01*
X131004897Y-102900000D01*
X130983515Y-102792505D01*
X130983513Y-102792503D01*
X130983513Y-102792501D01*
X130922626Y-102701379D01*
X130922624Y-102701376D01*
X130922620Y-102701373D01*
X130831498Y-102640486D01*
X130831495Y-102640485D01*
X130724000Y-102619103D01*
X130616504Y-102640485D01*
X130616501Y-102640486D01*
X130525379Y-102701373D01*
X130525373Y-102701379D01*
X130464486Y-102792501D01*
X130464485Y-102792504D01*
X130443103Y-102900000D01*
X118672500Y-102900000D01*
X118672500Y-102500000D01*
X129618603Y-102500000D01*
X129620054Y-102507296D01*
X129639985Y-102607495D01*
X129639986Y-102607498D01*
X129700873Y-102698620D01*
X129700876Y-102698624D01*
X129700879Y-102698626D01*
X129792001Y-102759513D01*
X129792003Y-102759513D01*
X129792005Y-102759515D01*
X129899500Y-102780897D01*
X130006995Y-102759515D01*
X130098124Y-102698624D01*
X130159015Y-102607495D01*
X130180397Y-102500000D01*
X130159015Y-102392505D01*
X130159013Y-102392503D01*
X130159013Y-102392501D01*
X130102998Y-102308671D01*
X131131103Y-102308671D01*
X131152485Y-102416167D01*
X131152486Y-102416170D01*
X131208500Y-102499999D01*
X131213376Y-102507296D01*
X131213379Y-102507298D01*
X131304501Y-102568185D01*
X131304503Y-102568185D01*
X131304505Y-102568187D01*
X131412000Y-102589569D01*
X131519495Y-102568187D01*
X131610624Y-102507296D01*
X131671515Y-102416167D01*
X131692897Y-102308672D01*
X131671515Y-102201177D01*
X131671513Y-102201175D01*
X131671513Y-102201173D01*
X131670395Y-102199500D01*
X146569103Y-102199500D01*
X146590485Y-102306995D01*
X146590486Y-102306998D01*
X146647621Y-102392505D01*
X146651376Y-102398124D01*
X146651379Y-102398126D01*
X146742501Y-102459013D01*
X146742503Y-102459013D01*
X146742505Y-102459015D01*
X146850000Y-102480397D01*
X146957495Y-102459015D01*
X147048624Y-102398124D01*
X147109515Y-102306995D01*
X147130897Y-102199500D01*
X147109515Y-102092005D01*
X147109513Y-102092003D01*
X147109513Y-102092001D01*
X147048626Y-102000879D01*
X147048624Y-102000876D01*
X147048620Y-102000873D01*
X146957498Y-101939986D01*
X146957495Y-101939985D01*
X146891606Y-101926879D01*
X146850000Y-101918603D01*
X146849999Y-101918603D01*
X146742504Y-101939985D01*
X146742501Y-101939986D01*
X146651379Y-102000873D01*
X146651373Y-102000879D01*
X146590486Y-102092001D01*
X146590485Y-102092004D01*
X146569103Y-102199500D01*
X131670395Y-102199500D01*
X131610626Y-102110051D01*
X131610624Y-102110048D01*
X131610620Y-102110045D01*
X131519498Y-102049158D01*
X131519495Y-102049157D01*
X131412000Y-102027775D01*
X131411999Y-102027775D01*
X131304504Y-102049157D01*
X131304501Y-102049158D01*
X131213379Y-102110045D01*
X131213373Y-102110051D01*
X131152486Y-102201173D01*
X131152485Y-102201176D01*
X131131103Y-102308671D01*
X130102998Y-102308671D01*
X130098126Y-102301379D01*
X130098124Y-102301376D01*
X130098120Y-102301373D01*
X130006998Y-102240486D01*
X130006995Y-102240485D01*
X129899500Y-102219103D01*
X129899499Y-102219103D01*
X129792004Y-102240485D01*
X129792001Y-102240486D01*
X129700879Y-102301373D01*
X129700873Y-102301379D01*
X129639986Y-102392501D01*
X129639985Y-102392504D01*
X129626756Y-102459014D01*
X129618603Y-102500000D01*
X118672500Y-102500000D01*
X118672500Y-101787500D01*
X147379103Y-101787500D01*
X147385823Y-101821282D01*
X147400485Y-101894995D01*
X147400486Y-101894998D01*
X147461373Y-101986120D01*
X147461376Y-101986124D01*
X147461379Y-101986126D01*
X147552501Y-102047013D01*
X147552503Y-102047013D01*
X147552505Y-102047015D01*
X147660000Y-102068397D01*
X147767495Y-102047015D01*
X147858624Y-101986124D01*
X147919515Y-101894995D01*
X147940897Y-101787500D01*
X147919515Y-101680005D01*
X147919513Y-101680003D01*
X147919513Y-101680001D01*
X147858626Y-101588879D01*
X147858624Y-101588876D01*
X147846683Y-101580897D01*
X147767498Y-101527986D01*
X147767495Y-101527985D01*
X147660000Y-101506603D01*
X147552504Y-101527985D01*
X147552501Y-101527986D01*
X147461379Y-101588873D01*
X147461373Y-101588879D01*
X147400486Y-101680001D01*
X147400485Y-101680004D01*
X147380417Y-101780896D01*
X147379103Y-101787500D01*
X118672500Y-101787500D01*
X118672500Y-101698290D01*
X118646558Y-101559513D01*
X118638429Y-101516027D01*
X118632220Y-101500000D01*
X129619103Y-101500000D01*
X129640485Y-101607495D01*
X129640486Y-101607498D01*
X129701373Y-101698620D01*
X129701376Y-101698624D01*
X129701379Y-101698626D01*
X129792501Y-101759513D01*
X129792503Y-101759513D01*
X129792505Y-101759515D01*
X129900000Y-101780897D01*
X130007495Y-101759515D01*
X130098624Y-101698624D01*
X130159515Y-101607495D01*
X130180897Y-101500000D01*
X130159515Y-101392505D01*
X130159513Y-101392503D01*
X130159513Y-101392501D01*
X130144478Y-101370000D01*
X131409103Y-101370000D01*
X131430485Y-101477495D01*
X131430486Y-101477498D01*
X131491373Y-101568620D01*
X131491376Y-101568624D01*
X131491379Y-101568626D01*
X131582501Y-101629513D01*
X131582503Y-101629513D01*
X131582505Y-101629515D01*
X131690000Y-101650897D01*
X131797495Y-101629515D01*
X131888624Y-101568624D01*
X131949515Y-101477495D01*
X131970897Y-101370000D01*
X131956973Y-101300000D01*
X145919103Y-101300000D01*
X145940485Y-101407495D01*
X145940486Y-101407498D01*
X145987503Y-101477862D01*
X146001376Y-101498624D01*
X146001379Y-101498626D01*
X146092501Y-101559513D01*
X146092503Y-101559513D01*
X146092505Y-101559515D01*
X146200000Y-101580897D01*
X146307495Y-101559515D01*
X146398624Y-101498624D01*
X146459515Y-101407495D01*
X146480897Y-101300000D01*
X146459515Y-101192505D01*
X146459513Y-101192503D01*
X146459513Y-101192501D01*
X146398626Y-101101379D01*
X146398624Y-101101376D01*
X146398620Y-101101373D01*
X146307498Y-101040486D01*
X146307495Y-101040485D01*
X146200000Y-101019103D01*
X146092504Y-101040485D01*
X146092501Y-101040486D01*
X146001379Y-101101373D01*
X146001373Y-101101379D01*
X145940486Y-101192501D01*
X145940485Y-101192504D01*
X145919103Y-101300000D01*
X131956973Y-101300000D01*
X131949515Y-101262505D01*
X131949513Y-101262503D01*
X131949513Y-101262501D01*
X131888626Y-101171379D01*
X131888624Y-101171376D01*
X131888620Y-101171373D01*
X131797498Y-101110486D01*
X131797495Y-101110485D01*
X131690000Y-101089103D01*
X131582504Y-101110485D01*
X131582501Y-101110486D01*
X131491379Y-101171373D01*
X131491373Y-101171379D01*
X131430486Y-101262501D01*
X131430485Y-101262504D01*
X131409103Y-101370000D01*
X130144478Y-101370000D01*
X130098626Y-101301379D01*
X130098624Y-101301376D01*
X130096604Y-101300026D01*
X130007498Y-101240486D01*
X130007495Y-101240485D01*
X129900000Y-101219103D01*
X129792504Y-101240485D01*
X129792501Y-101240486D01*
X129701379Y-101301373D01*
X129701373Y-101301379D01*
X129640486Y-101392501D01*
X129640485Y-101392504D01*
X129619103Y-101500000D01*
X118632220Y-101500000D01*
X118571448Y-101343128D01*
X118473837Y-101185481D01*
X118348920Y-101048454D01*
X118284756Y-101000000D01*
X132131103Y-101000000D01*
X132145099Y-101070365D01*
X132152485Y-101107495D01*
X132152486Y-101107498D01*
X132209287Y-101192505D01*
X132213376Y-101198624D01*
X132213379Y-101198626D01*
X132304501Y-101259513D01*
X132304503Y-101259513D01*
X132304505Y-101259515D01*
X132412000Y-101280897D01*
X132519495Y-101259515D01*
X132610624Y-101198624D01*
X132671515Y-101107495D01*
X132692897Y-101000000D01*
X132671515Y-100892505D01*
X132671513Y-100892503D01*
X132671513Y-100892501D01*
X132610626Y-100801379D01*
X132610624Y-100801376D01*
X132587933Y-100786214D01*
X132519498Y-100740486D01*
X132519495Y-100740485D01*
X132412000Y-100719103D01*
X132411999Y-100719103D01*
X132304504Y-100740485D01*
X132304501Y-100740486D01*
X132213379Y-100801373D01*
X132213373Y-100801379D01*
X132152486Y-100892501D01*
X132152485Y-100892504D01*
X132151269Y-100898620D01*
X132131103Y-101000000D01*
X118284756Y-101000000D01*
X118200952Y-100936714D01*
X118034971Y-100854065D01*
X117856629Y-100803322D01*
X117672000Y-100786214D01*
X117487371Y-100803322D01*
X117309029Y-100854065D01*
X117309028Y-100854065D01*
X117309026Y-100854066D01*
X117143055Y-100936710D01*
X117143046Y-100936715D01*
X117043052Y-101012226D01*
X116995080Y-101048454D01*
X116870163Y-101185481D01*
X116870161Y-101185483D01*
X116870160Y-101185485D01*
X116772555Y-101343122D01*
X116772552Y-101343127D01*
X116705570Y-101516029D01*
X116671500Y-101698290D01*
X116671500Y-108679073D01*
X116652593Y-108737264D01*
X116642504Y-108749076D01*
X116230078Y-109161503D01*
X116175561Y-109189281D01*
X116160074Y-109190500D01*
X106083926Y-109190500D01*
X106025735Y-109171593D01*
X106013922Y-109161504D01*
X105601496Y-108749078D01*
X105573719Y-108694561D01*
X105572500Y-108679074D01*
X105572500Y-100841280D01*
X105572543Y-100699999D01*
X146639103Y-100699999D01*
X146660485Y-100807495D01*
X146660486Y-100807498D01*
X146717287Y-100892505D01*
X146721376Y-100898624D01*
X146721379Y-100898626D01*
X146812501Y-100959513D01*
X146812503Y-100959513D01*
X146812505Y-100959515D01*
X146920000Y-100980897D01*
X147027495Y-100959515D01*
X147118624Y-100898624D01*
X147179515Y-100807495D01*
X147200897Y-100700000D01*
X147179515Y-100592505D01*
X147179513Y-100592503D01*
X147179513Y-100592501D01*
X147118626Y-100501379D01*
X147118624Y-100501376D01*
X147097509Y-100487267D01*
X147027498Y-100440486D01*
X147027495Y-100440485D01*
X146963582Y-100427772D01*
X146920000Y-100419103D01*
X146919999Y-100419103D01*
X146812504Y-100440485D01*
X146812501Y-100440486D01*
X146721379Y-100501373D01*
X146721373Y-100501379D01*
X146660486Y-100592501D01*
X146660485Y-100592504D01*
X146639103Y-100699999D01*
X105572543Y-100699999D01*
X105572635Y-100400000D01*
X129303103Y-100400000D01*
X129324485Y-100507495D01*
X129324486Y-100507498D01*
X129381287Y-100592505D01*
X129385376Y-100598624D01*
X129385379Y-100598626D01*
X129476501Y-100659513D01*
X129476503Y-100659513D01*
X129476505Y-100659515D01*
X129584000Y-100680897D01*
X129691495Y-100659515D01*
X129782624Y-100598624D01*
X129843515Y-100507495D01*
X129864897Y-100400000D01*
X129843515Y-100292505D01*
X129843513Y-100292503D01*
X129843513Y-100292501D01*
X129782626Y-100201379D01*
X129782624Y-100201376D01*
X129782620Y-100201373D01*
X129691498Y-100140486D01*
X129691495Y-100140485D01*
X129584000Y-100119103D01*
X129476504Y-100140485D01*
X129476501Y-100140486D01*
X129385379Y-100201373D01*
X129385373Y-100201379D01*
X129324486Y-100292501D01*
X129324485Y-100292504D01*
X129303103Y-100400000D01*
X105572635Y-100400000D01*
X105573312Y-98193954D01*
X105573436Y-97790003D01*
X113854017Y-97790003D01*
X113874298Y-97995929D01*
X113874299Y-97995934D01*
X113934368Y-98193954D01*
X114031916Y-98376452D01*
X114084071Y-98440003D01*
X114163190Y-98536410D01*
X114163195Y-98536414D01*
X114323147Y-98667683D01*
X114323148Y-98667683D01*
X114323150Y-98667685D01*
X114505646Y-98765232D01*
X114643597Y-98807078D01*
X114703665Y-98825300D01*
X114703670Y-98825301D01*
X114909597Y-98845583D01*
X114909600Y-98845583D01*
X114909603Y-98845583D01*
X115115529Y-98825301D01*
X115115534Y-98825300D01*
X115116833Y-98824906D01*
X115313554Y-98765232D01*
X115496050Y-98667685D01*
X115656010Y-98536410D01*
X115787285Y-98376450D01*
X115884832Y-98193954D01*
X115887245Y-98185999D01*
X135263455Y-98185999D01*
X135263456Y-98186000D01*
X136021224Y-98186000D01*
X136079415Y-98204907D01*
X136115379Y-98254407D01*
X136116214Y-98312892D01*
X136100000Y-98368109D01*
X136100000Y-98511890D01*
X136116214Y-98567108D01*
X136114467Y-98628268D01*
X136077104Y-98676721D01*
X136021224Y-98694000D01*
X135263456Y-98694000D01*
X135311176Y-98882447D01*
X135401581Y-99088551D01*
X135401584Y-99088556D01*
X135524671Y-99276954D01*
X135677103Y-99442539D01*
X135854695Y-99580765D01*
X135854698Y-99580767D01*
X136052624Y-99687880D01*
X136265491Y-99760957D01*
X136345999Y-99774392D01*
X136346000Y-99774392D01*
X136346000Y-99022874D01*
X136364907Y-98964683D01*
X136414407Y-98928719D01*
X136459090Y-98924882D01*
X136564233Y-98940000D01*
X136564237Y-98940000D01*
X136635767Y-98940000D01*
X136740910Y-98924882D01*
X136801199Y-98935315D01*
X136843842Y-98979192D01*
X136854000Y-99022874D01*
X136854000Y-99774392D01*
X136934508Y-99760957D01*
X137147375Y-99687880D01*
X137345301Y-99580767D01*
X137345304Y-99580765D01*
X137522896Y-99442539D01*
X137675328Y-99276954D01*
X137798415Y-99088556D01*
X137798418Y-99088551D01*
X137888821Y-98882453D01*
X137932304Y-98710739D01*
X137964918Y-98658971D01*
X138021732Y-98636258D01*
X138081045Y-98651278D01*
X138120202Y-98698293D01*
X138123012Y-98706303D01*
X138131147Y-98733120D01*
X138164768Y-98843954D01*
X138210076Y-98928719D01*
X138262316Y-99026452D01*
X138390083Y-99182137D01*
X138393590Y-99186410D01*
X138393595Y-99186414D01*
X138553547Y-99317683D01*
X138553548Y-99317683D01*
X138553550Y-99317685D01*
X138736046Y-99415232D01*
X138873997Y-99457078D01*
X138934065Y-99475300D01*
X138934070Y-99475301D01*
X139139997Y-99495583D01*
X139140000Y-99495583D01*
X139140003Y-99495583D01*
X139345929Y-99475301D01*
X139345934Y-99475300D01*
X139345933Y-99475300D01*
X139543954Y-99415232D01*
X139726450Y-99317685D01*
X139886410Y-99186410D01*
X140017685Y-99026450D01*
X140115232Y-98843954D01*
X140175300Y-98645934D01*
X140175301Y-98645929D01*
X140195583Y-98440003D01*
X140195583Y-98439996D01*
X140175301Y-98234070D01*
X140175300Y-98234065D01*
X140137423Y-98109202D01*
X140115232Y-98036046D01*
X140017685Y-97853550D01*
X139990114Y-97819955D01*
X139886414Y-97693595D01*
X139886410Y-97693590D01*
X139886404Y-97693585D01*
X139726452Y-97562316D01*
X139543954Y-97464768D01*
X139345934Y-97404699D01*
X139345929Y-97404698D01*
X139140003Y-97384417D01*
X139139997Y-97384417D01*
X138934070Y-97404698D01*
X138934065Y-97404699D01*
X138736045Y-97464768D01*
X138553547Y-97562316D01*
X138393595Y-97693585D01*
X138393585Y-97693595D01*
X138262316Y-97853547D01*
X138164769Y-98036044D01*
X138123012Y-98173696D01*
X138088027Y-98223892D01*
X138030218Y-98243938D01*
X137971668Y-98226176D01*
X137934739Y-98177392D01*
X137932304Y-98169260D01*
X137888821Y-97997546D01*
X137798418Y-97791448D01*
X137798415Y-97791443D01*
X137675328Y-97603045D01*
X137522896Y-97437460D01*
X137345304Y-97299234D01*
X137345301Y-97299232D01*
X137147375Y-97192119D01*
X136934509Y-97119042D01*
X136877973Y-97109608D01*
X136823689Y-97081380D01*
X136796363Y-97026635D01*
X136806434Y-96966285D01*
X136850055Y-96923379D01*
X136865524Y-96917223D01*
X137003954Y-96875232D01*
X137186450Y-96777685D01*
X137346410Y-96646410D01*
X137477685Y-96486450D01*
X137575232Y-96303954D01*
X137635300Y-96105934D01*
X137635301Y-96105929D01*
X137655583Y-95900003D01*
X138084417Y-95900003D01*
X138104698Y-96105929D01*
X138104699Y-96105934D01*
X138164768Y-96303954D01*
X138262316Y-96486452D01*
X138393585Y-96646404D01*
X138393590Y-96646410D01*
X138399890Y-96651580D01*
X138553547Y-96777683D01*
X138553548Y-96777683D01*
X138553550Y-96777685D01*
X138736046Y-96875232D01*
X138858294Y-96912315D01*
X138934065Y-96935300D01*
X138934070Y-96935301D01*
X139139997Y-96955583D01*
X139140000Y-96955583D01*
X139140003Y-96955583D01*
X139345929Y-96935301D01*
X139345934Y-96935300D01*
X139345933Y-96935299D01*
X139543954Y-96875232D01*
X139726450Y-96777685D01*
X139886410Y-96646410D01*
X140017685Y-96486450D01*
X140115232Y-96303954D01*
X140175300Y-96105934D01*
X140175301Y-96105929D01*
X140195583Y-95900003D01*
X140195583Y-95899996D01*
X140175301Y-95694070D01*
X140175300Y-95694065D01*
X140157078Y-95633996D01*
X140115232Y-95496046D01*
X140017685Y-95313550D01*
X139886410Y-95153590D01*
X139752953Y-95044065D01*
X139726452Y-95022316D01*
X139543954Y-94924768D01*
X139345934Y-94864699D01*
X139345929Y-94864698D01*
X139140003Y-94844417D01*
X139139997Y-94844417D01*
X138934070Y-94864698D01*
X138934065Y-94864699D01*
X138736045Y-94924768D01*
X138553547Y-95022316D01*
X138393595Y-95153585D01*
X138393585Y-95153595D01*
X138262316Y-95313547D01*
X138164768Y-95496045D01*
X138104699Y-95694065D01*
X138104698Y-95694070D01*
X138084417Y-95899996D01*
X138084417Y-95900003D01*
X137655583Y-95900003D01*
X137655583Y-95899996D01*
X137635301Y-95694070D01*
X137635300Y-95694065D01*
X137617078Y-95633996D01*
X137575232Y-95496046D01*
X137477685Y-95313550D01*
X137346410Y-95153590D01*
X137212953Y-95044065D01*
X137186452Y-95022316D01*
X137003954Y-94924768D01*
X136805934Y-94864699D01*
X136805929Y-94864698D01*
X136600003Y-94844417D01*
X136599997Y-94844417D01*
X136394070Y-94864698D01*
X136394065Y-94864699D01*
X136196045Y-94924768D01*
X136013547Y-95022316D01*
X135853595Y-95153585D01*
X135853585Y-95153595D01*
X135722316Y-95313547D01*
X135624768Y-95496045D01*
X135564699Y-95694065D01*
X135564698Y-95694070D01*
X135544417Y-95899996D01*
X135544417Y-95900003D01*
X135564698Y-96105929D01*
X135564699Y-96105934D01*
X135624768Y-96303954D01*
X135722316Y-96486452D01*
X135853585Y-96646404D01*
X135853590Y-96646410D01*
X135859890Y-96651580D01*
X136013547Y-96777683D01*
X136013548Y-96777683D01*
X136013550Y-96777685D01*
X136196046Y-96875232D01*
X136334468Y-96917221D01*
X136384665Y-96952206D01*
X136404711Y-97010014D01*
X136386950Y-97068565D01*
X136338166Y-97105494D01*
X136322026Y-97109608D01*
X136265490Y-97119042D01*
X136052624Y-97192119D01*
X135854698Y-97299232D01*
X135854695Y-97299234D01*
X135677103Y-97437460D01*
X135524671Y-97603045D01*
X135401584Y-97791443D01*
X135401581Y-97791448D01*
X135311176Y-97997552D01*
X135263455Y-98185999D01*
X115887245Y-98185999D01*
X115944900Y-97995934D01*
X115944901Y-97995929D01*
X115965183Y-97790003D01*
X115965183Y-97789996D01*
X115944901Y-97584070D01*
X115944900Y-97584065D01*
X115926678Y-97523997D01*
X115884832Y-97386046D01*
X115787285Y-97203550D01*
X115738493Y-97144097D01*
X115670974Y-97061824D01*
X115656010Y-97043590D01*
X115635350Y-97026635D01*
X115496052Y-96912316D01*
X115404163Y-96863200D01*
X121270507Y-96863200D01*
X121282477Y-96923379D01*
X121291889Y-96970695D01*
X121291890Y-96970698D01*
X121344095Y-97048826D01*
X121352780Y-97061824D01*
X121352783Y-97061826D01*
X121443905Y-97122713D01*
X121443907Y-97122713D01*
X121443909Y-97122715D01*
X121551404Y-97144097D01*
X121658899Y-97122715D01*
X121750028Y-97061824D01*
X121759330Y-97047901D01*
X121807379Y-97010023D01*
X121868517Y-97007621D01*
X121919391Y-97041613D01*
X121923959Y-97047900D01*
X121924576Y-97048824D01*
X121924579Y-97048826D01*
X122015701Y-97109713D01*
X122015703Y-97109713D01*
X122015705Y-97109715D01*
X122123200Y-97131097D01*
X122230695Y-97109715D01*
X122321824Y-97048824D01*
X122382715Y-96957695D01*
X122404097Y-96850200D01*
X122382715Y-96742705D01*
X122382713Y-96742703D01*
X122382713Y-96742701D01*
X122321826Y-96651579D01*
X122321824Y-96651576D01*
X122314084Y-96646404D01*
X122230698Y-96590686D01*
X122230695Y-96590685D01*
X122123200Y-96569303D01*
X122123199Y-96569303D01*
X122015704Y-96590685D01*
X122015701Y-96590686D01*
X121924579Y-96651573D01*
X121924572Y-96651580D01*
X121915271Y-96665500D01*
X121867220Y-96703377D01*
X121806081Y-96705777D01*
X121755209Y-96671782D01*
X121750641Y-96665494D01*
X121750028Y-96664576D01*
X121750024Y-96664573D01*
X121658902Y-96603686D01*
X121658899Y-96603685D01*
X121593543Y-96590685D01*
X121551404Y-96582303D01*
X121551403Y-96582303D01*
X121443908Y-96603685D01*
X121443905Y-96603686D01*
X121352783Y-96664573D01*
X121352777Y-96664579D01*
X121291890Y-96755701D01*
X121291889Y-96755704D01*
X121280141Y-96814768D01*
X121270507Y-96863200D01*
X115404163Y-96863200D01*
X115313554Y-96814768D01*
X115115534Y-96754699D01*
X115115529Y-96754698D01*
X114909603Y-96734417D01*
X114909597Y-96734417D01*
X114703670Y-96754698D01*
X114703665Y-96754699D01*
X114505645Y-96814768D01*
X114323147Y-96912316D01*
X114163195Y-97043585D01*
X114163185Y-97043595D01*
X114031916Y-97203547D01*
X113934368Y-97386045D01*
X113874299Y-97584065D01*
X113874298Y-97584070D01*
X113854017Y-97789996D01*
X113854017Y-97790003D01*
X105573436Y-97790003D01*
X105574215Y-95250003D01*
X113854017Y-95250003D01*
X113874298Y-95455929D01*
X113874299Y-95455934D01*
X113934368Y-95653954D01*
X114031916Y-95836452D01*
X114084071Y-95900003D01*
X114163190Y-95996410D01*
X114163195Y-95996414D01*
X114323147Y-96127683D01*
X114323148Y-96127683D01*
X114323150Y-96127685D01*
X114505646Y-96225232D01*
X114643597Y-96267078D01*
X114703665Y-96285300D01*
X114703670Y-96285301D01*
X114909597Y-96305583D01*
X114909600Y-96305583D01*
X114909603Y-96305583D01*
X115115529Y-96285301D01*
X115115534Y-96285300D01*
X115115533Y-96285300D01*
X115313554Y-96225232D01*
X115496050Y-96127685D01*
X115656010Y-95996410D01*
X115787285Y-95836450D01*
X115884832Y-95653954D01*
X115944900Y-95455934D01*
X115944901Y-95455929D01*
X115965183Y-95250003D01*
X115965183Y-95249996D01*
X115944901Y-95044070D01*
X115944900Y-95044065D01*
X115926678Y-94983997D01*
X115884832Y-94846046D01*
X115787285Y-94663550D01*
X115702304Y-94560000D01*
X131307103Y-94560000D01*
X131328485Y-94667495D01*
X131328486Y-94667498D01*
X131389373Y-94758620D01*
X131389376Y-94758624D01*
X131389379Y-94758626D01*
X131480501Y-94819513D01*
X131480503Y-94819513D01*
X131480505Y-94819515D01*
X131588000Y-94840897D01*
X131695495Y-94819515D01*
X131786624Y-94758624D01*
X131847515Y-94667495D01*
X131868897Y-94560000D01*
X131847515Y-94452505D01*
X131847513Y-94452503D01*
X131847513Y-94452501D01*
X131786626Y-94361379D01*
X131786624Y-94361376D01*
X131786620Y-94361373D01*
X131695498Y-94300486D01*
X131695495Y-94300485D01*
X131588000Y-94279103D01*
X131480504Y-94300485D01*
X131480501Y-94300486D01*
X131389379Y-94361373D01*
X131389373Y-94361379D01*
X131328486Y-94452501D01*
X131328485Y-94452504D01*
X131307103Y-94560000D01*
X115702304Y-94560000D01*
X115656010Y-94503590D01*
X115656004Y-94503585D01*
X115496052Y-94372316D01*
X115313554Y-94274768D01*
X115115534Y-94214699D01*
X115115529Y-94214698D01*
X114909603Y-94194417D01*
X114909597Y-94194417D01*
X114703670Y-94214698D01*
X114703665Y-94214699D01*
X114505645Y-94274768D01*
X114323147Y-94372316D01*
X114163195Y-94503585D01*
X114163185Y-94503595D01*
X114031916Y-94663547D01*
X113934368Y-94846045D01*
X113874299Y-95044065D01*
X113874298Y-95044070D01*
X113854017Y-95249996D01*
X113854017Y-95250003D01*
X105574215Y-95250003D01*
X105574727Y-93579746D01*
X113859100Y-93579746D01*
X113859101Y-93579758D01*
X113870732Y-93638227D01*
X113870733Y-93638231D01*
X113915048Y-93704552D01*
X113981369Y-93748867D01*
X114025831Y-93757711D01*
X114039841Y-93760498D01*
X114039846Y-93760498D01*
X114039852Y-93760500D01*
X114039853Y-93760500D01*
X115779347Y-93760500D01*
X115779348Y-93760500D01*
X115837831Y-93748867D01*
X115904152Y-93704552D01*
X115948467Y-93638231D01*
X115960100Y-93579748D01*
X115960100Y-93360003D01*
X135544417Y-93360003D01*
X135564698Y-93565929D01*
X135564699Y-93565934D01*
X135624768Y-93763954D01*
X135722316Y-93946452D01*
X135853585Y-94106404D01*
X135853590Y-94106410D01*
X135853595Y-94106414D01*
X136013547Y-94237683D01*
X136013548Y-94237683D01*
X136013550Y-94237685D01*
X136196046Y-94335232D01*
X136318294Y-94372315D01*
X136394065Y-94395300D01*
X136394070Y-94395301D01*
X136599997Y-94415583D01*
X136600000Y-94415583D01*
X136600003Y-94415583D01*
X136805929Y-94395301D01*
X136805934Y-94395300D01*
X136805933Y-94395299D01*
X137003954Y-94335232D01*
X137186450Y-94237685D01*
X137346410Y-94106410D01*
X137477685Y-93946450D01*
X137575232Y-93763954D01*
X137635300Y-93565934D01*
X137635301Y-93565929D01*
X137655583Y-93360003D01*
X138084417Y-93360003D01*
X138104698Y-93565929D01*
X138104699Y-93565934D01*
X138164768Y-93763954D01*
X138262316Y-93946452D01*
X138393585Y-94106404D01*
X138393590Y-94106410D01*
X138393595Y-94106414D01*
X138553547Y-94237683D01*
X138553548Y-94237683D01*
X138553550Y-94237685D01*
X138736046Y-94335232D01*
X138858294Y-94372315D01*
X138934065Y-94395300D01*
X138934070Y-94395301D01*
X139139997Y-94415583D01*
X139140000Y-94415583D01*
X139140003Y-94415583D01*
X139345929Y-94395301D01*
X139345934Y-94395300D01*
X139345933Y-94395300D01*
X139543954Y-94335232D01*
X139726450Y-94237685D01*
X139886410Y-94106410D01*
X140017685Y-93946450D01*
X140115232Y-93763954D01*
X140175300Y-93565934D01*
X140175301Y-93565929D01*
X140195583Y-93360003D01*
X140195583Y-93359996D01*
X140175301Y-93154070D01*
X140175300Y-93154065D01*
X140157078Y-93093997D01*
X140115232Y-92956046D01*
X140017685Y-92773550D01*
X139886410Y-92613590D01*
X139886404Y-92613585D01*
X139726452Y-92482316D01*
X139543954Y-92384768D01*
X139345934Y-92324699D01*
X139345929Y-92324698D01*
X139140003Y-92304417D01*
X139139997Y-92304417D01*
X138934070Y-92324698D01*
X138934065Y-92324699D01*
X138736045Y-92384768D01*
X138553547Y-92482316D01*
X138393595Y-92613585D01*
X138393585Y-92613595D01*
X138262316Y-92773547D01*
X138164768Y-92956045D01*
X138104699Y-93154065D01*
X138104698Y-93154070D01*
X138084417Y-93359996D01*
X138084417Y-93360003D01*
X137655583Y-93360003D01*
X137655583Y-93359996D01*
X137635301Y-93154070D01*
X137635300Y-93154065D01*
X137617078Y-93093997D01*
X137575232Y-92956046D01*
X137477685Y-92773550D01*
X137346410Y-92613590D01*
X137346404Y-92613585D01*
X137186452Y-92482316D01*
X137003954Y-92384768D01*
X136805934Y-92324699D01*
X136805929Y-92324698D01*
X136600003Y-92304417D01*
X136599997Y-92304417D01*
X136394070Y-92324698D01*
X136394065Y-92324699D01*
X136196045Y-92384768D01*
X136013547Y-92482316D01*
X135853595Y-92613585D01*
X135853585Y-92613595D01*
X135722316Y-92773547D01*
X135624768Y-92956045D01*
X135564699Y-93154065D01*
X135564698Y-93154070D01*
X135544417Y-93359996D01*
X135544417Y-93360003D01*
X115960100Y-93360003D01*
X115960100Y-91840252D01*
X115948467Y-91781769D01*
X115904152Y-91715448D01*
X115904148Y-91715445D01*
X115865687Y-91689746D01*
X135549500Y-91689746D01*
X135549501Y-91689758D01*
X135561132Y-91748227D01*
X135561134Y-91748233D01*
X135605445Y-91814548D01*
X135605448Y-91814552D01*
X135671769Y-91858867D01*
X135716231Y-91867711D01*
X135730241Y-91870498D01*
X135730246Y-91870498D01*
X135730252Y-91870500D01*
X135730253Y-91870500D01*
X137469747Y-91870500D01*
X137469748Y-91870500D01*
X137528231Y-91858867D01*
X137594552Y-91814552D01*
X137638867Y-91748231D01*
X137650500Y-91689748D01*
X137650500Y-90820003D01*
X138084417Y-90820003D01*
X138104698Y-91025929D01*
X138104699Y-91025934D01*
X138164768Y-91223954D01*
X138262316Y-91406452D01*
X138367086Y-91534115D01*
X138393590Y-91566410D01*
X138393595Y-91566414D01*
X138553547Y-91697683D01*
X138553548Y-91697683D01*
X138553550Y-91697685D01*
X138736046Y-91795232D01*
X138873997Y-91837078D01*
X138934065Y-91855300D01*
X138934070Y-91855301D01*
X139139997Y-91875583D01*
X139140000Y-91875583D01*
X139140003Y-91875583D01*
X139345929Y-91855301D01*
X139345934Y-91855300D01*
X139345933Y-91855299D01*
X139543954Y-91795232D01*
X139726450Y-91697685D01*
X139886410Y-91566410D01*
X140017685Y-91406450D01*
X140115232Y-91223954D01*
X140175300Y-91025934D01*
X140175301Y-91025929D01*
X140195583Y-90820003D01*
X140195583Y-90819996D01*
X140175301Y-90614070D01*
X140175300Y-90614065D01*
X140157078Y-90553997D01*
X140115232Y-90416046D01*
X140017685Y-90233550D01*
X139886410Y-90073590D01*
X139736123Y-89950253D01*
X139726452Y-89942316D01*
X139543954Y-89844768D01*
X139345934Y-89784699D01*
X139345929Y-89784698D01*
X139140003Y-89764417D01*
X139139997Y-89764417D01*
X138934070Y-89784698D01*
X138934065Y-89784699D01*
X138736045Y-89844768D01*
X138553547Y-89942316D01*
X138393595Y-90073585D01*
X138393585Y-90073595D01*
X138262316Y-90233547D01*
X138164768Y-90416045D01*
X138104699Y-90614065D01*
X138104698Y-90614070D01*
X138084417Y-90819996D01*
X138084417Y-90820003D01*
X137650500Y-90820003D01*
X137650500Y-89950252D01*
X137648921Y-89942316D01*
X137647711Y-89936231D01*
X137638867Y-89891769D01*
X137594552Y-89825448D01*
X137554402Y-89798620D01*
X137528233Y-89781134D01*
X137528231Y-89781133D01*
X137528228Y-89781132D01*
X137528227Y-89781132D01*
X137469758Y-89769501D01*
X137469748Y-89769500D01*
X135730252Y-89769500D01*
X135730251Y-89769500D01*
X135730241Y-89769501D01*
X135671772Y-89781132D01*
X135671766Y-89781134D01*
X135605451Y-89825445D01*
X135605445Y-89825451D01*
X135561134Y-89891766D01*
X135561132Y-89891772D01*
X135549501Y-89950241D01*
X135549500Y-89950253D01*
X135549500Y-91689746D01*
X115865687Y-91689746D01*
X115837833Y-91671134D01*
X115837831Y-91671133D01*
X115837828Y-91671132D01*
X115837827Y-91671132D01*
X115779358Y-91659501D01*
X115779348Y-91659500D01*
X114039852Y-91659500D01*
X114039851Y-91659500D01*
X114039841Y-91659501D01*
X113981372Y-91671132D01*
X113981366Y-91671134D01*
X113915051Y-91715445D01*
X113915045Y-91715451D01*
X113870734Y-91781766D01*
X113870732Y-91781772D01*
X113859101Y-91840241D01*
X113859100Y-91840253D01*
X113859100Y-93579746D01*
X105574727Y-93579746D01*
X105575434Y-91274600D01*
X121242803Y-91274600D01*
X121264185Y-91382095D01*
X121264186Y-91382098D01*
X121325073Y-91473220D01*
X121325076Y-91473224D01*
X121325079Y-91473226D01*
X121416201Y-91534113D01*
X121416203Y-91534113D01*
X121416205Y-91534115D01*
X121523700Y-91555497D01*
X121631195Y-91534115D01*
X121719551Y-91475076D01*
X121778434Y-91458469D01*
X121829551Y-91475078D01*
X121917901Y-91534113D01*
X121917903Y-91534113D01*
X121917905Y-91534115D01*
X122025400Y-91555497D01*
X122132895Y-91534115D01*
X122224024Y-91473224D01*
X122284915Y-91382095D01*
X122306297Y-91274600D01*
X122284915Y-91167105D01*
X122284913Y-91167103D01*
X122284913Y-91167101D01*
X122224026Y-91075979D01*
X122224024Y-91075976D01*
X122221248Y-91074121D01*
X122132898Y-91015086D01*
X122132895Y-91015085D01*
X122132894Y-91015085D01*
X122025400Y-90993703D01*
X122025399Y-90993703D01*
X121917904Y-91015085D01*
X121917901Y-91015087D01*
X121829551Y-91074121D01*
X121770662Y-91090730D01*
X121719548Y-91074121D01*
X121688333Y-91053263D01*
X121631198Y-91015086D01*
X121631195Y-91015085D01*
X121631195Y-91015084D01*
X121523700Y-90993703D01*
X121523699Y-90993703D01*
X121416204Y-91015085D01*
X121416201Y-91015086D01*
X121325079Y-91075973D01*
X121325073Y-91075979D01*
X121264186Y-91167101D01*
X121264185Y-91167104D01*
X121242803Y-91274600D01*
X105575434Y-91274600D01*
X105575948Y-89600000D01*
X131957103Y-89600000D01*
X131978485Y-89707495D01*
X131978486Y-89707498D01*
X132030072Y-89784700D01*
X132039376Y-89798624D01*
X132039379Y-89798626D01*
X132130501Y-89859513D01*
X132130503Y-89859513D01*
X132130505Y-89859515D01*
X132238000Y-89880897D01*
X132345495Y-89859515D01*
X132436624Y-89798624D01*
X132497515Y-89707495D01*
X132518897Y-89600000D01*
X132497515Y-89492505D01*
X132497513Y-89492503D01*
X132497513Y-89492501D01*
X132436626Y-89401379D01*
X132436624Y-89401376D01*
X132436620Y-89401373D01*
X132345498Y-89340486D01*
X132345495Y-89340485D01*
X132238000Y-89319103D01*
X132130504Y-89340485D01*
X132130501Y-89340486D01*
X132039379Y-89401373D01*
X132039373Y-89401379D01*
X131978486Y-89492501D01*
X131978485Y-89492504D01*
X131957103Y-89600000D01*
X105575948Y-89600000D01*
X105576056Y-89250000D01*
X129119103Y-89250000D01*
X129140485Y-89357495D01*
X129140486Y-89357498D01*
X129201373Y-89448620D01*
X129201376Y-89448624D01*
X129201379Y-89448626D01*
X129292501Y-89509513D01*
X129292503Y-89509513D01*
X129292505Y-89509515D01*
X129400000Y-89530897D01*
X129507495Y-89509515D01*
X129598624Y-89448624D01*
X129659515Y-89357495D01*
X129680897Y-89250000D01*
X129659515Y-89142505D01*
X129659513Y-89142503D01*
X129659513Y-89142501D01*
X129598626Y-89051379D01*
X129598624Y-89051376D01*
X129598620Y-89051373D01*
X129507498Y-88990486D01*
X129507495Y-88990485D01*
X129400000Y-88969103D01*
X129292504Y-88990485D01*
X129292501Y-88990486D01*
X129201379Y-89051373D01*
X129201373Y-89051379D01*
X129140486Y-89142501D01*
X129140485Y-89142504D01*
X129119103Y-89250000D01*
X105576056Y-89250000D01*
X105576240Y-88650000D01*
X116269103Y-88650000D01*
X116290485Y-88757495D01*
X116290486Y-88757498D01*
X116346212Y-88840896D01*
X116351376Y-88848624D01*
X116351379Y-88848626D01*
X116442501Y-88909513D01*
X116442503Y-88909513D01*
X116442505Y-88909515D01*
X116550000Y-88930897D01*
X116657495Y-88909515D01*
X116748624Y-88848624D01*
X116809515Y-88757495D01*
X116830897Y-88650000D01*
X116812995Y-88560000D01*
X132879103Y-88560000D01*
X132885569Y-88592505D01*
X132900485Y-88667495D01*
X132900486Y-88667498D01*
X132961373Y-88758620D01*
X132961376Y-88758624D01*
X132961379Y-88758626D01*
X133052501Y-88819513D01*
X133052503Y-88819513D01*
X133052505Y-88819515D01*
X133160000Y-88840897D01*
X133267495Y-88819515D01*
X133358624Y-88758624D01*
X133397796Y-88700000D01*
X135899103Y-88700000D01*
X135910540Y-88757498D01*
X135920485Y-88807495D01*
X135920486Y-88807498D01*
X135981373Y-88898620D01*
X135981376Y-88898624D01*
X135981379Y-88898626D01*
X136072501Y-88959513D01*
X136072503Y-88959513D01*
X136072505Y-88959515D01*
X136180000Y-88980897D01*
X136287495Y-88959515D01*
X136378624Y-88898624D01*
X136439515Y-88807495D01*
X136460897Y-88700000D01*
X136439515Y-88592505D01*
X136439513Y-88592503D01*
X136439513Y-88592501D01*
X136378626Y-88501379D01*
X136378624Y-88501376D01*
X136378620Y-88501373D01*
X136287498Y-88440486D01*
X136287495Y-88440485D01*
X136180000Y-88419103D01*
X136072504Y-88440485D01*
X136072501Y-88440486D01*
X135981379Y-88501373D01*
X135981373Y-88501379D01*
X135920486Y-88592501D01*
X135920485Y-88592504D01*
X135905569Y-88667495D01*
X135899103Y-88700000D01*
X133397796Y-88700000D01*
X133419515Y-88667495D01*
X133440897Y-88560000D01*
X133419515Y-88452505D01*
X133419513Y-88452503D01*
X133419513Y-88452501D01*
X133358626Y-88361379D01*
X133358624Y-88361376D01*
X133355465Y-88359265D01*
X133267498Y-88300486D01*
X133267495Y-88300485D01*
X133218483Y-88290736D01*
X133160000Y-88279103D01*
X133159999Y-88279103D01*
X133052504Y-88300485D01*
X133052501Y-88300486D01*
X132961379Y-88361373D01*
X132961373Y-88361379D01*
X132900486Y-88452501D01*
X132900485Y-88452504D01*
X132890765Y-88501373D01*
X132879103Y-88560000D01*
X116812995Y-88560000D01*
X116809515Y-88542505D01*
X116809513Y-88542503D01*
X116809513Y-88542501D01*
X116748626Y-88451379D01*
X116748624Y-88451376D01*
X116732326Y-88440486D01*
X116682683Y-88407315D01*
X116644804Y-88359265D01*
X116642402Y-88298127D01*
X116676395Y-88247253D01*
X116682683Y-88242685D01*
X116699766Y-88231269D01*
X116748624Y-88198624D01*
X116809515Y-88107495D01*
X116830897Y-88000000D01*
X116809515Y-87892505D01*
X116809513Y-87892503D01*
X116809513Y-87892501D01*
X116804196Y-87884543D01*
X129806603Y-87884543D01*
X129814995Y-87926731D01*
X129827985Y-87992038D01*
X129827986Y-87992041D01*
X129860492Y-88040688D01*
X129888876Y-88083167D01*
X129888879Y-88083169D01*
X129980001Y-88144056D01*
X129980003Y-88144056D01*
X129980005Y-88144058D01*
X130087500Y-88165440D01*
X130194995Y-88144058D01*
X130286124Y-88083167D01*
X130347015Y-87992038D01*
X130368397Y-87884543D01*
X130347015Y-87777048D01*
X130347013Y-87777046D01*
X130347013Y-87777044D01*
X130286126Y-87685922D01*
X130286124Y-87685919D01*
X130286120Y-87685916D01*
X130194998Y-87625029D01*
X130194995Y-87625028D01*
X130087500Y-87603646D01*
X129980004Y-87625028D01*
X129980001Y-87625029D01*
X129888879Y-87685916D01*
X129888873Y-87685922D01*
X129827986Y-87777044D01*
X129827985Y-87777047D01*
X129811582Y-87859514D01*
X129806603Y-87884543D01*
X116804196Y-87884543D01*
X116748626Y-87801379D01*
X116748624Y-87801376D01*
X116720096Y-87782314D01*
X116682218Y-87734266D01*
X116679816Y-87673127D01*
X116713809Y-87622254D01*
X116720097Y-87617685D01*
X116746565Y-87600000D01*
X128219103Y-87600000D01*
X128233649Y-87673127D01*
X128240485Y-87707495D01*
X128240486Y-87707498D01*
X128290479Y-87782316D01*
X128301376Y-87798624D01*
X128301379Y-87798626D01*
X128392501Y-87859513D01*
X128392503Y-87859513D01*
X128392505Y-87859515D01*
X128500000Y-87880897D01*
X128607495Y-87859515D01*
X128698624Y-87798624D01*
X128759515Y-87707495D01*
X128780897Y-87600000D01*
X128759515Y-87492505D01*
X128759513Y-87492503D01*
X128759513Y-87492501D01*
X128698626Y-87401379D01*
X128698624Y-87401376D01*
X128696565Y-87400000D01*
X128607498Y-87340486D01*
X128607495Y-87340485D01*
X128500000Y-87319103D01*
X128392504Y-87340485D01*
X128392501Y-87340486D01*
X128301379Y-87401373D01*
X128301373Y-87401379D01*
X128240486Y-87492501D01*
X128240485Y-87492504D01*
X128239269Y-87498620D01*
X128219103Y-87600000D01*
X116746565Y-87600000D01*
X116748624Y-87598624D01*
X116809515Y-87507495D01*
X116830897Y-87400000D01*
X116811006Y-87300000D01*
X121519103Y-87300000D01*
X121540485Y-87407495D01*
X121540486Y-87407498D01*
X121597287Y-87492505D01*
X121601376Y-87498624D01*
X121601379Y-87498626D01*
X121692501Y-87559513D01*
X121692503Y-87559513D01*
X121692505Y-87559515D01*
X121800000Y-87580897D01*
X121907495Y-87559515D01*
X121998624Y-87498624D01*
X122017685Y-87470096D01*
X122065734Y-87432218D01*
X122126873Y-87429816D01*
X122177746Y-87463809D01*
X122182308Y-87470087D01*
X122201376Y-87498624D01*
X122201379Y-87498626D01*
X122292501Y-87559513D01*
X122292503Y-87559513D01*
X122292505Y-87559515D01*
X122400000Y-87580897D01*
X122507495Y-87559515D01*
X122598624Y-87498624D01*
X122659515Y-87407495D01*
X122680897Y-87300000D01*
X122659515Y-87192505D01*
X122659513Y-87192503D01*
X122659513Y-87192501D01*
X122598626Y-87101379D01*
X122598624Y-87101376D01*
X122598620Y-87101373D01*
X122507498Y-87040486D01*
X122507495Y-87040485D01*
X122473470Y-87033717D01*
X143670691Y-87033717D01*
X143680839Y-87298469D01*
X143731283Y-87558568D01*
X143731284Y-87558571D01*
X143775218Y-87680897D01*
X143820841Y-87807925D01*
X143947413Y-88040687D01*
X143947414Y-88040688D01*
X144042508Y-88165440D01*
X144108031Y-88251398D01*
X144298933Y-88435122D01*
X144515642Y-88587552D01*
X144515645Y-88587554D01*
X144515650Y-88587556D01*
X144753075Y-88705113D01*
X144753077Y-88705113D01*
X144753080Y-88705115D01*
X145005682Y-88785056D01*
X145267526Y-88825500D01*
X145267527Y-88825500D01*
X145466143Y-88825500D01*
X145664162Y-88810297D01*
X145664166Y-88810296D01*
X145664171Y-88810296D01*
X145922151Y-88749927D01*
X146167892Y-88650884D01*
X146395634Y-88515491D01*
X146473379Y-88451375D01*
X146600031Y-88346926D01*
X146600033Y-88346923D01*
X146600039Y-88346919D01*
X146776316Y-88149120D01*
X146920334Y-87926731D01*
X147028716Y-87684965D01*
X147057315Y-87580896D01*
X147098923Y-87429488D01*
X147111666Y-87319103D01*
X147129308Y-87166286D01*
X147128154Y-87136189D01*
X147119160Y-86901530D01*
X147093750Y-86770511D01*
X147068716Y-86641429D01*
X146979159Y-86392075D01*
X146852587Y-86159314D01*
X146852586Y-86159312D01*
X146852585Y-86159311D01*
X146691975Y-85948610D01*
X146691969Y-85948602D01*
X146501067Y-85764878D01*
X146339702Y-85651376D01*
X146284354Y-85612445D01*
X146284349Y-85612443D01*
X146046924Y-85494886D01*
X146046921Y-85494885D01*
X145794315Y-85414943D01*
X145590995Y-85383539D01*
X145532474Y-85374500D01*
X145333860Y-85374500D01*
X145333857Y-85374500D01*
X145135837Y-85389702D01*
X145135824Y-85389704D01*
X144877849Y-85450073D01*
X144632102Y-85549118D01*
X144404365Y-85684508D01*
X144199968Y-85853073D01*
X144199960Y-85853081D01*
X144023691Y-86050871D01*
X144023681Y-86050884D01*
X143879665Y-86273269D01*
X143771283Y-86515036D01*
X143771280Y-86515045D01*
X143701076Y-86770511D01*
X143670692Y-87033714D01*
X143670691Y-87033717D01*
X122473470Y-87033717D01*
X122400000Y-87019103D01*
X122292504Y-87040485D01*
X122292501Y-87040486D01*
X122201379Y-87101373D01*
X122201373Y-87101379D01*
X122182315Y-87129902D01*
X122134265Y-87167781D01*
X122073126Y-87170183D01*
X122022253Y-87136189D01*
X122017685Y-87129902D01*
X121998626Y-87101379D01*
X121998624Y-87101376D01*
X121998620Y-87101373D01*
X121907498Y-87040486D01*
X121907495Y-87040485D01*
X121800000Y-87019103D01*
X121692504Y-87040485D01*
X121692501Y-87040486D01*
X121601379Y-87101373D01*
X121601373Y-87101379D01*
X121540486Y-87192501D01*
X121540485Y-87192504D01*
X121519103Y-87300000D01*
X116811006Y-87300000D01*
X116809515Y-87292505D01*
X116809513Y-87292503D01*
X116809513Y-87292501D01*
X116748626Y-87201379D01*
X116748624Y-87201376D01*
X116735348Y-87192505D01*
X116657498Y-87140486D01*
X116657495Y-87140485D01*
X116604290Y-87129902D01*
X116550000Y-87119103D01*
X116549999Y-87119103D01*
X116442504Y-87140485D01*
X116442501Y-87140486D01*
X116351379Y-87201373D01*
X116351373Y-87201379D01*
X116290486Y-87292501D01*
X116290485Y-87292504D01*
X116269103Y-87400000D01*
X116290485Y-87507495D01*
X116290486Y-87507498D01*
X116339530Y-87580896D01*
X116351376Y-87598624D01*
X116351379Y-87598626D01*
X116379902Y-87617685D01*
X116417781Y-87665735D01*
X116420183Y-87726874D01*
X116386189Y-87777747D01*
X116379902Y-87782315D01*
X116351379Y-87801373D01*
X116351373Y-87801379D01*
X116290486Y-87892501D01*
X116290485Y-87892504D01*
X116269103Y-88000000D01*
X116290485Y-88107495D01*
X116290486Y-88107498D01*
X116351373Y-88198620D01*
X116351376Y-88198624D01*
X116400146Y-88231211D01*
X116417317Y-88242685D01*
X116455195Y-88290736D01*
X116457597Y-88351874D01*
X116423603Y-88402747D01*
X116417317Y-88407315D01*
X116351377Y-88451375D01*
X116351373Y-88451379D01*
X116290486Y-88542501D01*
X116290485Y-88542504D01*
X116269103Y-88650000D01*
X105576240Y-88650000D01*
X105576900Y-86500000D01*
X129006603Y-86500000D01*
X129027985Y-86607495D01*
X129027986Y-86607498D01*
X129061394Y-86657495D01*
X129088876Y-86698624D01*
X129088879Y-86698626D01*
X129180001Y-86759513D01*
X129180003Y-86759513D01*
X129180005Y-86759515D01*
X129287500Y-86780897D01*
X129394995Y-86759515D01*
X129415352Y-86745913D01*
X131374544Y-86745913D01*
X131395926Y-86853408D01*
X131395927Y-86853411D01*
X131456814Y-86944533D01*
X131456817Y-86944537D01*
X131456820Y-86944539D01*
X131547942Y-87005426D01*
X131547944Y-87005426D01*
X131547946Y-87005428D01*
X131655441Y-87026810D01*
X131762936Y-87005428D01*
X131854065Y-86944537D01*
X131914956Y-86853408D01*
X131936338Y-86745913D01*
X131927205Y-86700000D01*
X138569103Y-86700000D01*
X138583129Y-86770513D01*
X138590485Y-86807495D01*
X138590486Y-86807498D01*
X138621163Y-86853408D01*
X138651376Y-86898624D01*
X138651379Y-86898626D01*
X138742501Y-86959513D01*
X138742503Y-86959513D01*
X138742505Y-86959515D01*
X138850000Y-86980897D01*
X138957495Y-86959515D01*
X139048624Y-86898624D01*
X139109515Y-86807495D01*
X139130897Y-86700000D01*
X139109515Y-86592505D01*
X139109513Y-86592503D01*
X139109513Y-86592501D01*
X139081114Y-86550000D01*
X139669103Y-86550000D01*
X139690485Y-86657495D01*
X139690486Y-86657498D01*
X139751373Y-86748620D01*
X139751376Y-86748624D01*
X139751379Y-86748626D01*
X139842501Y-86809513D01*
X139842503Y-86809513D01*
X139842505Y-86809515D01*
X139950000Y-86830897D01*
X140057495Y-86809515D01*
X140148624Y-86748624D01*
X140209515Y-86657495D01*
X140230897Y-86550000D01*
X140209515Y-86442505D01*
X140209513Y-86442503D01*
X140209513Y-86442501D01*
X140148626Y-86351379D01*
X140148624Y-86351376D01*
X140148620Y-86351373D01*
X140057498Y-86290486D01*
X140057495Y-86290485D01*
X140057494Y-86290485D01*
X139950000Y-86269103D01*
X139949999Y-86269103D01*
X139842504Y-86290485D01*
X139842501Y-86290486D01*
X139751379Y-86351373D01*
X139751373Y-86351379D01*
X139690486Y-86442501D01*
X139690485Y-86442504D01*
X139669103Y-86550000D01*
X139081114Y-86550000D01*
X139048626Y-86501379D01*
X139048624Y-86501376D01*
X139048620Y-86501373D01*
X139042130Y-86494883D01*
X139030291Y-86471647D01*
X139022378Y-86472901D01*
X138982863Y-86457435D01*
X138957498Y-86440487D01*
X138957495Y-86440485D01*
X138850000Y-86419103D01*
X138742504Y-86440485D01*
X138742501Y-86440486D01*
X138651379Y-86501373D01*
X138651373Y-86501379D01*
X138590486Y-86592501D01*
X138590485Y-86592504D01*
X138581353Y-86638417D01*
X138569103Y-86700000D01*
X131927205Y-86700000D01*
X131914956Y-86638418D01*
X131914954Y-86638416D01*
X131914954Y-86638414D01*
X131854067Y-86547292D01*
X131854065Y-86547289D01*
X131854061Y-86547286D01*
X131762939Y-86486399D01*
X131762936Y-86486398D01*
X131655441Y-86465016D01*
X131547945Y-86486398D01*
X131547942Y-86486399D01*
X131456820Y-86547286D01*
X131456814Y-86547292D01*
X131395927Y-86638414D01*
X131395926Y-86638417D01*
X131374544Y-86745913D01*
X129415352Y-86745913D01*
X129486124Y-86698624D01*
X129547015Y-86607495D01*
X129568397Y-86500000D01*
X129547015Y-86392505D01*
X129547013Y-86392503D01*
X129547013Y-86392501D01*
X129486126Y-86301379D01*
X129486124Y-86301376D01*
X129486120Y-86301373D01*
X129394998Y-86240486D01*
X129394995Y-86240485D01*
X129287500Y-86219103D01*
X129180004Y-86240485D01*
X129180001Y-86240486D01*
X129088879Y-86301373D01*
X129088873Y-86301379D01*
X129027986Y-86392501D01*
X129027985Y-86392504D01*
X129006603Y-86500000D01*
X105576900Y-86500000D01*
X105577099Y-85850000D01*
X137869103Y-85850000D01*
X137890485Y-85957495D01*
X137890486Y-85957498D01*
X137951373Y-86048620D01*
X137951376Y-86048624D01*
X137951379Y-86048626D01*
X138042501Y-86109513D01*
X138042503Y-86109513D01*
X138042505Y-86109515D01*
X138150000Y-86130897D01*
X138257495Y-86109515D01*
X138271735Y-86100000D01*
X139019103Y-86100000D01*
X139020996Y-86109515D01*
X139040485Y-86207495D01*
X139040486Y-86207498D01*
X139095938Y-86290486D01*
X139101376Y-86298624D01*
X139101379Y-86298626D01*
X139107869Y-86305116D01*
X139119707Y-86328351D01*
X139127621Y-86327098D01*
X139167136Y-86342564D01*
X139192501Y-86359513D01*
X139192503Y-86359513D01*
X139192505Y-86359515D01*
X139300000Y-86380897D01*
X139407495Y-86359515D01*
X139498624Y-86298624D01*
X139559515Y-86207495D01*
X139580897Y-86100000D01*
X139559515Y-85992505D01*
X139559513Y-85992503D01*
X139559513Y-85992501D01*
X139498626Y-85901379D01*
X139498624Y-85901376D01*
X139498620Y-85901373D01*
X139407498Y-85840486D01*
X139407495Y-85840485D01*
X139300000Y-85819103D01*
X139192504Y-85840485D01*
X139192501Y-85840486D01*
X139101379Y-85901373D01*
X139101373Y-85901379D01*
X139040486Y-85992501D01*
X139040485Y-85992504D01*
X139028874Y-86050880D01*
X139019103Y-86100000D01*
X138271735Y-86100000D01*
X138348624Y-86048624D01*
X138409515Y-85957495D01*
X138430897Y-85850000D01*
X138409515Y-85742505D01*
X138409513Y-85742503D01*
X138409513Y-85742501D01*
X138348626Y-85651379D01*
X138348624Y-85651376D01*
X138348620Y-85651373D01*
X138257498Y-85590486D01*
X138257495Y-85590485D01*
X138150000Y-85569103D01*
X138042504Y-85590485D01*
X138042501Y-85590486D01*
X137951379Y-85651373D01*
X137951373Y-85651379D01*
X137890486Y-85742501D01*
X137890485Y-85742504D01*
X137869103Y-85850000D01*
X105577099Y-85850000D01*
X105577636Y-84100000D01*
X132919103Y-84100000D01*
X132940485Y-84207495D01*
X132940486Y-84207498D01*
X133001373Y-84298620D01*
X133001376Y-84298624D01*
X133001379Y-84298626D01*
X133092501Y-84359513D01*
X133092503Y-84359513D01*
X133092505Y-84359515D01*
X133200000Y-84380897D01*
X133307495Y-84359515D01*
X133398624Y-84298624D01*
X133459515Y-84207495D01*
X133480897Y-84100000D01*
X133459515Y-83992505D01*
X133459513Y-83992503D01*
X133459513Y-83992501D01*
X133398626Y-83901379D01*
X133398624Y-83901376D01*
X133398620Y-83901373D01*
X133307498Y-83840486D01*
X133307495Y-83840485D01*
X133200000Y-83819103D01*
X133199999Y-83819103D01*
X133092504Y-83840485D01*
X133092501Y-83840486D01*
X133001379Y-83901373D01*
X133001373Y-83901379D01*
X132940486Y-83992501D01*
X132940485Y-83992504D01*
X132919103Y-84100000D01*
X105577636Y-84100000D01*
X105578361Y-81735638D01*
X106820801Y-81735638D01*
X106830655Y-81992719D01*
X106879638Y-82245280D01*
X106879639Y-82245283D01*
X106965385Y-82484027D01*
X106966602Y-82487414D01*
X107086277Y-82707495D01*
X107089504Y-82713428D01*
X107205259Y-82865284D01*
X107245471Y-82918036D01*
X107430832Y-83096429D01*
X107430834Y-83096431D01*
X107430837Y-83096433D01*
X107430838Y-83096434D01*
X107641268Y-83244447D01*
X107641271Y-83244449D01*
X107641276Y-83244452D01*
X107871821Y-83358602D01*
X107871823Y-83358602D01*
X107871826Y-83358604D01*
X108117108Y-83436228D01*
X108371364Y-83475500D01*
X108371365Y-83475500D01*
X108564230Y-83475500D01*
X108616553Y-83471482D01*
X108756517Y-83460737D01*
X108756520Y-83460736D01*
X108756522Y-83460736D01*
X108786859Y-83453636D01*
X109007021Y-83402117D01*
X109245641Y-83305944D01*
X109466783Y-83174474D01*
X109526771Y-83125002D01*
X113419610Y-83125002D01*
X113439067Y-83260337D01*
X113439069Y-83260345D01*
X113495868Y-83384715D01*
X113495869Y-83384716D01*
X113495870Y-83384718D01*
X113585411Y-83488055D01*
X113700439Y-83561978D01*
X113831633Y-83600500D01*
X113831634Y-83600500D01*
X113968366Y-83600500D01*
X113968367Y-83600500D01*
X114099561Y-83561978D01*
X114214589Y-83488055D01*
X114273990Y-83419502D01*
X128745930Y-83419502D01*
X128749257Y-83436227D01*
X128767312Y-83526997D01*
X128767313Y-83527000D01*
X128828200Y-83618122D01*
X128828203Y-83618126D01*
X128828206Y-83618128D01*
X128919328Y-83679015D01*
X128919330Y-83679015D01*
X128919332Y-83679017D01*
X129026827Y-83700399D01*
X129134322Y-83679017D01*
X129225451Y-83618126D01*
X129286342Y-83526997D01*
X129307097Y-83422656D01*
X130107780Y-83422656D01*
X130110480Y-83436228D01*
X130129162Y-83530151D01*
X130129163Y-83530154D01*
X130187947Y-83618128D01*
X130190053Y-83621280D01*
X130190056Y-83621282D01*
X130281178Y-83682169D01*
X130281180Y-83682169D01*
X130281182Y-83682171D01*
X130388677Y-83703553D01*
X130496172Y-83682171D01*
X130587301Y-83621280D01*
X130648192Y-83530151D01*
X130669574Y-83422656D01*
X130664172Y-83395498D01*
X130889103Y-83395498D01*
X130910485Y-83502993D01*
X130910486Y-83502996D01*
X130971373Y-83594118D01*
X130971376Y-83594122D01*
X130971379Y-83594124D01*
X131062501Y-83655011D01*
X131062503Y-83655011D01*
X131062505Y-83655013D01*
X131170000Y-83676395D01*
X131277495Y-83655013D01*
X131368624Y-83594122D01*
X131429515Y-83502993D01*
X131432099Y-83490002D01*
X138719610Y-83490002D01*
X138739067Y-83625337D01*
X138739069Y-83625345D01*
X138795868Y-83749715D01*
X138795869Y-83749716D01*
X138795870Y-83749718D01*
X138885411Y-83853055D01*
X139000439Y-83926978D01*
X139131633Y-83965500D01*
X139131634Y-83965500D01*
X139268366Y-83965500D01*
X139268367Y-83965500D01*
X139399561Y-83926978D01*
X139514589Y-83853055D01*
X139604130Y-83749718D01*
X139660931Y-83625342D01*
X139661968Y-83618128D01*
X139680390Y-83490002D01*
X139680390Y-83489997D01*
X139660932Y-83354662D01*
X139660930Y-83354654D01*
X139604131Y-83230284D01*
X139604130Y-83230283D01*
X139604130Y-83230282D01*
X139514589Y-83126945D01*
X139399561Y-83053022D01*
X139399558Y-83053021D01*
X139268368Y-83014500D01*
X139268367Y-83014500D01*
X139131633Y-83014500D01*
X139131631Y-83014500D01*
X139000441Y-83053021D01*
X139000439Y-83053021D01*
X139000439Y-83053022D01*
X138885411Y-83126945D01*
X138885410Y-83126945D01*
X138885410Y-83126946D01*
X138795868Y-83230284D01*
X138739069Y-83354654D01*
X138739067Y-83354662D01*
X138719610Y-83489997D01*
X138719610Y-83490002D01*
X131432099Y-83490002D01*
X131450897Y-83395498D01*
X131429515Y-83288003D01*
X131429513Y-83288001D01*
X131429513Y-83287999D01*
X131368626Y-83196877D01*
X131368624Y-83196874D01*
X131368620Y-83196871D01*
X131277498Y-83135984D01*
X131277495Y-83135983D01*
X131277495Y-83135982D01*
X131170000Y-83114601D01*
X131169999Y-83114601D01*
X131062504Y-83135983D01*
X131062501Y-83135984D01*
X130971379Y-83196871D01*
X130971373Y-83196877D01*
X130910486Y-83287999D01*
X130910485Y-83288002D01*
X130889103Y-83395498D01*
X130664172Y-83395498D01*
X130648192Y-83315161D01*
X130648190Y-83315159D01*
X130648190Y-83315157D01*
X130587303Y-83224035D01*
X130587301Y-83224032D01*
X130587297Y-83224029D01*
X130496175Y-83163142D01*
X130496172Y-83163141D01*
X130388677Y-83141759D01*
X130281181Y-83163141D01*
X130281178Y-83163142D01*
X130190056Y-83224029D01*
X130190050Y-83224035D01*
X130129163Y-83315157D01*
X130129162Y-83315160D01*
X130108408Y-83419501D01*
X130107780Y-83422656D01*
X129307097Y-83422656D01*
X129307724Y-83419502D01*
X129286342Y-83312007D01*
X129286340Y-83312005D01*
X129286340Y-83312003D01*
X129225453Y-83220881D01*
X129225451Y-83220878D01*
X129225447Y-83220875D01*
X129134325Y-83159988D01*
X129134322Y-83159987D01*
X129134322Y-83159986D01*
X129026827Y-83138605D01*
X129026826Y-83138605D01*
X128919331Y-83159987D01*
X128919328Y-83159988D01*
X128828206Y-83220875D01*
X128828200Y-83220881D01*
X128767313Y-83312003D01*
X128767312Y-83312006D01*
X128750705Y-83395498D01*
X128745930Y-83419502D01*
X114273990Y-83419502D01*
X114304130Y-83384718D01*
X114340105Y-83305944D01*
X114360930Y-83260345D01*
X114360932Y-83260337D01*
X114380390Y-83125002D01*
X114380390Y-83124997D01*
X114360932Y-82989662D01*
X114360930Y-82989654D01*
X114304131Y-82865284D01*
X114304130Y-82865283D01*
X114304130Y-82865282D01*
X114214589Y-82761945D01*
X114099561Y-82688022D01*
X114099558Y-82688021D01*
X113968368Y-82649500D01*
X113968367Y-82649500D01*
X113831633Y-82649500D01*
X113831631Y-82649500D01*
X113700441Y-82688021D01*
X113700439Y-82688021D01*
X113700439Y-82688022D01*
X113585411Y-82761945D01*
X113585410Y-82761945D01*
X113585410Y-82761946D01*
X113495868Y-82865284D01*
X113439069Y-82989654D01*
X113439067Y-82989662D01*
X113419610Y-83124997D01*
X113419610Y-83125002D01*
X109526771Y-83125002D01*
X109665265Y-83010787D01*
X109836435Y-82818720D01*
X109976279Y-82602775D01*
X110081521Y-82368014D01*
X110088459Y-82342769D01*
X110100212Y-82300000D01*
X123745131Y-82300000D01*
X123762500Y-82409661D01*
X123812905Y-82508587D01*
X123891413Y-82587095D01*
X123990339Y-82637500D01*
X124100000Y-82654869D01*
X124209661Y-82637500D01*
X124283259Y-82600000D01*
X126919103Y-82600000D01*
X126940485Y-82707495D01*
X126940486Y-82707498D01*
X126976868Y-82761946D01*
X127001376Y-82798624D01*
X127001379Y-82798626D01*
X127092501Y-82859513D01*
X127092503Y-82859513D01*
X127092505Y-82859515D01*
X127200000Y-82880897D01*
X127307495Y-82859515D01*
X127398624Y-82798624D01*
X127459515Y-82707495D01*
X127480897Y-82600000D01*
X127459515Y-82492505D01*
X127459513Y-82492503D01*
X127459513Y-82492501D01*
X127398626Y-82401379D01*
X127398624Y-82401376D01*
X127398620Y-82401373D01*
X127307498Y-82340486D01*
X127307495Y-82340485D01*
X127287818Y-82336571D01*
X127200000Y-82319103D01*
X127199999Y-82319103D01*
X127092504Y-82340485D01*
X127092501Y-82340486D01*
X127001379Y-82401373D01*
X127001373Y-82401379D01*
X126940486Y-82492501D01*
X126940485Y-82492504D01*
X126919103Y-82600000D01*
X124283259Y-82600000D01*
X124308587Y-82587095D01*
X124387095Y-82508587D01*
X124437500Y-82409661D01*
X124454869Y-82300000D01*
X124444617Y-82235272D01*
X127984874Y-82235272D01*
X127996798Y-82295220D01*
X128006256Y-82342767D01*
X128006257Y-82342770D01*
X128067144Y-82433892D01*
X128067147Y-82433896D01*
X128067150Y-82433898D01*
X128158272Y-82494785D01*
X128158274Y-82494785D01*
X128158276Y-82494787D01*
X128265771Y-82516169D01*
X128373266Y-82494787D01*
X128464395Y-82433896D01*
X128525286Y-82342767D01*
X128525287Y-82342761D01*
X128526368Y-82340153D01*
X128529426Y-82336571D01*
X128530704Y-82334659D01*
X128530930Y-82334810D01*
X128566099Y-82293622D01*
X128625592Y-82279332D01*
X128682123Y-82302741D01*
X128700151Y-82323026D01*
X128742460Y-82386345D01*
X128742463Y-82386349D01*
X128742466Y-82386351D01*
X128833588Y-82447238D01*
X128833590Y-82447238D01*
X128833592Y-82447240D01*
X128941087Y-82468622D01*
X129048582Y-82447240D01*
X129139711Y-82386349D01*
X129200602Y-82295220D01*
X129218920Y-82203130D01*
X129903422Y-82203130D01*
X129918861Y-82280748D01*
X129924804Y-82310625D01*
X129924805Y-82310628D01*
X129983605Y-82398626D01*
X129985695Y-82401754D01*
X129985698Y-82401756D01*
X130076820Y-82462643D01*
X130076822Y-82462643D01*
X130076824Y-82462645D01*
X130184319Y-82484027D01*
X130291814Y-82462645D01*
X130382943Y-82401754D01*
X130443834Y-82310625D01*
X130445373Y-82302884D01*
X130475266Y-82249504D01*
X130530830Y-82223886D01*
X130590840Y-82235820D01*
X130632374Y-82280748D01*
X130639567Y-82302880D01*
X130640484Y-82307493D01*
X130640486Y-82307498D01*
X130693171Y-82386345D01*
X130701376Y-82398624D01*
X130701379Y-82398626D01*
X130792501Y-82459513D01*
X130792503Y-82459513D01*
X130792505Y-82459515D01*
X130900000Y-82480897D01*
X131007495Y-82459515D01*
X131098624Y-82398624D01*
X131146151Y-82327495D01*
X131164933Y-82299387D01*
X131166555Y-82300471D01*
X131198268Y-82263336D01*
X131257762Y-82249049D01*
X131314291Y-82272460D01*
X131334250Y-82299932D01*
X131335067Y-82299387D01*
X131380923Y-82368014D01*
X131401376Y-82398624D01*
X131401379Y-82398626D01*
X131492501Y-82459513D01*
X131492503Y-82459513D01*
X131492505Y-82459515D01*
X131600000Y-82480897D01*
X131707495Y-82459515D01*
X131798624Y-82398624D01*
X131859515Y-82307495D01*
X131876919Y-82220000D01*
X133109103Y-82220000D01*
X133130485Y-82327495D01*
X133130486Y-82327498D01*
X133180105Y-82401756D01*
X133191376Y-82418624D01*
X133191379Y-82418626D01*
X133282501Y-82479513D01*
X133282503Y-82479513D01*
X133282505Y-82479515D01*
X133390000Y-82500897D01*
X133497495Y-82479515D01*
X133588624Y-82418624D01*
X133649515Y-82327495D01*
X133670897Y-82220000D01*
X133649515Y-82112505D01*
X133649513Y-82112503D01*
X133649513Y-82112501D01*
X133588626Y-82021379D01*
X133588624Y-82021376D01*
X133588620Y-82021373D01*
X133497498Y-81960486D01*
X133497495Y-81960485D01*
X133390000Y-81939103D01*
X133282504Y-81960485D01*
X133282501Y-81960486D01*
X133191379Y-82021373D01*
X133191373Y-82021379D01*
X133130486Y-82112501D01*
X133130485Y-82112504D01*
X133109103Y-82220000D01*
X131876919Y-82220000D01*
X131880897Y-82200000D01*
X131859515Y-82092505D01*
X131859513Y-82092503D01*
X131859513Y-82092501D01*
X131798626Y-82001379D01*
X131798624Y-82001376D01*
X131798620Y-82001373D01*
X131707498Y-81940486D01*
X131707495Y-81940485D01*
X131645784Y-81928210D01*
X131600000Y-81919103D01*
X131599999Y-81919103D01*
X131492504Y-81940485D01*
X131492501Y-81940486D01*
X131401379Y-82001373D01*
X131401373Y-82001379D01*
X131335067Y-82100613D01*
X131333445Y-82099529D01*
X131301728Y-82136666D01*
X131242233Y-82150950D01*
X131185705Y-82127535D01*
X131165748Y-82100067D01*
X131164933Y-82100613D01*
X131098626Y-82001379D01*
X131098624Y-82001376D01*
X131098620Y-82001373D01*
X131007498Y-81940486D01*
X131007495Y-81940485D01*
X130900000Y-81919103D01*
X130792504Y-81940485D01*
X130792501Y-81940486D01*
X130701379Y-82001373D01*
X130701373Y-82001379D01*
X130640486Y-82092501D01*
X130640484Y-82092507D01*
X130638945Y-82100246D01*
X130609048Y-82153629D01*
X130553482Y-82179244D01*
X130493472Y-82167306D01*
X130451941Y-82122375D01*
X130444751Y-82100246D01*
X130443834Y-82095635D01*
X130443832Y-82095632D01*
X130443832Y-82095631D01*
X130382945Y-82004509D01*
X130382943Y-82004506D01*
X130382939Y-82004503D01*
X130291817Y-81943616D01*
X130291814Y-81943615D01*
X130184319Y-81922233D01*
X130076823Y-81943615D01*
X130076820Y-81943616D01*
X129985698Y-82004503D01*
X129985692Y-82004509D01*
X129924805Y-82095631D01*
X129924804Y-82095634D01*
X129904045Y-82200000D01*
X129903422Y-82203130D01*
X129218920Y-82203130D01*
X129221984Y-82187725D01*
X129200602Y-82080230D01*
X129200600Y-82080228D01*
X129200600Y-82080226D01*
X129139713Y-81989104D01*
X129139711Y-81989101D01*
X129139707Y-81989098D01*
X129048585Y-81928211D01*
X129048582Y-81928210D01*
X128941087Y-81906828D01*
X128833591Y-81928210D01*
X128833588Y-81928211D01*
X128742466Y-81989098D01*
X128742460Y-81989104D01*
X128681571Y-82080230D01*
X128680485Y-82082853D01*
X128677424Y-82086436D01*
X128676154Y-82088338D01*
X128675928Y-82088187D01*
X128640749Y-82129379D01*
X128581255Y-82143663D01*
X128524726Y-82120249D01*
X128506706Y-82099970D01*
X128464397Y-82036651D01*
X128464395Y-82036648D01*
X128441544Y-82021379D01*
X128373269Y-81975758D01*
X128373266Y-81975757D01*
X128265771Y-81954375D01*
X128158275Y-81975757D01*
X128158272Y-81975758D01*
X128067150Y-82036645D01*
X128067144Y-82036651D01*
X128006257Y-82127773D01*
X128006256Y-82127776D01*
X127991268Y-82203129D01*
X127984874Y-82235272D01*
X124444617Y-82235272D01*
X124437500Y-82190339D01*
X124387095Y-82091413D01*
X124308587Y-82012905D01*
X124209661Y-81962500D01*
X124100000Y-81945131D01*
X123990338Y-81962500D01*
X123891413Y-82012905D01*
X123812905Y-82091413D01*
X123762500Y-82190338D01*
X123745888Y-82295223D01*
X123745131Y-82300000D01*
X110100212Y-82300000D01*
X110131065Y-82187725D01*
X110149693Y-82119939D01*
X110179198Y-81864365D01*
X110178211Y-81838626D01*
X110170598Y-81639999D01*
X120339595Y-81639999D01*
X120360977Y-81747495D01*
X120360978Y-81747498D01*
X120421865Y-81838620D01*
X120421868Y-81838624D01*
X120421871Y-81838626D01*
X120512993Y-81899513D01*
X120512995Y-81899513D01*
X120512997Y-81899515D01*
X120620492Y-81920897D01*
X120727987Y-81899515D01*
X120819116Y-81838624D01*
X120844924Y-81800000D01*
X122945131Y-81800000D01*
X122962500Y-81909661D01*
X123012905Y-82008587D01*
X123091413Y-82087095D01*
X123190339Y-82137500D01*
X123300000Y-82154869D01*
X123409661Y-82137500D01*
X123508587Y-82087095D01*
X123587095Y-82008587D01*
X123637500Y-81909661D01*
X123654869Y-81800000D01*
X123644675Y-81735638D01*
X151820801Y-81735638D01*
X151830655Y-81992719D01*
X151879638Y-82245280D01*
X151879639Y-82245283D01*
X151965385Y-82484027D01*
X151966602Y-82487414D01*
X152086277Y-82707495D01*
X152089504Y-82713428D01*
X152205259Y-82865284D01*
X152245471Y-82918036D01*
X152430832Y-83096429D01*
X152430834Y-83096431D01*
X152430837Y-83096433D01*
X152430838Y-83096434D01*
X152641268Y-83244447D01*
X152641271Y-83244449D01*
X152641276Y-83244452D01*
X152871821Y-83358602D01*
X152871823Y-83358602D01*
X152871826Y-83358604D01*
X153117108Y-83436228D01*
X153371364Y-83475500D01*
X153371365Y-83475500D01*
X153564230Y-83475500D01*
X153616553Y-83471482D01*
X153756517Y-83460737D01*
X153756520Y-83460736D01*
X153756522Y-83460736D01*
X153786859Y-83453636D01*
X154007021Y-83402117D01*
X154245641Y-83305944D01*
X154466783Y-83174474D01*
X154665265Y-83010787D01*
X154836435Y-82818720D01*
X154976279Y-82602775D01*
X155081521Y-82368014D01*
X155088459Y-82342769D01*
X155131065Y-82187725D01*
X155149693Y-82119939D01*
X155179198Y-81864365D01*
X155178211Y-81838626D01*
X155169344Y-81607280D01*
X155137167Y-81441373D01*
X155120361Y-81354717D01*
X155033399Y-81112588D01*
X154910496Y-80886572D01*
X154754531Y-80681966D01*
X154658155Y-80589213D01*
X154569167Y-80503570D01*
X154569165Y-80503568D01*
X154358728Y-80355550D01*
X154358723Y-80355547D01*
X154128178Y-80241397D01*
X154128175Y-80241396D01*
X153882893Y-80163772D01*
X153882887Y-80163771D01*
X153724215Y-80139263D01*
X153628636Y-80124500D01*
X153435773Y-80124500D01*
X153435770Y-80124500D01*
X153243477Y-80139263D01*
X152992979Y-80197883D01*
X152754353Y-80294058D01*
X152533216Y-80425525D01*
X152334742Y-80589206D01*
X152334734Y-80589213D01*
X152237228Y-80698624D01*
X152163907Y-80780897D01*
X152163561Y-80781285D01*
X152163560Y-80781285D01*
X152023720Y-80997225D01*
X151918478Y-81231987D01*
X151918475Y-81231995D01*
X151850307Y-81480058D01*
X151820802Y-81735635D01*
X151820801Y-81735638D01*
X123644675Y-81735638D01*
X123637500Y-81690339D01*
X123587095Y-81591413D01*
X123508587Y-81512905D01*
X123409661Y-81462500D01*
X123300000Y-81445131D01*
X123190338Y-81462500D01*
X123091413Y-81512905D01*
X123012905Y-81591413D01*
X122962500Y-81690338D01*
X122955326Y-81735635D01*
X122945131Y-81800000D01*
X120844924Y-81800000D01*
X120880007Y-81747495D01*
X120901389Y-81640000D01*
X120880007Y-81532505D01*
X120880005Y-81532503D01*
X120880005Y-81532501D01*
X120819118Y-81441379D01*
X120819116Y-81441376D01*
X120819112Y-81441373D01*
X120727990Y-81380486D01*
X120727987Y-81380485D01*
X120620492Y-81359103D01*
X120512996Y-81380485D01*
X120512993Y-81380486D01*
X120421871Y-81441373D01*
X120421865Y-81441379D01*
X120360978Y-81532501D01*
X120360977Y-81532504D01*
X120339595Y-81639999D01*
X110170598Y-81639999D01*
X110169344Y-81607280D01*
X110137167Y-81441373D01*
X110120361Y-81354717D01*
X110033399Y-81112588D01*
X109972176Y-81000000D01*
X122345131Y-81000000D01*
X122362500Y-81109661D01*
X122412905Y-81208587D01*
X122491413Y-81287095D01*
X122590339Y-81337500D01*
X122700000Y-81354869D01*
X122809661Y-81337500D01*
X122908587Y-81287095D01*
X122987095Y-81208587D01*
X123037500Y-81109661D01*
X123054869Y-81000000D01*
X123054429Y-80997225D01*
X123052117Y-80982629D01*
X123037500Y-80890339D01*
X122987095Y-80791413D01*
X122908587Y-80712905D01*
X122809661Y-80662500D01*
X122700000Y-80645131D01*
X122590338Y-80662500D01*
X122491413Y-80712905D01*
X122412905Y-80791413D01*
X122362500Y-80890338D01*
X122345571Y-80997225D01*
X122345131Y-81000000D01*
X109972176Y-81000000D01*
X109910496Y-80886572D01*
X109754531Y-80681966D01*
X109658155Y-80589213D01*
X109569167Y-80503570D01*
X109569165Y-80503568D01*
X109564092Y-80500000D01*
X137419103Y-80500000D01*
X137440485Y-80607495D01*
X137440486Y-80607498D01*
X137477238Y-80662500D01*
X137501376Y-80698624D01*
X137501379Y-80698626D01*
X137592501Y-80759513D01*
X137592503Y-80759513D01*
X137592505Y-80759515D01*
X137700000Y-80780897D01*
X137807495Y-80759515D01*
X137898624Y-80698624D01*
X137959515Y-80607495D01*
X137980897Y-80500000D01*
X137959515Y-80392505D01*
X137959513Y-80392503D01*
X137959513Y-80392501D01*
X137898626Y-80301379D01*
X137898624Y-80301376D01*
X137898620Y-80301373D01*
X137807498Y-80240486D01*
X137807495Y-80240485D01*
X137700000Y-80219103D01*
X137592504Y-80240485D01*
X137592501Y-80240486D01*
X137501379Y-80301373D01*
X137501373Y-80301379D01*
X137440486Y-80392501D01*
X137440485Y-80392504D01*
X137419103Y-80500000D01*
X109564092Y-80500000D01*
X109358728Y-80355550D01*
X109358723Y-80355547D01*
X109128178Y-80241397D01*
X109128175Y-80241396D01*
X108882893Y-80163772D01*
X108882887Y-80163771D01*
X108724215Y-80139263D01*
X108628636Y-80124500D01*
X108435773Y-80124500D01*
X108435770Y-80124500D01*
X108243477Y-80139263D01*
X107992979Y-80197883D01*
X107754353Y-80294058D01*
X107533216Y-80425525D01*
X107334742Y-80589206D01*
X107334734Y-80589213D01*
X107237228Y-80698624D01*
X107163907Y-80780897D01*
X107163561Y-80781285D01*
X107163560Y-80781285D01*
X107023720Y-80997225D01*
X106918478Y-81231987D01*
X106918475Y-81231995D01*
X106850307Y-81480058D01*
X106820802Y-81735635D01*
X106820801Y-81735638D01*
X105578361Y-81735638D01*
X105579321Y-78604452D01*
X105598246Y-78546268D01*
X105647757Y-78510319D01*
X105650903Y-78509884D01*
X106209708Y-77951080D01*
X106264225Y-77923303D01*
X106324657Y-77932874D01*
X106359122Y-77961965D01*
X106430754Y-78058183D01*
X106560198Y-78166801D01*
X106592620Y-78218689D01*
X106588352Y-78279726D01*
X106566565Y-78312642D01*
X106015463Y-78863745D01*
X106015463Y-78863746D01*
X106017179Y-78865211D01*
X106236331Y-78999508D01*
X106236343Y-78999514D01*
X106473813Y-79097877D01*
X106473812Y-79097877D01*
X106723754Y-79157883D01*
X106979999Y-79178049D01*
X107236245Y-79157883D01*
X107486186Y-79097877D01*
X107723656Y-78999514D01*
X107723668Y-78999508D01*
X107942818Y-78865213D01*
X107944535Y-78863746D01*
X107390762Y-78309972D01*
X107362985Y-78255455D01*
X107372556Y-78195023D01*
X107406366Y-78157254D01*
X107407216Y-78156695D01*
X107465373Y-78118445D01*
X107585688Y-77990918D01*
X107596007Y-77973043D01*
X107641473Y-77932103D01*
X107702323Y-77925704D01*
X107751748Y-77952538D01*
X108303746Y-78504535D01*
X108305213Y-78502818D01*
X108439508Y-78283668D01*
X108439514Y-78283656D01*
X108537877Y-78046186D01*
X108597883Y-77796245D01*
X108618049Y-77539999D01*
X110421950Y-77539999D01*
X110442116Y-77796245D01*
X110502122Y-78046186D01*
X110600485Y-78283656D01*
X110600491Y-78283668D01*
X110734787Y-78502819D01*
X110734791Y-78502824D01*
X110736252Y-78504535D01*
X111289708Y-77951080D01*
X111344225Y-77923303D01*
X111404657Y-77932874D01*
X111439122Y-77961965D01*
X111510754Y-78058183D01*
X111640198Y-78166801D01*
X111672620Y-78218689D01*
X111668352Y-78279726D01*
X111646565Y-78312642D01*
X111095463Y-78863745D01*
X111095463Y-78863746D01*
X111097179Y-78865211D01*
X111316331Y-78999508D01*
X111316343Y-78999514D01*
X111553813Y-79097877D01*
X111553812Y-79097877D01*
X111803754Y-79157883D01*
X112059999Y-79178049D01*
X112316245Y-79157883D01*
X112566186Y-79097877D01*
X112754191Y-79020003D01*
X114544417Y-79020003D01*
X114564698Y-79225929D01*
X114564699Y-79225934D01*
X114624768Y-79423954D01*
X114722316Y-79606452D01*
X114853585Y-79766404D01*
X114853590Y-79766410D01*
X114853595Y-79766414D01*
X115013547Y-79897683D01*
X115013548Y-79897683D01*
X115013550Y-79897685D01*
X115196046Y-79995232D01*
X115333996Y-80037078D01*
X115394065Y-80055300D01*
X115394070Y-80055301D01*
X115599997Y-80075583D01*
X115600000Y-80075583D01*
X115600003Y-80075583D01*
X115805929Y-80055301D01*
X115805934Y-80055300D01*
X115805933Y-80055299D01*
X116003954Y-79995232D01*
X116186450Y-79897685D01*
X116346410Y-79766410D01*
X116477685Y-79606450D01*
X116575232Y-79423954D01*
X116635300Y-79225934D01*
X116635301Y-79225929D01*
X116655583Y-79020003D01*
X116655583Y-79019996D01*
X116635301Y-78814070D01*
X116635300Y-78814065D01*
X116591939Y-78671123D01*
X116575232Y-78616046D01*
X116534584Y-78540000D01*
X148621950Y-78540000D01*
X148642116Y-78796245D01*
X148702122Y-79046186D01*
X148800485Y-79283656D01*
X148800491Y-79283668D01*
X148934787Y-79502819D01*
X148934791Y-79502824D01*
X148936252Y-79504535D01*
X149489708Y-78951080D01*
X149544225Y-78923303D01*
X149604657Y-78932874D01*
X149639122Y-78961965D01*
X149710754Y-79058183D01*
X149840198Y-79166801D01*
X149872620Y-79218689D01*
X149868352Y-79279726D01*
X149846565Y-79312642D01*
X149295463Y-79863745D01*
X149295463Y-79863746D01*
X149297179Y-79865211D01*
X149516331Y-79999508D01*
X149516343Y-79999514D01*
X149753813Y-80097877D01*
X149753812Y-80097877D01*
X150003754Y-80157883D01*
X150260000Y-80178049D01*
X150516245Y-80157883D01*
X150766186Y-80097877D01*
X151003656Y-79999514D01*
X151003668Y-79999508D01*
X151222818Y-79865213D01*
X151224535Y-79863746D01*
X150670762Y-79309972D01*
X150642985Y-79255455D01*
X150652556Y-79195023D01*
X150686366Y-79157254D01*
X150745373Y-79118445D01*
X150865688Y-78990918D01*
X150876007Y-78973043D01*
X150921473Y-78932103D01*
X150982323Y-78925704D01*
X151031748Y-78952538D01*
X151583746Y-79504535D01*
X151585213Y-79502818D01*
X151719508Y-79283668D01*
X151719514Y-79283656D01*
X151817877Y-79046186D01*
X151877883Y-78796245D01*
X151898049Y-78540000D01*
X151877883Y-78283754D01*
X151817877Y-78033813D01*
X151719514Y-77796343D01*
X151719508Y-77796331D01*
X151585211Y-77577179D01*
X151583746Y-77575463D01*
X151583745Y-77575463D01*
X151030289Y-78128918D01*
X150975773Y-78156695D01*
X150915341Y-78147124D01*
X150880876Y-78118033D01*
X150809244Y-78021815D01*
X150809242Y-78021813D01*
X150679800Y-77913197D01*
X150647377Y-77861309D01*
X150651645Y-77800272D01*
X150673432Y-77767355D01*
X151224535Y-77216252D01*
X151222824Y-77214791D01*
X151222819Y-77214787D01*
X151003668Y-77080491D01*
X151003656Y-77080485D01*
X150766186Y-76982122D01*
X150766187Y-76982122D01*
X150516245Y-76922116D01*
X150260000Y-76901950D01*
X150003754Y-76922116D01*
X149753813Y-76982122D01*
X149516343Y-77080485D01*
X149516331Y-77080491D01*
X149297184Y-77214785D01*
X149297176Y-77214791D01*
X149295463Y-77216252D01*
X149849237Y-77770027D01*
X149877014Y-77824544D01*
X149867443Y-77884976D01*
X149833635Y-77922744D01*
X149774629Y-77961553D01*
X149774627Y-77961555D01*
X149654313Y-78089080D01*
X149654308Y-78089087D01*
X149643991Y-78106957D01*
X149598521Y-78147898D01*
X149537671Y-78154294D01*
X149488251Y-78127461D01*
X148936252Y-77575463D01*
X148934791Y-77577176D01*
X148934785Y-77577184D01*
X148800491Y-77796331D01*
X148800485Y-77796343D01*
X148702122Y-78033813D01*
X148642116Y-78283754D01*
X148621950Y-78540000D01*
X116534584Y-78540000D01*
X116477685Y-78433550D01*
X116346410Y-78273590D01*
X116274758Y-78214787D01*
X116186452Y-78142316D01*
X116003954Y-78044768D01*
X115839888Y-77994999D01*
X126617839Y-77994999D01*
X126622000Y-78005045D01*
X126628945Y-78021813D01*
X126633849Y-78033651D01*
X126672500Y-78049661D01*
X126672500Y-78049660D01*
X126672501Y-78049661D01*
X126681322Y-78049661D01*
X126702238Y-78045500D01*
X134642762Y-78045500D01*
X134663678Y-78049661D01*
X134672499Y-78049661D01*
X134672499Y-78049660D01*
X134672500Y-78049661D01*
X134711151Y-78033651D01*
X134723000Y-78005045D01*
X134727161Y-77995000D01*
X134727161Y-77994999D01*
X134727161Y-77986183D01*
X134723000Y-77965262D01*
X134723000Y-77400000D01*
X143519103Y-77400000D01*
X143540485Y-77507495D01*
X143540486Y-77507498D01*
X143597287Y-77592505D01*
X143601376Y-77598624D01*
X143601379Y-77598626D01*
X143692501Y-77659513D01*
X143692503Y-77659513D01*
X143692505Y-77659515D01*
X143800000Y-77680897D01*
X143907495Y-77659515D01*
X143998624Y-77598624D01*
X144059515Y-77507495D01*
X144080897Y-77400000D01*
X144059515Y-77292505D01*
X144059513Y-77292503D01*
X144059513Y-77292501D01*
X143998626Y-77201379D01*
X143998624Y-77201376D01*
X143998620Y-77201373D01*
X143907498Y-77140486D01*
X143907495Y-77140485D01*
X143800000Y-77119103D01*
X143692504Y-77140485D01*
X143692501Y-77140486D01*
X143601379Y-77201373D01*
X143601373Y-77201379D01*
X143540486Y-77292501D01*
X143540485Y-77292504D01*
X143519103Y-77400000D01*
X134723000Y-77400000D01*
X134723000Y-76900000D01*
X142819103Y-76900000D01*
X142840485Y-77007495D01*
X142840486Y-77007498D01*
X142901373Y-77098620D01*
X142901376Y-77098624D01*
X142901379Y-77098626D01*
X142992501Y-77159513D01*
X142992503Y-77159513D01*
X142992505Y-77159515D01*
X143100000Y-77180897D01*
X143207495Y-77159515D01*
X143298624Y-77098624D01*
X143359515Y-77007495D01*
X143380897Y-76900000D01*
X143359515Y-76792505D01*
X143359513Y-76792503D01*
X143359513Y-76792501D01*
X143298626Y-76701379D01*
X143298624Y-76701376D01*
X143298620Y-76701373D01*
X143207498Y-76640486D01*
X143207495Y-76640485D01*
X143100000Y-76619103D01*
X142992504Y-76640485D01*
X142992501Y-76640486D01*
X142901379Y-76701373D01*
X142901373Y-76701379D01*
X142840486Y-76792501D01*
X142840485Y-76792504D01*
X142819103Y-76900000D01*
X134723000Y-76900000D01*
X134723000Y-76200000D01*
X142319103Y-76200000D01*
X142340485Y-76307495D01*
X142340486Y-76307498D01*
X142397287Y-76392505D01*
X142401376Y-76398624D01*
X142401379Y-76398626D01*
X142492501Y-76459513D01*
X142492503Y-76459513D01*
X142492505Y-76459515D01*
X142600000Y-76480897D01*
X142707495Y-76459515D01*
X142798624Y-76398624D01*
X142859515Y-76307495D01*
X142880897Y-76200000D01*
X142859515Y-76092505D01*
X142859513Y-76092503D01*
X142859513Y-76092501D01*
X142798626Y-76001379D01*
X142798624Y-76001376D01*
X142798620Y-76001373D01*
X142796570Y-76000003D01*
X151469437Y-76000003D01*
X151489649Y-76231042D01*
X151489650Y-76231049D01*
X151489651Y-76231050D01*
X151549680Y-76455079D01*
X151647699Y-76665282D01*
X151672975Y-76701379D01*
X151763338Y-76830432D01*
X151780730Y-76855269D01*
X151944731Y-77019270D01*
X151944734Y-77019272D01*
X151944735Y-77019273D01*
X151965500Y-77033813D01*
X152134718Y-77152301D01*
X152344921Y-77250320D01*
X152568950Y-77310349D01*
X152568954Y-77310349D01*
X152568957Y-77310350D01*
X152799997Y-77330563D01*
X152800000Y-77330563D01*
X152800003Y-77330563D01*
X153031042Y-77310350D01*
X153031043Y-77310349D01*
X153031050Y-77310349D01*
X153255079Y-77250320D01*
X153465282Y-77152301D01*
X153655269Y-77019270D01*
X153819270Y-76855269D01*
X153952301Y-76665282D01*
X154050320Y-76455079D01*
X154110349Y-76231050D01*
X154111395Y-76219103D01*
X154130563Y-76000003D01*
X154130563Y-75999996D01*
X154110350Y-75768957D01*
X154110349Y-75768954D01*
X154110349Y-75768950D01*
X154050320Y-75544921D01*
X153952301Y-75334719D01*
X153819270Y-75144731D01*
X153655269Y-74980730D01*
X153655265Y-74980727D01*
X153655264Y-74980726D01*
X153549865Y-74906925D01*
X153465282Y-74847699D01*
X153255079Y-74749680D01*
X153031050Y-74689651D01*
X153031049Y-74689650D01*
X153031042Y-74689649D01*
X152800003Y-74669437D01*
X152799997Y-74669437D01*
X152568957Y-74689649D01*
X152568949Y-74689651D01*
X152568950Y-74689651D01*
X152344921Y-74749680D01*
X152246903Y-74795386D01*
X152134720Y-74847698D01*
X151944735Y-74980726D01*
X151780726Y-75144735D01*
X151647698Y-75334720D01*
X151549680Y-75544922D01*
X151489649Y-75768957D01*
X151469437Y-75999996D01*
X151469437Y-76000003D01*
X142796570Y-76000003D01*
X142707498Y-75940486D01*
X142707495Y-75940485D01*
X142600000Y-75919103D01*
X142492504Y-75940485D01*
X142492501Y-75940486D01*
X142401379Y-76001373D01*
X142401373Y-76001379D01*
X142340486Y-76092501D01*
X142340485Y-76092504D01*
X142319103Y-76200000D01*
X134723000Y-76200000D01*
X134723000Y-73459999D01*
X148621950Y-73459999D01*
X148642116Y-73716245D01*
X148702122Y-73966186D01*
X148800485Y-74203656D01*
X148800491Y-74203668D01*
X148934787Y-74422819D01*
X148934791Y-74422824D01*
X148936252Y-74424535D01*
X149489708Y-73871080D01*
X149544225Y-73843303D01*
X149604657Y-73852874D01*
X149639122Y-73881965D01*
X149710754Y-73978183D01*
X149840198Y-74086801D01*
X149872620Y-74138689D01*
X149868352Y-74199726D01*
X149846565Y-74232642D01*
X149295463Y-74783745D01*
X149295463Y-74783746D01*
X149297179Y-74785211D01*
X149516331Y-74919508D01*
X149516343Y-74919514D01*
X149753813Y-75017877D01*
X149753812Y-75017877D01*
X150003754Y-75077883D01*
X150260000Y-75098049D01*
X150516245Y-75077883D01*
X150766186Y-75017877D01*
X151003656Y-74919514D01*
X151003668Y-74919508D01*
X151222818Y-74785213D01*
X151224535Y-74783746D01*
X150670762Y-74229972D01*
X150642985Y-74175455D01*
X150652556Y-74115023D01*
X150686366Y-74077254D01*
X150745373Y-74038445D01*
X150865688Y-73910918D01*
X150876007Y-73893043D01*
X150921473Y-73852103D01*
X150982323Y-73845704D01*
X151031748Y-73872538D01*
X151583746Y-74424535D01*
X151585213Y-74422818D01*
X151719508Y-74203668D01*
X151719514Y-74203656D01*
X151817877Y-73966186D01*
X151877883Y-73716245D01*
X151898049Y-73459999D01*
X151877883Y-73203754D01*
X151817877Y-72953813D01*
X151719514Y-72716343D01*
X151719508Y-72716331D01*
X151585211Y-72497179D01*
X151583746Y-72495463D01*
X151583745Y-72495463D01*
X151030289Y-73048918D01*
X150975773Y-73076695D01*
X150915341Y-73067124D01*
X150880876Y-73038033D01*
X150809244Y-72941815D01*
X150809242Y-72941813D01*
X150679800Y-72833197D01*
X150647377Y-72781309D01*
X150651645Y-72720272D01*
X150673432Y-72687355D01*
X151224535Y-72136252D01*
X151222824Y-72134791D01*
X151222819Y-72134787D01*
X151003668Y-72000491D01*
X151003656Y-72000485D01*
X150766186Y-71902122D01*
X150766187Y-71902122D01*
X150516245Y-71842116D01*
X150260000Y-71821950D01*
X150003754Y-71842116D01*
X149753813Y-71902122D01*
X149516343Y-72000485D01*
X149516331Y-72000491D01*
X149297184Y-72134785D01*
X149297176Y-72134791D01*
X149295463Y-72136252D01*
X149849237Y-72690027D01*
X149877014Y-72744544D01*
X149867443Y-72804976D01*
X149833635Y-72842744D01*
X149774629Y-72881553D01*
X149774627Y-72881555D01*
X149654313Y-73009080D01*
X149654308Y-73009087D01*
X149643991Y-73026957D01*
X149598521Y-73067898D01*
X149537671Y-73074294D01*
X149488251Y-73047461D01*
X148936252Y-72495463D01*
X148934791Y-72497176D01*
X148934785Y-72497184D01*
X148800491Y-72716331D01*
X148800485Y-72716343D01*
X148702122Y-72953813D01*
X148642116Y-73203754D01*
X148621950Y-73459999D01*
X134723000Y-73459999D01*
X134723000Y-73099996D01*
X141519103Y-73099996D01*
X141540485Y-73207491D01*
X141540486Y-73207494D01*
X141601373Y-73298616D01*
X141601376Y-73298620D01*
X141601379Y-73298622D01*
X141692501Y-73359509D01*
X141692503Y-73359509D01*
X141692505Y-73359511D01*
X141800000Y-73380893D01*
X141907495Y-73359511D01*
X141998624Y-73298620D01*
X142059515Y-73207491D01*
X142080896Y-73100000D01*
X144119103Y-73100000D01*
X144122091Y-73115023D01*
X144140485Y-73207495D01*
X144140486Y-73207498D01*
X144201373Y-73298620D01*
X144201376Y-73298624D01*
X144201379Y-73298626D01*
X144292501Y-73359513D01*
X144292503Y-73359513D01*
X144292505Y-73359515D01*
X144400000Y-73380897D01*
X144507495Y-73359515D01*
X144598624Y-73298624D01*
X144659515Y-73207495D01*
X144680897Y-73100000D01*
X144659515Y-72992505D01*
X144659513Y-72992503D01*
X144659513Y-72992501D01*
X144598626Y-72901379D01*
X144598624Y-72901376D01*
X144598620Y-72901373D01*
X144507498Y-72840486D01*
X144507495Y-72840485D01*
X144400000Y-72819103D01*
X144292504Y-72840485D01*
X144292501Y-72840486D01*
X144201379Y-72901373D01*
X144201373Y-72901379D01*
X144140486Y-72992501D01*
X144140485Y-72992504D01*
X144120917Y-73090882D01*
X144119103Y-73100000D01*
X142080896Y-73100000D01*
X142080897Y-73099996D01*
X142059515Y-72992501D01*
X142059513Y-72992499D01*
X142059513Y-72992497D01*
X141998626Y-72901375D01*
X141998624Y-72901372D01*
X141998620Y-72901369D01*
X141907498Y-72840482D01*
X141907495Y-72840481D01*
X141800000Y-72819099D01*
X141692504Y-72840481D01*
X141692501Y-72840482D01*
X141601379Y-72901369D01*
X141601373Y-72901375D01*
X141540486Y-72992497D01*
X141540485Y-72992500D01*
X141519103Y-73099996D01*
X134723000Y-73099996D01*
X134723000Y-71024738D01*
X134727161Y-71003822D01*
X134727161Y-70995000D01*
X134711151Y-70956350D01*
X134711151Y-70956349D01*
X134711149Y-70956348D01*
X134682546Y-70944500D01*
X134672500Y-70940339D01*
X134663679Y-70940339D01*
X134642762Y-70944500D01*
X126702238Y-70944500D01*
X126681321Y-70940339D01*
X126672500Y-70940339D01*
X126662454Y-70944500D01*
X126633850Y-70956348D01*
X126633848Y-70956350D01*
X126617839Y-70995000D01*
X126617839Y-71003822D01*
X126622000Y-71024738D01*
X126622000Y-77965262D01*
X126617839Y-77986183D01*
X126617839Y-77994999D01*
X115839888Y-77994999D01*
X115805934Y-77984699D01*
X115805929Y-77984698D01*
X115600003Y-77964417D01*
X115599997Y-77964417D01*
X115394070Y-77984698D01*
X115394065Y-77984699D01*
X115196045Y-78044768D01*
X115013547Y-78142316D01*
X114853595Y-78273585D01*
X114853585Y-78273595D01*
X114722316Y-78433547D01*
X114624768Y-78616045D01*
X114564699Y-78814065D01*
X114564698Y-78814070D01*
X114544417Y-79019996D01*
X114544417Y-79020003D01*
X112754191Y-79020003D01*
X112803656Y-78999514D01*
X112803668Y-78999508D01*
X113022818Y-78865213D01*
X113024535Y-78863746D01*
X112470762Y-78309972D01*
X112442985Y-78255455D01*
X112452556Y-78195023D01*
X112486366Y-78157254D01*
X112487216Y-78156695D01*
X112545373Y-78118445D01*
X112665688Y-77990918D01*
X112676007Y-77973043D01*
X112721473Y-77932103D01*
X112782323Y-77925704D01*
X112831748Y-77952538D01*
X113383746Y-78504535D01*
X113385213Y-78502818D01*
X113519508Y-78283668D01*
X113519514Y-78283656D01*
X113617877Y-78046186D01*
X113677883Y-77796245D01*
X113687031Y-77680000D01*
X119719103Y-77680000D01*
X119740485Y-77787495D01*
X119740486Y-77787498D01*
X119789806Y-77861309D01*
X119801376Y-77878624D01*
X119801379Y-77878626D01*
X119892501Y-77939513D01*
X119892503Y-77939513D01*
X119892505Y-77939515D01*
X120000000Y-77960897D01*
X120107495Y-77939515D01*
X120198624Y-77878624D01*
X120259515Y-77787495D01*
X120276919Y-77700000D01*
X122319103Y-77700000D01*
X122340485Y-77807495D01*
X122340486Y-77807498D01*
X122401373Y-77898620D01*
X122401376Y-77898624D01*
X122401379Y-77898626D01*
X122492501Y-77959513D01*
X122492503Y-77959513D01*
X122492505Y-77959515D01*
X122600000Y-77980897D01*
X122707495Y-77959515D01*
X122798624Y-77898624D01*
X122859515Y-77807495D01*
X122880897Y-77700000D01*
X122859515Y-77592505D01*
X122859513Y-77592503D01*
X122859513Y-77592501D01*
X122798626Y-77501379D01*
X122798624Y-77501376D01*
X122798620Y-77501373D01*
X122707498Y-77440486D01*
X122707495Y-77440485D01*
X122600000Y-77419103D01*
X122492504Y-77440485D01*
X122492501Y-77440486D01*
X122401379Y-77501373D01*
X122401373Y-77501379D01*
X122340486Y-77592501D01*
X122340485Y-77592504D01*
X122319103Y-77700000D01*
X120276919Y-77700000D01*
X120280897Y-77680000D01*
X120259515Y-77572505D01*
X120259513Y-77572503D01*
X120259513Y-77572501D01*
X120198626Y-77481379D01*
X120198624Y-77481376D01*
X120192391Y-77477211D01*
X120107498Y-77420486D01*
X120107495Y-77420485D01*
X120000000Y-77399103D01*
X119892504Y-77420485D01*
X119892501Y-77420486D01*
X119801379Y-77481373D01*
X119801373Y-77481379D01*
X119740486Y-77572501D01*
X119740485Y-77572504D01*
X119719103Y-77680000D01*
X113687031Y-77680000D01*
X113698049Y-77539999D01*
X113677883Y-77283754D01*
X113617877Y-77033813D01*
X113519514Y-76796343D01*
X113519508Y-76796331D01*
X113385211Y-76577179D01*
X113383746Y-76575463D01*
X113383745Y-76575463D01*
X112830289Y-77128918D01*
X112775773Y-77156695D01*
X112715341Y-77147124D01*
X112680876Y-77118033D01*
X112609244Y-77021815D01*
X112609242Y-77021813D01*
X112479800Y-76913197D01*
X112447377Y-76861309D01*
X112451645Y-76800272D01*
X112473432Y-76767355D01*
X112760784Y-76480003D01*
X114544417Y-76480003D01*
X114564698Y-76685929D01*
X114564699Y-76685934D01*
X114624768Y-76883954D01*
X114722316Y-77066452D01*
X114853585Y-77226404D01*
X114853590Y-77226410D01*
X114853595Y-77226414D01*
X115013547Y-77357683D01*
X115013548Y-77357683D01*
X115013550Y-77357685D01*
X115196046Y-77455232D01*
X115330752Y-77496094D01*
X115394065Y-77515300D01*
X115394070Y-77515301D01*
X115599997Y-77535583D01*
X115600000Y-77535583D01*
X115600003Y-77535583D01*
X115805929Y-77515301D01*
X115805934Y-77515300D01*
X115831664Y-77507495D01*
X116003954Y-77455232D01*
X116186450Y-77357685D01*
X116346410Y-77226410D01*
X116477685Y-77066450D01*
X116575232Y-76883954D01*
X116635300Y-76685934D01*
X116635301Y-76685929D01*
X116653613Y-76500000D01*
X117207103Y-76500000D01*
X117228485Y-76607495D01*
X117228486Y-76607498D01*
X117289373Y-76698620D01*
X117289376Y-76698624D01*
X117289379Y-76698626D01*
X117380501Y-76759513D01*
X117380503Y-76759513D01*
X117380505Y-76759515D01*
X117488000Y-76780897D01*
X117595495Y-76759515D01*
X117686624Y-76698624D01*
X117747515Y-76607495D01*
X117768897Y-76500000D01*
X117747515Y-76392505D01*
X117747513Y-76392503D01*
X117747513Y-76392501D01*
X117686626Y-76301379D01*
X117686624Y-76301376D01*
X117686620Y-76301373D01*
X117595498Y-76240486D01*
X117595495Y-76240485D01*
X117488000Y-76219103D01*
X117380504Y-76240485D01*
X117380501Y-76240486D01*
X117289379Y-76301373D01*
X117289373Y-76301379D01*
X117228486Y-76392501D01*
X117228485Y-76392504D01*
X117207103Y-76500000D01*
X116653613Y-76500000D01*
X116655583Y-76480003D01*
X116655583Y-76479996D01*
X116635301Y-76274070D01*
X116635300Y-76274065D01*
X116612832Y-76199999D01*
X116575232Y-76076046D01*
X116477685Y-75893550D01*
X116346410Y-75733590D01*
X116299027Y-75694704D01*
X116186452Y-75602316D01*
X116003954Y-75504768D01*
X115805934Y-75444699D01*
X115805929Y-75444698D01*
X115600003Y-75424417D01*
X115599997Y-75424417D01*
X115394070Y-75444698D01*
X115394065Y-75444699D01*
X115196045Y-75504768D01*
X115013547Y-75602316D01*
X114853595Y-75733585D01*
X114853585Y-75733595D01*
X114722316Y-75893547D01*
X114624768Y-76076045D01*
X114564699Y-76274065D01*
X114564698Y-76274070D01*
X114544417Y-76479996D01*
X114544417Y-76480003D01*
X112760784Y-76480003D01*
X113024535Y-76216252D01*
X113022824Y-76214791D01*
X113022819Y-76214787D01*
X112803668Y-76080491D01*
X112803656Y-76080485D01*
X112566186Y-75982122D01*
X112566187Y-75982122D01*
X112316245Y-75922116D01*
X112059999Y-75901950D01*
X111803754Y-75922116D01*
X111553813Y-75982122D01*
X111316343Y-76080485D01*
X111316331Y-76080491D01*
X111097184Y-76214785D01*
X111097176Y-76214791D01*
X111095463Y-76216252D01*
X111649237Y-76770027D01*
X111677014Y-76824544D01*
X111667443Y-76884976D01*
X111633635Y-76922744D01*
X111574629Y-76961553D01*
X111574627Y-76961555D01*
X111454313Y-77089080D01*
X111454308Y-77089087D01*
X111443991Y-77106957D01*
X111398521Y-77147898D01*
X111337671Y-77154294D01*
X111288251Y-77127461D01*
X110736252Y-76575463D01*
X110734791Y-76577176D01*
X110734785Y-76577184D01*
X110600491Y-76796331D01*
X110600485Y-76796343D01*
X110502122Y-77033813D01*
X110442116Y-77283754D01*
X110421950Y-77539999D01*
X108618049Y-77539999D01*
X108597883Y-77283754D01*
X108537877Y-77033813D01*
X108439514Y-76796343D01*
X108439508Y-76796331D01*
X108305211Y-76577179D01*
X108303746Y-76575463D01*
X108303745Y-76575463D01*
X107750289Y-77128918D01*
X107695773Y-77156695D01*
X107635341Y-77147124D01*
X107600876Y-77118033D01*
X107529244Y-77021815D01*
X107529242Y-77021813D01*
X107399800Y-76913197D01*
X107367377Y-76861309D01*
X107371645Y-76800272D01*
X107393432Y-76767355D01*
X107944535Y-76216252D01*
X107942824Y-76214791D01*
X107942819Y-76214787D01*
X107723668Y-76080491D01*
X107723656Y-76080485D01*
X107486186Y-75982122D01*
X107486187Y-75982122D01*
X107236245Y-75922116D01*
X106979999Y-75901950D01*
X106723754Y-75922116D01*
X106473813Y-75982122D01*
X106236343Y-76080485D01*
X106236331Y-76080491D01*
X106017184Y-76214785D01*
X106017176Y-76214791D01*
X106015463Y-76216252D01*
X106569237Y-76770027D01*
X106597014Y-76824544D01*
X106587443Y-76884976D01*
X106553635Y-76922744D01*
X106494629Y-76961553D01*
X106494627Y-76961555D01*
X106374313Y-77089080D01*
X106374308Y-77089087D01*
X106363991Y-77106957D01*
X106318521Y-77147898D01*
X106257671Y-77154294D01*
X106208251Y-77127461D01*
X105644337Y-76563547D01*
X105623995Y-76557817D01*
X105586102Y-76509778D01*
X105579974Y-76475462D01*
X105580426Y-75000000D01*
X107989783Y-75000000D01*
X108008622Y-75239378D01*
X108064677Y-75472864D01*
X108156565Y-75694701D01*
X108156571Y-75694713D01*
X108282022Y-75899431D01*
X108282032Y-75899444D01*
X108432864Y-76076046D01*
X108437973Y-76082027D01*
X108437979Y-76082032D01*
X108437982Y-76082035D01*
X108595130Y-76216252D01*
X108620561Y-76237972D01*
X108620563Y-76237973D01*
X108620568Y-76237977D01*
X108825286Y-76363428D01*
X108825298Y-76363434D01*
X108910254Y-76398624D01*
X109046543Y-76455077D01*
X109047135Y-76455322D01*
X109047137Y-76455323D01*
X109280621Y-76511377D01*
X109520000Y-76530217D01*
X109759379Y-76511377D01*
X109992863Y-76455323D01*
X110214704Y-76363433D01*
X110214708Y-76363430D01*
X110214713Y-76363428D01*
X110419431Y-76237977D01*
X110419431Y-76237976D01*
X110419439Y-76237972D01*
X110602027Y-76082027D01*
X110757972Y-75899439D01*
X110837931Y-75768957D01*
X110883428Y-75694713D01*
X110883430Y-75694708D01*
X110883433Y-75694704D01*
X110975323Y-75472863D01*
X111031377Y-75239379D01*
X111050217Y-75000000D01*
X111031377Y-74760621D01*
X110975323Y-74527137D01*
X110883433Y-74305296D01*
X110883428Y-74305286D01*
X110757977Y-74100568D01*
X110757967Y-74100555D01*
X110602035Y-73917982D01*
X110602032Y-73917979D01*
X110602027Y-73917973D01*
X110602020Y-73917967D01*
X110602017Y-73917964D01*
X110419444Y-73762032D01*
X110419431Y-73762022D01*
X110214713Y-73636571D01*
X110214701Y-73636565D01*
X109992864Y-73544677D01*
X109992865Y-73544677D01*
X109759378Y-73488622D01*
X109538838Y-73471265D01*
X109520000Y-73469783D01*
X109519999Y-73469783D01*
X109280621Y-73488622D01*
X109047135Y-73544677D01*
X108825298Y-73636565D01*
X108825286Y-73636571D01*
X108620568Y-73762022D01*
X108620555Y-73762032D01*
X108437982Y-73917964D01*
X108437964Y-73917982D01*
X108282032Y-74100555D01*
X108282022Y-74100568D01*
X108156571Y-74305286D01*
X108156565Y-74305298D01*
X108064677Y-74527135D01*
X108008622Y-74760621D01*
X107989783Y-75000000D01*
X105580426Y-75000000D01*
X105580879Y-73524509D01*
X105599803Y-73466329D01*
X105649314Y-73430380D01*
X105650583Y-73430204D01*
X106209708Y-72871080D01*
X106264225Y-72843303D01*
X106324657Y-72852874D01*
X106359122Y-72881965D01*
X106430754Y-72978183D01*
X106430755Y-72978184D01*
X106430756Y-72978185D01*
X106447816Y-72992500D01*
X106560198Y-73086801D01*
X106592620Y-73138689D01*
X106588352Y-73199726D01*
X106566565Y-73232642D01*
X106015463Y-73783745D01*
X106015463Y-73783746D01*
X106017179Y-73785211D01*
X106236331Y-73919508D01*
X106236343Y-73919514D01*
X106473813Y-74017877D01*
X106473812Y-74017877D01*
X106723754Y-74077883D01*
X106980000Y-74098049D01*
X107236245Y-74077883D01*
X107486186Y-74017877D01*
X107723656Y-73919514D01*
X107723668Y-73919508D01*
X107942818Y-73785213D01*
X107944535Y-73783746D01*
X107390762Y-73229972D01*
X107362985Y-73175455D01*
X107372556Y-73115023D01*
X107406366Y-73077254D01*
X107407216Y-73076695D01*
X107465373Y-73038445D01*
X107585688Y-72910918D01*
X107596007Y-72893043D01*
X107641473Y-72852103D01*
X107702323Y-72845704D01*
X107751748Y-72872538D01*
X108303746Y-73424535D01*
X108305213Y-73422818D01*
X108439508Y-73203668D01*
X108439514Y-73203656D01*
X108537877Y-72966186D01*
X108597883Y-72716245D01*
X108618049Y-72460000D01*
X110421950Y-72460000D01*
X110442116Y-72716245D01*
X110502122Y-72966186D01*
X110600485Y-73203656D01*
X110600491Y-73203668D01*
X110734787Y-73422819D01*
X110734791Y-73422824D01*
X110736252Y-73424535D01*
X111289708Y-72871080D01*
X111344225Y-72843303D01*
X111404657Y-72852874D01*
X111439122Y-72881965D01*
X111510754Y-72978183D01*
X111510755Y-72978184D01*
X111510756Y-72978185D01*
X111527816Y-72992500D01*
X111640198Y-73086801D01*
X111672620Y-73138689D01*
X111668352Y-73199726D01*
X111646565Y-73232642D01*
X111095463Y-73783745D01*
X111095463Y-73783746D01*
X111097179Y-73785211D01*
X111316331Y-73919508D01*
X111316343Y-73919514D01*
X111553813Y-74017877D01*
X111553812Y-74017877D01*
X111803754Y-74077883D01*
X112060000Y-74098049D01*
X112316245Y-74077883D01*
X112566186Y-74017877D01*
X112754191Y-73940003D01*
X114544417Y-73940003D01*
X114564698Y-74145929D01*
X114564699Y-74145934D01*
X114624768Y-74343954D01*
X114722316Y-74526452D01*
X114839661Y-74669437D01*
X114853590Y-74686410D01*
X114853595Y-74686414D01*
X115013547Y-74817683D01*
X115013548Y-74817683D01*
X115013550Y-74817685D01*
X115196046Y-74915232D01*
X115333996Y-74957078D01*
X115394065Y-74975300D01*
X115394070Y-74975301D01*
X115599997Y-74995583D01*
X115600000Y-74995583D01*
X115600003Y-74995583D01*
X115805929Y-74975301D01*
X115805934Y-74975300D01*
X115805933Y-74975299D01*
X116003954Y-74915232D01*
X116186450Y-74817685D01*
X116346410Y-74686410D01*
X116477685Y-74526450D01*
X116575232Y-74343954D01*
X116635300Y-74145934D01*
X116635301Y-74145929D01*
X116655583Y-73940003D01*
X116655583Y-73939996D01*
X116635301Y-73734070D01*
X116635300Y-73734065D01*
X116617078Y-73673997D01*
X116575232Y-73536046D01*
X116477685Y-73353550D01*
X116432610Y-73298626D01*
X116346414Y-73193595D01*
X116346410Y-73193590D01*
X116274758Y-73134787D01*
X116186452Y-73062316D01*
X116069868Y-73000000D01*
X119119103Y-73000000D01*
X119138993Y-73099996D01*
X119140485Y-73107495D01*
X119140486Y-73107498D01*
X119201373Y-73198620D01*
X119201376Y-73198624D01*
X119201379Y-73198626D01*
X119292501Y-73259513D01*
X119292503Y-73259513D01*
X119292505Y-73259515D01*
X119400000Y-73280897D01*
X119507495Y-73259515D01*
X119598624Y-73198624D01*
X119659515Y-73107495D01*
X119680897Y-73000000D01*
X120419103Y-73000000D01*
X120438993Y-73099996D01*
X120440485Y-73107495D01*
X120440486Y-73107498D01*
X120501373Y-73198620D01*
X120501376Y-73198624D01*
X120501379Y-73198626D01*
X120592501Y-73259513D01*
X120592503Y-73259513D01*
X120592505Y-73259515D01*
X120700000Y-73280897D01*
X120807495Y-73259515D01*
X120898624Y-73198624D01*
X120959515Y-73107495D01*
X120980897Y-73000000D01*
X120959515Y-72892505D01*
X120959513Y-72892503D01*
X120959513Y-72892501D01*
X120898626Y-72801379D01*
X120898624Y-72801376D01*
X120874435Y-72785213D01*
X120807498Y-72740486D01*
X120807495Y-72740485D01*
X120807494Y-72740485D01*
X120700000Y-72719103D01*
X120699999Y-72719103D01*
X120592504Y-72740485D01*
X120592501Y-72740486D01*
X120501379Y-72801373D01*
X120501373Y-72801379D01*
X120440486Y-72892501D01*
X120440485Y-72892504D01*
X120420595Y-72992501D01*
X120419103Y-73000000D01*
X119680897Y-73000000D01*
X119659515Y-72892505D01*
X119659513Y-72892503D01*
X119659513Y-72892501D01*
X119598626Y-72801379D01*
X119598624Y-72801376D01*
X119574435Y-72785213D01*
X119507498Y-72740486D01*
X119507495Y-72740485D01*
X119400000Y-72719103D01*
X119292504Y-72740485D01*
X119292501Y-72740486D01*
X119201379Y-72801373D01*
X119201373Y-72801379D01*
X119140486Y-72892501D01*
X119140485Y-72892504D01*
X119120595Y-72992501D01*
X119119103Y-73000000D01*
X116069868Y-73000000D01*
X116003954Y-72964768D01*
X115805934Y-72904699D01*
X115805929Y-72904698D01*
X115600003Y-72884417D01*
X115599997Y-72884417D01*
X115394070Y-72904698D01*
X115394065Y-72904699D01*
X115196045Y-72964768D01*
X115013547Y-73062316D01*
X114853595Y-73193585D01*
X114853585Y-73193595D01*
X114722316Y-73353547D01*
X114624768Y-73536045D01*
X114564699Y-73734065D01*
X114564698Y-73734070D01*
X114544417Y-73939996D01*
X114544417Y-73940003D01*
X112754191Y-73940003D01*
X112803656Y-73919514D01*
X112803668Y-73919508D01*
X113022818Y-73785213D01*
X113024535Y-73783746D01*
X112470762Y-73229972D01*
X112442985Y-73175455D01*
X112452556Y-73115023D01*
X112486366Y-73077254D01*
X112487216Y-73076695D01*
X112545373Y-73038445D01*
X112665688Y-72910918D01*
X112676007Y-72893043D01*
X112721473Y-72852103D01*
X112782323Y-72845704D01*
X112831748Y-72872538D01*
X113383746Y-73424535D01*
X113385213Y-73422818D01*
X113519508Y-73203668D01*
X113519514Y-73203656D01*
X113617877Y-72966186D01*
X113677883Y-72716245D01*
X113698049Y-72460000D01*
X113677883Y-72203754D01*
X113617877Y-71953813D01*
X113519514Y-71716343D01*
X113519508Y-71716331D01*
X113385211Y-71497179D01*
X113383746Y-71495463D01*
X113383745Y-71495463D01*
X112830289Y-72048918D01*
X112775773Y-72076695D01*
X112715341Y-72067124D01*
X112680876Y-72038033D01*
X112609244Y-71941815D01*
X112609242Y-71941813D01*
X112479800Y-71833197D01*
X112447377Y-71781309D01*
X112451645Y-71720272D01*
X112473432Y-71687355D01*
X112760784Y-71400003D01*
X114544417Y-71400003D01*
X114564698Y-71605929D01*
X114564699Y-71605934D01*
X114624768Y-71803954D01*
X114722316Y-71986452D01*
X114848728Y-72140486D01*
X114853590Y-72146410D01*
X114853595Y-72146414D01*
X115013547Y-72277683D01*
X115013548Y-72277683D01*
X115013550Y-72277685D01*
X115196046Y-72375232D01*
X115330752Y-72416094D01*
X115394065Y-72435300D01*
X115394070Y-72435301D01*
X115599997Y-72455583D01*
X115600000Y-72455583D01*
X115600003Y-72455583D01*
X115805929Y-72435301D01*
X115805934Y-72435300D01*
X115805933Y-72435299D01*
X115922302Y-72400000D01*
X121719103Y-72400000D01*
X121740485Y-72507495D01*
X121740486Y-72507498D01*
X121796364Y-72591123D01*
X121801376Y-72598624D01*
X121801379Y-72598626D01*
X121892501Y-72659513D01*
X121892503Y-72659513D01*
X121892505Y-72659515D01*
X122000000Y-72680897D01*
X122107495Y-72659515D01*
X122198624Y-72598624D01*
X122259515Y-72507495D01*
X122280897Y-72400000D01*
X122259515Y-72292505D01*
X122259513Y-72292503D01*
X122259513Y-72292501D01*
X122198626Y-72201379D01*
X122198624Y-72201376D01*
X122198620Y-72201373D01*
X122107498Y-72140486D01*
X122107495Y-72140485D01*
X122000000Y-72119103D01*
X121892504Y-72140485D01*
X121892501Y-72140486D01*
X121801379Y-72201373D01*
X121801373Y-72201379D01*
X121740486Y-72292501D01*
X121740485Y-72292504D01*
X121719103Y-72400000D01*
X115922302Y-72400000D01*
X116003954Y-72375232D01*
X116186450Y-72277685D01*
X116346410Y-72146410D01*
X116477685Y-71986450D01*
X116575232Y-71803954D01*
X116635300Y-71605934D01*
X116635301Y-71605929D01*
X116655583Y-71400003D01*
X116655583Y-71399996D01*
X116635301Y-71194070D01*
X116635300Y-71194065D01*
X116617078Y-71133996D01*
X116575232Y-70996046D01*
X116477685Y-70813550D01*
X116346410Y-70653590D01*
X116346404Y-70653585D01*
X116186452Y-70522316D01*
X116003954Y-70424768D01*
X115805934Y-70364699D01*
X115805929Y-70364698D01*
X115600003Y-70344417D01*
X115599997Y-70344417D01*
X115394070Y-70364698D01*
X115394065Y-70364699D01*
X115196045Y-70424768D01*
X115013547Y-70522316D01*
X114853595Y-70653585D01*
X114853585Y-70653595D01*
X114722316Y-70813547D01*
X114624768Y-70996045D01*
X114564699Y-71194065D01*
X114564698Y-71194070D01*
X114544417Y-71399996D01*
X114544417Y-71400003D01*
X112760784Y-71400003D01*
X113024535Y-71136252D01*
X113022824Y-71134791D01*
X113022819Y-71134787D01*
X112803668Y-71000491D01*
X112803656Y-71000485D01*
X112566186Y-70902122D01*
X112566187Y-70902122D01*
X112316245Y-70842116D01*
X112060000Y-70821950D01*
X111803754Y-70842116D01*
X111553813Y-70902122D01*
X111316343Y-71000485D01*
X111316331Y-71000491D01*
X111097184Y-71134785D01*
X111097176Y-71134791D01*
X111095463Y-71136252D01*
X111649237Y-71690027D01*
X111677014Y-71744544D01*
X111667443Y-71804976D01*
X111633635Y-71842744D01*
X111574629Y-71881553D01*
X111574627Y-71881555D01*
X111454313Y-72009080D01*
X111454308Y-72009087D01*
X111443991Y-72026957D01*
X111398521Y-72067898D01*
X111337671Y-72074294D01*
X111288251Y-72047461D01*
X110736252Y-71495463D01*
X110734791Y-71497176D01*
X110734785Y-71497184D01*
X110600491Y-71716331D01*
X110600485Y-71716343D01*
X110502122Y-71953813D01*
X110442116Y-72203754D01*
X110421950Y-72460000D01*
X108618049Y-72460000D01*
X108597883Y-72203754D01*
X108537877Y-71953813D01*
X108439514Y-71716343D01*
X108439508Y-71716331D01*
X108305211Y-71497179D01*
X108303746Y-71495463D01*
X108303745Y-71495463D01*
X107750289Y-72048918D01*
X107695773Y-72076695D01*
X107635341Y-72067124D01*
X107600876Y-72038033D01*
X107529244Y-71941815D01*
X107529242Y-71941813D01*
X107399800Y-71833197D01*
X107367377Y-71781309D01*
X107371645Y-71720272D01*
X107393432Y-71687355D01*
X107944535Y-71136252D01*
X107942824Y-71134791D01*
X107942819Y-71134787D01*
X107723668Y-71000491D01*
X107723656Y-71000485D01*
X107486186Y-70902122D01*
X107486187Y-70902122D01*
X107236245Y-70842116D01*
X106980000Y-70821950D01*
X106723754Y-70842116D01*
X106473813Y-70902122D01*
X106236343Y-71000485D01*
X106236331Y-71000491D01*
X106017184Y-71134785D01*
X106017176Y-71134791D01*
X106015463Y-71136252D01*
X106569237Y-71690027D01*
X106597014Y-71744544D01*
X106587443Y-71804976D01*
X106553635Y-71842744D01*
X106494629Y-71881553D01*
X106494627Y-71881555D01*
X106374313Y-72009080D01*
X106374308Y-72009087D01*
X106363991Y-72026957D01*
X106318521Y-72067898D01*
X106257671Y-72074294D01*
X106208251Y-72047461D01*
X105643639Y-71482850D01*
X105625551Y-71477754D01*
X105587659Y-71429714D01*
X105581532Y-71395402D01*
X105582043Y-69729746D01*
X114549500Y-69729746D01*
X114549501Y-69729758D01*
X114561132Y-69788227D01*
X114561133Y-69788231D01*
X114605448Y-69854552D01*
X114671769Y-69898867D01*
X114716231Y-69907711D01*
X114730241Y-69910498D01*
X114730246Y-69910498D01*
X114730252Y-69910500D01*
X114730253Y-69910500D01*
X116469747Y-69910500D01*
X116469748Y-69910500D01*
X116528231Y-69898867D01*
X116594552Y-69854552D01*
X116638867Y-69788231D01*
X116650500Y-69729748D01*
X116650500Y-67990252D01*
X116638867Y-67931769D01*
X116594552Y-67865448D01*
X116594548Y-67865445D01*
X116528233Y-67821134D01*
X116528231Y-67821133D01*
X116528228Y-67821132D01*
X116528227Y-67821132D01*
X116469758Y-67809501D01*
X116469748Y-67809500D01*
X114730252Y-67809500D01*
X114730251Y-67809500D01*
X114730241Y-67809501D01*
X114671772Y-67821132D01*
X114671766Y-67821134D01*
X114605451Y-67865445D01*
X114605445Y-67865451D01*
X114561134Y-67931766D01*
X114561132Y-67931772D01*
X114549501Y-67990241D01*
X114549500Y-67990253D01*
X114549500Y-69729746D01*
X105582043Y-69729746D01*
X105583665Y-64439999D01*
X148621950Y-64439999D01*
X148642116Y-64696245D01*
X148702122Y-64946186D01*
X148800485Y-65183656D01*
X148800491Y-65183668D01*
X148934787Y-65402819D01*
X148934791Y-65402824D01*
X148936252Y-65404535D01*
X149489708Y-64851080D01*
X149544225Y-64823303D01*
X149604657Y-64832874D01*
X149639122Y-64861965D01*
X149710754Y-64958183D01*
X149840198Y-65066801D01*
X149872620Y-65118689D01*
X149868352Y-65179726D01*
X149846565Y-65212642D01*
X149295463Y-65763745D01*
X149295463Y-65763746D01*
X149297179Y-65765211D01*
X149516331Y-65899508D01*
X149516343Y-65899514D01*
X149753813Y-65997877D01*
X149753812Y-65997877D01*
X150003754Y-66057883D01*
X150260000Y-66078049D01*
X150516245Y-66057883D01*
X150766186Y-65997877D01*
X151003656Y-65899514D01*
X151003668Y-65899508D01*
X151222818Y-65765213D01*
X151224535Y-65763746D01*
X150670762Y-65209972D01*
X150642985Y-65155455D01*
X150652556Y-65095023D01*
X150686366Y-65057254D01*
X150745373Y-65018445D01*
X150865688Y-64890918D01*
X150876007Y-64873043D01*
X150921473Y-64832103D01*
X150982323Y-64825704D01*
X151031748Y-64852538D01*
X151583746Y-65404535D01*
X151585213Y-65402818D01*
X151719508Y-65183668D01*
X151719514Y-65183656D01*
X151817877Y-64946186D01*
X151877883Y-64696245D01*
X151898049Y-64439999D01*
X151877883Y-64183754D01*
X151817877Y-63933813D01*
X151719514Y-63696343D01*
X151719508Y-63696331D01*
X151585211Y-63477179D01*
X151583746Y-63475463D01*
X151583745Y-63475463D01*
X151030289Y-64028918D01*
X150975773Y-64056695D01*
X150915341Y-64047124D01*
X150880876Y-64018033D01*
X150809244Y-63921815D01*
X150809242Y-63921813D01*
X150679800Y-63813197D01*
X150647377Y-63761309D01*
X150651645Y-63700272D01*
X150673432Y-63667355D01*
X151224535Y-63116252D01*
X151222824Y-63114791D01*
X151222819Y-63114787D01*
X151003668Y-62980491D01*
X151003656Y-62980485D01*
X150766186Y-62882122D01*
X150766187Y-62882122D01*
X150516245Y-62822116D01*
X150260000Y-62801950D01*
X150003754Y-62822116D01*
X149753813Y-62882122D01*
X149516343Y-62980485D01*
X149516331Y-62980491D01*
X149297184Y-63114785D01*
X149297176Y-63114791D01*
X149295463Y-63116252D01*
X149849237Y-63670027D01*
X149877014Y-63724544D01*
X149867443Y-63784976D01*
X149833635Y-63822744D01*
X149774629Y-63861553D01*
X149774627Y-63861555D01*
X149654313Y-63989080D01*
X149654308Y-63989087D01*
X149643991Y-64006957D01*
X149598521Y-64047898D01*
X149537671Y-64054294D01*
X149488251Y-64027461D01*
X148936252Y-63475463D01*
X148934791Y-63477176D01*
X148934785Y-63477184D01*
X148800491Y-63696331D01*
X148800485Y-63696343D01*
X148702122Y-63933813D01*
X148642116Y-64183754D01*
X148621950Y-64439999D01*
X105583665Y-64439999D01*
X105584444Y-61900003D01*
X151469437Y-61900003D01*
X151489649Y-62131042D01*
X151489650Y-62131049D01*
X151489651Y-62131050D01*
X151549680Y-62355079D01*
X151647699Y-62565282D01*
X151780730Y-62755269D01*
X151944731Y-62919270D01*
X152134718Y-63052301D01*
X152344921Y-63150320D01*
X152568950Y-63210349D01*
X152568954Y-63210349D01*
X152568957Y-63210350D01*
X152799997Y-63230563D01*
X152800000Y-63230563D01*
X152800003Y-63230563D01*
X153031042Y-63210350D01*
X153031043Y-63210349D01*
X153031050Y-63210349D01*
X153255079Y-63150320D01*
X153465282Y-63052301D01*
X153655269Y-62919270D01*
X153819270Y-62755269D01*
X153952301Y-62565282D01*
X154050320Y-62355079D01*
X154110349Y-62131050D01*
X154130563Y-61900000D01*
X154110349Y-61668950D01*
X154050320Y-61444921D01*
X153952301Y-61234719D01*
X153819270Y-61044731D01*
X153655269Y-60880730D01*
X153655265Y-60880727D01*
X153655264Y-60880726D01*
X153549865Y-60806925D01*
X153465282Y-60747699D01*
X153255079Y-60649680D01*
X153031050Y-60589651D01*
X153031049Y-60589650D01*
X153031042Y-60589649D01*
X152800003Y-60569437D01*
X152799997Y-60569437D01*
X152568957Y-60589649D01*
X152568949Y-60589651D01*
X152568950Y-60589651D01*
X152344921Y-60649680D01*
X152246903Y-60695386D01*
X152134720Y-60747698D01*
X151944735Y-60880726D01*
X151780726Y-61044735D01*
X151647698Y-61234720D01*
X151595386Y-61346903D01*
X151549680Y-61444921D01*
X151534685Y-61500884D01*
X151489649Y-61668957D01*
X151469437Y-61899996D01*
X151469437Y-61900003D01*
X105584444Y-61900003D01*
X105585063Y-59883717D01*
X117120691Y-59883717D01*
X117130839Y-60148469D01*
X117181283Y-60408568D01*
X117270841Y-60657925D01*
X117397413Y-60890687D01*
X117397414Y-60890688D01*
X117463880Y-60977883D01*
X117558031Y-61101398D01*
X117748933Y-61285122D01*
X117965642Y-61437552D01*
X117965645Y-61437554D01*
X117965650Y-61437556D01*
X118203075Y-61555113D01*
X118203077Y-61555113D01*
X118203080Y-61555115D01*
X118455682Y-61635056D01*
X118717526Y-61675500D01*
X118717527Y-61675500D01*
X118916143Y-61675500D01*
X119114162Y-61660297D01*
X119114166Y-61660296D01*
X119114171Y-61660296D01*
X119372151Y-61599927D01*
X119617892Y-61500884D01*
X119845634Y-61365491D01*
X120050039Y-61196919D01*
X120226316Y-60999120D01*
X120370334Y-60776731D01*
X120478716Y-60534965D01*
X120484112Y-60515326D01*
X120548923Y-60279488D01*
X120565875Y-60132642D01*
X120579308Y-60016286D01*
X120576324Y-59938447D01*
X120569160Y-59751530D01*
X120552345Y-59664830D01*
X120518716Y-59491429D01*
X120471512Y-59360000D01*
X148621950Y-59360000D01*
X148642116Y-59616245D01*
X148702122Y-59866186D01*
X148800485Y-60103656D01*
X148800491Y-60103668D01*
X148934787Y-60322819D01*
X148934791Y-60322824D01*
X148936252Y-60324535D01*
X149489708Y-59771080D01*
X149544225Y-59743303D01*
X149604657Y-59752874D01*
X149639122Y-59781965D01*
X149710754Y-59878183D01*
X149840198Y-59986801D01*
X149872620Y-60038689D01*
X149868352Y-60099726D01*
X149846565Y-60132642D01*
X149295463Y-60683745D01*
X149295463Y-60683746D01*
X149297179Y-60685211D01*
X149516331Y-60819508D01*
X149516343Y-60819514D01*
X149753813Y-60917877D01*
X149753812Y-60917877D01*
X150003754Y-60977883D01*
X150260000Y-60998049D01*
X150516245Y-60977883D01*
X150766186Y-60917877D01*
X151003656Y-60819514D01*
X151003668Y-60819508D01*
X151222818Y-60685213D01*
X151224535Y-60683746D01*
X150670762Y-60129972D01*
X150642985Y-60075455D01*
X150652556Y-60015023D01*
X150686366Y-59977254D01*
X150745373Y-59938445D01*
X150865688Y-59810918D01*
X150876007Y-59793043D01*
X150921473Y-59752103D01*
X150982323Y-59745704D01*
X151031748Y-59772538D01*
X151583746Y-60324535D01*
X151585213Y-60322818D01*
X151719508Y-60103668D01*
X151719514Y-60103656D01*
X151817877Y-59866186D01*
X151877883Y-59616245D01*
X151898049Y-59360000D01*
X151877883Y-59103754D01*
X151817877Y-58853813D01*
X151719514Y-58616343D01*
X151719508Y-58616331D01*
X151585211Y-58397179D01*
X151583746Y-58395463D01*
X151583745Y-58395463D01*
X151030289Y-58948918D01*
X150975773Y-58976695D01*
X150915341Y-58967124D01*
X150880876Y-58938033D01*
X150809244Y-58841815D01*
X150809242Y-58841813D01*
X150679800Y-58733197D01*
X150647377Y-58681309D01*
X150651645Y-58620272D01*
X150673432Y-58587355D01*
X151224535Y-58036252D01*
X151222824Y-58034791D01*
X151222819Y-58034787D01*
X151003668Y-57900491D01*
X151003656Y-57900485D01*
X150766186Y-57802122D01*
X150766187Y-57802122D01*
X150516245Y-57742116D01*
X150260000Y-57721950D01*
X150003754Y-57742116D01*
X149753813Y-57802122D01*
X149516343Y-57900485D01*
X149516331Y-57900491D01*
X149297184Y-58034785D01*
X149297176Y-58034791D01*
X149295463Y-58036252D01*
X149849237Y-58590027D01*
X149877014Y-58644544D01*
X149867443Y-58704976D01*
X149833635Y-58742744D01*
X149774629Y-58781553D01*
X149774627Y-58781555D01*
X149654313Y-58909080D01*
X149654308Y-58909087D01*
X149643991Y-58926957D01*
X149598521Y-58967898D01*
X149537671Y-58974294D01*
X149488251Y-58947461D01*
X148936252Y-58395463D01*
X148934791Y-58397176D01*
X148934785Y-58397184D01*
X148800491Y-58616331D01*
X148800485Y-58616343D01*
X148702122Y-58853813D01*
X148642116Y-59103754D01*
X148621950Y-59360000D01*
X120471512Y-59360000D01*
X120429159Y-59242075D01*
X120302587Y-59009314D01*
X120302586Y-59009312D01*
X120302585Y-59009311D01*
X120141975Y-58798610D01*
X120141969Y-58798602D01*
X119951067Y-58614878D01*
X119734358Y-58462448D01*
X119734354Y-58462445D01*
X119734349Y-58462443D01*
X119496924Y-58344886D01*
X119496921Y-58344885D01*
X119244315Y-58264943D01*
X119040995Y-58233539D01*
X118982474Y-58224500D01*
X118783860Y-58224500D01*
X118783857Y-58224500D01*
X118585837Y-58239702D01*
X118585824Y-58239704D01*
X118327849Y-58300073D01*
X118082102Y-58399118D01*
X117854365Y-58534508D01*
X117649968Y-58703073D01*
X117649960Y-58703081D01*
X117473691Y-58900871D01*
X117473681Y-58900884D01*
X117329665Y-59123269D01*
X117221283Y-59365036D01*
X117221280Y-59365045D01*
X117151076Y-59620511D01*
X117120692Y-59883714D01*
X117120691Y-59883717D01*
X105585063Y-59883717D01*
X105586452Y-55356404D01*
X105586643Y-54735638D01*
X106820801Y-54735638D01*
X106830655Y-54992719D01*
X106879638Y-55245280D01*
X106879639Y-55245283D01*
X106963848Y-55479748D01*
X106966602Y-55487414D01*
X107060721Y-55660498D01*
X107089504Y-55713428D01*
X107199615Y-55857880D01*
X107245471Y-55918036D01*
X107430832Y-56096429D01*
X107430834Y-56096431D01*
X107430837Y-56096433D01*
X107430838Y-56096434D01*
X107641268Y-56244447D01*
X107641271Y-56244449D01*
X107641276Y-56244452D01*
X107871821Y-56358602D01*
X107871823Y-56358602D01*
X107871826Y-56358604D01*
X108117108Y-56436228D01*
X108371364Y-56475500D01*
X108371365Y-56475500D01*
X108564230Y-56475500D01*
X108616553Y-56471482D01*
X108756517Y-56460737D01*
X108756520Y-56460736D01*
X108756522Y-56460736D01*
X108786859Y-56453636D01*
X109007021Y-56402117D01*
X109245641Y-56305944D01*
X109466783Y-56174474D01*
X109665265Y-56010787D01*
X109836435Y-55818720D01*
X109976279Y-55602775D01*
X110081521Y-55368014D01*
X110084712Y-55356404D01*
X110149692Y-55119941D01*
X110149693Y-55119939D01*
X110179198Y-54864365D01*
X110178459Y-54845093D01*
X110169344Y-54607280D01*
X110131808Y-54413741D01*
X110120610Y-54355999D01*
X112455455Y-54355999D01*
X112455456Y-54356000D01*
X113213224Y-54356000D01*
X113271415Y-54374907D01*
X113307379Y-54424407D01*
X113308214Y-54482892D01*
X113292000Y-54538109D01*
X113292000Y-54681890D01*
X113308214Y-54737108D01*
X113306467Y-54798268D01*
X113269104Y-54846721D01*
X113213224Y-54864000D01*
X112455456Y-54864000D01*
X112503176Y-55052447D01*
X112593581Y-55258551D01*
X112593584Y-55258556D01*
X112716671Y-55446954D01*
X112869103Y-55612539D01*
X113046695Y-55750765D01*
X113046698Y-55750767D01*
X113244624Y-55857880D01*
X113457491Y-55930957D01*
X113537999Y-55944392D01*
X113538000Y-55944392D01*
X113538000Y-55192874D01*
X113556907Y-55134683D01*
X113606407Y-55098719D01*
X113651090Y-55094882D01*
X113756233Y-55110000D01*
X113756237Y-55110000D01*
X113827767Y-55110000D01*
X113932910Y-55094882D01*
X113993199Y-55105315D01*
X114035842Y-55149192D01*
X114046000Y-55192874D01*
X114046000Y-55944392D01*
X114126508Y-55930957D01*
X114339375Y-55857880D01*
X114537301Y-55750767D01*
X114537304Y-55750765D01*
X114714896Y-55612539D01*
X114867328Y-55446954D01*
X114990415Y-55258556D01*
X114990418Y-55258551D01*
X115080821Y-55052453D01*
X115124304Y-54880739D01*
X115156918Y-54828971D01*
X115213732Y-54806258D01*
X115273045Y-54821278D01*
X115312202Y-54868293D01*
X115315012Y-54876303D01*
X115316358Y-54880739D01*
X115356768Y-55013954D01*
X115402076Y-55098719D01*
X115454316Y-55196452D01*
X115585585Y-55356404D01*
X115585590Y-55356410D01*
X115585595Y-55356414D01*
X115745547Y-55487683D01*
X115745548Y-55487683D01*
X115745550Y-55487685D01*
X115928046Y-55585232D01*
X116065996Y-55627078D01*
X116126065Y-55645300D01*
X116126070Y-55645301D01*
X116331997Y-55665583D01*
X116332000Y-55665583D01*
X116332003Y-55665583D01*
X116537929Y-55645301D01*
X116537934Y-55645300D01*
X116537933Y-55645300D01*
X116735954Y-55585232D01*
X116918450Y-55487685D01*
X117078410Y-55356410D01*
X117209685Y-55196450D01*
X117307232Y-55013954D01*
X117367300Y-54815934D01*
X117367301Y-54815929D01*
X117387583Y-54610003D01*
X117816417Y-54610003D01*
X117836698Y-54815929D01*
X117836699Y-54815934D01*
X117896768Y-55013954D01*
X117994316Y-55196452D01*
X118125585Y-55356404D01*
X118125590Y-55356410D01*
X118125595Y-55356414D01*
X118285547Y-55487683D01*
X118285548Y-55487683D01*
X118285550Y-55487685D01*
X118468046Y-55585232D01*
X118605996Y-55627078D01*
X118666065Y-55645300D01*
X118666070Y-55645301D01*
X118871997Y-55665583D01*
X118872000Y-55665583D01*
X118872003Y-55665583D01*
X119077929Y-55645301D01*
X119077934Y-55645300D01*
X119077933Y-55645300D01*
X119275954Y-55585232D01*
X119458450Y-55487685D01*
X119618410Y-55356410D01*
X119749685Y-55196450D01*
X119847232Y-55013954D01*
X119907300Y-54815934D01*
X119907301Y-54815929D01*
X119927583Y-54610003D01*
X120356417Y-54610003D01*
X120376698Y-54815929D01*
X120376699Y-54815934D01*
X120436768Y-55013954D01*
X120534316Y-55196452D01*
X120665585Y-55356404D01*
X120665590Y-55356410D01*
X120665595Y-55356414D01*
X120825547Y-55487683D01*
X120825548Y-55487683D01*
X120825550Y-55487685D01*
X121008046Y-55585232D01*
X121145996Y-55627078D01*
X121206065Y-55645300D01*
X121206070Y-55645301D01*
X121411997Y-55665583D01*
X121412000Y-55665583D01*
X121412003Y-55665583D01*
X121617929Y-55645301D01*
X121617934Y-55645300D01*
X121617933Y-55645300D01*
X121815954Y-55585232D01*
X121998450Y-55487685D01*
X122158410Y-55356410D01*
X122289685Y-55196450D01*
X122387232Y-55013954D01*
X122447300Y-54815934D01*
X122447301Y-54815929D01*
X122467583Y-54610003D01*
X122896417Y-54610003D01*
X122916698Y-54815929D01*
X122916699Y-54815934D01*
X122976768Y-55013954D01*
X123074316Y-55196452D01*
X123205585Y-55356404D01*
X123205590Y-55356410D01*
X123205595Y-55356414D01*
X123365547Y-55487683D01*
X123365548Y-55487683D01*
X123365550Y-55487685D01*
X123548046Y-55585232D01*
X123685996Y-55627078D01*
X123746065Y-55645300D01*
X123746070Y-55645301D01*
X123951997Y-55665583D01*
X123952000Y-55665583D01*
X123952003Y-55665583D01*
X124157929Y-55645301D01*
X124157934Y-55645300D01*
X124157933Y-55645300D01*
X124355954Y-55585232D01*
X124538450Y-55487685D01*
X124548124Y-55479746D01*
X125441500Y-55479746D01*
X125441501Y-55479758D01*
X125453132Y-55538227D01*
X125453134Y-55538233D01*
X125497445Y-55604548D01*
X125497448Y-55604552D01*
X125563769Y-55648867D01*
X125608231Y-55657711D01*
X125622241Y-55660498D01*
X125622246Y-55660498D01*
X125622252Y-55660500D01*
X125622253Y-55660500D01*
X127361747Y-55660500D01*
X127361748Y-55660500D01*
X127420231Y-55648867D01*
X127486552Y-55604552D01*
X127530867Y-55538231D01*
X127542500Y-55479748D01*
X127542500Y-55479746D01*
X129886500Y-55479746D01*
X129886501Y-55479758D01*
X129898132Y-55538227D01*
X129898134Y-55538233D01*
X129942445Y-55604548D01*
X129942448Y-55604552D01*
X130008769Y-55648867D01*
X130053231Y-55657711D01*
X130067241Y-55660498D01*
X130067246Y-55660498D01*
X130067252Y-55660500D01*
X130067253Y-55660500D01*
X131806747Y-55660500D01*
X131806748Y-55660500D01*
X131865231Y-55648867D01*
X131931552Y-55604552D01*
X131975867Y-55538231D01*
X131987500Y-55479748D01*
X131987500Y-54610003D01*
X132421417Y-54610003D01*
X132441698Y-54815929D01*
X132441699Y-54815934D01*
X132501768Y-55013954D01*
X132599316Y-55196452D01*
X132730585Y-55356404D01*
X132730590Y-55356410D01*
X132730595Y-55356414D01*
X132890547Y-55487683D01*
X132890548Y-55487683D01*
X132890550Y-55487685D01*
X133073046Y-55585232D01*
X133210996Y-55627078D01*
X133271065Y-55645300D01*
X133271070Y-55645301D01*
X133476997Y-55665583D01*
X133477000Y-55665583D01*
X133477003Y-55665583D01*
X133682929Y-55645301D01*
X133682934Y-55645300D01*
X133682933Y-55645300D01*
X133880954Y-55585232D01*
X134063450Y-55487685D01*
X134223410Y-55356410D01*
X134354685Y-55196450D01*
X134452232Y-55013954D01*
X134512300Y-54815934D01*
X134512301Y-54815929D01*
X134532583Y-54610003D01*
X134961417Y-54610003D01*
X134981698Y-54815929D01*
X134981699Y-54815934D01*
X135041768Y-55013954D01*
X135139316Y-55196452D01*
X135270585Y-55356404D01*
X135270590Y-55356410D01*
X135270595Y-55356414D01*
X135430547Y-55487683D01*
X135430548Y-55487683D01*
X135430550Y-55487685D01*
X135613046Y-55585232D01*
X135750996Y-55627078D01*
X135811065Y-55645300D01*
X135811070Y-55645301D01*
X136016997Y-55665583D01*
X136017000Y-55665583D01*
X136017003Y-55665583D01*
X136222929Y-55645301D01*
X136222934Y-55645300D01*
X136222933Y-55645300D01*
X136420954Y-55585232D01*
X136603450Y-55487685D01*
X136763410Y-55356410D01*
X136894685Y-55196450D01*
X136992232Y-55013954D01*
X137052300Y-54815934D01*
X137052301Y-54815929D01*
X137072583Y-54610003D01*
X137501417Y-54610003D01*
X137521698Y-54815929D01*
X137521699Y-54815934D01*
X137581768Y-55013954D01*
X137679316Y-55196452D01*
X137810585Y-55356404D01*
X137810590Y-55356410D01*
X137810595Y-55356414D01*
X137970547Y-55487683D01*
X137970548Y-55487683D01*
X137970550Y-55487685D01*
X138153046Y-55585232D01*
X138290996Y-55627078D01*
X138351065Y-55645300D01*
X138351070Y-55645301D01*
X138556997Y-55665583D01*
X138557000Y-55665583D01*
X138557003Y-55665583D01*
X138762929Y-55645301D01*
X138762934Y-55645300D01*
X138960954Y-55585232D01*
X139143450Y-55487685D01*
X139303410Y-55356410D01*
X139434685Y-55196450D01*
X139532232Y-55013954D01*
X139592300Y-54815934D01*
X139592301Y-54815929D01*
X139612583Y-54610003D01*
X140041417Y-54610003D01*
X140061698Y-54815929D01*
X140061699Y-54815934D01*
X140121768Y-55013954D01*
X140219316Y-55196452D01*
X140350585Y-55356404D01*
X140350590Y-55356410D01*
X140350595Y-55356414D01*
X140510547Y-55487683D01*
X140510548Y-55487683D01*
X140510550Y-55487685D01*
X140693046Y-55585232D01*
X140830996Y-55627078D01*
X140891065Y-55645300D01*
X140891070Y-55645301D01*
X141096997Y-55665583D01*
X141097000Y-55665583D01*
X141097003Y-55665583D01*
X141302929Y-55645301D01*
X141302934Y-55645300D01*
X141302933Y-55645300D01*
X141500954Y-55585232D01*
X141683450Y-55487685D01*
X141843410Y-55356410D01*
X141974685Y-55196450D01*
X142072232Y-55013954D01*
X142113987Y-54876303D01*
X142148972Y-54826107D01*
X142206780Y-54806061D01*
X142265331Y-54823822D01*
X142302260Y-54872606D01*
X142304695Y-54880739D01*
X142348178Y-55052453D01*
X142438581Y-55258551D01*
X142438584Y-55258556D01*
X142561671Y-55446954D01*
X142714103Y-55612539D01*
X142891695Y-55750765D01*
X142891698Y-55750767D01*
X143089624Y-55857880D01*
X143302491Y-55930957D01*
X143382999Y-55944392D01*
X143383000Y-55944392D01*
X143383000Y-55192874D01*
X143401907Y-55134683D01*
X143451407Y-55098719D01*
X143496090Y-55094882D01*
X143601233Y-55110000D01*
X143601237Y-55110000D01*
X143672767Y-55110000D01*
X143777910Y-55094882D01*
X143838199Y-55105315D01*
X143880842Y-55149192D01*
X143891000Y-55192874D01*
X143891000Y-55944392D01*
X143971508Y-55930957D01*
X144184375Y-55857880D01*
X144382301Y-55750767D01*
X144382304Y-55750765D01*
X144559896Y-55612539D01*
X144712328Y-55446954D01*
X144835415Y-55258556D01*
X144835418Y-55258551D01*
X144925823Y-55052447D01*
X144973544Y-54864000D01*
X144215776Y-54864000D01*
X144157585Y-54845093D01*
X144121621Y-54795593D01*
X144120786Y-54737108D01*
X144121218Y-54735638D01*
X151820801Y-54735638D01*
X151830655Y-54992719D01*
X151879638Y-55245280D01*
X151879639Y-55245283D01*
X151963848Y-55479748D01*
X151966602Y-55487414D01*
X152060721Y-55660498D01*
X152089504Y-55713428D01*
X152199615Y-55857880D01*
X152245471Y-55918036D01*
X152430832Y-56096429D01*
X152430834Y-56096431D01*
X152430837Y-56096433D01*
X152430838Y-56096434D01*
X152641268Y-56244447D01*
X152641271Y-56244449D01*
X152641276Y-56244452D01*
X152871821Y-56358602D01*
X152871823Y-56358602D01*
X152871826Y-56358604D01*
X153117108Y-56436228D01*
X153371364Y-56475500D01*
X153371365Y-56475500D01*
X153564230Y-56475500D01*
X153616553Y-56471482D01*
X153756517Y-56460737D01*
X153756520Y-56460736D01*
X153756522Y-56460736D01*
X153786859Y-56453636D01*
X154007021Y-56402117D01*
X154245641Y-56305944D01*
X154466783Y-56174474D01*
X154665265Y-56010787D01*
X154836435Y-55818720D01*
X154976279Y-55602775D01*
X155081521Y-55368014D01*
X155084712Y-55356404D01*
X155149692Y-55119941D01*
X155149693Y-55119939D01*
X155179198Y-54864365D01*
X155178459Y-54845093D01*
X155169344Y-54607280D01*
X155131808Y-54413741D01*
X155120361Y-54354717D01*
X155033399Y-54112588D01*
X154910496Y-53886572D01*
X154754531Y-53681966D01*
X154754528Y-53681963D01*
X154569167Y-53503570D01*
X154569165Y-53503568D01*
X154358728Y-53355550D01*
X154358723Y-53355547D01*
X154128178Y-53241397D01*
X154128175Y-53241396D01*
X153882893Y-53163772D01*
X153882887Y-53163771D01*
X153724215Y-53139263D01*
X153628636Y-53124500D01*
X153435773Y-53124500D01*
X153435770Y-53124500D01*
X153243477Y-53139263D01*
X152992979Y-53197883D01*
X152754353Y-53294058D01*
X152533216Y-53425525D01*
X152334742Y-53589206D01*
X152334734Y-53589213D01*
X152163561Y-53781285D01*
X152163560Y-53781285D01*
X152023720Y-53997225D01*
X151918478Y-54231987D01*
X151918475Y-54231995D01*
X151850307Y-54480058D01*
X151820802Y-54735635D01*
X151820801Y-54735638D01*
X144121218Y-54735638D01*
X144137000Y-54681889D01*
X144137000Y-54538111D01*
X144120786Y-54482890D01*
X144122533Y-54421732D01*
X144159896Y-54373279D01*
X144215776Y-54356000D01*
X144973544Y-54356000D01*
X144973544Y-54355999D01*
X144925823Y-54167552D01*
X144835418Y-53961448D01*
X144835415Y-53961443D01*
X144712328Y-53773045D01*
X144559896Y-53607460D01*
X144382304Y-53469234D01*
X144382301Y-53469232D01*
X144184375Y-53362119D01*
X143971510Y-53289042D01*
X143891000Y-53275607D01*
X143891000Y-54027125D01*
X143872093Y-54085316D01*
X143822593Y-54121280D01*
X143777911Y-54125117D01*
X143672768Y-54110000D01*
X143672763Y-54110000D01*
X143601237Y-54110000D01*
X143601232Y-54110000D01*
X143496089Y-54125117D01*
X143435800Y-54114684D01*
X143393157Y-54070806D01*
X143383000Y-54027125D01*
X143383000Y-53275607D01*
X143382999Y-53275607D01*
X143302489Y-53289042D01*
X143089624Y-53362119D01*
X142891698Y-53469232D01*
X142891695Y-53469234D01*
X142714103Y-53607460D01*
X142561671Y-53773045D01*
X142438584Y-53961443D01*
X142438581Y-53961448D01*
X142348178Y-54167546D01*
X142304695Y-54339260D01*
X142272081Y-54391029D01*
X142215267Y-54413741D01*
X142155954Y-54398720D01*
X142116797Y-54351705D01*
X142113987Y-54343695D01*
X142080103Y-54231995D01*
X142072232Y-54206046D01*
X141974685Y-54023550D01*
X141923715Y-53961443D01*
X141843414Y-53863595D01*
X141843410Y-53863590D01*
X141843404Y-53863585D01*
X141683452Y-53732316D01*
X141500954Y-53634768D01*
X141302934Y-53574699D01*
X141302929Y-53574698D01*
X141097003Y-53554417D01*
X141096997Y-53554417D01*
X140891070Y-53574698D01*
X140891065Y-53574699D01*
X140693045Y-53634768D01*
X140510547Y-53732316D01*
X140350595Y-53863585D01*
X140350585Y-53863595D01*
X140219316Y-54023547D01*
X140121768Y-54206045D01*
X140061699Y-54404065D01*
X140061698Y-54404070D01*
X140041417Y-54609996D01*
X140041417Y-54610003D01*
X139612583Y-54610003D01*
X139612583Y-54609996D01*
X139592301Y-54404070D01*
X139592300Y-54404065D01*
X139540103Y-54231995D01*
X139532232Y-54206046D01*
X139434685Y-54023550D01*
X139383715Y-53961443D01*
X139303414Y-53863595D01*
X139303410Y-53863590D01*
X139303404Y-53863585D01*
X139143452Y-53732316D01*
X138960954Y-53634768D01*
X138762934Y-53574699D01*
X138762929Y-53574698D01*
X138557003Y-53554417D01*
X138556997Y-53554417D01*
X138351070Y-53574698D01*
X138351065Y-53574699D01*
X138153045Y-53634768D01*
X137970547Y-53732316D01*
X137810595Y-53863585D01*
X137810585Y-53863595D01*
X137679316Y-54023547D01*
X137581768Y-54206045D01*
X137521699Y-54404065D01*
X137521698Y-54404070D01*
X137501417Y-54609996D01*
X137501417Y-54610003D01*
X137072583Y-54610003D01*
X137072583Y-54609996D01*
X137052301Y-54404070D01*
X137052300Y-54404065D01*
X137000103Y-54231995D01*
X136992232Y-54206046D01*
X136894685Y-54023550D01*
X136843715Y-53961443D01*
X136763414Y-53863595D01*
X136763410Y-53863590D01*
X136763404Y-53863585D01*
X136603452Y-53732316D01*
X136420954Y-53634768D01*
X136222934Y-53574699D01*
X136222929Y-53574698D01*
X136017003Y-53554417D01*
X136016997Y-53554417D01*
X135811070Y-53574698D01*
X135811065Y-53574699D01*
X135613045Y-53634768D01*
X135430547Y-53732316D01*
X135270595Y-53863585D01*
X135270585Y-53863595D01*
X135139316Y-54023547D01*
X135041768Y-54206045D01*
X134981699Y-54404065D01*
X134981698Y-54404070D01*
X134961417Y-54609996D01*
X134961417Y-54610003D01*
X134532583Y-54610003D01*
X134532583Y-54609996D01*
X134512301Y-54404070D01*
X134512300Y-54404065D01*
X134460103Y-54231995D01*
X134452232Y-54206046D01*
X134354685Y-54023550D01*
X134303715Y-53961443D01*
X134223414Y-53863595D01*
X134223410Y-53863590D01*
X134223404Y-53863585D01*
X134063452Y-53732316D01*
X133880954Y-53634768D01*
X133682934Y-53574699D01*
X133682929Y-53574698D01*
X133477003Y-53554417D01*
X133476997Y-53554417D01*
X133271070Y-53574698D01*
X133271065Y-53574699D01*
X133073045Y-53634768D01*
X132890547Y-53732316D01*
X132730595Y-53863585D01*
X132730585Y-53863595D01*
X132599316Y-54023547D01*
X132501768Y-54206045D01*
X132441699Y-54404065D01*
X132441698Y-54404070D01*
X132421417Y-54609996D01*
X132421417Y-54610003D01*
X131987500Y-54610003D01*
X131987500Y-53740252D01*
X131985921Y-53732316D01*
X131975906Y-53681966D01*
X131975867Y-53681769D01*
X131931552Y-53615448D01*
X131931548Y-53615445D01*
X131865233Y-53571134D01*
X131865231Y-53571133D01*
X131865228Y-53571132D01*
X131865227Y-53571132D01*
X131806758Y-53559501D01*
X131806748Y-53559500D01*
X130067252Y-53559500D01*
X130067251Y-53559500D01*
X130067241Y-53559501D01*
X130008772Y-53571132D01*
X130008766Y-53571134D01*
X129942451Y-53615445D01*
X129942445Y-53615451D01*
X129898134Y-53681766D01*
X129898132Y-53681772D01*
X129886501Y-53740241D01*
X129886500Y-53740253D01*
X129886500Y-55479746D01*
X127542500Y-55479746D01*
X127542500Y-53740252D01*
X127540921Y-53732316D01*
X127530906Y-53681966D01*
X127530867Y-53681769D01*
X127486552Y-53615448D01*
X127486548Y-53615445D01*
X127420233Y-53571134D01*
X127420231Y-53571133D01*
X127420228Y-53571132D01*
X127420227Y-53571132D01*
X127361758Y-53559501D01*
X127361748Y-53559500D01*
X125622252Y-53559500D01*
X125622251Y-53559500D01*
X125622241Y-53559501D01*
X125563772Y-53571132D01*
X125563766Y-53571134D01*
X125497451Y-53615445D01*
X125497445Y-53615451D01*
X125453134Y-53681766D01*
X125453132Y-53681772D01*
X125441501Y-53740241D01*
X125441500Y-53740253D01*
X125441500Y-55479746D01*
X124548124Y-55479746D01*
X124698410Y-55356410D01*
X124829685Y-55196450D01*
X124927232Y-55013954D01*
X124987300Y-54815934D01*
X124987301Y-54815929D01*
X125007583Y-54610003D01*
X125007583Y-54609996D01*
X124987301Y-54404070D01*
X124987300Y-54404065D01*
X124935103Y-54231995D01*
X124927232Y-54206046D01*
X124829685Y-54023550D01*
X124778715Y-53961443D01*
X124698414Y-53863595D01*
X124698410Y-53863590D01*
X124698404Y-53863585D01*
X124538452Y-53732316D01*
X124355954Y-53634768D01*
X124157934Y-53574699D01*
X124157929Y-53574698D01*
X123952003Y-53554417D01*
X123951997Y-53554417D01*
X123746070Y-53574698D01*
X123746065Y-53574699D01*
X123548045Y-53634768D01*
X123365547Y-53732316D01*
X123205595Y-53863585D01*
X123205585Y-53863595D01*
X123074316Y-54023547D01*
X122976768Y-54206045D01*
X122916699Y-54404065D01*
X122916698Y-54404070D01*
X122896417Y-54609996D01*
X122896417Y-54610003D01*
X122467583Y-54610003D01*
X122467583Y-54609996D01*
X122447301Y-54404070D01*
X122447300Y-54404065D01*
X122395103Y-54231995D01*
X122387232Y-54206046D01*
X122289685Y-54023550D01*
X122238715Y-53961443D01*
X122158414Y-53863595D01*
X122158410Y-53863590D01*
X122158404Y-53863585D01*
X121998452Y-53732316D01*
X121815954Y-53634768D01*
X121617934Y-53574699D01*
X121617929Y-53574698D01*
X121412003Y-53554417D01*
X121411997Y-53554417D01*
X121206070Y-53574698D01*
X121206065Y-53574699D01*
X121008045Y-53634768D01*
X120825547Y-53732316D01*
X120665595Y-53863585D01*
X120665585Y-53863595D01*
X120534316Y-54023547D01*
X120436768Y-54206045D01*
X120376699Y-54404065D01*
X120376698Y-54404070D01*
X120356417Y-54609996D01*
X120356417Y-54610003D01*
X119927583Y-54610003D01*
X119927583Y-54609996D01*
X119907301Y-54404070D01*
X119907300Y-54404065D01*
X119855103Y-54231995D01*
X119847232Y-54206046D01*
X119749685Y-54023550D01*
X119698715Y-53961443D01*
X119618414Y-53863595D01*
X119618410Y-53863590D01*
X119618404Y-53863585D01*
X119458452Y-53732316D01*
X119275954Y-53634768D01*
X119077934Y-53574699D01*
X119077929Y-53574698D01*
X118872003Y-53554417D01*
X118871997Y-53554417D01*
X118666070Y-53574698D01*
X118666065Y-53574699D01*
X118468045Y-53634768D01*
X118285547Y-53732316D01*
X118125595Y-53863585D01*
X118125585Y-53863595D01*
X117994316Y-54023547D01*
X117896768Y-54206045D01*
X117836699Y-54404065D01*
X117836698Y-54404070D01*
X117816417Y-54609996D01*
X117816417Y-54610003D01*
X117387583Y-54610003D01*
X117387583Y-54609996D01*
X117367301Y-54404070D01*
X117367300Y-54404065D01*
X117315103Y-54231995D01*
X117307232Y-54206046D01*
X117209685Y-54023550D01*
X117158715Y-53961443D01*
X117078414Y-53863595D01*
X117078410Y-53863590D01*
X117078404Y-53863585D01*
X116918452Y-53732316D01*
X116735954Y-53634768D01*
X116537934Y-53574699D01*
X116537929Y-53574698D01*
X116332003Y-53554417D01*
X116331997Y-53554417D01*
X116126070Y-53574698D01*
X116126065Y-53574699D01*
X115928045Y-53634768D01*
X115745547Y-53732316D01*
X115585595Y-53863585D01*
X115585585Y-53863595D01*
X115454316Y-54023547D01*
X115356769Y-54206044D01*
X115315012Y-54343696D01*
X115280027Y-54393892D01*
X115222218Y-54413938D01*
X115163668Y-54396176D01*
X115126739Y-54347392D01*
X115124304Y-54339260D01*
X115080821Y-54167546D01*
X114990418Y-53961448D01*
X114990415Y-53961443D01*
X114867328Y-53773045D01*
X114714896Y-53607460D01*
X114537304Y-53469234D01*
X114537301Y-53469232D01*
X114339375Y-53362119D01*
X114126510Y-53289042D01*
X114046000Y-53275607D01*
X114046000Y-54027125D01*
X114027093Y-54085316D01*
X113977593Y-54121280D01*
X113932911Y-54125117D01*
X113827768Y-54110000D01*
X113827763Y-54110000D01*
X113756237Y-54110000D01*
X113756232Y-54110000D01*
X113651089Y-54125117D01*
X113590800Y-54114684D01*
X113548157Y-54070806D01*
X113538000Y-54027125D01*
X113538000Y-53275607D01*
X113537999Y-53275607D01*
X113457489Y-53289042D01*
X113244624Y-53362119D01*
X113046698Y-53469232D01*
X113046695Y-53469234D01*
X112869103Y-53607460D01*
X112716671Y-53773045D01*
X112593584Y-53961443D01*
X112593581Y-53961448D01*
X112503176Y-54167552D01*
X112455455Y-54355999D01*
X110120610Y-54355999D01*
X110120361Y-54354717D01*
X110033399Y-54112588D01*
X109910496Y-53886572D01*
X109754531Y-53681966D01*
X109754528Y-53681963D01*
X109569167Y-53503570D01*
X109569165Y-53503568D01*
X109358728Y-53355550D01*
X109358723Y-53355547D01*
X109128178Y-53241397D01*
X109128175Y-53241396D01*
X108882893Y-53163772D01*
X108882887Y-53163771D01*
X108724215Y-53139263D01*
X108628636Y-53124500D01*
X108435773Y-53124500D01*
X108435770Y-53124500D01*
X108243477Y-53139263D01*
X107992979Y-53197883D01*
X107754353Y-53294058D01*
X107533216Y-53425525D01*
X107334742Y-53589206D01*
X107334734Y-53589213D01*
X107163561Y-53781285D01*
X107163560Y-53781285D01*
X107023720Y-53997225D01*
X106918478Y-54231987D01*
X106918475Y-54231995D01*
X106850307Y-54480058D01*
X106820802Y-54735635D01*
X106820801Y-54735638D01*
X105586643Y-54735638D01*
X105587454Y-52092470D01*
X105606379Y-52034285D01*
X105655890Y-51998336D01*
X105686454Y-51993500D01*
X156695430Y-51993500D01*
X156753621Y-52012407D01*
G37*
G04 #@! TD.AperFunction*
G04 #@! TD*
M02*
