G04 #@! TF.GenerationSoftware,KiCad,Pcbnew,7.0.7-7.0.7~ubuntu22.04.1*
G04 #@! TF.CreationDate,2023-09-29T12:00:57+02:00*
G04 #@! TF.ProjectId,astropix_v4,61737472-6f70-4697-985f-76342e6b6963,1.0*
G04 #@! TF.SameCoordinates,Original*
G04 #@! TF.FileFunction,Copper,L4,Bot*
G04 #@! TF.FilePolarity,Positive*
%FSLAX46Y46*%
G04 Gerber Fmt 4.6, Leading zero omitted, Abs format (unit mm)*
G04 Created by KiCad (PCBNEW 7.0.7-7.0.7~ubuntu22.04.1) date 2023-09-29 12:00:57*
%MOMM*%
%LPD*%
G01*
G04 APERTURE LIST*
G04 #@! TA.AperFunction,ComponentPad*
%ADD10C,2.250000*%
G04 #@! TD*
G04 #@! TA.AperFunction,ComponentPad*
%ADD11R,1.700000X1.700000*%
G04 #@! TD*
G04 #@! TA.AperFunction,ComponentPad*
%ADD12O,1.700000X1.700000*%
G04 #@! TD*
G04 #@! TA.AperFunction,ConnectorPad*
%ADD13R,0.700000X3.200000*%
G04 #@! TD*
G04 #@! TA.AperFunction,ConnectorPad*
%ADD14R,0.700000X4.300000*%
G04 #@! TD*
G04 #@! TA.AperFunction,ViaPad*
%ADD15C,0.450000*%
G04 #@! TD*
G04 #@! TA.AperFunction,ViaPad*
%ADD16C,0.600000*%
G04 #@! TD*
G04 #@! TA.AperFunction,Conductor*
%ADD17C,0.125000*%
G04 #@! TD*
G04 #@! TA.AperFunction,Conductor*
%ADD18C,0.500000*%
G04 #@! TD*
G04 #@! TA.AperFunction,Conductor*
%ADD19C,0.200000*%
G04 #@! TD*
G04 #@! TA.AperFunction,Conductor*
%ADD20C,0.250000*%
G04 #@! TD*
G04 #@! TA.AperFunction,Conductor*
%ADD21C,0.150000*%
G04 #@! TD*
G04 APERTURE END LIST*
D10*
G04 #@! TO.P,J6,1,In*
G04 #@! TO.N,/HV_in_ext*
X109520000Y-75000000D03*
G04 #@! TO.P,J6,2,Ext*
G04 #@! TO.N,GND*
X106980000Y-77540000D03*
X112060000Y-77540000D03*
X106980000Y-72460000D03*
X112060000Y-72460000D03*
G04 #@! TD*
D11*
G04 #@! TO.P,J9,1,Pin_1*
G04 #@! TO.N,/spi_left_mosi*
X126492000Y-54610000D03*
D12*
G04 #@! TO.P,J9,2,Pin_2*
G04 #@! TO.N,/spi_left_miso0*
X123952000Y-54610000D03*
G04 #@! TO.P,J9,3,Pin_3*
G04 #@! TO.N,/spi_left_miso1*
X121412000Y-54610000D03*
G04 #@! TO.P,J9,4,Pin_4*
G04 #@! TO.N,/spi_left_clk*
X118872000Y-54610000D03*
G04 #@! TO.P,J9,5,Pin_5*
G04 #@! TO.N,/spi_left_csn*
X116332000Y-54610000D03*
G04 #@! TO.P,J9,6,Pin_6*
G04 #@! TO.N,GND*
X113792000Y-54610000D03*
G04 #@! TD*
D11*
G04 #@! TO.P,J10,1,Pin_1*
G04 #@! TO.N,/spi_right_clk*
X130937000Y-54610000D03*
D12*
G04 #@! TO.P,J10,2,Pin_2*
G04 #@! TO.N,/spi_right_miso1*
X133477000Y-54610000D03*
G04 #@! TO.P,J10,3,Pin_3*
G04 #@! TO.N,/spi_right_miso0*
X136017000Y-54610000D03*
G04 #@! TO.P,J10,4,Pin_4*
G04 #@! TO.N,/spi_right_csn*
X138557000Y-54610000D03*
G04 #@! TO.P,J10,5,Pin_5*
G04 #@! TO.N,/spi_right_mosi*
X141097000Y-54610000D03*
G04 #@! TO.P,J10,6,Pin_6*
G04 #@! TO.N,GND*
X143637000Y-54610000D03*
G04 #@! TD*
D11*
G04 #@! TO.P,JP1,1,A*
G04 #@! TO.N,/VDD18_in*
X114909600Y-92710000D03*
D12*
G04 #@! TO.P,JP1,2,C*
G04 #@! TO.N,VDD*
X114909600Y-95250000D03*
G04 #@! TO.P,JP1,3,B*
G04 #@! TO.N,/POW4_in*
X114909600Y-97790000D03*
G04 #@! TD*
D10*
G04 #@! TO.P,J4,1,In*
G04 #@! TO.N,Net-(J4-In)*
X152800000Y-76000000D03*
G04 #@! TO.P,J4,2,Ext*
G04 #@! TO.N,GND*
X155340000Y-73460000D03*
X150260000Y-73460000D03*
X155340000Y-78540000D03*
X150260000Y-78540000D03*
G04 #@! TD*
D11*
G04 #@! TO.P,J11,1,Pin_1*
G04 #@! TO.N,Net-(J11-Pin_1)*
X115600000Y-68860000D03*
D12*
G04 #@! TO.P,J11,2,Pin_2*
G04 #@! TO.N,unconnected-(J11-Pin_2-Pad2)*
X115600000Y-71400000D03*
G04 #@! TO.P,J11,3,Pin_3*
G04 #@! TO.N,Net-(J11-Pin_3)*
X115600000Y-73940000D03*
G04 #@! TO.P,J11,4,Pin_4*
G04 #@! TO.N,VDDA*
X115600000Y-76480000D03*
G04 #@! TO.P,J11,5,Pin_5*
G04 #@! TO.N,Net-(J11-Pin_5)*
X115600000Y-79020000D03*
G04 #@! TD*
D11*
G04 #@! TO.P,J2,1,Pin_1*
G04 #@! TO.N,/Vtemp1*
X136600000Y-90820000D03*
D12*
G04 #@! TO.P,J2,2,Pin_2*
G04 #@! TO.N,/pload*
X139140000Y-90820000D03*
G04 #@! TO.P,J2,3,Pin_3*
G04 #@! TO.N,/Vtemp2*
X136600000Y-93360000D03*
G04 #@! TO.P,J2,4,Pin_4*
G04 #@! TO.N,/VPBias*
X139140000Y-93360000D03*
G04 #@! TO.P,J2,5,Pin_5*
G04 #@! TO.N,/vdac_test*
X136600000Y-95900000D03*
G04 #@! TO.P,J2,6,Pin_6*
G04 #@! TO.N,/pamp*
X139140000Y-95900000D03*
G04 #@! TO.P,J2,7,Pin_7*
G04 #@! TO.N,GND*
X136600000Y-98440000D03*
G04 #@! TO.P,J2,8,Pin_8*
G04 #@! TO.N,/cascpix*
X139140000Y-98440000D03*
G04 #@! TD*
D10*
G04 #@! TO.P,J8,1,In*
G04 #@! TO.N,Net-(J8-In)*
X152800000Y-61900000D03*
G04 #@! TO.P,J8,2,Ext*
G04 #@! TO.N,GND*
X155340000Y-59360000D03*
X150260000Y-59360000D03*
X155340000Y-64440000D03*
X150260000Y-64440000D03*
G04 #@! TD*
D13*
G04 #@! TO.P,J1,A1,HV*
G04 #@! TO.N,unconnected-(J1-HV-PadA1)*
X106172000Y-105241000D03*
D14*
G04 #@! TO.P,J1,A3,VDD33*
G04 #@! TO.N,unconnected-(J1-VDD33-PadA3)*
X108172000Y-105791000D03*
G04 #@! TO.P,J1,A4,VDD33*
G04 #@! TO.N,unconnected-(J1-VDD33-PadA4)*
X109172000Y-105791000D03*
G04 #@! TO.P,J1,A5,VSSA*
G04 #@! TO.N,VSSA*
X110172000Y-105791000D03*
G04 #@! TO.P,J1,A6,VSSA*
X111172000Y-105791000D03*
G04 #@! TO.P,J1,A7,POW5*
G04 #@! TO.N,unconnected-(J1-POW5-PadA7)*
X112172000Y-105791000D03*
G04 #@! TO.P,J1,A8,POW5*
G04 #@! TO.N,unconnected-(J1-POW5-PadA8)*
X113172000Y-105791000D03*
G04 #@! TO.P,J1,A9,POW7*
G04 #@! TO.N,unconnected-(J1-POW7-PadA9)*
X114172000Y-105791000D03*
G04 #@! TO.P,J1,A10,POW7*
G04 #@! TO.N,unconnected-(J1-POW7-PadA10)*
X115172000Y-105791000D03*
G04 #@! TO.P,J1,A11,GND*
G04 #@! TO.N,GND*
X116172000Y-105791000D03*
G04 #@! TO.P,J1,A12,C1_1*
G04 #@! TO.N,unconnected-(J1-C1_1-PadA12)*
X119172000Y-105791000D03*
G04 #@! TO.P,J1,A13,C1_2*
G04 #@! TO.N,unconnected-(J1-C1_2-PadA13)*
X120172000Y-105791000D03*
G04 #@! TO.P,J1,A14,C1_5*
G04 #@! TO.N,unconnected-(J1-C1_5-PadA14)*
X121172000Y-105791000D03*
G04 #@! TO.P,J1,A15,C1_6*
G04 #@! TO.N,unconnected-(J1-C1_6-PadA15)*
X122172000Y-105791000D03*
G04 #@! TO.P,J1,A16,FMC_LA23_P*
G04 #@! TO.N,/spi_left_csn*
X123172000Y-105791000D03*
G04 #@! TO.P,J1,A17,FMC_LA23_N*
G04 #@! TO.N,/spi_left_clk*
X124172000Y-105791000D03*
G04 #@! TO.P,J1,A18,FMC_LA21_P*
G04 #@! TO.N,/spi_left_miso1*
X125172000Y-105791000D03*
G04 #@! TO.P,J1,A19,FMC_LA21_N*
G04 #@! TO.N,/spi_left_miso0*
X126172000Y-105791000D03*
G04 #@! TO.P,J1,A20,FMC_LA19_P*
G04 #@! TO.N,/spi_left_mosi*
X127172000Y-105791000D03*
G04 #@! TO.P,J1,A21,FMC_LA19_N*
G04 #@! TO.N,/sr_ldtdac*
X128172000Y-105791000D03*
G04 #@! TO.P,J1,A22,FMC_LA17_CC_P*
G04 #@! TO.N,/sr_out*
X129172000Y-105791000D03*
G04 #@! TO.P,J1,A23,FMC_LA17_CC_N*
G04 #@! TO.N,/sr_rb*
X130172000Y-105791000D03*
G04 #@! TO.P,J1,A24,C2_1*
G04 #@! TO.N,/sr_ck1*
X131172000Y-105791000D03*
G04 #@! TO.P,J1,A25,C2_2*
G04 #@! TO.N,/sr_ck2*
X132172000Y-105791000D03*
G04 #@! TO.P,J1,A26,C2_5*
G04 #@! TO.N,unconnected-(J1-C2_5-PadA26)*
X133172000Y-105791000D03*
G04 #@! TO.P,J1,A27,C2_6*
G04 #@! TO.N,unconnected-(J1-C2_6-PadA27)*
X134172000Y-105791000D03*
G04 #@! TO.P,J1,A28,C3_1*
G04 #@! TO.N,/Inj*
X135172000Y-105791000D03*
G04 #@! TO.P,J1,A29,C3_2*
G04 #@! TO.N,unconnected-(J1-C3_2-PadA29)*
X136172000Y-105791000D03*
G04 #@! TO.P,J1,A30,C3_5*
G04 #@! TO.N,unconnected-(J1-C3_5-PadA30)*
X137172000Y-105791000D03*
G04 #@! TO.P,J1,A31,C3_6*
G04 #@! TO.N,unconnected-(J1-C3_6-PadA31)*
X138172000Y-105791000D03*
G04 #@! TO.P,J1,A32,C4_1*
G04 #@! TO.N,unconnected-(J1-C4_1-PadA32)*
X139172000Y-105791000D03*
G04 #@! TO.P,J1,A33,C4_2*
G04 #@! TO.N,unconnected-(J1-C4_2-PadA33)*
X140172000Y-105791000D03*
G04 #@! TO.P,J1,A34,C4_5*
G04 #@! TO.N,unconnected-(J1-C4_5-PadA34)*
X141172000Y-105791000D03*
G04 #@! TO.P,J1,A35,C4_6*
G04 #@! TO.N,unconnected-(J1-C4_6-PadA35)*
X142172000Y-105791000D03*
G04 #@! TO.P,J1,A36,C5_1*
G04 #@! TO.N,unconnected-(J1-C5_1-PadA36)*
X143172000Y-105791000D03*
G04 #@! TO.P,J1,A37,C5_2*
G04 #@! TO.N,unconnected-(J1-C5_2-PadA37)*
X144172000Y-105791000D03*
G04 #@! TO.P,J1,A38,C5_5*
G04 #@! TO.N,unconnected-(J1-C5_5-PadA38)*
X145172000Y-105791000D03*
G04 #@! TO.P,J1,A39,C5_6*
G04 #@! TO.N,unconnected-(J1-C5_6-PadA39)*
X146172000Y-105791000D03*
G04 #@! TO.P,J1,A40,FMC_LA15_P*
G04 #@! TO.N,/spi_right_clk*
X147172000Y-105791000D03*
G04 #@! TO.P,J1,A41,FMC_LA15_N*
G04 #@! TO.N,/spi_right_miso1*
X148172000Y-105791000D03*
G04 #@! TO.P,J1,A42,FMC_LA13_P*
G04 #@! TO.N,/spi_right_miso0*
X149172000Y-105791000D03*
G04 #@! TO.P,J1,A43,FMC_LA13_N*
G04 #@! TO.N,/spi_right_csn*
X150172000Y-105791000D03*
G04 #@! TO.P,J1,A44,FMC_LA11_P*
G04 #@! TO.N,/spi_right_mosi*
X151172000Y-105791000D03*
G04 #@! TO.P,J1,A45,FMC_LA11_N*
G04 #@! TO.N,unconnected-(J1-FMC_LA11_N-PadA45)*
X152172000Y-105791000D03*
G04 #@! TO.P,J1,A46,FMC_LA09_P*
G04 #@! TO.N,unconnected-(J1-FMC_LA09_P-PadA46)*
X153172000Y-105791000D03*
G04 #@! TO.P,J1,A47,FMC_LA09_N*
G04 #@! TO.N,unconnected-(J1-FMC_LA09_N-PadA47)*
X154172000Y-105791000D03*
G04 #@! TO.P,J1,A48,FMC_LA07_P*
G04 #@! TO.N,unconnected-(J1-FMC_LA07_P-PadA48)*
X155172000Y-105791000D03*
G04 #@! TO.P,J1,A49,FMC_LA07_N*
G04 #@! TO.N,unconnected-(J1-FMC_LA07_N-PadA49)*
X156172000Y-105791000D03*
G04 #@! TD*
D15*
G04 #@! TO.N,VDD*
X122025400Y-91274600D03*
D16*
X123300000Y-81800000D03*
D15*
X121523700Y-91274600D03*
G04 #@! TO.N,VDDA*
X117488000Y-76500000D03*
X121551404Y-96863200D03*
X122123200Y-96850200D03*
X120620492Y-81640000D03*
D16*
X122700000Y-81000000D03*
D15*
G04 #@! TO.N,suba*
X113900000Y-83125000D03*
X139200000Y-83490000D03*
G04 #@! TO.N,/res_n*
X128265771Y-82235272D03*
X129584000Y-100400000D03*
G04 #@! TO.N,/DAC_blpix*
X138150000Y-85850000D03*
X130900000Y-82200000D03*
G04 #@! TO.N,/Inj*
X135100000Y-103000000D03*
G04 #@! TO.N,/DAC_VCasc2!*
X138850000Y-86700000D03*
X133390000Y-82220000D03*
G04 #@! TO.N,/DAC_vminuspix*
X131170000Y-83395498D03*
X139950000Y-86550000D03*
G04 #@! TO.N,/DAC_ThPix*
X131600000Y-82200000D03*
X139300000Y-86100000D03*
G04 #@! TO.N,/sr_ck2*
X147660000Y-101787500D03*
X129026827Y-83419502D03*
G04 #@! TO.N,/sr_ck1*
X131412000Y-102308672D03*
X128941087Y-82187725D03*
X130724000Y-102900000D03*
X146850000Y-102199500D03*
G04 #@! TO.N,/sr_ld*
X146200000Y-101300000D03*
X131655441Y-86745913D03*
X129287500Y-86500000D03*
X131690000Y-101370000D03*
G04 #@! TO.N,/sr_sin*
X146920000Y-100700000D03*
X132238000Y-89600000D03*
X130184319Y-82203130D03*
X132412000Y-101000000D03*
G04 #@! TO.N,GND*
X145000000Y-72600000D03*
X122560000Y-102920000D03*
X128860000Y-89830000D03*
X137700000Y-81200000D03*
X137700000Y-79800000D03*
X120777000Y-94742000D03*
X131300000Y-85700000D03*
X149411002Y-83769945D03*
X129900000Y-84100000D03*
X117500400Y-93421200D03*
X141200000Y-72700000D03*
X119150000Y-89450000D03*
X115824000Y-102717600D03*
X140700000Y-86900000D03*
X128300000Y-84500000D03*
X134350000Y-83300000D03*
X119176800Y-93421200D03*
X124230000Y-77870000D03*
X132800000Y-82800000D03*
X133120000Y-89800000D03*
X138800000Y-85600000D03*
X120900000Y-72400000D03*
X115214400Y-102743000D03*
X120800000Y-89450000D03*
X140120000Y-83890000D03*
X120751600Y-93421200D03*
X117550000Y-89450000D03*
X115824000Y-102108000D03*
X118988000Y-72558655D03*
X146800000Y-65000000D03*
X110642400Y-89814400D03*
X127640000Y-103090000D03*
X117500388Y-94691200D03*
X132900000Y-103040000D03*
X127300000Y-85300000D03*
X130100000Y-82800000D03*
X119151402Y-94691200D03*
X127700000Y-88500000D03*
X147390000Y-102920000D03*
X128620000Y-101040000D03*
X115214400Y-102108000D03*
X123000000Y-72900000D03*
X146190000Y-100040000D03*
X133521904Y-85818767D03*
X141300000Y-77700000D03*
X144900000Y-76600000D03*
X133030000Y-100200000D03*
X113944400Y-89814398D03*
X137470000Y-87770000D03*
X127200000Y-84500000D03*
G04 #@! TO.N,/interrupt*
X128500000Y-87600000D03*
X130087500Y-87884543D03*
G04 #@! TO.N,/spi_left_csn*
X119400000Y-73000000D03*
G04 #@! TO.N,/spi_left_clk*
X120000000Y-77680000D03*
G04 #@! TO.N,/spi_left_mosi*
X122600000Y-77700000D03*
G04 #@! TO.N,/spi_left_miso0*
X122000000Y-72400000D03*
G04 #@! TO.N,/spi_left_miso1*
X120700000Y-73000000D03*
G04 #@! TO.N,/spi_right_csn*
X143800000Y-77400000D03*
G04 #@! TO.N,/spi_right_clk*
X141800000Y-73099996D03*
G04 #@! TO.N,/spi_right_mosi*
X144400000Y-73100000D03*
G04 #@! TO.N,/spi_right_miso0*
X143100000Y-76900000D03*
G04 #@! TO.N,/spi_right_miso1*
X142600000Y-76200000D03*
G04 #@! TO.N,/sr_rb*
X129900000Y-101500000D03*
G04 #@! TO.N,/sr_out*
X129899500Y-102500000D03*
G04 #@! TO.N,/sr_ldtdac*
X129400000Y-89250000D03*
G04 #@! TO.N,VSSA*
X116550000Y-88650000D03*
X122400000Y-87300000D03*
X116550000Y-87400000D03*
D16*
X124100000Y-82300000D03*
D15*
X116550000Y-88000000D03*
X121800000Y-87300000D03*
G04 #@! TO.N,Net-(J8-In)*
X137700000Y-80500000D03*
X127200000Y-82600000D03*
G04 #@! TO.N,/cascpix*
X133200000Y-84100000D03*
G04 #@! TO.N,/pamp*
X131588000Y-94560000D03*
G04 #@! TO.N,/VPBias*
X130388677Y-83422656D03*
G04 #@! TO.N,/pload*
X136180000Y-88700000D03*
X133160000Y-88560000D03*
G04 #@! TD*
D17*
G04 #@! TO.N,/DAC_vminuspix*
X137749417Y-87112500D02*
X139387500Y-87112500D01*
X133732998Y-83395498D02*
X137445000Y-87107500D01*
X139387500Y-87112500D02*
X139950000Y-86550000D01*
X131170000Y-83395498D02*
X133732998Y-83395498D01*
X137445000Y-87107500D02*
X137744417Y-87107500D01*
X137744417Y-87107500D02*
X137749417Y-87112500D01*
D18*
G04 #@! TO.N,VDD*
X122208529Y-89228529D02*
X122208529Y-91091471D01*
X123300000Y-81800000D02*
X121175000Y-83925000D01*
X122025400Y-91274600D02*
X121523700Y-91274600D01*
X121175000Y-83925000D02*
X121175000Y-87805000D01*
X121175000Y-87805000D02*
X121180000Y-87810000D01*
X122208529Y-91091471D02*
X122025400Y-91274600D01*
X121180000Y-87810000D02*
X121180000Y-88200000D01*
X121180000Y-88200000D02*
X122208529Y-89228529D01*
G04 #@! TO.N,VDDA*
X122123200Y-92757983D02*
X122123200Y-96850200D01*
D19*
X121020000Y-81640000D02*
X121515000Y-82135000D01*
D18*
X122700000Y-81000000D02*
X122700000Y-80950000D01*
X121515000Y-82135000D02*
X120040000Y-83610000D01*
X122123200Y-96850200D02*
X121564404Y-96850200D01*
X122700000Y-80950000D02*
X121515000Y-82135000D01*
X120040000Y-83610000D02*
X120040000Y-90674783D01*
D19*
X117488000Y-76500000D02*
X115620000Y-76500000D01*
X120620492Y-81640000D02*
X121020000Y-81640000D01*
D18*
X122672500Y-80995000D02*
X122667500Y-81000000D01*
X120040000Y-90674783D02*
X122123200Y-92757983D01*
X122667500Y-81000000D02*
X122700000Y-81000000D01*
D20*
X121564404Y-96850200D02*
X121551404Y-96863200D01*
D17*
X115620000Y-76500000D02*
X115600000Y-76480000D01*
D21*
G04 #@! TO.N,suba*
X135100000Y-66500000D02*
X114700000Y-66500000D01*
X139200000Y-83490000D02*
X139200000Y-70600000D01*
X114700000Y-66500000D02*
X113900000Y-67300000D01*
X113900000Y-67300000D02*
X113900000Y-83125000D01*
X139200000Y-70600000D02*
X135100000Y-66500000D01*
D17*
G04 #@! TO.N,/res_n*
X129584000Y-100400000D02*
X129584000Y-92184000D01*
X127150000Y-86900000D02*
X127712500Y-86337500D01*
X127712500Y-86337500D02*
X127712500Y-82788543D01*
X127712500Y-82788543D02*
X128265771Y-82235272D01*
X129584000Y-92184000D02*
X127150000Y-89750000D01*
X127150000Y-89750000D02*
X127150000Y-86900000D01*
G04 #@! TO.N,/DAC_blpix*
X130900000Y-82186136D02*
X131579605Y-81506531D01*
X130900000Y-82200000D02*
X130900000Y-82186136D01*
X131579605Y-81506531D02*
X134656531Y-81506531D01*
X138150000Y-85000000D02*
X134656531Y-81506531D01*
X138150000Y-85850000D02*
X138150000Y-85000000D01*
G04 #@! TO.N,/Inj*
X135172000Y-105791000D02*
X135172000Y-103072000D01*
X135172000Y-103072000D02*
X135100000Y-103000000D01*
G04 #@! TO.N,/DAC_VCasc2!*
X137450000Y-86086917D02*
X138063083Y-86700000D01*
X133390000Y-82220000D02*
X134423553Y-82220000D01*
X134423553Y-82220000D02*
X137450000Y-85246447D01*
X137450000Y-85246447D02*
X137450000Y-86086917D01*
X138063083Y-86700000D02*
X138850000Y-86700000D01*
G04 #@! TO.N,/DAC_ThPix*
X131600000Y-82200000D02*
X132043469Y-81756531D01*
X139112500Y-86287500D02*
X139300000Y-86100000D01*
X137737500Y-85087500D02*
X137737500Y-86020864D01*
X137737500Y-86020864D02*
X138004136Y-86287500D01*
X132043469Y-81756531D02*
X134406531Y-81756531D01*
X134406531Y-81756531D02*
X137737500Y-85087500D01*
X138004136Y-86287500D02*
X139112500Y-86287500D01*
G04 #@! TO.N,/sr_ck2*
X132570000Y-86370000D02*
X132570000Y-87190000D01*
X147660000Y-101787500D02*
X132215864Y-101787500D01*
X131175500Y-94224500D02*
X131175500Y-101436500D01*
X131558536Y-101832500D02*
X131175500Y-101449464D01*
X131000000Y-101612000D02*
X131000000Y-102500000D01*
X132215864Y-101787500D02*
X132170864Y-101832500D01*
X132570000Y-87190000D02*
X131500000Y-88260000D01*
X131000000Y-102500000D02*
X132172000Y-103672000D01*
X129026827Y-83419502D02*
X128962500Y-83483829D01*
X131500000Y-88260000D02*
X131500000Y-93900000D01*
X129533947Y-85287500D02*
X131487500Y-85287500D01*
X132170864Y-101832500D02*
X131558536Y-101832500D01*
X131175500Y-101436500D02*
X131000000Y-101612000D01*
X128962500Y-84716053D02*
X129533947Y-85287500D01*
X128962500Y-83483829D02*
X128962500Y-84716053D01*
X131487500Y-85287500D02*
X132570000Y-86370000D01*
X131500000Y-93900000D02*
X131175500Y-94224500D01*
X132172000Y-103672000D02*
X132172000Y-105791000D01*
G04 #@! TO.N,/sr_ck1*
X131415828Y-102312500D02*
X132987500Y-102312500D01*
X131172000Y-103348000D02*
X131172000Y-105791000D01*
X131412000Y-102308672D02*
X131415828Y-102312500D01*
X128896682Y-82187725D02*
X128450000Y-82634407D01*
X132067941Y-86517941D02*
X132067941Y-87142059D01*
X128712500Y-84912500D02*
X130000000Y-86200000D01*
X131750000Y-86200000D02*
X132067941Y-86517941D01*
X133088939Y-102211061D02*
X133000000Y-102300000D01*
X132067941Y-87142059D02*
X130700000Y-88510000D01*
X130000000Y-86200000D02*
X131750000Y-86200000D01*
X128450000Y-82634407D02*
X128450000Y-84066636D01*
X128941087Y-82187725D02*
X128896682Y-82187725D01*
X128712500Y-84329136D02*
X128712500Y-84912500D01*
X130700000Y-102600000D02*
X130724000Y-102624000D01*
X128450000Y-84066636D02*
X128712500Y-84329136D01*
X146850000Y-102199500D02*
X146838439Y-102211061D01*
X132987500Y-102312500D02*
X133088939Y-102211061D01*
X130700000Y-88510000D02*
X130700000Y-102600000D01*
X130724000Y-102900000D02*
X131172000Y-103348000D01*
X130724000Y-102624000D02*
X130724000Y-102900000D01*
X146838439Y-102211061D02*
X133088939Y-102211061D01*
G04 #@! TO.N,/sr_ld*
X146087500Y-101412500D02*
X146200000Y-101300000D01*
X131732500Y-101412500D02*
X146087500Y-101412500D01*
X131409528Y-86500000D02*
X131655441Y-86745913D01*
X131690000Y-101370000D02*
X131732500Y-101412500D01*
X129287500Y-86500000D02*
X131409528Y-86500000D01*
G04 #@! TO.N,/sr_sin*
X146920000Y-100700000D02*
X132712000Y-100700000D01*
X132240000Y-88260000D02*
X132240000Y-89507364D01*
X129800000Y-84800000D02*
X131700000Y-84800000D01*
X130200000Y-82169065D02*
X130030935Y-82169065D01*
X130030935Y-82169065D02*
X129487500Y-82712500D01*
X132712000Y-100700000D02*
X132412000Y-101000000D01*
X129487500Y-82712500D02*
X129487500Y-84487500D01*
X129487500Y-84487500D02*
X129800000Y-84800000D01*
X131700000Y-84800000D02*
X133100000Y-86200000D01*
X133100000Y-86200000D02*
X133100000Y-87400000D01*
X133100000Y-87400000D02*
X132240000Y-88260000D01*
X132240000Y-89507364D02*
X132238000Y-89509364D01*
D18*
G04 #@! TO.N,GND*
X116172000Y-105791000D02*
X116172000Y-102456000D01*
X116172000Y-102456000D02*
X115824000Y-102108000D01*
D17*
G04 #@! TO.N,/interrupt*
X128784543Y-87884543D02*
X130087500Y-87884543D01*
X128500000Y-87600000D02*
X128784543Y-87884543D01*
G04 #@! TO.N,/spi_left_csn*
X123172000Y-103837011D02*
X123172000Y-105791000D01*
X119900978Y-80250978D02*
X119400000Y-79750000D01*
X119400000Y-79750000D02*
X119400000Y-73000000D01*
X125360000Y-81841282D02*
X123769696Y-80250978D01*
X123172000Y-105791000D02*
X123172000Y-87948000D01*
X123769696Y-80250978D02*
X119900978Y-80250978D01*
X125360000Y-85760000D02*
X125360000Y-81841282D01*
X123172000Y-87948000D02*
X125360000Y-85760000D01*
G04 #@! TO.N,/spi_left_clk*
X120000000Y-79100000D02*
X120900000Y-80000000D01*
X123620000Y-102670000D02*
X124172000Y-103222000D01*
X125800000Y-85830000D02*
X123620000Y-88010000D01*
X120900000Y-80000000D02*
X121092893Y-80000000D01*
X124100978Y-80000978D02*
X125800000Y-81700000D01*
X123620000Y-88010000D02*
X123620000Y-102670000D01*
X125800000Y-81700000D02*
X125800000Y-85830000D01*
X121093871Y-80000978D02*
X124100978Y-80000978D01*
X124172000Y-103222000D02*
X124172000Y-105791000D01*
X120000000Y-77680000D02*
X120000000Y-79100000D01*
X121092893Y-80000000D02*
X121093871Y-80000978D01*
G04 #@! TO.N,/spi_left_mosi*
X127172000Y-103852000D02*
X127172000Y-105791000D01*
X126700000Y-81041414D02*
X126700000Y-86520000D01*
X124700000Y-101380000D02*
X127172000Y-103852000D01*
X124700000Y-88520000D02*
X124700000Y-101380000D01*
X126700000Y-86520000D02*
X124700000Y-88520000D01*
X123358586Y-77700000D02*
X126700000Y-81041414D01*
X122600000Y-77700000D02*
X123358586Y-77700000D01*
G04 #@! TO.N,/spi_left_miso0*
X121700000Y-78500000D02*
X122300000Y-79100000D01*
X122300000Y-79100000D02*
X124405032Y-79100000D01*
X126400000Y-86310000D02*
X124360000Y-88350000D01*
X126172000Y-103692000D02*
X126172000Y-105791000D01*
X124405032Y-79100000D02*
X126400000Y-81094968D01*
X124360000Y-88350000D02*
X124360000Y-101880000D01*
X124360000Y-101880000D02*
X126172000Y-103692000D01*
X126400000Y-81094968D02*
X126400000Y-86310000D01*
X121700000Y-72700000D02*
X121700000Y-78500000D01*
X122000000Y-72400000D02*
X121700000Y-72700000D01*
G04 #@! TO.N,/spi_left_miso1*
X120700000Y-73000000D02*
X120700000Y-78300000D01*
X124020000Y-88160000D02*
X124020000Y-102180000D01*
X126100000Y-81347139D02*
X126100000Y-86080000D01*
X120700000Y-78300000D02*
X121900000Y-79500000D01*
X125172000Y-103332000D02*
X125172000Y-105791000D01*
X124020000Y-102180000D02*
X125172000Y-103332000D01*
X126100000Y-86080000D02*
X124020000Y-88160000D01*
X121900000Y-79500000D02*
X124252861Y-79500000D01*
X124252861Y-79500000D02*
X126100000Y-81347139D01*
G04 #@! TO.N,/spi_right_csn*
X150172000Y-83772000D02*
X143800000Y-77400000D01*
X150172000Y-105791000D02*
X150172000Y-83772000D01*
G04 #@! TO.N,/spi_right_clk*
X147172000Y-103991000D02*
X148100000Y-103063000D01*
X148100000Y-84700000D02*
X141800000Y-78400000D01*
X147172000Y-105791000D02*
X147172000Y-103991000D01*
X130937000Y-54637000D02*
X130937000Y-54610000D01*
X148100000Y-103063000D02*
X148100000Y-84700000D01*
X141800000Y-78400000D02*
X141800000Y-73099996D01*
G04 #@! TO.N,/spi_right_mosi*
X151172000Y-105791000D02*
X151172000Y-83772000D01*
X144400000Y-77000000D02*
X144400000Y-73100000D01*
X151172000Y-83772000D02*
X144400000Y-77000000D01*
G04 #@! TO.N,/spi_right_miso0*
X143100000Y-77794304D02*
X143100000Y-76900000D01*
X149172000Y-103516000D02*
X149172000Y-105791000D01*
X143100000Y-77794304D02*
X148999002Y-83693306D01*
X148999002Y-83693306D02*
X148999002Y-103343002D01*
X148999002Y-103343002D02*
X149172000Y-103516000D01*
G04 #@! TO.N,/spi_right_miso1*
X148500000Y-84200000D02*
X148500000Y-105463000D01*
X142600000Y-78300000D02*
X142600000Y-76200000D01*
X142600000Y-78300000D02*
X148500000Y-84200000D01*
X148500000Y-105463000D02*
X148172000Y-105791000D01*
G04 #@! TO.N,/sr_rb*
X129900000Y-101500000D02*
X130312000Y-101912000D01*
X130312000Y-105651000D02*
X130172000Y-105791000D01*
X130312000Y-101912000D02*
X130312000Y-105651000D01*
G04 #@! TO.N,/sr_out*
X129172000Y-103227500D02*
X129172000Y-105791000D01*
X129899500Y-102500000D02*
X129172000Y-103227500D01*
G04 #@! TO.N,/sr_ldtdac*
X130312500Y-90162500D02*
X130312500Y-100770864D01*
X130033364Y-101050000D02*
X129766636Y-101050000D01*
X129766636Y-101050000D02*
X128172000Y-102644636D01*
X128172000Y-102644636D02*
X128172000Y-105791000D01*
X130312500Y-100770864D02*
X130033364Y-101050000D01*
X129400000Y-89250000D02*
X130312500Y-90162500D01*
D18*
G04 #@! TO.N,VSSA*
X116550000Y-88000000D02*
X116550000Y-87400000D01*
X122400000Y-87300000D02*
X121800000Y-87300000D01*
X124067500Y-82300000D02*
X124100000Y-82300000D01*
X111172000Y-105791000D02*
X111172000Y-102128000D01*
X116550000Y-88650000D02*
X116550000Y-88000000D01*
X124100000Y-82267500D02*
X124072500Y-82295000D01*
X115400000Y-99500000D02*
X116550000Y-98350000D01*
X122800000Y-83567500D02*
X124067500Y-82300000D01*
X111172000Y-102128000D02*
X113800000Y-99500000D01*
X110172000Y-105791000D02*
X111172000Y-105791000D01*
X122800000Y-83600000D02*
X122800000Y-83567500D01*
X122400000Y-84000000D02*
X122800000Y-83600000D01*
X124100000Y-82300000D02*
X124100000Y-82267500D01*
X113800000Y-99500000D02*
X115400000Y-99500000D01*
X122400000Y-87300000D02*
X122400000Y-84000000D01*
X116550000Y-98350000D02*
X116550000Y-88650000D01*
D19*
G04 #@! TO.N,Net-(J8-In)*
X128500000Y-80500000D02*
X137700000Y-80500000D01*
X127200000Y-82600000D02*
X127200000Y-81800000D01*
X127200000Y-81800000D02*
X128500000Y-80500000D01*
D17*
G04 #@! TO.N,/cascpix*
X139362500Y-87362500D02*
X137645864Y-87362500D01*
X140477500Y-97542500D02*
X140477500Y-88477500D01*
X137067500Y-87357500D02*
X133810000Y-84100000D01*
X137645864Y-87362500D02*
X137640864Y-87357500D01*
X133810000Y-84100000D02*
X133200000Y-84100000D01*
X140477500Y-88477500D02*
X139362500Y-87362500D01*
X137640864Y-87357500D02*
X137067500Y-87357500D01*
X139440000Y-98580000D02*
X140477500Y-97542500D01*
G04 #@! TO.N,/pamp*
X131728000Y-94700000D02*
X138100000Y-94700000D01*
X138100000Y-94700000D02*
X139440000Y-96040000D01*
X131588000Y-94560000D02*
X131728000Y-94700000D01*
G04 #@! TO.N,/VPBias*
X138100000Y-89500000D02*
X138100000Y-92160000D01*
X138100000Y-92160000D02*
X139440000Y-93500000D01*
X130388677Y-83422656D02*
X131516021Y-84550000D01*
X131516021Y-84550000D02*
X133150000Y-84550000D01*
X133150000Y-84550000D02*
X138100000Y-89500000D01*
G04 #@! TO.N,/pload*
X136180000Y-88700000D02*
X133300000Y-88700000D01*
X133300000Y-88700000D02*
X133160000Y-88560000D01*
G04 #@! TD*
G04 #@! TA.AperFunction,Conductor*
G04 #@! TO.N,GND*
G36*
X116121721Y-101823202D02*
G01*
X116168214Y-101876858D01*
X116179600Y-101929200D01*
X116179600Y-102947200D01*
X116159598Y-103015321D01*
X116105942Y-103061814D01*
X116053600Y-103073200D01*
X114984800Y-103073200D01*
X114916679Y-103053198D01*
X114870186Y-102999542D01*
X114858800Y-102947200D01*
X114858800Y-101929200D01*
X114878802Y-101861079D01*
X114932458Y-101814586D01*
X114984800Y-101803200D01*
X116053600Y-101803200D01*
X116121721Y-101823202D01*
G37*
G04 #@! TD.AperFunction*
G04 #@! TD*
M02*
