G04 #@! TF.GenerationSoftware,KiCad,Pcbnew,7.0.7-7.0.7~ubuntu22.04.1*
G04 #@! TF.CreationDate,2023-09-29T12:00:57+02:00*
G04 #@! TF.ProjectId,astropix_v4,61737472-6f70-4697-985f-76342e6b6963,1.0*
G04 #@! TF.SameCoordinates,Original*
G04 #@! TF.FileFunction,Soldermask,Bot*
G04 #@! TF.FilePolarity,Negative*
%FSLAX46Y46*%
G04 Gerber Fmt 4.6, Leading zero omitted, Abs format (unit mm)*
G04 Created by KiCad (PCBNEW 7.0.7-7.0.7~ubuntu22.04.1) date 2023-09-29 12:00:57*
%MOMM*%
%LPD*%
G01*
G04 APERTURE LIST*
%ADD10C,2.250000*%
%ADD11R,1.700000X1.700000*%
%ADD12O,1.700000X1.700000*%
%ADD13C,3.200000*%
%ADD14R,0.700000X3.200000*%
%ADD15R,0.700000X4.300000*%
%ADD16C,3.100000*%
%ADD17C,0.450000*%
%ADD18C,0.600000*%
G04 APERTURE END LIST*
D10*
G04 #@! TO.C,J6*
X109520000Y-75000000D03*
X106980000Y-77540000D03*
X112060000Y-77540000D03*
X106980000Y-72460000D03*
X112060000Y-72460000D03*
G04 #@! TD*
D11*
G04 #@! TO.C,J9*
X126492000Y-54610000D03*
D12*
X123952000Y-54610000D03*
X121412000Y-54610000D03*
X118872000Y-54610000D03*
X116332000Y-54610000D03*
X113792000Y-54610000D03*
G04 #@! TD*
D11*
G04 #@! TO.C,J10*
X130937000Y-54610000D03*
D12*
X133477000Y-54610000D03*
X136017000Y-54610000D03*
X138557000Y-54610000D03*
X141097000Y-54610000D03*
X143637000Y-54610000D03*
G04 #@! TD*
D11*
G04 #@! TO.C,JP1*
X114909600Y-92710000D03*
D12*
X114909600Y-95250000D03*
X114909600Y-97790000D03*
G04 #@! TD*
D13*
G04 #@! TO.C,H1*
X118850000Y-59950000D03*
G04 #@! TD*
G04 #@! TO.C,H2*
X145400000Y-87100000D03*
G04 #@! TD*
D10*
G04 #@! TO.C,J4*
X152800000Y-76000000D03*
X155340000Y-73460000D03*
X150260000Y-73460000D03*
X155340000Y-78540000D03*
X150260000Y-78540000D03*
G04 #@! TD*
D11*
G04 #@! TO.C,J11*
X115600000Y-68860000D03*
D12*
X115600000Y-71400000D03*
X115600000Y-73940000D03*
X115600000Y-76480000D03*
X115600000Y-79020000D03*
G04 #@! TD*
D11*
G04 #@! TO.C,J2*
X136600000Y-90820000D03*
D12*
X139140000Y-90820000D03*
X136600000Y-93360000D03*
X139140000Y-93360000D03*
X136600000Y-95900000D03*
X139140000Y-95900000D03*
X136600000Y-98440000D03*
X139140000Y-98440000D03*
G04 #@! TD*
D10*
G04 #@! TO.C,J8*
X152800000Y-61900000D03*
X155340000Y-59360000D03*
X150260000Y-59360000D03*
X155340000Y-64440000D03*
X150260000Y-64440000D03*
G04 #@! TD*
D14*
G04 #@! TO.C,J1*
X106172000Y-105241000D03*
D15*
X108172000Y-105791000D03*
X109172000Y-105791000D03*
X110172000Y-105791000D03*
X111172000Y-105791000D03*
X112172000Y-105791000D03*
X113172000Y-105791000D03*
X114172000Y-105791000D03*
X115172000Y-105791000D03*
X116172000Y-105791000D03*
X119172000Y-105791000D03*
X120172000Y-105791000D03*
X121172000Y-105791000D03*
X122172000Y-105791000D03*
X123172000Y-105791000D03*
X124172000Y-105791000D03*
X125172000Y-105791000D03*
X126172000Y-105791000D03*
X127172000Y-105791000D03*
X128172000Y-105791000D03*
X129172000Y-105791000D03*
X130172000Y-105791000D03*
X131172000Y-105791000D03*
X132172000Y-105791000D03*
X133172000Y-105791000D03*
X134172000Y-105791000D03*
X135172000Y-105791000D03*
X136172000Y-105791000D03*
X137172000Y-105791000D03*
X138172000Y-105791000D03*
X139172000Y-105791000D03*
X140172000Y-105791000D03*
X141172000Y-105791000D03*
X142172000Y-105791000D03*
X143172000Y-105791000D03*
X144172000Y-105791000D03*
X145172000Y-105791000D03*
X146172000Y-105791000D03*
X147172000Y-105791000D03*
X148172000Y-105791000D03*
X149172000Y-105791000D03*
X150172000Y-105791000D03*
X151172000Y-105791000D03*
X152172000Y-105791000D03*
X153172000Y-105791000D03*
X154172000Y-105791000D03*
X155172000Y-105791000D03*
X156172000Y-105791000D03*
G04 #@! TD*
D16*
G04 #@! TO.C,H3*
X108500000Y-54800000D03*
X108500000Y-81800000D03*
X153500000Y-54800000D03*
X153500000Y-81800000D03*
G04 #@! TD*
D17*
X122025400Y-91274600D03*
D18*
X123300000Y-81800000D03*
D17*
X121523700Y-91274600D03*
X117488000Y-76500000D03*
X121551404Y-96863200D03*
X122123200Y-96850200D03*
X120620492Y-81640000D03*
D18*
X122700000Y-81000000D03*
D17*
X113900000Y-83125000D03*
X139200000Y-83490000D03*
X128265771Y-82235272D03*
X129584000Y-100400000D03*
X138150000Y-85850000D03*
X130900000Y-82200000D03*
X135100000Y-103000000D03*
X138850000Y-86700000D03*
X133390000Y-82220000D03*
X131170000Y-83395498D03*
X139950000Y-86550000D03*
X131600000Y-82200000D03*
X139300000Y-86100000D03*
X147660000Y-101787500D03*
X129026827Y-83419502D03*
X131412000Y-102308672D03*
X128941087Y-82187725D03*
X130724000Y-102900000D03*
X146850000Y-102199500D03*
X146200000Y-101300000D03*
X131655441Y-86745913D03*
X129287500Y-86500000D03*
X131690000Y-101370000D03*
X146920000Y-100700000D03*
X132238000Y-89600000D03*
X130184319Y-82203130D03*
X132412000Y-101000000D03*
X145000000Y-72600000D03*
X122560000Y-102920000D03*
X128860000Y-89830000D03*
X137700000Y-81200000D03*
X137700000Y-79800000D03*
X120777000Y-94742000D03*
X131300000Y-85700000D03*
X149411002Y-83769945D03*
X129900000Y-84100000D03*
X117500400Y-93421200D03*
X141200000Y-72700000D03*
X119150000Y-89450000D03*
X115824000Y-102717600D03*
X140700000Y-86900000D03*
X128300000Y-84500000D03*
X134350000Y-83300000D03*
X119176800Y-93421200D03*
X124230000Y-77870000D03*
X132800000Y-82800000D03*
X133120000Y-89800000D03*
X138800000Y-85600000D03*
X120900000Y-72400000D03*
X115214400Y-102743000D03*
X120800000Y-89450000D03*
X140120000Y-83890000D03*
X120751600Y-93421200D03*
X117550000Y-89450000D03*
X115824000Y-102108000D03*
X118988000Y-72558655D03*
X146800000Y-65000000D03*
X110642400Y-89814400D03*
X127640000Y-103090000D03*
X117500388Y-94691200D03*
X132900000Y-103040000D03*
X127300000Y-85300000D03*
X130100000Y-82800000D03*
X119151402Y-94691200D03*
X127700000Y-88500000D03*
X147390000Y-102920000D03*
X128620000Y-101040000D03*
X115214400Y-102108000D03*
X123000000Y-72900000D03*
X146190000Y-100040000D03*
X133521904Y-85818767D03*
X141300000Y-77700000D03*
X144900000Y-76600000D03*
X133030000Y-100200000D03*
X113944400Y-89814398D03*
X137470000Y-87770000D03*
X127200000Y-84500000D03*
X128500000Y-87600000D03*
X130087500Y-87884543D03*
X119400000Y-73000000D03*
X120000000Y-77680000D03*
X122600000Y-77700000D03*
X122000000Y-72400000D03*
X120700000Y-73000000D03*
X143800000Y-77400000D03*
X141800000Y-73099996D03*
X144400000Y-73100000D03*
X143100000Y-76900000D03*
X142600000Y-76200000D03*
X129900000Y-101500000D03*
X129899500Y-102500000D03*
X129400000Y-89250000D03*
X116550000Y-88650000D03*
X122400000Y-87300000D03*
X116550000Y-87400000D03*
D18*
X124100000Y-82300000D03*
D17*
X116550000Y-88000000D03*
X121800000Y-87300000D03*
X137700000Y-80500000D03*
X127200000Y-82600000D03*
X133200000Y-84100000D03*
X131588000Y-94560000D03*
X130388677Y-83422656D03*
X136180000Y-88700000D03*
X133160000Y-88560000D03*
M02*
