G04 #@! TF.GenerationSoftware,KiCad,Pcbnew,7.0.7-7.0.7~ubuntu22.04.1*
G04 #@! TF.CreationDate,2023-09-29T12:00:57+02:00*
G04 #@! TF.ProjectId,astropix_v4,61737472-6f70-4697-985f-76342e6b6963,1.0*
G04 #@! TF.SameCoordinates,Original*
G04 #@! TF.FileFunction,Paste,Top*
G04 #@! TF.FilePolarity,Positive*
%FSLAX46Y46*%
G04 Gerber Fmt 4.6, Leading zero omitted, Abs format (unit mm)*
G04 Created by KiCad (PCBNEW 7.0.7-7.0.7~ubuntu22.04.1) date 2023-09-29 12:00:57*
%MOMM*%
%LPD*%
G01*
G04 APERTURE LIST*
G04 Aperture macros list*
%AMRoundRect*
0 Rectangle with rounded corners*
0 $1 Rounding radius*
0 $2 $3 $4 $5 $6 $7 $8 $9 X,Y pos of 4 corners*
0 Add a 4 corners polygon primitive as box body*
4,1,4,$2,$3,$4,$5,$6,$7,$8,$9,$2,$3,0*
0 Add four circle primitives for the rounded corners*
1,1,$1+$1,$2,$3*
1,1,$1+$1,$4,$5*
1,1,$1+$1,$6,$7*
1,1,$1+$1,$8,$9*
0 Add four rect primitives between the rounded corners*
20,1,$1+$1,$2,$3,$4,$5,0*
20,1,$1+$1,$4,$5,$6,$7,0*
20,1,$1+$1,$6,$7,$8,$9,0*
20,1,$1+$1,$8,$9,$2,$3,0*%
%AMFreePoly0*
4,1,19,12.075000,0.104904,12.129904,0.050000,12.150000,-0.025000,12.129904,-0.100000,12.075000,-0.154904,12.000000,-0.175000,-0.600900,-0.175000,-0.935151,-0.335257,-1.011467,-0.349561,-1.084712,-0.323790,-1.135257,-0.264849,-1.149561,-0.188533,-1.123790,-0.115288,-1.064849,-0.064743,-0.699849,0.110257,-0.667146,0.116386,-0.635000,0.125000,12.000000,0.125000,12.075000,0.104904,12.075000,0.104904,
$1*%
%AMFreePoly1*
4,1,19,10.975000,0.129904,11.029904,0.075000,11.050000,0.000000,11.029904,-0.075000,10.975000,-0.129904,10.900000,-0.150000,-0.236351,-0.150000,-1.344715,-0.589440,-1.421842,-0.598401,-1.493117,-0.567598,-1.539440,-0.505285,-1.548401,-0.428158,-1.517598,-0.356883,-1.455285,-0.310560,-0.320285,0.139440,-0.292257,0.142696,-0.265000,0.150000,10.900000,0.150000,10.975000,0.129904,10.975000,0.129904,
$1*%
%AMFreePoly2*
4,1,19,9.775000,0.104904,9.829904,0.050000,9.850000,-0.025000,9.829904,-0.100000,9.775000,-0.154904,9.700000,-0.175000,-0.369999,-0.175000,-1.842308,-0.788462,-1.919268,-0.798758,-1.991065,-0.769194,-2.038462,-0.707692,-2.048758,-0.630732,-2.019194,-0.558935,-1.957692,-0.511538,-0.457692,0.113462,-0.428470,0.117371,-0.400000,0.125000,9.700000,0.125000,9.775000,0.104904,9.775000,0.104904,
$1*%
G04 Aperture macros list end*
%ADD10RoundRect,0.225000X-0.250000X0.225000X-0.250000X-0.225000X0.250000X-0.225000X0.250000X0.225000X0*%
%ADD11RoundRect,0.250000X1.100000X-0.325000X1.100000X0.325000X-1.100000X0.325000X-1.100000X-0.325000X0*%
%ADD12RoundRect,0.225000X0.250000X-0.225000X0.250000X0.225000X-0.250000X0.225000X-0.250000X-0.225000X0*%
%ADD13RoundRect,0.200000X-0.275000X0.200000X-0.275000X-0.200000X0.275000X-0.200000X0.275000X0.200000X0*%
%ADD14RoundRect,0.135000X0.185000X-0.135000X0.185000X0.135000X-0.185000X0.135000X-0.185000X-0.135000X0*%
%ADD15RoundRect,0.135000X-0.185000X0.135000X-0.185000X-0.135000X0.185000X-0.135000X0.185000X0.135000X0*%
%ADD16R,0.400000X0.500000*%
%ADD17R,0.125000X0.600000*%
%ADD18R,0.600000X0.125000*%
%ADD19FreePoly0,0.000000*%
%ADD20FreePoly1,0.000000*%
%ADD21FreePoly2,0.000000*%
G04 APERTURE END LIST*
D10*
G04 #@! TO.C,C8*
X120751600Y-91274600D03*
X120751600Y-92824600D03*
G04 #@! TD*
G04 #@! TO.C,C9*
X119176800Y-91274600D03*
X119176800Y-92824600D03*
G04 #@! TD*
G04 #@! TO.C,C10*
X117551200Y-91274600D03*
X117551200Y-92824600D03*
G04 #@! TD*
D11*
G04 #@! TO.C,C6*
X110693200Y-88978000D03*
X110693200Y-86028000D03*
G04 #@! TD*
G04 #@! TO.C,C4*
X113995200Y-88978000D03*
X113995200Y-86028000D03*
G04 #@! TD*
D12*
G04 #@! TO.C,C11*
X120751600Y-96863200D03*
X120751600Y-95313200D03*
G04 #@! TD*
G04 #@! TO.C,C13*
X119151400Y-96863200D03*
X119151400Y-95313200D03*
G04 #@! TD*
D13*
G04 #@! TO.C,R12*
X111900000Y-81475000D03*
X111900000Y-83125000D03*
G04 #@! TD*
D12*
G04 #@! TO.C,C14*
X117576600Y-96863200D03*
X117576600Y-95313200D03*
G04 #@! TD*
D14*
G04 #@! TO.C,R13*
X122000000Y-74910000D03*
X122000000Y-73890000D03*
G04 #@! TD*
G04 #@! TO.C,R14*
X119400000Y-74910000D03*
X119400000Y-73890000D03*
G04 #@! TD*
G04 #@! TO.C,R10*
X120700000Y-74910000D03*
X120700000Y-73890000D03*
G04 #@! TD*
D15*
G04 #@! TO.C,R18*
X141800000Y-73890000D03*
X141800000Y-74910000D03*
G04 #@! TD*
D10*
G04 #@! TO.C,C2*
X120800000Y-87325000D03*
X120800000Y-88875000D03*
G04 #@! TD*
G04 #@! TO.C,C15*
X119150000Y-87325000D03*
X119150000Y-88875000D03*
G04 #@! TD*
D13*
G04 #@! TO.C,R1*
X146800000Y-62875000D03*
X146800000Y-64525000D03*
G04 #@! TD*
D15*
G04 #@! TO.C,R17*
X144400000Y-73880000D03*
X144400000Y-74900000D03*
G04 #@! TD*
D10*
G04 #@! TO.C,C1*
X117550000Y-87325000D03*
X117550000Y-88875000D03*
G04 #@! TD*
D13*
G04 #@! TO.C,R2*
X149300000Y-81575000D03*
X149300000Y-83225000D03*
G04 #@! TD*
D16*
G04 #@! TO.C,U1*
X125747500Y-82895000D03*
D17*
X126472500Y-82770000D03*
X126772500Y-85295000D03*
X127072500Y-85295000D03*
X127272500Y-84045000D03*
X127672500Y-85295000D03*
X127872500Y-82770000D03*
X127972500Y-85295000D03*
X128272500Y-85295000D03*
X128472500Y-84045000D03*
X128572500Y-85295000D03*
X128672500Y-82770000D03*
X128772500Y-84045000D03*
X128872500Y-85295000D03*
X128972500Y-82770000D03*
X129072500Y-84045000D03*
X129172500Y-85295000D03*
X129272500Y-82770000D03*
X129372500Y-84045000D03*
X129472500Y-85295000D03*
X129572500Y-82770000D03*
X129672500Y-84045000D03*
X129872500Y-82770000D03*
X130472500Y-82770000D03*
X130572500Y-84045000D03*
X130672500Y-85295000D03*
X130772500Y-82770000D03*
X130872500Y-84045000D03*
X130972500Y-85295000D03*
X131172500Y-84045000D03*
X131272500Y-85295000D03*
X131372500Y-82770000D03*
X131472500Y-84045000D03*
X131572500Y-85295000D03*
X131772500Y-84045000D03*
X131972500Y-82770000D03*
X132072500Y-84045000D03*
X132272500Y-82770000D03*
X132572500Y-82770000D03*
X132672500Y-84045000D03*
X132772500Y-85295000D03*
X132972500Y-84045000D03*
X133072500Y-85295000D03*
X133372500Y-85295000D03*
X133672500Y-85295000D03*
X133872500Y-84045000D03*
X134172500Y-84045000D03*
X134922500Y-84045000D03*
D18*
X121122500Y-78440000D03*
X122322500Y-78540000D03*
X123472500Y-78640000D03*
X121122500Y-78740000D03*
X122322500Y-78840000D03*
X140467500Y-78835000D03*
X139267500Y-78735000D03*
X138117500Y-78635000D03*
X140467500Y-78535000D03*
X139267500Y-78435000D03*
D19*
X123672500Y-80795000D03*
D20*
X124772500Y-81245000D03*
D21*
X125972500Y-81645000D03*
G04 #@! TD*
M02*
